<svg id="Layer_1" data-name="Layer 1" xmlns="http://www.w3.org/2000/svg" viewBox="0 0 872.88 176.55"><defs><style>.cls-1,.cls-2,.cls-3,.cls-4,.cls-5{fill:none;stroke-width:7px;}.cls-1{stroke:#2e3192;}.cls-1,.cls-2,.cls-3,.cls-4{stroke-linecap:round;}.cls-1,.cls-3,.cls-4{stroke-linejoin:round;}.cls-2{stroke:#70a8da;}.cls-2,.cls-5{stroke-miterlimit:10;}.cls-3{stroke:#be1e2d;}.cls-4{stroke:#ef937b;}.cls-5{stroke:#a3cdee;}.cls-6{fill:#a3cdee;}.cls-7{fill:#a7a9ac;}.cls-20,.cls-8{fill:#2e3192;}.cls-9{fill:#70a8da;}.cls-10,.cls-13{fill:#be1e2d;}.cls-11{fill:#ef937b;}.cls-12,.cls-15{fill:#231f20;}.cls-13,.cls-15,.cls-20{font-size:7px;font-family:MyriadPro-Bold, Myriad Pro;font-weight:700;}.cls-14{letter-spacing:-0.02em;}.cls-16{letter-spacing:0.01em;}.cls-17{letter-spacing:-0.01em;}.cls-18{letter-spacing:-0.01em;}.cls-19{letter-spacing:0em;}</style></defs><title>Artboard 76</title><path class="cls-1" d="M141.36,125.42a125.62,125.62,0,0,0-31.83,5.89"/><path class="cls-1" d="M185.12,131.86a109.38,109.38,0,0,0-39.41-6.58c-1.48,0-2.93.07-4.35.14"/><path class="cls-2" d="M343,133.46c-40.57,26-70.85,28.14-91.73,24.55-25-4.29-42.89-17.89-66.1-26.15"/><path class="cls-3" d="M119.74,102.39c-9.35-2.16-29.46-5.39-52.07,2.76A89.36,89.36,0,0,0,42.79,119"/><path class="cls-3" d="M348.36,83.85A233.41,233.41,0,0,1,309.93,66.9C293.48,57.75,287.18,51.56,273,46.56a95.59,95.59,0,0,0-34.66-5.28"/><path class="cls-1" d="M155.08,30.51a133.21,133.21,0,0,1-32.29,7,133.08,133.08,0,0,1-30.29-.75"/><path class="cls-3" d="M371.24,131.4a76.75,76.75,0,0,1-41.4-8.91,75.52,75.52,0,0,1-23.59-20"/><path class="cls-1" d="M259.81,101.09a33.54,33.54,0,0,0-21.45-4.76"/><path class="cls-3" d="M26.66,45.53A61.71,61.71,0,0,1,16.38,20.06a60.47,60.47,0,0,1-.45-15.19"/><path class="cls-3" d="M185.12,131.86c-50.7,10.29-68.1,16.92-68.1,16.92-9.9,3.77-34.16,13.64-63.74,8.61a98.14,98.14,0,0,1-11.19-2.59"/><path class="cls-2" d="M322.45,132c-50.53-12-89.27-9.3-115.85-4.31q-11.62,2.19-21.48,4.19"/><path class="cls-1" d="M371.23,131.37a179.17,179.17,0,0,1-28.12,2.1"/><path class="cls-2" d="M421.53,118.39a272.34,272.34,0,0,1-50.3,13"/><path class="cls-1" d="M35.85,55.93a131.54,131.54,0,0,0-29.39,5.2"/><path class="cls-3" d="M36.28,55.93A211.11,211.11,0,0,1,5.33,17"/><path class="cls-1" d="M136,125.78a93,93,0,0,1-44.75-5.39"/><path class="cls-4" d="M119.74,102.36c-14.89-2.93-26.26-8.2-34-11.82A178.08,178.08,0,0,1,36.28,55.93"/><path class="cls-4" d="M153.91,31.2c-21,11.63-42.17,31.36-79.34,28.5-3.26-.25-9.65-2.52-19.38-3.44a122.12,122.12,0,0,0-18.9-.33"/><path class="cls-2" d="M237.52,74.45C219.19,48.4,207.2,23.61,181.37,23.1c-9.91-.2-18.68,3.24-27.46,8.1"/><path class="cls-3" d="M237.52,74.45a106,106,0,0,0-10.33,3.92c-19.29,8.52-53.58,30.77-98.87,25.35-3-.36-5.84-.82-8.58-1.36"/><path class="cls-4" d="M259.79,101.12a179.81,179.81,0,0,1-22.27-26.67"/><path class="cls-4" d="M348.35,83.86c-51.12-18.5-86.21-17.26-110.83-9.41"/><path class="cls-2" d="M322.46,131.87a115.72,115.72,0,0,1-36.52-11.81,113.84,113.84,0,0,1-26.15-18.94"/><path class="cls-3" d="M421.38,118.42c-27.42-15.62-51.63-26.82-73-34.56"/><path class="cls-1" d="M343.11,133.47a141.37,141.37,0,0,1-20.65-1.6"/><path class="cls-1" d="M731.71,125.42a125.71,125.71,0,0,1,31.83,5.89"/><path class="cls-1" d="M688,131.86a109.34,109.34,0,0,1,39.41-6.58c1.48,0,2.93.07,4.35.14"/><path class="cls-1" d="M530.12,133.46c40.57,26,70.84,28.14,91.73,24.55,25-4.29,42.88-17.89,66.1-26.15"/><path class="cls-3" d="M753.33,102.39c9.35-2.16,29.46-5.39,52.06,2.76A89.07,89.07,0,0,1,830.27,119"/><path class="cls-3" d="M524.71,83.85A232.85,232.85,0,0,0,563.13,66.9c16.46-9.15,22.76-15.34,36.92-20.34a95.59,95.59,0,0,1,34.66-5.28"/><path class="cls-1" d="M718,30.51a133.21,133.21,0,0,0,32.29,7,133.08,133.08,0,0,0,30.29-.75"/><path class="cls-3" d="M501.83,131.4a76.76,76.76,0,0,0,41.4-8.91,75.64,75.64,0,0,0,23.59-20"/><path class="cls-1" d="M613.25,101.09a33.55,33.55,0,0,1,21.46-4.76"/><path class="cls-3" d="M846.41,45.53a61.85,61.85,0,0,0,10.28-25.47,60.41,60.41,0,0,0,.44-15.19"/><path class="cls-3" d="M688,131.86c50.7,10.29,68.1,16.92,68.1,16.92,9.9,3.77,34.16,13.64,63.73,8.61A97.88,97.88,0,0,0,831,154.8"/><path class="cls-3" d="M550.62,132c50.53-12,89.27-9.3,115.85-4.31q11.61,2.19,21.48,4.19"/><path class="cls-2" d="M501.83,131.37a179.34,179.34,0,0,0,28.12,2.1"/><path class="cls-5" d="M451.53,118.39a272.55,272.55,0,0,0,50.3,13"/><path class="cls-1" d="M837.22,55.93a131.65,131.65,0,0,1,29.39,5.2"/><path class="cls-3" d="M836.78,55.93a210.79,210.79,0,0,0,31-38.9"/><path class="cls-1" d="M737.09,125.78a93,93,0,0,0,23.17,0,93.45,93.45,0,0,0,21.58-5.39"/><path class="cls-3" d="M753.33,102.36c14.89-2.93,26.25-8.2,34-11.82a177.88,177.88,0,0,0,49.44-34.61"/><path class="cls-1" d="M719.16,31.2c21,11.63,42.17,31.36,79.34,28.5,3.26-.25,9.65-2.52,19.38-3.44a122.1,122.1,0,0,1,18.9-.33"/><path class="cls-1" d="M635.54,74.45C653.88,48.4,665.87,23.61,691.7,23.1c9.91-.2,18.67,3.24,27.46,8.1"/><path class="cls-3" d="M635.54,74.45a105.21,105.21,0,0,1,10.34,3.92c19.29,8.52,53.58,30.77,98.87,25.35,3-.36,5.84-.82,8.58-1.36"/><path class="cls-1" d="M613.28,101.12a179.11,179.11,0,0,0,22.26-26.67"/><path class="cls-3" d="M524.71,83.86c51.12-18.5,86.22-17.26,110.83-9.41"/><path class="cls-1" d="M550.6,131.87a115.7,115.7,0,0,0,36.53-11.81,113.84,113.84,0,0,0,26.15-18.94"/><path class="cls-3" d="M451.69,118.42c27.42-15.62,51.63-26.82,73-34.56"/><path class="cls-1" d="M530,133.47a141.26,141.26,0,0,0,20.65-1.6"/><circle class="cls-6" cx="501.83" cy="131.37" r="3.51"/><circle class="cls-7" cx="635.54" cy="74.45" r="3.51"/><circle class="cls-8" cx="550.6" cy="131.86" r="3.51"/><circle class="cls-9" cx="687.95" cy="131.86" r="3.51"/><circle class="cls-10" cx="753.33" cy="102.36" r="3.51"/><circle class="cls-11" cx="836.78" cy="55.93" r="3.51"/><circle class="cls-12" cx="436.38" cy="118.42" r="3.51"/><circle class="cls-9" cx="529.78" cy="133.47" r="3.51"/><text class="cls-13" transform="translate(238.94 54.63)"><tspan class="cls-14">y</tspan><tspan x="3.56" y="0">ou lose</tspan></text><text class="cls-15" transform="translate(71.33 19.16)"><tspan class="cls-16">G</tspan><tspan x="4.83" y="0">ame </tspan><tspan class="cls-17" x="19.66" y="0">o</tspan><tspan class="cls-18" x="23.63" y="0">v</tspan><tspan class="cls-19" x="27.24" y="0">er</tspan></text><text class="cls-20" transform="translate(78.25 27.02)"><tspan class="cls-14">y</tspan><tspan x="3.56" y="0">ou win</tspan></text><text class="cls-20" transform="translate(8.22 72.28)"><tspan class="cls-14">y</tspan><tspan x="3.56" y="0">ou win</tspan></text><text class="cls-13" transform="translate(23.53 11.72)"><tspan class="cls-14">y</tspan><tspan x="3.56" y="0">ou lose</tspan></text><text class="cls-20" transform="translate(206.62 104.76)"><tspan class="cls-14">y</tspan><tspan x="3.56" y="0">ou win</tspan></text><text class="cls-20" transform="translate(75.45 133.91)"><tspan class="cls-14">y</tspan><tspan x="3.56" y="0">ou win</tspan></text><text class="cls-13" transform="translate(277.83 95.65)"><tspan class="cls-14">y</tspan><tspan x="3.56" y="0">ou lose</tspan></text><text class="cls-13" transform="translate(41.18 170.37)"><tspan class="cls-14">y</tspan><tspan x="3.56" y="0">ou lose</tspan></text><text class="cls-13" transform="translate(614.33 54.26)"><tspan class="cls-14">y</tspan><tspan x="3.56" y="0">ou lose</tspan></text><text class="cls-13" transform="translate(574.85 94.13)"><tspan class="cls-14">y</tspan><tspan x="3.56" y="0">ou lose</tspan></text><text class="cls-20" transform="translate(643.91 103.57)"><tspan class="cls-14">y</tspan><tspan x="3.56" y="0">ou win</tspan></text><text class="cls-20" transform="translate(773.95 25.34)"><tspan class="cls-14">y</tspan><tspan x="3.56" y="0">ou win</tspan></text><text class="cls-20" transform="translate(776.77 133.17)"><tspan class="cls-14">y</tspan><tspan x="3.56" y="0">ou win</tspan></text><text class="cls-13" transform="translate(806.63 170.18)"><tspan class="cls-14">y</tspan><tspan x="3.56" y="0">ou lose</tspan></text><text class="cls-13" transform="translate(824.63 12.32)"><tspan class="cls-14">y</tspan><tspan x="3.56" y="0">ou lose</tspan></text><text class="cls-13" transform="translate(21.95 108.16)"><tspan class="cls-14">y</tspan><tspan x="3.56" y="0">ou lose</tspan></text><text class="cls-13" transform="translate(827.45 106.75)"><tspan class="cls-14">y</tspan><tspan x="3.56" y="0">ou lose</tspan></text><text class="cls-20" transform="translate(842.97 73.15)"><tspan class="cls-14">y</tspan><tspan x="3.56" y="0">ou win</tspan></text></svg>