<svg id="Layer_1" data-name="Layer 1" xmlns="http://www.w3.org/2000/svg" viewBox="0 0 872.63 181.49"><defs><style>.cls-1,.cls-2,.cls-3,.cls-4,.cls-5{fill:none;stroke-width:7px;}.cls-1{stroke:#2e3192;}.cls-1,.cls-2,.cls-3,.cls-4{stroke-linecap:round;}.cls-1,.cls-3,.cls-4{stroke-linejoin:round;}.cls-2{stroke:#70a8da;}.cls-2,.cls-5{stroke-miterlimit:10;}.cls-3{stroke:#be1e2d;}.cls-4{stroke:#ef937b;}.cls-5{stroke:#a3cdee;}.cls-6{fill:#a3cdee;}.cls-7{fill:#a7a9ac;}.cls-8{fill:#2e3192;}.cls-9{fill:#70a8da;}.cls-10{fill:#be1e2d;}.cls-11{fill:#ef937b;}.cls-12{fill:#231f20;}</style></defs><title>artsy-hero</title><path class="cls-1" d="M141,127.71a125.15,125.15,0,0,0-31.83,5.88"/><path class="cls-1" d="M184.79,134.14a109.38,109.38,0,0,0-39.41-6.58q-2.22,0-4.35.15"/><path class="cls-2" d="M342.62,135.74c-40.57,26-70.85,28.14-91.73,24.55-25-4.29-42.89-17.88-66.1-26.15"/><path class="cls-3" d="M119.41,104.67c-9.35-2.16-29.46-5.38-52.07,2.77a89.47,89.47,0,0,0-24.88,13.82"/><path class="cls-3" d="M348,86.13A233.41,233.41,0,0,1,309.6,69.18C293.14,60,286.85,53.84,272.69,48.84A95.81,95.81,0,0,0,238,43.56"/><path class="cls-1" d="M154.75,32.8a133.26,133.26,0,0,1-32.29,7,133.08,133.08,0,0,1-30.29-.75"/><path class="cls-3" d="M370.91,133.68a76.71,76.71,0,0,1-41.4-8.9,75.78,75.78,0,0,1-23.59-20"/><path class="cls-1" d="M259.48,103.38A33.65,33.65,0,0,0,238,98.61"/><path class="cls-3" d="M26.33,47.81A61.65,61.65,0,0,1,16.05,22.34,60.47,60.47,0,0,1,15.6,7.15"/><path class="cls-3" d="M184.79,134.14c-50.7,10.29-68.1,16.92-68.1,16.92-9.9,3.77-34.16,13.64-63.74,8.61a98.78,98.78,0,0,1-11.2-2.58"/><path class="cls-2" d="M322.12,134.26c-50.53-12-89.27-9.29-115.85-4.3q-11.62,2.17-21.48,4.18"/><path class="cls-1" d="M370.9,133.66a181.7,181.7,0,0,1-28.12,2.1"/><path class="cls-2" d="M421.2,120.67a271.64,271.64,0,0,1-50.3,13"/><path class="cls-1" d="M35.52,58.21a131.54,131.54,0,0,0-29.39,5.2"/><path class="cls-3" d="M36,58.21A211.11,211.11,0,0,1,5,19.31"/><path class="cls-1" d="M135.65,128.06a93,93,0,0,1-44.75-5.39"/><path class="cls-4" d="M119.41,104.65c-14.89-2.93-26.26-8.21-34-11.83A177.87,177.87,0,0,1,36,58.21"/><path class="cls-4" d="M153.58,33.48c-21,11.64-42.17,31.37-79.34,28.5-3.27-.25-9.65-2.51-19.38-3.44A122.12,122.12,0,0,0,36,58.21"/><path class="cls-2" d="M237.19,76.74C218.86,50.68,206.87,25.89,181,25.38c-9.91-.2-18.68,3.25-27.46,8.1"/><path class="cls-3" d="M237.19,76.74a103.47,103.47,0,0,0-10.33,3.91C207.56,89.17,173.28,111.42,128,106c-3-.35-5.84-.81-8.58-1.35"/><path class="cls-4" d="M259.46,103.4a180.26,180.26,0,0,1-22.27-26.66"/><path class="cls-4" d="M348,86.14c-51.12-18.49-86.21-17.26-110.83-9.4"/><path class="cls-2" d="M322.13,134.16a116.23,116.23,0,0,1-36.52-11.81,114,114,0,0,1-26.15-18.95"/><path class="cls-3" d="M421.05,120.71c-27.42-15.62-51.63-26.82-73-34.57"/><path class="cls-1" d="M342.78,135.76a142.78,142.78,0,0,1-20.65-1.6"/><path class="cls-1" d="M731.38,127.71a125.33,125.33,0,0,1,31.83,5.88"/><path class="cls-1" d="M687.62,134.14A109.34,109.34,0,0,1,727,127.56q2.22,0,4.35.15"/><path class="cls-1" d="M529.79,135.74c40.57,26,70.84,28.14,91.73,24.55,25-4.29,42.88-17.88,66.1-26.15"/><path class="cls-3" d="M753,104.67c9.35-2.16,29.46-5.38,52.06,2.77a89.33,89.33,0,0,1,24.88,13.82"/><path class="cls-3" d="M524.38,86.13A233.24,233.24,0,0,0,562.8,69.18c16.46-9.14,22.76-15.34,36.92-20.34a95.81,95.81,0,0,1,34.66-5.28"/><path class="cls-1" d="M717.66,32.8a133.26,133.26,0,0,0,32.29,7,133.08,133.08,0,0,0,30.29-.75"/><path class="cls-3" d="M501.5,133.68a76.73,76.73,0,0,0,41.4-8.9,75.9,75.9,0,0,0,23.59-20"/><path class="cls-1" d="M612.92,103.38a33.66,33.66,0,0,1,21.46-4.77"/><path class="cls-3" d="M846.08,47.81a61.79,61.79,0,0,0,10.28-25.47,60.41,60.41,0,0,0,.44-15.19"/><path class="cls-3" d="M687.62,134.14c50.7,10.29,68.1,16.92,68.1,16.92,9.9,3.77,34.16,13.64,63.73,8.61a98.26,98.26,0,0,0,11.2-2.58"/><path class="cls-3" d="M550.29,134.26c50.53-12,89.27-9.29,115.85-4.3q11.61,2.17,21.48,4.18"/><path class="cls-2" d="M501.5,133.66a181.79,181.79,0,0,0,28.12,2.1"/><path class="cls-5" d="M451.2,120.67a271.84,271.84,0,0,0,50.3,13"/><path class="cls-1" d="M836.89,58.21a131.65,131.65,0,0,1,29.39,5.2"/><path class="cls-3" d="M836.45,58.21a210.79,210.79,0,0,0,31-38.9"/><path class="cls-1" d="M736.76,128.06a93,93,0,0,0,44.75-5.39"/><path class="cls-3" d="M753,104.65c14.89-2.93,26.25-8.21,34-11.83a177.67,177.67,0,0,0,49.44-34.61"/><path class="cls-1" d="M718.83,33.48c21,11.64,42.17,31.37,79.34,28.5,3.26-.25,9.65-2.51,19.38-3.44a122.1,122.1,0,0,1,18.9-.33"/><path class="cls-1" d="M635.21,76.74c18.34-26.06,30.33-50.85,56.15-51.36,9.92-.2,18.68,3.25,27.47,8.1"/><path class="cls-3" d="M635.21,76.74a102.74,102.74,0,0,1,10.34,3.91c19.29,8.52,53.58,30.77,98.87,25.35,3-.35,5.84-.81,8.58-1.35"/><path class="cls-1" d="M612.94,103.4a179,179,0,0,0,22.27-26.66"/><path class="cls-3" d="M524.38,86.14c51.12-18.49,86.22-17.26,110.83-9.4"/><path class="cls-1" d="M550.27,134.16a116.21,116.21,0,0,0,36.53-11.81,113.88,113.88,0,0,0,26.14-18.95"/><path class="cls-3" d="M451.36,120.71c27.42-15.62,51.63-26.82,73-34.57"/><path class="cls-1" d="M529.62,135.76a142.66,142.66,0,0,0,20.65-1.6"/><circle class="cls-6" cx="501.5" cy="133.66" r="3.51"/><circle class="cls-7" cx="635.21" cy="76.74" r="3.51"/><circle class="cls-8" cx="550.27" cy="134.14" r="3.51"/><circle class="cls-9" cx="687.62" cy="134.14" r="3.51"/><circle class="cls-10" cx="753" cy="104.65" r="3.51"/><circle class="cls-11" cx="836.45" cy="58.21" r="3.51"/><circle class="cls-12" cx="436.05" cy="120.71" r="3.51"/><circle class="cls-9" cx="529.45" cy="135.76" r="3.51"/></svg>