<svg id="Layer_1" data-name="Layer 1" xmlns="http://www.w3.org/2000/svg" viewBox="0 0 872.88 176.55"><defs><style>.cls-1,.cls-2,.cls-3,.cls-4,.cls-5{fill:none;stroke-width:7px;}.cls-1{stroke:#2e3192;}.cls-1,.cls-2,.cls-3,.cls-4{stroke-linecap:round;}.cls-1,.cls-3,.cls-4{stroke-linejoin:round;}.cls-2{stroke:#70a8da;}.cls-2,.cls-5{stroke-miterlimit:10;}.cls-3{stroke:#be1e2d;}.cls-4{stroke:#ef937b;}.cls-5{stroke:#a3cdee;}.cls-6{fill:#a3cdee;}.cls-7{fill:#a7a9ac;}.cls-20,.cls-8{fill:#2e3192;}.cls-9{fill:#70a8da;}.cls-10,.cls-13{fill:#be1e2d;}.cls-11{fill:#ef937b;}.cls-12,.cls-15{fill:#231f20;}.cls-13,.cls-15,.cls-20{font-size:7px;font-family:MyriadPro-Bold, Myriad Pro;font-weight:700;}.cls-14{letter-spacing:-0.02em;}.cls-16{letter-spacing:0.01em;}.cls-17{letter-spacing:-0.01em;}.cls-18{letter-spacing:-0.01em;}.cls-19{letter-spacing:0em;}</style></defs><title>artsy-hero-details</title><path class="cls-1" d="M141.52,126.64a125.68,125.68,0,0,0-31.83,5.88"/><path class="cls-1" d="M185.28,133.08a109.59,109.59,0,0,0-39.41-6.59q-2.22,0-4.35.15"/><path class="cls-2" d="M343.11,134.67c-40.57,26-70.85,28.14-91.73,24.55-25-4.29-42.89-17.88-66.1-26.14"/><path class="cls-3" d="M119.9,103.6c-9.35-2.16-29.46-5.38-52.07,2.77A89.62,89.62,0,0,0,43,120.19"/><path class="cls-3" d="M348.52,85.06a232,232,0,0,1-38.42-17C293.64,59,287.34,52.78,273.18,47.77a95.55,95.55,0,0,0-34.66-5.27"/><path class="cls-1" d="M155.24,31.73a133.21,133.21,0,0,1-32.29,7A133.08,133.08,0,0,1,92.66,38"/><path class="cls-3" d="M371.4,132.61a76.62,76.62,0,0,1-41.4-8.9,75.52,75.52,0,0,1-23.59-20"/><path class="cls-1" d="M260,102.31a33.62,33.62,0,0,0-21.45-4.77"/><path class="cls-3" d="M26.82,46.74A61.72,61.72,0,0,1,16.54,21.27a61,61,0,0,1-.45-15.19"/><path class="cls-3" d="M185.28,133.08c-50.7,10.29-68.1,16.91-68.1,16.91-9.9,3.77-34.16,13.65-63.74,8.61A98.52,98.52,0,0,1,42.25,156"/><path class="cls-2" d="M322.61,133.2c-50.53-12-89.27-9.3-115.85-4.31-7.75,1.45-14.89,2.85-21.48,4.19"/><path class="cls-1" d="M371.4,132.59a181.82,181.82,0,0,1-28.13,2.1"/><path class="cls-2" d="M421.69,119.6a271.55,271.55,0,0,1-50.29,13"/><path class="cls-1" d="M36,57.15A131.71,131.71,0,0,0,6.62,62.34"/><path class="cls-3" d="M36.45,57.15a211.15,211.15,0,0,1-31-38.91"/><path class="cls-1" d="M136.14,127a92.84,92.84,0,0,1-44.75-5.4"/><path class="cls-4" d="M119.9,103.58c-14.89-2.93-26.26-8.2-34-11.83a177.86,177.86,0,0,1-49.44-34.6"/><path class="cls-4" d="M154.07,32.42c-21,11.63-42.17,31.36-79.34,28.5-3.26-.25-9.65-2.52-19.38-3.45a123.38,123.38,0,0,0-18.9-.33"/><path class="cls-2" d="M237.69,75.67c-18.34-26.06-30.33-50.85-56.16-51.36-9.91-.19-18.68,3.25-27.46,8.11"/><path class="cls-3" d="M237.68,75.67a103.47,103.47,0,0,0-10.33,3.91c-19.29,8.52-53.58,30.78-98.87,25.36-3-.36-5.84-.82-8.58-1.36"/><path class="cls-4" d="M260,102.33a178.54,178.54,0,0,1-22.26-26.66"/><path class="cls-4" d="M348.51,85.08c-51.12-18.5-86.21-17.27-110.83-9.41"/><path class="cls-2" d="M322.62,133.09a116,116,0,0,1-36.52-11.81,114.17,114.17,0,0,1-26.15-19"/><path class="cls-3" d="M421.54,119.64c-27.42-15.62-51.63-26.82-73-34.56"/><path class="cls-1" d="M343.27,134.69a142.78,142.78,0,0,1-20.65-1.6"/><path class="cls-1" d="M731.87,126.64a125.77,125.77,0,0,1,31.83,5.88"/><path class="cls-1" d="M688.11,133.08a109.55,109.55,0,0,1,39.41-6.59q2.22,0,4.35.15"/><path class="cls-1" d="M530.28,134.67c40.57,26,70.84,28.14,91.73,24.55,25-4.29,42.88-17.88,66.1-26.14"/><path class="cls-3" d="M753.49,103.6c9.35-2.16,29.46-5.38,52.07,2.77a89.62,89.62,0,0,1,24.88,13.82"/><path class="cls-3" d="M524.87,85.06a232,232,0,0,0,38.42-17c16.46-9.14,22.76-15.33,36.92-20.34a95.55,95.55,0,0,1,34.66-5.27"/><path class="cls-1" d="M718.15,31.73a133.21,133.21,0,0,0,32.29,7A133.08,133.08,0,0,0,780.73,38"/><path class="cls-3" d="M502,132.61a76.62,76.62,0,0,0,41.4-8.9,75.64,75.64,0,0,0,23.59-20"/><path class="cls-1" d="M613.41,102.31a33.66,33.66,0,0,1,21.46-4.77"/><path class="cls-3" d="M846.57,46.74a61.72,61.72,0,0,0,10.28-25.47,60.41,60.41,0,0,0,.44-15.19"/><path class="cls-3" d="M688.11,133.08c50.7,10.29,68.1,16.91,68.1,16.91,9.9,3.77,34.16,13.65,63.74,8.61A98.52,98.52,0,0,0,831.14,156"/><path class="cls-3" d="M550.78,133.2c50.53-12,89.27-9.3,115.85-4.31q11.61,2.18,21.48,4.19"/><path class="cls-2" d="M502,132.59a181.82,181.82,0,0,0,28.13,2.1"/><path class="cls-5" d="M451.69,119.6a271.84,271.84,0,0,0,50.3,13"/><path class="cls-1" d="M837.38,57.15a131.71,131.71,0,0,1,29.39,5.19"/><path class="cls-3" d="M836.94,57.15a211.15,211.15,0,0,0,31-38.91"/><path class="cls-1" d="M737.25,127A92.84,92.84,0,0,0,782,121.6"/><path class="cls-3" d="M753.49,103.58c14.89-2.93,26.26-8.2,34-11.83a177.86,177.86,0,0,0,49.44-34.6"/><path class="cls-1" d="M719.32,32.42c21,11.63,42.17,31.36,79.34,28.5,3.26-.25,9.65-2.52,19.38-3.45a123.37,123.37,0,0,1,18.9-.33"/><path class="cls-1" d="M635.7,75.67C654,49.61,666,24.82,691.86,24.31c9.91-.19,18.68,3.25,27.46,8.11"/><path class="cls-3" d="M635.7,75.67A102.74,102.74,0,0,1,646,79.58c19.29,8.52,53.58,30.78,98.87,25.36,3-.36,5.84-.82,8.58-1.36"/><path class="cls-1" d="M613.44,102.33A178.54,178.54,0,0,0,635.7,75.67"/><path class="cls-3" d="M524.87,85.08C576,66.58,611.09,67.81,635.7,75.67"/><path class="cls-1" d="M550.76,133.09a116,116,0,0,0,36.53-11.81,114.17,114.17,0,0,0,26.15-19"/><path class="cls-3" d="M451.85,119.64c27.42-15.62,51.63-26.82,73-34.56"/><path class="cls-1" d="M530.12,134.69a142.52,142.52,0,0,0,20.64-1.6"/><circle class="cls-6" cx="501.99" cy="132.59" r="3.51"/><circle class="cls-7" cx="635.7" cy="75.67" r="3.51"/><circle class="cls-8" cx="550.76" cy="133.08" r="3.51"/><circle class="cls-9" cx="688.11" cy="133.08" r="3.51"/><circle class="cls-10" cx="753.49" cy="103.58" r="3.51"/><circle class="cls-11" cx="836.94" cy="57.15" r="3.51"/><circle class="cls-12" cx="436.54" cy="119.64" r="3.51"/><circle class="cls-9" cx="529.94" cy="134.69" r="3.51"/><text class="cls-13" transform="translate(239.1 55.85)"><tspan class="cls-14">y</tspan><tspan x="3.56" y="0">ou lose</tspan></text><text class="cls-15" transform="translate(71.49 20.38)"><tspan class="cls-16">G</tspan><tspan x="4.83" y="0">ame </tspan><tspan class="cls-17" x="19.66" y="0">o</tspan><tspan class="cls-18" x="23.63" y="0">v</tspan><tspan class="cls-19" x="27.24" y="0">er</tspan></text><text class="cls-20" transform="translate(78.41 28.23)"><tspan class="cls-14">y</tspan><tspan x="3.56" y="0">ou win</tspan></text><text class="cls-20" transform="translate(8.38 73.5)"><tspan class="cls-14">y</tspan><tspan x="3.56" y="0">ou win</tspan></text><text class="cls-13" transform="translate(23.69 12.93)"><tspan class="cls-14">y</tspan><tspan x="3.56" y="0">ou lose</tspan></text><text class="cls-20" transform="translate(206.78 105.98)"><tspan class="cls-14">y</tspan><tspan x="3.56" y="0">ou win</tspan></text><text class="cls-20" transform="translate(75.61 135.13)"><tspan class="cls-14">y</tspan><tspan x="3.56" y="0">ou win</tspan></text><text class="cls-13" transform="translate(277.99 96.86)"><tspan class="cls-14">y</tspan><tspan x="3.56" y="0">ou lose</tspan></text><text class="cls-13" transform="translate(41.34 171.59)"><tspan class="cls-14">y</tspan><tspan x="3.56" y="0">ou lose</tspan></text><text class="cls-13" transform="translate(22.11 109.37)"><tspan class="cls-14">y</tspan><tspan x="3.56" y="0">ou lose</tspan></text></svg>