<svg id="Layer_1" data-name="Layer 1" xmlns="http://www.w3.org/2000/svg" viewBox="0 0 178.45 178.68"><defs><style>.cls-1{fill:#e7ebe8;}.cls-2{fill:#cac9cc;}.cls-3{fill:#eed6d9;}.cls-4{fill:#b5b5b6;}.cls-5{fill:#aa1e22;}.cls-6{fill:#aab1d3;}.cls-7{fill:#cdd1e2;}.cls-11,.cls-12,.cls-8{fill:none;stroke-miterlimit:10;}.cls-8{stroke:#6d79ba;}.cls-12,.cls-8{stroke-width:2px;}.cls-9{fill:#2c3592;}.cls-10{font-size:6.65px;fill:#d1d3d4;font-family:MyriadPro-Semibold, Myriad Pro;font-weight:700;}.cls-11{stroke:#58595b;stroke-linecap:round;stroke-width:3px;}.cls-12{stroke:#aa1e22;}.cls-13{fill:#6d79ba;}.cls-14{fill:#dd3742;}.cls-15{fill:#e8b3b9;}</style></defs><title>barrier-approx-td_1</title><rect class="cls-1" x="115.47" y="0.11" width="12.09" height="12.09"/><rect class="cls-1" x="128.27" y="0.12" width="12.09" height="12.09"/><rect class="cls-1" x="141.02" y="0.12" width="12.09" height="12.09"/><rect class="cls-1" x="115.47" y="12.91" width="12.09" height="12.09"/><rect class="cls-1" x="128.27" y="12.92" width="12.09" height="12.09"/><rect class="cls-1" x="141.02" y="12.92" width="12.09" height="12.09"/><rect class="cls-1" x="153.8" y="12.93" width="12.09" height="12.09"/><rect class="cls-1" x="115.47" y="25.65" width="12.09" height="12.09"/><rect class="cls-1" x="128.27" y="25.67" width="12.09" height="12.09"/><rect class="cls-1" x="141.02" y="25.67" width="12.09" height="12.09"/><rect class="cls-1" x="153.8" y="25.67" width="12.09" height="12.09"/><rect class="cls-1" x="115.47" y="38.45" width="12.09" height="12.09"/><rect class="cls-1" x="128.27" y="38.47" width="12.09" height="12.09"/><rect class="cls-1" x="141.02" y="38.47" width="12.09" height="12.09"/><rect class="cls-1" x="153.8" y="38.47" width="12.09" height="12.09"/><rect class="cls-1" x="115.47" y="51.24" width="12.09" height="12.09"/><rect class="cls-1" x="128.27" y="51.25" width="12.09" height="12.09"/><rect class="cls-1" x="141.02" y="51.26" width="12.09" height="12.09"/><rect class="cls-1" x="153.8" y="51.26" width="12.09" height="12.09"/><rect class="cls-1" x="89.88" y="0.08" width="12.09" height="12.09"/><rect class="cls-1" x="102.68" y="0.09" width="12.09" height="12.09"/><rect class="cls-1" x="89.88" y="12.88" width="12.09" height="12.09"/><rect class="cls-1" x="102.68" y="12.89" width="12.09" height="12.09"/><rect class="cls-1" x="89.88" y="25.62" width="12.09" height="12.09"/><rect class="cls-1" x="102.68" y="25.64" width="12.09" height="12.09"/><rect class="cls-1" x="89.88" y="38.42" width="12.09" height="12.09"/><rect class="cls-1" x="102.68" y="38.44" width="12.09" height="12.09"/><rect class="cls-1" x="89.88" y="51.21" width="12.09" height="12.09"/><rect class="cls-1" x="102.68" y="51.23" width="12.09" height="12.09"/><rect class="cls-1" x="64.28" y="0.05" width="12.09" height="12.09"/><rect class="cls-1" x="77.08" y="0.07" width="12.09" height="12.09"/><rect class="cls-1" x="64.28" y="12.85" width="12.09" height="12.09"/><rect class="cls-1" x="77.08" y="12.86" width="12.09" height="12.09"/><rect class="cls-1" x="64.28" y="25.6" width="12.09" height="12.09"/><rect class="cls-1" x="77.08" y="25.61" width="12.09" height="12.09"/><rect class="cls-1" x="64.28" y="38.4" width="12.09" height="12.09"/><rect class="cls-1" x="77.08" y="38.41" width="12.09" height="12.09"/><rect class="cls-1" x="64.28" y="51.18" width="12.09" height="12.09"/><rect class="cls-1" x="77.08" y="51.2" width="12.09" height="12.09"/><rect class="cls-1" x="38.69" y="0.02" width="12.09" height="12.09"/><rect class="cls-1" x="51.49" y="0.04" width="12.09" height="12.09"/><rect class="cls-1" x="38.69" y="12.82" width="12.09" height="12.09"/><rect class="cls-1" x="51.49" y="12.84" width="12.09" height="12.09"/><rect class="cls-1" x="38.69" y="25.57" width="12.09" height="12.09"/><rect class="cls-1" x="51.49" y="25.58" width="12.09" height="12.09"/><rect class="cls-1" x="38.69" y="38.37" width="12.09" height="12.09"/><rect class="cls-1" x="51.49" y="38.38" width="12.09" height="12.09"/><rect class="cls-1" x="38.69" y="51.16" width="12.09" height="12.09"/><rect class="cls-1" x="51.49" y="51.17" width="12.09" height="12.09"/><rect class="cls-1" x="13.1" y="0.01" width="12.09" height="12.09"/><rect class="cls-1" x="25.89" y="0.02" width="12.09" height="12.09"/><rect class="cls-1" x="13.1" y="12.81" width="12.09" height="12.09"/><rect class="cls-1" x="25.89" y="12.82" width="12.09" height="12.09"/><rect class="cls-1" x="13.1" y="25.56" width="12.09" height="12.09"/><rect class="cls-1" x="25.89" y="25.57" width="12.09" height="12.09"/><rect class="cls-1" x="13.1" y="38.35" width="12.09" height="12.09"/><rect class="cls-1" x="25.89" y="38.37" width="12.09" height="12.09"/><rect class="cls-1" x="13.1" y="51.14" width="12.09" height="12.09"/><rect class="cls-1" x="25.89" y="51.16" width="12.09" height="12.09"/><rect class="cls-1" x="0.3" y="0.01" width="12.09" height="12.09"/><rect class="cls-1" x="0.3" y="12.81" width="12.09" height="12.09"/><rect class="cls-1" x="0.3" y="25.56" width="12.09" height="12.09"/><rect class="cls-1" x="0.3" y="38.35" width="12.09" height="12.09"/><rect class="cls-1" x="0.3" y="51.14" width="12.09" height="12.09"/><rect class="cls-1" x="115.47" y="64.1" width="12.09" height="12.09"/><rect class="cls-1" x="128.27" y="64.12" width="12.09" height="12.09"/><rect class="cls-1" x="141.02" y="64.12" width="12.09" height="12.09"/><rect class="cls-1" x="153.8" y="64.12" width="12.09" height="12.09"/><rect class="cls-1" x="115.47" y="76.85" width="12.09" height="12.09"/><rect class="cls-1" x="128.27" y="76.86" width="12.09" height="12.09"/><rect class="cls-1" x="141.02" y="76.86" width="12.09" height="12.09"/><rect class="cls-1" x="153.8" y="76.87" width="12.09" height="12.09"/><rect class="cls-1" x="115.47" y="89.65" width="12.09" height="12.09"/><rect class="cls-1" x="128.27" y="89.66" width="12.09" height="12.09"/><rect class="cls-1" x="141.02" y="89.66" width="12.09" height="12.09"/><rect class="cls-1" x="153.8" y="89.67" width="12.09" height="12.09"/><rect class="cls-1" x="115.47" y="102.44" width="12.09" height="12.09"/><rect class="cls-1" x="128.27" y="102.45" width="12.09" height="12.09"/><rect class="cls-1" x="141.02" y="102.45" width="12.09" height="12.09"/><rect class="cls-1" x="153.8" y="102.46" width="12.09" height="12.09"/><rect class="cls-1" x="89.88" y="64.08" width="12.09" height="12.09"/><rect class="cls-1" x="102.67" y="64.09" width="12.09" height="12.09"/><rect class="cls-1" x="89.88" y="76.82" width="12.09" height="12.09"/><rect class="cls-1" x="102.67" y="76.83" width="12.09" height="12.09"/><rect class="cls-1" x="89.88" y="89.62" width="12.09" height="12.09"/><rect class="cls-1" x="102.67" y="89.63" width="12.09" height="12.09"/><rect class="cls-1" x="89.88" y="102.41" width="12.09" height="12.09"/><rect class="cls-1" x="102.67" y="102.42" width="12.09" height="12.09"/><rect class="cls-1" x="64.28" y="64.05" width="12.09" height="12.09"/><rect class="cls-1" x="77.08" y="64.06" width="12.09" height="12.09"/><rect class="cls-1" x="64.28" y="76.79" width="12.09" height="12.09"/><rect class="cls-1" x="77.08" y="76.81" width="12.09" height="12.09"/><rect class="cls-1" x="64.28" y="89.59" width="12.09" height="12.09"/><rect class="cls-1" x="77.08" y="89.6" width="12.09" height="12.09"/><rect class="cls-1" x="64.28" y="102.38" width="12.09" height="12.09"/><rect class="cls-1" x="77.08" y="102.39" width="12.09" height="12.09"/><rect class="cls-1" x="38.69" y="64.02" width="12.09" height="12.09"/><rect class="cls-1" x="51.49" y="64.03" width="12.09" height="12.09"/><rect class="cls-1" x="38.69" y="76.76" width="12.09" height="12.09"/><rect class="cls-1" x="51.49" y="76.78" width="12.09" height="12.09"/><rect class="cls-1" x="38.69" y="89.56" width="12.09" height="12.09"/><rect class="cls-1" x="51.49" y="89.58" width="12.09" height="12.09"/><rect class="cls-1" x="38.69" y="102.35" width="12.09" height="12.09"/><rect class="cls-1" x="51.49" y="102.36" width="12.09" height="12.09"/><rect class="cls-1" x="13.1" y="64.01" width="12.09" height="12.09"/><rect class="cls-1" x="25.89" y="64.02" width="12.09" height="12.09"/><rect class="cls-1" x="13.1" y="76.75" width="12.09" height="12.09"/><rect class="cls-1" x="25.89" y="76.76" width="12.09" height="12.09"/><rect class="cls-1" x="13.1" y="89.55" width="12.09" height="12.09"/><rect class="cls-1" x="25.89" y="89.56" width="12.09" height="12.09"/><rect class="cls-1" x="13.1" y="102.34" width="12.09" height="12.09"/><rect class="cls-1" x="25.89" y="102.35" width="12.09" height="12.09"/><rect class="cls-1" x="0.3" y="64.01" width="12.09" height="12.09"/><rect class="cls-1" x="0.3" y="76.75" width="12.09" height="12.09"/><rect class="cls-1" x="0.3" y="89.55" width="12.09" height="12.09"/><rect class="cls-1" x="0.3" y="102.34" width="12.09" height="12.09"/><rect class="cls-1" x="115.47" y="115.34" width="12.09" height="12.09"/><rect class="cls-1" x="128.27" y="115.35" width="12.09" height="12.09"/><rect class="cls-1" x="141.01" y="115.35" width="12.09" height="12.09"/><rect class="cls-1" x="153.79" y="115.36" width="12.09" height="12.09"/><rect class="cls-1" x="89.87" y="115.31" width="12.09" height="12.09"/><rect class="cls-1" x="102.67" y="115.32" width="12.09" height="12.09"/><rect class="cls-1" x="64.28" y="115.28" width="12.09" height="12.09"/><rect class="cls-1" x="77.08" y="115.3" width="12.09" height="12.09"/><rect class="cls-1" x="38.69" y="115.25" width="12.09" height="12.09"/><rect class="cls-1" x="51.48" y="115.27" width="12.09" height="12.09"/><rect class="cls-1" x="13.09" y="115.24" width="12.09" height="12.09"/><rect class="cls-1" x="25.89" y="115.25" width="12.09" height="12.09"/><rect class="cls-1" x="0.29" y="115.24" width="12.09" height="12.09"/><rect class="cls-1" x="115.47" y="128.2" width="12.09" height="12.09"/><rect class="cls-1" x="128.27" y="128.22" width="12.09" height="12.09"/><rect class="cls-1" x="141.01" y="128.22" width="12.09" height="12.09"/><rect class="cls-1" x="153.79" y="128.22" width="12.09" height="12.09"/><rect class="cls-1" x="115.47" y="140.95" width="12.09" height="12.09"/><rect class="cls-1" x="128.27" y="140.96" width="12.09" height="12.09"/><rect class="cls-1" x="141.01" y="140.96" width="12.09" height="12.09"/><rect class="cls-1" x="153.79" y="140.97" width="12.09" height="12.09"/><rect class="cls-1" x="115.47" y="153.75" width="12.09" height="12.09"/><rect class="cls-1" x="128.27" y="153.76" width="12.09" height="12.09"/><rect class="cls-1" x="141.01" y="153.76" width="12.09" height="12.09"/><rect class="cls-1" x="153.79" y="153.77" width="12.09" height="12.09"/><rect class="cls-1" x="115.47" y="166.54" width="12.09" height="12.09"/><rect class="cls-1" x="128.27" y="166.55" width="12.09" height="12.09"/><rect class="cls-1" x="141.01" y="166.55" width="12.09" height="12.09"/><rect class="cls-1" x="153.79" y="166.56" width="12.09" height="12.09"/><circle class="cls-2" cx="121.44" cy="147.15" r="3.83"/><circle class="cls-2" cx="134.23" cy="147.16" r="3.83"/><circle class="cls-2" cx="147.18" cy="147.16" r="3.83"/><circle class="cls-2" cx="159.82" cy="147.13" r="3.83"/><circle class="cls-2" cx="121.44" cy="159.84" r="3.83"/><circle class="cls-2" cx="134.23" cy="159.79" r="3.83"/><circle class="cls-2" cx="147.18" cy="159.85" r="3.83"/><circle class="cls-2" cx="159.82" cy="159.82" r="3.83"/><circle class="cls-2" cx="121.44" cy="172.72" r="3.83"/><circle class="cls-2" cx="134.23" cy="172.99" r="3.83"/><circle class="cls-2" cx="147.18" cy="172.74" r="3.83"/><circle class="cls-2" cx="159.82" cy="172.71" r="3.83"/><rect class="cls-1" x="89.87" y="128.17" width="12.09" height="12.09"/><rect class="cls-1" x="102.67" y="128.19" width="12.09" height="12.09"/><rect class="cls-1" x="89.87" y="140.92" width="12.09" height="12.09"/><rect class="cls-1" x="102.67" y="140.93" width="12.09" height="12.09"/><rect class="cls-1" x="89.87" y="153.72" width="12.09" height="12.09"/><rect class="cls-1" x="102.67" y="153.73" width="12.09" height="12.09"/><rect class="cls-1" x="89.87" y="166.51" width="12.09" height="12.09"/><rect class="cls-1" x="102.67" y="166.52" width="12.09" height="12.09"/><circle class="cls-2" cx="95.84" cy="147.12" r="3.83"/><circle class="cls-2" cx="108.64" cy="147.14" r="3.83"/><circle class="cls-2" cx="95.84" cy="159.81" r="3.83"/><circle class="cls-2" cx="108.64" cy="159.76" r="3.83"/><circle class="cls-2" cx="95.84" cy="172.69" r="3.83"/><circle class="cls-2" cx="108.64" cy="172.97" r="3.83"/><rect class="cls-1" x="64.28" y="128.15" width="12.09" height="12.09"/><rect class="cls-1" x="77.08" y="128.16" width="12.09" height="12.09"/><rect class="cls-1" x="64.28" y="140.89" width="12.09" height="12.09"/><rect class="cls-1" x="77.08" y="140.9" width="12.09" height="12.09"/><rect class="cls-1" x="64.28" y="153.69" width="12.09" height="12.09"/><rect class="cls-1" x="77.08" y="153.7" width="12.09" height="12.09"/><rect class="cls-1" x="64.28" y="166.48" width="12.09" height="12.09"/><rect class="cls-1" x="77.08" y="166.49" width="12.09" height="12.09"/><circle class="cls-2" cx="70.25" cy="147.09" r="3.83"/><circle class="cls-2" cx="83.04" cy="147.11" r="3.83"/><circle class="cls-2" cx="70.25" cy="159.78" r="3.83"/><circle class="cls-2" cx="83.04" cy="159.74" r="3.83"/><circle class="cls-2" cx="70.25" cy="172.67" r="3.83"/><circle class="cls-2" cx="83.04" cy="172.94" r="3.83"/><rect class="cls-1" x="38.69" y="128.12" width="12.09" height="12.09"/><rect class="cls-1" x="51.48" y="128.13" width="12.09" height="12.09"/><rect class="cls-1" x="38.69" y="140.86" width="12.09" height="12.09"/><rect class="cls-1" x="51.48" y="140.88" width="12.09" height="12.09"/><rect class="cls-1" x="38.69" y="153.66" width="12.09" height="12.09"/><rect class="cls-1" x="51.48" y="153.68" width="12.09" height="12.09"/><rect class="cls-1" x="38.69" y="166.45" width="12.09" height="12.09"/><rect class="cls-1" x="51.48" y="166.46" width="12.09" height="12.09"/><circle class="cls-3" cx="95.85" cy="108.6" r="3.83"/><circle class="cls-3" cx="108.64" cy="108.87" r="3.83"/><circle class="cls-3" cx="70.25" cy="108.57" r="3.83"/><circle class="cls-3" cx="83.05" cy="108.84" r="3.83"/><circle class="cls-3" cx="121.44" cy="121.53" r="3.83"/><circle class="cls-3" cx="134.23" cy="121.8" r="3.83"/><circle class="cls-3" cx="147.18" cy="121.54" r="3.83"/><circle class="cls-3" cx="159.82" cy="121.52" r="3.83"/><circle class="cls-3" cx="95.84" cy="121.5" r="3.83"/><circle class="cls-3" cx="108.64" cy="121.77" r="3.83"/><circle class="cls-3" cx="70.25" cy="121.47" r="3.83"/><circle class="cls-3" cx="83.05" cy="121.74" r="3.83"/><circle class="cls-3" cx="57.45" cy="121.71" r="3.83"/><circle class="cls-3" cx="121.44" cy="134.26" r="3.83"/><circle class="cls-3" cx="134.23" cy="134.28" r="3.83"/><circle class="cls-3" cx="147.18" cy="134.28" r="3.83"/><circle class="cls-3" cx="159.82" cy="134.25" r="3.83"/><circle class="cls-3" cx="95.84" cy="134.23" r="3.83"/><circle class="cls-3" cx="108.64" cy="134.25" r="3.83"/><circle class="cls-3" cx="70.25" cy="134.2" r="3.83"/><circle class="cls-3" cx="83.04" cy="134.22" r="3.83"/><circle class="cls-3" cx="57.45" cy="134.19" r="3.83"/><circle class="cls-2" cx="57.45" cy="147.08" r="3.83"/><circle class="cls-2" cx="57.45" cy="159.71" r="3.83"/><circle class="cls-2" cx="57.45" cy="172.91" r="3.83"/><rect class="cls-1" x="13.09" y="128.11" width="12.09" height="12.09"/><rect class="cls-1" x="25.89" y="128.12" width="12.09" height="12.09"/><rect class="cls-1" x="13.09" y="140.85" width="12.09" height="12.09"/><rect class="cls-1" x="25.89" y="140.86" width="12.09" height="12.09"/><rect class="cls-1" x="13.09" y="153.65" width="12.09" height="12.09"/><rect class="cls-1" x="25.89" y="153.66" width="12.09" height="12.09"/><rect class="cls-1" x="13.09" y="166.44" width="12.09" height="12.09"/><rect class="cls-1" x="25.89" y="166.45" width="12.09" height="12.09"/><rect class="cls-1" x="0.29" y="128.11" width="12.09" height="12.09"/><rect class="cls-1" x="0.29" y="140.85" width="12.09" height="12.09"/><rect class="cls-1" x="0.29" y="153.65" width="12.09" height="12.09"/><rect class="cls-1" x="0.29" y="166.44" width="12.09" height="12.09"/><circle class="cls-2" cx="121.44" cy="18.96" r="3.83"/><circle class="cls-4" cx="147.19" cy="31.87" r="3.83"/><circle class="cls-3" cx="95.85" cy="18.94" r="3.83"/><circle class="cls-4" cx="108.64" cy="18.95" r="3.83"/><circle class="cls-3" cx="44.66" cy="44.46" r="3.83"/><circle class="cls-3" cx="31.86" cy="57.6" r="3.83"/><circle class="cls-4" cx="147.19" cy="44.56" r="3.83"/><circle class="cls-4" cx="159.83" cy="44.53" r="3.83"/><circle class="cls-5" cx="134.24" cy="83.06" r="3.83"/><circle class="cls-5" cx="147.19" cy="83.06" r="3.83"/><circle class="cls-5" cx="159.83" cy="83.03" r="3.83"/><circle class="cls-5" cx="95.85" cy="57.4" r="3.83"/><circle class="cls-5" cx="108.64" cy="57.67" r="3.83"/><circle class="cls-5" cx="70.25" cy="57.37" r="3.83"/><circle class="cls-5" cx="83.05" cy="57.64" r="3.83"/><circle class="cls-5" cx="121.44" cy="70.16" r="3.83"/><circle class="cls-5" cx="134.24" cy="70.18" r="3.83"/><circle class="cls-5" cx="108.64" cy="70.15" r="3.83"/><circle class="cls-5" cx="70.25" cy="70.1" r="3.83"/><circle class="cls-5" cx="57.45" cy="70.09" r="3.83"/><circle class="cls-5" cx="44.66" cy="82.96" r="3.83"/><circle class="cls-5" cx="57.45" cy="82.98" r="3.83"/><circle class="cls-5" cx="44.66" cy="95.65" r="3.83"/><circle class="cls-2" cx="44.65" cy="134.17" r="3.83"/><circle class="cls-3" cx="19.14" cy="6.06" r="3.83"/><circle class="cls-3" cx="6.34" cy="6.06" r="3.83"/><circle class="cls-3" cx="44.65" cy="147.06" r="3.83"/><circle class="cls-3" cx="44.65" cy="159.75" r="3.83"/><circle class="cls-3" cx="44.65" cy="172.64" r="3.83"/><circle class="cls-6" cx="134.31" cy="6.17" r="3.83"/><circle class="cls-6" cx="159.83" cy="18.95" r="3.83"/><circle class="cls-7" cx="121.52" cy="6.15" r="3.83"/><circle class="cls-6" cx="159.83" cy="31.84" r="3.83"/><circle class="cls-3" cx="95.92" cy="6.12" r="3.83"/><circle class="cls-4" cx="108.72" cy="6.14" r="3.83"/><polyline class="cls-8" points="19.06 159.74 19.06 70.06 6.27 70.06 6.27 31.75 31.86 31.75 31.86 18.89 70.25 18.89 70.25 31.79 83.05 31.79 83.05 44.44 95.85 44.44 108.64 44.44 108.64 31.84 134.24 31.84 134.24 18.98 147.19 18.98 147.19 6.17 159.82 6.17"/><rect class="cls-9" x="154.67" y="1" width="10.33" height="10.33"/><text class="cls-10" transform="translate(156.06 7.4)">+1</text><line class="cls-11" x1="166.87" y1="50.95" x2="25.89" y2="50.83"/><polyline class="cls-12" points="44.66 95.65 44.66 82.96 57.45 82.98 57.45 70.09 70.25 70.1 70.25 57.37 83.05 57.64 95.85 57.4 108.64 57.67 108.64 70.15 121.44 70.16 134.24 70.18 134.24 83.06 147.19 83.06 159.83 83.06 172.81 83.06"/><circle class="cls-13" cx="147.26" cy="6.17" r="3.83"/><circle class="cls-13" cx="134.24" cy="18.98" r="3.83"/><circle class="cls-13" cx="147.19" cy="18.98" r="3.83"/><circle class="cls-13" cx="121.44" cy="31.85" r="3.83"/><circle class="cls-13" cx="134.24" cy="31.87" r="3.83"/><circle class="cls-14" cx="147.19" cy="70.18" r="3.83"/><circle class="cls-14" cx="159.83" cy="70.15" r="3.83"/><circle class="cls-14" cx="121.44" cy="83.05" r="3.83"/><circle class="cls-14" cx="121.44" cy="95.74" r="3.83"/><circle class="cls-14" cx="134.24" cy="95.69" r="3.83"/><circle class="cls-14" cx="147.19" cy="95.76" r="3.83"/><circle class="cls-14" cx="159.83" cy="95.73" r="3.83"/><circle class="cls-14" cx="108.64" cy="83.04" r="3.83"/><circle class="cls-14" cx="70.25" cy="82.99" r="3.83"/><circle class="cls-14" cx="57.45" cy="95.61" r="3.83"/><circle class="cls-14" cx="95.85" cy="44.51" r="3.83"/><circle class="cls-14" cx="108.64" cy="44.47" r="3.83"/><circle class="cls-14" cx="83.05" cy="44.44" r="3.83"/><circle class="cls-14" cx="121.44" cy="57.43" r="3.83"/><circle class="cls-14" cx="70.25" cy="44.48" r="3.83"/><circle class="cls-14" cx="31.86" cy="82.97" r="3.83"/><circle class="cls-14" cx="31.86" cy="95.6" r="3.83"/><circle class="cls-14" cx="134.24" cy="57.7" r="3.83"/><circle class="cls-14" cx="57.45" cy="57.61" r="3.83"/><circle class="cls-14" cx="95.85" cy="70.13" r="3.83"/><circle class="cls-14" cx="83.05" cy="70.12" r="3.83"/><circle class="cls-14" cx="44.66" cy="70.08" r="3.83"/><circle class="cls-14" cx="44.66" cy="108.54" r="3.83"/><circle class="cls-15" cx="159.83" cy="57.42" r="3.83"/><circle class="cls-15" cx="121.44" cy="108.62" r="3.83"/><circle class="cls-15" cx="134.24" cy="108.89" r="3.83"/><circle class="cls-15" cx="147.19" cy="108.64" r="3.83"/><circle class="cls-15" cx="159.83" cy="108.61" r="3.83"/><circle class="cls-15" cx="95.85" cy="83.02" r="3.83"/><circle class="cls-15" cx="95.85" cy="95.71" r="3.83"/><circle class="cls-15" cx="108.64" cy="95.66" r="3.83"/><circle class="cls-15" cx="83.05" cy="83.01" r="3.83"/><circle class="cls-15" cx="70.25" cy="95.68" r="3.83"/><circle class="cls-15" cx="83.05" cy="95.64" r="3.83"/><circle class="cls-15" cx="57.45" cy="108.81" r="3.83"/><circle class="cls-15" cx="108.64" cy="31.84" r="3.83"/><circle class="cls-14" cx="70.25" cy="18.91" r="3.83"/><circle class="cls-14" cx="70.25" cy="31.79" r="3.83"/><circle class="cls-14" cx="44.66" cy="18.88" r="3.83"/><circle class="cls-14" cx="57.45" cy="18.9" r="3.83"/><circle class="cls-14" cx="31.86" cy="18.88" r="3.83"/><circle class="cls-14" cx="19.06" cy="31.75" r="3.83"/><circle class="cls-14" cx="31.86" cy="31.77" r="3.83"/><circle class="cls-14" cx="6.27" cy="31.75" r="3.83"/><circle class="cls-14" cx="6.27" cy="44.44" r="3.83"/><circle class="cls-14" cx="6.27" cy="57.33" r="3.83"/><circle class="cls-14" cx="19.06" cy="70.06" r="3.83"/><circle class="cls-14" cx="19.06" cy="82.95" r="3.83"/><circle class="cls-14" cx="19.06" cy="95.64" r="3.83"/><circle class="cls-14" cx="19.06" cy="108.53" r="3.83"/><circle class="cls-14" cx="6.27" cy="70.06" r="3.83"/><circle class="cls-14" cx="19.06" cy="121.43" r="3.83"/><circle class="cls-14" cx="19.06" cy="134.16" r="3.83"/><circle class="cls-14" cx="19.06" cy="147.05" r="3.83"/><circle class="cls-14" cx="19.06" cy="159.74" r="3.83"/><circle class="cls-14" cx="83.05" cy="31.81" r="3.83"/><circle class="cls-15" cx="121.44" cy="44.54" r="3.83"/><circle class="cls-15" cx="134.24" cy="44.5" r="3.83"/><circle class="cls-15" cx="95.85" cy="31.82" r="3.83"/><circle class="cls-15" cx="57.45" cy="44.41" r="3.83"/><circle class="cls-15" cx="31.86" cy="70.08" r="3.83"/><circle class="cls-15" cx="70.33" cy="6.1" r="3.83"/><circle class="cls-15" cx="83.13" cy="6.11" r="3.83"/><circle class="cls-15" cx="44.73" cy="6.07" r="3.83"/><circle class="cls-15" cx="57.53" cy="6.09" r="3.83"/><circle class="cls-15" cx="31.94" cy="6.07" r="3.83"/><circle class="cls-15" cx="57.45" cy="31.78" r="3.83"/><circle class="cls-15" cx="31.86" cy="121.7" r="3.83"/><circle class="cls-15" cx="83.05" cy="18.93" r="3.83"/><circle class="cls-15" cx="44.66" cy="31.77" r="3.83"/><circle class="cls-15" cx="19.06" cy="18.87" r="3.83"/><circle class="cls-15" cx="19.06" cy="44.44" r="3.83"/><circle class="cls-15" cx="31.86" cy="44.4" r="3.83"/><circle class="cls-15" cx="19.06" cy="57.33" r="3.83"/><circle class="cls-15" cx="6.27" cy="18.87" r="3.83"/><circle class="cls-15" cx="6.27" cy="82.95" r="3.83"/><circle class="cls-15" cx="6.27" cy="95.64" r="3.83"/><circle class="cls-15" cx="6.27" cy="108.53" r="3.83"/><circle class="cls-15" cx="6.26" cy="121.43" r="3.83"/><circle class="cls-15" cx="31.86" cy="134.18" r="3.83"/><circle class="cls-15" cx="31.86" cy="147.07" r="3.83"/><circle class="cls-15" cx="31.86" cy="159.69" r="3.83"/><circle class="cls-15" cx="19.06" cy="172.62" r="3.83"/><circle class="cls-15" cx="6.26" cy="134.16" r="3.83"/><circle class="cls-15" cx="6.26" cy="147.05" r="3.83"/><circle class="cls-15" cx="6.26" cy="159.74" r="3.83"/><circle class="cls-15" cx="31.86" cy="172.9" r="3.83"/><circle class="cls-15" cx="6.26" cy="172.62" r="3.83"/><circle class="cls-15" cx="31.86" cy="108.8" r="3.83"/><circle class="cls-15" cx="147.19" cy="57.45" r="3.83"/><circle class="cls-15" cx="44.66" cy="57.34" r="3.83"/><circle class="cls-15" cx="44.65" cy="121.44" r="3.83"/><rect class="cls-5" x="166.87" y="0.11" width="11.88" height="178.42"/><text class="cls-10" transform="translate(167.74 84.5)">-2</text></svg>