<svg id="Layer_1" data-name="Layer 1" xmlns="http://www.w3.org/2000/svg" viewBox="0 0 178.45 178.68"><defs><style>.cls-1{fill:#e7ebe8;}.cls-2{fill:#cac9cc;}.cls-3{fill:#eed6d9;}.cls-4{fill:#b5b5b6;}.cls-5{fill:#aa1e22;}.cls-6{fill:#cdd1e2;}.cls-7{fill:#aab1d3;}.cls-11,.cls-12,.cls-8{fill:none;stroke-miterlimit:10;}.cls-8{stroke:#6d79ba;}.cls-12,.cls-8{stroke-width:2px;}.cls-9{fill:#2c3592;}.cls-10{font-size:6.65px;fill:#d1d3d4;font-family:MyriadPro-Semibold, Myriad Pro;font-weight:700;}.cls-11{stroke:#58595b;stroke-linecap:round;stroke-width:3px;}.cls-12{stroke:#aa1e22;}.cls-13{fill:#6d79ba;}.cls-14{fill:#dd3742;}.cls-15{fill:#e8b3b9;}</style></defs><title>barrier-approx-td</title><rect class="cls-1" x="115.36" y="0.12" width="12.09" height="12.09"/><rect class="cls-1" x="128.16" y="0.13" width="12.09" height="12.09"/><rect class="cls-1" x="140.9" y="0.13" width="12.09" height="12.09"/><rect class="cls-1" x="115.36" y="12.92" width="12.09" height="12.09"/><rect class="cls-1" x="128.16" y="12.93" width="12.09" height="12.09"/><rect class="cls-1" x="140.9" y="12.93" width="12.09" height="12.09"/><rect class="cls-1" x="153.68" y="12.94" width="12.09" height="12.09"/><rect class="cls-1" x="115.36" y="25.66" width="12.09" height="12.09"/><rect class="cls-1" x="128.16" y="25.68" width="12.09" height="12.09"/><rect class="cls-1" x="140.9" y="25.68" width="12.09" height="12.09"/><rect class="cls-1" x="153.68" y="25.68" width="12.09" height="12.09"/><rect class="cls-1" x="115.36" y="38.46" width="12.09" height="12.09"/><rect class="cls-1" x="128.16" y="38.48" width="12.09" height="12.09"/><rect class="cls-1" x="140.9" y="38.48" width="12.09" height="12.09"/><rect class="cls-1" x="153.68" y="38.48" width="12.09" height="12.09"/><rect class="cls-1" x="115.36" y="51.25" width="12.09" height="12.09"/><rect class="cls-1" x="128.16" y="51.26" width="12.09" height="12.09"/><rect class="cls-1" x="140.9" y="51.27" width="12.09" height="12.09"/><rect class="cls-1" x="153.68" y="51.27" width="12.09" height="12.09"/><rect class="cls-1" x="89.76" y="0.09" width="12.09" height="12.09"/><rect class="cls-1" x="102.56" y="0.1" width="12.09" height="12.09"/><rect class="cls-1" x="89.76" y="12.89" width="12.09" height="12.09"/><rect class="cls-1" x="102.56" y="12.9" width="12.09" height="12.09"/><rect class="cls-1" x="89.76" y="25.63" width="12.09" height="12.09"/><rect class="cls-1" x="102.56" y="25.65" width="12.09" height="12.09"/><rect class="cls-1" x="89.76" y="38.43" width="12.09" height="12.09"/><rect class="cls-1" x="102.56" y="38.45" width="12.09" height="12.09"/><rect class="cls-1" x="89.76" y="51.22" width="12.09" height="12.09"/><rect class="cls-1" x="102.56" y="51.24" width="12.09" height="12.09"/><rect class="cls-1" x="64.17" y="0.06" width="12.09" height="12.09"/><rect class="cls-1" x="76.97" y="0.08" width="12.09" height="12.09"/><rect class="cls-1" x="64.17" y="12.86" width="12.09" height="12.09"/><rect class="cls-1" x="76.97" y="12.87" width="12.09" height="12.09"/><rect class="cls-1" x="64.17" y="25.61" width="12.09" height="12.09"/><rect class="cls-1" x="76.97" y="25.62" width="12.09" height="12.09"/><rect class="cls-1" x="64.17" y="38.41" width="12.09" height="12.09"/><rect class="cls-1" x="76.97" y="38.42" width="12.09" height="12.09"/><rect class="cls-1" x="64.17" y="51.19" width="12.09" height="12.09"/><rect class="cls-1" x="76.97" y="51.21" width="12.09" height="12.09"/><rect class="cls-1" x="38.58" y="0.03" width="12.09" height="12.09"/><rect class="cls-1" x="51.37" y="0.05" width="12.09" height="12.09"/><rect class="cls-1" x="38.58" y="12.83" width="12.09" height="12.09"/><rect class="cls-1" x="51.37" y="12.85" width="12.09" height="12.09"/><rect class="cls-1" x="38.58" y="25.58" width="12.09" height="12.09"/><rect class="cls-1" x="51.37" y="25.59" width="12.09" height="12.09"/><rect class="cls-1" x="38.58" y="38.38" width="12.09" height="12.09"/><rect class="cls-1" x="51.37" y="38.39" width="12.09" height="12.09"/><rect class="cls-1" x="38.58" y="51.17" width="12.09" height="12.09"/><rect class="cls-1" x="51.37" y="51.18" width="12.09" height="12.09"/><rect class="cls-1" x="12.98" y="0.02" width="12.09" height="12.09"/><rect class="cls-1" x="25.78" y="0.03" width="12.09" height="12.09"/><rect class="cls-1" x="12.98" y="12.82" width="12.09" height="12.09"/><rect class="cls-1" x="25.78" y="12.83" width="12.09" height="12.09"/><rect class="cls-1" x="12.98" y="25.57" width="12.09" height="12.09"/><rect class="cls-1" x="25.78" y="25.58" width="12.09" height="12.09"/><rect class="cls-1" x="12.98" y="38.36" width="12.09" height="12.09"/><rect class="cls-1" x="25.78" y="38.38" width="12.09" height="12.09"/><rect class="cls-1" x="12.98" y="51.15" width="12.09" height="12.09"/><rect class="cls-1" x="25.78" y="51.17" width="12.09" height="12.09"/><rect class="cls-1" x="0.18" y="0.02" width="12.09" height="12.09"/><rect class="cls-1" x="0.18" y="12.82" width="12.09" height="12.09"/><rect class="cls-1" x="0.18" y="25.57" width="12.09" height="12.09"/><rect class="cls-1" x="0.18" y="38.36" width="12.09" height="12.09"/><rect class="cls-1" x="0.18" y="51.15" width="12.09" height="12.09"/><rect class="cls-1" x="115.36" y="64.11" width="12.09" height="12.09"/><rect class="cls-1" x="128.16" y="64.13" width="12.09" height="12.09"/><rect class="cls-1" x="140.9" y="64.13" width="12.09" height="12.09"/><rect class="cls-1" x="153.68" y="64.13" width="12.09" height="12.09"/><rect class="cls-1" x="115.36" y="76.86" width="12.09" height="12.09"/><rect class="cls-1" x="128.16" y="76.87" width="12.09" height="12.09"/><rect class="cls-1" x="140.9" y="76.87" width="12.09" height="12.09"/><rect class="cls-1" x="153.68" y="76.88" width="12.09" height="12.09"/><rect class="cls-1" x="115.36" y="89.66" width="12.09" height="12.09"/><rect class="cls-1" x="128.16" y="89.67" width="12.09" height="12.09"/><rect class="cls-1" x="140.9" y="89.67" width="12.09" height="12.09"/><rect class="cls-1" x="153.68" y="89.68" width="12.09" height="12.09"/><rect class="cls-1" x="115.36" y="102.45" width="12.09" height="12.09"/><rect class="cls-1" x="128.16" y="102.46" width="12.09" height="12.09"/><rect class="cls-1" x="140.9" y="102.46" width="12.09" height="12.09"/><rect class="cls-1" x="153.68" y="102.47" width="12.09" height="12.09"/><rect class="cls-1" x="89.76" y="64.09" width="12.09" height="12.09"/><rect class="cls-1" x="102.56" y="64.1" width="12.09" height="12.09"/><rect class="cls-1" x="89.76" y="76.83" width="12.09" height="12.09"/><rect class="cls-1" x="102.56" y="76.84" width="12.09" height="12.09"/><rect class="cls-1" x="89.76" y="89.63" width="12.09" height="12.09"/><rect class="cls-1" x="102.56" y="89.64" width="12.09" height="12.09"/><rect class="cls-1" x="89.76" y="102.42" width="12.09" height="12.09"/><rect class="cls-1" x="102.56" y="102.43" width="12.09" height="12.09"/><rect class="cls-1" x="64.17" y="64.06" width="12.09" height="12.09"/><rect class="cls-1" x="76.97" y="64.07" width="12.09" height="12.09"/><rect class="cls-1" x="64.17" y="76.8" width="12.09" height="12.09"/><rect class="cls-1" x="76.97" y="76.82" width="12.09" height="12.09"/><rect class="cls-1" x="64.17" y="89.6" width="12.09" height="12.09"/><rect class="cls-1" x="76.97" y="89.62" width="12.09" height="12.09"/><rect class="cls-1" x="64.17" y="102.39" width="12.09" height="12.09"/><rect class="cls-1" x="76.97" y="102.4" width="12.09" height="12.09"/><rect class="cls-1" x="38.58" y="64.03" width="12.09" height="12.09"/><rect class="cls-1" x="51.37" y="64.04" width="12.09" height="12.09"/><rect class="cls-1" x="38.58" y="76.77" width="12.09" height="12.09"/><rect class="cls-1" x="51.37" y="76.79" width="12.09" height="12.09"/><rect class="cls-1" x="38.58" y="89.57" width="12.09" height="12.09"/><rect class="cls-1" x="51.37" y="89.59" width="12.09" height="12.09"/><rect class="cls-1" x="38.58" y="102.36" width="12.09" height="12.09"/><rect class="cls-1" x="51.37" y="102.37" width="12.09" height="12.09"/><rect class="cls-1" x="12.98" y="64.02" width="12.09" height="12.09"/><rect class="cls-1" x="25.78" y="64.03" width="12.09" height="12.09"/><rect class="cls-1" x="12.98" y="76.76" width="12.09" height="12.09"/><rect class="cls-1" x="25.78" y="76.77" width="12.09" height="12.09"/><rect class="cls-1" x="12.98" y="89.56" width="12.09" height="12.09"/><rect class="cls-1" x="25.78" y="89.57" width="12.09" height="12.09"/><rect class="cls-1" x="12.98" y="102.35" width="12.09" height="12.09"/><rect class="cls-1" x="25.78" y="102.36" width="12.09" height="12.09"/><rect class="cls-1" x="0.18" y="64.02" width="12.09" height="12.09"/><rect class="cls-1" x="0.18" y="76.76" width="12.09" height="12.09"/><rect class="cls-1" x="0.18" y="89.56" width="12.09" height="12.09"/><rect class="cls-1" x="0.18" y="102.35" width="12.09" height="12.09"/><rect class="cls-1" x="115.35" y="115.35" width="12.09" height="12.09"/><rect class="cls-1" x="128.15" y="115.36" width="12.09" height="12.09"/><rect class="cls-1" x="140.9" y="115.37" width="12.09" height="12.09"/><rect class="cls-1" x="153.68" y="115.37" width="12.09" height="12.09"/><rect class="cls-1" x="89.76" y="115.32" width="12.09" height="12.09"/><rect class="cls-1" x="102.56" y="115.33" width="12.09" height="12.09"/><rect class="cls-1" x="64.17" y="115.29" width="12.09" height="12.09"/><rect class="cls-1" x="76.96" y="115.31" width="12.09" height="12.09"/><rect class="cls-1" x="38.57" y="115.27" width="12.09" height="12.09"/><rect class="cls-1" x="51.37" y="115.28" width="12.09" height="12.09"/><rect class="cls-1" x="12.98" y="115.25" width="12.09" height="12.09"/><rect class="cls-1" x="25.77" y="115.27" width="12.09" height="12.09"/><rect class="cls-1" x="0.18" y="115.25" width="12.09" height="12.09"/><rect class="cls-1" x="115.35" y="128.21" width="12.09" height="12.09"/><rect class="cls-1" x="128.15" y="128.23" width="12.09" height="12.09"/><rect class="cls-1" x="140.9" y="128.23" width="12.09" height="12.09"/><rect class="cls-1" x="153.68" y="128.23" width="12.09" height="12.09"/><rect class="cls-1" x="115.35" y="140.96" width="12.09" height="12.09"/><rect class="cls-1" x="128.15" y="140.97" width="12.09" height="12.09"/><rect class="cls-1" x="140.9" y="140.97" width="12.09" height="12.09"/><rect class="cls-1" x="153.68" y="140.98" width="12.09" height="12.09"/><rect class="cls-1" x="115.35" y="153.76" width="12.09" height="12.09"/><rect class="cls-1" x="128.15" y="153.77" width="12.09" height="12.09"/><rect class="cls-1" x="140.9" y="153.77" width="12.09" height="12.09"/><rect class="cls-1" x="153.68" y="153.78" width="12.09" height="12.09"/><rect class="cls-1" x="115.35" y="166.55" width="12.09" height="12.09"/><rect class="cls-1" x="128.15" y="166.56" width="12.09" height="12.09"/><rect class="cls-1" x="140.9" y="166.56" width="12.09" height="12.09"/><rect class="cls-1" x="153.68" y="166.57" width="12.09" height="12.09"/><circle class="cls-2" cx="121.32" cy="147.16" r="3.83"/><circle class="cls-2" cx="134.12" cy="147.17" r="3.83"/><circle class="cls-2" cx="147.07" cy="147.17" r="3.83"/><circle class="cls-2" cx="159.71" cy="147.14" r="3.83"/><circle class="cls-2" cx="121.32" cy="159.85" r="3.83"/><circle class="cls-2" cx="134.12" cy="159.8" r="3.83"/><circle class="cls-2" cx="147.07" cy="159.86" r="3.83"/><circle class="cls-2" cx="159.71" cy="159.84" r="3.83"/><circle class="cls-2" cx="121.32" cy="172.73" r="3.83"/><circle class="cls-2" cx="134.12" cy="173" r="3.83"/><circle class="cls-2" cx="147.07" cy="172.75" r="3.83"/><circle class="cls-2" cx="159.71" cy="172.72" r="3.83"/><rect class="cls-1" x="89.76" y="128.19" width="12.09" height="12.09"/><rect class="cls-1" x="102.56" y="128.2" width="12.09" height="12.09"/><rect class="cls-1" x="89.76" y="140.93" width="12.09" height="12.09"/><rect class="cls-1" x="102.56" y="140.94" width="12.09" height="12.09"/><rect class="cls-1" x="89.76" y="153.73" width="12.09" height="12.09"/><rect class="cls-1" x="102.56" y="153.74" width="12.09" height="12.09"/><rect class="cls-1" x="89.76" y="166.52" width="12.09" height="12.09"/><rect class="cls-1" x="102.56" y="166.53" width="12.09" height="12.09"/><circle class="cls-2" cx="95.73" cy="147.13" r="3.83"/><circle class="cls-2" cx="108.53" cy="147.15" r="3.83"/><circle class="cls-2" cx="95.73" cy="159.82" r="3.83"/><circle class="cls-2" cx="108.53" cy="159.77" r="3.83"/><circle class="cls-2" cx="95.73" cy="172.7" r="3.83"/><circle class="cls-2" cx="108.53" cy="172.98" r="3.83"/><rect class="cls-1" x="64.17" y="128.16" width="12.09" height="12.09"/><rect class="cls-1" x="76.96" y="128.17" width="12.09" height="12.09"/><rect class="cls-1" x="64.17" y="140.9" width="12.09" height="12.09"/><rect class="cls-1" x="76.96" y="140.91" width="12.09" height="12.09"/><rect class="cls-1" x="64.17" y="153.7" width="12.09" height="12.09"/><rect class="cls-1" x="76.96" y="153.71" width="12.09" height="12.09"/><rect class="cls-1" x="64.17" y="166.49" width="12.09" height="12.09"/><rect class="cls-1" x="76.96" y="166.5" width="12.09" height="12.09"/><circle class="cls-2" cx="70.13" cy="147.1" r="3.83"/><circle class="cls-2" cx="82.93" cy="147.12" r="3.83"/><circle class="cls-2" cx="70.13" cy="159.79" r="3.83"/><circle class="cls-2" cx="82.93" cy="159.75" r="3.83"/><circle class="cls-2" cx="70.13" cy="172.68" r="3.83"/><circle class="cls-2" cx="82.93" cy="172.95" r="3.83"/><rect class="cls-1" x="38.57" y="128.13" width="12.09" height="12.09"/><rect class="cls-1" x="51.37" y="128.14" width="12.09" height="12.09"/><rect class="cls-1" x="38.57" y="140.87" width="12.09" height="12.09"/><rect class="cls-1" x="51.37" y="140.89" width="12.09" height="12.09"/><rect class="cls-1" x="38.57" y="153.67" width="12.09" height="12.09"/><rect class="cls-1" x="51.37" y="153.69" width="12.09" height="12.09"/><rect class="cls-1" x="38.57" y="166.46" width="12.09" height="12.09"/><rect class="cls-1" x="51.37" y="166.47" width="12.09" height="12.09"/><circle class="cls-3" cx="95.73" cy="108.61" r="3.83"/><circle class="cls-3" cx="108.53" cy="108.88" r="3.83"/><circle class="cls-3" cx="70.14" cy="108.58" r="3.83"/><circle class="cls-3" cx="82.93" cy="108.85" r="3.83"/><circle class="cls-3" cx="121.32" cy="121.54" r="3.83"/><circle class="cls-3" cx="134.12" cy="121.81" r="3.83"/><circle class="cls-3" cx="147.07" cy="121.55" r="3.83"/><circle class="cls-3" cx="159.71" cy="121.53" r="3.83"/><circle class="cls-3" cx="95.73" cy="121.51" r="3.83"/><circle class="cls-3" cx="108.53" cy="121.78" r="3.83"/><circle class="cls-3" cx="70.13" cy="121.48" r="3.83"/><circle class="cls-3" cx="82.93" cy="121.75" r="3.83"/><circle class="cls-3" cx="57.34" cy="121.72" r="3.83"/><circle class="cls-3" cx="121.32" cy="134.27" r="3.83"/><circle class="cls-3" cx="134.12" cy="134.29" r="3.83"/><circle class="cls-3" cx="147.07" cy="134.29" r="3.83"/><circle class="cls-3" cx="159.71" cy="134.26" r="3.83"/><circle class="cls-3" cx="95.73" cy="134.24" r="3.83"/><circle class="cls-3" cx="108.53" cy="134.26" r="3.83"/><circle class="cls-3" cx="70.13" cy="134.21" r="3.83"/><circle class="cls-3" cx="82.93" cy="134.23" r="3.83"/><circle class="cls-3" cx="57.34" cy="134.2" r="3.83"/><circle class="cls-2" cx="57.34" cy="147.09" r="3.83"/><circle class="cls-2" cx="57.34" cy="159.72" r="3.83"/><circle class="cls-2" cx="57.34" cy="172.92" r="3.83"/><rect class="cls-1" x="12.98" y="128.12" width="12.09" height="12.09"/><rect class="cls-1" x="25.77" y="128.13" width="12.09" height="12.09"/><rect class="cls-1" x="12.98" y="140.86" width="12.09" height="12.09"/><rect class="cls-1" x="25.77" y="140.87" width="12.09" height="12.09"/><rect class="cls-1" x="12.98" y="153.66" width="12.09" height="12.09"/><rect class="cls-1" x="25.77" y="153.67" width="12.09" height="12.09"/><rect class="cls-1" x="12.98" y="166.45" width="12.09" height="12.09"/><rect class="cls-1" x="25.77" y="166.46" width="12.09" height="12.09"/><rect class="cls-1" x="0.18" y="128.12" width="12.09" height="12.09"/><rect class="cls-1" x="0.18" y="140.86" width="12.09" height="12.09"/><rect class="cls-1" x="0.18" y="153.66" width="12.09" height="12.09"/><rect class="cls-1" x="0.18" y="166.45" width="12.09" height="12.09"/><circle class="cls-2" cx="121.33" cy="18.97" r="3.83"/><circle class="cls-4" cx="147.07" cy="31.88" r="3.83"/><circle class="cls-4" cx="95.73" cy="18.95" r="3.83"/><circle class="cls-4" cx="108.53" cy="18.96" r="3.83"/><circle class="cls-4" cx="57.34" cy="31.79" r="3.83"/><circle class="cls-4" cx="44.54" cy="44.47" r="3.83"/><circle class="cls-4" cx="31.75" cy="57.61" r="3.83"/><circle class="cls-4" cx="31.74" cy="121.71" r="3.83"/><circle class="cls-4" cx="147.07" cy="44.57" r="3.83"/><circle class="cls-4" cx="159.71" cy="44.54" r="3.83"/><circle class="cls-5" cx="134.12" cy="83.07" r="3.83"/><circle class="cls-5" cx="147.07" cy="83.07" r="3.83"/><circle class="cls-5" cx="159.71" cy="83.05" r="3.83"/><circle class="cls-5" cx="95.73" cy="57.41" r="3.83"/><circle class="cls-5" cx="108.53" cy="57.68" r="3.83"/><circle class="cls-5" cx="70.14" cy="57.38" r="3.83"/><circle class="cls-5" cx="82.94" cy="57.65" r="3.83"/><circle class="cls-5" cx="121.33" cy="70.17" r="3.83"/><circle class="cls-5" cx="134.12" cy="70.19" r="3.83"/><circle class="cls-5" cx="108.53" cy="70.16" r="3.83"/><circle class="cls-5" cx="70.14" cy="70.11" r="3.83"/><circle class="cls-5" cx="57.34" cy="70.1" r="3.83"/><circle class="cls-5" cx="44.54" cy="82.97" r="3.83"/><circle class="cls-5" cx="57.34" cy="82.99" r="3.83"/><circle class="cls-5" cx="44.54" cy="95.66" r="3.83"/><circle class="cls-2" cx="44.54" cy="134.19" r="3.83"/><circle class="cls-6" cx="19.03" cy="6.07" r="3.83"/><circle class="cls-6" cx="6.23" cy="6.07" r="3.83"/><circle class="cls-6" cx="44.54" cy="147.07" r="3.83"/><circle class="cls-6" cx="44.54" cy="159.76" r="3.83"/><circle class="cls-6" cx="44.54" cy="172.65" r="3.83"/><circle class="cls-7" cx="134.2" cy="6.18" r="3.83"/><circle class="cls-7" cx="159.71" cy="18.96" r="3.83"/><circle class="cls-7" cx="70.21" cy="6.11" r="3.83"/><circle class="cls-7" cx="83.01" cy="6.13" r="3.83"/><circle class="cls-7" cx="82.94" cy="18.94" r="3.83"/><circle class="cls-7" cx="44.62" cy="6.08" r="3.83"/><circle class="cls-7" cx="57.42" cy="6.1" r="3.83"/><circle class="cls-7" cx="44.54" cy="31.78" r="3.83"/><circle class="cls-7" cx="31.82" cy="6.08" r="3.83"/><circle class="cls-7" cx="18.95" cy="18.88" r="3.83"/><circle class="cls-7" cx="18.95" cy="44.45" r="3.83"/><circle class="cls-7" cx="31.75" cy="44.41" r="3.83"/><circle class="cls-7" cx="18.95" cy="57.34" r="3.83"/><circle class="cls-7" cx="6.15" cy="18.88" r="3.83"/><circle class="cls-7" cx="6.15" cy="82.96" r="3.83"/><circle class="cls-7" cx="6.15" cy="95.65" r="3.83"/><circle class="cls-7" cx="6.15" cy="108.54" r="3.83"/><circle class="cls-7" cx="6.15" cy="121.44" r="3.83"/><circle class="cls-7" cx="31.74" cy="134.19" r="3.83"/><circle class="cls-7" cx="31.74" cy="147.08" r="3.83"/><circle class="cls-7" cx="31.74" cy="159.7" r="3.83"/><circle class="cls-7" cx="18.95" cy="172.64" r="3.83"/><circle class="cls-7" cx="6.15" cy="134.17" r="3.83"/><circle class="cls-7" cx="6.15" cy="147.06" r="3.83"/><circle class="cls-7" cx="6.15" cy="159.75" r="3.83"/><circle class="cls-7" cx="121.4" cy="6.16" r="3.83"/><circle class="cls-7" cx="159.71" cy="31.85" r="3.83"/><circle class="cls-7" cx="95.81" cy="6.14" r="3.83"/><circle class="cls-7" cx="108.61" cy="6.15" r="3.83"/><circle class="cls-7" cx="31.74" cy="172.91" r="3.83"/><circle class="cls-7" cx="6.15" cy="172.64" r="3.83"/><polyline class="cls-8" points="18.95 159.75 18.95 70.07 6.15 70.07 6.15 31.76 31.75 31.76 31.75 18.89 70.14 18.89 70.14 31.8 82.94 31.8 82.94 44.45 95.73 44.45 108.53 44.45 108.53 31.85 134.12 31.85 134.12 18.99 147.07 18.99 147.07 6.18 159.71 6.18"/><rect class="cls-9" x="154.56" y="1.01" width="10.33" height="10.33"/><text class="cls-10" transform="translate(155.95 7.41)">+1</text><line class="cls-11" x1="166.76" y1="50.96" x2="25.78" y2="50.84"/><polyline class="cls-12" points="44.54 95.66 44.54 82.97 57.34 82.99 57.34 70.1 70.14 70.11 70.14 57.38 82.94 57.65 95.73 57.41 108.53 57.68 108.53 70.16 121.33 70.17 134.12 70.19 134.12 83.08 147.07 83.08 159.71 83.08 172.69 83.08"/><circle class="cls-13" cx="147.15" cy="6.18" r="3.83"/><circle class="cls-13" cx="134.12" cy="18.99" r="3.83"/><circle class="cls-13" cx="147.07" cy="18.99" r="3.83"/><circle class="cls-13" cx="121.33" cy="31.86" r="3.83"/><circle class="cls-13" cx="134.12" cy="31.88" r="3.83"/><circle class="cls-13" cx="70.14" cy="18.92" r="3.83"/><circle class="cls-13" cx="70.14" cy="31.8" r="3.83"/><circle class="cls-13" cx="44.54" cy="18.89" r="3.83"/><circle class="cls-13" cx="57.34" cy="18.91" r="3.83"/><circle class="cls-13" cx="31.75" cy="18.9" r="3.83"/><circle class="cls-13" cx="18.95" cy="31.76" r="3.83"/><circle class="cls-13" cx="31.75" cy="31.78" r="3.83"/><circle class="cls-13" cx="6.15" cy="31.76" r="3.83"/><circle class="cls-13" cx="6.15" cy="44.45" r="3.83"/><circle class="cls-13" cx="6.15" cy="57.34" r="3.83"/><circle class="cls-13" cx="18.95" cy="70.07" r="3.83"/><circle class="cls-13" cx="18.95" cy="82.96" r="3.83"/><circle class="cls-13" cx="18.95" cy="95.65" r="3.83"/><circle class="cls-13" cx="18.95" cy="108.54" r="3.83"/><circle class="cls-13" cx="6.15" cy="70.07" r="3.83"/><circle class="cls-13" cx="18.95" cy="121.44" r="3.83"/><circle class="cls-13" cx="18.95" cy="134.17" r="3.83"/><circle class="cls-13" cx="18.95" cy="147.06" r="3.83"/><circle class="cls-13" cx="18.95" cy="159.75" r="3.83"/><circle class="cls-14" cx="147.07" cy="70.19" r="3.83"/><circle class="cls-14" cx="159.71" cy="70.16" r="3.83"/><circle class="cls-14" cx="121.33" cy="83.06" r="3.83"/><circle class="cls-14" cx="121.33" cy="95.75" r="3.83"/><circle class="cls-14" cx="134.12" cy="95.7" r="3.83"/><circle class="cls-14" cx="147.07" cy="95.77" r="3.83"/><circle class="cls-14" cx="159.71" cy="95.74" r="3.83"/><circle class="cls-14" cx="108.53" cy="83.05" r="3.83"/><circle class="cls-14" cx="70.14" cy="83" r="3.83"/><circle class="cls-14" cx="57.34" cy="95.62" r="3.83"/><circle class="cls-14" cx="95.73" cy="44.52" r="3.83"/><circle class="cls-14" cx="108.53" cy="44.48" r="3.83"/><circle class="cls-14" cx="82.94" cy="44.45" r="3.83"/><circle class="cls-14" cx="121.33" cy="57.44" r="3.83"/><circle class="cls-14" cx="70.14" cy="44.5" r="3.83"/><circle class="cls-14" cx="31.75" cy="82.98" r="3.83"/><circle class="cls-14" cx="31.75" cy="95.61" r="3.83"/><circle class="cls-14" cx="134.12" cy="57.71" r="3.83"/><circle class="cls-14" cx="57.34" cy="57.62" r="3.83"/><circle class="cls-14" cx="95.73" cy="70.14" r="3.83"/><circle class="cls-14" cx="82.93" cy="70.13" r="3.83"/><circle class="cls-14" cx="44.54" cy="70.09" r="3.83"/><circle class="cls-14" cx="44.54" cy="108.55" r="3.83"/><circle class="cls-15" cx="159.71" cy="57.43" r="3.83"/><circle class="cls-15" cx="121.33" cy="108.63" r="3.83"/><circle class="cls-15" cx="134.12" cy="108.9" r="3.83"/><circle class="cls-15" cx="147.07" cy="108.65" r="3.83"/><circle class="cls-15" cx="159.71" cy="108.62" r="3.83"/><circle class="cls-15" cx="95.73" cy="83.03" r="3.83"/><circle class="cls-15" cx="95.73" cy="95.72" r="3.83"/><circle class="cls-15" cx="108.53" cy="95.67" r="3.83"/><circle class="cls-15" cx="82.93" cy="83.02" r="3.83"/><circle class="cls-15" cx="70.14" cy="95.69" r="3.83"/><circle class="cls-15" cx="82.93" cy="95.65" r="3.83"/><circle class="cls-15" cx="57.34" cy="108.82" r="3.83"/><circle class="cls-15" cx="108.53" cy="31.85" r="3.83"/><circle class="cls-15" cx="82.94" cy="31.82" r="3.83"/><circle class="cls-15" cx="121.33" cy="44.55" r="3.83"/><circle class="cls-15" cx="134.12" cy="44.51" r="3.83"/><circle class="cls-15" cx="95.73" cy="31.83" r="3.83"/><circle class="cls-15" cx="57.34" cy="44.42" r="3.83"/><circle class="cls-15" cx="31.75" cy="70.09" r="3.83"/><circle class="cls-15" cx="31.75" cy="108.81" r="3.83"/><circle class="cls-15" cx="147.07" cy="57.46" r="3.83"/><circle class="cls-15" cx="44.54" cy="57.35" r="3.83"/><circle class="cls-15" cx="44.54" cy="121.45" r="3.83"/><rect class="cls-5" x="166.75" y="0.12" width="11.88" height="178.42"/><text class="cls-10" transform="translate(167.63 84.51)">-2</text></svg>