<svg id="Layer_1" data-name="Layer 1" xmlns="http://www.w3.org/2000/svg" viewBox="0 0 178.45 178.68"><defs><style>.cls-1{fill:#e7ebe8;}.cls-2{fill:#cac9cc;}.cls-3{fill:#6d79ba;}.cls-4{fill:#aa1e22;}.cls-5,.cls-8,.cls-9{fill:none;stroke-miterlimit:10;}.cls-5{stroke:#6d79ba;}.cls-5,.cls-9{stroke-width:2px;}.cls-6{fill:#2c3592;}.cls-7{font-size:6.65px;fill:#d1d3d4;font-family:MyriadPro-Semibold, Myriad Pro;font-weight:700;}.cls-8{stroke:#58595b;stroke-linecap:round;stroke-width:3px;}.cls-9{stroke:#aa1e22;}</style></defs><title>barrier-tabular</title><rect class="cls-1" x="115.18" y="0.06" width="12.09" height="12.09"/><rect class="cls-1" x="127.98" y="0.07" width="12.09" height="12.09"/><rect class="cls-1" x="140.72" y="0.08" width="12.09" height="12.09"/><rect class="cls-1" x="115.18" y="12.86" width="12.09" height="12.09"/><rect class="cls-1" x="127.98" y="12.87" width="12.09" height="12.09"/><rect class="cls-1" x="140.72" y="12.88" width="12.09" height="12.09"/><rect class="cls-1" x="153.5" y="12.88" width="12.09" height="12.09"/><rect class="cls-1" x="115.18" y="25.6" width="12.09" height="12.09"/><rect class="cls-1" x="127.98" y="25.62" width="12.09" height="12.09"/><rect class="cls-1" x="140.72" y="25.62" width="12.09" height="12.09"/><rect class="cls-1" x="153.5" y="25.62" width="12.09" height="12.09"/><rect class="cls-1" x="115.18" y="38.4" width="12.09" height="12.09"/><rect class="cls-1" x="127.98" y="38.42" width="12.09" height="12.09"/><rect class="cls-1" x="140.72" y="38.42" width="12.09" height="12.09"/><rect class="cls-1" x="153.5" y="38.42" width="12.09" height="12.09"/><rect class="cls-1" x="115.18" y="51.19" width="12.09" height="12.09"/><rect class="cls-1" x="127.98" y="51.21" width="12.09" height="12.09"/><rect class="cls-1" x="140.72" y="51.21" width="12.09" height="12.09"/><rect class="cls-1" x="153.5" y="51.21" width="12.09" height="12.09"/><circle class="cls-2" cx="159.53" cy="57.37" r="3.83"/><rect class="cls-1" x="89.58" y="0.03" width="12.09" height="12.09"/><rect class="cls-1" x="102.38" y="0.04" width="12.09" height="12.09"/><rect class="cls-1" x="89.58" y="12.83" width="12.09" height="12.09"/><rect class="cls-1" x="102.38" y="12.84" width="12.09" height="12.09"/><rect class="cls-1" x="89.58" y="25.58" width="12.09" height="12.09"/><rect class="cls-1" x="102.38" y="25.59" width="12.09" height="12.09"/><rect class="cls-1" x="89.58" y="38.38" width="12.09" height="12.09"/><rect class="cls-1" x="102.38" y="38.39" width="12.09" height="12.09"/><rect class="cls-1" x="89.58" y="51.16" width="12.09" height="12.09"/><rect class="cls-1" x="102.38" y="51.18" width="12.09" height="12.09"/><rect class="cls-1" x="63.99" width="12.09" height="12.09"/><rect class="cls-1" x="76.79" y="0.02" width="12.09" height="12.09"/><rect class="cls-1" x="63.99" y="12.8" width="12.09" height="12.09"/><rect class="cls-1" x="76.79" y="12.82" width="12.09" height="12.09"/><rect class="cls-1" x="63.99" y="25.55" width="12.09" height="12.09"/><rect class="cls-1" x="76.79" y="25.56" width="12.09" height="12.09"/><rect class="cls-1" x="63.99" y="38.35" width="12.09" height="12.09"/><rect class="cls-1" x="76.79" y="38.36" width="12.09" height="12.09"/><rect class="cls-1" x="63.99" y="51.14" width="12.09" height="12.09"/><rect class="cls-1" x="76.79" y="51.15" width="12.09" height="12.09"/><rect class="cls-1" x="38.4" y="-0.02" width="12.09" height="12.09"/><rect class="cls-1" x="51.19" y="-0.01" width="12.09" height="12.09"/><rect class="cls-1" x="38.4" y="12.78" width="12.09" height="12.09"/><rect class="cls-1" x="51.19" y="12.79" width="12.09" height="12.09"/><rect class="cls-1" x="38.4" y="25.52" width="12.09" height="12.09"/><rect class="cls-1" x="51.19" y="25.53" width="12.09" height="12.09"/><rect class="cls-1" x="38.4" y="38.32" width="12.09" height="12.09"/><rect class="cls-1" x="51.19" y="38.33" width="12.09" height="12.09"/><rect class="cls-1" x="38.4" y="51.11" width="12.09" height="12.09"/><rect class="cls-1" x="51.19" y="51.12" width="12.09" height="12.09"/><rect class="cls-1" x="12.8" y="-0.04" width="12.09" height="12.09"/><rect class="cls-1" x="25.6" y="-0.02" width="12.09" height="12.09"/><rect class="cls-1" x="12.8" y="12.76" width="12.09" height="12.09"/><rect class="cls-1" x="25.6" y="12.78" width="12.09" height="12.09"/><rect class="cls-1" x="12.8" y="25.51" width="12.09" height="12.09"/><rect class="cls-1" x="25.6" y="25.52" width="12.09" height="12.09"/><rect class="cls-1" x="12.8" y="38.31" width="12.09" height="12.09"/><rect class="cls-1" x="25.6" y="38.32" width="12.09" height="12.09"/><rect class="cls-1" x="12.8" y="51.09" width="12.09" height="12.09"/><rect class="cls-1" x="25.6" y="51.11" width="12.09" height="12.09"/><rect class="cls-1" y="-0.04" width="12.09" height="12.09"/><rect class="cls-1" y="12.76" width="12.09" height="12.09"/><rect class="cls-1" y="25.51" width="12.09" height="12.09"/><rect class="cls-1" y="38.31" width="12.09" height="12.09"/><rect class="cls-1" y="51.09" width="12.09" height="12.09"/><rect class="cls-1" x="115.18" y="64.06" width="12.09" height="12.09"/><rect class="cls-1" x="127.98" y="64.07" width="12.09" height="12.09"/><rect class="cls-1" x="140.72" y="64.07" width="12.09" height="12.09"/><rect class="cls-1" x="153.5" y="64.08" width="12.09" height="12.09"/><rect class="cls-1" x="115.18" y="76.8" width="12.09" height="12.09"/><rect class="cls-1" x="127.98" y="76.81" width="12.09" height="12.09"/><rect class="cls-1" x="140.72" y="76.82" width="12.09" height="12.09"/><rect class="cls-1" x="153.5" y="76.82" width="12.09" height="12.09"/><rect class="cls-1" x="115.18" y="89.6" width="12.09" height="12.09"/><rect class="cls-1" x="127.98" y="89.61" width="12.09" height="12.09"/><rect class="cls-1" x="140.72" y="89.62" width="12.09" height="12.09"/><rect class="cls-1" x="153.5" y="89.62" width="12.09" height="12.09"/><rect class="cls-1" x="115.18" y="102.39" width="12.09" height="12.09"/><rect class="cls-1" x="127.98" y="102.4" width="12.09" height="12.09"/><rect class="cls-1" x="140.72" y="102.4" width="12.09" height="12.09"/><rect class="cls-1" x="153.5" y="102.41" width="12.09" height="12.09"/><circle class="cls-2" cx="146.89" cy="70.13" r="3.83"/><circle class="cls-2" cx="159.53" cy="70.1" r="3.83"/><circle class="cls-2" cx="121.15" cy="83" r="3.83"/><circle class="cls-2" cx="121.15" cy="95.69" r="3.83"/><circle class="cls-2" cx="133.94" cy="95.64" r="3.83"/><circle class="cls-2" cx="146.89" cy="95.71" r="3.83"/><circle class="cls-2" cx="159.53" cy="95.68" r="3.83"/><circle class="cls-2" cx="121.15" cy="108.58" r="3.83"/><circle class="cls-2" cx="133.94" cy="108.85" r="3.83"/><circle class="cls-2" cx="146.89" cy="108.59" r="3.83"/><circle class="cls-2" cx="159.53" cy="108.56" r="3.83"/><rect class="cls-1" x="89.58" y="64.03" width="12.09" height="12.09"/><rect class="cls-1" x="102.38" y="64.04" width="12.09" height="12.09"/><rect class="cls-1" x="89.58" y="76.77" width="12.09" height="12.09"/><rect class="cls-1" x="102.38" y="76.79" width="12.09" height="12.09"/><rect class="cls-1" x="89.58" y="89.57" width="12.09" height="12.09"/><rect class="cls-1" x="102.38" y="89.58" width="12.09" height="12.09"/><rect class="cls-1" x="89.58" y="102.36" width="12.09" height="12.09"/><rect class="cls-1" x="102.38" y="102.37" width="12.09" height="12.09"/><circle class="cls-2" cx="95.55" cy="82.97" r="3.83"/><circle class="cls-2" cx="108.35" cy="82.99" r="3.83"/><circle class="cls-2" cx="95.55" cy="95.66" r="3.83"/><circle class="cls-2" cx="108.35" cy="95.62" r="3.83"/><circle class="cls-2" cx="95.55" cy="108.55" r="3.83"/><circle class="cls-2" cx="108.35" cy="108.82" r="3.83"/><rect class="cls-1" x="63.99" y="64" width="12.09" height="12.09"/><rect class="cls-1" x="76.79" y="64.01" width="12.09" height="12.09"/><rect class="cls-1" x="63.99" y="76.74" width="12.09" height="12.09"/><rect class="cls-1" x="76.79" y="76.76" width="12.09" height="12.09"/><rect class="cls-1" x="63.99" y="89.54" width="12.09" height="12.09"/><rect class="cls-1" x="76.79" y="89.56" width="12.09" height="12.09"/><rect class="cls-1" x="63.99" y="102.33" width="12.09" height="12.09"/><rect class="cls-1" x="76.79" y="102.34" width="12.09" height="12.09"/><circle class="cls-2" cx="69.96" cy="82.94" r="3.83"/><circle class="cls-2" cx="82.75" cy="82.96" r="3.83"/><circle class="cls-2" cx="69.96" cy="95.63" r="3.83"/><circle class="cls-2" cx="82.75" cy="95.59" r="3.83"/><circle class="cls-2" cx="69.96" cy="108.52" r="3.83"/><circle class="cls-2" cx="82.75" cy="108.79" r="3.83"/><rect class="cls-1" x="38.4" y="63.97" width="12.09" height="12.09"/><rect class="cls-1" x="51.19" y="63.98" width="12.09" height="12.09"/><rect class="cls-1" x="38.4" y="76.72" width="12.09" height="12.09"/><rect class="cls-1" x="51.19" y="76.73" width="12.09" height="12.09"/><rect class="cls-1" x="38.4" y="89.52" width="12.09" height="12.09"/><rect class="cls-1" x="51.19" y="89.53" width="12.09" height="12.09"/><rect class="cls-1" x="38.4" y="102.3" width="12.09" height="12.09"/><rect class="cls-1" x="51.19" y="102.32" width="12.09" height="12.09"/><circle class="cls-2" cx="57.16" cy="95.56" r="3.83"/><circle class="cls-2" cx="57.16" cy="108.76" r="3.83"/><rect class="cls-1" x="12.8" y="63.96" width="12.09" height="12.09"/><rect class="cls-1" x="25.6" y="63.97" width="12.09" height="12.09"/><rect class="cls-1" x="12.8" y="76.7" width="12.09" height="12.09"/><rect class="cls-1" x="25.6" y="76.72" width="12.09" height="12.09"/><rect class="cls-1" x="12.8" y="89.5" width="12.09" height="12.09"/><rect class="cls-1" x="25.6" y="89.52" width="12.09" height="12.09"/><rect class="cls-1" x="12.8" y="102.29" width="12.09" height="12.09"/><rect class="cls-1" x="25.6" y="102.3" width="12.09" height="12.09"/><rect class="cls-1" y="63.96" width="12.09" height="12.09"/><rect class="cls-1" y="76.7" width="12.09" height="12.09"/><rect class="cls-1" y="89.5" width="12.09" height="12.09"/><rect class="cls-1" y="102.29" width="12.09" height="12.09"/><rect class="cls-1" x="115.17" y="115.29" width="12.09" height="12.09"/><rect class="cls-1" x="127.97" y="115.3" width="12.09" height="12.09"/><rect class="cls-1" x="140.72" y="115.31" width="12.09" height="12.09"/><rect class="cls-1" x="153.5" y="115.31" width="12.09" height="12.09"/><circle class="cls-2" cx="121.14" cy="121.48" r="3.83"/><circle class="cls-2" cx="133.94" cy="121.75" r="3.83"/><circle class="cls-2" cx="146.89" cy="121.5" r="3.83"/><circle class="cls-2" cx="159.53" cy="121.47" r="3.83"/><rect class="cls-1" x="89.58" y="115.26" width="12.09" height="12.09"/><rect class="cls-1" x="102.38" y="115.28" width="12.09" height="12.09"/><circle class="cls-2" cx="95.55" cy="121.45" r="3.83"/><circle class="cls-2" cx="108.35" cy="121.72" r="3.83"/><rect class="cls-1" x="63.99" y="115.23" width="12.09" height="12.09"/><rect class="cls-1" x="76.78" y="115.25" width="12.09" height="12.09"/><circle class="cls-2" cx="69.95" cy="121.42" r="3.83"/><circle class="cls-2" cx="82.75" cy="121.69" r="3.83"/><rect class="cls-1" x="38.39" y="115.21" width="12.09" height="12.09"/><rect class="cls-1" x="51.19" y="115.22" width="12.09" height="12.09"/><circle class="cls-2" cx="57.16" cy="121.66" r="3.83"/><rect class="cls-1" x="12.8" y="115.19" width="12.09" height="12.09"/><rect class="cls-1" x="25.59" y="115.21" width="12.09" height="12.09"/><rect class="cls-1" y="115.19" width="12.09" height="12.09"/><rect class="cls-1" x="115.17" y="128.15" width="12.09" height="12.09"/><rect class="cls-1" x="127.97" y="128.17" width="12.09" height="12.09"/><rect class="cls-1" x="140.72" y="128.17" width="12.09" height="12.09"/><rect class="cls-1" x="153.5" y="128.18" width="12.09" height="12.09"/><rect class="cls-1" x="115.17" y="140.9" width="12.09" height="12.09"/><rect class="cls-1" x="127.97" y="140.91" width="12.09" height="12.09"/><rect class="cls-1" x="140.72" y="140.92" width="12.09" height="12.09"/><rect class="cls-1" x="153.5" y="140.92" width="12.09" height="12.09"/><rect class="cls-1" x="115.17" y="153.7" width="12.09" height="12.09"/><rect class="cls-1" x="127.97" y="153.71" width="12.09" height="12.09"/><rect class="cls-1" x="140.72" y="153.71" width="12.09" height="12.09"/><rect class="cls-1" x="153.5" y="153.72" width="12.09" height="12.09"/><rect class="cls-1" x="115.17" y="166.49" width="12.09" height="12.09"/><rect class="cls-1" x="127.97" y="166.5" width="12.09" height="12.09"/><rect class="cls-1" x="140.72" y="166.5" width="12.09" height="12.09"/><rect class="cls-1" x="153.5" y="166.51" width="12.09" height="12.09"/><circle class="cls-2" cx="121.14" cy="134.21" r="3.83"/><circle class="cls-2" cx="133.94" cy="134.23" r="3.83"/><circle class="cls-2" cx="146.89" cy="134.23" r="3.83"/><circle class="cls-2" cx="159.53" cy="134.2" r="3.83"/><circle class="cls-2" cx="121.14" cy="147.1" r="3.83"/><circle class="cls-2" cx="133.94" cy="147.12" r="3.83"/><circle class="cls-2" cx="146.89" cy="147.12" r="3.83"/><circle class="cls-2" cx="159.53" cy="147.09" r="3.83"/><circle class="cls-2" cx="121.14" cy="159.79" r="3.83"/><circle class="cls-2" cx="133.94" cy="159.74" r="3.83"/><circle class="cls-2" cx="146.89" cy="159.81" r="3.83"/><circle class="cls-2" cx="159.53" cy="159.78" r="3.83"/><circle class="cls-2" cx="121.14" cy="172.67" r="3.83"/><circle class="cls-2" cx="133.94" cy="172.94" r="3.83"/><circle class="cls-2" cx="146.89" cy="172.69" r="3.83"/><circle class="cls-2" cx="159.53" cy="172.66" r="3.83"/><rect class="cls-1" x="89.58" y="128.13" width="12.09" height="12.09"/><rect class="cls-1" x="102.38" y="128.14" width="12.09" height="12.09"/><rect class="cls-1" x="89.58" y="140.87" width="12.09" height="12.09"/><rect class="cls-1" x="102.38" y="140.88" width="12.09" height="12.09"/><rect class="cls-1" x="89.58" y="153.67" width="12.09" height="12.09"/><rect class="cls-1" x="102.38" y="153.68" width="12.09" height="12.09"/><rect class="cls-1" x="89.58" y="166.46" width="12.09" height="12.09"/><rect class="cls-1" x="102.38" y="166.47" width="12.09" height="12.09"/><circle class="cls-2" cx="95.55" cy="134.18" r="3.83"/><circle class="cls-2" cx="108.34" cy="134.2" r="3.83"/><circle class="cls-2" cx="95.55" cy="147.07" r="3.83"/><circle class="cls-2" cx="108.34" cy="147.09" r="3.83"/><circle class="cls-2" cx="95.55" cy="159.76" r="3.83"/><circle class="cls-2" cx="108.34" cy="159.72" r="3.83"/><circle class="cls-2" cx="95.55" cy="172.65" r="3.83"/><circle class="cls-2" cx="108.34" cy="172.92" r="3.83"/><rect class="cls-1" x="63.99" y="128.1" width="12.09" height="12.09"/><rect class="cls-1" x="76.78" y="128.11" width="12.09" height="12.09"/><rect class="cls-1" x="63.99" y="140.84" width="12.09" height="12.09"/><rect class="cls-1" x="76.78" y="140.86" width="12.09" height="12.09"/><rect class="cls-1" x="63.99" y="153.64" width="12.09" height="12.09"/><rect class="cls-1" x="76.78" y="153.66" width="12.09" height="12.09"/><rect class="cls-1" x="63.99" y="166.43" width="12.09" height="12.09"/><rect class="cls-1" x="76.78" y="166.44" width="12.09" height="12.09"/><circle class="cls-2" cx="69.95" cy="134.15" r="3.83"/><circle class="cls-2" cx="82.75" cy="134.17" r="3.83"/><circle class="cls-2" cx="69.95" cy="147.04" r="3.83"/><circle class="cls-2" cx="82.75" cy="147.06" r="3.83"/><circle class="cls-2" cx="69.95" cy="159.73" r="3.83"/><circle class="cls-2" cx="82.75" cy="159.69" r="3.83"/><circle class="cls-2" cx="69.95" cy="172.62" r="3.83"/><circle class="cls-2" cx="82.75" cy="172.89" r="3.83"/><rect class="cls-1" x="38.39" y="128.07" width="12.09" height="12.09"/><rect class="cls-1" x="51.19" y="128.08" width="12.09" height="12.09"/><rect class="cls-1" x="38.39" y="140.81" width="12.09" height="12.09"/><rect class="cls-1" x="51.19" y="140.83" width="12.09" height="12.09"/><rect class="cls-1" x="38.39" y="153.61" width="12.09" height="12.09"/><rect class="cls-1" x="51.19" y="153.63" width="12.09" height="12.09"/><rect class="cls-1" x="38.39" y="166.4" width="12.09" height="12.09"/><rect class="cls-1" x="51.19" y="166.42" width="12.09" height="12.09"/><circle class="cls-2" cx="57.16" cy="134.14" r="3.83"/><circle class="cls-2" cx="57.16" cy="147.03" r="3.83"/><circle class="cls-2" cx="57.16" cy="159.66" r="3.83"/><circle class="cls-2" cx="57.16" cy="172.86" r="3.83"/><rect class="cls-1" x="12.8" y="128.06" width="12.09" height="12.09"/><rect class="cls-1" x="25.59" y="128.07" width="12.09" height="12.09"/><rect class="cls-1" x="12.8" y="140.8" width="12.09" height="12.09"/><rect class="cls-1" x="25.59" y="140.81" width="12.09" height="12.09"/><rect class="cls-1" x="12.8" y="153.6" width="12.09" height="12.09"/><rect class="cls-1" x="25.59" y="153.61" width="12.09" height="12.09"/><rect class="cls-1" x="12.8" y="166.39" width="12.09" height="12.09"/><rect class="cls-1" x="25.59" y="166.4" width="12.09" height="12.09"/><circle class="cls-3" cx="146.97" cy="6.12" r="3.83"/><circle class="cls-3" cx="133.94" cy="18.93" r="3.83"/><circle class="cls-3" cx="146.89" cy="18.93" r="3.83"/><circle class="cls-3" cx="121.15" cy="31.8" r="3.83"/><circle class="cls-3" cx="133.94" cy="31.82" r="3.83"/><circle class="cls-3" cx="108.35" cy="31.79" r="3.83"/><circle class="cls-3" cx="95.55" cy="44.46" r="3.83"/><circle class="cls-3" cx="108.35" cy="44.42" r="3.83"/><circle class="cls-3" cx="69.96" cy="18.86" r="3.83"/><circle class="cls-3" cx="69.96" cy="31.75" r="3.83"/><circle class="cls-3" cx="82.76" cy="31.76" r="3.83"/><circle class="cls-3" cx="82.76" cy="44.39" r="3.83"/><circle class="cls-3" cx="44.36" cy="18.83" r="3.83"/><circle class="cls-3" cx="57.16" cy="18.85" r="3.83"/><circle class="cls-3" cx="31.57" cy="18.84" r="3.83"/><circle class="cls-3" cx="18.77" cy="31.7" r="3.83"/><circle class="cls-3" cx="31.57" cy="31.72" r="3.83"/><circle class="cls-3" cx="5.97" cy="31.7" r="3.83"/><circle class="cls-3" cx="5.97" cy="44.4" r="3.83"/><circle class="cls-3" cx="5.97" cy="57.28" r="3.83"/><circle class="cls-3" cx="18.77" cy="70.01" r="3.83"/><circle class="cls-3" cx="18.77" cy="82.9" r="3.83"/><circle class="cls-3" cx="18.77" cy="95.59" r="3.83"/><circle class="cls-3" cx="18.77" cy="108.48" r="3.83"/><circle class="cls-3" cx="5.97" cy="70.01" r="3.83"/><circle class="cls-3" cx="18.77" cy="121.38" r="3.83"/><circle class="cls-3" cx="18.77" cy="134.11" r="3.83"/><circle class="cls-3" cx="18.77" cy="147" r="3.83"/><circle class="cls-3" cx="18.77" cy="159.69" r="3.83"/><rect class="cls-1" y="128.06" width="12.09" height="12.09"/><rect class="cls-1" y="140.8" width="12.09" height="12.09"/><rect class="cls-1" y="153.6" width="12.09" height="12.09"/><rect class="cls-1" y="166.39" width="12.09" height="12.09"/><circle class="cls-2" cx="134.02" cy="6.12" r="3.83"/><circle class="cls-2" cx="121.15" cy="18.92" r="3.83"/><circle class="cls-2" cx="159.53" cy="18.9" r="3.83"/><circle class="cls-2" cx="146.89" cy="31.82" r="3.83"/><circle class="cls-2" cx="121.15" cy="44.49" r="3.83"/><circle class="cls-2" cx="133.94" cy="44.45" r="3.83"/><circle class="cls-2" cx="121.15" cy="57.38" r="3.83"/><circle class="cls-2" cx="95.55" cy="18.89" r="3.83"/><circle class="cls-2" cx="108.35" cy="18.91" r="3.83"/><circle class="cls-2" cx="95.55" cy="31.77" r="3.83"/><circle class="cls-2" cx="70.03" cy="6.05" r="3.83"/><circle class="cls-2" cx="82.83" cy="6.07" r="3.83"/><circle class="cls-2" cx="82.76" cy="18.88" r="3.83"/><circle class="cls-2" cx="69.96" cy="44.44" r="3.83"/><circle class="cls-2" cx="44.44" cy="6.02" r="3.83"/><circle class="cls-2" cx="57.24" cy="6.04" r="3.83"/><circle class="cls-2" cx="44.36" cy="31.72" r="3.83"/><circle class="cls-2" cx="57.16" cy="31.74" r="3.83"/><circle class="cls-2" cx="44.36" cy="44.41" r="3.83"/><circle class="cls-2" cx="57.16" cy="44.36" r="3.83"/><circle class="cls-2" cx="31.64" cy="6.03" r="3.83"/><circle class="cls-2" cx="18.77" cy="18.82" r="3.83"/><circle class="cls-2" cx="18.77" cy="44.4" r="3.83"/><circle class="cls-2" cx="31.57" cy="44.35" r="3.83"/><circle class="cls-2" cx="18.77" cy="57.28" r="3.83"/><circle class="cls-2" cx="31.57" cy="57.55" r="3.83"/><circle class="cls-2" cx="5.97" cy="18.82" r="3.83"/><circle class="cls-2" cx="31.57" cy="70.03" r="3.83"/><circle class="cls-2" cx="31.57" cy="82.92" r="3.83"/><circle class="cls-2" cx="31.57" cy="95.55" r="3.83"/><circle class="cls-2" cx="31.57" cy="108.75" r="3.83"/><circle class="cls-2" cx="5.97" cy="82.9" r="3.83"/><circle class="cls-2" cx="5.97" cy="95.59" r="3.83"/><circle class="cls-2" cx="5.97" cy="108.48" r="3.83"/><circle class="cls-2" cx="31.56" cy="121.65" r="3.83"/><circle class="cls-2" cx="5.97" cy="121.38" r="3.83"/><circle class="cls-2" cx="31.56" cy="134.13" r="3.83"/><circle class="cls-2" cx="31.56" cy="147.02" r="3.83"/><circle class="cls-2" cx="31.56" cy="159.65" r="3.83"/><circle class="cls-2" cx="18.77" cy="172.58" r="3.83"/><circle class="cls-2" cx="5.97" cy="134.11" r="3.83"/><circle class="cls-2" cx="5.97" cy="147" r="3.83"/><circle class="cls-2" cx="5.97" cy="159.69" r="3.83"/><circle class="cls-2" cx="121.22" cy="6.1" r="3.83"/><circle class="cls-2" cx="159.53" cy="31.79" r="3.83"/><circle class="cls-2" cx="146.89" cy="44.51" r="3.83"/><circle class="cls-2" cx="159.53" cy="44.48" r="3.83"/><circle class="cls-2" cx="133.94" cy="57.65" r="3.83"/><circle class="cls-2" cx="146.89" cy="57.4" r="3.83"/><circle class="cls-2" cx="95.63" cy="6.08" r="3.83"/><circle class="cls-2" cx="108.43" cy="6.09" r="3.83"/><circle class="cls-2" cx="44.36" cy="57.29" r="3.83"/><circle class="cls-2" cx="57.16" cy="57.57" r="3.83"/><circle class="cls-2" cx="18.85" cy="6.01" r="3.83"/><circle class="cls-2" cx="6.05" cy="6.01" r="3.83"/><circle class="cls-2" cx="95.55" cy="70.08" r="3.83"/><circle class="cls-2" cx="82.75" cy="70.07" r="3.83"/><circle class="cls-2" cx="44.36" cy="70.03" r="3.83"/><circle class="cls-4" cx="133.94" cy="83.02" r="3.83"/><circle class="cls-4" cx="146.89" cy="83.02" r="3.83"/><circle class="cls-4" cx="159.53" cy="82.99" r="3.83"/><circle class="cls-4" cx="95.55" cy="57.35" r="3.83"/><circle class="cls-4" cx="108.35" cy="57.62" r="3.83"/><circle class="cls-4" cx="69.96" cy="57.32" r="3.83"/><circle class="cls-4" cx="82.76" cy="57.59" r="3.83"/><circle class="cls-4" cx="121.15" cy="70.11" r="3.83"/><circle class="cls-4" cx="133.94" cy="70.13" r="3.83"/><circle class="cls-4" cx="108.35" cy="70.1" r="3.83"/><circle class="cls-4" cx="69.96" cy="70.06" r="3.83"/><circle class="cls-4" cx="57.16" cy="70.05" r="3.83"/><circle class="cls-4" cx="44.36" cy="82.91" r="3.83"/><circle class="cls-4" cx="57.16" cy="82.93" r="3.83"/><circle class="cls-4" cx="44.36" cy="95.6" r="3.83"/><circle class="cls-2" cx="44.36" cy="108.49" r="3.83"/><circle class="cls-2" cx="44.36" cy="121.39" r="3.83"/><circle class="cls-2" cx="44.36" cy="134.13" r="3.83"/><circle class="cls-2" cx="44.36" cy="147.01" r="3.83"/><circle class="cls-2" cx="44.36" cy="159.7" r="3.83"/><circle class="cls-2" cx="44.36" cy="172.59" r="3.83"/><circle class="cls-2" cx="31.56" cy="172.85" r="3.83"/><circle class="cls-2" cx="5.97" cy="172.58" r="3.83"/><polyline class="cls-5" points="18.77 159.69 18.77 70.01 5.97 70.01 5.97 31.7 31.57 31.7 31.57 18.84 69.96 18.84 69.96 31.75 82.75 31.75 82.75 44.39 95.55 44.39 108.35 44.39 108.35 31.79 133.94 31.79 133.94 18.93 146.89 18.93 146.89 6.12 159.53 6.12"/><rect class="cls-6" x="154.38" y="0.95" width="10.33" height="10.33"/><text class="cls-7" transform="translate(155.77 7.35)">+1</text><line class="cls-8" x1="166.58" y1="50.9" x2="25.6" y2="50.78"/><polyline class="cls-9" points="44.36 95.6 44.36 82.91 57.16 82.93 57.16 70.05 69.96 70.06 69.96 57.32 82.75 57.59 95.55 57.35 108.35 57.62 108.35 70.1 121.15 70.11 133.94 70.13 133.94 83.02 146.89 83.02 159.53 83.02 172.51 83.02"/><rect class="cls-4" x="166.57" y="0.06" width="11.88" height="178.42"/><text class="cls-7" transform="translate(167.74 84.44)">-2</text></svg>