<svg id="Layer_1" data-name="Layer 1" xmlns="http://www.w3.org/2000/svg" viewBox="0 0 259.77 136.4"><defs><style>.cls-1{fill:#e7ebe8;}.cls-2{fill:#b2b3c3;}.cls-3{fill:#808285;}.cls-4{fill:#cac9cc;}.cls-5{fill:#d1d3d4;opacity:0.6;}.cls-6{fill:#fff;}.cls-7,.cls-9{fill:none;stroke:#f7941d;stroke-linejoin:round;stroke-width:1.2px;}.cls-7{stroke-linecap:square;}.cls-8{fill:#f7941d;}</style></defs><title>better-qfunc-intro</title><rect class="cls-1" x="0.26" y="19.23" width="25.45" height="25.45"/><polygon class="cls-2" points="3.61 31.95 6.24 37.24 6.24 26.66 3.61 31.95"/><polygon class="cls-2" points="12.96 41.4 18.25 38.76 7.67 38.76 12.96 41.4"/><polygon class="cls-2" points="22.36 31.96 19.72 26.67 19.72 37.25 22.36 31.96"/><polygon class="cls-2" points="12.96 22.57 7.67 25.2 18.25 25.2 12.96 22.57"/><rect class="cls-1" x="27.09" y="19.24" width="25.45" height="25.45"/><polygon class="cls-2" points="30.44 31.96 33.07 37.25 33.07 26.67 30.44 31.96"/><polygon class="cls-2" points="39.79 41.4 45.08 38.77 34.5 38.77 39.79 41.4"/><polygon class="cls-2" points="49.19 31.97 46.55 26.68 46.55 37.26 49.19 31.97"/><polygon class="cls-2" points="39.79 22.57 34.5 25.21 45.08 25.21 39.79 22.57"/><rect class="cls-1" x="53.99" y="19.25" width="25.45" height="25.45"/><polygon class="cls-2" points="57.34 31.97 59.98 37.26 59.98 26.68 57.34 31.97"/><polygon class="cls-2" points="66.69 41.41 71.98 38.78 61.4 38.78 66.69 41.41"/><polygon class="cls-2" points="76.09 31.98 73.46 26.69 73.46 37.27 76.09 31.98"/><polygon class="cls-2" points="66.69 22.59 61.4 25.22 71.98 25.22 66.69 22.59"/><rect class="cls-1" x="0.26" y="46.06" width="25.45" height="25.45"/><polygon class="cls-2" points="3.61 58.78 6.24 64.07 6.24 53.49 3.61 58.78"/><polygon class="cls-2" points="12.96 68.22 18.25 65.59 7.67 65.59 12.96 68.22"/><polygon class="cls-2" points="22.36 58.79 19.72 53.5 19.72 64.08 22.36 58.79"/><polygon class="cls-2" points="12.96 49.4 7.67 52.03 18.25 52.03 12.96 49.4"/><rect class="cls-1" x="53.99" y="46.08" width="25.45" height="25.45"/><polygon class="cls-2" points="57.34 58.8 59.98 64.09 59.98 53.51 57.34 58.8"/><polygon class="cls-2" points="66.69 68.24 71.98 65.61 61.4 65.61 66.69 68.24"/><polygon class="cls-2" points="76.09 58.8 73.46 53.52 73.46 64.1 76.09 58.8"/><polygon class="cls-2" points="66.69 49.41 61.4 52.05 71.98 52.05 66.69 49.41"/><rect class="cls-1" x="0.26" y="73" width="25.45" height="25.45"/><polygon class="cls-2" points="3.61 85.73 6.24 91.02 6.24 80.44 3.61 85.73"/><polygon class="cls-2" points="12.96 95.17 18.25 92.53 7.67 92.53 12.96 95.17"/><polygon class="cls-2" points="22.36 85.73 19.72 80.44 19.72 91.03 22.36 85.73"/><polygon class="cls-2" points="12.96 76.34 7.67 78.98 18.25 78.98 12.96 76.34"/><rect class="cls-1" x="27.09" y="73.01" width="25.45" height="25.45"/><polygon class="cls-2" points="30.44 85.73 33.07 91.02 33.07 80.44 30.44 85.73"/><polygon class="cls-2" points="39.79 95.17 45.08 92.54 34.5 92.54 39.79 95.17"/><polygon class="cls-2" points="49.19 85.74 46.55 80.45 46.55 91.03 49.19 85.74"/><polygon class="cls-2" points="39.79 76.35 34.5 78.98 45.08 78.98 39.79 76.35"/><rect class="cls-1" x="53.99" y="73.02" width="25.45" height="25.45"/><polygon class="cls-2" points="57.34 85.74 59.98 91.03 59.98 80.45 57.34 85.74"/><polygon class="cls-2" points="66.69 95.19 71.98 92.55 61.4 92.55 66.69 95.19"/><polygon class="cls-2" points="76.09 85.75 73.46 80.46 73.46 91.04 76.09 85.75"/><polygon class="cls-2" points="66.69 76.36 61.4 78.99 71.98 78.99 66.69 76.36"/><path id="MJMATHI-51" class="cls-3" d="M6,13.35c0-.35,0-.62,0-.8a1.61,1.61,0,0,1,0-.3v-.06l-.24.06a5.65,5.65,0,0,1-1.34.17,4,4,0,0,1-2.62-.9A4.06,4.06,0,0,1,.46,8.88c0-.09,0-.32,0-.69A6.6,6.6,0,0,1,1.21,5.1,8.93,8.93,0,0,1,3.26,2.51a6.24,6.24,0,0,1,4-1.64c.41,0,.66,0,.77,0a3.77,3.77,0,0,1,2.48,1.37,4.51,4.51,0,0,1,1,2.89,7.25,7.25,0,0,1-2.36,5.22A7.62,7.62,0,0,1,7,11.82L6.72,12V12s0,.15.07.43a1.3,1.3,0,0,0,.34.66,1,1,0,0,0,.73.26A1.89,1.89,0,0,0,8.93,13a1.64,1.64,0,0,0,.67-.91c.06-.15.13-.22.2-.22A.17.17,0,0,1,10,12a2.74,2.74,0,0,1-.16.58q-.16.44-.45,1.05a2.72,2.72,0,0,1-.86,1,2.12,2.12,0,0,1-1.21.46c-.87,0-1.3-.57-1.3-1.7ZM9.77,4.63A4.39,4.39,0,0,0,9.53,3.1a2.15,2.15,0,0,0-.65-1,3.85,3.85,0,0,0-.8-.48,2.24,2.24,0,0,0-.84-.16,3.54,3.54,0,0,0-1.56.4,5.74,5.74,0,0,0-2.61,2.8,8.94,8.94,0,0,0-1,4,3.32,3.32,0,0,0,.86,2.5c.26.22.41.33.47.33v-.13a1.69,1.69,0,0,1,.52-1.18,1.72,1.72,0,0,1,1.24-.55,1.38,1.38,0,0,1,.69.17,1.17,1.17,0,0,1,.43.48,3.78,3.78,0,0,1,.19.51l.09.43.21-.14A5.81,5.81,0,0,0,8.51,9.13a8.69,8.69,0,0,0,1-2.37A9.27,9.27,0,0,0,9.77,4.63ZM4.65,11.79a3.08,3.08,0,0,0,1.43-.34l0-.16c0-.58-.24-.93-.59-1l-.3,0H5a1,1,0,0,0-.65.31,1.08,1.08,0,0,0-.35.74C4,11.61,4.22,11.79,4.65,11.79Z"/><path id="MJMAIN-28" class="cls-3" d="M13.73,8.1A13.85,13.85,0,0,1,13.89,6a14.86,14.86,0,0,1,.37-1.7,6.52,6.52,0,0,1,.59-1.4c.25-.46.45-.81.6-1.07A4.1,4.1,0,0,1,16.12,1a7.17,7.17,0,0,0,.52-.55A4.57,4.57,0,0,1,17,.14h.27c.15,0,.23,0,.23.14s-.09.15-.28.34a7.88,7.88,0,0,0-.65.84,12.36,12.36,0,0,0-.78,1.37A9.19,9.19,0,0,0,15.16,5a16,16,0,0,0-.27,3.07,15.8,15.8,0,0,0,.27,3.05,10,10,0,0,0,.66,2.21,6.54,6.54,0,0,0,.78,1.37q.39.52.66.84a3.78,3.78,0,0,1,.28.34c0,.09-.08.14-.24.14H17l-.44-.38a7.79,7.79,0,0,1-2.18-3.37A12.93,12.93,0,0,1,13.73,8.1Z"/><path id="MJMATHI-73" class="cls-3" d="M20.53,7.48a2.37,2.37,0,0,1,.25-1,2.68,2.68,0,0,1,.89-1A2.55,2.55,0,0,1,23.22,5a2,2,0,0,1,1.43.43,1.41,1.41,0,0,1,.46,1,.93.93,0,0,1-.27.74,1,1,0,0,1-.61.26.62.62,0,0,1-.38-.13.52.52,0,0,1-.19-.41.77.77,0,0,1,.14-.45,1.46,1.46,0,0,1,.27-.28.38.38,0,0,1,.21-.1l0,0s0-.08-.11-.14a1.18,1.18,0,0,0-.4-.17,2.44,2.44,0,0,0-.62-.1,1.33,1.33,0,0,0-1.48,1.26.56.56,0,0,0,.3.55,3,3,0,0,0,.88.27,4,4,0,0,1,.82.24,1.58,1.58,0,0,1,1,1.53,2.55,2.55,0,0,1-.17.89,3.32,3.32,0,0,1-.53.89,2.22,2.22,0,0,1-1,.7,4.27,4.27,0,0,1-1.5.27,2.56,2.56,0,0,1-1.73-.46,1.47,1.47,0,0,1-.52-1.08,1,1,0,0,1,1-1.16.82.82,0,0,1,.45.14.62.62,0,0,1,.22.49,1,1,0,0,1-.29.71.76.76,0,0,1-.49.28l-.05,0s0,0,0,0a.76.76,0,0,0,.13.13,2.33,2.33,0,0,0,.5.2,2.17,2.17,0,0,0,.87.11,2.5,2.5,0,0,0,1-.17,1.44,1.44,0,0,0,.6-.45,1.87,1.87,0,0,0,.27-.49,1.05,1.05,0,0,0,.08-.4.77.77,0,0,0-.33-.67,2,2,0,0,0-.77-.27A4.26,4.26,0,0,1,21.54,9a1.54,1.54,0,0,1-.74-.56A1.61,1.61,0,0,1,20.53,7.48Z"/><path id="MJMAIN-2C" class="cls-3" d="M27.15,11.52v-.4a1,1,0,0,1,.25-.68.84.84,0,0,1,.68-.29,1,1,0,0,1,.8.4,2.2,2.2,0,0,1,.37,1.4A3.91,3.91,0,0,1,29.1,13a4.57,4.57,0,0,1-.33.91,4.29,4.29,0,0,1-.41.65c-.15.18-.28.32-.39.43s-.17.15-.2.14-.11-.05-.21-.14-.14-.17-.14-.21,0-.13.17-.25.25-.29.4-.48a2.82,2.82,0,0,0,.41-.8,4.3,4.3,0,0,0,.26-1.16v-.19l0,0-.08,0-.09,0a.31.31,0,0,1-.15,0h-.19a1,1,0,0,1-.7-.27Z"/><path id="MJMATHI-61" class="cls-3" d="M33.51,9.58a4.69,4.69,0,0,1,1.21-3.06,3.57,3.57,0,0,1,2.72-1.46,1.8,1.8,0,0,1,1.43.78.8.8,0,0,1,.73-.48.56.56,0,0,1,.37.13.38.38,0,0,1,.16.32c0,.13-.2,1-.59,2.54S39,10.79,38.94,11a.83.83,0,0,0,.11.53.46.46,0,0,0,.33.14.73.73,0,0,0,.32-.14A3.6,3.6,0,0,0,40.35,10c.07-.21.12-.32.16-.33l.16,0h.06c.21,0,.31,0,.31.14a2.73,2.73,0,0,1-.08.43,5.34,5.34,0,0,1-.32.86,2.76,2.76,0,0,1-.51.8,1.5,1.5,0,0,1-.51.33,1.74,1.74,0,0,1-.38,0,1.65,1.65,0,0,1-.91-.24,1.23,1.23,0,0,1-.48-.49l-.09-.24s0,0-.06,0l-.07.06a2.75,2.75,0,0,1-1.91.89,2.17,2.17,0,0,1-1.54-.63A2.67,2.67,0,0,1,33.51,9.58Zm5.06-2.72a1.44,1.44,0,0,0-.08-.35A1.46,1.46,0,0,0,38.13,6a1.05,1.05,0,0,0-.74-.32,1.51,1.51,0,0,0-1.06.49,3.34,3.34,0,0,0-.8,1.29A12.78,12.78,0,0,0,34.88,10v.18a.84.84,0,0,1,0,.19,1.32,1.32,0,0,0,.29,1,1,1,0,0,0,.68.29,1.81,1.81,0,0,0,1.2-.52,2.82,2.82,0,0,0,.7-.82s.16-.61.43-1.7S38.56,6.94,38.57,6.86Z"/><path id="MJMAIN-29" class="cls-3" d="M42.37.16l.07,0h.35l.44.38A7.77,7.77,0,0,1,45.41,3.9a12.84,12.84,0,0,1,.69,4.2,14,14,0,0,1-.16,2.08,13.55,13.55,0,0,1-.37,1.7,6.74,6.74,0,0,1-.59,1.4c-.25.47-.45.83-.6,1.07a5.6,5.6,0,0,1-.65.81l-.51.53-.37.3-.06.06h-.37a.08.08,0,0,1-.08-.05.38.38,0,0,1-.05-.14l.18-.21c1.64-1.7,2.47-4.22,2.47-7.55S44.11,2.25,42.47.54L42.29.33A.19.19,0,0,1,42.37.16Z"/><path id="MJMATHI-56" class="cls-3" d="M179.05,1.94a.75.75,0,0,1,.21-.56h.17c.45,0,1,.05,1.67.05,1.25,0,2,0,2.21-.05h.16c.07.06.1.11.1.14s0,.13,0,.29a.8.8,0,0,1-.15.3h-.33l-.48,0q-.47.09-.51.24s.16,1.35.46,4,.47,4,.48,4l1.16-1.86c.78-1.24,1.55-2.5,2.33-3.76l1.19-1.95a.53.53,0,0,0,.06-.24c0-.26-.23-.41-.7-.45-.19,0-.28-.06-.28-.17s0-.08,0-.21a1,1,0,0,1,.09-.29.28.28,0,0,1,.21-.06h.73c.26,0,.6,0,1,0,.73,0,1.19,0,1.39,0h.11a.31.31,0,0,1,.11.17,1,1,0,0,1-.15.51s-.12,0-.27,0l-.38,0a1.23,1.23,0,0,0-.33.08l-.26.11-.19.13a.66.66,0,0,1-.16.11.32.32,0,0,0-.12.15c0,.07-.08.11-.11.11l-3.08,4.93c-1.91,3.09-2.89,4.67-3,4.74l-.11.08-.28,0H182c-.2,0-.29,0-.29-.11s-.24-1.77-.62-5.1-.61-5.07-.62-5.1-.38-.18-1-.18h-.27A.22.22,0,0,1,179.05,1.94Z"/><path id="MJMAIN-28-2" data-name="MJMAIN-28" class="cls-3" d="M192,8.27a14,14,0,0,1,.16-2.09,15.35,15.35,0,0,1,.37-1.7,6.52,6.52,0,0,1,.59-1.4c.25-.45.45-.81.6-1.06a4.13,4.13,0,0,1,.67-.83l.53-.54a2.24,2.24,0,0,1,.39-.34h.27c.15,0,.23,0,.23.15a1.33,1.33,0,0,1-.27.33,7.74,7.74,0,0,0-.66.84A12.36,12.36,0,0,0,194.05,3a9.23,9.23,0,0,0-.66,2.2,16,16,0,0,0-.27,3.07,15.8,15.8,0,0,0,.27,3.05,10.11,10.11,0,0,0,.65,2.22,6.7,6.7,0,0,0,.78,1.36c.26.35.49.64.67.85l.27.33c0,.1-.08.14-.24.14h-.26l-.44-.38a7.73,7.73,0,0,1-2.18-3.37A12.93,12.93,0,0,1,192,8.27Z"/><path id="MJMATHI-73-2" data-name="MJMATHI-73" class="cls-3" d="M198.75,7.65a2.37,2.37,0,0,1,.25-1,2.68,2.68,0,0,1,.89-1,2.62,2.62,0,0,1,1.55-.43,2,2,0,0,1,1.43.43,1.36,1.36,0,0,1,.46,1,1,1,0,0,1-.27.75.94.94,0,0,1-.6.25.63.63,0,0,1-.39-.13.52.52,0,0,1-.19-.41.72.72,0,0,1,.15-.45,1.21,1.21,0,0,1,.27-.28.34.34,0,0,1,.2-.1s0,0,0,0,0-.08-.11-.15a1.18,1.18,0,0,0-.4-.17,2.44,2.44,0,0,0-.62-.1,1.36,1.36,0,0,0-1.11.42,1.32,1.32,0,0,0-.37.84.59.59,0,0,0,.3.56,3.87,3.87,0,0,0,.88.27,3,3,0,0,1,.82.24A1.56,1.56,0,0,1,203,9.65a2.31,2.31,0,0,1-.17.89,3.53,3.53,0,0,1-.53.9,2.3,2.3,0,0,1-1,.7,4.26,4.26,0,0,1-1.49.27,2.57,2.57,0,0,1-1.74-.47,1.44,1.44,0,0,1-.52-1.08,1,1,0,0,1,1-1.16.82.82,0,0,1,.45.14.62.62,0,0,1,.22.5,1,1,0,0,1-.29.7.76.76,0,0,1-.49.28l-.05,0s0,0,0,0a.33.33,0,0,0,.12.13,2.81,2.81,0,0,0,.5.21,2.59,2.59,0,0,0,.87.11,2.5,2.5,0,0,0,1-.18,1.29,1.29,0,0,0,.6-.44,1.91,1.91,0,0,0,.27-.5,1,1,0,0,0,.08-.39.75.75,0,0,0-.33-.67,1.65,1.65,0,0,0-.76-.27,4.19,4.19,0,0,1-.94-.24,1.47,1.47,0,0,1-.75-.56A1.58,1.58,0,0,1,198.75,7.65Z"/><path id="MJMAIN-29-2" data-name="MJMAIN-29" class="cls-3" d="M205.08.33l.06,0h.35l.45.38a7.92,7.92,0,0,1,2.18,3.38,12.92,12.92,0,0,1,.68,4.2,14,14,0,0,1-.15,2.08,14.17,14.17,0,0,1-.37,1.71,7.23,7.23,0,0,1-.59,1.4c-.25.46-.46.82-.6,1.06a4.35,4.35,0,0,1-.66.81c-.28.3-.45.48-.51.53l-.36.3-.07.06h-.36a.09.09,0,0,1-.08,0A.37.37,0,0,1,205,16l.18-.2q2.46-2.57,2.46-7.56T205.18.71L205,.5A.19.19,0,0,1,205.08.33Z"/><path id="MJMATHI-56-2" data-name="MJMATHI-56" class="cls-3" d="M50.13,110.57a.69.69,0,0,1,.19-.51h.16c.41,0,.93,0,1.54,0,1.16,0,1.84,0,2,0h.15c.06.06.09.1.09.13s0,.12,0,.27a.92.92,0,0,1-.13.28h-.31l-.44,0c-.28,0-.44.13-.47.22s.14,1.25.43,3.69.43,3.66.44,3.68l1.07-1.71c.71-1.15,1.43-2.3,2.14-3.47l1.1-1.8a.46.46,0,0,0,.06-.22c0-.24-.22-.38-.65-.41-.17,0-.26-.06-.26-.17l0-.19a.82.82,0,0,1,.09-.26s.09-.06.19-.06h.67l.94,0c.68,0,1.1,0,1.28,0h.1c.07.07.11.12.11.16a.89.89,0,0,1-.14.47.4.4,0,0,1-.25,0l-.35,0a1.09,1.09,0,0,0-.31.08l-.23.1a.94.94,0,0,0-.18.12l-.14.1a.31.31,0,0,0-.12.13c0,.07-.08.11-.1.11L56,116q-2.64,4.26-2.73,4.37l-.1.07-.26,0H52.8c-.17,0-.26,0-.26-.1s-.22-1.63-.57-4.7-.57-4.68-.58-4.71-.35-.16-.91-.16h-.25A.21.21,0,0,1,50.13,110.57Z"/><path id="MJMAIN-28-3" data-name="MJMAIN-28" class="cls-3" d="M62,116.42a11.92,11.92,0,0,1,.14-1.93,13.56,13.56,0,0,1,.34-1.57,6.54,6.54,0,0,1,.54-1.29c.24-.42.42-.75.56-1a3.86,3.86,0,0,1,.62-.77c.27-.27.43-.44.48-.5a2.86,2.86,0,0,1,.37-.3h.25c.14,0,.2,0,.2.13s-.08.13-.25.31a7.53,7.53,0,0,0-.6.77,12.5,12.5,0,0,0-.72,1.27,8.28,8.28,0,0,0-.61,2,14.57,14.57,0,0,0-.25,2.84,14.25,14.25,0,0,0,.25,2.81,8.66,8.66,0,0,0,.6,2,6.37,6.37,0,0,0,.72,1.27c.24.32.45.58.61.78a2.57,2.57,0,0,1,.25.3c0,.09-.07.14-.22.14h-.23l-.41-.36a7.23,7.23,0,0,1-2-3.11A12,12,0,0,1,62,116.42Z"/><path id="MJMATHI-73-3" data-name="MJMATHI-73" class="cls-3" d="M68.3,115.84a2.12,2.12,0,0,1,.24-1,2.44,2.44,0,0,1,.82-.9,2.37,2.37,0,0,1,1.42-.39,1.9,1.9,0,0,1,1.33.39,1.28,1.28,0,0,1,.42.88.84.84,0,0,1-.25.69.86.86,0,0,1-.56.24.59.59,0,0,1-.35-.12.43.43,0,0,1-.17-.38.65.65,0,0,1,.13-.41,1,1,0,0,1,.25-.26.35.35,0,0,1,.19-.09s0,0,0,0,0-.07-.1-.13a1,1,0,0,0-.37-.16,2.43,2.43,0,0,0-.57-.09,1.3,1.3,0,0,0-1,.38,1.34,1.34,0,0,0-.34.78.52.52,0,0,0,.28.51,2.78,2.78,0,0,0,.81.25,3.64,3.64,0,0,1,.76.22,1.46,1.46,0,0,1,1,1.41,2.22,2.22,0,0,1-.16.83,3.71,3.71,0,0,1-.48.82,2.15,2.15,0,0,1-.93.64,3.9,3.9,0,0,1-1.38.25,2.42,2.42,0,0,1-1.6-.42,1.38,1.38,0,0,1-.48-1,1,1,0,0,1,1-1.07.67.67,0,0,1,.41.13.54.54,0,0,1,.21.45.88.88,0,0,1-.27.65.67.67,0,0,1-.45.26l0,0s0,0,0,0a.32.32,0,0,0,.12.12,2.94,2.94,0,0,0,.45.19,2.57,2.57,0,0,0,.81.1,2.28,2.28,0,0,0,.91-.16,1.32,1.32,0,0,0,.56-.41,1.93,1.93,0,0,0,.25-.46,1.09,1.09,0,0,0,.07-.37.68.68,0,0,0-.31-.61,1.51,1.51,0,0,0-.7-.25,3.58,3.58,0,0,1-.87-.22,1.38,1.38,0,0,1-.69-.52A1.49,1.49,0,0,1,68.3,115.84Z"/><path id="MJMAIN-29-3" data-name="MJMAIN-29" class="cls-3" d="M74.15,109.09h.38l.41.35a7.23,7.23,0,0,1,2,3.11,12.3,12.3,0,0,1,.48,5.8,12.46,12.46,0,0,1-.33,1.57,6.49,6.49,0,0,1-.55,1.29c-.23.43-.42.76-.55,1a4.1,4.1,0,0,1-.61.75l-.47.49-.33.28-.06.06h-.34s0,0-.07-.05a.32.32,0,0,1-.05-.13,1.77,1.77,0,0,0,.16-.19q2.28-2.37,2.28-7c0-3.08-.76-5.4-2.28-7l-.16-.19A.17.17,0,0,1,74.15,109.09Z"/><path id="MJMAIN-3D" class="cls-3" d="M83.88,115a.32.32,0,0,1,.2-.29h9.35c.15.08.22.17.22.29a.32.32,0,0,1-.2.28l-4.67,0H84.11A.3.3,0,0,1,83.88,115Zm0,2.85a.29.29,0,0,1,.23-.29h9.34a.36.36,0,0,1,.2.29.31.31,0,0,1-.22.29H84.08A.32.32,0,0,1,83.88,117.84Z"/><path id="MJSZ2-2211" class="cls-3" d="M99.45,106.17s3,0,8.88,0h8.84l.85,2c.58,1.35.89,2.07.93,2.15h-.59l-.1-.21a5.13,5.13,0,0,0-.83-1.15,6.52,6.52,0,0,0-1.63-1.13,8.18,8.18,0,0,0-2.06-.63,18.86,18.86,0,0,0-2.22-.25c-.7,0-1.59,0-2.69-.05h-6.57l.11.16q6.8,9.28,6.83,9.38a.11.11,0,0,1,0,.08l-3.88,4.44-3.87,4.4s1,0,3.1,0h3.94c1.34,0,2.41,0,3.23-.07a18.58,18.58,0,0,0,2.46-.31,7,7,0,0,0,2.07-.72,5.54,5.54,0,0,0,1.51-1.28,4.88,4.88,0,0,0,.6-1H119s0,.11-.11.3-.19.52-.36,1-.33.85-.46,1.23l-.85,2.28h-8.82q-8.84,0-8.88,0a.12.12,0,0,1-.09-.13.23.23,0,0,1,0-.09l7.82-9-.48-.66c-.33-.43-.84-1.14-1.54-2.12s-1.34-1.85-1.91-2.61l-3.91-5.36v-.22C99.38,106.32,99.4,106.2,99.45,106.17Z"/><path id="MJMATHI-69" class="cls-3" d="M109.28,129.8a.6.6,0,0,1,.2-.44.66.66,0,0,1,.46-.19.45.45,0,0,1,.31.12.49.49,0,0,1,.13.31.59.59,0,0,1-.21.44.7.7,0,0,1-.45.21.46.46,0,0,1-.29-.11A.44.44,0,0,1,109.28,129.8Zm-1.69,3.25a1.13,1.13,0,0,1,.09-.32c.07-.16.15-.34.25-.53a1.76,1.76,0,0,1,.46-.53.92.92,0,0,1,.62-.23,1,1,0,0,1,.68.24.85.85,0,0,1,.28.64,1.94,1.94,0,0,1-.15.58c-.1.27-.23.64-.41,1.09s-.33.85-.44,1.18a2,2,0,0,0,0,.33c0,.17.06.26.17.26a.69.69,0,0,0,.2,0,.83.83,0,0,0,.24-.15,1.67,1.67,0,0,0,.28-.36,3,3,0,0,0,.26-.62.46.46,0,0,1,.05-.14.53.53,0,0,1,.18,0c.14,0,.21,0,.21.1a1,1,0,0,1-.1.32,3.66,3.66,0,0,1-.26.53,1.62,1.62,0,0,1-.46.52,1.07,1.07,0,0,1-.65.23,1,1,0,0,1-.61-.22.79.79,0,0,1-.29-.66,1.14,1.14,0,0,1,0-.33l.45-1.19c.26-.7.41-1.11.45-1.25a1.56,1.56,0,0,0,.08-.41c0-.16-.06-.25-.18-.25h0a.72.72,0,0,0-.57.35,2.41,2.41,0,0,0-.39.87l0,0s0,0,0,0l0,0h-.3S107.59,133.07,107.59,133.05Z"/><path id="MJMATHI-70" class="cls-3" d="M126.23,115.87l0-.11c0-.05,0-.16.07-.33a2.64,2.64,0,0,1,.15-.45c.06-.14.13-.3.22-.49a1.46,1.46,0,0,1,.29-.44,4.26,4.26,0,0,1,.38-.32.67.67,0,0,1,.49-.13,1.33,1.33,0,0,1,1.41.94l.14-.14a2.73,2.73,0,0,1,1.73-.8,1.8,1.8,0,0,1,1.5.69,2.63,2.63,0,0,1,.54,1.67,4.46,4.46,0,0,1-1.11,2.92,3.3,3.3,0,0,1-2.53,1.35,1.7,1.7,0,0,1-.57-.09,1.22,1.22,0,0,1-.34-.22,2.32,2.32,0,0,1-.27-.25l-.11-.11s-.11.43-.32,1.27-.31,1.27-.31,1.28,0,.09.12.1l.54.05h.37c.06.07.09.11.09.13s0,.11-.05.26a.46.46,0,0,1-.09.22s-.09,0-.19.06h-.66l-.91,0c-.68,0-1.12,0-1.3,0h-.12c-.07-.07-.1-.12-.1-.16a.68.68,0,0,1,.19-.51h.29q.49,0,.57-.18t.9-3.51c.57-2.28.87-3.48.89-3.62a1.06,1.06,0,0,0,0-.21c0-.4-.12-.6-.37-.6s-.39.14-.54.41a3.72,3.72,0,0,0-.34.9,2.14,2.14,0,0,1-.17.53s-.1,0-.24,0h-.21A.24.24,0,0,1,126.23,115.87Zm2.27,2.72c.22.74.58,1.11,1.09,1.11a1.34,1.34,0,0,0,.85-.33,2.87,2.87,0,0,0,.68-.85,7.71,7.71,0,0,0,.52-1.59,8.29,8.29,0,0,0,.28-1.61v-.09c0-.73-.3-1.09-.89-1.09a1.86,1.86,0,0,0-.33,0,1.73,1.73,0,0,0-.32.14,2.08,2.08,0,0,0-.29.19l-.25.22-.22.22a1.27,1.27,0,0,0-.16.2.49.49,0,0,1-.12.15l-.05.06a1.46,1.46,0,0,1,0,.2c0,.13-.08.35-.16.65s-.15.56-.21.76C128.63,118,128.5,118.55,128.5,118.59Z"/><path id="MJMAIN-28-4" data-name="MJMAIN-28" class="cls-3" d="M134.65,116.42a11.9,11.9,0,0,1,.15-1.93,13.56,13.56,0,0,1,.34-1.57,6,6,0,0,1,.54-1.29c.24-.42.42-.75.56-1a4.16,4.16,0,0,1,.61-.77c.28-.27.44-.44.49-.5a2.86,2.86,0,0,1,.37-.3H138c.13,0,.2,0,.2.13s-.08.13-.25.31a6.34,6.34,0,0,0-.6.77,9.57,9.57,0,0,0-.72,1.27,8.7,8.7,0,0,0-.62,2,15.39,15.39,0,0,0-.25,2.84,15.06,15.06,0,0,0,.25,2.81,9.11,9.11,0,0,0,.61,2,6.93,6.93,0,0,0,.71,1.27l.62.78a2.57,2.57,0,0,1,.25.3c0,.09-.07.14-.22.14h-.23l-.42-.36a7.33,7.33,0,0,1-2-3.11A12,12,0,0,1,134.65,116.42Z"/><path id="MJMATHI-61-2" data-name="MJMATHI-61" class="cls-3" d="M139.48,117.78A4.31,4.31,0,0,1,140.6,115a3.28,3.28,0,0,1,2.51-1.35,1.66,1.66,0,0,1,1.32.72.74.74,0,0,1,.67-.44.52.52,0,0,1,.34.12.35.35,0,0,1,.15.29c0,.13-.18.91-.54,2.35a24.89,24.89,0,0,0-.56,2.44.78.78,0,0,0,.1.48.43.43,0,0,0,.31.13.61.61,0,0,0,.29-.13,3.14,3.14,0,0,0,.6-1.41c.06-.19.11-.3.15-.31h.21c.18,0,.28,0,.28.13a2.6,2.6,0,0,1-.08.4,4.43,4.43,0,0,1-.29.79,2.63,2.63,0,0,1-.47.73,1.54,1.54,0,0,1-.47.31,1.56,1.56,0,0,1-.35,0,1.46,1.46,0,0,1-.84-.22,1.09,1.09,0,0,1-.44-.45l-.09-.22s0,0-.06,0l-.06.06a2.54,2.54,0,0,1-1.76.82,2,2,0,0,1-1.42-.58A2.51,2.51,0,0,1,139.48,117.78Zm4.67-2.51a1.15,1.15,0,0,0-.07-.32,1.39,1.39,0,0,0-.34-.52,1,1,0,0,0-.68-.29,1.38,1.38,0,0,0-1,.46,3,3,0,0,0-.73,1.18,11.67,11.67,0,0,0-.61,2.41v.16a.87.87,0,0,1,0,.18,1.27,1.27,0,0,0,.26.91.94.94,0,0,0,.64.26,1.68,1.68,0,0,0,1.1-.48,2.4,2.4,0,0,0,.64-.75s.15-.56.4-1.57S144.14,115.35,144.15,115.27Z"/><path id="MJMATHI-69-2" data-name="MJMATHI-69" class="cls-3" d="M148.67,116.07a.6.6,0,0,1,.2-.44.65.65,0,0,1,.45-.19.45.45,0,0,1,.32.12.49.49,0,0,1,.13.31.59.59,0,0,1-.21.44.72.72,0,0,1-.45.21.46.46,0,0,1-.29-.11A.44.44,0,0,1,148.67,116.07ZM147,119.32a1.13,1.13,0,0,1,.09-.32,4.88,4.88,0,0,1,.25-.53,1.63,1.63,0,0,1,.46-.53.92.92,0,0,1,.62-.23,1,1,0,0,1,.67.24.86.86,0,0,1,.29.64,1.94,1.94,0,0,1-.15.58c-.1.27-.24.64-.42,1.09s-.32.85-.43,1.17a1.43,1.43,0,0,0-.05.34c0,.17.06.26.17.26a.69.69,0,0,0,.2,0,.83.83,0,0,0,.24-.15,1.67,1.67,0,0,0,.28-.36,3,3,0,0,0,.26-.62.46.46,0,0,1,0-.14.44.44,0,0,1,.18,0c.14,0,.2,0,.2.1a1.13,1.13,0,0,1-.09.32,3.66,3.66,0,0,1-.26.53,1.54,1.54,0,0,1-.47.52,1,1,0,0,1-.64.23,1,1,0,0,1-.61-.22.79.79,0,0,1-.29-.66,1.14,1.14,0,0,1,.05-.33c0-.11.18-.5.45-1.19s.41-1.11.45-1.25a2.12,2.12,0,0,0,.08-.41c0-.16-.06-.25-.18-.25h0a.72.72,0,0,0-.57.35,2.19,2.19,0,0,0-.4.87l0,0s0,0,0,0,0,0,0,0H147S147,119.34,147,119.32Z"/><path id="MJMAIN-29-4" data-name="MJMAIN-29" class="cls-3" d="M152.71,109.09h.38l.41.35a7.23,7.23,0,0,1,2,3.11,12,12,0,0,1,.63,3.88,13.35,13.35,0,0,1-.14,1.92,12.3,12.3,0,0,1-.34,1.57,7.08,7.08,0,0,1-.54,1.29l-.56,1a4.46,4.46,0,0,1-.6.75l-.47.49-.34.28-.06.06h-.34s-.05,0-.07-.05a.32.32,0,0,1-.05-.13l.17-.19q2.26-2.37,2.27-7c0-3.08-.76-5.4-2.27-7l-.17-.19A.17.17,0,0,1,152.71,109.09Z"/><path id="MJMATHI-51-2" data-name="MJMATHI-51" class="cls-3" d="M167.06,121.26c0-.32,0-.57,0-.73a1.4,1.4,0,0,1,0-.28v-.06l-.22.06a5.78,5.78,0,0,1-1.24.16,3.6,3.6,0,0,1-3.69-3.27c0-.08,0-.29,0-.64a6.07,6.07,0,0,1,.71-2.84,8.36,8.36,0,0,1,1.89-2.4,5.75,5.75,0,0,1,3.65-1.51c.38,0,.61,0,.71,0a3.45,3.45,0,0,1,2.29,1.26,4.1,4.1,0,0,1,.88,2.67,6.69,6.69,0,0,1-2.17,4.82,7.11,7.11,0,0,1-1.93,1.33l-.25.12V120l.08.4a1.11,1.11,0,0,0,.31.61.89.89,0,0,0,.67.24,1.73,1.73,0,0,0,1-.32,1.51,1.51,0,0,0,.62-.84c.06-.14.12-.21.19-.21a.15.15,0,0,1,.16.14,2.53,2.53,0,0,1-.14.52c-.1.28-.24.6-.41,1a2.53,2.53,0,0,1-.8,1,2,2,0,0,1-1.11.42c-.8,0-1.21-.52-1.21-1.57Zm3.48-8a4,4,0,0,0-.22-1.41,1.88,1.88,0,0,0-.6-.9,3.63,3.63,0,0,0-.73-.44,2,2,0,0,0-.78-.15,3.28,3.28,0,0,0-1.44.37,5.3,5.3,0,0,0-2.41,2.58,8.4,8.4,0,0,0-.91,3.65,3,3,0,0,0,.8,2.3c.23.21.37.31.42.31v-.12a1.54,1.54,0,0,1,.49-1.09,1.59,1.59,0,0,1,1.14-.51,1.14,1.14,0,0,1,.63.16,1.06,1.06,0,0,1,.4.44,1.82,1.82,0,0,1,.17.47l.09.4.19-.13a5.44,5.44,0,0,0,1.6-1.78,7.74,7.74,0,0,0,.91-2.19A8.35,8.35,0,0,0,170.54,113.22Zm-4.72,6.6a2.85,2.85,0,0,0,1.32-.31l0-.14c0-.54-.22-.86-.54-1l-.28,0h-.09a.08.08,0,0,1-.06,0,.9.9,0,0,0-.6.3,1,1,0,0,0-.32.67C165.23,119.66,165.42,119.82,165.82,119.82Z"/><path id="MJMAIN-28-5" data-name="MJMAIN-28" class="cls-3" d="M174.21,116.42a11.9,11.9,0,0,1,.15-1.93,13.56,13.56,0,0,1,.34-1.57,6,6,0,0,1,.54-1.29c.24-.42.42-.75.56-1a4.16,4.16,0,0,1,.61-.77c.28-.27.44-.44.49-.5a2.86,2.86,0,0,1,.37-.3h.25c.13,0,.2,0,.2.13s-.08.13-.25.31a6.34,6.34,0,0,0-.6.77,9.57,9.57,0,0,0-.72,1.27,8.7,8.7,0,0,0-.62,2,15.39,15.39,0,0,0-.25,2.84,15.06,15.06,0,0,0,.25,2.81,9.11,9.11,0,0,0,.61,2,6.93,6.93,0,0,0,.71,1.27l.62.78a2.57,2.57,0,0,1,.25.3c0,.09-.07.14-.22.14h-.23l-.42-.36a7.33,7.33,0,0,1-2-3.11A12,12,0,0,1,174.21,116.42Z"/><path id="MJMATHI-73-4" data-name="MJMATHI-73" class="cls-3" d="M180.47,115.84a2.11,2.11,0,0,1,.23-1,2.53,2.53,0,0,1,.82-.9,2.38,2.38,0,0,1,1.43-.39,1.89,1.89,0,0,1,1.32.39,1.28,1.28,0,0,1,.42.88.84.84,0,0,1-.25.69.86.86,0,0,1-.55.24.6.6,0,0,1-.36-.12.49.49,0,0,1-.17-.38.65.65,0,0,1,.13-.41,1,1,0,0,1,.25-.26.35.35,0,0,1,.19-.09s0,0,0,0,0-.07-.1-.13a1,1,0,0,0-.36-.16,2.61,2.61,0,0,0-.58-.09,1.26,1.26,0,0,0-1,.38,1.28,1.28,0,0,0-.34.78.51.51,0,0,0,.28.51,2.6,2.6,0,0,0,.8.25,3.78,3.78,0,0,1,.77.22,1.47,1.47,0,0,1,1,1.41,2.24,2.24,0,0,1-.17.83,3.06,3.06,0,0,1-.48.82,2.11,2.11,0,0,1-.92.64,4,4,0,0,1-1.38.25,2.38,2.38,0,0,1-1.6-.42,1.36,1.36,0,0,1-.49-1,1,1,0,0,1,.31-.82,1,1,0,0,1,.65-.25.71.71,0,0,1,.41.13.56.56,0,0,1,.2.45.91.91,0,0,1-.26.65.71.71,0,0,1-.46.26l0,0s0,0,0,0a.32.32,0,0,0,.12.12,2.76,2.76,0,0,0,.46.19,2.47,2.47,0,0,0,.8.1,2.25,2.25,0,0,0,.91-.16,1.32,1.32,0,0,0,.56-.41,1.93,1.93,0,0,0,.25-.46,1.09,1.09,0,0,0,.07-.37.69.69,0,0,0-.3-.61,1.55,1.55,0,0,0-.71-.25,3.51,3.51,0,0,1-.86-.22,1.3,1.3,0,0,1-.69-.52A1.42,1.42,0,0,1,180.47,115.84Z"/><path id="MJMAIN-2C-2" data-name="MJMAIN-2C" class="cls-3" d="M186.59,119.57v-.37a1,1,0,0,1,.23-.63.83.83,0,0,1,.63-.26,1,1,0,0,1,.74.37,2,2,0,0,1,.33,1.29,3.76,3.76,0,0,1-.13,1,4.38,4.38,0,0,1-.31.83,2.76,2.76,0,0,1-.38.61,5.12,5.12,0,0,1-.35.39c-.1.1-.16.14-.19.13s-.1,0-.19-.13-.13-.15-.13-.19,0-.12.16-.23.23-.27.37-.44a3.36,3.36,0,0,0,.38-.74,4.58,4.58,0,0,0,.23-1.07V120l-.08,0a.2.2,0,0,0-.08,0,.26.26,0,0,1-.14,0l-.17,0a.91.91,0,0,1-.65-.25Z"/><path id="MJMATHI-61-3" data-name="MJMATHI-61" class="cls-3" d="M192.46,117.78a4.35,4.35,0,0,1,1.11-2.82,3.3,3.3,0,0,1,2.51-1.35,1.69,1.69,0,0,1,1.33.72.73.73,0,0,1,.67-.44.52.52,0,0,1,.34.12.35.35,0,0,1,.15.29c0,.13-.19.91-.55,2.35s-.55,2.25-.56,2.44a.76.76,0,0,0,.11.48.43.43,0,0,0,.31.13.65.65,0,0,0,.29-.13,3.26,3.26,0,0,0,.6-1.41c.06-.19.11-.3.15-.31h.2c.19,0,.28,0,.28.13a2.16,2.16,0,0,1-.07.4,4.61,4.61,0,0,1-.3.79,2.42,2.42,0,0,1-.46.73,1.54,1.54,0,0,1-.47.31,1.6,1.6,0,0,1-.36,0,1.45,1.45,0,0,1-.83-.22,1,1,0,0,1-.44-.45l-.09-.22s0,0-.06,0l-.06.06a2.56,2.56,0,0,1-1.76.82,2,2,0,0,1-1.42-.58A2.47,2.47,0,0,1,192.46,117.78Zm4.67-2.51a1.3,1.3,0,0,0-.08-.32,1.48,1.48,0,0,0-.33-.52,1,1,0,0,0-.68-.29,1.38,1.38,0,0,0-1,.46,3.05,3.05,0,0,0-.74,1.18,12.32,12.32,0,0,0-.6,2.41v.16a.87.87,0,0,1,0,.18,1.22,1.22,0,0,0,.26.91.94.94,0,0,0,.63.26,1.66,1.66,0,0,0,1.1-.48,2.47,2.47,0,0,0,.65-.75s.15-.56.4-1.57S197.12,115.35,197.13,115.27Z"/><path id="MJMATHI-69-3" data-name="MJMATHI-69" class="cls-3" d="M201.65,116.07a.59.59,0,0,1,.19-.44.7.7,0,0,1,.46-.19.41.41,0,0,1,.31.12.5.5,0,0,1,.14.31.59.59,0,0,1-.21.44.72.72,0,0,1-.46.21.48.48,0,0,1-.29-.11A.4.4,0,0,1,201.65,116.07ZM200,119.32a1.13,1.13,0,0,1,.09-.32,3.52,3.52,0,0,1,.25-.53,1.59,1.59,0,0,1,.45-.53.93.93,0,0,1,.63-.23,1,1,0,0,1,.67.24.85.85,0,0,1,.28.64,2.18,2.18,0,0,1-.14.58c-.1.27-.24.64-.42,1.09s-.32.85-.43,1.17a1.61,1.61,0,0,0-.06.34c0,.17.06.26.18.26l.2,0a.83.83,0,0,0,.24-.15,1.67,1.67,0,0,0,.28-.36,3.74,3.74,0,0,0,.26-.62c0-.08,0-.13.05-.14a.41.41,0,0,1,.17,0c.14,0,.21,0,.21.1a1.13,1.13,0,0,1-.09.32,3.66,3.66,0,0,1-.26.53,1.65,1.65,0,0,1-.47.52,1,1,0,0,1-.64.23.94.94,0,0,1-.61-.22.77.77,0,0,1-.29-.66.88.88,0,0,1,.05-.33c0-.11.18-.5.44-1.19s.42-1.11.46-1.25a1.53,1.53,0,0,0,.07-.41c0-.16-.06-.25-.17-.25h0a.75.75,0,0,0-.58.35,2.34,2.34,0,0,0-.39.87s0,0,0,0a0,0,0,0,0,0,0s0,0,0,0H200S200,119.34,200,119.32Z"/><path id="MJMAIN-29-5" data-name="MJMAIN-29" class="cls-3" d="M205.67,109.09h.38l.41.35a7.23,7.23,0,0,1,2,3.11,12.56,12.56,0,0,1,.49,5.8,12.3,12.3,0,0,1-.34,1.57,7.08,7.08,0,0,1-.54,1.29c-.24.43-.42.76-.56,1a4.46,4.46,0,0,1-.6.75l-.47.49-.34.28-.06.06h-.34s-.05,0-.07-.05a.33.33,0,0,1,0-.13l.16-.19q2.27-2.37,2.27-7c0-3.08-.76-5.4-2.27-7l-.16-.19A.17.17,0,0,1,205.67,109.09Z"/><rect class="cls-1" x="180.27" y="19.24" width="25.45" height="25.45"/><rect class="cls-1" x="207.1" y="19.25" width="25.45" height="25.45"/><rect class="cls-1" x="234" y="19.26" width="25.45" height="25.45"/><rect class="cls-1" x="180.27" y="46.07" width="25.45" height="25.45"/><rect class="cls-1" x="234" y="46.09" width="25.45" height="25.45"/><rect class="cls-1" x="180.27" y="73.01" width="25.45" height="25.45"/><rect class="cls-1" x="207.1" y="73.02" width="25.45" height="25.45"/><rect class="cls-1" x="234" y="73.03" width="25.45" height="25.45"/><circle class="cls-4" cx="192.83" cy="32" r="8.06"/><circle class="cls-4" cx="220.09" cy="32" r="8.06"/><circle class="cls-4" cx="246.7" cy="31.94" r="8.06"/><circle class="cls-4" cx="192.83" cy="59.13" r="8.06"/><circle class="cls-4" cx="246.7" cy="59.07" r="8.06"/><circle class="cls-4" cx="192.83" cy="85.71" r="8.06"/><circle class="cls-4" cx="220.09" cy="85.84" r="8.06"/><circle class="cls-4" cx="246.7" cy="85.78" r="8.06"/><rect class="cls-5" x="0.27" y="19.22" width="79.35" height="79.35"/><rect class="cls-6" x="24.11" y="42.86" width="31.77" height="31.77"/><rect class="cls-1" x="27.09" y="46.06" width="25.45" height="25.45"/><polygon class="cls-2" points="30.44 58.79 33.07 64.08 33.07 53.5 30.44 58.79"/><polygon class="cls-2" points="39.79 68.23 45.08 65.59 34.5 65.59 39.79 68.23"/><polygon class="cls-2" points="49.19 58.8 46.55 53.5 46.55 64.09 49.19 58.8"/><polygon class="cls-2" points="39.79 49.4 34.5 52.04 45.08 52.04 39.79 49.4"/><polyline class="cls-7" points="39.79 113.97 39.79 75.11 39.79 115.35 43.79 115.35"/><polygon class="cls-8" points="42.28 117.35 43.13 115.35 42.28 113.35 47.02 115.35 42.28 117.35"/><rect class="cls-9" x="23.94" y="42.69" width="32.07" height="32.09" transform="translate(79.95 117.48) rotate(180)"/><rect class="cls-5" x="180.27" y="19.24" width="79.35" height="79.35"/><rect class="cls-6" x="204.11" y="42.75" width="31.77" height="31.77"/><rect class="cls-1" x="207.1" y="46.08" width="25.45" height="25.45"/><circle class="cls-4" cx="220.09" cy="59.13" r="8.06"/><rect class="cls-9" x="204.05" y="42.66" width="32.07" height="32.09" transform="translate(440.17 117.4) rotate(180)"/><polyline class="cls-9" points="212.83 115.35 220.09 115.35 220.09 78.32"/><polygon class="cls-8" points="222.09 79.84 220.09 78.99 218.09 79.84 220.09 75.1 222.09 79.84"/></svg>