<svg id="Layer_1" data-name="Layer 1" xmlns="http://www.w3.org/2000/svg" viewBox="0 0 259.77305 136.40357">
  <defs>
    <style>
      .cls-1 {
        fill: #e7ebe8;
      }

      .cls-2 {
        fill: #b2b3c3;
      }

      .cls-3 {
        fill: #808285;
      }

      .cls-4 {
        fill: #cac9cc;
      }

      .cls-5 {
        fill: #d1d3d4;
        opacity: 0.6;
      }

      .cls-6 {
        fill: #fff;
      }

      .cls-7, .cls-9 {
        fill: none;
        stroke: #f7941d;
        stroke-linejoin: round;
        stroke-width: 1.2px;
      }

      .cls-7 {
        stroke-linecap: square;
      }

      .cls-8 {
        fill: #f7941d;
      }
    </style>
  </defs>
  <title>better-qfunc-intro</title>
  <rect class="cls-1" x="0.25784" y="19.23037" width="25.44966" height="25.44966"/>
  <polygon class="cls-2" points="3.607 31.955 6.243 37.245 6.243 26.664 3.607 31.955"/>
  <polygon class="cls-2" points="12.957 41.396 18.248 38.761 7.666 38.761 12.957 41.396"/>
  <polygon class="cls-2" points="22.358 31.961 19.723 26.67 19.723 37.251 22.358 31.961"/>
  <polygon class="cls-2" points="12.957 22.569 7.666 25.204 18.248 25.204 12.957 22.569"/>
  <rect class="cls-1" x="27.08977" y="19.23569" width="25.44966" height="25.44966"/>
  <polygon class="cls-2" points="30.439 31.96 33.074 37.251 33.074 26.669 30.439 31.96"/>
  <polygon class="cls-2" points="39.789 41.402 45.08 38.767 34.498 38.767 39.789 41.402"/>
  <polygon class="cls-2" points="49.19 31.966 46.555 26.675 46.555 37.257 49.19 31.966"/>
  <polygon class="cls-2" points="39.789 22.574 34.498 25.209 45.08 25.209 39.789 22.574"/>
  <rect class="cls-1" x="53.99411" y="19.24635" width="25.44966" height="25.44966"/>
  <polygon class="cls-2" points="57.344 31.971 59.979 37.261 59.979 26.68 57.344 31.971"/>
  <polygon class="cls-2" points="66.693 41.412 71.984 38.777 61.403 38.777 66.693 41.412"/>
  <polygon class="cls-2" points="76.094 31.977 73.459 26.686 73.459 37.267 76.094 31.977"/>
  <polygon class="cls-2" points="66.693 22.585 61.403 25.22 71.984 25.22 66.693 22.585"/>
  <rect class="cls-1" x="0.25784" y="46.05929" width="25.44966" height="25.44966"/>
  <polygon class="cls-2" points="3.607 58.784 6.243 64.074 6.243 53.493 3.607 58.784"/>
  <polygon class="cls-2" points="12.957 68.225 18.248 65.59 7.666 65.59 12.957 68.225"/>
  <polygon class="cls-2" points="22.358 58.789 19.723 53.499 19.723 64.08 22.358 58.789"/>
  <polygon class="cls-2" points="12.957 49.398 7.666 52.033 18.248 52.033 12.957 49.398"/>
  <rect class="cls-1" x="53.99411" y="46.07527" width="25.44966" height="25.44966"/>
  <polygon class="cls-2" points="57.344 58.8 59.979 64.09 59.979 53.509 57.344 58.8"/>
  <polygon class="cls-2" points="66.693 68.241 71.984 65.606 61.403 65.606 66.693 68.241"/>
  <polygon class="cls-2" points="76.094 58.805 73.459 53.515 73.459 64.096 76.094 58.805"/>
  <polygon class="cls-2" points="66.693 49.414 61.403 52.049 71.984 52.049 66.693 49.414"/>
  <rect class="cls-1" x="0.25784" y="73.00402" width="25.44966" height="25.44966"/>
  <polygon class="cls-2" points="3.607 85.728 6.243 91.019 6.243 80.438 3.607 85.728"/>
  <polygon class="cls-2" points="12.957 95.17 18.248 92.535 7.666 92.535 12.957 95.17"/>
  <polygon class="cls-2" points="22.358 85.734 19.723 80.443 19.723 91.025 22.358 85.734"/>
  <polygon class="cls-2" points="12.957 76.342 7.666 78.977 18.248 78.977 12.957 76.342"/>
  <rect class="cls-1" x="27.08977" y="73.00935" width="25.44966" height="25.44966"/>
  <polygon class="cls-2" points="30.439 85.734 33.074 91.024 33.074 80.443 30.439 85.734"/>
  <polygon class="cls-2" points="39.789 95.175 45.08 92.54 34.498 92.54 39.789 95.175"/>
  <polygon class="cls-2" points="49.19 85.74 46.555 80.449 46.555 91.03 49.19 85.74"/>
  <polygon class="cls-2" points="39.789 76.348 34.498 78.983 45.08 78.983 39.789 76.348"/>
  <rect class="cls-1" x="53.99411" y="73.02" width="25.44966" height="25.44966"/>
  <polygon class="cls-2" points="57.344 85.744 59.979 91.035 59.979 80.454 57.344 85.744"/>
  <polygon class="cls-2" points="66.693 95.186 71.984 92.551 61.403 92.551 66.693 95.186"/>
  <polygon class="cls-2" points="76.094 85.75 73.459 80.459 73.459 91.041 76.094 85.75"/>
  <polygon class="cls-2" points="66.693 76.358 61.403 78.993 71.984 78.993 66.693 76.358"/>
  <g>
    <path id="MJMATHI-51" class="cls-3" d="M5.99911,13.34725q0-.52509.01591-.79559a1.57127,1.57127,0,0,1,.03183-.30232v-.06365l-.23868.06365a5.78867,5.78867,0,0,1-1.33659.175,4.03064,4.03064,0,0,1-2.62545-.907A4.06076,4.06076,0,0,1,.4618,8.876Q.44589,8.74874.44589,8.19182a6.58273,6.58273,0,0,1,.76376-3.08689A8.912,8.912,0,0,1,3.26228,2.51131,6.20631,6.20631,0,0,1,7.22432.87239q.60465,0,.76377.01591a3.78821,3.78821,0,0,1,2.48224,1.36842A4.48626,4.48626,0,0,1,11.425,5.15267a7.23982,7.23982,0,0,1-2.35495,5.21907,7.63126,7.63126,0,0,1-2.08445,1.448l-.2705.12729v.07956q0,.01591.07956.42962a1.25218,1.25218,0,0,0,.33415.6683.99073.99073,0,0,0,.73194.25459A1.85378,1.85378,0,0,0,8.92688,13.029a1.61886,1.61886,0,0,0,.6683-.907q.09548-.22277.20685-.22276a.16364.16364,0,0,1,.175.1432,2.37966,2.37966,0,0,1-.15911.57283q-.15912.44553-.44553,1.05018a2.76247,2.76247,0,0,1-.85924,1.03427,2.1715,2.1715,0,0,1-1.2093.46144q-1.30478,0-1.30477-1.70257Zm3.7711-8.71967A4.44163,4.44163,0,0,0,9.53153,3.1a2.09164,2.09164,0,0,0-.65238-.97062,3.58783,3.58783,0,0,0-.79559-.47735A2.17186,2.17186,0,0,0,7.24023,1.493a3.47129,3.47129,0,0,0-1.55936.3978A5.72877,5.72877,0,0,0,3.07134,4.69122,8.96029,8.96029,0,0,0,2.0848,8.63735,3.28631,3.28631,0,0,0,2.944,11.13551a1.49456,1.49456,0,0,0,.46145.33415v-.1273a1.66426,1.66426,0,0,1,.52509-1.17747A1.72969,1.72969,0,0,1,5.1717,9.608a1.28687,1.28687,0,0,1,.6842.175,1.10015,1.10015,0,0,1,.42962.47735,2.62053,2.62053,0,0,1,.19095.50918q.04773.20685.09547.42962l.20685-.14321A5.893,5.893,0,0,0,8.51318,9.13062a8.68711,8.68711,0,0,0,.98653-2.37086A9.31394,9.31394,0,0,0,9.77021,4.62758Zm-5.1236,7.16031a3.15839,3.15839,0,0,0,1.43206-.33414l-.01591-.15912q-.06364-.87516-.58874-1.05018a1.94756,1.94756,0,0,0-.30232-.03183H5.07623a.09214.09214,0,0,1-.06365-.01591.96913.96913,0,0,0-.65239.31824,1.04277,1.04277,0,0,0-.35006.73194Q4.01013,11.7879,4.64661,11.78789Z"/>
    <path id="MJMAIN-28" class="cls-3" d="M13.73225,8.09635a13.08733,13.08733,0,0,1,.15912-2.08444,14.58425,14.58425,0,0,1,.366-1.70257,6.66285,6.66285,0,0,1,.58874-1.40024q.38188-.68421.60465-1.06609A4.22614,4.22614,0,0,1,16.119,1.0156q.44553-.44555.52509-.541a2.86779,2.86779,0,0,1,.3978-.33414h.2705q.22277,0,.22277.1432a1.28564,1.28564,0,0,1-.2705.33415,7.22292,7.22292,0,0,0-.65239.84333,11.00841,11.00841,0,0,0-.77968,1.36841,9.05211,9.05211,0,0,0-.66829,2.19583,16.05923,16.05923,0,0,0-.27051,3.071,15.80942,15.80942,0,0,0,.27051,3.05507,10.33352,10.33352,0,0,0,.65238,2.21174,7.20618,7.20618,0,0,0,.77968,1.36842q.3978.52509.6683.84333a3.59581,3.59581,0,0,1,.2705.33414q0,.1432-.23868.14321h-.25459l-.44553-.38188a7.85239,7.85239,0,0,1-2.17992-3.37331A13.00948,13.00948,0,0,1,13.73225,8.09635Z"/>
    <path id="MJMATHI-73" class="cls-3" d="M20.5266,7.47579a2.358,2.358,0,0,1,.25459-1.03427,2.61766,2.61766,0,0,1,.89106-.97062,2.54238,2.54238,0,0,1,1.54344-.42962,2.01035,2.01035,0,0,1,1.43207.42962,1.36329,1.36329,0,0,1,.46144.95471.94764.94764,0,0,1-.2705.74786.964.964,0,0,1-.60465.25459.6355.6355,0,0,1-.38188-.1273.51478.51478,0,0,1-.191-.4137.72208.72208,0,0,1,.14321-.44554,1.42966,1.42966,0,0,1,.2705-.28641.38505.38505,0,0,1,.20686-.09547.01406.01406,0,0,0,.01591-.01591q0-.04773-.11139-.14321a1.08693,1.08693,0,0,0-.39779-.175A2.81554,2.81554,0,0,0,23.168,5.63a1.34587,1.34587,0,0,0-1.4798,1.257.57522.57522,0,0,0,.30232.55691,3.30017,3.30017,0,0,0,.87515.2705,3.48631,3.48631,0,0,1,.82742.23868,1.57256,1.57256,0,0,1,1.05018,1.52753,2.42147,2.42147,0,0,1-.175.89106,3.55947,3.55947,0,0,1-.52509.89106,2.30182,2.30182,0,0,1-1.00245.70012,4.32033,4.32033,0,0,1-1.49571.2705,2.57376,2.57376,0,0,1-1.73438-.46144,1.47207,1.47207,0,0,1-.52509-1.082,1.08214,1.08214,0,0,1,.33414-.89106,1.09867,1.09867,0,0,1,.70012-.2705.76773.76773,0,0,1,.44553.1432.59237.59237,0,0,1,.22277.49327.95236.95236,0,0,1-.28641.70012.78365.78365,0,0,1-.49327.28641.12207.12207,0,0,1-.04773.01591q-.01591,0-.01592.03183a.34394.34394,0,0,0,.1273.12729,2.22137,2.22137,0,0,0,.49326.20685,3.12953,3.12953,0,0,0,1.86169-.06364,1.36707,1.36707,0,0,0,.60465-.44553,2.11267,2.11267,0,0,0,.2705-.49327,1.20016,1.20016,0,0,0,.07956-.39779.74962.74962,0,0,0-.33415-.6683,1.69145,1.69145,0,0,0-.76377-.2705,3.93821,3.93821,0,0,1-.9388-.23868,1.4725,1.4725,0,0,1-.74785-.55691A1.60161,1.60161,0,0,1,20.5266,7.47579Z"/>
    <path id="MJMAIN-2C" class="cls-3" d="M27.14591,11.51739V11.1196a.995.995,0,0,1,.25459-.68421.86972.86972,0,0,1,.68421-.28641,1.04014,1.04014,0,0,1,.79559.39779,2.19675,2.19675,0,0,1,.366,1.40024,4.09335,4.09335,0,0,1-.14321,1.082,4.94739,4.94739,0,0,1-.33414.907,3.45085,3.45085,0,0,1-.41371.65238q-.22276.27051-.38188.42962t-.20686.14321q-.06365,0-.20685-.14321t-.14321-.20685q0-.06364.175-.25459t.3978-.47735a3.054,3.054,0,0,0,.41371-.7956,4.57071,4.57071,0,0,0,.25458-1.16156V11.9311l-.01591.01591a.6166.6166,0,0,1-.07956.03183.40169.40169,0,0,0-.09547.04773.26034.26034,0,0,1-.1432.03182,1.15945,1.15945,0,0,0-.191.01592.94736.94736,0,0,1-.70012-.2705Z"/>
    <path id="MJMATHI-61" class="cls-3" d="M33.51064,9.57615a4.70215,4.70215,0,0,1,1.2093-3.05507A3.5607,3.5607,0,0,1,37.44086,5.0572a1.80388,1.80388,0,0,1,1.43206.77968.79617.79617,0,0,1,.73194-.47736.56927.56927,0,0,1,.366.1273A.39183.39183,0,0,1,40.13,5.805q0,.20685-.58874,2.54589t-.60464,2.64136a.85122.85122,0,0,0,.11138.52509.46739.46739,0,0,0,.33415.14321.69128.69128,0,0,0,.31823-.14321,3.60793,3.60793,0,0,0,.65239-1.52753q.09546-.31824.15912-.33415A.46531.46531,0,0,1,40.671,9.6398h.06365q.30232,0,.30233.14321a2.52719,2.52719,0,0,1-.07956.42961,4.99171,4.99171,0,0,1-.31824.85924,2.71067,2.71067,0,0,1-.50918.79559,1.57316,1.57316,0,0,1-.50918.33415,1.69608,1.69608,0,0,1-.38188.03182,1.62637,1.62637,0,0,1-.907-.23867,1.22163,1.22163,0,0,1-.47736-.49327l-.09547-.23868q-.01591-.0159-.06365.01592l-.06364.06364a2.78974,2.78974,0,0,1-1.90942.89106,2.17156,2.17156,0,0,1-1.54345-.63647A2.68124,2.68124,0,0,1,33.51064,9.57615Zm5.06-2.72092a1.44076,1.44076,0,0,0-.07955-.35006,1.51279,1.51279,0,0,0-.366-.55691A1.01711,1.01711,0,0,0,37.39312,5.63a1.52692,1.52692,0,0,0-1.06609.49327,3.32934,3.32934,0,0,0-.79559,1.28886,12.70327,12.70327,0,0,0-.65239,2.60953v.175a.848.848,0,0,1-.01591.19094,1.33636,1.33636,0,0,0,.28641.98654,1.02483,1.02483,0,0,0,.68421.28641,1.79676,1.79676,0,0,0,1.19339-.52509,2.67572,2.67572,0,0,0,.70012-.8115q.03182-.06364.42962-1.70257T38.57059,6.85523Z"/>
    <path id="MJMAIN-29" class="cls-3" d="M42.37352.15636l.06365-.01591h.35006l.44553.38188a7.85224,7.85224,0,0,1,2.17991,3.3733,13.00948,13.00948,0,0,1,.68421,4.20072,13.28334,13.28334,0,0,1-.15912,2.08445,13.67918,13.67918,0,0,1-.366,1.70256,7.16674,7.16674,0,0,1-.58873,1.40024q-.38189.70012-.60465,1.0661a4.84053,4.84053,0,0,1-.65239.8115q-.42961.44553-.50918.52509t-.366.30232l-.06364.06365h-.366a.09351.09351,0,0,1-.07956-.04774.37465.37465,0,0,1-.04773-.1432q.01591-.01591.175-.20686,2.46633-2.56179,2.46633-7.55811T42.469.53824q-.15912-.19094-.175-.20685A.187.187,0,0,1,42.37352.15636Z"/>
  </g>
  <g>
    <path id="MJMATHI-56" class="cls-3" d="M179.04941,1.936a.75255.75255,0,0,1,.20686-.55692h.175q.6683.04775,1.67074.04774,1.8776,0,2.21174-.04774h.15912q.09546.09547.09547.14321t-.03183.28641a.87664.87664,0,0,1-.1432.30233h-.33415q-.35005.03181-.47736.03182-.46143.07956-.50917.23868,0,.03181.46144,3.99386t.47735,3.99387L184.173,8.50754q1.16156-1.8617,2.32312-3.75519t1.19339-1.95716a.47326.47326,0,0,0,.06364-.23867q0-.38188-.70012-.44553-.28641,0-.28641-.175,0-.01591.03183-.20686a.856.856,0,0,1,.09547-.28641.2526.2526,0,0,1,.20685-.06365h.19094q.15912,0,.541.01591t1.01836.01592q1.09791,0,1.38433-.03183h.11138q.11139.11139.11138.175a.97327.97327,0,0,1-.1432.50918.45533.45533,0,0,1-.2705.04774q-.20687.0159-.38189.03182a1.18337,1.18337,0,0,0-.33415.07956q-.15912.06364-.25459.11138a.99642.99642,0,0,0-.19094.1273.89008.89008,0,0,1-.15912.11138.34581.34581,0,0,0-.12729.1432q-.06365.11139-.11138.11139l-3.071,4.93266Q182.55,12.39,182.45454,12.5014q-.04773.03183-.11138.07956l-.28642.01591h-.11138q-.28641,0-.28641-.11138-.04773-.09548-.62056-5.09178-.60465-5.06-.62056-5.10769-.07956-.175-.98653-.175h-.27051A.22045.22045,0,0,1,179.04941,1.936Z"/>
    <path id="MJMAIN-28-2" data-name="MJMAIN-28" class="cls-3" d="M191.95389,8.26886a13.08746,13.08746,0,0,1,.15912-2.08445,14.58359,14.58359,0,0,1,.366-1.70256,6.66315,6.66315,0,0,1,.58874-1.40024q.38188-.68421.60465-1.06609a4.22589,4.22589,0,0,1,.6683-.82742q.44553-.44553.52509-.541A2.86665,2.86665,0,0,1,195.26355.313h.2705q.22276,0,.22277.14321a1.286,1.286,0,0,1-.2705.33415,7.22353,7.22353,0,0,0-.65239.84332,11.00934,11.00934,0,0,0-.77968,1.36842,9.05241,9.05241,0,0,0-.66829,2.19583,16.05912,16.05912,0,0,0-.2705,3.071,15.80954,15.80954,0,0,0,.2705,3.05507,10.33388,10.33388,0,0,0,.65238,2.21174,7.20606,7.20606,0,0,0,.77968,1.36841q.3978.52509.6683.84333a3.59491,3.59491,0,0,1,.2705.33415q0,.1432-.23868.14321h-.25459l-.44553-.38189a7.85235,7.85235,0,0,1-2.17992-3.3733A13.00948,13.00948,0,0,1,191.95389,8.26886Z"/>
    <path id="MJMATHI-73-2" data-name="MJMATHI-73" class="cls-3" d="M198.74824,7.6483a2.358,2.358,0,0,1,.25459-1.03427,2.61766,2.61766,0,0,1,.89106-.97062,2.54233,2.54233,0,0,1,1.54344-.42962,2.01035,2.01035,0,0,1,1.43207.42962,1.36327,1.36327,0,0,1,.46144.95471.94762.94762,0,0,1-.2705.74785.964.964,0,0,1-.60465.25459.63555.63555,0,0,1-.38188-.12729.51478.51478,0,0,1-.19094-.41371.722.722,0,0,1,.1432-.44553,1.42911,1.42911,0,0,1,.2705-.28641.38508.38508,0,0,1,.20686-.09547.01407.01407,0,0,0,.01591-.01592q0-.04773-.11139-.1432a1.08676,1.08676,0,0,0-.39779-.175,2.815,2.815,0,0,0-.62056-.09547,1.34585,1.34585,0,0,0-1.4798,1.257.5752.5752,0,0,0,.30232.55691,3.2998,3.2998,0,0,0,.87515.2705,3.48727,3.48727,0,0,1,.82742.23868,1.57257,1.57257,0,0,1,1.05018,1.52754,2.42127,2.42127,0,0,1-.175.89106,3.55947,3.55947,0,0,1-.52509.89106,2.30184,2.30184,0,0,1-1.00245.70012,4.32079,4.32079,0,0,1-1.49571.2705,2.57376,2.57376,0,0,1-1.73438-.46144,1.47209,1.47209,0,0,1-.52509-1.082,1.08217,1.08217,0,0,1,.33414-.89106,1.09873,1.09873,0,0,1,.70012-.2705.76774.76774,0,0,1,.44553.14321.59235.59235,0,0,1,.22277.49326.95234.95234,0,0,1-.28641.70012.78362.78362,0,0,1-.49327.28642.12224.12224,0,0,1-.04773.01591q-.01592,0-.01592.03182a.34387.34387,0,0,0,.1273.1273,2.22137,2.22137,0,0,0,.49326.20685,3.12964,3.12964,0,0,0,1.86169-.06365,1.36692,1.36692,0,0,0,.60465-.44553,2.11243,2.11243,0,0,0,.2705-.49326,1.20017,1.20017,0,0,0,.07956-.3978.74964.74964,0,0,0-.33415-.6683,1.69156,1.69156,0,0,0-.76377-.2705,3.93815,3.93815,0,0,1-.9388-.23867,1.47257,1.47257,0,0,1-.74785-.55692A1.60155,1.60155,0,0,1,198.74824,7.6483Z"/>
    <path id="MJMAIN-29-2" data-name="MJMAIN-29" class="cls-3" d="M205.08114.32886,205.14479.313h.35006l.44553.38188a7.85239,7.85239,0,0,1,2.17992,3.37331,13.00975,13.00975,0,0,1,.6842,4.20072,13.28465,13.28465,0,0,1-.15911,2.08445,13.67981,13.67981,0,0,1-.366,1.70256,7.16639,7.16639,0,0,1-.58873,1.40024q-.38188.70012-.60465,1.06609a4.84,4.84,0,0,1-.65239.8115q-.42961.44553-.50917.52509t-.366.30233l-.06364.06365h-.366a.0935.0935,0,0,1-.07956-.04774.37452.37452,0,0,1-.04774-.14321q.01592-.0159.175-.20685,2.46633-2.5618,2.46633-7.55811T205.17661.71075q-.15912-.19095-.175-.20686A.187.187,0,0,1,205.08114.32886Z"/>
  </g>
  <g>
    <path id="MJMATHI-56-2" data-name="MJMATHI-56" class="cls-3" d="M50.1307,110.5737a.69424.69424,0,0,1,.19083-.51376H50.483q.61652.044,1.5413.044,1.73212,0,2.04039-.044h.14679q.08806.08807.08807.13211t-.02936.26422a.80841.80841,0,0,1-.13211.2789h-.30826q-.32293.02935-.44037.02936-.42568.0734-.46973.22019,0,.02935.42569,3.68444t.44038,3.68444l1.07157-1.71745q1.07157-1.71746,2.14314-3.46425t1.10093-1.80553a.43665.43665,0,0,0,.05871-.22018q0-.35231-.64588-.411-.26421,0-.26422-.16147,0-.01467.02936-.19082a.79022.79022,0,0,1,.08807-.26423.23306.23306,0,0,1,.19083-.05871h.17615q.14679,0,.49909.01468t.93946.01467q1.01284,0,1.27707-.02935h.10276q.10275.10275.10275.16147a.89791.89791,0,0,1-.13211.46973.42011.42011,0,0,1-.24954.044q-.19083.01469-.3523.02936a1.09141,1.09141,0,0,0-.30826.0734q-.14679.05871-.23487.10275a.91949.91949,0,0,0-.17615.11743.82111.82111,0,0,1-.14679.10276.319.319,0,0,0-.11743.13211q-.05871.10275-.10275.10275l-2.83306,4.55051q-2.64222,4.2716-2.7303,4.37435-.044.02935-.10275.0734l-.26423.01468h-.10275q-.26422,0-.26422-.10276-.044-.08806-.57249-4.69729-.55781-4.66794-.57248-4.712-.07339-.16146-.9101-.16147h-.24954A.20334.20334,0,0,1,50.1307,110.5737Z"/>
    <path id="MJMAIN-28-3" data-name="MJMAIN-28" class="cls-3" d="M62.03541,116.416a12.07369,12.07369,0,0,1,.14679-1.923,13.45307,13.45307,0,0,1,.33762-1.57066,6.14707,6.14707,0,0,1,.54312-1.29176q.35231-.63119.55781-.98349a3.89849,3.89849,0,0,1,.61652-.76331q.411-.411.48441-.49909a2.645,2.645,0,0,1,.367-.30826h.24955q.2055,0,.2055.13211a1.18609,1.18609,0,0,1-.24954.30826,6.6643,6.6643,0,0,0-.60184.778,10.1547,10.1547,0,0,0-.71927,1.2624,8.35046,8.35046,0,0,0-.61652,2.02571A14.81484,14.81484,0,0,0,63.107,116.416a14.58445,14.58445,0,0,0,.24955,2.81837,9.53292,9.53292,0,0,0,.60184,2.04039,6.64785,6.64785,0,0,0,.71927,1.2624q.367.48441.61652.778a3.31509,3.31509,0,0,1,.24954.30826q0,.1321-.22018.13211h-.23487l-.411-.3523a7.24393,7.24393,0,0,1-2.011-3.112A12.00154,12.00154,0,0,1,62.03541,116.416Z"/>
    <path id="MJMATHI-73-3" data-name="MJMATHI-73" class="cls-3" d="M68.30337,115.84348a2.17531,2.17531,0,0,1,.23486-.95414,2.415,2.415,0,0,1,.822-.89542,2.34533,2.34533,0,0,1,1.42386-.39633,1.8546,1.8546,0,0,1,1.32112.39633,1.25762,1.25762,0,0,1,.42569.88074.8742.8742,0,0,1-.24954.68992.88929.88929,0,0,1-.55781.23486.58628.58628,0,0,1-.35229-.11743.47487.47487,0,0,1-.17615-.38165.66616.66616,0,0,1,.13211-.411,1.31893,1.31893,0,0,1,.24954-.26422.35521.35521,0,0,1,.19083-.08807.013.013,0,0,0,.01468-.01468q0-.044-.10275-.13211a1.00267,1.00267,0,0,0-.367-.16147,2.59758,2.59758,0,0,0-.57248-.08808,1.24159,1.24159,0,0,0-1.36515,1.15965.53064.53064,0,0,0,.2789.51376,3.04415,3.04415,0,0,0,.80735.24955,3.21723,3.21723,0,0,1,.76331.22018,1.45074,1.45074,0,0,1,.96881,1.40919,2.23369,2.23369,0,0,1-.16147.822,3.28338,3.28338,0,0,1-.4844.822,2.1236,2.1236,0,0,1-.92478.64587,3.986,3.986,0,0,1-1.37984.24955,2.3744,2.3744,0,0,1-1.6-.42569,1.35811,1.35811,0,0,1-.48441-.99818.9983.9983,0,0,1,.30826-.822,1.01359,1.01359,0,0,1,.64588-.24954.70829.70829,0,0,1,.411.13211.5465.5465,0,0,1,.20551.45505.8786.8786,0,0,1-.26422.64588.72293.72293,0,0,1-.45506.26422.1126.1126,0,0,1-.044.01468q-.01469,0-.01468.02936a.3172.3172,0,0,0,.11743.11743,2.04951,2.04951,0,0,0,.45505.19083,2.88716,2.88716,0,0,0,1.71745-.05872,1.261,1.261,0,0,0,.5578-.411,1.94848,1.94848,0,0,0,.24955-.455,1.10715,1.10715,0,0,0,.07339-.367.69154.69154,0,0,0-.30826-.61652,1.56044,1.56044,0,0,0-.70459-.24954,3.63282,3.63282,0,0,1-.86607-.22019,1.35841,1.35841,0,0,1-.68991-.51376A1.47757,1.47757,0,0,1,68.30337,115.84348Z"/>
    <path id="MJMAIN-29-3" data-name="MJMAIN-29" class="cls-3" d="M74.14563,109.09112l.05871-.01468h.32294l.411.3523a7.244,7.244,0,0,1,2.011,3.112,12.00155,12.00155,0,0,1,.63119,3.87527,12.25431,12.25431,0,0,1-.14679,1.923,12.62271,12.62271,0,0,1-.33761,1.57066,6.61149,6.61149,0,0,1-.54313,1.29176q-.35229.64587-.5578.98349a4.46572,4.46572,0,0,1-.60184.74863q-.39634.411-.46973.48441t-.33762.2789l-.05872.05872h-.33762a.08626.08626,0,0,1-.07339-.044.34564.34564,0,0,1-.044-.13211q.01469-.01467.16147-.19083Q76.509,121.02519,76.509,116.416t-2.27525-6.97255q-.14679-.17616-.16147-.19083A.17253.17253,0,0,1,74.14563,109.09112Z"/>
    <path id="MJMAIN-3D" class="cls-3" d="M83.87784,114.9921a.31975.31975,0,0,1,.2055-.29358H93.4339a.34133.34133,0,0,1,.22018.29358.333.333,0,0,1-.2055.2789l-4.66794.01468H84.1127A.29094.29094,0,0,1,83.87784,114.9921Zm0,2.84773a.29094.29094,0,0,1,.23486-.29358h9.33588q.2055.14679.2055.29358a.321.321,0,0,1-.22018.29358H84.08334A.31975.31975,0,0,1,83.87784,117.83983Z"/>
    <g>
      <path id="MJSZ2-2211" class="cls-3" d="M99.45231,106.17q.044-.02935,8.88082-.02936h8.83679l.85139,1.98167q.86606,2.02571.92478,2.14314h-.58716l-.10276-.2055a4.95891,4.95891,0,0,0-.822-1.145,6.16142,6.16142,0,0,0-1.62937-1.13029,8.038,8.038,0,0,0-2.06975-.6312,17.07665,17.07665,0,0,0-2.21653-.24954q-1.04222-.044-2.68627-.05872H102.256l.11743.16147q6.7964,9.29184,6.82576,9.37992a.13238.13238,0,0,1,0,.08807q-.044.044-3.87527,4.43307l-3.87527,4.40372q0,.01469,3.09728.01468h2.06975q1.30642,0,1.87891.01468,1.99635,0,3.22939-.0734a18.8558,18.8558,0,0,0,2.45141-.30826,6.75988,6.75988,0,0,0,2.06974-.71927,5.50467,5.50467,0,0,0,1.51194-1.27708,4.652,4.652,0,0,0,.60185-1.05689h.58716q0,.01469-.10276.30826t-.367.95414q-.26422.66056-.455,1.233l-.85139,2.27525-8.82211.01468q-8.83678,0-8.88082-.02936a.1247.1247,0,0,1-.08808-.13211.22535.22535,0,0,1,.02936-.08807l7.82394-8.95422q0-.01468-.48441-.66056t-1.5413-2.11378q-1.0569-1.46792-1.90828-2.61288l-3.90463-5.35785-.01468-.22018Q99.37891,106.214,99.45231,106.17Z"/>
      <path id="MJMATHI-69" class="cls-3" d="M109.28175,129.79962a.58268.58268,0,0,1,.19719-.43588.68591.68591,0,0,1,.45663-.19719.42246.42246,0,0,1,.31135.12454.46063.46063,0,0,1,.13491.31134.59194.59194,0,0,1-.20756.43588.69431.69431,0,0,1-.45664.20757.46746.46746,0,0,1-.29058-.10378A.4306.4306,0,0,1,109.28175,129.79962Zm-1.69163,3.24834a1.13554,1.13554,0,0,1,.09341-.32172,4.98037,4.98037,0,0,1,.24907-.52928,1.713,1.713,0,0,1,.45664-.52929.94057.94057,0,0,1,.62268-.22831.98089.98089,0,0,1,.67458.23869.84676.84676,0,0,1,.28021.64344,2.012,2.012,0,0,1-.1453.58118q-.14529.40475-.41512,1.0897t-.43588,1.17272a1.70055,1.70055,0,0,0-.05189.3321q0,.25946.17643.25945a.68676.68676,0,0,0,.19718-.03113.70938.70938,0,0,0,.2387-.1453,1.40645,1.40645,0,0,0,.28021-.36323,3.01526,3.01526,0,0,0,.25945-.61231.42633.42633,0,0,1,.05189-.14529.3802.3802,0,0,1,.17643-.02076q.20755,0,.20756.10378a1.13566,1.13566,0,0,1-.09341.32173,4.08456,4.08456,0,0,1-.25945.52928,1.733,1.733,0,0,1-.467.5189,1.04546,1.04546,0,0,1-.64344.22832.97587.97587,0,0,1-.61231-.21794.81481.81481,0,0,1-.29059-.6642,1.04361,1.04361,0,0,1,.05189-.3321q.0519-.15567.44626-1.1831.39436-1.04818.45664-1.25575a1.72186,1.72186,0,0,0,.07264-.40474q0-.24907-.17642-.24908h-.02076a.72555.72555,0,0,0-.57079.34248,2.418,2.418,0,0,0-.39437.87176.12085.12085,0,0,0-.02076.03113.07967.07967,0,0,0-.01038.03114q0,.01038-.02075.02075a.07967.07967,0,0,1-.03114.01038h-.26983Q107.59013,133.0791,107.59012,133.048Z"/>
    </g>
    <path id="MJMATHI-70" class="cls-3" d="M126.2269,115.87284a1.01585,1.01585,0,0,0,.02935-.11743q.01469-.07339.0734-.32294a2.75822,2.75822,0,0,1,.14679-.455q.08808-.20551.22019-.48441a1.5656,1.5656,0,0,1,.29358-.44037,3.29269,3.29269,0,0,1,.38165-.32294.66856.66856,0,0,1,.48441-.13211,1.32542,1.32542,0,0,1,1.40919.93946l.14679-.13211a2.686,2.686,0,0,1,1.73213-.80735,1.80042,1.80042,0,0,1,1.49726.68991,2.62223,2.62223,0,0,1,.54313,1.67341,4.46029,4.46029,0,0,1-1.11561,2.92114,3.29648,3.29648,0,0,1-2.5248,1.35047,1.7158,1.7158,0,0,1-.57248-.08808,1.51974,1.51974,0,0,1-.33762-.22018q-.17615-.14679-.2789-.24955l-.10276-.11743q-.01467.01469-.32293,1.27708t-.30826,1.27708q0,.08807.11743.10275t.54312.044h.367q.08808.10275.08807.13211t-.044.26422a.54181.54181,0,0,1-.08808.22019.3328.3328,0,0,1-.19083.05871h-.16147q-.1321,0-.49908-.01468t-.9101-.01467q-1.02754,0-1.30644.02935h-.11743q-.10275-.10275-.10276-.16147a.68324.68324,0,0,1,.19083-.51376h.29358q.4991-.01468.57249-.17615.044-.08808.89542-3.50829t.89542-3.62573a1.10755,1.10755,0,0,0,.01468-.20551q0-.60183-.367-.60184a.63638.63638,0,0,0-.54312.411,3.766,3.766,0,0,0-.33762.89542,1.58585,1.58585,0,0,1-.17615.52844.48577.48577,0,0,1-.23486.02936H126.315Q126.22689,115.91689,126.2269,115.87284Zm2.27525,2.71562q.32294,1.11561,1.08625,1.11561a1.329,1.329,0,0,0,.85138-.33762,2.657,2.657,0,0,0,.67524-.85138,7.33558,7.33558,0,0,0,.52845-1.58534,8.62394,8.62394,0,0,0,.2789-1.61469V115.227q0-1.08624-.89543-1.08625a1.2225,1.2225,0,0,0-.32293.044,1.49742,1.49742,0,0,0-.32294.13211,2.168,2.168,0,0,0-.29358.19083,2.67574,2.67574,0,0,0-.24955.22018l-.22018.22019a.98733.98733,0,0,0-.16147.20551.47932.47932,0,0,1-.11744.14679l-.044.05871q0,.01468-.044.20551t-.16147.64588q-.11744.45506-.20551.76331Q128.50215,118.52975,128.50215,118.58846Z"/>
    <path id="MJMAIN-28-4" data-name="MJMAIN-28" class="cls-3" d="M134.65267,116.416a12.07369,12.07369,0,0,1,.14679-1.923,13.45307,13.45307,0,0,1,.33762-1.57066,6.14707,6.14707,0,0,1,.54312-1.29176q.3523-.63119.55781-.98349a3.89849,3.89849,0,0,1,.61652-.76331q.411-.411.48441-.49909a2.645,2.645,0,0,1,.367-.30826h.24955q.2055,0,.2055.13211a1.18609,1.18609,0,0,1-.24954.30826,6.6643,6.6643,0,0,0-.60184.778,10.15592,10.15592,0,0,0-.71928,1.2624,8.35135,8.35135,0,0,0-.61652,2.02571,14.81569,14.81569,0,0,0-.24954,2.83306,14.58528,14.58528,0,0,0,.24954,2.81837,9.53345,9.53345,0,0,0,.60185,2.04039,6.64785,6.64785,0,0,0,.71927,1.2624q.367.48441.61652.778a3.31509,3.31509,0,0,1,.24954.30826q0,.1321-.22018.13211h-.23487l-.411-.3523a7.24393,7.24393,0,0,1-2.011-3.112A12.00154,12.00154,0,0,1,134.65267,116.416Z"/>
    <g>
      <path id="MJMATHI-61-2" data-name="MJMATHI-61" class="cls-3" d="M139.48208,117.78112a4.33784,4.33784,0,0,1,1.11561-2.81838,3.28482,3.28482,0,0,1,2.51011-1.35047,1.66413,1.66413,0,0,1,1.32112.71927.73448.73448,0,0,1,.67523-.44037.5252.5252,0,0,1,.33762.11743.36149.36149,0,0,1,.14679.29358q0,.19083-.54312,2.34865t-.55781,2.43672a.78525.78525,0,0,0,.10276.48441.43116.43116,0,0,0,.30826.13211.63775.63775,0,0,0,.29358-.13211,3.32859,3.32859,0,0,0,.60184-1.40919q.08808-.29358.14679-.30826a.42949.42949,0,0,1,.14679-.01468h.05872q.2789,0,.2789.13211a2.33167,2.33167,0,0,1-.0734.39634,4.60507,4.60507,0,0,1-.29358.79267,2.50057,2.50057,0,0,1-.46973.734,1.45142,1.45142,0,0,1-.46973.30826,1.565,1.565,0,0,1-.35229.02936,1.50041,1.50041,0,0,1-.83671-.22019,1.12688,1.12688,0,0,1-.44037-.455l-.08808-.22018q-.01467-.01469-.05871.01467l-.05872.05872a2.57358,2.57358,0,0,1-1.76148.822,2.00332,2.00332,0,0,1-1.42387-.58716A2.47352,2.47352,0,0,1,139.48208,117.78112ZM144.15,115.271a1.32894,1.32894,0,0,0-.0734-.32294,1.39562,1.39562,0,0,0-.33762-.51377.93835.93835,0,0,0-.67523-.29358,1.40867,1.40867,0,0,0-.9835.45505,3.0715,3.0715,0,0,0-.734,1.189,11.71837,11.71837,0,0,0-.60184,2.40736v.16147a.78286.78286,0,0,1-.01468.17615,1.23278,1.23278,0,0,0,.26422.9101.94536.94536,0,0,0,.6312.26422,1.65757,1.65757,0,0,0,1.10093-.48441,2.46848,2.46848,0,0,0,.64588-.74863q.02936-.05871.39633-1.57066T144.15,115.271Z"/>
      <path id="MJMATHI-69-2" data-name="MJMATHI-69" class="cls-3" d="M148.67005,116.06941a.58269.58269,0,0,1,.19718-.43588.686.686,0,0,1,.45664-.19719.42245.42245,0,0,1,.31134.12454.46058.46058,0,0,1,.13491.31134.59192.59192,0,0,1-.20756.43588.69427.69427,0,0,1-.45663.20757.46744.46744,0,0,1-.29059-.10379A.43059.43059,0,0,1,148.67005,116.06941Zm-1.69163,3.24834a1.1354,1.1354,0,0,1,.0934-.32172,4.98061,4.98061,0,0,1,.24908-.52928,1.71314,1.71314,0,0,1,.45663-.52929.94059.94059,0,0,1,.62269-.22831.98085.98085,0,0,1,.67457.23869.84676.84676,0,0,1,.28021.64344,2.01221,2.01221,0,0,1-.14529.58118q-.14529.40474-.41513,1.08969t-.43588,1.17273a1.70055,1.70055,0,0,0-.05189.3321q0,.25945.17643.25945a.68683.68683,0,0,0,.19719-.03113.70935.70935,0,0,0,.23869-.1453,1.40623,1.40623,0,0,0,.28021-.36323,3.01469,3.01469,0,0,0,.25945-.61231.42656.42656,0,0,1,.05189-.14529.3802.3802,0,0,1,.17643-.02076q.20756,0,.20756.10378a1.1354,1.1354,0,0,1-.0934.32172,4.08529,4.08529,0,0,1-.25945.52929,1.73285,1.73285,0,0,1-.467.5189,1.04546,1.04546,0,0,1-.64344.22832.97587.97587,0,0,1-.61231-.21794.81483.81483,0,0,1-.29058-.6642,1.04333,1.04333,0,0,1,.05189-.3321q.05188-.15567.44626-1.1831.39436-1.04819.45663-1.25575a1.72241,1.72241,0,0,0,.07265-.40474q0-.24908-.17643-.24908h-.02076a.72556.72556,0,0,0-.57079.34248,2.41812,2.41812,0,0,0-.39437.87176.12085.12085,0,0,0-.02075.03113.07967.07967,0,0,0-.01038.03114q0,.01038-.02076.02075a.07963.07963,0,0,1-.03113.01038h-.26983Q146.97842,119.34889,146.97842,119.31775Z"/>
    </g>
    <path id="MJMAIN-29-4" data-name="MJMAIN-29" class="cls-3" d="M152.7079,109.09112l.05872-.01468h.32294l.411.3523a7.24393,7.24393,0,0,1,2.011,3.112,12.00155,12.00155,0,0,1,.6312,3.87527,12.25431,12.25431,0,0,1-.14679,1.923,12.62073,12.62073,0,0,1-.33762,1.57066,6.612,6.612,0,0,1-.54312,1.29176q-.35231.64587-.55781.98349a4.46521,4.46521,0,0,1-.60184.74863q-.39633.411-.46973.48441t-.33762.2789l-.05871.05872h-.33762a.08627.08627,0,0,1-.0734-.044.34548.34548,0,0,1-.044-.13211q.01467-.01467.16147-.19083,2.27525-2.36332,2.27525-6.97254t-2.27525-6.97255q-.14679-.17616-.16147-.19083A.17253.17253,0,0,1,152.7079,109.09112Z"/>
    <path id="MJMATHI-51-2" data-name="MJMATHI-51" class="cls-3" d="M167.064,121.26005q0-.48441.01468-.734a1.44979,1.44979,0,0,1,.02936-.2789v-.05872l-.22019.05872a5.34019,5.34019,0,0,1-1.233.16147,3.6023,3.6023,0,0,1-3.69912-3.27343q-.01467-.11743-.01468-.6312a6.07266,6.07266,0,0,1,.7046-2.84774,8.22156,8.22156,0,0,1,1.8936-2.39268,5.72547,5.72547,0,0,1,3.65508-1.51194q.55781,0,.70459.01468a3.49474,3.49474,0,0,1,2.28994,1.26239,4.13875,4.13875,0,0,1,.88074,2.67159,6.679,6.679,0,0,1-2.1725,4.81473,7.03993,7.03993,0,0,1-1.923,1.33579l-.24954.11744v.07339q0,.01469.07339.39633a1.15515,1.15515,0,0,0,.30826.61652.914.914,0,0,0,.67524.23487,1.71021,1.71021,0,0,0,.9835-.32294,1.49342,1.49342,0,0,0,.61652-.83671q.08806-.2055.19082-.2055a.151.151,0,0,1,.16147.13211,2.1956,2.1956,0,0,1-.14679.52845q-.14679.411-.411.96881a2.54826,2.54826,0,0,1-.79267.95414,2.00318,2.00318,0,0,1-1.11561.42569q-1.20368,0-1.20368-1.57066Zm3.47894-8.04412a4.09756,4.09756,0,0,0-.22019-1.40919,1.9296,1.9296,0,0,0-.60184-.89542,3.30966,3.30966,0,0,0-.73395-.44037,2.00364,2.00364,0,0,0-.778-.14679,3.20226,3.20226,0,0,0-1.43855.367,5.28492,5.28492,0,0,0-2.40736,2.58351,8.266,8.266,0,0,0-.9101,3.6404,3.03169,3.03169,0,0,0,.79266,2.30461,1.37864,1.37864,0,0,0,.4257.30826v-.11743a1.53533,1.53533,0,0,1,.48441-1.08625,1.59576,1.59576,0,0,1,1.145-.51377,1.18728,1.18728,0,0,1,.6312.16147,1.015,1.015,0,0,1,.39633.44038,2.41586,2.41586,0,0,1,.17615.46973q.044.19081.08808.39633l.19083-.13211a5.43634,5.43634,0,0,0,1.6-1.77617,8.0139,8.0139,0,0,0,.9101-2.18718A8.59168,8.59168,0,0,0,170.543,113.21593Zm-4.72666,6.60557a2.91363,2.91363,0,0,0,1.32112-.30826l-.01468-.14679q-.05872-.80734-.54313-.96881a1.79609,1.79609,0,0,0-.2789-.02936h-.08807a.085.085,0,0,1-.05872-.01468.894.894,0,0,0-.60184.29358.962.962,0,0,0-.32294.67524Q165.22913,119.8215,165.81629,119.8215Z"/>
    <path id="MJMAIN-28-5" data-name="MJMAIN-28" class="cls-3" d="M174.21271,116.416a12.07369,12.07369,0,0,1,.14679-1.923,13.45307,13.45307,0,0,1,.33762-1.57066,6.14707,6.14707,0,0,1,.54312-1.29176q.35231-.63119.55781-.98349a3.89849,3.89849,0,0,1,.61652-.76331q.411-.411.48441-.49909a2.645,2.645,0,0,1,.367-.30826h.24955q.2055,0,.2055.13211a1.18609,1.18609,0,0,1-.24954.30826,6.6643,6.6643,0,0,0-.60184.778,10.15465,10.15465,0,0,0-.71928,1.2624,8.35135,8.35135,0,0,0-.61652,2.02571,14.81569,14.81569,0,0,0-.24954,2.83306,14.58528,14.58528,0,0,0,.24954,2.81837,9.53408,9.53408,0,0,0,.60184,2.04039,6.64837,6.64837,0,0,0,.71928,1.2624q.367.48441.61652.778a3.31509,3.31509,0,0,1,.24954.30826q0,.1321-.22018.13211H177.266l-.411-.3523a7.24393,7.24393,0,0,1-2.011-3.112A12.00154,12.00154,0,0,1,174.21271,116.416Z"/>
    <path id="MJMATHI-73-4" data-name="MJMATHI-73" class="cls-3" d="M180.466,115.84348a2.17532,2.17532,0,0,1,.23487-.95414,2.41492,2.41492,0,0,1,.822-.89542,2.34533,2.34533,0,0,1,1.42386-.39633,1.8546,1.8546,0,0,1,1.32112.39633,1.25766,1.25766,0,0,1,.42569.88074.8742.8742,0,0,1-.24954.68992.88932.88932,0,0,1-.55781.23486.58626.58626,0,0,1-.35229-.11743.47487.47487,0,0,1-.17615-.38165.6661.6661,0,0,1,.13211-.411,1.31865,1.31865,0,0,1,.24954-.26422.35521.35521,0,0,1,.19083-.08807.013.013,0,0,0,.01468-.01468q0-.044-.10275-.13211a1.00267,1.00267,0,0,0-.367-.16147,2.59758,2.59758,0,0,0-.57248-.08808,1.24159,1.24159,0,0,0-1.36515,1.15965.53064.53064,0,0,0,.2789.51376,3.04418,3.04418,0,0,0,.80734.24955,3.2172,3.2172,0,0,1,.76332.22018,1.45074,1.45074,0,0,1,.96881,1.40919,2.23369,2.23369,0,0,1-.16147.822,3.28313,3.28313,0,0,1-.48441.822,2.12348,2.12348,0,0,1-.92478.64587,3.98586,3.98586,0,0,1-1.37983.24955,2.3744,2.3744,0,0,1-1.6-.42569,1.358,1.358,0,0,1-.48441-.99818.9983.9983,0,0,1,.30826-.822,1.01359,1.01359,0,0,1,.64588-.24954.70829.70829,0,0,1,.411.13211.5465.5465,0,0,1,.20551.45505.87857.87857,0,0,1-.26423.64588.72289.72289,0,0,1-.455.26422.1126.1126,0,0,1-.044.01468q-.01468,0-.01468.02936a.3172.3172,0,0,0,.11743.11743,2.04951,2.04951,0,0,0,.45505.19083,2.88716,2.88716,0,0,0,1.71745-.05872,1.261,1.261,0,0,0,.5578-.411,1.94848,1.94848,0,0,0,.24955-.455,1.10715,1.10715,0,0,0,.07339-.367.69154.69154,0,0,0-.30826-.61652,1.56044,1.56044,0,0,0-.70459-.24954,3.6327,3.6327,0,0,1-.86607-.22019,1.35841,1.35841,0,0,1-.68991-.51376A1.47758,1.47758,0,0,1,180.466,115.84348Z"/>
    <path id="MJMAIN-2C-2" data-name="MJMAIN-2C" class="cls-3" d="M186.58715,119.572v-.367a.91794.91794,0,0,1,.23486-.63119.80233.80233,0,0,1,.6312-.26423.95954.95954,0,0,1,.73395.367,2.02641,2.02641,0,0,1,.33762,1.29176,3.77628,3.77628,0,0,1-.13211.99817,4.56387,4.56387,0,0,1-.30826.83671,3.18389,3.18389,0,0,1-.38165.60184q-.20551.24954-.3523.39633t-.19083.13211q-.05871,0-.19083-.13211t-.13211-.19083q0-.05871.16147-.23486t.367-.44037a2.81728,2.81728,0,0,0,.38165-.73395,4.21651,4.21651,0,0,0,.23487-1.07158v-.17614l-.01468.01468a.56949.56949,0,0,1-.0734.02935.3709.3709,0,0,0-.08807.044.24025.24025,0,0,1-.13211.02936,1.06932,1.06932,0,0,0-.17615.01468.87392.87392,0,0,1-.64588-.24955Z"/>
    <g>
      <path id="MJMATHI-61-3" data-name="MJMATHI-61" class="cls-3" d="M192.45877,117.78112a4.33784,4.33784,0,0,1,1.11561-2.81838,3.28482,3.28482,0,0,1,2.51011-1.35047,1.66413,1.66413,0,0,1,1.32112.71927.73448.73448,0,0,1,.67523-.44037.5252.5252,0,0,1,.33762.11743.36149.36149,0,0,1,.14679.29358q0,.19083-.54312,2.34865t-.55781,2.43672a.78533.78533,0,0,0,.10276.48441.43116.43116,0,0,0,.30826.13211.63775.63775,0,0,0,.29358-.13211,3.32846,3.32846,0,0,0,.60184-1.40919q.08808-.29358.14679-.30826a.42949.42949,0,0,1,.14679-.01468h.05872q.27889,0,.2789.13211a2.33167,2.33167,0,0,1-.0734.39634,4.60507,4.60507,0,0,1-.29358.79267,2.50057,2.50057,0,0,1-.46973.734,1.45142,1.45142,0,0,1-.46973.30826,1.565,1.565,0,0,1-.35229.02936,1.50041,1.50041,0,0,1-.83671-.22019,1.12688,1.12688,0,0,1-.44037-.455l-.08808-.22018q-.01467-.01469-.05871.01467l-.05872.05872a2.57358,2.57358,0,0,1-1.76148.822,2.00332,2.00332,0,0,1-1.42387-.58716A2.47352,2.47352,0,0,1,192.45877,117.78112Zm4.66794-2.51012a1.32894,1.32894,0,0,0-.0734-.32294,1.39562,1.39562,0,0,0-.33762-.51377.93835.93835,0,0,0-.67523-.29358,1.40869,1.40869,0,0,0-.9835.45505,3.0715,3.0715,0,0,0-.73395,1.189,11.71837,11.71837,0,0,0-.60184,2.40736v.16147a.78286.78286,0,0,1-.01468.17615,1.23278,1.23278,0,0,0,.26422.9101.94536.94536,0,0,0,.6312.26422,1.65757,1.65757,0,0,0,1.10093-.48441,2.46848,2.46848,0,0,0,.64588-.74863q.02936-.05871.39633-1.57066T197.12671,115.271Z"/>
      <path id="MJMATHI-69-3" data-name="MJMATHI-69" class="cls-3" d="M201.64674,116.06941a.58269.58269,0,0,1,.19718-.43588.686.686,0,0,1,.45664-.19719.42244.42244,0,0,1,.31134.12454.46064.46064,0,0,1,.13492.31134.59194.59194,0,0,1-.20757.43588.69427.69427,0,0,1-.45663.20757.46744.46744,0,0,1-.29059-.10379A.43059.43059,0,0,1,201.64674,116.06941Zm-1.69163,3.24834a1.1354,1.1354,0,0,1,.0934-.32172,4.98061,4.98061,0,0,1,.24908-.52928,1.71314,1.71314,0,0,1,.45663-.52929.94061.94061,0,0,1,.62269-.22831.98085.98085,0,0,1,.67457.23869.84676.84676,0,0,1,.28021.64344,2.01221,2.01221,0,0,1-.14529.58118q-.14529.40474-.41513,1.08969t-.43587,1.17273a1.7,1.7,0,0,0-.0519.3321q0,.25945.17643.25945a.68683.68683,0,0,0,.19719-.03113.70935.70935,0,0,0,.23869-.1453,1.406,1.406,0,0,0,.28021-.36323,3.01469,3.01469,0,0,0,.25945-.61231.42679.42679,0,0,1,.05189-.14529.3802.3802,0,0,1,.17643-.02076q.20757,0,.20756.10378a1.1354,1.1354,0,0,1-.0934.32172,4.08529,4.08529,0,0,1-.25945.52929,1.73285,1.73285,0,0,1-.467.5189,1.04546,1.04546,0,0,1-.64344.22832.97587.97587,0,0,1-.61231-.21794.81483.81483,0,0,1-.29058-.6642,1.04333,1.04333,0,0,1,.05189-.3321q.05188-.15567.44626-1.1831.39437-1.04819.45663-1.25575a1.72241,1.72241,0,0,0,.07265-.40474q0-.24908-.17643-.24908h-.02075a.72557.72557,0,0,0-.5708.34248,2.41812,2.41812,0,0,0-.39437.87176.12085.12085,0,0,0-.02075.03113.07967.07967,0,0,0-.01038.03114q0,.01038-.02076.02075a.07958.07958,0,0,1-.03113.01038h-.26983Q199.95511,119.34889,199.95511,119.31775Z"/>
    </g>
    <path id="MJMAIN-29-5" data-name="MJMAIN-29" class="cls-3" d="M205.66991,109.09112l.05872-.01468h.32294l.411.3523a7.24393,7.24393,0,0,1,2.011,3.112,12.00155,12.00155,0,0,1,.6312,3.87527,12.25431,12.25431,0,0,1-.14679,1.923,12.62073,12.62073,0,0,1-.33762,1.57066,6.612,6.612,0,0,1-.54312,1.29176q-.35231.64587-.55781.98349a4.46521,4.46521,0,0,1-.60184.74863q-.39633.411-.46973.48441t-.33762.2789l-.05871.05872H205.714a.08627.08627,0,0,1-.0734-.044.34548.34548,0,0,1-.044-.13211q.01467-.01467.16147-.19083,2.27524-2.36332,2.27525-6.97254t-2.27525-6.97255q-.14679-.17616-.16147-.19083A.17253.17253,0,0,1,205.66991,109.09112Z"/>
  </g>
  <rect class="cls-1" x="180.2663" y="19.24127" width="25.44966" height="25.44966"/>
  <rect class="cls-1" x="207.09823" y="19.2466" width="25.44966" height="25.44966"/>
  <rect class="cls-1" x="234.00257" y="19.25726" width="25.44966" height="25.44966"/>
  <rect class="cls-1" x="180.2663" y="46.07019" width="25.44966" height="25.44966"/>
  <rect class="cls-1" x="234.00257" y="46.08617" width="25.44966" height="25.44966"/>
  <rect class="cls-1" x="180.2663" y="73.01492" width="25.44966" height="25.44966"/>
  <rect class="cls-1" x="207.09823" y="73.02025" width="25.44966" height="25.44966"/>
  <rect class="cls-1" x="234.00257" y="73.03091" width="25.44966" height="25.44966"/>
  <circle class="cls-4" cx="192.82955" cy="32.00106" r="8.06084"/>
  <circle class="cls-4" cx="220.09227" cy="32.00106" r="8.06084"/>
  <circle class="cls-4" cx="246.70178" cy="31.93882" r="8.06084"/>
  <circle class="cls-4" cx="192.82955" cy="59.12782" r="8.06084"/>
  <circle class="cls-4" cx="246.70178" cy="59.06558" r="8.06084"/>
  <circle class="cls-4" cx="192.82955" cy="85.71247" r="8.06084"/>
  <circle class="cls-4" cx="220.09227" cy="85.84392" r="8.06084"/>
  <circle class="cls-4" cx="246.70178" cy="85.78168" r="8.06084"/>
  <rect class="cls-5" x="0.26522" y="19.22145" width="79.35433" height="79.35433"/>
  <rect class="cls-6" x="24.10756" y="42.86494" width="31.76664" height="31.76664"/>
  <rect class="cls-1" x="27.08977" y="46.06461" width="25.44966" height="25.44966"/>
  <polygon class="cls-2" points="30.439 58.789 33.074 64.08 33.074 53.498 30.439 58.789"/>
  <polygon class="cls-2" points="39.789 68.231 45.08 65.595 34.498 65.595 39.789 68.231"/>
  <polygon class="cls-2" points="49.19 58.795 46.555 53.504 46.555 64.086 49.19 58.795"/>
  <polygon class="cls-2" points="39.789 49.403 34.498 52.038 45.08 52.038 39.789 49.403"/>
  <g>
    <polyline class="cls-7" points="39.788 113.966 39.788 75.115 39.788 115.352 43.794 115.352"/>
    <polygon class="cls-8" points="42.277 117.352 43.127 115.352 42.277 113.353 47.017 115.352 42.277 117.352"/>
  </g>
  <rect class="cls-9" x="23.94079" y="42.69407" width="32.07156" height="32.08703" transform="translate(79.95313 117.47516) rotate(180)"/>
  <rect class="cls-5" x="180.26691" y="19.23817" width="79.35433" height="79.35433"/>
  <rect class="cls-6" x="204.11245" y="42.74653" width="31.76664" height="31.76664"/>
  <rect class="cls-1" x="207.09823" y="46.07552" width="25.44966" height="25.44966"/>
  <circle class="cls-4" cx="220.09227" cy="59.12782" r="8.06084"/>
  <rect class="cls-9" x="204.04863" y="42.65732" width="32.07156" height="32.08703" transform="translate(440.16882 117.40166) rotate(180)"/>
  <g>
    <polyline class="cls-9" points="212.828 115.352 220.09 115.352 220.09 78.324"/>
    <polygon class="cls-8" points="222.089 79.84 220.09 78.991 218.09 79.84 220.09 75.1 222.089 79.84"/>
  </g>
</svg>
