<svg id="Layer_1" data-name="Layer 1" xmlns="http://www.w3.org/2000/svg" viewBox="0 0 222.44617 127.30833">
  <defs>
    <style>
      .cls-1, .cls-3 {
        fill: #e7ebe8;
      }

      .cls-1, .cls-18, .cls-2 {
        opacity: 0.25;
      }

      .cls-2, .cls-4 {
        fill: #b2b3c3;
      }

      .cls-19, .cls-5 {
        fill: none;
        stroke: #f7941d;
        stroke-linejoin: round;
        stroke-width: 0.7px;
      }

      .cls-5 {
        stroke-linecap: square;
      }

      .cls-6 {
        fill: #f7941d;
      }

      .cls-7 {
        font-size: 9px;
        font-family: MyriadPro-Regular, Myriad Pro;
      }

      .cls-13, .cls-7 {
        fill: #808285;
      }

      .cls-8 {
        letter-spacing: -0.00401em;
      }

      .cls-9 {
        letter-spacing: -0.00694em;
      }

      .cls-10 {
        letter-spacing: -0.01009em;
      }

      .cls-11 {
        letter-spacing: 0.01291em;
      }

      .cls-12 {
        letter-spacing: 0.00011em;
      }

      .cls-14 {
        letter-spacing: -0.00705em;
      }

      .cls-15 {
        letter-spacing: -0.00998em;
      }

      .cls-16 {
        letter-spacing: -0.00597em;
      }

      .cls-17, .cls-18 {
        fill: #cac9cc;
      }
    </style>
  </defs>
  <title>better-qfunc-intro-2</title>
  <rect class="cls-1" x="0.59212" y="24.15462" width="25.44966" height="25.44966"/>
  <polygon class="cls-2" points="3.942 36.879 6.577 42.17 6.577 31.588 3.942 36.879"/>
  <polygon class="cls-2" points="13.291 46.321 18.582 43.685 8.001 43.685 13.291 46.321"/>
  <polygon class="cls-2" points="22.692 36.885 20.057 31.594 20.057 42.176 22.692 36.885"/>
  <polygon class="cls-2" points="13.291 27.493 8.001 30.128 18.582 30.128 13.291 27.493"/>
  <rect class="cls-1" x="27.42404" y="24.15994" width="25.44966" height="25.44966"/>
  <polygon class="cls-2" points="30.774 36.884 33.409 42.175 33.409 31.593 30.774 36.884"/>
  <polygon class="cls-2" points="40.123 46.326 45.414 43.691 34.832 43.691 40.123 46.326"/>
  <polygon class="cls-2" points="49.524 36.89 46.889 31.599 46.889 42.181 49.524 36.89"/>
  <polygon class="cls-2" points="40.123 27.498 34.832 30.133 45.414 30.133 40.123 27.498"/>
  <rect class="cls-1" x="54.32838" y="24.1706" width="25.44966" height="25.44966"/>
  <polygon class="cls-2" points="57.678 36.895 60.313 42.186 60.313 31.604 57.678 36.895"/>
  <polygon class="cls-2" points="67.028 46.337 72.318 43.701 61.737 43.701 67.028 46.337"/>
  <polygon class="cls-2" points="76.428 36.901 73.793 31.61 73.793 42.192 76.428 36.901"/>
  <polygon class="cls-2" points="67.028 27.509 61.737 30.144 72.318 30.144 67.028 27.509"/>
  <rect class="cls-1" x="0.59212" y="50.98354" width="25.44966" height="25.44966"/>
  <polygon class="cls-2" points="3.942 63.708 6.577 68.999 6.577 58.417 3.942 63.708"/>
  <polygon class="cls-2" points="13.291 73.149 18.582 70.514 8.001 70.514 13.291 73.149"/>
  <polygon class="cls-2" points="22.692 63.714 20.057 58.423 20.057 69.004 22.692 63.714"/>
  <polygon class="cls-2" points="13.291 54.322 8.001 56.957 18.582 56.957 13.291 54.322"/>
  <rect class="cls-3" x="27.42404" y="50.98886" width="25.44966" height="25.44966"/>
  <polygon class="cls-4" points="30.774 63.713 33.409 69.004 33.409 58.422 30.774 63.713"/>
  <polygon class="cls-4" points="40.123 73.155 45.414 70.52 34.832 70.52 40.123 73.155"/>
  <polygon class="cls-4" points="49.524 63.719 46.889 58.428 46.889 69.01 49.524 63.719"/>
  <polygon class="cls-4" points="40.123 54.327 34.832 56.962 45.414 56.962 40.123 54.327"/>
  <rect class="cls-1" x="54.32838" y="50.99952" width="25.44966" height="25.44966"/>
  <polygon class="cls-2" points="57.678 63.724 60.313 69.015 60.313 58.433 57.678 63.724"/>
  <polygon class="cls-2" points="67.028 73.165 72.318 70.53 61.737 70.53 67.028 73.165"/>
  <polygon class="cls-2" points="76.428 63.73 73.793 58.439 73.793 69.02 76.428 63.73"/>
  <polygon class="cls-2" points="67.028 54.338 61.737 56.973 72.318 56.973 67.028 54.338"/>
  <rect class="cls-1" x="0.59212" y="77.92827" width="25.44966" height="25.44966"/>
  <polygon class="cls-2" points="3.942 90.653 6.577 95.943 6.577 85.362 3.942 90.653"/>
  <polygon class="cls-2" points="13.291 100.094 18.582 97.459 8.001 97.459 13.291 100.094"/>
  <polygon class="cls-2" points="22.692 90.658 20.057 85.368 20.057 95.949 22.692 90.658"/>
  <polygon class="cls-2" points="13.291 81.267 8.001 83.902 18.582 83.902 13.291 81.267"/>
  <rect class="cls-1" x="27.42404" y="77.9336" width="25.44966" height="25.44966"/>
  <polygon class="cls-2" points="30.774 90.658 33.409 95.949 33.409 85.367 30.774 90.658"/>
  <polygon class="cls-2" points="40.123 100.1 45.414 97.464 34.832 97.464 40.123 100.1"/>
  <polygon class="cls-2" points="49.524 90.664 46.889 85.373 46.889 95.955 49.524 90.664"/>
  <polygon class="cls-2" points="40.123 81.272 34.832 83.907 45.414 83.907 40.123 81.272"/>
  <rect class="cls-1" x="54.32838" y="77.94425" width="25.44966" height="25.44966"/>
  <polygon class="cls-2" points="57.678 90.669 60.313 95.959 60.313 85.378 57.678 90.669"/>
  <polygon class="cls-2" points="67.028 100.11 72.318 97.475 61.737 97.475 67.028 100.11"/>
  <polygon class="cls-2" points="76.428 90.674 73.793 85.384 73.793 95.965 76.428 90.674"/>
  <polygon class="cls-2" points="67.028 81.283 61.737 83.918 72.318 83.918 67.028 81.283"/>
  <g>
    <polyline class="cls-5" points="40.122 112.325 40.122 80.039 40.122 113.477 44.928 113.477"/>
    <polygon class="cls-6" points="43.788 114.981 44.427 113.477 43.788 111.974 47.352 113.477 43.788 114.981"/>
  </g>
  <g>
    <text class="cls-7" transform="translate(0.34901 7.7352)"><tspan xml:space="preserve">            : </tspan><tspan class="cls-8" x="26.66602" y="0">v</tspan><tspan x="30.95898" y="0">alue </tspan><tspan class="cls-9" x="48.7959" y="0">o</tspan><tspan class="cls-10" x="53.6748" y="0">v</tspan><tspan x="57.91309" y="0">er</tspan><tspan x="0" y="10.7998">a</tspan><tspan class="cls-11" x="4.33789" y="10.7998">c</tspan><tspan class="cls-12" x="8.48633" y="10.7998" xml:space="preserve">tions (              )</tspan></text>
    <g>
      <polygon class="cls-4" points="33.526 15.982 35.21 19.365 35.21 12.6 33.526 15.982"/>
      <polygon class="cls-4" points="40.712 14.209 37.33 15.894 44.095 15.894 40.712 14.209"/>
      <polygon class="cls-4" points="47.936 15.986 46.251 12.604 46.251 19.369 47.936 15.986"/>
      <polygon class="cls-4" points="53.649 17.609 57.031 15.924 50.266 15.924 53.649 17.609"/>
    </g>
    <g>
      <path id="MJMATHI-51" class="cls-13" d="M2.8137,8.15253q0-.26114.00791-.39566a.78146.78146,0,0,1,.01583-.15035V7.57487l-.1187.03165a2.87865,2.87865,0,0,1-.66471.08705A2.0045,2.0045,0,0,1,.74836,7.24252,2.01946,2.01946,0,0,1,.05992,5.92893Q.052,5.86563.052,5.58867A3.27365,3.27365,0,0,1,.43184,4.05351,4.4319,4.4319,0,0,1,1.45263,2.76367,3.08652,3.08652,0,0,1,3.423,1.94861q.3007,0,.37983.00792a1.884,1.884,0,0,1,1.23446.68053,2.231,2.231,0,0,1,.47478,1.44019A3.6005,3.6005,0,0,1,4.34094,6.67277a3.79523,3.79523,0,0,1-1.03663.7201l-.13452.0633v.03957q0,.00791.03957.21365a.62274.62274,0,0,0,.16617.33236.49272.49272,0,0,0,.364.12661.92189.92189,0,0,0,.53018-.17409.80508.80508,0,0,0,.33235-.45105q.04747-.11079.10287-.11079a.08139.08139,0,0,1,.08705.07122,1.18378,1.18378,0,0,1-.07913.28487q-.07914.22158-.22157.52227a1.37381,1.37381,0,0,1-.42731.51436,1.07988,1.07988,0,0,1-.6014.22948q-.64888,0-.64888-.84671ZM4.68912,3.81612a2.20889,2.20889,0,0,0-.1187-.75966A1.0402,1.0402,0,0,0,4.246,2.57375a1.78382,1.78382,0,0,0-.39566-.23739,1.08,1.08,0,0,0-.4194-.07913,1.72631,1.72631,0,0,0-.77549.19783A2.849,2.849,0,0,0,1.35768,3.84777,4.45605,4.45605,0,0,0,.86706,5.81023,1.63434,1.63434,0,0,0,1.29437,7.0526a.74342.74342,0,0,0,.22948.16618V7.15547A.82764.82764,0,0,1,1.785,6.5699a.86019.86019,0,0,1,.61722-.277.64.64,0,0,1,.34027.087.54707.54707,0,0,1,.21365.2374,1.30237,1.30237,0,0,1,.095.25322q.02375.10287.04748.21365L3.20144,7.013A2.93052,2.93052,0,0,0,4.064,6.05554a4.32029,4.32029,0,0,0,.49061-1.17906A4.6314,4.6314,0,0,0,4.68912,3.81612ZM2.14108,7.377a1.57056,1.57056,0,0,0,.71218-.16618l-.00791-.07913q-.03165-.43522-.29279-.52227a.96863.96863,0,0,0-.15035-.01582H2.35473a.04581.04581,0,0,1-.03165-.00792.482.482,0,0,0-.32444.15827.51859.51859,0,0,0-.17409.364Q1.82455,7.377,2.14108,7.377Z"/>
      <path id="MJMAIN-28" class="cls-13" d="M6.65949,5.54119a6.50923,6.50923,0,0,1,.07913-1.03663,7.25353,7.25353,0,0,1,.182-.8467,3.31332,3.31332,0,0,1,.29278-.69636q.18992-.34028.3007-.53018a2.10166,2.10166,0,0,1,.33236-.41149q.22157-.22156.26113-.269a1.42647,1.42647,0,0,1,.19783-.16617H8.44q.11079,0,.11079.07122a.6395.6395,0,0,1-.13453.16617,3.59416,3.59416,0,0,0-.32444.4194,5.47506,5.47506,0,0,0-.38774.68053,4.50155,4.50155,0,0,0-.33235,1.092,7.986,7.986,0,0,0-.13453,1.52724,7.8618,7.8618,0,0,0,.13453,1.51932,5.13912,5.13912,0,0,0,.32444,1.09993,3.58373,3.58373,0,0,0,.38774.68053q.19783.26113.33235.4194a1.78593,1.78593,0,0,1,.13453.16618q0,.07122-.1187.07122H8.30543l-.22157-.18992a3.905,3.905,0,0,1-1.0841-1.67759A6.46964,6.46964,0,0,1,6.65949,5.54119Z"/>
      <path id="MJMATHI-73" class="cls-13" d="M10.03841,5.23257a1.17277,1.17277,0,0,1,.12661-.51435,1.30184,1.30184,0,0,1,.44314-.4827,1.26435,1.26435,0,0,1,.76758-.21366.99974.99974,0,0,1,.71218.21366.67794.67794,0,0,1,.22948.47479.47125.47125,0,0,1-.13452.37191.47934.47934,0,0,1-.3007.12661.3161.3161,0,0,1-.18992-.0633.256.256,0,0,1-.095-.20574.35907.35907,0,0,1,.07122-.22157.71055.71055,0,0,1,.13453-.14244.1915.1915,0,0,1,.10287-.04748.007.007,0,0,0,.00791-.00791q0-.02375-.05539-.07122a.54045.54045,0,0,0-.19783-.087,1.39969,1.39969,0,0,0-.30861-.04748.66933.66933,0,0,0-.73593.62514.28608.28608,0,0,0,.15035.277,1.64146,1.64146,0,0,0,.43523.13452,1.7344,1.7344,0,0,1,.41148.1187.78206.78206,0,0,1,.52227.75966,1.20419,1.20419,0,0,1-.08705.44314,1.77024,1.77024,0,0,1-.26113.44314,1.14481,1.14481,0,0,1-.49853.34818,2.149,2.149,0,0,1-.74384.13452,1.28,1.28,0,0,1-.86253-.22948.73212.73212,0,0,1-.26113-.5381.53816.53816,0,0,1,.16617-.44313.54639.54639,0,0,1,.34818-.13453.38181.38181,0,0,1,.22157.07122.29459.29459,0,0,1,.11078.24531.47365.47365,0,0,1-.14243.34818.38974.38974,0,0,1-.24531.14243.06072.06072,0,0,1-.02374.00792q-.00792,0-.00791.01582a.17093.17093,0,0,0,.0633.06331,1.10457,1.10457,0,0,0,.24531.10287,1.55646,1.55646,0,0,0,.92584-.03165.67986.67986,0,0,0,.3007-.22157,1.05028,1.05028,0,0,0,.13452-.24531.59683.59683,0,0,0,.03957-.19783.37279.37279,0,0,0-.16618-.33235.841.841,0,0,0-.37983-.13452,1.95892,1.95892,0,0,1-.46688-.1187.73235.73235,0,0,1-.37191-.277A.79649.79649,0,0,1,10.03841,5.23257Z"/>
      <path id="MJMAIN-2C" class="cls-13" d="M13.33029,7.24252V7.04469a.49484.49484,0,0,1,.12661-.34027.4325.4325,0,0,1,.34026-.14244.5173.5173,0,0,1,.39566.19783,1.09243,1.09243,0,0,1,.182.69636,2.03585,2.03585,0,0,1-.07122.5381,2.46,2.46,0,0,1-.16617.45105,1.71691,1.71691,0,0,1-.20574.32444q-.11079.13452-.18992.21365t-.10287.07122q-.03165,0-.10287-.07122t-.07122-.10287q0-.03165.087-.12661t.19783-.23739a1.51881,1.51881,0,0,0,.20575-.39566,2.27367,2.27367,0,0,0,.12661-.57766v-.095l-.00792.00791a.30719.30719,0,0,1-.03956.01583.19938.19938,0,0,0-.04748.02374.12953.12953,0,0,1-.07122.01582.57621.57621,0,0,0-.095.00792.4711.4711,0,0,1-.34818-.13453Z"/>
      <path id="MJMATHI-61" class="cls-13" d="M16.49555,6.27711a2.33847,2.33847,0,0,1,.6014-1.51933,1.77082,1.77082,0,0,1,1.35315-.728.89708.89708,0,0,1,.71218.38775.396.396,0,0,1,.364-.2374.28314.28314,0,0,1,.182.06331.19485.19485,0,0,1,.07913.15826q0,.10287-.29278,1.26611t-.3007,1.31358a.42336.42336,0,0,0,.05539.26114.23244.23244,0,0,0,.16617.07121.3438.3438,0,0,0,.15827-.07121,1.79441,1.79441,0,0,0,.32444-.75967q.04748-.15826.07913-.16617a.23127.23127,0,0,1,.07913-.00792h.03165q.15036,0,.15035.07122a1.25752,1.25752,0,0,1-.03956.21366,2.48231,2.48231,0,0,1-.15827.42731,1.348,1.348,0,0,1-.25322.39566.78231.78231,0,0,1-.25322.16617.8436.8436,0,0,1-.18991.01583.80882.80882,0,0,1-.45105-.1187.60748.60748,0,0,1-.2374-.24531l-.04748-.11869q-.0079-.00792-.03165.00791l-.03165.03165a1.38735,1.38735,0,0,1-.94958.44314,1.08,1.08,0,0,1-.76758-.31653A1.33342,1.33342,0,0,1,16.49555,6.27711ZM19.01193,4.924a.71617.71617,0,0,0-.03956-.17409.75241.75241,0,0,0-.182-.277.50583.50583,0,0,0-.364-.15826.75936.75936,0,0,0-.53018.24531,1.65564,1.65564,0,0,0-.39566.641,6.31765,6.31765,0,0,0-.32444,1.29776v.087a.42215.42215,0,0,1-.00791.095.66461.66461,0,0,0,.14243.49062.50962.50962,0,0,0,.34027.14243.89354.89354,0,0,0,.59349-.26113,1.33065,1.33065,0,0,0,.34818-.40357q.01583-.03165.21365-.84671T19.01193,4.924Z"/>
      <path id="MJMAIN-29" class="cls-13" d="M20.90318,1.59252l.03165-.00791h.17409l.22157.18991a3.9051,3.9051,0,0,1,1.0841,1.67759,6.46966,6.46966,0,0,1,.34027,2.08908,6.6065,6.6065,0,0,1-.07913,1.03662,6.80484,6.80484,0,0,1-.182.84671,3.564,3.564,0,0,1-.29278.69636q-.18991.34818-.3007.53018a2.40782,2.40782,0,0,1-.32444.40357q-.21366.22157-.25322.26113t-.182.15035l-.03165.03166h-.182a.04652.04652,0,0,1-.03957-.02374.18643.18643,0,0,1-.02374-.07122q.00792-.00792.087-.10287A5.21835,5.21835,0,0,0,22.1772,5.54119a5.21833,5.21833,0,0,0-1.22654-3.75875q-.07914-.095-.087-.10287A.093.093,0,0,1,20.90318,1.59252Z"/>
    </g>
  </g>
  <g>
    <text class="cls-7" transform="translate(110.47035 8.00064)"><tspan xml:space="preserve">         : </tspan><tspan class="cls-8" x="20.94238" y="0">v</tspan><tspan x="25.23535" y="0">alue </tspan><tspan class="cls-14" x="43.07227" y="0">o</tspan><tspan class="cls-15" x="47.9502" y="0">v</tspan><tspan x="52.18945" y="0">er</tspan><tspan x="0" y="10.7998">st</tspan><tspan class="cls-8" x="6.54297" y="10.7998">a</tspan><tspan class="cls-16" x="10.84473" y="10.7998">t</tspan><tspan x="13.76953" y="10.7998" xml:space="preserve">es (     )</tspan></text>
    <circle class="cls-17" cx="141.72108" cy="16.21397" r="3.1636"/>
    <g>
      <path id="MJMATHI-56" class="cls-13" d="M110.57777,2.54015a.39782.39782,0,0,1,.10935-.2944h.09253q.35328.02523.8832.02523.99255,0,1.16919-.02523h.08411q.05047.05046.05047.0757t-.01682.15141a.46354.46354,0,0,1-.0757.15982h-.17664q-.18506.01681-.25235.01682-.24393.04206-.26916.12617,0,.01682.24393,2.11127t.25234,2.11127l.614-.98414q.614-.98414,1.22807-1.9851t.63086-1.0346a.25021.25021,0,0,0,.03364-.12617q0-.20188-.3701-.23552-.15141,0-.15141-.09253,0-.00842.01683-.10935a.45277.45277,0,0,1,.05046-.15141.13356.13356,0,0,1,.10935-.03364h.10094q.08412,0,.286.00841t.53833.00841q.5804,0,.7318-.01682h.05888q.05888.05888.05888.09252a.5145.5145,0,0,1-.07571.26917.24066.24066,0,0,1-.143.02524q-.10935.0084-.20188.01682a.62528.62528,0,0,0-.17664.04206q-.08411.03364-.13458.05888a.52675.52675,0,0,0-.10094.06729.471.471,0,0,1-.08411.05888.1828.1828,0,0,0-.06729.0757q-.03365.05888-.05888.05888l-1.62341,2.60755q-1.51406,2.44773-1.56453,2.50661-.02523.01681-.05888.04205l-.1514.00842h-.05888q-.15141,0-.15141-.05889-.02523-.05046-.32805-2.69166-.31963-2.67483-.328-2.70007-.04206-.09252-.52151-.09252h-.143A.11655.11655,0,0,1,110.57777,2.54015Z"/>
      <path id="MJMAIN-28-2" data-name="MJMAIN-28" class="cls-13" d="M117.39945,5.8879a6.91818,6.91818,0,0,1,.08412-1.1019,7.70757,7.70757,0,0,1,.19346-.9,3.52252,3.52252,0,0,1,.31122-.74021q.20189-.3617.31964-.56356a2.234,2.234,0,0,1,.35328-.4374q.23551-.23552.27758-.286a1.51623,1.51623,0,0,1,.21028-.17664h.143q.11775,0,.11776.07571a.67986.67986,0,0,1-.143.17664,3.81932,3.81932,0,0,0-.34487.4458,5.82,5.82,0,0,0-.41216.72339,4.78521,4.78521,0,0,0-.35328,1.16077,8.48966,8.48966,0,0,0-.143,1.62341,8.35763,8.35763,0,0,0,.143,1.615,5.46288,5.46288,0,0,0,.34487,1.16919,3.80938,3.80938,0,0,0,.41216.72338q.21028.27759.35328.44581a1.9,1.9,0,0,1,.143.17664q0,.07571-.12617.0757H119.149l-.23552-.20187a4.151,4.151,0,0,1-1.15237-1.78323A6.8774,6.8774,0,0,1,117.39945,5.8879Z"/>
      <path id="MJMATHI-73-2" data-name="MJMATHI-73" class="cls-13" d="M120.99114,5.55986a1.24655,1.24655,0,0,1,.13458-.54675,1.38382,1.38382,0,0,1,.471-.51309,1.34392,1.34392,0,0,1,.81591-.22711,1.0627,1.0627,0,0,1,.757.22711.72062.72062,0,0,1,.24393.50468.50094.50094,0,0,1-.143.39534.50965.50965,0,0,1-.31964.13458.336.336,0,0,1-.20187-.06729.27216.27216,0,0,1-.10094-.2187.38175.38175,0,0,1,.0757-.23552.75554.75554,0,0,1,.143-.1514.20353.20353,0,0,1,.10935-.05047.00743.00743,0,0,0,.00841-.00841q0-.02525-.05888-.07571a.57466.57466,0,0,0-.21029-.09252,1.48822,1.48822,0,0,0-.328-.05047.71148.71148,0,0,0-.78227.6645.30408.30408,0,0,0,.15982.2944,1.7443,1.7443,0,0,0,.46263.143,1.84315,1.84315,0,0,1,.43739.12617.8313.8313,0,0,1,.55516.8075,1.27987,1.27987,0,0,1-.09253.471,1.88161,1.88161,0,0,1-.27757.471,1.21685,1.21685,0,0,1-.52992.3701,2.284,2.284,0,0,1-.79068.143,1.3606,1.3606,0,0,1-.91685-.24393.7782.7782,0,0,1-.27757-.572.572.572,0,0,1,.17664-.471.58079.58079,0,0,1,.3701-.143.40586.40586,0,0,1,.23552.07571.31313.31313,0,0,1,.11776.26075.50341.50341,0,0,1-.15141.3701.41422.41422,0,0,1-.26075.15141.06454.06454,0,0,1-.02524.00841q-.0084,0-.00841.01682a.1818.1818,0,0,0,.06729.0673,1.17512,1.17512,0,0,0,.26076.10934,1.65445,1.65445,0,0,0,.98414-.03364.72262.72262,0,0,0,.31963-.23552,1.11678,1.11678,0,0,0,.143-.26076.63433.63433,0,0,0,.042-.21028.39625.39625,0,0,0-.17664-.35328.89419.89419,0,0,0-.40374-.143,2.08161,2.08161,0,0,1-.49628-.12617.77843.77843,0,0,1-.39534-.2944A.84665.84665,0,0,1,120.99114,5.55986Z"/>
      <path id="MJMAIN-29-2" data-name="MJMAIN-29" class="cls-13" d="M124.33889,1.69059l.03365-.00841h.18505l.23552.20188a4.151,4.151,0,0,1,1.15237,1.78322,6.87744,6.87744,0,0,1,.36169,2.22062,7.02156,7.02156,0,0,1-.08412,1.1019,7.23113,7.23113,0,0,1-.19346.9,3.78865,3.78865,0,0,1-.31122.7402q-.20187.37011-.31964.56357a2.55826,2.55826,0,0,1-.34487.429q-.2271.23553-.26916.27758t-.19347.15982l-.03364.03364h-.19346a.04942.04942,0,0,1-.04206-.02523.198.198,0,0,1-.02524-.0757q.00842-.00841.09253-.10935a5.54694,5.54694,0,0,0,1.30377-3.99544,5.54693,5.54693,0,0,0-1.30377-3.99543q-.08412-.10093-.09253-.10935A.09888.09888,0,0,1,124.33889,1.69059Z"/>
    </g>
  </g>
  <g>
    <path id="MJMATHI-56-2" data-name="MJMATHI-56" class="cls-13" d="M49.59616,110.36205a.41038.41038,0,0,1,.1128-.30369h.09545q.36443.026.91107.026,1.02387,0,1.20609-.026h.08677q.05207.05206.05206.07809t-.01735.15619a.47824.47824,0,0,1-.07809.16486h-.18222q-.19089.01736-.26031.01735-.25162.04338-.27766.13016,0,.01734.25163,2.1779t.26031,2.1779l.63341-1.0152q.63342-1.0152,1.26683-2.04775t.65077-1.06726a.258.258,0,0,0,.03471-.13015q0-.20824-.38179-.243-.15618,0-.15618-.09545,0-.00867.01735-.1128a.46717.46717,0,0,1,.05206-.15618.13776.13776,0,0,1,.1128-.03471h.10413q.08676,0,.295.00868t.55532.00867q.59871,0,.75489-.01735h.06074q.06073.06074.06074.09545a.53077.53077,0,0,1-.07809.27766.24835.24835,0,0,1-.14751.026q-.1128.00867-.20825.01735a.64534.64534,0,0,0-.18221.04339q-.08677.03469-.13883.06073a.54342.54342,0,0,0-.10412.06942.48556.48556,0,0,1-.08677.06074.18861.18861,0,0,0-.06942.07809q-.03471.06073-.06074.06074l-1.67464,2.68984q-1.56185,2.525-1.6139,2.58571-.026.01736-.06074.04339l-.15618.00868h-.06074q-.15619,0-.15619-.06074-.026-.05207-.3384-2.77661-.32972-2.75925-.3384-2.78529-.04338-.09545-.538-.09544H49.6569A.12021.12021,0,0,1,49.59616,110.36205Z"/>
    <path id="MJMAIN-28-3" data-name="MJMAIN-28" class="cls-13" d="M56.63313,113.81546a7.13646,7.13646,0,0,1,.08677-1.13668,7.95082,7.95082,0,0,1,.19957-.92842,3.63336,3.63336,0,0,1,.321-.76357q.20824-.37311.32972-.58135a2.30484,2.30484,0,0,1,.36443-.4512q.243-.243.28634-.295a1.56436,1.56436,0,0,1,.21692-.18221h.14751q.12148,0,.12148.07809a.70129.70129,0,0,1-.14751.18222,3.93881,3.93881,0,0,0-.35575.45987,6.0027,6.0027,0,0,0-.42517.74621,4.93636,4.93636,0,0,0-.36443,1.19742,8.75735,8.75735,0,0,0-.14751,1.67464,8.62108,8.62108,0,0,0,.14751,1.666,5.63525,5.63525,0,0,0,.35575,1.20609,3.93008,3.93008,0,0,0,.42517.74622q.21693.28633.36443.45987a1.95837,1.95837,0,0,1,.14751.18222q0,.07809-.13016.07809h-.13883l-.243-.20825a4.282,4.282,0,0,1-1.18874-1.8395A7.09442,7.09442,0,0,1,56.63313,113.81546Z"/>
    <path id="MJMATHI-73-3" data-name="MJMATHI-73" class="cls-13" d="M60.33816,113.47706a1.28578,1.28578,0,0,1,.13884-.564,1.4275,1.4275,0,0,1,.4859-.52929,1.38642,1.38642,0,0,1,.84166-.23428,1.09626,1.09626,0,0,1,.78092.23428.74337.74337,0,0,1,.25163.52061.51675.51675,0,0,1-.14751.40782.52568.52568,0,0,1-.32972.13883.34654.34654,0,0,1-.20824-.06942.28073.28073,0,0,1-.10413-.2256.3937.3937,0,0,1,.0781-.24295.77952.77952,0,0,1,.1475-.15618.21.21,0,0,1,.1128-.05206.00767.00767,0,0,0,.00868-.00868q0-.026-.06074-.07809a.59257.59257,0,0,0-.21692-.09545,1.53514,1.53514,0,0,0-.3384-.05206.73392.73392,0,0,0-.807.68547.31368.31368,0,0,0,.16486.3037,1.79968,1.79968,0,0,0,.47723.1475,1.90132,1.90132,0,0,1,.4512.13016.85753.85753,0,0,1,.57267.833,1.32041,1.32041,0,0,1-.09544.48591,1.94109,1.94109,0,0,1-.28634.4859,1.25528,1.25528,0,0,1-.54665.38179,2.356,2.356,0,0,1-.81562.1475,1.4035,1.4035,0,0,1-.94579-.25163.80277.80277,0,0,1-.28633-.59.59008.59008,0,0,1,.18221-.4859.59914.59914,0,0,1,.38178-.14751.41869.41869,0,0,1,.243.07809.323.323,0,0,1,.12147.269.51932.51932,0,0,1-.15618.38178.42732.42732,0,0,1-.269.15618.06655.06655,0,0,1-.026.00868q-.00868,0-.00868.01735a.18742.18742,0,0,0,.06941.06942,1.212,1.212,0,0,0,.269.1128,1.70655,1.70655,0,0,0,1.0152-.03471.74541.74541,0,0,0,.32972-.243,1.15231,1.15231,0,0,0,.14751-.269.6545.6545,0,0,0,.04338-.21692.40878.40878,0,0,0-.18222-.36443.92243.92243,0,0,0-.41649-.14751,2.14692,2.14692,0,0,1-.51193-.13015.80294.80294,0,0,1-.40782-.30369A.87339.87339,0,0,1,60.33816,113.47706Z"/>
    <path id="MJMAIN-29-3" data-name="MJMAIN-29" class="cls-13" d="M63.79157,109.48568l.03471-.00867h.19089l.243.20824a4.28192,4.28192,0,0,1,1.18874,1.83951,7.09416,7.09416,0,0,1,.37311,2.2907,7.24433,7.24433,0,0,1-.08677,1.13667,7.4609,7.4609,0,0,1-.19957.92843,3.90813,3.90813,0,0,1-.321.76357q-.20824.38178-.32972.58135a2.63931,2.63931,0,0,1-.35575.44252q-.23429.243-.27766.28634t-.19957.16486l-.03471.03471H63.8176a.051.051,0,0,1-.04338-.026.20425.20425,0,0,1-.026-.07809q.00867-.00869.09544-.1128a6.98771,6.98771,0,0,0,0-8.24306q-.08676-.10411-.09544-.1128A.102.102,0,0,1,63.79157,109.48568Z"/>
    <path id="MJMAIN-3D" class="cls-13" d="M69.54436,112.9738a.189.189,0,0,1,.12147-.17354H75.193a.20177.20177,0,0,1,.13015.17354.19686.19686,0,0,1-.12147.16486l-2.75926.00868H69.68319A.172.172,0,0,1,69.54436,112.9738Zm0,1.68332a.172.172,0,0,1,.13883-.17354H75.2017q.12147.08678.12147.17354a.18973.18973,0,0,1-.13015.17354H69.66583A.189.189,0,0,1,69.54436,114.65712Z"/>
    <g>
      <path id="MJSZ2-2211" class="cls-13" d="M78.75055,107.759q.026-.01735,5.24952-.01735h5.2235l.50326,1.17138q.51193,1.19741.54664,1.26683H89.9264l-.06074-.12148a2.9317,2.9317,0,0,0-.48591-.6768,3.642,3.642,0,0,0-.96313-.66812,4.75146,4.75146,0,0,0-1.22345-.37311,10.0934,10.0934,0,0,0-1.31021-.1475q-.61606-.026-1.58787-.03471H80.40784l.06941.09545q4.0174,5.49248,4.03476,5.54453a.07817.07817,0,0,1,0,.05207q-.026.026-2.2907,2.62042l-2.2907,2.60307q0,.00867,1.83082.00868h1.22345q.77224,0,1.11064.00867,1.18007,0,1.90892-.04338a11.1446,11.1446,0,0,0,1.449-.18222,3.99584,3.99584,0,0,0,1.22344-.42516,3.254,3.254,0,0,0,.89372-.75489,2.74994,2.74994,0,0,0,.35576-.62474h.34707q0,.00867-.06074.18221t-.21692.564q-.15618.39046-.269.72886l-.50326,1.34492-5.21482.00868q-5.22349,0-5.24952-.01735a.07372.07372,0,0,1-.05207-.0781.13321.13321,0,0,1,.01736-.05206l4.62479-5.29291q0-.00867-.28634-.39046t-.91108-1.24947q-.62474-.86769-1.128-1.54449l-2.30806-3.16707-.00868-.13015Q78.70716,107.785,78.75055,107.759Z"/>
      <path id="MJMATHI-69" class="cls-13" d="M84.56081,121.72664a.34441.34441,0,0,1,.11656-.25765.40542.40542,0,0,1,.26992-.11656.24967.24967,0,0,1,.184.07362.27222.27222,0,0,1,.07975.184.3499.3499,0,0,1-.12269.25766.41042.41042,0,0,1-.26992.12269.27632.27632,0,0,1-.17177-.06135A.25456.25456,0,0,1,84.56081,121.72664Zm-.99994,1.92012a.67118.67118,0,0,1,.05522-.19017,2.94173,2.94173,0,0,1,.14723-.31286,1.01249,1.01249,0,0,1,.26992-.31287.556.556,0,0,1,.36807-.135.57978.57978,0,0,1,.39875.1411.50052.50052,0,0,1,.16563.38034,1.18955,1.18955,0,0,1-.08588.34354q-.08589.23925-.24539.64413t-.25765.6932a1.005,1.005,0,0,0-.03067.19631q0,.15336.10429.15336a.40576.40576,0,0,0,.11655-.0184.4194.4194,0,0,0,.1411-.08588.8312.8312,0,0,0,.16563-.21471,1.78229,1.78229,0,0,0,.15337-.36194.25216.25216,0,0,1,.03067-.08589.22475.22475,0,0,1,.10429-.01227q.12268,0,.12269.06135a.671.671,0,0,1-.05521.19017,2.4148,2.4148,0,0,1-.15337.31286,1.02413,1.02413,0,0,1-.276.30673.61793.61793,0,0,1-.38035.135.57686.57686,0,0,1-.36194-.12882.48167.48167,0,0,1-.17176-.39262.61674.61674,0,0,1,.03067-.1963q.03067-.092.26379-.69934.23312-.61959.26992-.74229a1.01789,1.01789,0,0,0,.04294-.23924q0-.14724-.10429-.14723h-.01227a.42888.42888,0,0,0-.3374.20244,1.42929,1.42929,0,0,0-.23311.5153.07133.07133,0,0,0-.01227.0184.04713.04713,0,0,0-.00614.01841q0,.00613-.01227.01227a.047.047,0,0,1-.0184.00613h-.1595Q83.56087,123.66516,83.56087,123.64676Z"/>
    </g>
    <path id="MJMATHI-70" class="cls-13" d="M94.57722,113.49441a.60232.60232,0,0,0,.01735-.06941q.00867-.0434.04338-.19089a1.632,1.632,0,0,1,.08677-.269q.05206-.12147.13016-.28634a.92559.92559,0,0,1,.17353-.2603,1.94739,1.94739,0,0,1,.2256-.19089.39517.39517,0,0,1,.28634-.0781.78345.78345,0,0,1,.833.55533l.08677-.0781a1.58779,1.58779,0,0,1,1.02388-.47723,1.06423,1.06423,0,0,1,.885.40782,1.55,1.55,0,0,1,.321.98916,2.63653,2.63653,0,0,1-.65945,1.72671,1.94852,1.94852,0,0,1-1.49242.79827,1.01417,1.01417,0,0,1-.3384-.05206.89841.89841,0,0,1-.19957-.13015q-.10413-.08678-.16486-.14751l-.06074-.06941q-.00869.00867-.19089.75489t-.18222.75489q0,.052.06942.06073t.321.026h.21692q.05207.06073.05207.07809t-.026.15618a.32.32,0,0,1-.05206.13015.19663.19663,0,0,1-.1128.03471h-.09544q-.07809,0-.295-.00867t-.538-.00868q-.60739,0-.77225.01735H94.1q-.06075-.06074-.06074-.09544a.40382.40382,0,0,1,.1128-.30369h.17354q.295-.00868.33839-.10413.026-.05206.5293-2.07378t.52929-2.14319a.65544.65544,0,0,0,.00867-.12148q0-.35576-.21692-.35575a.37614.37614,0,0,0-.321.24295,2.22588,2.22588,0,0,0-.19957.52929.93753.93753,0,0,1-.10413.31237.28716.28716,0,0,1-.13883.01736h-.12147Q94.57722,113.52045,94.57722,113.49441Zm1.34492,1.60523q.19089.65945.64209.65944a.78564.78564,0,0,0,.50326-.19956,1.57074,1.57074,0,0,0,.39913-.50326,4.33568,4.33568,0,0,0,.31237-.93711,5.09686,5.09686,0,0,0,.16486-.95446v-.05206q0-.64209-.52929-.64209a.72286.72286,0,0,0-.19089.026.885.885,0,0,0-.19089.07809,1.28189,1.28189,0,0,0-.17354.1128,1.58268,1.58268,0,0,0-.14751.13015l-.13015.13016a.58391.58391,0,0,0-.09545.12148.28307.28307,0,0,1-.06941.08676l-.026.03471q0,.00869-.026.12148t-.09545.38178q-.06942.269-.12148.4512Q95.92215,115.06494,95.92214,115.09964Z"/>
    <path id="MJMAIN-28-4" data-name="MJMAIN-28" class="cls-13" d="M99.55776,113.81546a7.13646,7.13646,0,0,1,.08677-1.13668,7.951,7.951,0,0,1,.19956-.92842,3.6334,3.6334,0,0,1,.321-.76357q.20825-.37311.32972-.58135a2.30484,2.30484,0,0,1,.36443-.4512q.243-.243.28634-.295a1.56436,1.56436,0,0,1,.21692-.18221h.14751q.12147,0,.12148.07809a.70129.70129,0,0,1-.14751.18222,3.93881,3.93881,0,0,0-.35575.45987,6.0027,6.0027,0,0,0-.42517.74621,4.93636,4.93636,0,0,0-.36443,1.19742,8.75735,8.75735,0,0,0-.14751,1.67464,8.62108,8.62108,0,0,0,.14751,1.666,5.63525,5.63525,0,0,0,.35575,1.20609,3.92954,3.92954,0,0,0,.42517.74622q.21692.28633.36443.45987a1.95837,1.95837,0,0,1,.14751.18222q0,.07809-.13016.07809h-.13883l-.24295-.20825a4.282,4.282,0,0,1-1.18874-1.8395A7.09442,7.09442,0,0,1,99.55776,113.81546Z"/>
    <g>
      <path id="MJMATHI-61-2" data-name="MJMATHI-61" class="cls-13" d="M102.41246,114.62241a2.5641,2.5641,0,0,1,.65944-1.666,1.94169,1.94169,0,0,1,1.48375-.79828.98366.98366,0,0,1,.78092.42517.43417.43417,0,0,1,.39914-.26031.31046.31046,0,0,1,.19957.06942.21368.21368,0,0,1,.08677.17353q0,.1128-.321,1.38831t-.32972,1.44036a.4642.4642,0,0,0,.06074.28634.25485.25485,0,0,0,.18221.07809.37693.37693,0,0,0,.17354-.07809,1.96742,1.96742,0,0,0,.35575-.833q.05206-.17354.08677-.18222a.254.254,0,0,1,.08677-.00867h.03471q.16487,0,.16486.07809a1.37829,1.37829,0,0,1-.04338.23428,2.7228,2.7228,0,0,1-.17354.46855,1.4781,1.4781,0,0,1-.27766.43384.85811.85811,0,0,1-.27766.18222.92513.92513,0,0,1-.20825.01735.88688.88688,0,0,1-.49458-.13015.66613.66613,0,0,1-.26031-.269l-.05206-.13016q-.00867-.00867-.03471.00868l-.03471.03471a1.52128,1.52128,0,0,1-1.04122.4859,1.18418,1.18418,0,0,1-.84166-.34707A1.46211,1.46211,0,0,1,102.41246,114.62241Zm2.75925-1.48375a.78549.78549,0,0,0-.04338-.19089.825.825,0,0,0-.19957-.30369.55462.55462,0,0,0-.39914-.17354.83267.83267,0,0,0-.58135.269,1.81568,1.81568,0,0,0-.43385.70283,6.92779,6.92779,0,0,0-.35575,1.423v.09545a.46213.46213,0,0,1-.00868.10412.72873.72873,0,0,0,.15619.538.55877.55877,0,0,0,.3731.15618.97979.97979,0,0,0,.65077-.28633,1.45922,1.45922,0,0,0,.38179-.44253q.01736-.03469.23427-.92842T105.17171,113.13866Z"/>
      <path id="MJMATHI-69-2" data-name="MJMATHI-69" class="cls-13" d="M107.84354,113.61061a.34445.34445,0,0,1,.11655-.25766.4055.4055,0,0,1,.26993-.11655.2497.2497,0,0,1,.184.07361.27225.27225,0,0,1,.07975.184.34988.34988,0,0,1-.12269.25765.41037.41037,0,0,1-.26992.12269.27635.27635,0,0,1-.17177-.06134A.25456.25456,0,0,1,107.84354,113.61061Zm-.99994,1.92012a.67152.67152,0,0,1,.05521-.19018,2.94568,2.94568,0,0,1,.14723-.31286,1.01273,1.01273,0,0,1,.26992-.31286.556.556,0,0,1,.36808-.135.57984.57984,0,0,1,.39875.14109.50056.50056,0,0,1,.16563.38035,1.18958,1.18958,0,0,1-.08588.34353q-.08589.23925-.24539.64413t-.25765.69321a1.00489,1.00489,0,0,0-.03067.1963q0,.15337.10429.15337a.40579.40579,0,0,0,.11655-.01841.41907.41907,0,0,0,.1411-.08588.83164.83164,0,0,0,.16563-.21471,1.782,1.782,0,0,0,.15337-.36194.25183.25183,0,0,1,.03067-.08588.22475.22475,0,0,1,.10429-.01227q.12269,0,.12269.06134a.67152.67152,0,0,1-.05521.19018,2.4148,2.4148,0,0,1-.15337.31286,1.02437,1.02437,0,0,1-.276.30673.618.618,0,0,1-.38035.135.57681.57681,0,0,1-.36194-.12883.48161.48161,0,0,1-.17176-.39261.61681.61681,0,0,1,.03067-.19631q.03068-.092.26378-.69934.23311-.61959.26993-.74228a1.01848,1.01848,0,0,0,.04294-.23925q0-.14723-.10429-.14723h-.01227a.42888.42888,0,0,0-.3374.20244,1.42926,1.42926,0,0,0-.23311.51531.07133.07133,0,0,0-.01227.0184.0471.0471,0,0,0-.00614.0184q0,.00613-.01227.01227a.0471.0471,0,0,1-.0184.00614h-.1595Q106.8436,115.54913,106.8436,115.53073Z"/>
    </g>
    <path id="MJMAIN-29-4" data-name="MJMAIN-29" class="cls-13" d="M110.23034,109.48568l.03471-.00867h.19089l.243.20824a4.2819,4.2819,0,0,1,1.18873,1.83951,7.09416,7.09416,0,0,1,.37311,2.2907,7.24313,7.24313,0,0,1-.08677,1.13667,7.4609,7.4609,0,0,1-.19957.92843,3.90808,3.90808,0,0,1-.321.76357q-.20825.38178-.32973.58135a2.6388,2.6388,0,0,1-.35575.44252q-.23427.243-.27766.28634t-.19957.16486l-.03471.03471h-.19956a.051.051,0,0,1-.04339-.026.20425.20425,0,0,1-.026-.07809q.00867-.00869.09545-.1128a6.98771,6.98771,0,0,0,0-8.24306q-.08678-.10411-.09545-.1128A.102.102,0,0,1,110.23034,109.48568Z"/>
    <path id="MJMATHI-51-2" data-name="MJMATHI-51" class="cls-13" d="M118.71635,116.67884q0-.28635.00868-.43385a.85813.85813,0,0,1,.01735-.16486v-.03471l-.13015.03471a3.15646,3.15646,0,0,1-.72886.09545,2.12935,2.12935,0,0,1-2.18658-1.935q-.00867-.06942-.00867-.37311a3.58959,3.58959,0,0,1,.41649-1.68332,4.85959,4.85959,0,0,1,1.11932-1.41433,3.38435,3.38435,0,0,1,2.16055-.89372q.32972,0,.41649.00867a2.06576,2.06576,0,0,1,1.35359.74622,2.44643,2.44643,0,0,1,.52062,1.57919,3.948,3.948,0,0,1-1.28418,2.846,4.16153,4.16153,0,0,1-1.13668.78959l-.14751.06942v.04338q0,.00868.04339.23428a.6828.6828,0,0,0,.18221.36443.54027.54027,0,0,0,.39914.13883,1.01087,1.01087,0,0,0,.58135-.19089.88273.88273,0,0,0,.36443-.49459q.05207-.12147.1128-.12147a.08925.08925,0,0,1,.09545.07809,1.29763,1.29763,0,0,1-.08677.31237q-.08678.243-.243.57267a1.50629,1.50629,0,0,1-.46856.564,1.184,1.184,0,0,1-.65944.25163q-.71151,0-.71151-.92843Zm2.05643-4.75495a2.4223,2.4223,0,0,0-.13015-.833,1.14059,1.14059,0,0,0-.35576-.52929,1.95651,1.95651,0,0,0-.43384-.26031,1.18445,1.18445,0,0,0-.45988-.08677,1.89287,1.89287,0,0,0-.85033.21693,3.124,3.124,0,0,0-1.423,1.52713,4.88624,4.88624,0,0,0-.538,2.15187,1.79207,1.79207,0,0,0,.46855,1.36228.815.815,0,0,0,.25163.18221v-.06941a.90748.90748,0,0,1,.28634-.64209.94327.94327,0,0,1,.6768-.3037.70176.70176,0,0,1,.3731.09545.6.6,0,0,1,.23428.26031,1.42826,1.42826,0,0,1,.10412.27766q.026.1128.05206.23427l.1128-.07809a3.21329,3.21329,0,0,0,.94578-1.0499,4.73725,4.73725,0,0,0,.538-1.29286A5.07881,5.07881,0,0,0,120.77278,111.92389Zm-2.794,3.90461a1.72222,1.72222,0,0,0,.78092-.18222l-.00868-.08676q-.03471-.47724-.321-.57268a1.06214,1.06214,0,0,0-.16486-.01735h-.05207a.05024.05024,0,0,1-.0347-.00868.52849.52849,0,0,0-.35576.17354.56866.56866,0,0,0-.19089.39913Q117.63174,115.8285,117.97882,115.8285Z"/>
    <path id="MJMAIN-28-5" data-name="MJMAIN-28" class="cls-13" d="M122.942,113.81546a7.13763,7.13763,0,0,1,.08677-1.13668,7.95288,7.95288,0,0,1,.19957-.92842,3.6334,3.6334,0,0,1,.321-.76357q.20824-.37311.32972-.58135a2.30447,2.30447,0,0,1,.36443-.4512q.243-.243.28634-.295a1.56436,1.56436,0,0,1,.21692-.18221h.14751q.12147,0,.12147.07809a.70137.70137,0,0,1-.1475.18222,3.9387,3.9387,0,0,0-.35576.45987,6.00275,6.00275,0,0,0-.42516.74621,4.93592,4.93592,0,0,0-.36443,1.19742,8.75735,8.75735,0,0,0-.14751,1.67464,8.62108,8.62108,0,0,0,.14751,1.666,5.63467,5.63467,0,0,0,.35575,1.20609,3.92954,3.92954,0,0,0,.42517.74622q.21692.28633.36443.45987a1.95906,1.95906,0,0,1,.1475.18222q0,.07809-.13015.07809h-.13883l-.24295-.20825a4.282,4.282,0,0,1-1.18874-1.8395A7.09416,7.09416,0,0,1,122.942,113.81546Z"/>
    <path id="MJMATHI-73-4" data-name="MJMATHI-73" class="cls-13" d="M126.63836,113.47706a1.2859,1.2859,0,0,1,.13883-.564,1.42762,1.42762,0,0,1,.48591-.52929,1.38642,1.38642,0,0,1,.84166-.23428,1.09626,1.09626,0,0,1,.78092.23428.74337.74337,0,0,1,.25163.52061.51675.51675,0,0,1-.14751.40782.52568.52568,0,0,1-.32972.13883.34654.34654,0,0,1-.20824-.06942.28073.28073,0,0,1-.10413-.2256.3937.3937,0,0,1,.0781-.24295.77952.77952,0,0,1,.1475-.15618.21.21,0,0,1,.1128-.05206.00767.00767,0,0,0,.00868-.00868q0-.026-.06074-.07809a.59257.59257,0,0,0-.21692-.09545,1.53514,1.53514,0,0,0-.3384-.05206.73392.73392,0,0,0-.807.68547.31368.31368,0,0,0,.16486.3037,1.79968,1.79968,0,0,0,.47723.1475,1.90132,1.90132,0,0,1,.4512.13016.85753.85753,0,0,1,.57267.833,1.32041,1.32041,0,0,1-.09544.48591,1.94109,1.94109,0,0,1-.28634.4859,1.25528,1.25528,0,0,1-.54665.38179,2.356,2.356,0,0,1-.81562.1475,1.4035,1.4035,0,0,1-.94579-.25163.80277.80277,0,0,1-.28633-.59.59008.59008,0,0,1,.18221-.4859.59914.59914,0,0,1,.38178-.14751.41869.41869,0,0,1,.243.07809.323.323,0,0,1,.12147.269.51932.51932,0,0,1-.15618.38178.42732.42732,0,0,1-.269.15618.06655.06655,0,0,1-.026.00868q-.00868,0-.00868.01735a.18742.18742,0,0,0,.06941.06942,1.212,1.212,0,0,0,.269.1128,1.70655,1.70655,0,0,0,1.0152-.03471.74541.74541,0,0,0,.32972-.243,1.15186,1.15186,0,0,0,.1475-.269.65428.65428,0,0,0,.04339-.21692.40878.40878,0,0,0-.18222-.36443.92243.92243,0,0,0-.41649-.14751,2.14692,2.14692,0,0,1-.51193-.13015.80294.80294,0,0,1-.40782-.30369A.87339.87339,0,0,1,126.63836,113.47706Z"/>
    <path id="MJMAIN-2C-2" data-name="MJMAIN-2C" class="cls-13" d="M130.25663,115.681v-.21692a.54263.54263,0,0,1,.13883-.37311.47429.47429,0,0,1,.37311-.15618.56719.56719,0,0,1,.43384.21692,1.19782,1.19782,0,0,1,.19957.76357,2.2324,2.2324,0,0,1-.07809.59,2.698,2.698,0,0,1-.18221.49458,1.88192,1.88192,0,0,1-.2256.35575q-.12148.14751-.20825.23428t-.1128.07809q-.03471,0-.1128-.07809t-.07809-.1128q0-.03471.09545-.13883t.21692-.26031a1.66539,1.66539,0,0,0,.2256-.43384,2.49275,2.49275,0,0,0,.13883-.63342v-.10412l-.00868.00868a.33688.33688,0,0,1-.04338.01735.21922.21922,0,0,0-.05207.026.142.142,0,0,1-.07809.01736.63288.63288,0,0,0-.10412.00867.5166.5166,0,0,1-.38178-.1475Z"/>
    <g>
      <path id="MJMATHI-61-3" data-name="MJMATHI-61" class="cls-13" d="M133.72739,114.62241a2.56411,2.56411,0,0,1,.65945-1.666,1.94169,1.94169,0,0,1,1.48375-.79828.98368.98368,0,0,1,.78092.42517.43416.43416,0,0,1,.39914-.26031.31041.31041,0,0,1,.19956.06942.21365.21365,0,0,1,.08677.17353q0,.1128-.321,1.38831t-.32972,1.44036a.46421.46421,0,0,0,.06073.28634.25487.25487,0,0,0,.18222.07809.37693.37693,0,0,0,.17354-.07809,1.96755,1.96755,0,0,0,.35575-.833q.05206-.17354.08677-.18222a.254.254,0,0,1,.08677-.00867h.03471q.16485,0,.16486.07809a1.37765,1.37765,0,0,1-.04339.23428,2.722,2.722,0,0,1-.17354.46855,1.4779,1.4779,0,0,1-.27766.43384.858.858,0,0,1-.27766.18222.925.925,0,0,1-.20824.01735.88691.88691,0,0,1-.49459-.13015.66616.66616,0,0,1-.2603-.269l-.05207-.13016q-.00867-.00867-.0347.00868l-.03471.03471a1.5213,1.5213,0,0,1-1.04123.4859,1.18421,1.18421,0,0,1-.84166-.34707A1.46215,1.46215,0,0,1,133.72739,114.62241Zm2.75926-1.48375a.78517.78517,0,0,0-.04339-.19089.82471.82471,0,0,0-.19957-.30369.55461.55461,0,0,0-.39913-.17354.83269.83269,0,0,0-.58136.269,1.81567,1.81567,0,0,0-.43384.70283,6.92715,6.92715,0,0,0-.35575,1.423v.09545a.46272.46272,0,0,1-.00868.10412.72873.72873,0,0,0,.15618.538.5588.5588,0,0,0,.37311.15618.9798.9798,0,0,0,.65077-.28633,1.459,1.459,0,0,0,.38178-.44253q.01736-.03469.23428-.92842T136.48665,113.13866Z"/>
      <path id="MJMATHI-69-3" data-name="MJMATHI-69" class="cls-13" d="M139.15847,113.61061a.34446.34446,0,0,1,.11656-.25766.40547.40547,0,0,1,.26992-.11655.24972.24972,0,0,1,.184.07361.27229.27229,0,0,1,.07975.184.34992.34992,0,0,1-.12269.25765.4104.4104,0,0,1-.26993.12269.27632.27632,0,0,1-.17176-.06134A.25453.25453,0,0,1,139.15847,113.61061Zm-.99993,1.92012a.67116.67116,0,0,1,.05521-.19018,2.94371,2.94371,0,0,1,.14723-.31286,1.01259,1.01259,0,0,1,.26992-.31286.556.556,0,0,1,.36807-.135.57982.57982,0,0,1,.39875.14109.50056.50056,0,0,1,.16563.38035,1.18924,1.18924,0,0,1-.08588.34353q-.08589.23925-.24538.64413t-.25765.69321a1.0051,1.0051,0,0,0-.03068.1963q0,.15337.10429.15337a.40585.40585,0,0,0,.11656-.01841.419.419,0,0,0,.14109-.08588.83142.83142,0,0,0,.16564-.21471,1.78262,1.78262,0,0,0,.15336-.36194.25206.25206,0,0,1,.03067-.08588.22478.22478,0,0,1,.10429-.01227q.1227,0,.12269.06134a.67116.67116,0,0,1-.05521.19018,2.41593,2.41593,0,0,1-.15336.31286,1.02454,1.02454,0,0,1-.27606.30673.618.618,0,0,1-.38034.135.57679.57679,0,0,1-.36194-.12883.48164.48164,0,0,1-.17177-.39261.61681.61681,0,0,1,.03067-.19631q.03067-.092.26379-.69934.23311-.61959.26992-.74228a1.018,1.018,0,0,0,.04294-.23925q0-.14723-.10428-.14723h-.01227a.4289.4289,0,0,0-.33741.20244,1.42943,1.42943,0,0,0-.23311.51531.07133.07133,0,0,0-.01227.0184.047.047,0,0,0-.00613.0184q0,.00613-.01227.01227a.04713.04713,0,0,1-.01841.00614h-.15949Q138.15854,115.54913,138.15854,115.53073Z"/>
    </g>
    <path id="MJMAIN-29-5" data-name="MJMAIN-29" class="cls-13" d="M141.5366,109.48568l.03471-.00867h.19089l.243.20824a4.282,4.282,0,0,1,1.18873,1.83951,7.09416,7.09416,0,0,1,.37311,2.2907,7.24433,7.24433,0,0,1-.08677,1.13667,7.4609,7.4609,0,0,1-.19957.92843,3.90752,3.90752,0,0,1-.32105.76357q-.20824.38178-.32972.58135a2.63931,2.63931,0,0,1-.35575.44252q-.23427.243-.27766.28634t-.19957.16486l-.03471.03471h-.19957a.051.051,0,0,1-.04338-.026.20425.20425,0,0,1-.026-.07809q.00867-.00869.09544-.1128a6.98771,6.98771,0,0,0,0-8.24306q-.08676-.10411-.09544-.1128A.102.102,0,0,1,141.5366,109.48568Z"/>
  </g>
  <g>
    <rect class="cls-1" x="113.60058" y="24.16552" width="25.44966" height="25.44966"/>
    <rect class="cls-1" x="140.43251" y="24.17085" width="25.44966" height="25.44966"/>
    <rect class="cls-1" x="167.33684" y="24.1815" width="25.44966" height="25.44966"/>
    <rect class="cls-1" x="113.60058" y="50.99444" width="25.44966" height="25.44966"/>
    <rect class="cls-3" x="140.43251" y="50.99977" width="25.44966" height="25.44966"/>
    <rect class="cls-1" x="167.33684" y="51.01042" width="25.44966" height="25.44966"/>
    <rect class="cls-1" x="113.60058" y="77.93917" width="25.44966" height="25.44966"/>
    <rect class="cls-1" x="140.43251" y="77.9445" width="25.44966" height="25.44966"/>
    <rect class="cls-1" x="167.33684" y="77.95516" width="25.44966" height="25.44966"/>
    <circle class="cls-18" cx="126.16382" cy="36.92531" r="8.06084"/>
    <circle class="cls-18" cx="153.42654" cy="36.92531" r="8.06084"/>
    <circle class="cls-18" cx="180.03606" cy="36.86307" r="8.06084"/>
    <circle class="cls-18" cx="126.16382" cy="64.05207" r="8.06084"/>
    <circle class="cls-17" cx="153.42654" cy="64.05207" r="8.06084"/>
    <circle class="cls-18" cx="180.03606" cy="63.98983" r="8.06084"/>
    <circle class="cls-18" cx="126.16382" cy="90.63672" r="8.06084"/>
    <circle class="cls-18" cx="153.42654" cy="90.76817" r="8.06084"/>
    <circle class="cls-18" cx="180.03606" cy="90.70593" r="8.06084"/>
    <rect class="cls-19" x="137.76144" y="47.57334" width="32.07156" height="32.08703" transform="translate(307.59445 127.2337) rotate(180)"/>
    <g>
      <polyline class="cls-19" points="146.162 113.475 153.424 113.475 153.424 82.448"/>
      <polygon class="cls-6" points="154.927 83.588 153.424 82.95 151.92 83.588 153.424 80.024 154.927 83.588"/>
    </g>
  </g>
  <rect class="cls-19" x="24.27506" y="47.61832" width="32.07156" height="32.08703" transform="translate(80.62168 127.32366) rotate(180)"/>
</svg>
