<svg id="Layer_1" data-name="Layer 1" xmlns="http://www.w3.org/2000/svg" viewBox="0 0 133.22 133.27"><defs><style>.cls-1{fill:#e7ebe8;}.cls-2{fill:#cac9cc;}.cls-3{fill:none;stroke:#2c3592;stroke-miterlimit:10;stroke-width:4px;}.cls-4{fill:#2c3592;}.cls-5{fill:#aa1e22;}.cls-6{font-size:11px;fill:#d1d3d4;font-family:MyriadPro-Semibold, Myriad Pro;font-weight:700;}</style></defs><title>cliffworld-path1</title><rect class="cls-1" x="0.01" y="-0.01" width="25.45" height="25.45"/><rect class="cls-1" x="26.95" y="0.02" width="25.45" height="25.45"/><rect class="cls-1" x="53.78" y="0.03" width="25.45" height="25.45"/><rect class="cls-1" x="0.01" y="26.94" width="25.45" height="25.45"/><rect class="cls-1" x="26.95" y="26.97" width="25.45" height="25.45"/><rect class="cls-1" x="53.78" y="26.97" width="25.45" height="25.45"/><rect class="cls-1" x="80.68" y="26.98" width="25.45" height="25.45"/><rect class="cls-1" x="0.01" y="53.77" width="25.45" height="25.45"/><rect class="cls-1" x="26.95" y="53.8" width="25.45" height="25.45"/><rect class="cls-1" x="53.78" y="53.8" width="25.45" height="25.45"/><rect class="cls-1" x="80.68" y="53.81" width="25.45" height="25.45"/><rect class="cls-1" x="0.01" y="80.71" width="25.45" height="25.45"/><rect class="cls-1" x="26.95" y="80.74" width="25.45" height="25.45"/><rect class="cls-1" x="53.78" y="80.75" width="25.45" height="25.45"/><rect class="cls-1" x="80.68" y="80.76" width="25.45" height="25.45"/><rect class="cls-1" x="0.01" y="107.63" width="25.45" height="25.45"/><rect class="cls-1" x="26.95" y="107.66" width="25.45" height="25.45"/><rect class="cls-1" x="53.78" y="107.67" width="25.45" height="25.45"/><rect class="cls-1" x="80.68" y="107.68" width="25.45" height="25.45"/><circle class="cls-2" cx="12.73" cy="12.72" r="8.06"/><circle class="cls-2" cx="39.67" cy="12.76" r="8.06"/><circle class="cls-2" cx="12.57" cy="39.69" r="8.06"/><circle class="cls-2" cx="93.38" cy="66.79" r="8.06"/><circle class="cls-2" cx="12.57" cy="93.53" r="8.06"/><line class="cls-3" x1="12.57" y1="66.81" x2="39.51" y2="66.85"/><line class="cls-3" x1="39.51" y1="39.73" x2="39.51" y2="66.85"/><line class="cls-3" x1="66.77" y1="39.73" x2="39.51" y2="39.73"/><line class="cls-3" x1="66.93" y1="12.76" x2="66.77" y2="39.73"/><line class="cls-3" x1="93.41" y1="12.72" x2="66.93" y2="12.76"/><circle class="cls-4" cx="66.93" cy="12.76" r="8.06"/><circle class="cls-4" cx="39.51" cy="39.73" r="8.06"/><circle class="cls-4" cx="66.77" cy="39.73" r="8.06"/><circle class="cls-2" cx="93.38" cy="39.66" r="8.06"/><circle class="cls-4" cx="12.57" cy="66.81" r="8.06"/><circle class="cls-4" cx="39.51" cy="66.85" r="8.06"/><circle class="cls-2" cx="66.77" cy="66.85" r="8.06"/><circle class="cls-2" cx="39.51" cy="93.44" r="8.06"/><circle class="cls-2" cx="12.57" cy="120.66" r="8.06"/><circle class="cls-2" cx="39.51" cy="121.23" r="8.06"/><rect class="cls-5" x="108.2" y="0.96" width="25.01" height="131.73"/><circle class="cls-2" cx="93.38" cy="93.51" r="8.06"/><circle class="cls-2" cx="66.77" cy="93.57" r="8.06"/><circle class="cls-2" cx="66.77" cy="120.7" r="8.06"/><circle class="cls-2" cx="93.38" cy="120.63" r="8.06"/><rect class="cls-4" x="82.51" y="1.77" width="21.75" height="21.75"/><text class="cls-6" transform="translate(85.37 15.12)">+2</text></svg>