<svg id="Layer_1" data-name="Layer 1" xmlns="http://www.w3.org/2000/svg" viewBox="0 0 137.29 136.36"><defs><style>.cls-1{fill:#2c3592;}.cls-2{fill:#e7ebe8;}.cls-3{fill:#cac9cc;}.cls-4{fill:#aa1e22;}.cls-5{fill:none;stroke:#aa1e22;stroke-linecap:round;stroke-linejoin:round;stroke-width:4px;}.cls-6{font-size:11px;fill:#d1d3d4;font-family:MyriadPro-Semibold, Myriad Pro;font-weight:700;}</style></defs><title>cliffworld-path-2of4</title><rect class="cls-1" x="84.73" y="3.69" width="21.75" height="21.75"/><rect class="cls-2" x="2.21" y="1.81" width="25.45" height="25.45"/><rect class="cls-2" x="29.15" y="1.84" width="25.45" height="25.45"/><rect class="cls-2" x="55.98" y="1.85" width="25.45" height="25.45"/><rect class="cls-2" x="2.21" y="28.76" width="25.45" height="25.45"/><rect class="cls-2" x="29.15" y="28.78" width="25.45" height="25.45"/><rect class="cls-2" x="55.98" y="28.79" width="25.45" height="25.45"/><rect class="cls-2" x="82.89" y="28.8" width="25.45" height="25.45"/><rect class="cls-2" x="2.21" y="55.59" width="25.45" height="25.45"/><rect class="cls-2" x="29.15" y="55.61" width="25.45" height="25.45"/><rect class="cls-2" x="55.98" y="55.62" width="25.45" height="25.45"/><rect class="cls-2" x="82.89" y="55.63" width="25.45" height="25.45"/><rect class="cls-2" x="2.21" y="82.53" width="25.45" height="25.45"/><rect class="cls-2" x="29.15" y="82.56" width="25.45" height="25.45"/><rect class="cls-2" x="55.98" y="82.56" width="25.45" height="25.45"/><rect class="cls-2" x="82.89" y="82.57" width="25.45" height="25.45"/><rect class="cls-2" x="2.21" y="109.45" width="25.45" height="25.45"/><rect class="cls-2" x="29.15" y="109.48" width="25.45" height="25.45"/><rect class="cls-2" x="55.98" y="109.48" width="25.45" height="25.45"/><rect class="cls-2" x="82.89" y="109.49" width="25.45" height="25.45"/><circle class="cls-3" cx="14.93" cy="14.54" r="8.06"/><circle class="cls-3" cx="41.87" cy="14.58" r="8.06"/><circle class="cls-3" cx="14.77" cy="41.51" r="8.06"/><circle class="cls-3" cx="95.59" cy="68.61" r="8.06"/><circle class="cls-3" cx="14.77" cy="95.35" r="8.06"/><circle class="cls-3" cx="41.71" cy="95.26" r="8.06"/><circle class="cls-3" cx="95.59" cy="95.33" r="8.06"/><circle class="cls-3" cx="14.77" cy="122.48" r="8.06"/><circle class="cls-3" cx="41.71" cy="123.05" r="8.06"/><circle class="cls-3" cx="95.59" cy="122.45" r="8.06"/><rect class="cls-4" x="110.4" y="2.78" width="25.01" height="131.73"/><line class="cls-5" x1="68.71" y1="122.21" x2="68.71" y2="95.29"/><line class="cls-5" x1="68.71" y1="68.34" x2="68.71" y2="95.29"/><line class="cls-5" x1="68.71" y1="41.51" x2="68.71" y2="68.34"/><line class="cls-5" x1="95.61" y1="41.53" x2="68.71" y2="41.51"/><line class="cls-5" x1="115.29" y1="41.59" x2="95.61" y2="41.53"/><text class="cls-6" transform="translate(114.65 45.28)">-1</text><circle class="cls-3" cx="69.14" cy="14.58" r="8.06"/><circle class="cls-3" cx="41.71" cy="41.54" r="8.06"/><circle class="cls-3" cx="68.98" cy="41.54" r="8.06"/><circle class="cls-3" cx="95.59" cy="41.48" r="8.06"/><circle class="cls-3" cx="14.77" cy="68.63" r="8.06"/><circle class="cls-3" cx="41.71" cy="68.67" r="8.06"/><circle class="cls-3" cx="68.98" cy="68.67" r="8.06"/><circle class="cls-3" cx="68.98" cy="95.39" r="8.06"/><circle class="cls-3" cx="68.98" cy="122.51" r="8.06"/></svg>