<svg id="Layer_1" data-name="Layer 1" xmlns="http://www.w3.org/2000/svg" viewBox="0 0 137.29 136.36"><defs><style>.cls-1{fill:#2c3592;}.cls-2{fill:#e7ebe8;}.cls-3{fill:#cac9cc;}.cls-4{fill:#aa1e22;}.cls-5{fill:none;stroke:#aa1e22;stroke-linecap:round;stroke-linejoin:round;stroke-width:4px;}.cls-6{font-size:11px;fill:#d1d3d4;font-family:MyriadPro-Semibold, Myriad Pro;font-weight:700;}</style></defs><title>cliffworld-traj-2of2</title><rect class="cls-1" x="84.49" y="3.55" width="21.75" height="21.75"/><rect class="cls-2" x="1.97" y="1.68" width="25.45" height="25.45"/><rect class="cls-2" x="28.91" y="1.7" width="25.45" height="25.45"/><rect class="cls-2" x="55.74" y="1.71" width="25.45" height="25.45"/><rect class="cls-2" x="1.97" y="28.62" width="25.45" height="25.45"/><rect class="cls-2" x="28.91" y="28.65" width="25.45" height="25.45"/><rect class="cls-2" x="55.74" y="28.65" width="25.45" height="25.45"/><rect class="cls-2" x="82.64" y="28.66" width="25.45" height="25.45"/><rect class="cls-2" x="1.97" y="55.45" width="25.45" height="25.45"/><rect class="cls-2" x="28.91" y="55.48" width="25.45" height="25.45"/><rect class="cls-2" x="55.74" y="55.48" width="25.45" height="25.45"/><rect class="cls-2" x="82.64" y="55.49" width="25.45" height="25.45"/><rect class="cls-2" x="1.97" y="82.4" width="25.45" height="25.45"/><rect class="cls-2" x="28.91" y="82.42" width="25.45" height="25.45"/><rect class="cls-2" x="55.74" y="82.43" width="25.45" height="25.45"/><rect class="cls-2" x="82.64" y="82.44" width="25.45" height="25.45"/><rect class="cls-2" x="1.97" y="109.32" width="25.45" height="25.45"/><rect class="cls-2" x="28.91" y="109.34" width="25.45" height="25.45"/><rect class="cls-2" x="55.74" y="109.35" width="25.45" height="25.45"/><rect class="cls-2" x="82.64" y="109.36" width="25.45" height="25.45"/><circle class="cls-3" cx="14.69" cy="14.4" r="8.06"/><circle class="cls-3" cx="41.63" cy="14.44" r="8.06"/><circle class="cls-3" cx="68.89" cy="14.44" r="8.06"/><circle class="cls-3" cx="14.53" cy="41.37" r="8.06"/><circle class="cls-3" cx="41.47" cy="41.41" r="8.06"/><circle class="cls-3" cx="68.73" cy="41.41" r="8.06"/><circle class="cls-3" cx="95.34" cy="41.35" r="8.06"/><circle class="cls-3" cx="14.53" cy="68.5" r="8.06"/><circle class="cls-3" cx="41.47" cy="68.54" r="8.06"/><circle class="cls-3" cx="68.73" cy="68.54" r="8.06"/><circle class="cls-3" cx="95.34" cy="68.47" r="8.06"/><circle class="cls-3" cx="14.53" cy="95.21" r="8.06"/><circle class="cls-3" cx="41.47" cy="95.12" r="8.06"/><circle class="cls-3" cx="68.73" cy="95.25" r="8.06"/><circle class="cls-3" cx="95.34" cy="95.19" r="8.06"/><circle class="cls-3" cx="14.53" cy="122.34" r="8.06"/><circle class="cls-3" cx="41.47" cy="122.91" r="8.06"/><circle class="cls-3" cx="68.73" cy="122.38" r="8.06"/><circle class="cls-3" cx="95.34" cy="122.32" r="8.06"/><rect class="cls-4" x="110.16" y="2.64" width="25.01" height="131.73"/><polyline class="cls-5" points="70.05 120.74 69.7 42.78 118.97 42.13"/><text class="cls-6" transform="translate(114.4 45.14)">-1</text></svg>