<svg id="Layer_1" data-name="Layer 1" xmlns="http://www.w3.org/2000/svg" viewBox="0 0 137.29 136.36"><defs><style>.cls-1{fill:#e7ebe8;}.cls-2{fill:#cac9cc;}.cls-3{fill:none;stroke:#2c3592;stroke-miterlimit:10;stroke-width:4px;}.cls-4{fill:#2c3592;}.cls-5{fill:#aa1e22;}.cls-6{font-size:11px;fill:#d1d3d4;font-family:MyriadPro-Semibold, Myriad Pro;font-weight:700;}</style></defs><title>cliffworld-path1</title><rect class="cls-1" x="2.28" y="1.91" width="25.45" height="25.45"/><rect class="cls-1" x="29.22" y="1.94" width="25.45" height="25.45"/><rect class="cls-1" x="56.05" y="1.94" width="25.45" height="25.45"/><rect class="cls-1" x="2.28" y="28.86" width="25.45" height="25.45"/><rect class="cls-1" x="29.22" y="28.88" width="25.45" height="25.45"/><rect class="cls-1" x="56.05" y="28.89" width="25.45" height="25.45"/><rect class="cls-1" x="82.95" y="28.9" width="25.45" height="25.45"/><rect class="cls-1" x="2.28" y="55.68" width="25.45" height="25.45"/><rect class="cls-1" x="29.22" y="55.71" width="25.45" height="25.45"/><rect class="cls-1" x="56.05" y="55.72" width="25.45" height="25.45"/><rect class="cls-1" x="82.95" y="55.73" width="25.45" height="25.45"/><rect class="cls-1" x="2.28" y="82.63" width="25.45" height="25.45"/><rect class="cls-1" x="29.22" y="82.66" width="25.45" height="25.45"/><rect class="cls-1" x="56.05" y="82.66" width="25.45" height="25.45"/><rect class="cls-1" x="82.95" y="82.67" width="25.45" height="25.45"/><rect class="cls-1" x="2.28" y="109.55" width="25.45" height="25.45"/><rect class="cls-1" x="29.22" y="109.58" width="25.45" height="25.45"/><rect class="cls-1" x="56.05" y="109.58" width="25.45" height="25.45"/><rect class="cls-1" x="82.95" y="109.59" width="25.45" height="25.45"/><circle class="cls-2" cx="15" cy="14.64" r="8.06"/><circle class="cls-2" cx="41.94" cy="14.67" r="8.06"/><circle class="cls-2" cx="14.84" cy="41.6" r="8.06"/><circle class="cls-2" cx="95.65" cy="68.71" r="8.06"/><circle class="cls-2" cx="14.84" cy="95.45" r="8.06"/><line class="cls-3" x1="14.84" y1="68.73" x2="41.78" y2="68.77"/><line class="cls-3" x1="41.78" y1="41.64" x2="41.78" y2="68.77"/><line class="cls-3" x1="69.04" y1="41.64" x2="41.78" y2="41.64"/><line class="cls-3" x1="69.2" y1="14.67" x2="69.04" y2="41.64"/><line class="cls-3" x1="95.68" y1="14.64" x2="69.2" y2="14.67"/><circle class="cls-4" cx="69.2" cy="14.67" r="8.06"/><circle class="cls-4" cx="41.78" cy="41.64" r="8.06"/><circle class="cls-4" cx="69.04" cy="41.64" r="8.06"/><circle class="cls-2" cx="95.65" cy="41.58" r="8.06"/><circle class="cls-4" cx="14.84" cy="68.73" r="8.06"/><circle class="cls-4" cx="41.78" cy="68.77" r="8.06"/><circle class="cls-2" cx="69.04" cy="68.77" r="8.06"/><circle class="cls-2" cx="41.78" cy="95.35" r="8.06"/><circle class="cls-2" cx="14.84" cy="122.57" r="8.06"/><circle class="cls-2" cx="41.78" cy="123.14" r="8.06"/><rect class="cls-5" x="110.47" y="2.88" width="25.01" height="131.73"/><circle class="cls-2" cx="95.65" cy="95.42" r="8.06"/><circle class="cls-2" cx="69.04" cy="95.49" r="8.06"/><circle class="cls-2" cx="69.04" cy="122.61" r="8.06"/><circle class="cls-2" cx="95.65" cy="122.55" r="8.06"/><rect class="cls-4" x="84.77" y="3.69" width="21.75" height="21.75"/><text class="cls-6" transform="translate(87.64 17.04)">+2</text></svg>