<svg id="Layer_1" data-name="Layer 1" xmlns="http://www.w3.org/2000/svg" viewBox="0 0 133.23 132.97"><defs><style>.cls-1{fill:#2c3592;}.cls-2{fill:#e7ebe8;}.cls-3{fill:#cac9cc;}.cls-4{fill:none;stroke:#2c3592;stroke-linecap:round;stroke-linejoin:round;stroke-width:4px;}.cls-5{fill:#aa1e22;}.cls-6{font-size:11px;fill:#d1d3d4;font-family:MyriadPro-Semibold, Myriad Pro;font-weight:700;}</style></defs><title>cliffworld-traj-1of2</title><rect class="cls-1" x="82.43" y="1.76" width="21.75" height="21.75"/><rect class="cls-2" x="-0.1" y="-0.12" width="25.45" height="25.45"/><rect class="cls-2" x="26.84" y="-0.09" width="25.45" height="25.45"/><rect class="cls-2" x="53.67" y="-0.09" width="25.45" height="25.45"/><rect class="cls-2" x="-0.1" y="26.83" width="25.45" height="25.45"/><rect class="cls-2" x="26.84" y="26.85" width="25.45" height="25.45"/><rect class="cls-2" x="53.67" y="26.86" width="25.45" height="25.45"/><rect class="cls-2" x="80.58" y="26.87" width="25.45" height="25.45"/><rect class="cls-2" x="-0.1" y="53.65" width="25.45" height="25.45"/><rect class="cls-2" x="26.84" y="53.68" width="25.45" height="25.45"/><rect class="cls-2" x="53.67" y="53.69" width="25.45" height="25.45"/><rect class="cls-2" x="80.58" y="53.7" width="25.45" height="25.45"/><rect class="cls-2" x="-0.1" y="80.6" width="25.45" height="25.45"/><rect class="cls-2" x="26.84" y="80.63" width="25.45" height="25.45"/><rect class="cls-2" x="53.67" y="80.63" width="25.45" height="25.45"/><rect class="cls-2" x="80.58" y="80.64" width="25.45" height="25.45"/><rect class="cls-2" x="-0.1" y="107.52" width="25.45" height="25.45"/><rect class="cls-2" x="26.84" y="107.55" width="25.45" height="25.45"/><rect class="cls-2" x="53.67" y="107.55" width="25.45" height="25.45"/><rect class="cls-2" x="80.58" y="107.56" width="25.45" height="25.45"/><circle class="cls-3" cx="12.63" cy="12.61" r="8.06"/><circle class="cls-3" cx="39.57" cy="12.64" r="8.06"/><circle class="cls-3" cx="66.83" cy="12.64" r="8.06"/><circle class="cls-3" cx="12.47" cy="39.58" r="8.06"/><circle class="cls-3" cx="39.41" cy="39.61" r="8.06"/><circle class="cls-3" cx="66.67" cy="39.61" r="8.06"/><circle class="cls-3" cx="93.28" cy="39.55" r="8.06"/><circle class="cls-3" cx="12.47" cy="66.7" r="8.06"/><circle class="cls-3" cx="39.41" cy="66.74" r="8.06"/><circle class="cls-3" cx="66.67" cy="66.74" r="8.06"/><circle class="cls-3" cx="93.28" cy="66.68" r="8.06"/><circle class="cls-3" cx="12.47" cy="93.42" r="8.06"/><circle class="cls-3" cx="39.41" cy="93.32" r="8.06"/><circle class="cls-3" cx="66.67" cy="93.46" r="8.06"/><circle class="cls-3" cx="93.28" cy="93.39" r="8.06"/><circle class="cls-3" cx="12.47" cy="120.54" r="8.06"/><circle class="cls-3" cx="39.41" cy="121.11" r="8.06"/><circle class="cls-3" cx="66.67" cy="120.58" r="8.06"/><circle class="cls-3" cx="93.28" cy="120.52" r="8.06"/><polyline class="cls-4" points="90.99 10.89 64.52 10.89 64.52 37.87 37.09 37.87 37.09 65 10.15 64.96"/><rect class="cls-5" x="108.1" y="0.85" width="25.01" height="131.73"/><text class="cls-6" transform="translate(85.27 15.01)">+2</text></svg>