<svg id="Layer_1" data-name="Layer 1" xmlns="http://www.w3.org/2000/svg" viewBox="0 0 137.29 136.36"><defs><style>.cls-1{fill:#aa1e22;}.cls-2{fill:#2c3592;}.cls-3{fill:#e7ebe8;}.cls-4{fill:#777787;}.cls-5{fill:#9b9dad;}.cls-6{fill:#b2b3c3;}</style></defs><title>cliff-walking-actions</title><rect class="cls-1" x="110.21" y="2.34" width="25.01" height="131.73"/><rect class="cls-2" x="84.54" y="3.25" width="21.75" height="21.75"/><rect class="cls-3" x="2.01" y="1.38" width="25.45" height="25.45"/><polygon class="cls-4" points="14.71 23.55 20 20.91 9.42 20.91 14.71 23.55"/><polygon class="cls-4" points="24.11 14.11 21.48 8.82 21.48 19.4 24.11 14.11"/><rect class="cls-3" x="28.95" y="1.41" width="25.45" height="25.45"/><polygon class="cls-5" points="32.3 14.13 34.94 19.42 34.94 8.84 32.3 14.13"/><polygon class="cls-5" points="41.65 23.57 46.94 20.94 36.36 20.94 41.65 23.57"/><polygon class="cls-5" points="51.05 14.14 48.42 8.85 48.42 19.43 51.05 14.14"/><rect class="cls-3" x="55.79" y="1.41" width="25.45" height="25.45"/><polygon class="cls-5" points="59.14 14.14 61.77 19.43 61.77 8.85 59.14 14.14"/><polygon class="cls-5" points="68.48 23.58 73.78 20.94 63.19 20.94 68.48 23.58"/><polygon class="cls-5" points="77.89 14.14 75.25 8.85 75.25 19.43 77.89 14.14"/><rect class="cls-3" x="2.01" y="28.32" width="25.45" height="25.45"/><polygon class="cls-5" points="14.71 50.49 20 47.85 9.42 47.85 14.71 50.49"/><polygon class="cls-5" points="24.11 41.05 21.48 35.76 21.48 46.34 24.11 41.05"/><polygon class="cls-5" points="14.71 31.66 9.42 34.3 20 34.3 14.71 31.66"/><rect class="cls-3" x="28.95" y="28.35" width="25.45" height="25.45"/><polygon class="cls-6" points="32.3 41.08 34.94 46.37 34.94 35.78 32.3 41.08"/><polygon class="cls-6" points="41.65 50.52 46.94 47.88 36.36 47.88 41.65 50.52"/><polygon class="cls-6" points="51.05 41.08 48.42 35.79 48.42 46.37 51.05 41.08"/><polygon class="cls-6" points="41.65 31.69 36.36 34.33 46.94 34.33 41.65 31.69"/><rect class="cls-3" x="55.79" y="28.36" width="25.45" height="25.45"/><polygon class="cls-6" points="59.14 41.08 61.77 46.37 61.77 35.79 59.14 41.08"/><polygon class="cls-6" points="68.48 50.52 73.78 47.89 63.19 47.89 68.48 50.52"/><polygon class="cls-6" points="77.89 41.09 75.25 35.8 75.25 46.38 77.89 41.09"/><polygon class="cls-6" points="68.48 31.7 63.19 34.33 73.78 34.33 68.48 31.7"/><rect class="cls-3" x="82.69" y="28.37" width="25.45" height="25.45"/><polygon class="cls-6" points="86.04 41.09 88.67 46.38 88.67 35.8 86.04 41.09"/><polygon class="cls-6" points="95.39 50.53 100.68 47.9 90.1 47.9 95.39 50.53"/><polygon class="cls-6" points="104.79 41.1 102.16 35.81 102.16 46.39 104.79 41.1"/><polygon class="cls-6" points="95.39 31.71 90.1 34.34 100.68 34.34 95.39 31.71"/><rect class="cls-3" x="2.01" y="55.15" width="25.45" height="25.45"/><polygon class="cls-5" points="14.71 77.32 20 74.68 9.42 74.68 14.71 77.32"/><polygon class="cls-5" points="24.11 67.88 21.48 62.59 21.48 73.17 24.11 67.88"/><polygon class="cls-5" points="14.71 58.49 9.42 61.13 20 61.13 14.71 58.49"/><rect class="cls-3" x="28.95" y="55.18" width="25.45" height="25.45"/><polygon class="cls-6" points="32.3 67.91 34.94 73.2 34.94 62.61 32.3 67.91"/><polygon class="cls-6" points="41.65 77.35 46.94 74.71 36.36 74.71 41.65 77.35"/><polygon class="cls-6" points="51.05 67.91 48.42 62.62 48.42 73.2 51.05 67.91"/><polygon class="cls-6" points="41.65 58.52 36.36 61.15 46.94 61.15 41.65 58.52"/><rect class="cls-3" x="55.79" y="55.19" width="25.45" height="25.45"/><polygon class="cls-6" points="59.14 67.91 61.77 73.2 61.77 62.62 59.14 67.91"/><polygon class="cls-6" points="68.48 77.35 73.78 74.72 63.19 74.72 68.48 77.35"/><polygon class="cls-6" points="77.89 67.92 75.25 62.63 75.25 73.21 77.89 67.92"/><polygon class="cls-6" points="68.48 58.52 63.19 61.16 73.78 61.16 68.48 58.52"/><rect class="cls-3" x="82.69" y="55.2" width="25.45" height="25.45"/><polygon class="cls-6" points="86.04 67.92 88.67 73.21 88.67 62.63 86.04 67.92"/><polygon class="cls-6" points="95.39 77.36 100.68 74.73 90.1 74.73 95.39 77.36"/><polygon class="cls-6" points="104.79 67.93 102.16 62.64 102.16 73.22 104.79 67.93"/><polygon class="cls-6" points="95.39 58.53 90.1 61.17 100.68 61.17 95.39 58.53"/><rect class="cls-3" x="2.01" y="82.1" width="25.45" height="25.45"/><polygon class="cls-5" points="14.71 104.26 20 101.63 9.42 101.63 14.71 104.26"/><polygon class="cls-5" points="24.11 94.83 21.48 89.54 21.48 100.12 24.11 94.83"/><polygon class="cls-5" points="14.71 85.44 9.42 88.07 20 88.07 14.71 85.44"/><rect class="cls-3" x="28.95" y="82.13" width="25.45" height="25.45"/><polygon class="cls-6" points="32.3 94.85 34.94 100.14 34.94 89.56 32.3 94.85"/><polygon class="cls-6" points="41.65 104.29 46.94 101.66 36.36 101.66 41.65 104.29"/><polygon class="cls-6" points="51.05 94.86 48.42 89.56 48.42 100.15 51.05 94.86"/><polygon class="cls-6" points="41.65 85.46 36.36 88.1 46.94 88.1 41.65 85.46"/><rect class="cls-3" x="55.79" y="82.13" width="25.45" height="25.45"/><polygon class="cls-6" points="59.14 94.86 61.77 100.15 61.77 89.56 59.14 94.86"/><polygon class="cls-6" points="68.48 104.3 73.78 101.66 63.19 101.66 68.48 104.3"/><polygon class="cls-6" points="77.89 94.86 75.25 89.57 75.25 100.15 77.89 94.86"/><polygon class="cls-6" points="68.48 85.47 63.19 88.1 73.78 88.1 68.48 85.47"/><rect class="cls-3" x="82.69" y="82.14" width="25.45" height="25.45"/><polygon class="cls-6" points="86.04 94.87 88.67 100.16 88.67 89.58 86.04 94.87"/><polygon class="cls-6" points="95.39 104.31 100.68 101.67 90.1 101.67 95.39 104.31"/><polygon class="cls-6" points="104.79 94.87 102.16 89.58 102.16 100.16 104.79 94.87"/><polygon class="cls-6" points="95.39 85.48 90.1 88.11 100.68 88.11 95.39 85.48"/><rect class="cls-3" x="2.01" y="109.02" width="25.45" height="25.45"/><polygon class="cls-4" points="24.11 121.75 21.48 116.46 21.48 127.04 24.11 121.75"/><polygon class="cls-4" points="14.71 112.36 9.42 114.99 20 114.99 14.71 112.36"/><rect class="cls-3" x="28.95" y="109.05" width="25.45" height="25.45"/><polygon class="cls-5" points="32.3 121.77 34.94 127.06 34.94 116.48 32.3 121.77"/><polygon class="cls-5" points="51.05 121.78 48.42 116.48 48.42 127.07 51.05 121.78"/><polygon class="cls-5" points="41.65 112.38 36.36 115.02 46.94 115.02 41.65 112.38"/><rect class="cls-3" x="55.79" y="109.05" width="25.45" height="25.45"/><polygon class="cls-5" points="59.14 121.78 61.77 127.07 61.77 116.48 59.14 121.78"/><polygon class="cls-5" points="77.89 121.78 75.25 116.49 75.25 127.07 77.89 121.78"/><polygon class="cls-5" points="68.48 112.39 63.19 115.02 73.78 115.02 68.48 112.39"/><rect class="cls-3" x="82.69" y="109.06" width="25.45" height="25.45"/><polygon class="cls-5" points="86.04 121.79 88.67 127.08 88.67 116.5 86.04 121.79"/><polygon class="cls-5" points="104.79 121.79 102.16 116.5 102.16 127.08 104.79 121.79"/><polygon class="cls-5" points="95.39 112.4 90.1 115.03 100.68 115.03 95.39 112.4"/></svg>