<svg id="Layer_1" data-name="Layer 1" xmlns="http://www.w3.org/2000/svg" viewBox="0 0 133.08 133.06"><defs><style>.cls-1{fill:#2c3592;}.cls-2{fill:#e7ebe8;}.cls-3{fill:#cac9cc;}.cls-4{fill:#aa1e22;}.cls-5{fill:none;stroke:#2c3592;stroke-linecap:round;stroke-linejoin:round;stroke-width:4px;}.cls-6{font-size:11px;fill:#d1d3d4;font-family:MyriadPro-Semibold, Myriad Pro;font-weight:700;}</style></defs><title>cliffworld-path-1of4</title><rect class="cls-1" x="82.43" y="1.9" width="21.75" height="21.75"/><rect class="cls-2" x="-0.09" y="0.03" width="25.45" height="25.45"/><rect class="cls-2" x="26.85" y="0.05" width="25.45" height="25.45"/><rect class="cls-2" x="53.68" y="0.06" width="25.45" height="25.45"/><rect class="cls-2" x="-0.09" y="26.97" width="25.45" height="25.45"/><rect class="cls-2" x="26.85" y="27" width="25.45" height="25.45"/><rect class="cls-2" x="53.68" y="27" width="25.45" height="25.45"/><rect class="cls-2" x="80.58" y="27.01" width="25.45" height="25.45"/><rect class="cls-2" x="-0.09" y="53.8" width="25.45" height="25.45"/><rect class="cls-2" x="26.85" y="53.83" width="25.45" height="25.45"/><rect class="cls-2" x="53.68" y="53.83" width="25.45" height="25.45"/><rect class="cls-2" x="80.58" y="53.84" width="25.45" height="25.45"/><rect class="cls-2" x="-0.09" y="80.74" width="25.45" height="25.45"/><rect class="cls-2" x="26.85" y="80.77" width="25.45" height="25.45"/><rect class="cls-2" x="53.68" y="80.78" width="25.45" height="25.45"/><rect class="cls-2" x="80.58" y="80.79" width="25.45" height="25.45"/><rect class="cls-2" x="-0.09" y="107.66" width="25.45" height="25.45"/><rect class="cls-2" x="26.85" y="107.69" width="25.45" height="25.45"/><rect class="cls-2" x="53.68" y="107.7" width="25.45" height="25.45"/><rect class="cls-2" x="80.58" y="107.71" width="25.45" height="25.45"/><circle class="cls-3" cx="12.63" cy="12.75" r="8.06"/><circle class="cls-3" cx="39.57" cy="12.79" r="8.06"/><circle class="cls-3" cx="12.47" cy="39.72" r="8.06"/><circle class="cls-3" cx="93.28" cy="66.82" r="8.06"/><circle class="cls-3" cx="12.47" cy="93.56" r="8.06"/><circle class="cls-3" cx="39.41" cy="93.47" r="8.06"/><circle class="cls-3" cx="93.28" cy="93.54" r="8.06"/><circle class="cls-3" cx="12.47" cy="120.69" r="8.06"/><circle class="cls-3" cx="39.41" cy="121.26" r="8.06"/><circle class="cls-3" cx="93.28" cy="120.66" r="8.06"/><rect class="cls-4" x="108.1" y="0.99" width="25.01" height="131.73"/><line class="cls-5" x1="12.63" y1="66.52" x2="39.57" y2="66.52"/><line class="cls-5" x1="39.57" y1="39.72" x2="39.57" y2="66.55"/><line class="cls-5" x1="66.4" y1="39.73" x2="39.57" y2="39.72"/><line class="cls-5" x1="66.4" y1="12.78" x2="66.4" y2="39.73"/><line class="cls-5" x1="86.38" y1="12.87" x2="66.4" y2="12.78"/><text class="cls-6" transform="translate(85.27 15.15)">+2</text><circle class="cls-3" cx="66.83" cy="12.79" r="8.06"/><circle class="cls-3" cx="39.41" cy="39.76" r="8.06"/><circle class="cls-3" cx="66.67" cy="39.76" r="8.06"/><circle class="cls-3" cx="93.28" cy="39.69" r="8.06"/><circle class="cls-3" cx="12.47" cy="66.85" r="8.06"/><circle class="cls-3" cx="39.41" cy="66.88" r="8.06"/><circle class="cls-3" cx="66.67" cy="66.88" r="8.06"/><circle class="cls-3" cx="66.67" cy="93.6" r="8.06"/><circle class="cls-3" cx="66.67" cy="120.73" r="8.06"/></svg>