<svg id="Layer_1" data-name="Layer 1" xmlns="http://www.w3.org/2000/svg" viewBox="0 0 137.29 136.36"><defs><style>.cls-1{fill:#aa1e22;}.cls-2{fill:#2c3592;}.cls-3{fill:#e7ebe8;}.cls-4{fill:#cac9cc;}</style></defs><title>cliff-walking-states</title><rect class="cls-1" x="109.91" y="2.34" width="25.01" height="131.73"/><rect class="cls-2" x="84.24" y="3.25" width="21.75" height="21.75"/><rect class="cls-3" x="1.72" y="1.38" width="25.45" height="25.45"/><rect class="cls-3" x="28.66" y="1.41" width="25.45" height="25.45"/><rect class="cls-3" x="55.49" y="1.41" width="25.45" height="25.45"/><rect class="cls-3" x="1.72" y="28.32" width="25.45" height="25.45"/><rect class="cls-3" x="28.66" y="28.35" width="25.45" height="25.45"/><rect class="cls-3" x="55.49" y="28.36" width="25.45" height="25.45"/><rect class="cls-3" x="82.4" y="28.37" width="25.45" height="25.45"/><rect class="cls-3" x="1.72" y="55.15" width="25.45" height="25.45"/><rect class="cls-3" x="28.66" y="55.18" width="25.45" height="25.45"/><rect class="cls-3" x="55.49" y="55.19" width="25.45" height="25.45"/><rect class="cls-3" x="82.4" y="55.2" width="25.45" height="25.45"/><rect class="cls-3" x="1.72" y="82.1" width="25.45" height="25.45"/><rect class="cls-3" x="28.66" y="82.13" width="25.45" height="25.45"/><rect class="cls-3" x="55.49" y="82.13" width="25.45" height="25.45"/><rect class="cls-3" x="82.4" y="82.14" width="25.45" height="25.45"/><rect class="cls-3" x="1.72" y="109.02" width="25.45" height="25.45"/><rect class="cls-3" x="28.66" y="109.05" width="25.45" height="25.45"/><rect class="cls-3" x="55.49" y="109.05" width="25.45" height="25.45"/><rect class="cls-3" x="82.4" y="109.06" width="25.45" height="25.45"/><circle class="cls-4" cx="14.44" cy="14.1" r="8.06"/><circle class="cls-4" cx="41.38" cy="14.14" r="8.06"/><circle class="cls-4" cx="68.65" cy="14.14" r="8.06"/><circle class="cls-4" cx="14.28" cy="41.07" r="8.06"/><circle class="cls-4" cx="41.22" cy="41.11" r="8.06"/><circle class="cls-4" cx="68.49" cy="41.11" r="8.06"/><circle class="cls-4" cx="95.1" cy="41.05" r="8.06"/><circle class="cls-4" cx="14.28" cy="68.2" r="8.06"/><circle class="cls-4" cx="41.22" cy="68.24" r="8.06"/><circle class="cls-4" cx="68.49" cy="68.24" r="8.06"/><circle class="cls-4" cx="95.1" cy="68.18" r="8.06"/><circle class="cls-4" cx="14.28" cy="94.92" r="8.06"/><circle class="cls-4" cx="41.22" cy="94.82" r="8.06"/><circle class="cls-4" cx="68.49" cy="94.95" r="8.06"/><circle class="cls-4" cx="95.1" cy="94.89" r="8.06"/><circle class="cls-4" cx="14.28" cy="122.04" r="8.06"/><circle class="cls-4" cx="41.22" cy="122.61" r="8.06"/><circle class="cls-4" cx="68.49" cy="122.08" r="8.06"/><circle class="cls-4" cx="95.1" cy="122.02" r="8.06"/></svg>