<svg id="Layer_1" data-name="Layer 1" xmlns="http://www.w3.org/2000/svg" viewBox="0 0 137.29441 136.35725">
  <defs>
    <style>
      .cls-1 {
        fill: #263b96;
      }

      .cls-2 {
        fill: #e7ebe8;
      }

      .cls-3 {
        fill: #cac9cc;
      }

      .cls-4 {
        fill: #bb7566;
      }

      .cls-5, .cls-6 {
        fill: none;
        stroke-width: 4px;
      }

      .cls-5 {
        stroke: #263b96;
        stroke-miterlimit: 10;
      }

      .cls-6 {
        stroke: #bb7566;
        stroke-linecap: round;
        stroke-linejoin: round;
      }

      .cls-7 {
        font-size: 11px;
        fill: #d1d3d4;
        font-family: MyriadPro-Semibold, Myriad Pro;
        font-weight: 700;
      }
    </style>
  </defs>
  <title>cliffworld-paths</title>
  <rect class="cls-1" x="85.02672" y="3.50564" width="21.75487" height="21.75487"/>
  <rect class="cls-2" x="2.50351" y="1.63096" width="25.44966" height="25.44966"/>
  <rect class="cls-2" x="29.44305" y="1.65825" width="25.44966" height="25.44966"/>
  <rect class="cls-2" x="56.27498" y="1.66357" width="25.44966" height="25.44966"/>
  <rect class="cls-2" x="2.50351" y="28.57569" width="25.44966" height="25.44966"/>
  <rect class="cls-2" x="29.44305" y="28.60298" width="25.44966" height="25.44966"/>
  <rect class="cls-2" x="56.27498" y="28.60831" width="25.44966" height="25.44966"/>
  <rect class="cls-2" x="83.17932" y="28.61896" width="25.44966" height="25.44966"/>
  <rect class="cls-2" x="2.50351" y="55.40461" width="25.44966" height="25.44966"/>
  <rect class="cls-2" x="29.44305" y="55.4319" width="25.44966" height="25.44966"/>
  <rect class="cls-2" x="56.27498" y="55.43723" width="25.44966" height="25.44966"/>
  <rect class="cls-2" x="83.17932" y="55.44788" width="25.44966" height="25.44966"/>
  <rect class="cls-2" x="2.50351" y="82.34935" width="25.44966" height="25.44966"/>
  <rect class="cls-2" x="29.44305" y="82.37663" width="25.44966" height="25.44966"/>
  <rect class="cls-2" x="56.27498" y="82.38196" width="25.44966" height="25.44966"/>
  <rect class="cls-2" x="83.17932" y="82.39262" width="25.44966" height="25.44966"/>
  <rect class="cls-2" x="2.50351" y="109.26978" width="25.44966" height="25.44966"/>
  <rect class="cls-2" x="29.44305" y="109.29707" width="25.44966" height="25.44966"/>
  <rect class="cls-2" x="56.27498" y="109.3024" width="25.44966" height="25.44966"/>
  <rect class="cls-2" x="83.17932" y="109.31305" width="25.44966" height="25.44966"/>
  <circle class="cls-3" cx="15.22834" cy="14.35579" r="8.06084"/>
  <circle class="cls-3" cx="42.16789" cy="14.39374" r="8.06084"/>
  <circle class="cls-3" cx="15.06675" cy="41.32482" r="8.06084"/>
  <circle class="cls-3" cx="95.87853" cy="68.42729" r="8.06084"/>
  <circle class="cls-3" cx="15.06675" cy="95.16768" r="8.06084"/>
  <circle class="cls-3" cx="42.0063" cy="95.07418" r="8.06084"/>
  <circle class="cls-3" cx="95.87853" cy="95.14339" r="8.06084"/>
  <circle class="cls-3" cx="15.06675" cy="122.29444" r="8.06084"/>
  <circle class="cls-3" cx="42.0063" cy="122.86429" r="8.06084"/>
  <circle class="cls-3" cx="95.87853" cy="122.27015" r="8.06084"/>
  <rect class="cls-4" x="110.69718" y="2.59488" width="25.01161" height="131.72706"/>
  <line class="cls-5" x1="15.22834" y1="68.12945" x2="42.16789" y2="68.12945"/>
  <line class="cls-5" x1="42.16789" y1="41.32781" x2="42.16789" y2="68.15673"/>
  <line class="cls-5" x1="68.99981" y1="41.33314" x2="42.16789" y2="41.32781"/>
  <line class="cls-5" x1="68.99981" y1="14.3884" x2="68.99981" y2="41.33314"/>
  <line class="cls-5" x1="88.97781" y1="14.47699" x2="68.99981" y2="14.3884"/>
  <line class="cls-6" x1="68.99981" y1="122.02723" x2="68.99981" y2="95.10679"/>
  <line class="cls-6" x1="68.99981" y1="68.16206" x2="68.99981" y2="95.10679"/>
  <line class="cls-6" x1="68.99981" y1="41.33314" x2="68.99981" y2="68.16206"/>
  <line class="cls-6" x1="95.90415" y1="41.34379" x2="68.99981" y2="41.33314"/>
  <line class="cls-6" x1="115.58229" y1="41.40992" x2="95.90415" y2="41.34379"/>
  <text class="cls-7" transform="translate(87.86873 16.75656)">+2</text>
  <text class="cls-7" transform="translate(114.94167 45.09512)">-1</text>
  <circle class="cls-3" cx="69.43061" cy="14.39374" r="8.06084"/>
  <circle class="cls-3" cx="42.0063" cy="41.36277" r="8.06084"/>
  <circle class="cls-3" cx="69.26902" cy="41.36277" r="8.06084"/>
  <circle class="cls-3" cx="95.87853" cy="41.30053" r="8.06084"/>
  <circle class="cls-3" cx="15.06675" cy="68.45158" r="8.06084"/>
  <circle class="cls-3" cx="42.0063" cy="68.48953" r="8.06084"/>
  <circle class="cls-3" cx="69.26902" cy="68.48953" r="8.06084"/>
  <circle class="cls-3" cx="69.26902" cy="95.20563" r="8.06084"/>
  <circle class="cls-3" cx="69.26902" cy="122.33239" r="8.06084"/>
</svg>
