<svg id="Layer_1" data-name="Layer 1" xmlns="http://www.w3.org/2000/svg" viewBox="0 0 137.29 136.36"><defs><style>.cls-1{fill:#2c3592;}.cls-2{fill:#e7ebe8;}.cls-3{fill:#cac9cc;}.cls-4{fill:none;stroke:#2c3592;stroke-linecap:round;stroke-linejoin:round;stroke-width:4px;}.cls-5{fill:#aa1e22;}.cls-6{font-size:11px;fill:#d1d3d4;font-family:MyriadPro-Semibold, Myriad Pro;font-weight:700;}</style></defs><title>cliffworld-traj-1of2</title><rect class="cls-1" x="85.03" y="3.51" width="21.75" height="21.75"/><rect class="cls-2" x="2.5" y="1.63" width="25.45" height="25.45"/><rect class="cls-2" x="29.44" y="1.66" width="25.45" height="25.45"/><rect class="cls-2" x="56.27" y="1.66" width="25.45" height="25.45"/><rect class="cls-2" x="2.5" y="28.58" width="25.45" height="25.45"/><rect class="cls-2" x="29.44" y="28.6" width="25.45" height="25.45"/><rect class="cls-2" x="56.27" y="28.61" width="25.45" height="25.45"/><rect class="cls-2" x="83.18" y="28.62" width="25.45" height="25.45"/><rect class="cls-2" x="2.5" y="55.4" width="25.45" height="25.45"/><rect class="cls-2" x="29.44" y="55.43" width="25.45" height="25.45"/><rect class="cls-2" x="56.27" y="55.44" width="25.45" height="25.45"/><rect class="cls-2" x="83.18" y="55.45" width="25.45" height="25.45"/><rect class="cls-2" x="2.5" y="82.35" width="25.45" height="25.45"/><rect class="cls-2" x="29.44" y="82.38" width="25.45" height="25.45"/><rect class="cls-2" x="56.27" y="82.38" width="25.45" height="25.45"/><rect class="cls-2" x="83.18" y="82.39" width="25.45" height="25.45"/><rect class="cls-2" x="2.5" y="109.27" width="25.45" height="25.45"/><rect class="cls-2" x="29.44" y="109.3" width="25.45" height="25.45"/><rect class="cls-2" x="56.27" y="109.3" width="25.45" height="25.45"/><rect class="cls-2" x="83.18" y="109.31" width="25.45" height="25.45"/><circle class="cls-3" cx="15.23" cy="14.36" r="8.06"/><circle class="cls-3" cx="42.17" cy="14.39" r="8.06"/><circle class="cls-3" cx="69.43" cy="14.39" r="8.06"/><circle class="cls-3" cx="15.07" cy="41.32" r="8.06"/><circle class="cls-3" cx="42.01" cy="41.36" r="8.06"/><circle class="cls-3" cx="69.27" cy="41.36" r="8.06"/><circle class="cls-3" cx="95.88" cy="41.3" r="8.06"/><circle class="cls-3" cx="15.07" cy="68.45" r="8.06"/><circle class="cls-3" cx="42.01" cy="68.49" r="8.06"/><circle class="cls-3" cx="69.27" cy="68.49" r="8.06"/><circle class="cls-3" cx="95.88" cy="68.43" r="8.06"/><circle class="cls-3" cx="15.07" cy="95.17" r="8.06"/><circle class="cls-3" cx="42.01" cy="95.07" r="8.06"/><circle class="cls-3" cx="69.27" cy="95.21" r="8.06"/><circle class="cls-3" cx="95.88" cy="95.14" r="8.06"/><circle class="cls-3" cx="15.07" cy="122.29" r="8.06"/><circle class="cls-3" cx="42.01" cy="122.86" r="8.06"/><circle class="cls-3" cx="69.27" cy="122.33" r="8.06"/><circle class="cls-3" cx="95.88" cy="122.27" r="8.06"/><polyline class="cls-4" points="93.59 12.64 67.12 12.64 67.12 39.62 39.69 39.62 39.69 66.75 12.75 66.71"/><rect class="cls-5" x="110.7" y="2.59" width="25.01" height="131.73"/><text class="cls-6" transform="translate(87.87 16.76)">+2</text></svg>