<svg id="Layer_1" data-name="Layer 1" xmlns="http://www.w3.org/2000/svg" viewBox="0 0 133.07 133.33"><defs><style>.cls-1{fill:#2c3592;}.cls-2{fill:#e7ebe8;}.cls-3{fill:#cac9cc;}.cls-4{fill:#aa1e22;}.cls-5{fill:none;stroke:#2c3592;stroke-linecap:round;stroke-linejoin:round;stroke-width:4px;}.cls-6{font-size:11px;fill:#d1d3d4;font-family:MyriadPro-Semibold, Myriad Pro;font-weight:700;}</style></defs><title>cliffworld-path-3of4</title><rect class="cls-1" x="82.4" y="2" width="21.75" height="21.75"/><rect class="cls-2" x="-0.12" y="0.12" width="25.45" height="25.45"/><rect class="cls-2" x="26.81" y="0.15" width="25.45" height="25.45"/><rect class="cls-2" x="53.65" y="0.16" width="25.45" height="25.45"/><rect class="cls-2" x="-0.12" y="27.07" width="25.45" height="25.45"/><rect class="cls-2" x="26.81" y="27.1" width="25.45" height="25.45"/><rect class="cls-2" x="53.65" y="27.1" width="25.45" height="25.45"/><rect class="cls-2" x="80.55" y="27.11" width="25.45" height="25.45"/><rect class="cls-2" x="-0.12" y="53.9" width="25.45" height="25.45"/><rect class="cls-2" x="26.81" y="53.93" width="25.45" height="25.45"/><rect class="cls-2" x="53.65" y="53.93" width="25.45" height="25.45"/><rect class="cls-2" x="80.55" y="53.94" width="25.45" height="25.45"/><rect class="cls-2" x="-0.12" y="80.84" width="25.45" height="25.45"/><rect class="cls-2" x="26.81" y="80.87" width="25.45" height="25.45"/><rect class="cls-2" x="53.65" y="80.88" width="25.45" height="25.45"/><rect class="cls-2" x="80.55" y="80.89" width="25.45" height="25.45"/><rect class="cls-2" x="-0.12" y="107.76" width="25.45" height="25.45"/><rect class="cls-2" x="26.81" y="107.79" width="25.45" height="25.45"/><rect class="cls-2" x="53.65" y="107.8" width="25.45" height="25.45"/><rect class="cls-2" x="80.55" y="107.81" width="25.45" height="25.45"/><circle class="cls-3" cx="12.6" cy="12.85" r="8.06"/><circle class="cls-3" cx="39.54" cy="12.89" r="8.06"/><circle class="cls-3" cx="12.44" cy="39.82" r="8.06"/><circle class="cls-3" cx="93.25" cy="66.92" r="8.06"/><circle class="cls-3" cx="12.44" cy="93.66" r="8.06"/><circle class="cls-3" cx="39.38" cy="93.57" r="8.06"/><circle class="cls-3" cx="93.25" cy="93.64" r="8.06"/><circle class="cls-3" cx="12.44" cy="120.79" r="8.06"/><circle class="cls-3" cx="39.38" cy="121.36" r="8.06"/><circle class="cls-3" cx="93.25" cy="120.76" r="8.06"/><rect class="cls-4" x="108.07" y="1.09" width="25.01" height="131.73"/><line class="cls-5" x1="66.37" y1="12.88" x2="66.37" y2="39.83"/><line class="cls-5" x1="86.35" y1="12.97" x2="66.37" y2="12.88"/><line class="cls-5" x1="66.37" y1="120.52" x2="66.37" y2="93.6"/><line class="cls-5" x1="66.37" y1="66.66" x2="66.37" y2="93.6"/><line class="cls-5" x1="66.37" y1="39.83" x2="66.37" y2="66.66"/><text class="cls-6" transform="translate(85.24 15.25)">+2</text><circle class="cls-3" cx="66.8" cy="12.89" r="8.06"/><circle class="cls-3" cx="39.38" cy="39.86" r="8.06"/><circle class="cls-3" cx="66.64" cy="39.86" r="8.06"/><circle class="cls-3" cx="93.25" cy="39.79" r="8.06"/><circle class="cls-3" cx="12.44" cy="66.95" r="8.06"/><circle class="cls-3" cx="39.38" cy="66.98" r="8.06"/><circle class="cls-3" cx="66.64" cy="66.98" r="8.06"/><circle class="cls-3" cx="66.64" cy="93.7" r="8.06"/><circle class="cls-3" cx="66.64" cy="120.83" r="8.06"/></svg>