<svg id="Layer_1" data-name="Layer 1" xmlns="http://www.w3.org/2000/svg" viewBox="0 0 133.03 133.29"><defs><style>.cls-1{fill:#2c3592;}.cls-2{fill:#e7ebe8;}.cls-3{fill:#cac9cc;}.cls-4{fill:#aa1e22;}.cls-5{fill:none;stroke:#aa1e22;stroke-linecap:round;stroke-linejoin:round;stroke-width:4px;}.cls-6{font-size:11px;fill:#d1d3d4;font-family:MyriadPro-Semibold, Myriad Pro;font-weight:700;}</style></defs><title>cliffworld-path-2of4</title><rect class="cls-1" x="82.43" y="1.85" width="21.75" height="21.75"/><rect class="cls-2" x="-0.1" y="-0.02" width="25.45" height="25.45"/><rect class="cls-2" x="26.84" y="0.01" width="25.45" height="25.45"/><rect class="cls-2" x="53.67" y="0.01" width="25.45" height="25.45"/><rect class="cls-2" x="-0.1" y="26.92" width="25.45" height="25.45"/><rect class="cls-2" x="26.84" y="26.95" width="25.45" height="25.45"/><rect class="cls-2" x="53.67" y="26.96" width="25.45" height="25.45"/><rect class="cls-2" x="80.58" y="26.97" width="25.45" height="25.45"/><rect class="cls-2" x="-0.1" y="53.75" width="25.45" height="25.45"/><rect class="cls-2" x="26.84" y="53.78" width="25.45" height="25.45"/><rect class="cls-2" x="53.67" y="53.79" width="25.45" height="25.45"/><rect class="cls-2" x="80.58" y="53.8" width="25.45" height="25.45"/><rect class="cls-2" x="-0.1" y="80.7" width="25.45" height="25.45"/><rect class="cls-2" x="26.84" y="80.73" width="25.45" height="25.45"/><rect class="cls-2" x="53.67" y="80.73" width="25.45" height="25.45"/><rect class="cls-2" x="80.58" y="80.74" width="25.45" height="25.45"/><rect class="cls-2" x="-0.1" y="107.62" width="25.45" height="25.45"/><rect class="cls-2" x="26.84" y="107.65" width="25.45" height="25.45"/><rect class="cls-2" x="53.67" y="107.65" width="25.45" height="25.45"/><rect class="cls-2" x="80.58" y="107.66" width="25.45" height="25.45"/><circle class="cls-3" cx="12.63" cy="12.7" r="8.06"/><circle class="cls-3" cx="39.57" cy="12.74" r="8.06"/><circle class="cls-3" cx="12.47" cy="39.67" r="8.06"/><circle class="cls-3" cx="93.28" cy="66.78" r="8.06"/><circle class="cls-3" cx="12.47" cy="93.52" r="8.06"/><circle class="cls-3" cx="39.41" cy="93.42" r="8.06"/><circle class="cls-3" cx="93.28" cy="93.49" r="8.06"/><circle class="cls-3" cx="12.47" cy="120.64" r="8.06"/><circle class="cls-3" cx="39.41" cy="121.21" r="8.06"/><circle class="cls-3" cx="93.28" cy="120.62" r="8.06"/><rect class="cls-4" x="108.1" y="0.94" width="25.01" height="131.73"/><line class="cls-5" x1="66.4" y1="120.38" x2="66.4" y2="93.46"/><line class="cls-5" x1="66.4" y1="66.51" x2="66.4" y2="93.46"/><line class="cls-5" x1="66.4" y1="39.68" x2="66.4" y2="66.51"/><line class="cls-5" x1="93.3" y1="39.69" x2="66.4" y2="39.68"/><line class="cls-5" x1="112.98" y1="39.76" x2="93.3" y2="39.69"/><text class="cls-6" transform="translate(112.34 43.44)">-1</text><circle class="cls-3" cx="66.83" cy="12.74" r="8.06"/><circle class="cls-3" cx="39.41" cy="39.71" r="8.06"/><circle class="cls-3" cx="66.67" cy="39.71" r="8.06"/><circle class="cls-3" cx="93.28" cy="39.65" r="8.06"/><circle class="cls-3" cx="12.47" cy="66.8" r="8.06"/><circle class="cls-3" cx="39.41" cy="66.84" r="8.06"/><circle class="cls-3" cx="66.67" cy="66.84" r="8.06"/><circle class="cls-3" cx="66.67" cy="93.55" r="8.06"/><circle class="cls-3" cx="66.67" cy="120.68" r="8.06"/></svg>