<svg id="Layer_1" data-name="Layer 1" xmlns="http://www.w3.org/2000/svg" viewBox="0 0 137.29 136.36"><defs><style>.cls-1{fill:#e7ebe8;}.cls-2{fill:#cac9cc;}.cls-3,.cls-4,.cls-5{fill:none;stroke-miterlimit:10;stroke-width:4px;}.cls-3{stroke:#70a8da;}.cls-4{stroke:#2c3592;}.cls-5{stroke:#aa1e22;}.cls-6{fill:#2c3592;}.cls-7{fill:#70a8da;}.cls-8{fill:#aa1e22;}.cls-9{font-size:11px;fill:#d1d3d4;font-family:MyriadPro-Semibold, Myriad Pro;font-weight:700;}</style></defs><title>Artboard 80</title><rect class="cls-1" x="1.59" y="1.12" width="25.45" height="25.45"/><rect class="cls-1" x="28.53" y="1.15" width="25.45" height="25.45"/><rect class="cls-1" x="55.36" y="1.16" width="25.45" height="25.45"/><rect class="cls-1" x="1.59" y="28.07" width="25.45" height="25.45"/><rect class="cls-1" x="28.53" y="28.1" width="25.45" height="25.45"/><rect class="cls-1" x="55.36" y="28.1" width="25.45" height="25.45"/><rect class="cls-1" x="82.26" y="28.11" width="25.45" height="25.45"/><rect class="cls-1" x="1.59" y="54.9" width="25.45" height="25.45"/><rect class="cls-1" x="28.53" y="54.92" width="25.45" height="25.45"/><rect class="cls-1" x="55.36" y="54.93" width="25.45" height="25.45"/><rect class="cls-1" x="82.26" y="54.94" width="25.45" height="25.45"/><rect class="cls-1" x="1.59" y="81.84" width="25.45" height="25.45"/><rect class="cls-1" x="28.53" y="81.87" width="25.45" height="25.45"/><rect class="cls-1" x="55.36" y="81.87" width="25.45" height="25.45"/><rect class="cls-1" x="82.26" y="81.88" width="25.45" height="25.45"/><rect class="cls-1" x="1.59" y="108.76" width="25.45" height="25.45"/><rect class="cls-1" x="28.53" y="108.79" width="25.45" height="25.45"/><rect class="cls-1" x="55.36" y="108.79" width="25.45" height="25.45"/><rect class="cls-1" x="82.26" y="108.81" width="25.45" height="25.45"/><circle class="cls-2" cx="14.31" cy="13.85" r="8.06"/><circle class="cls-2" cx="41.25" cy="13.89" r="8.06"/><circle class="cls-2" cx="14.15" cy="40.82" r="8.06"/><circle class="cls-2" cx="94.96" cy="67.92" r="8.06"/><circle class="cls-2" cx="14.15" cy="94.66" r="8.06"/><line class="cls-3" x1="14.15" y1="67.94" x2="41.09" y2="67.98"/><line class="cls-3" x1="41.09" y1="40.85" x2="41.09" y2="67.98"/><line class="cls-3" x1="68.35" y1="40.85" x2="41.09" y2="40.85"/><line class="cls-4" x1="68.51" y1="13.89" x2="68.35" y2="40.85"/><line class="cls-4" x1="94.99" y1="13.85" x2="68.51" y2="13.89"/><line class="cls-3" x1="68.08" y1="67.62" x2="68.08" y2="94.64"/><line class="cls-3" x1="68.35" y1="40.85" x2="68.08" y2="67.62"/><line class="cls-5" x1="94.99" y1="40.79" x2="68.35" y2="40.85"/><line class="cls-5" x1="122.29" y1="40.85" x2="94.96" y2="40.79"/><circle class="cls-6" cx="68.51" cy="13.89" r="8.06"/><circle class="cls-7" cx="41.09" cy="40.85" r="8.06"/><circle class="cls-7" cx="68.35" cy="40.85" r="8.06"/><circle class="cls-8" cx="94.96" cy="40.79" r="8.06"/><circle class="cls-7" cx="14.15" cy="67.94" r="8.06"/><circle class="cls-7" cx="41.09" cy="67.98" r="8.06"/><circle class="cls-7" cx="68.35" cy="67.98" r="8.06"/><circle class="cls-2" cx="41.09" cy="94.57" r="8.06"/><circle class="cls-2" cx="14.15" cy="121.79" r="8.06"/><circle class="cls-2" cx="41.09" cy="122.36" r="8.06"/><rect class="cls-8" x="109.78" y="2.09" width="25.01" height="131.73"/><text class="cls-9" transform="translate(113.37 43.81)">-1</text><line class="cls-3" x1="68.35" y1="121.82" x2="68.35" y2="94.7"/><circle class="cls-2" cx="94.96" cy="94.64" r="8.06"/><circle class="cls-7" cx="68.35" cy="94.7" r="8.06"/><circle class="cls-7" cx="68.35" cy="121.82" r="8.06"/><circle class="cls-2" cx="94.96" cy="121.76" r="8.06"/><rect class="cls-6" x="84.08" y="2.9" width="21.75" height="21.75"/><text class="cls-9" transform="translate(86.95 16.25)">+2</text></svg>