<svg id="Layer_1" data-name="Layer 1" xmlns="http://www.w3.org/2000/svg" viewBox="0 0 137.29 136.36"><defs><style>.cls-1{fill:#2c3592;}.cls-2{fill:#e7ebe8;}.cls-3{fill:#cac9cc;}.cls-4{fill:#aa1e22;}.cls-5{fill:none;stroke:#aa1e22;stroke-linecap:round;stroke-linejoin:round;stroke-width:4px;}.cls-6{font-size:11px;fill:#d1d3d4;font-family:MyriadPro-Semibold, Myriad Pro;font-weight:700;}</style></defs><title>cliffworld-path-4of4</title><rect class="cls-1" x="84.73" y="3.36" width="21.75" height="21.75"/><rect class="cls-2" x="2.21" y="1.48" width="25.45" height="25.45"/><rect class="cls-2" x="29.15" y="1.51" width="25.45" height="25.45"/><rect class="cls-2" x="55.98" y="1.52" width="25.45" height="25.45"/><rect class="cls-2" x="2.21" y="28.43" width="25.45" height="25.45"/><rect class="cls-2" x="29.15" y="28.46" width="25.45" height="25.45"/><rect class="cls-2" x="55.98" y="28.46" width="25.45" height="25.45"/><rect class="cls-2" x="82.89" y="28.47" width="25.45" height="25.45"/><rect class="cls-2" x="2.21" y="55.26" width="25.45" height="25.45"/><rect class="cls-2" x="29.15" y="55.29" width="25.45" height="25.45"/><rect class="cls-2" x="55.98" y="55.29" width="25.45" height="25.45"/><rect class="cls-2" x="82.89" y="55.3" width="25.45" height="25.45"/><rect class="cls-2" x="2.21" y="82.2" width="25.45" height="25.45"/><rect class="cls-2" x="29.15" y="82.23" width="25.45" height="25.45"/><rect class="cls-2" x="55.98" y="82.24" width="25.45" height="25.45"/><rect class="cls-2" x="82.89" y="82.25" width="25.45" height="25.45"/><rect class="cls-2" x="2.21" y="109.12" width="25.45" height="25.45"/><rect class="cls-2" x="29.15" y="109.15" width="25.45" height="25.45"/><rect class="cls-2" x="55.98" y="109.16" width="25.45" height="25.45"/><rect class="cls-2" x="82.89" y="109.17" width="25.45" height="25.45"/><circle class="cls-3" cx="14.93" cy="14.21" r="8.06"/><circle class="cls-3" cx="41.87" cy="14.25" r="8.06"/><circle class="cls-3" cx="14.77" cy="41.18" r="8.06"/><circle class="cls-3" cx="95.59" cy="68.28" r="8.06"/><circle class="cls-3" cx="14.77" cy="95.02" r="8.06"/><circle class="cls-3" cx="41.71" cy="94.93" r="8.06"/><circle class="cls-3" cx="95.59" cy="95" r="8.06"/><circle class="cls-3" cx="14.77" cy="122.15" r="8.06"/><circle class="cls-3" cx="41.71" cy="122.72" r="8.06"/><circle class="cls-3" cx="95.59" cy="122.12" r="8.06"/><rect class="cls-4" x="110.4" y="2.45" width="25.01" height="131.73"/><line class="cls-5" x1="14.93" y1="67.98" x2="41.87" y2="67.98"/><line class="cls-5" x1="41.87" y1="41.18" x2="41.87" y2="68.01"/><line class="cls-5" x1="68.71" y1="41.19" x2="41.87" y2="41.18"/><line class="cls-5" x1="95.61" y1="41.2" x2="68.71" y2="41.19"/><line class="cls-5" x1="115.29" y1="41.26" x2="95.61" y2="41.2"/><text class="cls-6" transform="translate(114.65 44.95)">-1</text><circle class="cls-3" cx="69.14" cy="14.25" r="8.06"/><circle class="cls-3" cx="41.71" cy="41.22" r="8.06"/><circle class="cls-3" cx="68.98" cy="41.22" r="8.06"/><circle class="cls-3" cx="95.59" cy="41.15" r="8.06"/><circle class="cls-3" cx="14.77" cy="68.3" r="8.06"/><circle class="cls-3" cx="41.71" cy="68.34" r="8.06"/><circle class="cls-3" cx="68.98" cy="68.34" r="8.06"/><circle class="cls-3" cx="68.98" cy="95.06" r="8.06"/><circle class="cls-3" cx="68.98" cy="122.19" r="8.06"/></svg>