<svg id="Layer_1" data-name="Layer 1" xmlns="http://www.w3.org/2000/svg" viewBox="0 0 133.23 133.18"><defs><style>.cls-1{fill:#e7ebe8;}.cls-2{fill:#cac9cc;}.cls-3,.cls-4{fill:none;stroke-miterlimit:10;stroke-width:4px;}.cls-3{stroke:#2c3592;}.cls-4{stroke:#aa1e22;}.cls-5{fill:#2c3592;}.cls-6{fill:#70a8da;}.cls-7{fill:#aa1e22;}.cls-8{font-size:11px;fill:#d1d3d4;font-family:MyriadPro-Semibold, Myriad Pro;font-weight:700;}</style></defs><title>cliffworld-mc</title><rect class="cls-1" x="0.02" y="-0.01" width="25.45" height="25.45"/><rect class="cls-1" x="26.96" y="0.01" width="25.45" height="25.45"/><rect class="cls-1" x="53.79" y="0.02" width="25.45" height="25.45"/><rect class="cls-1" x="0.02" y="26.93" width="25.45" height="25.45"/><rect class="cls-1" x="26.96" y="26.96" width="25.45" height="25.45"/><rect class="cls-1" x="53.79" y="26.96" width="25.45" height="25.45"/><rect class="cls-1" x="80.7" y="26.97" width="25.45" height="25.45"/><rect class="cls-1" x="0.02" y="53.76" width="25.45" height="25.45"/><rect class="cls-1" x="26.96" y="53.79" width="25.45" height="25.45"/><rect class="cls-1" x="53.79" y="53.79" width="25.45" height="25.45"/><rect class="cls-1" x="80.7" y="53.8" width="25.45" height="25.45"/><rect class="cls-1" x="0.02" y="80.7" width="25.45" height="25.45"/><rect class="cls-1" x="26.96" y="80.73" width="25.45" height="25.45"/><rect class="cls-1" x="53.79" y="80.74" width="25.45" height="25.45"/><rect class="cls-1" x="80.7" y="80.75" width="25.45" height="25.45"/><rect class="cls-1" x="0.02" y="107.62" width="25.45" height="25.45"/><rect class="cls-1" x="26.96" y="107.65" width="25.45" height="25.45"/><rect class="cls-1" x="53.79" y="107.66" width="25.45" height="25.45"/><rect class="cls-1" x="80.7" y="107.67" width="25.45" height="25.45"/><circle class="cls-2" cx="12.75" cy="12.71" r="8.06"/><circle class="cls-2" cx="39.69" cy="12.75" r="8.06"/><circle class="cls-2" cx="12.58" cy="39.68" r="8.06"/><circle class="cls-2" cx="93.4" cy="66.78" r="8.06"/><circle class="cls-2" cx="12.58" cy="93.52" r="8.06"/><line class="cls-3" x1="12.58" y1="66.81" x2="39.52" y2="66.84"/><line class="cls-3" x1="39.52" y1="39.72" x2="39.52" y2="66.84"/><line class="cls-3" x1="66.79" y1="39.72" x2="39.52" y2="39.72"/><line class="cls-3" x1="66.95" y1="12.75" x2="66.79" y2="39.72"/><line class="cls-3" x1="93.42" y1="12.71" x2="66.95" y2="12.75"/><line class="cls-4" x1="66.52" y1="66.48" x2="66.52" y2="93.5"/><line class="cls-4" x1="66.79" y1="39.72" x2="66.52" y2="66.48"/><line class="cls-4" x1="93.42" y1="39.66" x2="66.79" y2="39.72"/><line class="cls-4" x1="120.72" y1="39.72" x2="93.4" y2="39.66"/><circle class="cls-5" cx="66.95" cy="12.75" r="8.06"/><circle class="cls-5" cx="39.52" cy="39.72" r="8.06"/><circle class="cls-6" cx="66.79" cy="39.72" r="8.06"/><circle class="cls-7" cx="93.4" cy="39.66" r="8.06"/><circle class="cls-5" cx="12.58" cy="66.81" r="8.06"/><circle class="cls-5" cx="39.52" cy="66.84" r="8.06"/><circle class="cls-7" cx="66.79" cy="66.84" r="8.06"/><circle class="cls-2" cx="39.52" cy="93.43" r="8.06"/><circle class="cls-2" cx="12.58" cy="120.65" r="8.06"/><circle class="cls-2" cx="39.52" cy="121.22" r="8.06"/><rect class="cls-7" x="108.21" y="0.95" width="25.01" height="131.73"/><text class="cls-8" transform="translate(111.8 42.68)">-1</text><line class="cls-4" x1="66.79" y1="120.69" x2="66.79" y2="93.56"/><circle class="cls-2" cx="93.4" cy="93.5" r="8.06"/><circle class="cls-7" cx="66.79" cy="93.56" r="8.06"/><circle class="cls-7" cx="66.79" cy="120.69" r="8.06"/><circle class="cls-2" cx="93.4" cy="120.63" r="8.06"/><rect class="cls-5" x="82.52" y="1.77" width="21.75" height="21.75"/><text class="cls-8" transform="translate(85.39 15.11)">+2</text></svg>