<svg id="Layer_1" data-name="Layer 1" xmlns="http://www.w3.org/2000/svg" viewBox="0 0 137.29 136.36"><defs><style>.cls-1{fill:#e7ebe8;}.cls-2{fill:#cac9cc;}.cls-3{fill:none;stroke:#aa1e22;stroke-miterlimit:10;stroke-width:4px;}.cls-4{fill:#aa1e22;}.cls-5{font-size:11px;fill:#d1d3d4;font-family:MyriadPro-Semibold, Myriad Pro;font-weight:700;}.cls-6{fill:#2c3592;}</style></defs><title>cliffworld-path2</title><rect class="cls-1" x="1.98" y="1.91" width="25.45" height="25.45"/><rect class="cls-1" x="28.92" y="1.94" width="25.45" height="25.45"/><rect class="cls-1" x="55.75" y="1.94" width="25.45" height="25.45"/><rect class="cls-1" x="1.98" y="28.86" width="25.45" height="25.45"/><rect class="cls-1" x="28.92" y="28.88" width="25.45" height="25.45"/><rect class="cls-1" x="55.75" y="28.89" width="25.45" height="25.45"/><rect class="cls-1" x="82.66" y="28.9" width="25.45" height="25.45"/><rect class="cls-1" x="1.98" y="55.68" width="25.45" height="25.45"/><rect class="cls-1" x="28.92" y="55.71" width="25.45" height="25.45"/><rect class="cls-1" x="55.75" y="55.72" width="25.45" height="25.45"/><rect class="cls-1" x="82.66" y="55.73" width="25.45" height="25.45"/><rect class="cls-1" x="1.98" y="82.63" width="25.45" height="25.45"/><rect class="cls-1" x="28.92" y="82.66" width="25.45" height="25.45"/><rect class="cls-1" x="55.75" y="82.66" width="25.45" height="25.45"/><rect class="cls-1" x="82.66" y="82.67" width="25.45" height="25.45"/><rect class="cls-1" x="1.98" y="109.55" width="25.45" height="25.45"/><rect class="cls-1" x="28.92" y="109.58" width="25.45" height="25.45"/><rect class="cls-1" x="55.75" y="109.58" width="25.45" height="25.45"/><rect class="cls-1" x="82.66" y="109.59" width="25.45" height="25.45"/><circle class="cls-2" cx="14.71" cy="14.64" r="8.06"/><circle class="cls-2" cx="41.65" cy="14.67" r="8.06"/><circle class="cls-2" cx="14.54" cy="41.6" r="8.06"/><circle class="cls-2" cx="95.36" cy="68.71" r="8.06"/><circle class="cls-2" cx="14.54" cy="95.45" r="8.06"/><line class="cls-3" x1="68.48" y1="68.41" x2="68.48" y2="95.42"/><line class="cls-3" x1="68.75" y1="41.64" x2="68.48" y2="68.41"/><line class="cls-3" x1="95.38" y1="41.58" x2="68.75" y2="41.64"/><line class="cls-3" x1="122.68" y1="41.64" x2="95.36" y2="41.58"/><circle class="cls-2" cx="68.91" cy="14.67" r="8.06"/><circle class="cls-2" cx="41.48" cy="41.64" r="8.06"/><circle class="cls-4" cx="68.75" cy="41.64" r="8.06"/><circle class="cls-4" cx="95.36" cy="41.58" r="8.06"/><circle class="cls-2" cx="14.54" cy="68.73" r="8.06"/><circle class="cls-2" cx="41.48" cy="68.77" r="8.06"/><circle class="cls-4" cx="68.75" cy="68.77" r="8.06"/><circle class="cls-2" cx="41.48" cy="95.35" r="8.06"/><circle class="cls-2" cx="14.54" cy="122.57" r="8.06"/><circle class="cls-2" cx="41.48" cy="123.14" r="8.06"/><rect class="cls-4" x="110.17" y="2.88" width="25.01" height="131.73"/><text class="cls-5" transform="translate(113.76 44.6)">-1</text><line class="cls-3" x1="68.75" y1="122.61" x2="68.75" y2="95.49"/><circle class="cls-2" cx="95.36" cy="95.42" r="8.06"/><circle class="cls-4" cx="68.75" cy="95.49" r="8.06"/><circle class="cls-4" cx="68.75" cy="122.61" r="8.06"/><circle class="cls-2" cx="95.36" cy="122.55" r="8.06"/><rect class="cls-6" x="84.48" y="3.69" width="21.75" height="21.75"/></svg>