<svg id="Layer_1" data-name="Layer 1" xmlns="http://www.w3.org/2000/svg" viewBox="0 0 133.03025 133.28789">
  <defs>
    <style>
      .cls-1 {
        fill: #2c3592;
      }

      .cls-2 {
        fill: #e7ebe8;
      }

      .cls-3 {
        fill: #cac9cc;
      }

      .cls-4 {
        fill: #aa1e22;
      }

      .cls-5 {
        fill: none;
        stroke: #aa1e22;
        stroke-linecap: round;
        stroke-linejoin: round;
        stroke-width: 4px;
      }

      .cls-6 {
        font-size: 11px;
        fill: #d1d3d4;
        font-family: MyriadPro-Semibold, Myriad Pro;
        font-weight: 700;
      }
    </style>
  </defs>
  <title>cliffworld-path-2of4</title>
  <rect class="cls-1" x="82.42633" y="1.85414" width="21.75487" height="21.75487"/>
  <rect class="cls-2" x="-0.09688" y="-0.02055" width="25.44966" height="25.44966"/>
  <rect class="cls-2" x="26.84266" y="0.00674" width="25.44966" height="25.44966"/>
  <rect class="cls-2" x="53.67459" y="0.01207" width="25.44966" height="25.44966"/>
  <rect class="cls-2" x="-0.09688" y="26.92419" width="25.44966" height="25.44966"/>
  <rect class="cls-2" x="26.84266" y="26.95147" width="25.44966" height="25.44966"/>
  <rect class="cls-2" x="53.67459" y="26.9568" width="25.44966" height="25.44966"/>
  <rect class="cls-2" x="80.57893" y="26.96746" width="25.44966" height="25.44966"/>
  <rect class="cls-2" x="-0.09688" y="53.75311" width="25.44966" height="25.44966"/>
  <rect class="cls-2" x="26.84266" y="53.78039" width="25.44966" height="25.44966"/>
  <rect class="cls-2" x="53.67459" y="53.78572" width="25.44966" height="25.44966"/>
  <rect class="cls-2" x="80.57893" y="53.79637" width="25.44966" height="25.44966"/>
  <rect class="cls-2" x="-0.09688" y="80.69784" width="25.44966" height="25.44966"/>
  <rect class="cls-2" x="26.84266" y="80.72513" width="25.44966" height="25.44966"/>
  <rect class="cls-2" x="53.67459" y="80.73045" width="25.44966" height="25.44966"/>
  <rect class="cls-2" x="80.57893" y="80.74111" width="25.44966" height="25.44966"/>
  <rect class="cls-2" x="-0.09688" y="107.61828" width="25.44966" height="25.44966"/>
  <rect class="cls-2" x="26.84266" y="107.64556" width="25.44966" height="25.44966"/>
  <rect class="cls-2" x="53.67459" y="107.65089" width="25.44966" height="25.44966"/>
  <rect class="cls-2" x="80.57893" y="107.66155" width="25.44966" height="25.44966"/>
  <circle class="cls-3" cx="12.62795" cy="12.70429" r="8.06084"/>
  <circle class="cls-3" cx="39.5675" cy="12.74224" r="8.06084"/>
  <circle class="cls-3" cx="12.46636" cy="39.67331" r="8.06084"/>
  <circle class="cls-3" cx="93.27814" cy="66.77578" r="8.06084"/>
  <circle class="cls-3" cx="12.46636" cy="93.51617" r="8.06084"/>
  <circle class="cls-3" cx="39.40591" cy="93.42267" r="8.06084"/>
  <circle class="cls-3" cx="93.27814" cy="93.49188" r="8.06084"/>
  <circle class="cls-3" cx="12.46636" cy="120.64293" r="8.06084"/>
  <circle class="cls-3" cx="39.40591" cy="121.21278" r="8.06084"/>
  <circle class="cls-3" cx="93.27814" cy="120.61864" r="8.06084"/>
  <rect class="cls-4" x="108.0968" y="0.94337" width="25.01161" height="131.72706"/>
  <circle class="cls-3" cx="66.83022" cy="12.74224" r="8.06084"/>
  <circle class="cls-3" cx="39.40591" cy="39.71126" r="8.06084"/>
  <circle class="cls-3" cx="66.66863" cy="39.71126" r="8.06084"/>
  <circle class="cls-3" cx="93.27814" cy="39.64902" r="8.06084"/>
  <circle class="cls-3" cx="12.46636" cy="66.80007" r="8.06084"/>
  <circle class="cls-3" cx="39.40591" cy="66.83802" r="8.06084"/>
  <circle class="cls-3" cx="66.66863" cy="66.83802" r="8.06084"/>
  <circle class="cls-3" cx="66.66863" cy="93.55413" r="8.06084"/>
  <circle class="cls-3" cx="66.66863" cy="120.68088" r="8.06084"/>
  <line class="cls-5" x1="66.39942" y1="120.37572" x2="66.39942" y2="93.45528"/>
  <line class="cls-5" x1="66.39942" y1="66.51055" x2="66.39942" y2="93.45528"/>
  <line class="cls-5" x1="66.39942" y1="39.68163" x2="66.39942" y2="66.51055"/>
  <line class="cls-5" x1="93.30376" y1="39.69229" x2="66.39942" y2="39.68163"/>
  <line class="cls-5" x1="112.9819" y1="39.75841" x2="93.30376" y2="39.69229"/>
  <text class="cls-6" transform="translate(112.34129 43.44362)">-1</text>
</svg>
