<svg id="Layer_1" data-name="Layer 1" xmlns="http://www.w3.org/2000/svg" viewBox="0 0 137.29 136.36"><defs><style>.cls-1{fill:#e7ebe8;}.cls-2{fill:#cac9cc;}.cls-3,.cls-4{fill:none;stroke-miterlimit:10;stroke-width:4px;}.cls-3{stroke:#2c3592;}.cls-4{stroke:#aa1e22;}.cls-5{fill:#2c3592;}.cls-6{fill:#70a8da;}.cls-7{fill:#aa1e22;}.cls-8{font-size:11px;fill:#d1d3d4;font-family:MyriadPro-Semibold, Myriad Pro;font-weight:700;}</style></defs><title>cliffworld-mc</title><rect class="cls-1" x="1.88" y="1.12" width="25.45" height="25.45"/><rect class="cls-1" x="28.82" y="1.15" width="25.45" height="25.45"/><rect class="cls-1" x="55.65" y="1.16" width="25.45" height="25.45"/><rect class="cls-1" x="1.88" y="28.07" width="25.45" height="25.45"/><rect class="cls-1" x="28.82" y="28.1" width="25.45" height="25.45"/><rect class="cls-1" x="55.65" y="28.1" width="25.45" height="25.45"/><rect class="cls-1" x="82.56" y="28.11" width="25.45" height="25.45"/><rect class="cls-1" x="1.88" y="54.9" width="25.45" height="25.45"/><rect class="cls-1" x="28.82" y="54.92" width="25.45" height="25.45"/><rect class="cls-1" x="55.65" y="54.93" width="25.45" height="25.45"/><rect class="cls-1" x="82.56" y="54.94" width="25.45" height="25.45"/><rect class="cls-1" x="1.88" y="81.84" width="25.45" height="25.45"/><rect class="cls-1" x="28.82" y="81.87" width="25.45" height="25.45"/><rect class="cls-1" x="55.65" y="81.87" width="25.45" height="25.45"/><rect class="cls-1" x="82.56" y="81.88" width="25.45" height="25.45"/><rect class="cls-1" x="1.88" y="108.76" width="25.45" height="25.45"/><rect class="cls-1" x="28.82" y="108.79" width="25.45" height="25.45"/><rect class="cls-1" x="55.65" y="108.79" width="25.45" height="25.45"/><rect class="cls-1" x="82.56" y="108.81" width="25.45" height="25.45"/><circle class="cls-2" cx="14.61" cy="13.85" r="8.06"/><circle class="cls-2" cx="41.55" cy="13.89" r="8.06"/><circle class="cls-2" cx="14.44" cy="40.82" r="8.06"/><circle class="cls-2" cx="95.26" cy="67.92" r="8.06"/><circle class="cls-2" cx="14.44" cy="94.66" r="8.06"/><line class="cls-3" x1="14.44" y1="67.94" x2="41.38" y2="67.98"/><line class="cls-3" x1="41.38" y1="40.85" x2="41.38" y2="67.98"/><line class="cls-3" x1="68.65" y1="40.85" x2="41.38" y2="40.85"/><line class="cls-3" x1="68.81" y1="13.89" x2="68.65" y2="40.85"/><line class="cls-3" x1="95.28" y1="13.85" x2="68.81" y2="13.89"/><line class="cls-4" x1="68.38" y1="67.62" x2="68.38" y2="94.64"/><line class="cls-4" x1="68.65" y1="40.85" x2="68.38" y2="67.62"/><line class="cls-4" x1="95.28" y1="40.79" x2="68.65" y2="40.85"/><line class="cls-4" x1="122.58" y1="40.85" x2="95.26" y2="40.79"/><circle class="cls-5" cx="68.81" cy="13.89" r="8.06"/><circle class="cls-5" cx="41.38" cy="40.85" r="8.06"/><circle class="cls-6" cx="68.65" cy="40.85" r="8.06"/><circle class="cls-7" cx="95.26" cy="40.79" r="8.06"/><circle class="cls-5" cx="14.44" cy="67.94" r="8.06"/><circle class="cls-5" cx="41.38" cy="67.98" r="8.06"/><circle class="cls-7" cx="68.65" cy="67.98" r="8.06"/><circle class="cls-2" cx="41.38" cy="94.57" r="8.06"/><circle class="cls-2" cx="14.44" cy="121.79" r="8.06"/><circle class="cls-2" cx="41.38" cy="122.36" r="8.06"/><rect class="cls-7" x="110.08" y="2.09" width="25.01" height="131.73"/><text class="cls-8" transform="translate(113.66 43.81)">-1</text><line class="cls-4" x1="68.65" y1="121.82" x2="68.65" y2="94.7"/><circle class="cls-2" cx="95.26" cy="94.64" r="8.06"/><circle class="cls-7" cx="68.65" cy="94.7" r="8.06"/><circle class="cls-7" cx="68.65" cy="121.82" r="8.06"/><circle class="cls-2" cx="95.26" cy="121.76" r="8.06"/><rect class="cls-5" x="84.38" y="2.9" width="21.75" height="21.75"/><text class="cls-8" transform="translate(87.25 16.25)">+2</text></svg>