<svg id="Layer_1" data-name="Layer 1" xmlns="http://www.w3.org/2000/svg" viewBox="0 0 137.29441 136.35725">
  <defs>
    <style>
      .cls-1 {
        fill: #aa1e22;
      }

      .cls-2 {
        fill: #2c3592;
      }

      .cls-3 {
        fill: #e7ebe8;
      }

      .cls-4 {
        fill: #777787;
      }

      .cls-5 {
        fill: #9b9dad;
      }

      .cls-6 {
        fill: #b2b3c3;
      }
    </style>
  </defs>
  <title>cliff-walking-actions</title>
  <rect class="cls-1" x="110.20819" y="2.34344" width="25.01161" height="131.72706"/>
  <rect class="cls-2" x="84.53772" y="3.25421" width="21.75487" height="21.75487"/>
  <rect class="cls-3" x="2.01452" y="1.37952" width="25.44966" height="25.44966"/>
  <polygon class="cls-4" points="14.714 23.545 20.005 20.91 9.423 20.91 14.714 23.545"/>
  <polygon class="cls-4" points="24.115 14.11 21.479 8.819 21.479 19.4 24.115 14.11"/>
  <rect class="cls-3" x="28.95406" y="1.40681" width="25.44966" height="25.44966"/>
  <polygon class="cls-5" points="32.304 14.131 34.939 19.422 34.939 8.84 32.304 14.131"/>
  <polygon class="cls-5" points="41.653 23.573 46.944 20.938 36.362 20.938 41.653 23.573"/>
  <polygon class="cls-5" points="51.054 14.137 48.419 8.846 48.419 19.428 51.054 14.137"/>
  <rect class="cls-3" x="55.78599" y="1.41214" width="25.44966" height="25.44966"/>
  <polygon class="cls-5" points="59.136 14.136 61.771 19.427 61.771 8.846 59.136 14.136"/>
  <polygon class="cls-5" points="68.485 23.578 73.776 20.943 63.194 20.943 68.485 23.578"/>
  <polygon class="cls-5" points="77.886 14.142 75.251 8.852 75.251 19.433 77.886 14.142"/>
  <rect class="cls-3" x="2.01452" y="28.32426" width="25.44966" height="25.44966"/>
  <polygon class="cls-5" points="14.714 50.49 20.005 47.855 9.423 47.855 14.714 50.49"/>
  <polygon class="cls-5" points="24.115 41.054 21.479 35.764 21.479 46.345 24.115 41.054"/>
  <polygon class="cls-5" points="14.714 31.663 9.423 34.298 20.005 34.298 14.714 31.663"/>
  <rect class="cls-3" x="28.95406" y="28.35154" width="25.44966" height="25.44966"/>
  <polygon class="cls-6" points="32.304 41.076 34.939 46.367 34.939 35.785 32.304 41.076"/>
  <polygon class="cls-6" points="41.653 50.517 46.944 47.882 36.362 47.882 41.653 50.517"/>
  <polygon class="cls-6" points="51.054 41.082 48.419 35.791 48.419 46.372 51.054 41.082"/>
  <polygon class="cls-6" points="41.653 31.69 36.362 34.325 46.944 34.325 41.653 31.69"/>
  <rect class="cls-3" x="55.78599" y="28.35687" width="25.44966" height="25.44966"/>
  <polygon class="cls-6" points="59.136 41.081 61.771 46.372 61.771 35.79 59.136 41.081"/>
  <polygon class="cls-6" points="68.485 50.523 73.776 47.888 63.194 47.888 68.485 50.523"/>
  <polygon class="cls-6" points="77.886 41.087 75.251 35.796 75.251 46.378 77.886 41.087"/>
  <polygon class="cls-6" points="68.485 31.695 63.194 34.33 73.776 34.33 68.485 31.695"/>
  <rect class="cls-3" x="82.69033" y="28.36753" width="25.44966" height="25.44966"/>
  <polygon class="cls-6" points="86.04 41.092 88.675 46.383 88.675 35.801 86.04 41.092"/>
  <polygon class="cls-6" points="95.39 50.533 100.68 47.898 90.099 47.898 95.39 50.533"/>
  <polygon class="cls-6" points="104.79 41.098 102.155 35.807 102.155 46.388 104.79 41.098"/>
  <polygon class="cls-6" points="95.39 31.706 90.099 34.341 100.68 34.341 95.39 31.706"/>
  <rect class="cls-3" x="2.01452" y="55.15318" width="25.44966" height="25.44966"/>
  <polygon class="cls-5" points="14.714 77.319 20.005 74.684 9.423 74.684 14.714 77.319"/>
  <polygon class="cls-5" points="24.115 67.883 21.479 62.593 21.479 73.174 24.115 67.883"/>
  <polygon class="cls-5" points="14.714 58.491 9.423 61.127 20.005 61.127 14.714 58.491"/>
  <rect class="cls-3" x="28.95406" y="55.18046" width="25.44966" height="25.44966"/>
  <polygon class="cls-6" points="32.304 67.905 34.939 73.196 34.939 62.614 32.304 67.905"/>
  <polygon class="cls-6" points="41.653 77.346 46.944 74.711 36.362 74.711 41.653 77.346"/>
  <polygon class="cls-6" points="51.054 67.911 48.419 62.62 48.419 73.201 51.054 67.911"/>
  <polygon class="cls-6" points="41.653 58.519 36.362 61.154 46.944 61.154 41.653 58.519"/>
  <rect class="cls-3" x="55.78599" y="55.18579" width="25.44966" height="25.44966"/>
  <polygon class="cls-6" points="59.136 67.91 61.771 73.201 61.771 62.619 59.136 67.91"/>
  <polygon class="cls-6" points="68.485 77.352 73.776 74.717 63.194 74.717 68.485 77.352"/>
  <polygon class="cls-6" points="77.886 67.916 75.251 62.625 75.251 73.207 77.886 67.916"/>
  <polygon class="cls-6" points="68.485 58.524 63.194 61.159 73.776 61.159 68.485 58.524"/>
  <rect class="cls-3" x="82.69033" y="55.19645" width="25.44966" height="25.44966"/>
  <polygon class="cls-6" points="86.04 67.921 88.675 73.212 88.675 62.63 86.04 67.921"/>
  <polygon class="cls-6" points="95.39 77.362 100.68 74.727 90.099 74.727 95.39 77.362"/>
  <polygon class="cls-6" points="104.79 67.927 102.155 62.636 102.155 73.217 104.79 67.927"/>
  <polygon class="cls-6" points="95.39 58.535 90.099 61.17 100.68 61.17 95.39 58.535"/>
  <rect class="cls-3" x="2.01452" y="82.09791" width="25.44966" height="25.44966"/>
  <polygon class="cls-5" points="14.714 104.264 20.005 101.629 9.423 101.629 14.714 104.264"/>
  <polygon class="cls-5" points="24.115 94.828 21.479 89.537 21.479 100.119 24.115 94.828"/>
  <polygon class="cls-5" points="14.714 85.436 9.423 88.071 20.005 88.071 14.714 85.436"/>
  <rect class="cls-3" x="28.95406" y="82.1252" width="25.44966" height="25.44966"/>
  <polygon class="cls-6" points="32.304 94.85 34.939 100.14 34.939 89.559 32.304 94.85"/>
  <polygon class="cls-6" points="41.653 104.291 46.944 101.656 36.362 101.656 41.653 104.291"/>
  <polygon class="cls-6" points="51.054 94.855 48.419 89.565 48.419 100.146 51.054 94.855"/>
  <polygon class="cls-6" points="41.653 85.463 36.362 88.099 46.944 88.099 41.653 85.463"/>
  <rect class="cls-3" x="55.78599" y="82.13052" width="25.44966" height="25.44966"/>
  <polygon class="cls-6" points="59.136 94.855 61.771 100.146 61.771 89.564 59.136 94.855"/>
  <polygon class="cls-6" points="68.485 104.296 73.776 101.661 63.194 101.661 68.485 104.296"/>
  <polygon class="cls-6" points="77.886 94.861 75.251 89.57 75.251 100.151 77.886 94.861"/>
  <polygon class="cls-6" points="68.485 85.469 63.194 88.104 73.776 88.104 68.485 85.469"/>
  <rect class="cls-3" x="82.69033" y="82.14118" width="25.44966" height="25.44966"/>
  <polygon class="cls-6" points="86.04 94.866 88.675 100.156 88.675 89.575 86.04 94.866"/>
  <polygon class="cls-6" points="95.39 104.307 100.68 101.672 90.099 101.672 95.39 104.307"/>
  <polygon class="cls-6" points="104.79 94.871 102.155 89.581 102.155 100.162 104.79 94.871"/>
  <polygon class="cls-6" points="95.39 85.479 90.099 88.115 100.68 88.115 95.39 85.479"/>
  <rect class="cls-3" x="2.01452" y="109.01835" width="25.44966" height="25.44966"/>
  <polygon class="cls-4" points="24.115 121.749 21.479 116.458 21.479 127.039 24.115 121.749"/>
  <polygon class="cls-4" points="14.714 112.357 9.423 114.992 20.005 114.992 14.714 112.357"/>
  <rect class="cls-3" x="28.95406" y="109.04563" width="25.44966" height="25.44966"/>
  <polygon class="cls-5" points="32.304 121.77 34.939 127.061 34.939 116.479 32.304 121.77"/>
  <polygon class="cls-5" points="51.054 121.776 48.419 116.485 48.419 127.067 51.054 121.776"/>
  <polygon class="cls-5" points="41.653 112.384 36.362 115.019 46.944 115.019 41.653 112.384"/>
  <rect class="cls-3" x="55.78599" y="109.05096" width="25.44966" height="25.44966"/>
  <polygon class="cls-5" points="59.136 121.775 61.771 127.066 61.771 116.484 59.136 121.775"/>
  <polygon class="cls-5" points="77.886 121.781 75.251 116.49 75.251 127.072 77.886 121.781"/>
  <polygon class="cls-5" points="68.485 112.389 63.194 115.024 73.776 115.024 68.485 112.389"/>
  <rect class="cls-3" x="82.69033" y="109.06162" width="25.44966" height="25.44966"/>
  <polygon class="cls-5" points="86.04 121.786 88.675 127.077 88.675 116.495 86.04 121.786"/>
  <polygon class="cls-5" points="104.79 121.792 102.155 116.501 102.155 127.083 104.79 121.792"/>
  <polygon class="cls-5" points="95.39 112.4 90.099 115.035 100.68 115.035 95.39 112.4"/>
</svg>
