<svg id="Layer_1" data-name="Layer 1" xmlns="http://www.w3.org/2000/svg" viewBox="0 0 133.03016 133.02489">
  <defs>
    <style>
      .cls-1 {
        fill: #263b96;
      }

      .cls-2 {
        fill: #e7ebe8;
      }

      .cls-3 {
        fill: #cac9cc;
      }

      .cls-4 {
        fill: #bb7566;
      }

      .cls-5 {
        fill: none;
        stroke: #bb7566;
        stroke-linecap: round;
        stroke-linejoin: round;
        stroke-width: 4px;
      }

      .cls-6 {
        font-size: 11px;
        fill: #d1d3d4;
        font-family: MyriadPro-Semibold, Myriad Pro;
        font-weight: 700;
      }
    </style>
  </defs>
  <title>cliffworld-path-4of4</title>
  <rect class="cls-1" x="82.37657" y="1.79154" width="21.75487" height="21.75487"/>
  <rect class="cls-2" x="-0.14663" y="-0.08314" width="25.44966" height="25.44966"/>
  <rect class="cls-2" x="26.79291" y="-0.05586" width="25.44966" height="25.44966"/>
  <rect class="cls-2" x="53.62484" y="-0.05053" width="25.44966" height="25.44966"/>
  <rect class="cls-2" x="-0.14663" y="26.86159" width="25.44966" height="25.44966"/>
  <rect class="cls-2" x="26.79291" y="26.88888" width="25.44966" height="25.44966"/>
  <rect class="cls-2" x="53.62484" y="26.8942" width="25.44966" height="25.44966"/>
  <rect class="cls-2" x="80.52918" y="26.90486" width="25.44966" height="25.44966"/>
  <rect class="cls-2" x="-0.14663" y="53.69051" width="25.44966" height="25.44966"/>
  <rect class="cls-2" x="26.79291" y="53.71779" width="25.44966" height="25.44966"/>
  <rect class="cls-2" x="53.62484" y="53.72312" width="25.44966" height="25.44966"/>
  <rect class="cls-2" x="80.52918" y="53.73378" width="25.44966" height="25.44966"/>
  <rect class="cls-2" x="-0.14663" y="80.63524" width="25.44966" height="25.44966"/>
  <rect class="cls-2" x="26.79291" y="80.66253" width="25.44966" height="25.44966"/>
  <rect class="cls-2" x="53.62484" y="80.66786" width="25.44966" height="25.44966"/>
  <rect class="cls-2" x="80.52918" y="80.67851" width="25.44966" height="25.44966"/>
  <rect class="cls-2" x="-0.14663" y="107.55568" width="25.44966" height="25.44966"/>
  <rect class="cls-2" x="26.79291" y="107.58297" width="25.44966" height="25.44966"/>
  <rect class="cls-2" x="53.62484" y="107.58829" width="25.44966" height="25.44966"/>
  <rect class="cls-2" x="80.52918" y="107.59895" width="25.44966" height="25.44966"/>
  <circle class="cls-3" cx="12.5782" cy="12.64169" r="8.06084"/>
  <circle class="cls-3" cx="39.51774" cy="12.67964" r="8.06084"/>
  <circle class="cls-3" cx="12.41661" cy="39.61072" r="8.06084"/>
  <circle class="cls-3" cx="93.22839" cy="66.71318" r="8.06084"/>
  <circle class="cls-3" cx="12.41661" cy="93.45358" r="8.06084"/>
  <circle class="cls-3" cx="39.35615" cy="93.36008" r="8.06084"/>
  <circle class="cls-3" cx="93.22839" cy="93.42928" r="8.06084"/>
  <circle class="cls-3" cx="12.41661" cy="120.58034" r="8.06084"/>
  <circle class="cls-3" cx="39.35615" cy="121.15018" r="8.06084"/>
  <circle class="cls-3" cx="93.22839" cy="120.55604" r="8.06084"/>
  <rect class="cls-4" x="108.04704" y="0.88077" width="25.01161" height="131.72706"/>
  <circle class="cls-3" cx="66.78047" cy="12.67964" r="8.06084"/>
  <circle class="cls-3" cx="39.35615" cy="39.64867" r="8.06084"/>
  <circle class="cls-3" cx="66.61888" cy="39.64867" r="8.06084"/>
  <circle class="cls-3" cx="93.22839" cy="39.58642" r="8.06084"/>
  <circle class="cls-3" cx="12.41661" cy="66.73748" r="8.06084"/>
  <circle class="cls-3" cx="39.35615" cy="66.77543" r="8.06084"/>
  <circle class="cls-3" cx="66.61888" cy="66.77543" r="8.06084"/>
  <circle class="cls-3" cx="66.61888" cy="93.49153" r="8.06084"/>
  <circle class="cls-3" cx="66.61888" cy="120.61829" r="8.06084"/>
  <line class="cls-5" x1="12.5782" y1="66.41534" x2="39.51774" y2="66.41534"/>
  <line class="cls-5" x1="39.51774" y1="39.61371" x2="39.51774" y2="66.44263"/>
  <line class="cls-5" x1="66.34967" y1="39.61903" x2="39.51774" y2="39.61371"/>
  <line class="cls-5" x1="93.25401" y1="39.62969" x2="66.34967" y2="39.61903"/>
  <line class="cls-5" x1="112.93215" y1="39.69581" x2="93.25401" y2="39.62969"/>
  <text class="cls-6" transform="translate(112.29159 43.38102)">-1</text>
</svg>
