<svg id="Layer_1" data-name="Layer 1" xmlns="http://www.w3.org/2000/svg" viewBox="0 0 133.37889 133.06065">
  <defs>
    <style>
      .cls-1 {
        fill: #2a2d7c;
      }

      .cls-2 {
        fill: #e7ebe8;
      }

      .cls-3 {
        fill: #cac9cc;
      }

      .cls-4 {
        fill: #bd5f36;
      }

      .cls-5 {
        fill: none;
        stroke: #bd5f36;
        stroke-miterlimit: 10;
        stroke-width: 4px;
      }

      .cls-6 {
        font-size: 10.97513px;
        fill: #d1d3d4;
        font-family: Arial-BoldMT, Arial;
        font-weight: 700;
      }
    </style>
  </defs>
  <title>cliffworld-path-4of4</title>
  <rect class="cls-1" x="82.43307" y="1.89198" width="21.70568" height="21.70568"/>
  <rect class="cls-2" x="0.09646" y="0.02154" width="25.39212" height="25.39212"/>
  <rect class="cls-2" x="26.97509" y="0.04876" width="25.39212" height="25.39212"/>
  <rect class="cls-2" x="53.74635" y="0.05408" width="25.39212" height="25.39212"/>
  <rect class="cls-2" x="0.09646" y="26.90534" width="25.39212" height="25.39212"/>
  <rect class="cls-2" x="26.97509" y="26.93257" width="25.39212" height="25.39212"/>
  <rect class="cls-2" x="53.74635" y="26.93788" width="25.39212" height="25.39212"/>
  <rect class="cls-2" x="80.58985" y="26.94852" width="25.39212" height="25.39212"/>
  <rect class="cls-2" x="0.09646" y="53.6736" width="25.39212" height="25.39212"/>
  <rect class="cls-2" x="26.97509" y="53.70082" width="25.39212" height="25.39212"/>
  <rect class="cls-2" x="53.74635" y="53.70614" width="25.39212" height="25.39212"/>
  <rect class="cls-2" x="80.58985" y="53.71677" width="25.39212" height="25.39212"/>
  <rect class="cls-2" x="0.09646" y="80.55741" width="25.39212" height="25.39212"/>
  <rect class="cls-2" x="26.97509" y="80.58463" width="25.39212" height="25.39212"/>
  <rect class="cls-2" x="53.74635" y="80.58994" width="25.39212" height="25.39212"/>
  <rect class="cls-2" x="80.58985" y="80.60058" width="25.39212" height="25.39212"/>
  <rect class="cls-2" x="0.09646" y="107.41697" width="25.39212" height="25.39212"/>
  <rect class="cls-2" x="26.97509" y="107.4442" width="25.39212" height="25.39212"/>
  <rect class="cls-2" x="53.74635" y="107.44951" width="25.39212" height="25.39211"/>
  <rect class="cls-2" x="80.58985" y="107.46014" width="25.39212" height="25.39212"/>
  <circle class="cls-3" cx="12.79252" cy="12.7176" r="8.04261"/>
  <circle class="cls-3" cx="39.67115" cy="12.75546" r="8.04261"/>
  <circle class="cls-3" cx="93.26035" cy="66.66683" r="8.04261"/>
  <circle class="cls-3" cx="12.6313" cy="93.34676" r="8.04261"/>
  <circle class="cls-3" cx="39.50993" cy="93.25347" r="8.04261"/>
  <circle class="cls-3" cx="93.26035" cy="93.32252" r="8.04261"/>
  <circle class="cls-3" cx="12.6313" cy="120.41218" r="8.04261"/>
  <circle class="cls-3" cx="39.50993" cy="120.98073" r="8.04261"/>
  <circle class="cls-3" cx="93.26035" cy="120.38794" r="8.04261"/>
  <rect class="cls-4" x="108.04549" y="0.98327" width="24.95506" height="131.4292"/>
  <circle class="cls-3" cx="66.87223" cy="12.75546" r="8.04261"/>
  <circle class="cls-3" cx="39.50993" cy="39.66351" r="8.04261"/>
  <circle class="cls-3" cx="66.711" cy="39.66351" r="8.04261"/>
  <circle class="cls-3" cx="93.26035" cy="39.6014" r="8.04261"/>
  <circle class="cls-3" cx="12.6313" cy="66.69106" r="8.04261"/>
  <circle class="cls-3" cx="39.50993" cy="66.72893" r="8.04261"/>
  <circle class="cls-3" cx="66.711" cy="66.72893" r="8.04261"/>
  <circle class="cls-3" cx="66.711" cy="93.38462" r="8.04261"/>
  <circle class="cls-3" cx="66.711" cy="120.45004" r="8.04261"/>
  <path class="cls-5" d="M12.6313,66.84789H31.57919A8.00921,8.00921,0,0,0,39.593,58.83407l-.02043-11.18871a8.00922,8.00922,0,0,1,8.01382-8.01382l11.082.032,16.07135-.0423h34.94733"/>
  <circle class="cls-3" cx="12.5998" cy="39.39333" r="8.04261"/>
  <text class="cls-6" transform="translate(112.44087 43.75838)">-1</text>
</svg>
