<svg id="Layer_1" data-name="Layer 1" xmlns="http://www.w3.org/2000/svg" viewBox="0 0 133.36 133.26"><defs><style>.cls-1{fill:#e7ebe8;}.cls-2{fill:#cac9cc;}.cls-3{fill:none;stroke:#aa1e22;stroke-miterlimit:10;stroke-width:4px;}.cls-4{fill:#aa1e22;}.cls-5{font-size:11px;fill:#d1d3d4;font-family:MyriadPro-Semibold, Myriad Pro;font-weight:700;}.cls-6{fill:#2c3592;}</style></defs><title>cliffworld-path2</title><rect class="cls-1" x="0.08" y="0.03" width="25.45" height="25.45"/><rect class="cls-1" x="27.01" y="0.06" width="25.45" height="25.45"/><rect class="cls-1" x="53.85" y="0.07" width="25.45" height="25.45"/><rect class="cls-1" x="0.08" y="26.98" width="25.45" height="25.45"/><rect class="cls-1" x="27.01" y="27" width="25.45" height="25.45"/><rect class="cls-1" x="53.85" y="27.01" width="25.45" height="25.45"/><rect class="cls-1" x="80.75" y="27.02" width="25.45" height="25.45"/><rect class="cls-1" x="0.08" y="53.81" width="25.45" height="25.45"/><rect class="cls-1" x="27.01" y="53.83" width="25.45" height="25.45"/><rect class="cls-1" x="53.85" y="53.84" width="25.45" height="25.45"/><rect class="cls-1" x="80.75" y="53.85" width="25.45" height="25.45"/><rect class="cls-1" x="0.08" y="80.75" width="25.45" height="25.45"/><rect class="cls-1" x="27.01" y="80.78" width="25.45" height="25.45"/><rect class="cls-1" x="53.85" y="80.78" width="25.45" height="25.45"/><rect class="cls-1" x="80.75" y="80.79" width="25.45" height="25.45"/><rect class="cls-1" x="0.08" y="107.67" width="25.45" height="25.45"/><rect class="cls-1" x="27.01" y="107.7" width="25.45" height="25.45"/><rect class="cls-1" x="53.85" y="107.7" width="25.45" height="25.45"/><rect class="cls-1" x="80.75" y="107.71" width="25.45" height="25.45"/><circle class="cls-2" cx="12.8" cy="12.76" r="8.06"/><circle class="cls-2" cx="39.74" cy="12.8" r="8.06"/><circle class="cls-2" cx="12.64" cy="39.73" r="8.06"/><circle class="cls-2" cx="93.45" cy="66.83" r="8.06"/><circle class="cls-2" cx="12.64" cy="93.57" r="8.06"/><line class="cls-3" x1="66.57" y1="66.53" x2="66.57" y2="93.55"/><line class="cls-3" x1="66.84" y1="39.76" x2="66.57" y2="66.53"/><line class="cls-3" x1="93.48" y1="39.7" x2="66.84" y2="39.76"/><line class="cls-3" x1="120.77" y1="39.76" x2="93.45" y2="39.7"/><circle class="cls-2" cx="67" cy="12.8" r="8.06"/><circle class="cls-2" cx="39.58" cy="39.76" r="8.06"/><circle class="cls-4" cx="66.84" cy="39.76" r="8.06"/><circle class="cls-4" cx="93.45" cy="39.7" r="8.06"/><circle class="cls-2" cx="12.64" cy="66.85" r="8.06"/><circle class="cls-2" cx="39.58" cy="66.89" r="8.06"/><circle class="cls-4" cx="66.84" cy="66.89" r="8.06"/><circle class="cls-2" cx="39.58" cy="93.48" r="8.06"/><circle class="cls-2" cx="12.64" cy="120.7" r="8.06"/><circle class="cls-2" cx="39.58" cy="121.27" r="8.06"/><rect class="cls-4" x="108.27" y="1" width="25.01" height="131.73"/><text class="cls-5" transform="translate(111.86 42.72)">-1</text><line class="cls-3" x1="66.84" y1="120.73" x2="66.84" y2="93.61"/><circle class="cls-2" cx="93.45" cy="93.55" r="8.06"/><circle class="cls-4" cx="66.84" cy="93.61" r="8.06"/><circle class="cls-4" cx="66.84" cy="120.73" r="8.06"/><circle class="cls-2" cx="93.45" cy="120.67" r="8.06"/><rect class="cls-6" x="82.57" y="1.81" width="21.75" height="21.75"/></svg>