<svg id="Layer_1" data-name="Layer 1" xmlns="http://www.w3.org/2000/svg" viewBox="0 0 133.07321 133.33114">
  <defs>
    <style>
      .cls-1 {
        fill: #263b96;
      }

      .cls-2 {
        fill: #e7ebe8;
      }

      .cls-3 {
        fill: #cac9cc;
      }

      .cls-4 {
        fill: #bb7566;
      }

      .cls-5 {
        fill: none;
        stroke: #263b96;
        stroke-linecap: round;
        stroke-linejoin: round;
        stroke-width: 4px;
      }

      .cls-6 {
        font-size: 11px;
        fill: #d1d3d4;
        font-family: MyriadPro-Semibold, Myriad Pro;
        font-weight: 700;
      }
    </style>
  </defs>
  <title>cliffworld-path-3of4</title>
  <rect class="cls-1" x="82.39863" y="1.99951" width="21.75487" height="21.75487"/>
  <rect class="cls-2" x="-0.12458" y="0.12483" width="25.44966" height="25.44966"/>
  <rect class="cls-2" x="26.81496" y="0.15212" width="25.44966" height="25.44966"/>
  <rect class="cls-2" x="53.64689" y="0.15744" width="25.44966" height="25.44966"/>
  <rect class="cls-2" x="-0.12458" y="27.06956" width="25.44966" height="25.44966"/>
  <rect class="cls-2" x="26.81496" y="27.09685" width="25.44966" height="25.44966"/>
  <rect class="cls-2" x="53.64689" y="27.10218" width="25.44966" height="25.44966"/>
  <rect class="cls-2" x="80.55123" y="27.11283" width="25.44966" height="25.44966"/>
  <rect class="cls-2" x="-0.12458" y="53.89848" width="25.44966" height="25.44966"/>
  <rect class="cls-2" x="26.81496" y="53.92577" width="25.44966" height="25.44966"/>
  <rect class="cls-2" x="53.64689" y="53.9311" width="25.44966" height="25.44966"/>
  <rect class="cls-2" x="80.55123" y="53.94175" width="25.44966" height="25.44966"/>
  <rect class="cls-2" x="-0.12458" y="80.84322" width="25.44966" height="25.44966"/>
  <rect class="cls-2" x="26.81496" y="80.8705" width="25.44966" height="25.44966"/>
  <rect class="cls-2" x="53.64689" y="80.87583" width="25.44966" height="25.44966"/>
  <rect class="cls-2" x="80.55123" y="80.88649" width="25.44966" height="25.44966"/>
  <rect class="cls-2" x="-0.12458" y="107.76366" width="25.44966" height="25.44966"/>
  <rect class="cls-2" x="26.81496" y="107.79094" width="25.44966" height="25.44966"/>
  <rect class="cls-2" x="53.64689" y="107.79627" width="25.44966" height="25.44966"/>
  <rect class="cls-2" x="80.55123" y="107.80692" width="25.44966" height="25.44966"/>
  <circle class="cls-3" cx="12.60025" cy="12.84966" r="8.06084"/>
  <circle class="cls-3" cx="39.5398" cy="12.88761" r="8.06084"/>
  <circle class="cls-3" cx="12.43866" cy="39.81869" r="8.06084"/>
  <circle class="cls-3" cx="93.25044" cy="66.92116" r="8.06084"/>
  <circle class="cls-3" cx="12.43866" cy="93.66155" r="8.06084"/>
  <circle class="cls-3" cx="39.37821" cy="93.56805" r="8.06084"/>
  <circle class="cls-3" cx="93.25044" cy="93.63726" r="8.06084"/>
  <circle class="cls-3" cx="12.43866" cy="120.78831" r="8.06084"/>
  <circle class="cls-3" cx="39.37821" cy="121.35816" r="8.06084"/>
  <circle class="cls-3" cx="93.25044" cy="120.76402" r="8.06084"/>
  <rect class="cls-4" x="108.0691" y="1.08875" width="25.01161" height="131.72706"/>
  <circle class="cls-3" cx="66.80252" cy="12.88761" r="8.06084"/>
  <circle class="cls-3" cx="39.37821" cy="39.85664" r="8.06084"/>
  <circle class="cls-3" cx="66.64093" cy="39.85664" r="8.06084"/>
  <circle class="cls-3" cx="93.25044" cy="39.7944" r="8.06084"/>
  <circle class="cls-3" cx="12.43866" cy="66.94545" r="8.06084"/>
  <circle class="cls-3" cx="39.37821" cy="66.9834" r="8.06084"/>
  <circle class="cls-3" cx="66.64093" cy="66.9834" r="8.06084"/>
  <circle class="cls-3" cx="66.64093" cy="93.6995" r="8.06084"/>
  <circle class="cls-3" cx="66.64093" cy="120.82626" r="8.06084"/>
  <line class="cls-5" x1="66.37172" y1="12.88228" x2="66.37172" y2="39.82701"/>
  <line class="cls-5" x1="86.34972" y1="12.97086" x2="66.37172" y2="12.88228"/>
  <line class="cls-5" x1="66.37172" y1="120.5211" x2="66.37172" y2="93.60066"/>
  <line class="cls-5" x1="66.37172" y1="66.65593" x2="66.37172" y2="93.60066"/>
  <line class="cls-5" x1="66.37172" y1="39.82701" x2="66.37172" y2="66.65593"/>
  <text class="cls-6" transform="translate(85.24062 15.25043)">+2</text>
</svg>
