<svg id="Layer_1" data-name="Layer 1" xmlns="http://www.w3.org/2000/svg" viewBox="0 0 133.08369 133.06065">
  <defs>
    <style>
      .cls-1 {
        fill: #263b96;
      }

      .cls-2 {
        fill: #e7ebe8;
      }

      .cls-3 {
        fill: #cac9cc;
      }

      .cls-4 {
        fill: #bb7566;
      }

      .cls-5 {
        fill: none;
        stroke: #263b96;
        stroke-linecap: round;
        stroke-linejoin: round;
        stroke-width: 4px;
      }

      .cls-6 {
        font-size: 11px;
        fill: #d1d3d4;
        font-family: MyriadPro-Semibold, Myriad Pro;
        font-weight: 700;
      }
    </style>
  </defs>
  <title>cliffworld-path-1of4</title>
  <rect class="cls-1" x="82.42932" y="1.89989" width="21.75487" height="21.75487"/>
  <rect class="cls-2" x="-0.09388" y="0.02521" width="25.44966" height="25.44966"/>
  <rect class="cls-2" x="26.84566" y="0.05249" width="25.44966" height="25.44966"/>
  <rect class="cls-2" x="53.67759" y="0.05782" width="25.44966" height="25.44966"/>
  <rect class="cls-2" x="-0.09388" y="26.96994" width="25.44966" height="25.44966"/>
  <rect class="cls-2" x="26.84566" y="26.99722" width="25.44966" height="25.44966"/>
  <rect class="cls-2" x="53.67759" y="27.00255" width="25.44966" height="25.44966"/>
  <rect class="cls-2" x="80.58193" y="27.01321" width="25.44966" height="25.44966"/>
  <rect class="cls-2" x="-0.09388" y="53.79886" width="25.44966" height="25.44966"/>
  <rect class="cls-2" x="26.84566" y="53.82614" width="25.44966" height="25.44966"/>
  <rect class="cls-2" x="53.67759" y="53.83147" width="25.44966" height="25.44966"/>
  <rect class="cls-2" x="80.58193" y="53.84213" width="25.44966" height="25.44966"/>
  <rect class="cls-2" x="-0.09388" y="80.74359" width="25.44966" height="25.44966"/>
  <rect class="cls-2" x="26.84566" y="80.77088" width="25.44966" height="25.44966"/>
  <rect class="cls-2" x="53.67759" y="80.77621" width="25.44966" height="25.44966"/>
  <rect class="cls-2" x="80.58193" y="80.78686" width="25.44966" height="25.44966"/>
  <rect class="cls-2" x="-0.09388" y="107.66403" width="25.44966" height="25.44966"/>
  <rect class="cls-2" x="26.84566" y="107.69132" width="25.44966" height="25.44966"/>
  <rect class="cls-2" x="53.67759" y="107.69664" width="25.44966" height="25.44966"/>
  <rect class="cls-2" x="80.58193" y="107.7073" width="25.44966" height="25.44966"/>
  <circle class="cls-3" cx="12.63095" cy="12.75004" r="8.06084"/>
  <circle class="cls-3" cx="39.57049" cy="12.78799" r="8.06084"/>
  <circle class="cls-3" cx="12.46936" cy="39.71907" r="8.06084"/>
  <circle class="cls-3" cx="93.28114" cy="66.82153" r="8.06084"/>
  <circle class="cls-3" cx="12.46936" cy="93.56193" r="8.06084"/>
  <circle class="cls-3" cx="39.40891" cy="93.46843" r="8.06084"/>
  <circle class="cls-3" cx="93.28114" cy="93.53763" r="8.06084"/>
  <circle class="cls-3" cx="12.46936" cy="120.68869" r="8.06084"/>
  <circle class="cls-3" cx="39.40891" cy="121.25853" r="8.06084"/>
  <circle class="cls-3" cx="93.28114" cy="120.66439" r="8.06084"/>
  <rect class="cls-4" x="108.09979" y="0.98912" width="25.01161" height="131.72706"/>
  <circle class="cls-3" cx="66.83322" cy="12.78799" r="8.06084"/>
  <circle class="cls-3" cx="39.40891" cy="39.75702" r="8.06084"/>
  <circle class="cls-3" cx="66.67163" cy="39.75702" r="8.06084"/>
  <circle class="cls-3" cx="93.28114" cy="39.69477" r="8.06084"/>
  <circle class="cls-3" cx="12.46936" cy="66.84583" r="8.06084"/>
  <circle class="cls-3" cx="39.40891" cy="66.88378" r="8.06084"/>
  <circle class="cls-3" cx="66.67163" cy="66.88378" r="8.06084"/>
  <circle class="cls-3" cx="66.67163" cy="93.59988" r="8.06084"/>
  <circle class="cls-3" cx="66.67163" cy="120.72664" r="8.06084"/>
  <line class="cls-5" x1="12.63095" y1="66.52369" x2="39.57049" y2="66.52369"/>
  <line class="cls-5" x1="39.57049" y1="39.72206" x2="39.57049" y2="66.55098"/>
  <line class="cls-5" x1="66.40242" y1="39.72738" x2="39.57049" y2="39.72206"/>
  <line class="cls-5" x1="66.40242" y1="12.78265" x2="66.40242" y2="39.72738"/>
  <line class="cls-5" x1="86.38042" y1="12.87123" x2="66.40242" y2="12.78265"/>
  <text class="cls-6" transform="translate(85.27133 15.15081)">+2</text>
</svg>
