<svg id="Layer_1" data-name="Layer 1" xmlns="http://www.w3.org/2000/svg" viewBox="0 0 133.28 133.07"><defs><style>.cls-1{fill:#2c3592;}.cls-2{fill:#e7ebe8;}.cls-3{fill:#cac9cc;}.cls-4{fill:#aa1e22;}.cls-5{fill:none;stroke:#aa1e22;stroke-linecap:round;stroke-linejoin:round;stroke-width:4px;}.cls-6{font-size:11px;fill:#d1d3d4;font-family:MyriadPro-Semibold, Myriad Pro;font-weight:700;}</style></defs><title>cliffworld-traj-2of2</title><rect class="cls-1" x="82.54" y="1.83" width="21.75" height="21.75"/><rect class="cls-2" x="0.02" y="-0.05" width="25.45" height="25.45"/><rect class="cls-2" x="26.96" y="-0.02" width="25.45" height="25.45"/><rect class="cls-2" x="53.79" y="-0.02" width="25.45" height="25.45"/><rect class="cls-2" x="0.02" y="26.9" width="25.45" height="25.45"/><rect class="cls-2" x="26.96" y="26.92" width="25.45" height="25.45"/><rect class="cls-2" x="53.79" y="26.93" width="25.45" height="25.45"/><rect class="cls-2" x="80.69" y="26.94" width="25.45" height="25.45"/><rect class="cls-2" x="0.02" y="53.72" width="25.45" height="25.45"/><rect class="cls-2" x="26.96" y="53.75" width="25.45" height="25.45"/><rect class="cls-2" x="53.79" y="53.76" width="25.45" height="25.45"/><rect class="cls-2" x="80.69" y="53.77" width="25.45" height="25.45"/><rect class="cls-2" x="0.02" y="80.67" width="25.45" height="25.45"/><rect class="cls-2" x="26.96" y="80.7" width="25.45" height="25.45"/><rect class="cls-2" x="53.79" y="80.7" width="25.45" height="25.45"/><rect class="cls-2" x="80.69" y="80.71" width="25.45" height="25.45"/><rect class="cls-2" x="0.02" y="107.59" width="25.45" height="25.45"/><rect class="cls-2" x="26.96" y="107.62" width="25.45" height="25.45"/><rect class="cls-2" x="53.79" y="107.62" width="25.45" height="25.45"/><rect class="cls-2" x="80.69" y="107.63" width="25.45" height="25.45"/><circle class="cls-3" cx="12.74" cy="12.68" r="8.06"/><circle class="cls-3" cx="39.68" cy="12.71" r="8.06"/><circle class="cls-3" cx="66.94" cy="12.71" r="8.06"/><circle class="cls-3" cx="12.58" cy="39.64" r="8.06"/><circle class="cls-3" cx="39.52" cy="39.68" r="8.06"/><circle class="cls-3" cx="66.78" cy="39.68" r="8.06"/><circle class="cls-3" cx="93.39" cy="39.62" r="8.06"/><circle class="cls-3" cx="12.58" cy="66.77" r="8.06"/><circle class="cls-3" cx="39.52" cy="66.81" r="8.06"/><circle class="cls-3" cx="66.78" cy="66.81" r="8.06"/><circle class="cls-3" cx="93.39" cy="66.75" r="8.06"/><circle class="cls-3" cx="12.58" cy="93.49" r="8.06"/><circle class="cls-3" cx="39.52" cy="93.39" r="8.06"/><circle class="cls-3" cx="66.78" cy="93.53" r="8.06"/><circle class="cls-3" cx="93.39" cy="93.46" r="8.06"/><circle class="cls-3" cx="12.58" cy="120.61" r="8.06"/><circle class="cls-3" cx="39.52" cy="121.18" r="8.06"/><circle class="cls-3" cx="66.78" cy="120.65" r="8.06"/><circle class="cls-3" cx="93.39" cy="120.59" r="8.06"/><rect class="cls-4" x="108.21" y="0.92" width="25.01" height="131.73"/><polyline class="cls-5" points="68.09 119.01 67.75 41.06 117.02 40.41"/><text class="cls-6" transform="translate(112.45 43.42)">-1</text></svg>