<svg id="Layer_1" data-name="Layer 1" xmlns="http://www.w3.org/2000/svg" viewBox="0 0 343.33 112"><defs><style>.cls-1,.cls-3{fill:#efefef;}.cls-1{stroke:#fff;}.cls-1,.cls-18{stroke-miterlimit:10;}.cls-2{fill:#898888;}.cls-4{fill:#fff;}.cls-5{fill:#4b54a4;}.cls-6{fill:#dbddf0;}.cls-7{fill:#bfbddf;}.cls-8{font-size:10px;fill:#2f3030;font-family:MyriadPro-Semibold, Myriad Pro;font-weight:700;}.cls-9{letter-spacing:-0.04em;}.cls-10{letter-spacing:-0.03em;}.cls-11{letter-spacing:0.01em;}.cls-12{letter-spacing:-0.03em;}.cls-13{letter-spacing:0.02em;}.cls-14{fill:#767778;}.cls-15{letter-spacing:-0.01em;}.cls-16{letter-spacing:-0.02em;}.cls-17{letter-spacing:-0.01em;}.cls-18{fill:none;stroke:#231f20;}</style></defs><title>concepts</title><rect class="cls-1" x="91" y="2" width="18" height="18"/><rect class="cls-1" x="91" y="20" width="18" height="18"/><rect class="cls-1" x="91" y="38" width="18" height="18"/><rect class="cls-1" x="91" y="56" width="18" height="18"/><rect class="cls-1" x="109" y="2" width="18" height="18"/><rect class="cls-1" x="109" y="20" width="18" height="18"/><rect class="cls-1" x="109" y="38" width="18" height="18"/><rect class="cls-1" x="109" y="56" width="18" height="18"/><rect class="cls-1" x="127" y="2" width="18" height="18"/><rect class="cls-1" x="127" y="20" width="18" height="18"/><rect class="cls-1" x="127" y="38" width="18" height="18"/><rect class="cls-1" x="127" y="56" width="18" height="18"/><rect class="cls-1" x="145" y="2" width="18" height="18"/><rect class="cls-1" x="145" y="20" width="18" height="18"/><rect class="cls-1" x="145" y="38" width="18" height="18"/><rect class="cls-1" x="145" y="56" width="18" height="18"/><rect class="cls-1" x="1.76" y="2" width="18" height="18"/><rect class="cls-2" x="6.19" y="6.43" width="9.13" height="9.13" transform="translate(10.93 -4.39) rotate(45)"/><rect class="cls-3" x="7.22" y="7.72" width="6.89" height="6.89"/><rect class="cls-1" x="19" y="2" width="18" height="18"/><rect class="cls-2" x="23.43" y="6.43" width="9.13" height="9.13" transform="translate(15.98 -16.58) rotate(45)"/><rect class="cls-3" x="24.46" y="7.72" width="6.89" height="6.89"/><rect class="cls-1" x="37" y="2" width="18" height="18"/><rect class="cls-2" x="41.43" y="6.43" width="9.13" height="9.13" transform="translate(21.25 -29.31) rotate(45)"/><rect class="cls-3" x="42.46" y="7.72" width="6.89" height="6.89"/><rect class="cls-1" x="55" y="2" width="18" height="18"/><rect class="cls-2" x="59.43" y="6.43" width="9.13" height="9.13" transform="translate(26.52 -42.03) rotate(45)"/><rect class="cls-3" x="60.46" y="7.72" width="6.89" height="6.89"/><rect class="cls-1" x="1.76" y="20" width="18" height="18"/><rect class="cls-2" x="6.19" y="24.43" width="9.13" height="9.13" transform="translate(23.66 0.89) rotate(45)"/><rect class="cls-3" x="7.22" y="25.72" width="6.89" height="6.89"/><rect class="cls-1" x="19" y="20" width="18" height="18"/><rect class="cls-2" x="23.43" y="24.43" width="9.13" height="9.13" transform="translate(28.71 -11.31) rotate(45)"/><rect class="cls-3" x="24.46" y="25.72" width="6.89" height="6.89"/><rect class="cls-1" x="37" y="20" width="18" height="18"/><rect class="cls-2" x="41.43" y="24.43" width="9.13" height="9.13" transform="translate(33.98 -24.03) rotate(45)"/><rect class="cls-3" x="42.46" y="25.72" width="6.89" height="6.89"/><rect class="cls-1" x="55" y="20" width="18" height="18"/><rect class="cls-2" x="59.43" y="24.43" width="9.13" height="9.13" transform="translate(39.25 -36.76) rotate(45)"/><rect class="cls-3" x="60.46" y="25.72" width="6.89" height="6.89"/><rect class="cls-1" x="1.76" y="38" width="18" height="18"/><rect class="cls-2" x="6.19" y="42.43" width="9.13" height="9.13" transform="translate(36.39 6.16) rotate(45)"/><rect class="cls-3" x="7.22" y="43.72" width="6.89" height="6.89"/><rect class="cls-1" x="19" y="38" width="18" height="18"/><rect class="cls-2" x="23.43" y="42.43" width="9.13" height="9.13" transform="translate(41.44 -6.03) rotate(45)"/><rect class="cls-3" x="24.46" y="43.72" width="6.89" height="6.89"/><rect class="cls-1" x="37" y="38" width="18" height="18"/><rect class="cls-2" x="41.43" y="42.43" width="9.13" height="9.13" transform="translate(46.71 -18.76) rotate(45)"/><rect class="cls-3" x="42.46" y="43.72" width="6.89" height="6.89"/><rect class="cls-1" x="55" y="38" width="18" height="18"/><rect class="cls-2" x="59.43" y="42.43" width="9.13" height="9.13" transform="translate(51.98 -31.49) rotate(45)"/><rect class="cls-3" x="60.46" y="43.72" width="6.89" height="6.89"/><rect class="cls-1" x="1.76" y="56" width="18" height="18"/><rect class="cls-2" x="6.19" y="60.43" width="9.13" height="9.13" transform="translate(49.11 11.43) rotate(45)"/><rect class="cls-3" x="7.22" y="61.72" width="6.89" height="6.89"/><rect class="cls-1" x="19" y="56" width="18" height="18"/><rect class="cls-2" x="23.43" y="60.43" width="9.13" height="9.13" transform="translate(54.16 -0.76) rotate(45)"/><rect class="cls-3" x="24.46" y="61.72" width="6.89" height="6.89"/><rect class="cls-1" x="37" y="56" width="18" height="18"/><rect class="cls-2" x="41.43" y="60.43" width="9.13" height="9.13" transform="translate(59.44 -13.49) rotate(45)"/><rect class="cls-3" x="42.46" y="61.72" width="6.89" height="6.89"/><rect class="cls-1" x="55" y="56" width="18" height="18"/><text></text><rect class="cls-3" x="60.46" y="61.72" width="6.89" height="6.89"/><circle class="cls-4" cx="100.12" cy="11.2" r="5.83"/><circle class="cls-5" cx="117.67" cy="11.2" r="5.83"/><circle class="cls-5" cx="135.22" cy="11.2" r="5.83"/><circle class="cls-5" cx="152.77" cy="11.2" r="5.83"/><circle class="cls-6" cx="100.12" cy="29.2" r="5.83"/><circle class="cls-5" cx="117.67" cy="29.2" r="5.83"/><circle class="cls-5" cx="135.22" cy="29.2" r="5.83"/><circle class="cls-5" cx="152.77" cy="29.2" r="5.83"/><circle class="cls-6" cx="100.12" cy="47.2" r="5.83"/><circle class="cls-5" cx="117.67" cy="47.2" r="5.83"/><circle class="cls-5" cx="135.22" cy="47.2" r="5.83"/><circle class="cls-5" cx="152.77" cy="47.2" r="5.83"/><circle class="cls-7" cx="100.12" cy="65.2" r="5.83"/><circle class="cls-7" cx="117.67" cy="65.2" r="5.83"/><circle class="cls-7" cx="135.22" cy="65.2" r="5.83"/><circle class="cls-7" cx="152.77" cy="65.2" r="5.83"/><text class="cls-8" transform="translate(91 90.1)"><tspan class="cls-9">V</tspan><tspan x="5.63" y="0">alue </tspan><tspan class="cls-10" x="26.2" y="0">F</tspan><tspan x="30.98" y="0">un</tspan><tspan class="cls-11" x="42.39" y="0">c</tspan><tspan x="47.03" y="0">tion</tspan></text><text class="cls-8" transform="translate(1 90.1)"><tspan class="cls-12">P</tspan><tspan x="5.34" y="0">oli</tspan><tspan class="cls-13" x="16.11" y="0">c</tspan><tspan x="20.76" y="0">y </tspan><tspan class="cls-10" x="27.83" y="0">F</tspan><tspan x="32.61" y="0">un</tspan><tspan class="cls-11" x="44.02" y="0">c</tspan><tspan x="48.66" y="0">tion</tspan></text><path class="cls-14" d="M2.51,106.1a.34.34,0,0,1-.39-.38v-.13l.15-.31a22.38,22.38,0,0,0,1.24-3.11l.09-.27H3.24a4.37,4.37,0,0,0-.62,0,1.38,1.38,0,0,0-.44.22,1.46,1.46,0,0,0-.25.2l-.22.24-.1.14H1.44c-.14,0-.22,0-.22-.11a1.5,1.5,0,0,1,.22-.4,3.53,3.53,0,0,1,.63-.71,1.55,1.55,0,0,1,.8-.43c.06,0,.91,0,2.56,0H7.3a.31.31,0,0,1,.22.32.49.49,0,0,1-.36.48s-.31,0-.78,0H5.65l0,.19a8.61,8.61,0,0,0-.13,1.36,4.8,4.8,0,0,0,.1,1,3.82,3.82,0,0,0,.22.73,1.63,1.63,0,0,1,.11.32.5.5,0,0,1-.16.36.52.52,0,0,1-.41.17.56.56,0,0,1-.2,0c-.06,0-.12-.11-.19-.27a3.7,3.7,0,0,1-.18-.69c0-.06,0-.23,0-.5a7.25,7.25,0,0,1,.1-1.19q.1-.63.21-1.05l.11-.45H4.07v0s-.08.33-.22.9-.31,1.19-.49,1.83A8.79,8.79,0,0,1,3,105.78.49.49,0,0,1,2.51,106.1Z"/><path class="cls-14" d="M8.59,103.13a8.82,8.82,0,0,1,.12-1.49A9.15,9.15,0,0,1,9,100.42a5.06,5.06,0,0,1,.42-1c.18-.33.32-.58.43-.76a3.28,3.28,0,0,1,.48-.59l.37-.39a1.86,1.86,0,0,1,.29-.24h.19c.11,0,.16,0,.16.1s-.06.11-.19.24a5.51,5.51,0,0,0-.47.6,9.22,9.22,0,0,0-.56,1,6.58,6.58,0,0,0-.47,1.57,11.37,11.37,0,0,0-.2,2.2,11.16,11.16,0,0,0,.2,2.18,7.6,7.6,0,0,0,.46,1.58,5.09,5.09,0,0,0,.56,1q.29.38.48.6a1.63,1.63,0,0,1,.19.24c0,.07-.06.1-.17.1H11l-.32-.27a5.66,5.66,0,0,1-1.56-2.41A9.43,9.43,0,0,1,8.59,103.13Z"/><path class="cls-14" d="M13.44,102.68a1.71,1.71,0,0,1,.18-.74,1.79,1.79,0,0,1,.64-.69,1.87,1.87,0,0,1,1.1-.31,1.45,1.45,0,0,1,1,.31.92.92,0,0,1,.33.68.68.68,0,0,1-.19.54.72.72,0,0,1-.43.18.49.49,0,0,1-.28-.09.39.39,0,0,1-.13-.3.53.53,0,0,1,.1-.32.93.93,0,0,1,.19-.2.25.25,0,0,1,.15-.07s0,0,0,0,0-.06-.08-.1a.66.66,0,0,0-.28-.13,2.13,2.13,0,0,0-.44-.07,1,1,0,0,0-1.06.9.42.42,0,0,0,.21.4,2.26,2.26,0,0,0,.63.19,2.94,2.94,0,0,1,.59.17,1.13,1.13,0,0,1,.75,1.1,1.76,1.76,0,0,1-.12.63,2.51,2.51,0,0,1-.38.64,1.63,1.63,0,0,1-.72.5,2.9,2.9,0,0,1-1.06.19,1.82,1.82,0,0,1-1.24-.33,1,1,0,0,1-.38-.77.77.77,0,0,1,.24-.64.78.78,0,0,1,.5-.19.55.55,0,0,1,.32.1.44.44,0,0,1,.16.36.69.69,0,0,1-.21.5.56.56,0,0,1-.35.2h0a0,0,0,0,0,0,0s0,.06.1.1a2.16,2.16,0,0,0,.35.14,1.73,1.73,0,0,0,.62.08,1.88,1.88,0,0,0,.71-.12,1,1,0,0,0,.43-.32,1.37,1.37,0,0,0,.19-.35.83.83,0,0,0,.06-.29.55.55,0,0,0-.24-.48,1.25,1.25,0,0,0-.54-.19,2.64,2.64,0,0,1-.67-.17,1,1,0,0,1-.54-.4A1.14,1.14,0,0,1,13.44,102.68Z"/><path class="cls-14" d="M18.17,105.57v-.28a.72.72,0,0,1,.18-.49.61.61,0,0,1,.49-.21.76.76,0,0,1,.57.29,1.62,1.62,0,0,1,.26,1,2.86,2.86,0,0,1-.1.77,3.71,3.71,0,0,1-.24.65,2.37,2.37,0,0,1-.3.47,2.13,2.13,0,0,1-.27.3c-.08.08-.13.11-.15.11s-.08,0-.15-.11-.1-.11-.1-.14,0-.09.13-.19a3.93,3.93,0,0,0,.28-.34,1.87,1.87,0,0,0,.3-.57,3.28,3.28,0,0,0,.18-.83v-.13h0l-.06,0-.07,0-.1,0h-.14a.68.68,0,0,1-.5-.19Z"/><path class="cls-14" d="M26.32,102.24a1.32,1.32,0,0,0-.05-.25,1.17,1.17,0,0,0-.27-.4.74.74,0,0,0-.52-.23,1.08,1.08,0,0,0-.76.36,2.41,2.41,0,0,0-.57.92,9.75,9.75,0,0,0-.47,1.86v.13a.45.45,0,0,1,0,.13.94.94,0,0,0,.21.71.68.68,0,0,0,.49.2,1.29,1.29,0,0,0,.85-.37,1.83,1.83,0,0,0,.5-.58s.12-.44.31-1.22S26.32,102.3,26.32,102.24Zm-3.61,1.94a3.34,3.34,0,0,1,.86-2.18,2.56,2.56,0,0,1,1.95-1,1.31,1.31,0,0,1,1,.56.56.56,0,0,1,.52-.34.39.39,0,0,1,.26.09.28.28,0,0,1,.12.23c0,.1-.14.7-.42,1.82s-.43,1.74-.44,1.89a.61.61,0,0,0,.08.37.33.33,0,0,0,.24.1.42.42,0,0,0,.23-.1,2.62,2.62,0,0,0,.47-1.09c0-.15.08-.23.11-.24h.16c.14,0,.22,0,.22.1a1.68,1.68,0,0,1-.06.31,4.14,4.14,0,0,1-.23.61,1.87,1.87,0,0,1-.36.57,1.08,1.08,0,0,1-.37.24,1,1,0,0,1-.27,0,1.13,1.13,0,0,1-.65-.17.86.86,0,0,1-.34-.35l-.07-.17s0,0,0,0l-.05,0a2,2,0,0,1-1.36.63,1.57,1.57,0,0,1-1.11-.45A2,2,0,0,1,22.71,104.18Z"/><path class="cls-14" d="M29,97.45h.29l.32.27a5.54,5.54,0,0,1,1.56,2.41,9.26,9.26,0,0,1,.49,3,10.34,10.34,0,0,1-.11,1.49c-.08.47-.17.88-.26,1.21a4.57,4.57,0,0,1-.43,1c-.18.34-.32.59-.43.77a3.83,3.83,0,0,1-.46.58l-.37.37-.26.22-.05,0h-.26a.05.05,0,0,1,0,0,.23.23,0,0,1,0-.1l.13-.15a7.52,7.52,0,0,0,1.76-5.4,7.56,7.56,0,0,0-1.76-5.41,1,1,0,0,0-.13-.14A.14.14,0,0,1,29,97.45Z"/><rect class="cls-1" x="181.76" y="2" width="18" height="18"/><rect class="cls-2" x="186.19" y="6.43" width="9.13" height="9.13" transform="translate(63.65 -131.67) rotate(45)"/><rect class="cls-3" x="187.22" y="7.72" width="6.89" height="6.89"/><rect class="cls-1" x="199" y="2" width="18" height="18"/><rect class="cls-2" x="203.43" y="6.43" width="9.13" height="9.13" transform="translate(68.7 -143.86) rotate(45)"/><rect class="cls-3" x="204.46" y="7.72" width="6.89" height="6.89"/><rect class="cls-1" x="217" y="2" width="18" height="18"/><rect class="cls-2" x="221.43" y="6.43" width="9.13" height="9.13" transform="translate(73.97 -156.58) rotate(45)"/><rect class="cls-3" x="222.46" y="7.72" width="6.89" height="6.89"/><rect class="cls-1" x="235" y="2" width="18" height="18"/><rect class="cls-2" x="239.43" y="6.43" width="9.13" height="9.13" transform="translate(79.24 -169.31) rotate(45)"/><rect class="cls-3" x="240.46" y="7.72" width="6.89" height="6.89"/><rect class="cls-1" x="181.76" y="20" width="18" height="18"/><rect class="cls-2" x="186.19" y="24.43" width="9.13" height="9.13" transform="translate(76.38 -126.39) rotate(45)"/><rect class="cls-3" x="187.22" y="25.72" width="6.89" height="6.89"/><rect class="cls-1" x="199" y="20" width="18" height="18"/><rect class="cls-5" x="203.43" y="24.43" width="9.13" height="9.13" transform="translate(81.43 -138.58) rotate(45)"/><rect class="cls-3" x="204.46" y="25.72" width="6.89" height="6.89"/><rect class="cls-1" x="217" y="20" width="18" height="18"/><rect class="cls-5" x="221.43" y="24.43" width="9.13" height="9.13" transform="translate(86.7 -151.31) rotate(45)"/><rect class="cls-3" x="222.46" y="25.72" width="6.89" height="6.89"/><rect class="cls-1" x="235" y="20" width="18" height="18"/><rect class="cls-5" x="239.43" y="24.43" width="9.13" height="9.13" transform="translate(91.97 -164.04) rotate(45)"/><rect class="cls-3" x="240.46" y="25.72" width="6.89" height="6.89"/><rect class="cls-1" x="181.76" y="38" width="18" height="18"/><rect class="cls-7" x="186.19" y="42.43" width="9.13" height="9.13" transform="translate(89.11 -121.12) rotate(45)"/><rect class="cls-3" x="187.22" y="43.72" width="6.89" height="6.89"/><rect class="cls-1" x="199" y="38" width="18" height="18"/><rect class="cls-5" x="203.43" y="42.43" width="9.13" height="9.13" transform="translate(94.16 -133.31) rotate(45)"/><rect class="cls-3" x="204.46" y="43.72" width="6.89" height="6.89"/><rect class="cls-1" x="217" y="38" width="18" height="18"/><rect class="cls-5" x="221.43" y="42.43" width="9.13" height="9.13" transform="translate(99.43 -146.04) rotate(45)"/><rect class="cls-3" x="222.46" y="43.72" width="6.89" height="6.89"/><rect class="cls-1" x="235" y="38" width="18" height="18"/><rect class="cls-5" x="239.43" y="42.43" width="9.13" height="9.13" transform="translate(104.7 -158.77) rotate(45)"/><rect class="cls-3" x="240.46" y="43.72" width="6.89" height="6.89"/><rect class="cls-1" x="181.76" y="56" width="18" height="18"/><rect class="cls-7" x="186.19" y="60.43" width="9.13" height="9.13" transform="translate(101.83 -115.85) rotate(45)"/><rect class="cls-3" x="187.22" y="61.72" width="6.89" height="6.89"/><rect class="cls-1" x="199" y="56" width="18" height="18"/><rect class="cls-7" x="203.43" y="60.43" width="9.13" height="9.13" transform="translate(106.88 -128.04) rotate(45)"/><rect class="cls-3" x="204.46" y="61.72" width="6.89" height="6.89"/><rect class="cls-1" x="217" y="56" width="18" height="18"/><rect class="cls-2" x="221.43" y="60.43" width="9.13" height="9.13" transform="translate(112.16 -140.77) rotate(45)"/><rect class="cls-3" x="222.46" y="61.72" width="6.89" height="6.89"/><rect class="cls-1" x="235" y="56" width="18" height="18"/><rect class="cls-2" x="239.43" y="60.43" width="9.13" height="9.13" transform="translate(117.43 -153.5) rotate(45)"/><rect class="cls-3" x="240.46" y="61.72" width="6.89" height="6.89"/><text class="cls-8" transform="translate(181 90.1)"><tspan class="cls-15">A</tspan><tspan class="cls-11" x="6.23" y="0">c</tspan><tspan x="10.87" y="0">tion</tspan><tspan class="cls-16" x="28.3" y="0">-</tspan><tspan class="cls-9" x="31.26" y="0">V</tspan><tspan x="36.89" y="0">alue</tspan></text><path class="cls-14" d="M91.56,98.85a.54.54,0,0,1,.14-.38h.12c.3,0,.68,0,1.13,0a13.68,13.68,0,0,0,1.5,0h.1s.07.08.07.1,0,.09,0,.19a.67.67,0,0,1-.1.21h-.23L94,99c-.21,0-.32.09-.34.16s.1.92.31,2.7.31,2.69.32,2.7l.79-1.26,1.57-2.54c.52-.85.79-1.29.8-1.32a.3.3,0,0,0,0-.16q0-.26-.48-.3c-.13,0-.19,0-.19-.12s0,0,0-.14a.39.39,0,0,1,.07-.19s.06,0,.14,0h.49l.69,0a8.61,8.61,0,0,0,.94,0h.07s.08.09.08.12a.74.74,0,0,1-.1.35A.31.31,0,0,1,99,99l-.26,0-.23.05-.17.08a.51.51,0,0,0-.13.09l-.11.07s0,0-.08.1-.06.07-.08.07l-2.07,3.34c-1.3,2.08-2,3.15-2,3.2l-.07.06h-.27c-.13,0-.19,0-.19-.08s-.16-1.19-.42-3.44-.42-3.43-.42-3.45-.26-.12-.67-.12h-.18A.17.17,0,0,1,91.56,98.85Z"/><path class="cls-14" d="M100.29,103.13a9.18,9.18,0,0,1,.1-1.41c.08-.44.16-.83.25-1.15a5.19,5.19,0,0,1,.4-.95l.41-.72a3.23,3.23,0,0,1,.45-.56l.36-.36a1.82,1.82,0,0,1,.26-.23h.19c.1,0,.15,0,.15.1a.89.89,0,0,1-.18.23,3.63,3.63,0,0,0-.45.57,8.16,8.16,0,0,0-.52.92,6,6,0,0,0-.45,1.49,11.37,11.37,0,0,0,0,4.14,6.52,6.52,0,0,0,.44,1.49,4.89,4.89,0,0,0,.52.93c.18.23.33.42.46.57l.18.22c0,.07-.06.1-.16.1h-.18l-.3-.26a5.36,5.36,0,0,1-1.47-2.28A8.76,8.76,0,0,1,100.29,103.13Z"/><path class="cls-14" d="M104.87,102.71a1.67,1.67,0,0,1,.17-.7,1.91,1.91,0,0,1,.6-.65,1.73,1.73,0,0,1,1-.29,1.36,1.36,0,0,1,1,.29.93.93,0,0,1,.31.64.62.62,0,0,1-.59.68.41.41,0,0,1-.26-.09.34.34,0,0,1-.13-.28.47.47,0,0,1,.1-.3.83.83,0,0,1,.18-.19.3.3,0,0,1,.14-.07s0,0,0,0,0,0-.08-.09a.57.57,0,0,0-.27-.12,1.67,1.67,0,0,0-.41-.07.92.92,0,0,0-1,.85.39.39,0,0,0,.21.38,2.31,2.31,0,0,0,.59.18,2.66,2.66,0,0,1,.56.16,1.08,1.08,0,0,1,.71,1,1.61,1.61,0,0,1-.12.6,2.67,2.67,0,0,1-.35.6,1.67,1.67,0,0,1-.68.48,3.08,3.08,0,0,1-1,.18,1.76,1.76,0,0,1-1.17-.31,1,1,0,0,1-.36-.73.75.75,0,0,1,.23-.61.73.73,0,0,1,.47-.18.47.47,0,0,1,.3.1.4.4,0,0,1,.15.33.63.63,0,0,1-.19.47.54.54,0,0,1-.34.2h0s0,0,0,0l.09.09a2.08,2.08,0,0,0,.33.14,1.8,1.8,0,0,0,.59.07,1.71,1.71,0,0,0,.67-.12,1,1,0,0,0,.41-.3,1.37,1.37,0,0,0,.18-.33.74.74,0,0,0,.06-.27.51.51,0,0,0-.23-.45,1.25,1.25,0,0,0-.52-.19,2.43,2.43,0,0,1-.63-.16,1,1,0,0,1-.51-.37A1.11,1.11,0,0,1,104.87,102.71Z"/><path class="cls-14" d="M109.15,97.76h.28l.3.26a5.29,5.29,0,0,1,1.48,2.28,9,9,0,0,1,.46,2.84,9.16,9.16,0,0,1-.11,1.41,7.77,7.77,0,0,1-.25,1.15,4.76,4.76,0,0,1-.39,1l-.41.72a3.63,3.63,0,0,1-.44.55c-.2.2-.31.32-.35.35a1.8,1.8,0,0,1-.25.21l0,0h-.25a.05.05,0,0,1-.05,0,.24.24,0,0,1,0-.1l.12-.14a7.1,7.1,0,0,0,1.66-5.11A7.11,7.11,0,0,0,109.22,98a.61.61,0,0,1-.12-.14A.15.15,0,0,1,109.15,97.76Z"/><rect class="cls-1" x="271.76" y="2" width="18" height="18"/><rect class="cls-1" x="271.76" y="20" width="18" height="18"/><rect class="cls-1" x="271.76" y="38" width="18" height="18"/><rect class="cls-1" x="271.76" y="56" width="18" height="18"/><rect class="cls-1" x="289" y="2" width="18" height="18"/><rect class="cls-1" x="289" y="20" width="18" height="18"/><rect class="cls-1" x="289" y="38" width="18" height="18"/><rect class="cls-1" x="289" y="56" width="18" height="18"/><rect class="cls-1" x="306.24" y="2" width="18" height="18"/><rect class="cls-1" x="306.24" y="20" width="18" height="18"/><rect class="cls-1" x="306.24" y="38" width="18" height="18"/><rect class="cls-1" x="306.24" y="56" width="18" height="18"/><rect class="cls-1" x="323.48" y="2" width="18" height="18"/><rect class="cls-1" x="323.48" y="20" width="18" height="18"/><rect class="cls-1" x="323.48" y="38" width="18" height="18"/><rect class="cls-1" x="323.48" y="56" width="18" height="18"/><text class="cls-8" transform="translate(271 90.1)">Experien<tspan class="cls-17" x="38.1" y="0">c</tspan><tspan x="42.5" y="0">e</tspan></text><polyline class="cls-18" points="280.76 11 298 11 298 47 315.24 47 315.24 65 334 65 334 47 315.24 47 315.24 29"/><polygon class="cls-14" points="272.27 108.51 272.27 97.75 273.75 97.75 273.75 98.18 272.7 98.18 272.7 108.08 273.75 108.08 273.75 108.51 272.27 108.51"/><path class="cls-14" d="M275,103.13a9.18,9.18,0,0,1,.1-1.41c.08-.44.16-.83.25-1.15a4.58,4.58,0,0,1,.4-.95l.41-.72a3.23,3.23,0,0,1,.45-.56L277,98a1.82,1.82,0,0,1,.26-.23h.19c.1,0,.15,0,.15.1a.82.82,0,0,1-.19.23,4.44,4.44,0,0,0-.44.57,8.16,8.16,0,0,0-.52.92,6.45,6.45,0,0,0-.46,1.49,12,12,0,0,0,0,4.14,7,7,0,0,0,.45,1.49,4.89,4.89,0,0,0,.52.93l.45.57c.13.14.19.22.19.22s-.06.1-.16.1h-.18l-.3-.26a5.36,5.36,0,0,1-1.47-2.28A8.76,8.76,0,0,1,275,103.13Z"/><path class="cls-14" d="M279.59,102.71a1.67,1.67,0,0,1,.17-.7,1.91,1.91,0,0,1,.6-.65,1.73,1.73,0,0,1,1.05-.29,1.36,1.36,0,0,1,1,.29.93.93,0,0,1,.31.64.62.62,0,0,1-.59.68.41.41,0,0,1-.26-.09.34.34,0,0,1-.13-.28.47.47,0,0,1,.1-.3.83.83,0,0,1,.18-.19.3.3,0,0,1,.14-.07s0,0,0,0,0,0-.08-.09a.57.57,0,0,0-.27-.12,1.67,1.67,0,0,0-.41-.07.92.92,0,0,0-1,.85.39.39,0,0,0,.21.38,2.31,2.31,0,0,0,.59.18,2.66,2.66,0,0,1,.56.16,1.08,1.08,0,0,1,.71,1,1.61,1.61,0,0,1-.12.6,2.67,2.67,0,0,1-.35.6,1.67,1.67,0,0,1-.68.48,3.13,3.13,0,0,1-1,.18,1.76,1.76,0,0,1-1.17-.31,1,1,0,0,1-.36-.73.75.75,0,0,1,.23-.61.73.73,0,0,1,.47-.18.47.47,0,0,1,.3.1.4.4,0,0,1,.15.33.63.63,0,0,1-.19.47.54.54,0,0,1-.34.2h0s0,0,0,0a.36.36,0,0,0,.09.09,2.08,2.08,0,0,0,.33.14,1.8,1.8,0,0,0,.59.07,1.71,1.71,0,0,0,.67-.12,1,1,0,0,0,.41-.3,1.37,1.37,0,0,0,.18-.33.71.71,0,0,0,0-.27.5.5,0,0,0-.22-.45,1.25,1.25,0,0,0-.52-.19,2.43,2.43,0,0,1-.63-.16,1,1,0,0,1-.51-.37A1.11,1.11,0,0,1,279.59,102.71Z"/><path class="cls-14" d="M284.06,105.44v-.26a.67.67,0,0,1,.18-.47.58.58,0,0,1,.46-.19.71.71,0,0,1,.54.27,1.48,1.48,0,0,1,.24.94,3,3,0,0,1-.09.74,3.55,3.55,0,0,1-.23.61,2.08,2.08,0,0,1-.28.44,2.71,2.71,0,0,1-.26.29c-.07.07-.11.11-.14.1s-.07,0-.14-.1a.26.26,0,0,1-.09-.14s0-.08.12-.17l.26-.32a1.93,1.93,0,0,0,.28-.54,3,3,0,0,0,.18-.79v-.13h0l-.06,0-.06,0-.1,0h-.13a.64.64,0,0,1-.47-.18Z"/><path class="cls-14" d="M291.78,102.29a.85.85,0,0,0-.06-.23.91.91,0,0,0-.24-.38.7.7,0,0,0-.5-.22,1.05,1.05,0,0,0-.72.34,2.23,2.23,0,0,0-.54.87,8.72,8.72,0,0,0-.44,1.76v.12a.45.45,0,0,1,0,.13,1,1,0,0,0,.19.67.73.73,0,0,0,.47.19,1.22,1.22,0,0,0,.8-.35,1.82,1.82,0,0,0,.48-.55s.11-.41.29-1.15S291.77,102.35,291.78,102.29Zm-3.42,1.84a3.19,3.19,0,0,1,.81-2.06,2.37,2.37,0,0,1,1.84-1,1.21,1.21,0,0,1,1,.52.55.55,0,0,1,.5-.32.36.36,0,0,1,.24.09.24.24,0,0,1,.11.21c0,.1-.13.67-.4,1.72s-.4,1.65-.41,1.79a.54.54,0,0,0,.08.35.33.33,0,0,0,.23.1.49.49,0,0,0,.21-.1,2.34,2.34,0,0,0,.44-1c0-.14.08-.22.11-.22h.15c.14,0,.2,0,.2.09a1.28,1.28,0,0,1-.05.29,3.25,3.25,0,0,1-.21.58,1.87,1.87,0,0,1-.35.54,1.2,1.2,0,0,1-.34.23l-.26,0a1.15,1.15,0,0,1-.61-.16.81.81,0,0,1-.33-.34l-.06-.16h0l-.05,0a1.88,1.88,0,0,1-1.29.6,1.45,1.45,0,0,1-1-.43A1.82,1.82,0,0,1,288.36,104.13Z"/><path class="cls-14" d="M294.53,105.44v-.26a.71.71,0,0,1,.17-.47.6.6,0,0,1,.47-.19.68.68,0,0,1,.53.27,1.47,1.47,0,0,1,.25.94,2.59,2.59,0,0,1-.1.74,3.57,3.57,0,0,1-.22.61,2.57,2.57,0,0,1-.28.44l-.26.29c-.07.07-.12.11-.14.1s-.07,0-.14-.1-.1-.11-.1-.14,0-.08.12-.17.17-.19.27-.32a1.93,1.93,0,0,0,.28-.54,3,3,0,0,0,.17-.79v-.13h0l-.05,0-.07,0-.09,0h-.13a.63.63,0,0,1-.47-.18Z"/><path class="cls-14" d="M298.71,102.73a.31.31,0,0,1,0-.08,1.44,1.44,0,0,1,0-.24,2.55,2.55,0,0,1,.11-.33l.16-.36a1.36,1.36,0,0,1,.21-.32,3.48,3.48,0,0,1,.28-.24.47.47,0,0,1,.36-.09,1.29,1.29,0,0,1,.88.36.4.4,0,0,1,.12.22.14.14,0,0,0,0,.06s0,0,.09-.07a1.55,1.55,0,0,1,1.19-.56h0a.83.83,0,0,1,.78.44,1,1,0,0,1,.09.4.88.88,0,0,1-.14.51.77.77,0,0,1-.28.25.54.54,0,0,1-.27,0,.5.5,0,0,1-.35-.12.41.41,0,0,1-.13-.31c0-.34.2-.57.61-.69a.88.88,0,0,0-.39-.14,1.4,1.4,0,0,0-1.11.8,1.46,1.46,0,0,0-.16.36c0,.12-.16.59-.37,1.43-.24,1-.38,1.53-.42,1.6a.47.47,0,0,1-.46.29.31.31,0,0,1-.22-.07.34.34,0,0,1-.12-.12.16.16,0,0,1,0-.11c0-.1.14-.71.43-1.85s.43-1.78.43-1.91-.1-.42-.28-.42-.28.1-.39.31a3.15,3.15,0,0,0-.26.65,1.75,1.75,0,0,1-.12.39.41.41,0,0,1-.17,0h-.15S298.71,102.76,298.71,102.73Z"/><path class="cls-14" d="M304,97.76h.28l.3.26a5.36,5.36,0,0,1,1.47,2.28,8.76,8.76,0,0,1,.46,2.84,9.18,9.18,0,0,1-.1,1.41,11.61,11.61,0,0,1-.25,1.15,4.81,4.81,0,0,1-.4,1c-.17.31-.31.55-.41.72a3.63,3.63,0,0,1-.44.55l-.34.35-.25.21,0,0H304a.05.05,0,0,1-.05,0,.23.23,0,0,1,0-.1l.12-.14A8.65,8.65,0,0,0,304,98l-.12-.14A.13.13,0,0,1,304,97.76Z"/><polygon class="cls-14" points="307.75 98.18 307.75 97.75 309.23 97.75 309.23 108.51 307.75 108.51 307.75 108.08 308.8 108.08 308.8 98.18 307.75 98.18"/><path class="cls-14" d="M184.58,106a2.25,2.25,0,0,0,1-.24v-.11q0-.63-.42-.75a1,1,0,0,0-.22,0h-.07s0,0,0,0a.72.72,0,0,0-.47.23.76.76,0,0,0-.25.52C184.12,105.87,184.27,106,184.58,106Zm3.66-5.12a3.28,3.28,0,0,0-.17-1.09,1.51,1.51,0,0,0-.47-.69,2.51,2.51,0,0,0-.57-.34,1.46,1.46,0,0,0-.6-.12,2.52,2.52,0,0,0-1.12.29,4.1,4.1,0,0,0-1.86,2,6.39,6.39,0,0,0-.71,2.82,2.37,2.37,0,0,0,.62,1.79,1.09,1.09,0,0,0,.33.23v-.09a1.19,1.19,0,0,1,.37-.84,1.25,1.25,0,0,1,.89-.4,1,1,0,0,1,.49.13.78.78,0,0,1,.31.34,1.61,1.61,0,0,1,.13.36,2.82,2.82,0,0,1,.07.31l.15-.1a4.28,4.28,0,0,0,1.24-1.38,6,6,0,0,0,.7-1.69A6.7,6.7,0,0,0,188.24,100.88Zm-2.7,6.24c0-.25,0-.44,0-.57a1,1,0,0,1,0-.22v0l-.17,0a4.39,4.39,0,0,1-1,.13,2.8,2.8,0,0,1-2.87-2.54c0-.06,0-.22,0-.49a4.79,4.79,0,0,1,.55-2.21,6.32,6.32,0,0,1,1.47-1.85,4.43,4.43,0,0,1,2.83-1.17H187a2.72,2.72,0,0,1,1.78,1,3.22,3.22,0,0,1,.68,2.07,5.18,5.18,0,0,1-1.68,3.73,5.55,5.55,0,0,1-1.49,1l-.2.1v0s0,.11.06.31a.91.91,0,0,0,.24.48.71.71,0,0,0,.52.18,1.28,1.28,0,0,0,.76-.25,1.1,1.1,0,0,0,.48-.65c0-.11.1-.16.15-.16a.13.13,0,0,1,.13.1,1.61,1.61,0,0,1-.12.41,5.4,5.4,0,0,1-.32.75,1.89,1.89,0,0,1-.61.74,1.47,1.47,0,0,1-.87.33c-.62,0-.93-.4-.93-1.21Z"/><path class="cls-14" d="M191.07,103.36a10.13,10.13,0,0,1,.11-1.49c.08-.47.17-.87.26-1.21a4.38,4.38,0,0,1,.43-1l.43-.77a2.59,2.59,0,0,1,.48-.59l.37-.38a1.64,1.64,0,0,1,.28-.24h.2c.1,0,.16,0,.16.1a1.17,1.17,0,0,1-.2.24,4.76,4.76,0,0,0-.46.6,8.32,8.32,0,0,0-.56,1,6.54,6.54,0,0,0-.48,1.57,12.72,12.72,0,0,0,0,4.38,7.54,7.54,0,0,0,.47,1.58,5.09,5.09,0,0,0,.56,1c.19.25.34.45.47.6a2.51,2.51,0,0,1,.2.24c0,.07-.06.1-.17.1h-.19l-.31-.27a5.54,5.54,0,0,1-1.56-2.41A9.26,9.26,0,0,1,191.07,103.36Z"/><path class="cls-14" d="M195.91,102.92a1.6,1.6,0,0,1,.19-.74,1.84,1.84,0,0,1,.63-.69,1.77,1.77,0,0,1,1.11-.31,1.4,1.4,0,0,1,1,.31,1,1,0,0,1,.33.68.65.65,0,0,1-.63.72.41.41,0,0,1-.27-.1.37.37,0,0,1-.14-.29.52.52,0,0,1,.11-.32.74.74,0,0,1,.19-.2.25.25,0,0,1,.15-.07h0s0-.06-.08-.11a1,1,0,0,0-.28-.12,2.12,2.12,0,0,0-.45-.07,1,1,0,0,0-1.06.9.43.43,0,0,0,.22.4,2.38,2.38,0,0,0,.63.19,2.39,2.39,0,0,1,.59.17,1.12,1.12,0,0,1,.75,1.09,1.63,1.63,0,0,1-.13.64,2.84,2.84,0,0,1-.37.64,1.69,1.69,0,0,1-.72.5,3.19,3.19,0,0,1-1.07.19,1.84,1.84,0,0,1-1.24-.33,1,1,0,0,1-.37-.77.77.77,0,0,1,.24-.64.75.75,0,0,1,.5-.19.5.5,0,0,1,.31.1.39.39,0,0,1,.16.35.65.65,0,0,1-.2.5.58.58,0,0,1-.35.21h0s0,0,0,0l.09.09a1.39,1.39,0,0,0,.35.15,1.79,1.79,0,0,0,.63.08,1.73,1.73,0,0,0,.71-.13,1,1,0,0,0,.43-.31,1.58,1.58,0,0,0,.19-.36.79.79,0,0,0,.06-.28.55.55,0,0,0-.24-.48,1.13,1.13,0,0,0-.55-.19,3.29,3.29,0,0,1-.67-.17,1.06,1.06,0,0,1-.53-.4A1.14,1.14,0,0,1,195.91,102.92Z"/><path class="cls-14" d="M200.64,105.81v-.29a.73.73,0,0,1,.19-.49.63.63,0,0,1,.49-.2.71.71,0,0,1,.56.28,1.59,1.59,0,0,1,.27,1,2.87,2.87,0,0,1-.11.77,2.75,2.75,0,0,1-.24.65,2.27,2.27,0,0,1-.29.46l-.27.31c-.08.08-.13.11-.15.1s-.08,0-.15-.1-.1-.12-.1-.15,0-.09.12-.18a3.84,3.84,0,0,0,.29-.34,2.5,2.5,0,0,0,.29-.57,3.76,3.76,0,0,0,.19-.83v-.14l0,0-.05,0-.07,0a.15.15,0,0,1-.1,0l-.14,0a.69.69,0,0,1-.5-.2Z"/><path class="cls-14" d="M208.8,102.48a.93.93,0,0,0-.06-.25,1,1,0,0,0-.26-.4.72.72,0,0,0-.52-.23,1.09,1.09,0,0,0-.76.35,2.25,2.25,0,0,0-.57.92,9,9,0,0,0-.47,1.87v.12a.53.53,0,0,1,0,.14,1,1,0,0,0,.2.71.8.8,0,0,0,.49.2,1.29,1.29,0,0,0,.86-.37,2.27,2.27,0,0,0,.5-.58l.3-1.22Q208.79,102.57,208.8,102.48Zm-3.62,1.94a3.33,3.33,0,0,1,.87-2.18,2.54,2.54,0,0,1,1.94-1,1.28,1.28,0,0,1,1,.56.58.58,0,0,1,.53-.34.41.41,0,0,1,.26.09.26.26,0,0,1,.11.23c0,.09-.14.7-.42,1.81s-.42,1.75-.43,1.89a.65.65,0,0,0,.08.38.34.34,0,0,0,.24.1.55.55,0,0,0,.23-.1,2.58,2.58,0,0,0,.46-1.09c.05-.16.09-.23.12-.24h.16c.14,0,.21,0,.21.1a1.84,1.84,0,0,1-.06.31,3.33,3.33,0,0,1-.22.61,2.08,2.08,0,0,1-.37.57,1.13,1.13,0,0,1-.36.24l-.27,0a1.18,1.18,0,0,1-.65-.17.8.8,0,0,1-.34-.35l-.07-.17s0,0-.05,0l0,0a2,2,0,0,1-1.37.64,1.54,1.54,0,0,1-1.1-.46A1.89,1.89,0,0,1,205.18,104.42Z"/><path class="cls-14" d="M211.51,97.69h.29l.32.27a5.66,5.66,0,0,1,1.56,2.41,9.43,9.43,0,0,1,.49,3,8.9,8.9,0,0,1-.12,1.49,8.51,8.51,0,0,1-.26,1.22,5.33,5.33,0,0,1-.42,1c-.18.33-.33.59-.43.76a3.15,3.15,0,0,1-.47.58l-.36.38-.26.21,0,0h-.26a.09.09,0,0,1-.06,0,.81.81,0,0,1,0-.11.63.63,0,0,0,.12-.15,7.48,7.48,0,0,0,1.77-5.4,7.48,7.48,0,0,0-1.77-5.4l-.12-.15A.12.12,0,0,1,211.51,97.69Z"/></svg>