<svg id="Layer_1" data-name="Layer 1" xmlns="http://www.w3.org/2000/svg" viewBox="0 0 343.33 112"><defs><style>.cls-1{font-size:10px;fill:#2f3030;}.cls-1,.cls-29{font-family:MyriadPro-Semibold, Myriad Pro;font-weight:700;}.cls-2{letter-spacing:-0.04em;}.cls-3{letter-spacing:-0.03em;}.cls-4{letter-spacing:0.01em;}.cls-5{letter-spacing:-0.03em;}.cls-6{letter-spacing:0.02em;}.cls-7{fill:#767778;}.cls-8{letter-spacing:-0.01em;}.cls-9{letter-spacing:-0.02em;}.cls-10{letter-spacing:-0.01em;}.cls-11{fill:#aa1e22;}.cls-12{fill:#2c3592;}.cls-13{fill:#e7ebe8;}.cls-14{fill:#efedf6;}.cls-15{fill:#231f20;}.cls-16{fill:#cac9cc;}.cls-17{fill:#7272af;}.cls-18{fill:#4e4ea1;}.cls-19{fill:#d0d0e3;}.cls-20{fill:#9999c1;}.cls-21{fill:#b9b9d5;}.cls-22{fill:#d3d3e5;}.cls-23{fill:#d9a0a7;}.cls-24{fill:#c15d65;}.cls-25{fill:none;stroke:#58595b;stroke-linecap:round;stroke-linejoin:round;stroke-width:2px;}.cls-26{fill:#777787;}.cls-27{fill:#9b9dad;}.cls-28{fill:#b2b3c3;}.cls-29{font-size:8px;fill:#d1d3d4;}</style></defs><title>concepts</title><text class="cls-1" transform="translate(181.43 89.27)"><tspan class="cls-2">V</tspan><tspan x="5.63" y="0">alue </tspan><tspan class="cls-3" x="26.2" y="0">F</tspan><tspan x="30.98" y="0">un</tspan><tspan class="cls-4" x="42.39" y="0">c</tspan><tspan x="47.03" y="0">tion</tspan></text><text class="cls-1" transform="translate(0.67 89.12)"><tspan class="cls-5">P</tspan><tspan x="5.34" y="0">oli</tspan><tspan class="cls-6" x="16.11" y="0">c</tspan><tspan x="20.76" y="0">y </tspan><tspan class="cls-3" x="27.83" y="0">F</tspan><tspan x="32.61" y="0">un</tspan><tspan class="cls-4" x="44.02" y="0">c</tspan><tspan x="48.66" y="0">tion</tspan></text><path class="cls-7" d="M2.18,105.12a.34.34,0,0,1-.39-.38v-.13l.15-.31a22.38,22.38,0,0,0,1.24-3.11l.09-.27H2.9a4.3,4.3,0,0,0-.61,0,1.38,1.38,0,0,0-.44.22,1.16,1.16,0,0,0-.25.2l-.22.24c-.06.08-.1.12-.1.14H1.11c-.15,0-.22,0-.22-.11a1.23,1.23,0,0,1,.22-.4,3.77,3.77,0,0,1,.62-.71,1.54,1.54,0,0,1,.81-.43s.91,0,2.56,0H7a.31.31,0,0,1,.23.32.49.49,0,0,1-.36.48s-.31,0-.79,0H5.31l0,.19a8.8,8.8,0,0,0-.14,1.36,4.77,4.77,0,0,0,.11,1,3.92,3.92,0,0,0,.21.73,1.33,1.33,0,0,1,.12.32.54.54,0,0,1-.16.36.53.53,0,0,1-.41.17.62.62,0,0,1-.21,0s-.11-.11-.18-.27a3.05,3.05,0,0,1-.18-.69c0-.06,0-.23,0-.5a7.25,7.25,0,0,1,.1-1.19c.07-.42.14-.77.2-1l.12-.45H3.73v0s-.07.33-.21.9-.31,1.19-.49,1.83a8,8,0,0,1-.36,1.11A.47.47,0,0,1,2.18,105.12Z"/><path class="cls-7" d="M8.26,102.15a10,10,0,0,1,.11-1.49c.08-.47.17-.88.26-1.22a4.57,4.57,0,0,1,.43-1c.18-.33.32-.58.43-.76a2.59,2.59,0,0,1,.48-.59l.37-.39a1.46,1.46,0,0,1,.29-.24h.19c.1,0,.16,0,.16.1s-.07.11-.2.24a7.38,7.38,0,0,0-.46.6,9.22,9.22,0,0,0-.56,1A6.54,6.54,0,0,0,9.28,100a11.41,11.41,0,0,0-.19,2.2,11.2,11.2,0,0,0,.19,2.18,7.54,7.54,0,0,0,.47,1.58,5.09,5.09,0,0,0,.56,1l.47.6a2.51,2.51,0,0,1,.2.24c0,.07-.06.1-.17.1h-.18l-.32-.27a5.48,5.48,0,0,1-1.56-2.41A9.16,9.16,0,0,1,8.26,102.15Z"/><path class="cls-7" d="M13.1,101.7a1.6,1.6,0,0,1,.19-.74,1.84,1.84,0,0,1,.63-.69A1.91,1.91,0,0,1,15,100a1.45,1.45,0,0,1,1,.31,1,1,0,0,1,.33.68.68.68,0,0,1-.19.54.74.74,0,0,1-.44.18.46.46,0,0,1-.27-.09.39.39,0,0,1-.14-.3.54.54,0,0,1,.11-.32.93.93,0,0,1,.19-.2.25.25,0,0,1,.15-.07h0s0-.06-.08-.1a.73.73,0,0,0-.28-.13,2.12,2.12,0,0,0-.45-.07,1,1,0,0,0-.79.3,1,1,0,0,0-.27.6.43.43,0,0,0,.22.4,2.06,2.06,0,0,0,.63.19,2.94,2.94,0,0,1,.59.17,1.13,1.13,0,0,1,.75,1.1,1.58,1.58,0,0,1-.13.63,2.46,2.46,0,0,1-.37.64,1.69,1.69,0,0,1-.72.5,3,3,0,0,1-1.07.19,1.86,1.86,0,0,1-1.24-.33,1,1,0,0,1-.37-.77.77.77,0,0,1,.24-.64.76.76,0,0,1,.5-.19.5.5,0,0,1,.31.1.41.41,0,0,1,.16.36.68.68,0,0,1-.2.5.58.58,0,0,1-.35.2h0a0,0,0,0,0,0,0,.26.26,0,0,0,.09.1,2.67,2.67,0,0,0,.35.14,1.82,1.82,0,0,0,.63.08,1.92,1.92,0,0,0,.71-.12,1.05,1.05,0,0,0,.43-.32,1.77,1.77,0,0,0,.19-.35.83.83,0,0,0,.06-.29.55.55,0,0,0-.24-.48,1.24,1.24,0,0,0-.55-.19,2.75,2.75,0,0,1-.67-.17,1,1,0,0,1-.53-.4A1.14,1.14,0,0,1,13.1,101.7Z"/><path class="cls-7" d="M17.84,104.59v-.28a.72.72,0,0,1,.18-.49.61.61,0,0,1,.49-.21.73.73,0,0,1,.56.29,1.55,1.55,0,0,1,.27,1,2.87,2.87,0,0,1-.11.77,3.07,3.07,0,0,1-.23.65,2.93,2.93,0,0,1-.3.47l-.27.3c-.08.08-.13.11-.15.11s-.08,0-.15-.11S18,107,18,107s0-.09.12-.19a3.84,3.84,0,0,0,.29-.34,2.13,2.13,0,0,0,.29-.57,3.27,3.27,0,0,0,.19-.83v-.13h0l0,0-.07,0-.1,0h-.14a.68.68,0,0,1-.5-.19Z"/><path class="cls-7" d="M26,101.26a.93.93,0,0,0-.06-.25,1.12,1.12,0,0,0-.26-.4.76.76,0,0,0-.52-.23,1.06,1.06,0,0,0-.76.36,2.19,2.19,0,0,0-.57.92,9.06,9.06,0,0,0-.47,1.86v.13a.45.45,0,0,1,0,.13,1,1,0,0,0,.2.71.7.7,0,0,0,.49.2,1.29,1.29,0,0,0,.86-.37,2,2,0,0,0,.5-.58s.11-.44.3-1.22S26,101.32,26,101.26Zm-3.62,1.94a3.35,3.35,0,0,1,.87-2.18,2.54,2.54,0,0,1,1.94-1,1.31,1.31,0,0,1,1,.56.56.56,0,0,1,.52-.34.41.41,0,0,1,.26.09.27.27,0,0,1,.11.23c0,.1-.14.7-.42,1.82s-.42,1.74-.43,1.89a.61.61,0,0,0,.08.37.3.3,0,0,0,.24.1.45.45,0,0,0,.23-.1,2.52,2.52,0,0,0,.46-1.09q.07-.23.12-.24h.16c.14,0,.21,0,.21.1a2.52,2.52,0,0,1-.05.31,4.14,4.14,0,0,1-.23.61,2.08,2.08,0,0,1-.37.57,1,1,0,0,1-.36.24,1,1,0,0,1-.27,0,1.11,1.11,0,0,1-.65-.17.8.8,0,0,1-.34-.35l-.07-.17s0,0-.05,0l0,0a2,2,0,0,1-1.37.63,1.57,1.57,0,0,1-1.1-.45A1.92,1.92,0,0,1,22.37,103.2Z"/><path class="cls-7" d="M28.7,96.47H29l.32.27a5.73,5.73,0,0,1,1.56,2.41,9.54,9.54,0,0,1,.49,3,9.08,9.08,0,0,1-.12,1.49,8.65,8.65,0,0,1-.26,1.21,5.06,5.06,0,0,1-.42,1c-.18.34-.32.59-.43.77a4,4,0,0,1-.47.58l-.36.37-.26.22-.05,0h-.26a.09.09,0,0,1-.06,0,.62.62,0,0,1,0-.1l.12-.15a7.48,7.48,0,0,0,1.77-5.4,7.52,7.52,0,0,0-1.77-5.41.71.71,0,0,0-.12-.14A.14.14,0,0,1,28.7,96.47Z"/><text class="cls-1" transform="translate(271.43 89.27)"><tspan class="cls-8">A</tspan><tspan class="cls-4" x="6.23" y="0">c</tspan><tspan x="10.87" y="0">tion</tspan><tspan class="cls-9" x="28.3" y="0">-</tspan><tspan class="cls-2" x="31.26" y="0">V</tspan><tspan x="36.89" y="0">alue</tspan></text><path class="cls-7" d="M182,98a.52.52,0,0,1,.14-.38h.12c.3,0,.67,0,1.13,0,.84,0,1.34,0,1.49,0H185s.06.07.06.1a1,1,0,0,1,0,.19.53.53,0,0,1-.09.2h-.23l-.32,0c-.21,0-.33.09-.35.16s.11.91.31,2.7.32,2.68.33,2.7l.78-1.26c.53-.84,1.05-1.69,1.57-2.54s.8-1.29.81-1.32a.32.32,0,0,0,0-.16c0-.18-.15-.28-.47-.31-.13,0-.19,0-.19-.11a.58.58,0,0,1,0-.14.68.68,0,0,1,.06-.2s.07,0,.14,0h1.19c.49,0,.8,0,.93,0h.08a.19.19,0,0,1,.07.12.69.69,0,0,1-.09.34.38.38,0,0,1-.19,0l-.26,0a.59.59,0,0,0-.22,0l-.17.07a.6.6,0,0,0-.13.09l-.11.08a.19.19,0,0,0-.09.09s-.05.08-.07.08L186.29,102c-1.29,2.09-2,3.16-2,3.21l-.07,0H184c-.13,0-.2,0-.2-.07s-.16-1.19-.42-3.44-.41-3.44-.42-3.46-.25-.12-.66-.12h-.19A.13.13,0,0,1,182,98Z"/><path class="cls-7" d="M190.71,102.3a9,9,0,0,1,.11-1.41,8.07,8.07,0,0,1,.25-1.15,3.92,3.92,0,0,1,.4-.95l.4-.72a3.45,3.45,0,0,1,.46-.56,3.77,3.77,0,0,0,.35-.37l.27-.22h.18c.1,0,.15,0,.15.1a1,1,0,0,1-.18.22,5,5,0,0,0-.44.57,7.49,7.49,0,0,0-.53.93,6,6,0,0,0-.45,1.48,11,11,0,0,0-.18,2.08,10.75,10.75,0,0,0,.18,2.06,7,7,0,0,0,.44,1.5,4.48,4.48,0,0,0,.53.92q.27.36.45.57a2.69,2.69,0,0,1,.18.23c0,.06-.05.1-.16.1H193l-.3-.26a5.27,5.27,0,0,1-1.47-2.28A8.77,8.77,0,0,1,190.71,102.3Z"/><path class="cls-7" d="M195.3,101.88a1.5,1.5,0,0,1,.17-.7,1.68,1.68,0,0,1,.6-.66,1.72,1.72,0,0,1,1-.29,1.37,1.37,0,0,1,1,.29.91.91,0,0,1,.31.65.62.62,0,0,1-.18.5.66.66,0,0,1-.41.18.43.43,0,0,1-.26-.09.35.35,0,0,1-.12-.28.49.49,0,0,1,.09-.3,2,2,0,0,1,.18-.2.3.3,0,0,1,.14-.06s0,0,0,0,0,0-.08-.1a.87.87,0,0,0-.27-.12,2.65,2.65,0,0,0-.42-.06.92.92,0,0,0-.75.28,1,1,0,0,0-.25.57.4.4,0,0,0,.21.38,2.19,2.19,0,0,0,.59.18,2.29,2.29,0,0,1,.56.16,1.07,1.07,0,0,1,.71,1,1.7,1.7,0,0,1-.12.61,2.39,2.39,0,0,1-.36.6,1.47,1.47,0,0,1-.67.47,2.73,2.73,0,0,1-1,.18,1.73,1.73,0,0,1-1.17-.31,1,1,0,0,1-.35-.73.72.72,0,0,1,.22-.6.76.76,0,0,1,.48-.18.58.58,0,0,1,.3.09.44.44,0,0,1,.15.34.65.65,0,0,1-.2.47.5.5,0,0,1-.33.19h0s0,0,0,0,0,0,.08.09a1.57,1.57,0,0,0,.34.14,1.79,1.79,0,0,0,.59.08,1.71,1.71,0,0,0,.67-.12.92.92,0,0,0,.4-.3,1.73,1.73,0,0,0,.19-.34,1,1,0,0,0,.05-.27.5.5,0,0,0-.22-.45,1.2,1.2,0,0,0-.52-.18,3,3,0,0,1-.64-.16,1,1,0,0,1-.5-.38A1.1,1.1,0,0,1,195.3,101.88Z"/><path class="cls-7" d="M199.58,96.93h.28l.3.26a5.36,5.36,0,0,1,1.47,2.28,8.71,8.71,0,0,1,.46,2.84,9.36,9.36,0,0,1-.1,1.41,9.74,9.74,0,0,1-.25,1.15,4.74,4.74,0,0,1-.4.94c-.17.32-.31.56-.41.72a2.77,2.77,0,0,1-.44.55l-.34.36-.25.2,0,.05h-.25a.05.05,0,0,1-.05,0,.19.19,0,0,1,0-.09l.12-.14a7.11,7.11,0,0,0,1.67-5.11,7.1,7.1,0,0,0-1.67-5.11.71.71,0,0,0-.12-.14A.12.12,0,0,1,199.58,96.93Z"/><text class="cls-1" transform="translate(91.96 89.47)">Experien<tspan class="cls-10" x="38.1" y="0">c</tspan><tspan x="42.5" y="0">e</tspan></text><polygon class="cls-7" points="93.23 107.88 93.23 97.12 94.71 97.12 94.71 97.55 93.66 97.55 93.66 107.45 94.71 107.45 94.71 107.88 93.23 107.88"/><path class="cls-7" d="M96,102.5a9,9,0,0,1,.1-1.41c.08-.45.16-.83.25-1.15a4.58,4.58,0,0,1,.4-1c.17-.31.31-.55.41-.72a2.9,2.9,0,0,1,.45-.56l.35-.36a2.06,2.06,0,0,1,.27-.23h.19c.1,0,.15,0,.15.1s-.06.09-.19.22a6.57,6.57,0,0,0-.44.57,7.56,7.56,0,0,0-.52.93,6.35,6.35,0,0,0-.46,1.48,11.12,11.12,0,0,0-.18,2.08,10.75,10.75,0,0,0,.18,2.06,6.94,6.94,0,0,0,.45,1.5,4.49,4.49,0,0,0,.52.92q.27.36.45.57a2.07,2.07,0,0,1,.19.23c0,.06-.06.1-.16.1H98.2l-.3-.26a5.36,5.36,0,0,1-1.47-2.28A8.76,8.76,0,0,1,96,102.5Z"/><path class="cls-7" d="M100.55,102.08a1.67,1.67,0,0,1,.17-.7,1.84,1.84,0,0,1,.6-.66,1.8,1.8,0,0,1,1.05-.29,1.41,1.41,0,0,1,1,.29,1,1,0,0,1,.31.65.59.59,0,0,1-.19.5.64.64,0,0,1-.4.18.41.41,0,0,1-.26-.09.36.36,0,0,1-.13-.28.53.53,0,0,1,.09-.3.84.84,0,0,1,.19-.19.23.23,0,0,1,.14-.07,0,0,0,0,0,0,0s0,0-.08-.1a.7.7,0,0,0-.27-.11,1.67,1.67,0,0,0-.42-.07.92.92,0,0,0-.75.28,1,1,0,0,0-.25.57.39.39,0,0,0,.21.38,2.19,2.19,0,0,0,.59.18,2.29,2.29,0,0,1,.56.16,1.07,1.07,0,0,1,.71,1,1.66,1.66,0,0,1-.12.61,2.67,2.67,0,0,1-.35.6,1.56,1.56,0,0,1-.68.47,2.88,2.88,0,0,1-1,.19,1.75,1.75,0,0,1-1.18-.32,1,1,0,0,1-.35-.73.7.7,0,0,1,.7-.78.53.53,0,0,1,.3.09.44.44,0,0,1,.15.34.64.64,0,0,1-.19.47.52.52,0,0,1-.34.19h0s0,0,0,0a.24.24,0,0,0,.09.08,1.42,1.42,0,0,0,.33.14,1.79,1.79,0,0,0,.59.08,1.71,1.71,0,0,0,.67-.12,1,1,0,0,0,.41-.3,1.89,1.89,0,0,0,.18-.34.69.69,0,0,0,0-.26.51.51,0,0,0-.22-.46,1.11,1.11,0,0,0-.52-.18,2.43,2.43,0,0,1-.63-.16,1,1,0,0,1-.51-.38A1.08,1.08,0,0,1,100.55,102.08Z"/><path class="cls-7" d="M105,104.81v-.27a.65.65,0,0,1,.18-.46.58.58,0,0,1,.46-.19.73.73,0,0,1,.54.26,1.51,1.51,0,0,1,.24.95,2.92,2.92,0,0,1-.09.73,3.68,3.68,0,0,1-.23.62,2.08,2.08,0,0,1-.28.44,2.71,2.71,0,0,1-.26.29c-.07.07-.11.1-.14.09s-.07,0-.14-.09-.09-.11-.09-.14,0-.09.12-.17l.26-.33a2,2,0,0,0,.28-.53,3.05,3.05,0,0,0,.18-.79v-.13h0l-.06,0-.06,0-.1,0h-.13a.61.61,0,0,1-.47-.19Z"/><path class="cls-7" d="M112.74,101.66a1,1,0,0,0-.06-.24.89.89,0,0,0-.24-.37.7.7,0,0,0-.5-.22,1,1,0,0,0-.72.33,2.34,2.34,0,0,0-.54.88,8.56,8.56,0,0,0-.44,1.76v.12a.45.45,0,0,1,0,.13.93.93,0,0,0,.19.66.69.69,0,0,0,.47.2,1.19,1.19,0,0,0,.8-.36,1.71,1.71,0,0,0,.48-.55s.11-.41.29-1.15S112.73,101.72,112.74,101.66Zm-3.42,1.84a3.21,3.21,0,0,1,.81-2.07,2.44,2.44,0,0,1,1.84-1,1.22,1.22,0,0,1,1,.53.55.55,0,0,1,.5-.32.41.41,0,0,1,.24.08.25.25,0,0,1,.11.22c0,.09-.13.67-.4,1.72s-.4,1.65-.41,1.79a.56.56,0,0,0,.08.35.33.33,0,0,0,.23.1.49.49,0,0,0,.21-.1,2.4,2.4,0,0,0,.44-1c0-.15.08-.22.11-.23h.15c.14,0,.2,0,.2.1a1.28,1.28,0,0,1-.05.29,4.85,4.85,0,0,1-.21.58,1.87,1.87,0,0,1-.35.54,1,1,0,0,1-.34.22.88.88,0,0,1-.26,0,1.07,1.07,0,0,1-.61-.17.74.74,0,0,1-.33-.33l-.06-.16s0,0,0,0l-.05,0a1.89,1.89,0,0,1-1.29.61,1.46,1.46,0,0,1-1-.44A1.8,1.8,0,0,1,109.32,103.5Z"/><path class="cls-7" d="M115.49,104.81v-.27a.69.69,0,0,1,.17-.46.6.6,0,0,1,.47-.19.7.7,0,0,1,.53.26,1.5,1.5,0,0,1,.25.95,2.52,2.52,0,0,1-.1.73,3.7,3.7,0,0,1-.22.62,2.57,2.57,0,0,1-.28.44l-.26.29c-.07.07-.12.1-.14.09s-.07,0-.14-.09-.1-.11-.1-.14,0-.09.12-.17l.27-.33a2.34,2.34,0,0,0,.28-.53,3.06,3.06,0,0,0,.17-.79v-.13h0l0,0-.07,0-.09,0h-.13a.63.63,0,0,1-.48-.19Z"/><path class="cls-7" d="M119.67,102.1a.51.51,0,0,1,0-.09,1.65,1.65,0,0,1,0-.23,1.69,1.69,0,0,1,.11-.34c0-.1.09-.21.16-.35a1.18,1.18,0,0,1,.21-.32,3.48,3.48,0,0,1,.28-.24.52.52,0,0,1,.36-.1,1.21,1.21,0,0,1,.55.13,1.27,1.27,0,0,1,.33.24.38.38,0,0,1,.12.21s0,.07,0,.07L122,101a1.58,1.58,0,0,1,1.19-.56h0a.85.85,0,0,1,.78.44,1,1,0,0,1,.08.4.89.89,0,0,1-.13.52.77.77,0,0,1-.28.25.68.68,0,0,1-.27,0A.5.5,0,0,1,123,102a.42.42,0,0,1-.13-.31c0-.35.2-.57.61-.69a.88.88,0,0,0-.39-.14,1.4,1.4,0,0,0-1.11.8,1.23,1.23,0,0,0-.16.35c0,.12-.16.6-.37,1.43-.24,1-.38,1.54-.42,1.61a.47.47,0,0,1-.46.29.36.36,0,0,1-.22-.07.29.29,0,0,1-.12-.13.15.15,0,0,1,0-.11c0-.09.14-.71.43-1.85s.43-1.77.43-1.9c0-.28-.1-.42-.28-.42s-.28.1-.39.3a3.24,3.24,0,0,0-.26.66,2.33,2.33,0,0,1-.12.39.41.41,0,0,1-.17,0h-.15S119.67,102.12,119.67,102.1Z"/><path class="cls-7" d="M124.94,97.13h.28l.3.26A5.36,5.36,0,0,1,127,99.66a8.76,8.76,0,0,1,.46,2.84,9.18,9.18,0,0,1-.1,1.41c-.08.45-.16.83-.25,1.15a5.08,5.08,0,0,1-.4,1c-.17.31-.31.55-.41.72a3.61,3.61,0,0,1-.44.54l-.34.36-.25.2,0,0H125a.07.07,0,0,1-.06,0l0-.09.12-.14a8.65,8.65,0,0,0,0-10.22l-.12-.14A.12.12,0,0,1,124.94,97.13Z"/><polygon class="cls-7" points="128.71 97.55 128.71 97.12 130.19 97.12 130.19 107.88 128.71 107.88 128.71 107.45 129.76 107.45 129.76 97.55 128.71 97.55"/><path class="cls-7" d="M275,105.17a2.26,2.26,0,0,0,1-.24l0-.12q0-.61-.42-.75l-.21,0h-.12a.84.84,0,0,0-.71.75Q274.55,105.17,275,105.17Zm3.66-5.12a3,3,0,0,0-.17-1.09,1.59,1.59,0,0,0-.46-.7,2.94,2.94,0,0,0-.57-.34,1.64,1.64,0,0,0-.6-.11,2.47,2.47,0,0,0-1.12.28,4.1,4.1,0,0,0-1.86,2,6.47,6.47,0,0,0-.71,2.83,2.38,2.38,0,0,0,.61,1.78,1.32,1.32,0,0,0,.33.24v-.09a1.18,1.18,0,0,1,.38-.84,1.25,1.25,0,0,1,.89-.4,1,1,0,0,1,.49.12.85.85,0,0,1,.3.35,1.54,1.54,0,0,1,.14.36c0,.1.05.2.07.31l.15-.11a4.35,4.35,0,0,0,1.24-1.37,6.32,6.32,0,0,0,.7-1.7A6.51,6.51,0,0,0,278.66,100.05ZM276,106.28c0-.25,0-.44,0-.57a1.07,1.07,0,0,1,0-.21v0l-.17,0a4.33,4.33,0,0,1-.95.12A2.85,2.85,0,0,1,273,105a2.9,2.9,0,0,1-1-1.88c0-.06,0-.23,0-.49a4.64,4.64,0,0,1,.55-2.21A6.32,6.32,0,0,1,274,98.54a4.45,4.45,0,0,1,2.83-1.17h.55a2.66,2.66,0,0,1,1.77,1,3.23,3.23,0,0,1,.69,2.07,5.14,5.14,0,0,1-1.69,3.73,5.3,5.3,0,0,1-1.49,1l-.19.09v.06s0,.11.06.3a.79.79,0,0,0,.24.48.7.7,0,0,0,.52.18,1.3,1.3,0,0,0,.76-.25,1.17,1.17,0,0,0,.48-.64c0-.11.09-.16.15-.16a.11.11,0,0,1,.12.1,1.92,1.92,0,0,1-.11.41c-.08.21-.18.46-.32.75a2.06,2.06,0,0,1-.61.74,1.68,1.68,0,0,1-.87.33c-.62,0-.93-.41-.93-1.22Z"/><path class="cls-7" d="M281.5,102.53a8.93,8.93,0,0,1,.11-1.49,9.15,9.15,0,0,1,.26-1.22,5.06,5.06,0,0,1,.42-1l.43-.76a3.28,3.28,0,0,1,.48-.59l.38-.39a2.39,2.39,0,0,1,.28-.24h.19c.11,0,.16,0,.16.1s-.06.11-.19.24a6.1,6.1,0,0,0-.47.61,8.17,8.17,0,0,0-.55,1,6.54,6.54,0,0,0-.48,1.57,11.41,11.41,0,0,0-.19,2.2,11.2,11.2,0,0,0,.19,2.18,7,7,0,0,0,.47,1.58,5.1,5.1,0,0,0,.55,1q.29.38.48.6a2.71,2.71,0,0,1,.19.24c0,.07,0,.1-.17.1h-.18l-.32-.27a5.66,5.66,0,0,1-1.56-2.41A9.42,9.42,0,0,1,281.5,102.53Z"/><path class="cls-7" d="M286.34,102.08a1.67,1.67,0,0,1,.18-.73,1.9,1.9,0,0,1,.64-.7,1.87,1.87,0,0,1,1.1-.31,1.49,1.49,0,0,1,1,.31,1,1,0,0,1,.33.68.67.67,0,0,1-.2.54.72.72,0,0,1-.43.18.44.44,0,0,1-.27-.09.36.36,0,0,1-.14-.3.48.48,0,0,1,.1-.31,1,1,0,0,1,.2-.21.35.35,0,0,1,.14-.07h0s0-.06-.08-.1a.79.79,0,0,0-.29-.13,2,2,0,0,0-.44-.06,1,1,0,0,0-.8.29,1.06,1.06,0,0,0-.26.6.4.4,0,0,0,.22.4,2.37,2.37,0,0,0,.62.2,2.39,2.39,0,0,1,.59.17,1.12,1.12,0,0,1,.75,1.09,1.76,1.76,0,0,1-.12.63,2.25,2.25,0,0,1-.38.64,1.6,1.6,0,0,1-.71.5,3.18,3.18,0,0,1-1.07.2,1.82,1.82,0,0,1-1.24-.33,1.08,1.08,0,0,1-.38-.78.75.75,0,0,1,.24-.63.8.8,0,0,1,.5-.2.6.6,0,0,1,.32.1.44.44,0,0,1,.16.36.72.72,0,0,1-.2.5.6.6,0,0,1-.36.2h0s0,0,0,0,0,0,.09.09a1.5,1.5,0,0,0,.35.14,1.56,1.56,0,0,0,.63.08,1.86,1.86,0,0,0,.7-.12.92.92,0,0,0,.43-.32,1.89,1.89,0,0,0,.2-.35,1.1,1.1,0,0,0,0-.29.52.52,0,0,0-.24-.47,1.21,1.21,0,0,0-.54-.2,2.64,2.64,0,0,1-.67-.17,1.07,1.07,0,0,1-.54-.4A1.09,1.09,0,0,1,286.34,102.08Z"/><path class="cls-7" d="M291.07,105v-.28a.72.72,0,0,1,.18-.49.61.61,0,0,1,.49-.2.75.75,0,0,1,.57.28,1.56,1.56,0,0,1,.26,1,2.8,2.8,0,0,1-.1.77,3.71,3.71,0,0,1-.24.65,2.92,2.92,0,0,1-.29.47l-.28.31c-.07.07-.12.11-.15.1s-.08,0-.14-.1-.11-.12-.11-.15.05-.09.13-.18.18-.21.28-.35a1.93,1.93,0,0,0,.3-.56,3.38,3.38,0,0,0,.18-.83v-.14h0a.11.11,0,0,1-.06,0l-.07,0-.1,0h-.13a.65.65,0,0,1-.5-.19Z"/><path class="cls-7" d="M299.23,101.64a1,1,0,0,0-.06-.25,1.28,1.28,0,0,0-.26-.4.72.72,0,0,0-.53-.22,1.07,1.07,0,0,0-.76.35,2.41,2.41,0,0,0-.57.92,9,9,0,0,0-.46,1.86V104c0,.06,0,.11,0,.14a.93.93,0,0,0,.2.7.75.75,0,0,0,.49.21,1.28,1.28,0,0,0,.85-.38,1.83,1.83,0,0,0,.5-.58s.12-.44.31-1.22S299.22,101.7,299.23,101.64Zm-3.62,2a3.4,3.4,0,0,1,.86-2.19,2.53,2.53,0,0,1,1.95-1,1.28,1.28,0,0,1,1,.55.58.58,0,0,1,.52-.34.44.44,0,0,1,.27.09.3.3,0,0,1,.11.23c0,.1-.14.71-.42,1.82a17.76,17.76,0,0,0-.43,1.89.54.54,0,0,0,.08.37.34.34,0,0,0,.24.11A.56.56,0,0,0,300,105a2.5,2.5,0,0,0,.47-1.09c0-.15.08-.23.11-.24h.16c.15,0,.22,0,.22.1a1.68,1.68,0,0,1-.06.31,3.56,3.56,0,0,1-.23.62,1.8,1.8,0,0,1-.36.56,1.13,1.13,0,0,1-.36.24,1,1,0,0,1-.28,0,1.15,1.15,0,0,1-.65-.18.93.93,0,0,1-.34-.35l-.06-.17s0,0,0,0l-.05,0a2,2,0,0,1-1.36.64,1.54,1.54,0,0,1-1.1-.46A1.89,1.89,0,0,1,295.61,103.59Z"/><path class="cls-7" d="M301.93,96.85h.3l.32.28a5.5,5.5,0,0,1,1.55,2.41,9.65,9.65,0,0,1,.38,4.49,10.58,10.58,0,0,1-.26,1.22,5.62,5.62,0,0,1-.42,1c-.19.33-.33.58-.44.76a3.39,3.39,0,0,1-.46.58c-.21.21-.33.34-.37.37a2,2,0,0,1-.26.22l0,0H302a.06.06,0,0,1-.06,0,.23.23,0,0,1,0-.1l.13-.15a7.47,7.47,0,0,0,1.76-5.4,7.47,7.47,0,0,0-1.76-5.4l-.13-.15A.15.15,0,0,1,301.93,96.85Z"/><rect class="cls-11" x="59.42" y="1.84" width="13.25" height="69.76"/><rect class="cls-12" x="45.83" y="2.32" width="11.52" height="11.52"/><rect class="cls-13" x="2.13" y="1.33" width="13.48" height="13.48"/><polygon class="cls-14" points="8.85 13.06 11.65 11.67 6.05 11.67 8.85 13.06"/><polygon class="cls-15" points="13.83 8.07 12.43 5.27 12.43 10.87 13.83 8.07"/><rect class="cls-13" x="16.39" y="1.34" width="13.48" height="13.48"/><polygon class="cls-14" points="18.17 8.08 19.56 10.88 19.56 5.28 18.17 8.08"/><polygon class="cls-14" points="23.12 13.08 25.92 11.68 20.32 11.68 23.12 13.08"/><polygon class="cls-15" points="28.1 8.08 26.7 5.28 26.7 10.88 28.1 8.08"/><rect class="cls-13" x="30.6" y="1.34" width="13.48" height="13.48"/><polygon class="cls-14" points="32.38 8.08 33.77 10.88 33.77 5.28 32.38 8.08"/><polygon class="cls-14" points="37.33 13.08 40.13 11.69 34.52 11.69 37.33 13.08"/><polygon class="cls-15" points="42.3 8.09 40.91 5.28 40.91 10.89 42.3 8.09"/><rect class="cls-13" x="2.13" y="15.59" width="13.48" height="13.48"/><polygon class="cls-14" points="8.85 27.33 11.65 25.94 6.05 25.94 8.85 27.33"/><polygon class="cls-14" points="13.83 22.34 12.43 19.53 12.43 25.14 13.83 22.34"/><polygon class="cls-15" points="8.85 17.36 6.05 18.76 11.65 18.76 8.85 17.36"/><rect class="cls-13" x="16.39" y="15.61" width="13.48" height="13.48"/><polygon class="cls-14" points="18.17 22.35 19.56 25.15 19.56 19.55 18.17 22.35"/><polygon class="cls-14" points="23.12 27.35 25.92 25.95 20.32 25.95 23.12 27.35"/><polygon class="cls-14" points="28.1 22.35 26.7 19.55 26.7 25.15 28.1 22.35"/><polygon class="cls-15" points="23.12 17.38 20.32 18.77 25.92 18.77 23.12 17.38"/><rect class="cls-13" x="30.6" y="15.61" width="13.48" height="13.48"/><polygon class="cls-14" points="32.38 22.35 33.77 25.15 33.77 19.55 32.38 22.35"/><polygon class="cls-14" points="37.33 27.35 40.13 25.95 34.52 25.95 37.33 27.35"/><polygon class="cls-14" points="42.3 22.35 40.91 19.55 40.91 25.16 42.3 22.35"/><polygon class="cls-15" points="37.33 17.38 34.52 18.77 40.13 18.77 37.33 17.38"/><rect class="cls-13" x="44.85" y="15.62" width="13.48" height="13.48"/><polygon class="cls-14" points="46.62 22.36 48.02 25.16 48.02 19.55 46.62 22.36"/><polygon class="cls-14" points="51.57 27.36 54.38 25.96 48.77 25.96 51.57 27.36"/><polygon class="cls-14" points="56.55 22.36 55.16 19.56 55.16 25.16 56.55 22.36"/><polygon class="cls-15" points="51.57 17.39 48.77 18.78 54.38 18.78 51.57 17.39"/><rect class="cls-13" x="2.13" y="29.8" width="13.48" height="13.48"/><polygon class="cls-14" points="8.85 41.54 11.65 40.15 6.05 40.15 8.85 41.54"/><polygon class="cls-14" points="13.83 36.54 12.43 33.74 12.43 39.34 13.83 36.54"/><polygon class="cls-15" points="8.85 31.57 6.05 32.97 11.65 32.97 8.85 31.57"/><rect class="cls-13" x="16.39" y="29.82" width="13.48" height="13.48"/><polygon class="cls-14" points="18.17 36.55 19.56 39.36 19.56 33.75 18.17 36.55"/><polygon class="cls-14" points="23.12 41.55 25.92 40.16 20.32 40.16 23.12 41.55"/><polygon class="cls-14" points="28.1 36.56 26.7 33.76 26.7 39.36 28.1 36.56"/><polygon class="cls-15" points="23.12 31.59 20.32 32.98 25.92 32.98 23.12 31.59"/><rect class="cls-13" x="30.6" y="29.82" width="13.48" height="13.48"/><polygon class="cls-14" points="32.38 36.56 33.77 39.36 33.77 33.76 32.38 36.56"/><polygon class="cls-14" points="37.33 41.56 40.13 40.16 34.52 40.16 37.33 41.56"/><polygon class="cls-14" points="42.3 36.56 40.91 33.76 40.91 39.36 42.3 36.56"/><polygon class="cls-15" points="37.33 31.59 34.52 32.98 40.13 32.98 37.33 31.59"/><rect class="cls-13" x="44.85" y="29.83" width="13.48" height="13.48"/><polygon class="cls-14" points="46.62 36.56 48.02 39.37 48.02 33.76 46.62 36.56"/><polygon class="cls-14" points="51.57 41.56 54.38 40.17 48.77 40.17 51.57 41.56"/><polygon class="cls-14" points="56.55 36.57 55.16 33.77 55.16 39.37 56.55 36.57"/><polygon class="cls-15" points="51.57 31.59 48.77 32.99 54.38 32.99 51.57 31.59"/><rect class="cls-13" x="2.13" y="44.07" width="13.48" height="13.48"/><polygon class="cls-14" points="8.85 55.81 11.65 54.41 6.05 54.41 8.85 55.81"/><polygon class="cls-14" points="13.83 50.81 12.43 48.01 12.43 53.61 13.83 50.81"/><polygon class="cls-15" points="8.85 45.84 6.05 47.23 11.65 47.23 8.85 45.84"/><rect class="cls-13" x="16.39" y="44.09" width="13.48" height="13.48"/><polygon class="cls-15" points="18.17 50.82 19.56 53.63 19.56 48.02 18.17 50.82"/><polygon class="cls-14" points="23.12 55.82 25.92 54.43 20.32 54.43 23.12 55.82"/><polygon class="cls-14" points="28.1 50.83 26.7 48.02 26.7 53.63 28.1 50.83"/><polygon class="cls-14" points="23.12 45.85 20.32 47.25 25.92 47.25 23.12 45.85"/><rect class="cls-13" x="30.6" y="44.09" width="13.48" height="13.48"/><polygon class="cls-15" points="32.38 50.83 33.77 53.63 33.77 48.02 32.38 50.83"/><polygon class="cls-14" points="37.33 55.83 40.13 54.43 34.52 54.43 37.33 55.83"/><polygon class="cls-14" points="42.3 50.83 40.91 48.03 40.91 53.63 42.3 50.83"/><polygon class="cls-14" points="37.33 45.86 34.52 47.25 40.13 47.25 37.33 45.86"/><rect class="cls-13" x="44.85" y="44.09" width="13.48" height="13.48"/><polygon class="cls-15" points="46.62 50.83 48.02 53.63 48.02 48.03 46.62 50.83"/><polygon class="cls-14" points="51.57 55.83 54.38 54.44 48.77 54.44 51.57 55.83"/><polygon class="cls-14" points="56.55 50.84 55.16 48.03 55.16 53.64 56.55 50.84"/><polygon class="cls-14" points="51.57 45.86 48.77 47.26 54.38 47.26 51.57 45.86"/><rect class="cls-13" x="2.13" y="58.33" width="13.48" height="13.48"/><polygon class="cls-14" points="13.83 65.07 12.43 62.27 12.43 67.87 13.83 65.07"/><polygon class="cls-15" points="8.85 60.09 6.05 61.49 11.65 61.49 8.85 60.09"/><rect class="cls-13" x="16.39" y="58.34" width="13.48" height="13.48"/><polygon class="cls-15" points="18.17 65.08 19.56 67.88 19.56 62.28 18.17 65.08"/><polygon class="cls-14" points="28.1 65.08 26.7 62.28 26.7 67.89 28.1 65.08"/><polygon class="cls-14" points="23.12 60.11 20.32 61.51 25.92 61.51 23.12 60.11"/><rect class="cls-13" x="30.6" y="58.34" width="13.48" height="13.48"/><polygon class="cls-15" points="32.38 65.08 33.77 67.88 33.77 62.28 32.38 65.08"/><polygon class="cls-14" points="42.3 65.09 40.91 62.28 40.91 67.89 42.3 65.09"/><polygon class="cls-14" points="37.33 60.11 34.52 61.51 40.13 61.51 37.33 60.11"/><rect class="cls-13" x="44.85" y="58.35" width="13.48" height="13.48"/><polygon class="cls-15" points="46.62 65.09 48.02 67.89 48.02 62.29 46.62 65.09"/><polygon class="cls-14" points="56.55 65.09 55.16 62.29 55.16 67.89 56.55 65.09"/><polygon class="cls-14" points="51.57 60.12 48.77 61.51 54.38 61.51 51.57 60.12"/><rect class="cls-11" x="238.6" y="2" width="13.2" height="69.51"/><rect class="cls-12" x="225.06" y="2.48" width="11.48" height="11.48"/><rect class="cls-13" x="181.51" y="1.49" width="13.43" height="13.43"/><rect class="cls-13" x="195.73" y="1.5" width="13.43" height="13.43"/><rect class="cls-13" x="209.89" y="1.51" width="13.43" height="13.43"/><rect class="cls-13" x="181.51" y="15.71" width="13.43" height="13.43"/><rect class="cls-13" x="195.73" y="15.72" width="13.43" height="13.43"/><rect class="cls-13" x="209.89" y="15.72" width="13.43" height="13.43"/><rect class="cls-13" x="224.08" y="15.73" width="13.43" height="13.43"/><rect class="cls-13" x="181.51" y="29.86" width="13.43" height="13.43"/><rect class="cls-13" x="195.73" y="29.88" width="13.43" height="13.43"/><rect class="cls-13" x="209.89" y="29.88" width="13.43" height="13.43"/><rect class="cls-13" x="224.08" y="29.89" width="13.43" height="13.43"/><rect class="cls-13" x="181.51" y="44.08" width="13.43" height="13.43"/><rect class="cls-13" x="195.73" y="44.1" width="13.43" height="13.43"/><rect class="cls-13" x="209.89" y="44.1" width="13.43" height="13.43"/><rect class="cls-13" x="224.08" y="44.1" width="13.43" height="13.43"/><rect class="cls-13" x="181.51" y="58.29" width="13.43" height="13.43"/><rect class="cls-13" x="195.73" y="58.3" width="13.43" height="13.43"/><rect class="cls-13" x="209.89" y="58.3" width="13.43" height="13.43"/><rect class="cls-13" x="224.08" y="58.31" width="13.43" height="13.43"/><circle class="cls-16" cx="188.23" cy="8.2" r="4.25"/><circle class="cls-16" cx="202.44" cy="8.22" r="4.25"/><circle class="cls-12" cx="216.83" cy="8.22" r="4.25"/><circle class="cls-16" cx="188.14" cy="22.43" r="4.25"/><circle class="cls-17" cx="202.36" cy="22.45" r="4.25"/><circle class="cls-18" cx="216.74" cy="22.45" r="4.25"/><circle class="cls-16" cx="230.78" cy="22.42" r="4.25"/><circle class="cls-19" cx="188.14" cy="36.75" r="4.25"/><circle class="cls-20" cx="202.36" cy="36.77" r="4.25"/><circle class="cls-21" cx="216.74" cy="36.77" r="4.25"/><circle class="cls-16" cx="230.78" cy="36.74" r="4.25"/><circle class="cls-16" cx="188.14" cy="50.85" r="4.25"/><circle class="cls-19" cx="202.36" cy="50.8" r="4.25"/><circle class="cls-22" cx="216.74" cy="50.87" r="4.25"/><circle class="cls-16" cx="230.78" cy="50.83" r="4.25"/><circle class="cls-16" cx="188.14" cy="65.16" r="4.25"/><circle class="cls-23" cx="202.36" cy="65.46" r="4.25"/><circle class="cls-24" cx="216.74" cy="65.18" r="4.25"/><circle class="cls-11" cx="230.78" cy="65.15" r="4.25"/><rect class="cls-13" x="91.96" y="1.45" width="13.43" height="13.43"/><rect class="cls-13" x="106.18" y="1.46" width="13.43" height="13.43"/><rect class="cls-13" x="120.33" y="1.46" width="13.43" height="13.43"/><rect class="cls-13" x="91.96" y="15.67" width="13.43" height="13.43"/><rect class="cls-13" x="106.18" y="15.68" width="13.43" height="13.43"/><rect class="cls-13" x="120.33" y="15.68" width="13.43" height="13.43"/><rect class="cls-13" x="134.53" y="15.69" width="13.43" height="13.43"/><rect class="cls-13" x="91.96" y="29.82" width="13.43" height="13.43"/><rect class="cls-13" x="106.18" y="29.84" width="13.43" height="13.43"/><rect class="cls-13" x="120.33" y="29.84" width="13.43" height="13.43"/><rect class="cls-13" x="134.53" y="29.85" width="13.43" height="13.43"/><rect class="cls-13" x="91.96" y="44.04" width="13.43" height="13.43"/><rect class="cls-13" x="106.18" y="44.06" width="13.43" height="13.43"/><rect class="cls-13" x="120.33" y="44.06" width="13.43" height="13.43"/><rect class="cls-13" x="134.53" y="44.06" width="13.43" height="13.43"/><rect class="cls-13" x="91.96" y="58.25" width="13.43" height="13.43"/><rect class="cls-13" x="106.18" y="58.26" width="13.43" height="13.43"/><rect class="cls-13" x="120.33" y="58.26" width="13.43" height="13.43"/><rect class="cls-13" x="134.53" y="58.27" width="13.43" height="13.43"/><circle class="cls-16" cx="98.67" cy="8.16" r="4.25"/><circle class="cls-16" cx="112.89" cy="8.18" r="4.25"/><circle class="cls-16" cx="127.28" cy="8.18" r="4.25"/><circle class="cls-16" cx="98.59" cy="22.39" r="4.25"/><circle class="cls-16" cx="112.8" cy="22.41" r="4.25"/><circle class="cls-16" cx="127.19" cy="22.41" r="4.25"/><circle class="cls-16" cx="141.23" cy="22.38" r="4.25"/><circle class="cls-16" cx="98.59" cy="36.71" r="4.25"/><circle class="cls-16" cx="112.8" cy="36.73" r="4.25"/><circle class="cls-16" cx="127.19" cy="36.73" r="4.25"/><circle class="cls-16" cx="141.23" cy="36.69" r="4.25"/><circle class="cls-16" cx="98.59" cy="50.8" r="4.25"/><circle class="cls-16" cx="112.8" cy="50.76" r="4.25"/><circle class="cls-16" cx="127.19" cy="50.82" r="4.25"/><circle class="cls-16" cx="141.23" cy="50.79" r="4.25"/><circle class="cls-16" cx="98.59" cy="65.12" r="4.25"/><circle class="cls-16" cx="112.8" cy="65.42" r="4.25"/><circle class="cls-16" cx="127.19" cy="65.14" r="4.25"/><circle class="cls-16" cx="141.23" cy="65.11" r="4.25"/><polyline class="cls-25" points="98.59 36.71 127.19 36.71 127.19 50.83 112.8 50.76 112.8 22.41 127.19 22.41 127.28 8.18 141.25 8.18"/><line class="cls-25" x1="112.8" y1="65.42" x2="155.65" y2="65.42"/><rect class="cls-11" x="149.05" y="1.96" width="13.2" height="69.51"/><rect class="cls-12" x="135.51" y="2.44" width="11.48" height="11.48"/><rect class="cls-11" x="328.31" y="2.27" width="13.15" height="69.26"/><rect class="cls-12" x="314.82" y="2.75" width="11.44" height="11.44"/><rect class="cls-13" x="271.43" y="1.77" width="13.38" height="13.38"/><polygon class="cls-26" points="278.1 13.42 280.88 12.04 275.32 12.04 278.1 13.42"/><polygon class="cls-26" points="283.05 8.46 281.66 5.68 281.66 11.24 283.05 8.46"/><rect class="cls-13" x="285.59" y="1.78" width="13.38" height="13.38"/><polygon class="cls-27" points="287.35 8.47 288.74 11.26 288.74 5.69 287.35 8.47"/><polygon class="cls-27" points="292.27 13.44 295.05 12.05 289.49 12.05 292.27 13.44"/><polygon class="cls-27" points="297.21 8.48 295.83 5.69 295.83 11.26 297.21 8.48"/><rect class="cls-13" x="299.7" y="1.79" width="13.38" height="13.38"/><polygon class="cls-27" points="301.46 8.48 302.85 11.26 302.85 5.69 301.46 8.48"/><polygon class="cls-27" points="306.38 13.44 309.16 12.05 303.6 12.05 306.38 13.44"/><polygon class="cls-18" points="311.32 8.48 309.93 5.7 309.93 11.26 311.32 8.48"/><rect class="cls-13" x="271.43" y="15.94" width="13.38" height="13.38"/><polygon class="cls-27" points="278.1 27.59 280.88 26.2 275.32 26.2 278.1 27.59"/><polygon class="cls-27" points="283.05 22.63 281.66 19.85 281.66 25.41 283.05 22.63"/><polygon class="cls-27" points="278.1 17.69 275.32 19.08 280.88 19.08 278.1 17.69"/><rect class="cls-13" x="285.59" y="15.95" width="13.38" height="13.38"/><polygon class="cls-28" points="287.35 22.64 288.74 25.42 288.74 19.86 287.35 22.64"/><polygon class="cls-28" points="292.27 27.61 295.05 26.22 289.49 26.22 292.27 27.61"/><polygon class="cls-18" points="297.21 22.64 295.83 19.86 295.83 25.43 297.21 22.64"/><polygon class="cls-28" points="292.27 17.7 289.49 19.09 295.05 19.09 292.27 17.7"/><rect class="cls-13" x="299.7" y="15.95" width="13.38" height="13.38"/><polygon class="cls-28" points="301.46 22.64 302.85 25.43 302.85 19.86 301.46 22.64"/><polygon class="cls-28" points="306.38 27.61 309.16 26.22 303.6 26.22 306.38 27.61"/><polygon class="cls-28" points="311.32 22.65 309.93 19.86 309.93 25.43 311.32 22.65"/><polygon class="cls-28" points="306.38 17.71 303.6 19.09 309.16 19.09 306.38 17.71"/><rect class="cls-13" x="313.85" y="15.96" width="13.38" height="13.38"/><polygon class="cls-28" points="315.61 22.65 316.99 25.43 316.99 19.87 315.61 22.65"/><polygon class="cls-28" points="320.52 27.61 323.31 26.23 317.74 26.23 320.52 27.61"/><polygon class="cls-28" points="325.47 22.65 324.08 19.87 324.08 25.43 325.47 22.65"/><polygon class="cls-28" points="320.52 17.71 317.74 19.1 323.31 19.1 320.52 17.71"/><rect class="cls-13" x="271.43" y="30.04" width="13.38" height="13.38"/><polygon class="cls-27" points="278.1 41.7 280.88 40.31 275.32 40.31 278.1 41.7"/><polygon class="cls-18" points="283.05 36.74 281.66 33.95 281.66 39.52 283.05 36.74"/><polygon class="cls-27" points="278.1 31.8 275.32 33.18 280.88 33.18 278.1 31.8"/><rect class="cls-13" x="285.59" y="30.06" width="13.38" height="13.38"/><polygon class="cls-28" points="287.35 36.75 288.74 39.53 288.74 33.97 287.35 36.75"/><polygon class="cls-28" points="292.27 41.71 295.05 40.33 289.49 40.33 292.27 41.71"/><polygon class="cls-18" points="297.21 36.75 295.83 33.97 295.83 39.53 297.21 36.75"/><polygon class="cls-18" points="292.27 31.81 289.49 33.2 295.05 33.2 292.27 31.81"/><rect class="cls-13" x="299.7" y="30.06" width="13.38" height="13.38"/><polygon class="cls-28" points="301.46 36.75 302.85 39.53 302.85 33.97 301.46 36.75"/><polygon class="cls-18" points="306.38 41.71 309.16 40.33 303.6 40.33 306.38 41.71"/><polygon class="cls-28" points="311.32 36.75 309.93 33.97 309.93 39.53 311.32 36.75"/><polygon class="cls-28" points="306.38 31.82 303.6 33.2 309.16 33.2 306.38 31.82"/><rect class="cls-13" x="313.85" y="30.07" width="13.38" height="13.38"/><polygon class="cls-28" points="315.61 36.76 316.99 39.54 316.99 33.97 315.61 36.76"/><polygon class="cls-28" points="320.52 41.72 323.31 40.33 317.74 40.33 320.52 41.72"/><polygon class="cls-28" points="325.47 36.76 324.08 33.98 324.08 39.54 325.47 36.76"/><polygon class="cls-28" points="320.52 31.82 317.74 33.21 323.31 33.21 320.52 31.82"/><rect class="cls-13" x="271.43" y="44.21" width="13.38" height="13.38"/><polygon class="cls-27" points="278.1 55.87 280.88 54.48 275.32 54.48 278.1 55.87"/><polygon class="cls-27" points="283.05 50.9 281.66 48.12 281.66 53.69 283.05 50.9"/><polygon class="cls-27" points="278.1 45.97 275.32 47.35 280.88 47.35 278.1 45.97"/><rect class="cls-13" x="285.59" y="44.22" width="13.38" height="13.38"/><polygon class="cls-28" points="287.35 50.91 288.74 53.7 288.74 48.13 287.35 50.91"/><polygon class="cls-28" points="292.27 55.88 295.05 54.49 289.49 54.49 292.27 55.88"/><polygon class="cls-28" points="297.21 50.92 295.83 48.14 295.83 53.7 297.21 50.92"/><polygon class="cls-18" points="292.27 45.98 289.49 47.37 295.05 47.37 292.27 45.98"/><rect class="cls-13" x="299.7" y="44.23" width="13.38" height="13.38"/><polygon class="cls-18" points="301.46 50.92 302.85 53.7 302.85 48.14 301.46 50.92"/><polygon class="cls-28" points="306.38 55.88 309.16 54.5 303.6 54.5 306.38 55.88"/><polygon class="cls-28" points="311.32 50.92 309.93 48.14 309.93 53.7 311.32 50.92"/><polygon class="cls-28" points="306.38 45.98 303.6 47.37 309.16 47.37 306.38 45.98"/><rect class="cls-13" x="313.85" y="44.23" width="13.38" height="13.38"/><polygon class="cls-28" points="315.61 50.92 316.99 53.7 316.99 48.14 315.61 50.92"/><polygon class="cls-28" points="320.52 55.89 323.31 54.5 317.74 54.5 320.52 55.89"/><polygon class="cls-28" points="325.47 50.93 324.08 48.14 324.08 53.71 325.47 50.93"/><polygon class="cls-28" points="320.52 45.99 317.74 47.37 323.31 47.37 320.52 45.99"/><rect class="cls-13" x="271.43" y="58.36" width="13.38" height="13.38"/><polygon class="cls-26" points="283.05 65.06 281.66 62.28 281.66 67.84 283.05 65.06"/><polygon class="cls-26" points="278.1 60.12 275.32 61.51 280.88 61.51 278.1 60.12"/><rect class="cls-13" x="285.59" y="58.38" width="13.38" height="13.38"/><polygon class="cls-27" points="287.35 65.07 288.74 67.85 288.74 62.29 287.35 65.07"/><polygon class="cls-24" points="297.21 65.07 295.83 62.29 295.83 67.85 297.21 65.07"/><polygon class="cls-27" points="292.27 60.13 289.49 61.52 295.05 61.52 292.27 60.13"/><rect class="cls-13" x="299.7" y="58.38" width="13.38" height="13.38"/><polygon class="cls-27" points="301.46 65.07 302.85 67.85 302.85 62.29 301.46 65.07"/><polygon class="cls-24" points="311.32 65.08 309.93 62.29 309.93 67.86 311.32 65.08"/><polygon class="cls-27" points="306.38 60.14 303.6 61.52 309.16 61.52 306.38 60.14"/><rect class="cls-13" x="313.85" y="58.39" width="13.38" height="13.38"/><polygon class="cls-27" points="315.61 65.08 316.99 67.86 316.99 62.3 315.61 65.08"/><polygon class="cls-24" points="325.47 65.08 324.08 62.3 324.08 67.86 325.47 65.08"/><polygon class="cls-27" points="320.52 60.14 317.74 61.53 323.31 61.53 320.52 60.14"/><text class="cls-29" transform="translate(136.7 10.4)">+1</text><text class="cls-29" transform="translate(151.63 68.06)">-1</text></svg>