<svg id="Layer_1" data-name="Layer 1" xmlns="http://www.w3.org/2000/svg" viewBox="0 0 343.33 112"><defs><style>.cls-1{font-size:10px;fill:#2f3030;}.cls-1,.cls-29{font-family:MyriadPro-Semibold, Myriad Pro;font-weight:700;}.cls-2{letter-spacing:-0.04em;}.cls-3{letter-spacing:-0.03em;}.cls-4{letter-spacing:0.01em;}.cls-5{letter-spacing:-0.03em;}.cls-6{letter-spacing:0.02em;}.cls-7{fill:#767778;}.cls-8{letter-spacing:-0.01em;}.cls-9{letter-spacing:-0.02em;}.cls-10{letter-spacing:-0.01em;}.cls-11{fill:#aa1e22;}.cls-12{fill:#2c3592;}.cls-13{fill:#e7ebe8;}.cls-14{fill:#efedf6;}.cls-15{fill:#231f20;}.cls-16{fill:#cac9cc;}.cls-17{fill:#7272af;}.cls-18{fill:#4e4ea1;}.cls-19{fill:#d0d0e3;}.cls-20{fill:#9999c1;}.cls-21{fill:#b9b9d5;}.cls-22{fill:#d3d3e5;}.cls-23{fill:#d9a0a7;}.cls-24{fill:#c15d65;}.cls-25{fill:none;stroke:#58595b;stroke-linecap:round;stroke-linejoin:round;stroke-width:2px;}.cls-26{fill:#777787;}.cls-27{fill:#9b9dad;}.cls-28{fill:#b2b3c3;}.cls-29{font-size:8px;fill:#d1d3d4;}</style></defs><title>concepts</title><text class="cls-1" transform="translate(90.67 89.12)"><tspan class="cls-2">V</tspan><tspan x="5.63" y="0">alue </tspan><tspan class="cls-3" x="26.2" y="0">F</tspan><tspan x="30.98" y="0">un</tspan><tspan class="cls-4" x="42.39" y="0">c</tspan><tspan x="47.03" y="0">tion</tspan></text><text class="cls-1" transform="translate(0.67 89.12)"><tspan class="cls-5">P</tspan><tspan x="5.34" y="0">oli</tspan><tspan class="cls-6" x="16.11" y="0">c</tspan><tspan x="20.76" y="0">y </tspan><tspan class="cls-3" x="27.83" y="0">F</tspan><tspan x="32.61" y="0">un</tspan><tspan class="cls-4" x="44.02" y="0">c</tspan><tspan x="48.66" y="0">tion</tspan></text><path class="cls-7" d="M2.18,105.12a.34.34,0,0,1-.39-.38v-.13l.15-.31a22.38,22.38,0,0,0,1.24-3.11l.09-.27H2.9a4.3,4.3,0,0,0-.61,0,1.38,1.38,0,0,0-.44.22,1.16,1.16,0,0,0-.25.2l-.22.24c-.06.08-.1.12-.1.14H1.11c-.15,0-.22,0-.22-.11a1.23,1.23,0,0,1,.22-.4,3.77,3.77,0,0,1,.62-.71,1.54,1.54,0,0,1,.81-.43s.91,0,2.56,0H7a.31.31,0,0,1,.23.32.49.49,0,0,1-.36.48s-.31,0-.79,0H5.31l0,.19a8.8,8.8,0,0,0-.14,1.36,4.77,4.77,0,0,0,.11,1,3.92,3.92,0,0,0,.21.73,1.33,1.33,0,0,1,.12.32.54.54,0,0,1-.16.36.53.53,0,0,1-.41.17.62.62,0,0,1-.21,0s-.11-.11-.18-.27a3.05,3.05,0,0,1-.18-.69c0-.06,0-.23,0-.5a7.25,7.25,0,0,1,.1-1.19c.07-.42.14-.77.2-1l.12-.45H3.73v0s-.07.33-.21.9-.31,1.19-.49,1.83a8,8,0,0,1-.36,1.11A.47.47,0,0,1,2.18,105.12Z"/><path class="cls-7" d="M8.26,102.15a10,10,0,0,1,.11-1.49c.08-.47.17-.88.26-1.22a4.57,4.57,0,0,1,.43-1c.18-.33.32-.58.43-.76a2.59,2.59,0,0,1,.48-.59l.37-.39a1.46,1.46,0,0,1,.29-.24h.19c.1,0,.16,0,.16.1s-.07.11-.2.24a7.38,7.38,0,0,0-.46.6,9.22,9.22,0,0,0-.56,1A6.54,6.54,0,0,0,9.28,100a11.41,11.41,0,0,0-.19,2.2,11.2,11.2,0,0,0,.19,2.18,7.54,7.54,0,0,0,.47,1.58,5.09,5.09,0,0,0,.56,1l.47.6a2.51,2.51,0,0,1,.2.24c0,.07-.06.1-.17.1h-.18l-.32-.27a5.48,5.48,0,0,1-1.56-2.41A9.16,9.16,0,0,1,8.26,102.15Z"/><path class="cls-7" d="M13.1,101.7a1.6,1.6,0,0,1,.19-.74,1.84,1.84,0,0,1,.63-.69A1.91,1.91,0,0,1,15,100a1.45,1.45,0,0,1,1,.31,1,1,0,0,1,.33.68.68.68,0,0,1-.19.54.74.74,0,0,1-.44.18.46.46,0,0,1-.27-.09.39.39,0,0,1-.14-.3.54.54,0,0,1,.11-.32.93.93,0,0,1,.19-.2.25.25,0,0,1,.15-.07h0s0-.06-.08-.1a.73.73,0,0,0-.28-.13,2.12,2.12,0,0,0-.45-.07,1,1,0,0,0-.79.3,1,1,0,0,0-.27.6.43.43,0,0,0,.22.4,2.06,2.06,0,0,0,.63.19,2.94,2.94,0,0,1,.59.17,1.13,1.13,0,0,1,.75,1.1,1.58,1.58,0,0,1-.13.63,2.46,2.46,0,0,1-.37.64,1.69,1.69,0,0,1-.72.5,3,3,0,0,1-1.07.19,1.86,1.86,0,0,1-1.24-.33,1,1,0,0,1-.37-.77.77.77,0,0,1,.24-.64.76.76,0,0,1,.5-.19.5.5,0,0,1,.31.1.41.41,0,0,1,.16.36.68.68,0,0,1-.2.5.58.58,0,0,1-.35.2h0a0,0,0,0,0,0,0,.26.26,0,0,0,.09.1,2.67,2.67,0,0,0,.35.14,1.82,1.82,0,0,0,.63.08,1.92,1.92,0,0,0,.71-.12,1.05,1.05,0,0,0,.43-.32,1.77,1.77,0,0,0,.19-.35.83.83,0,0,0,.06-.29.55.55,0,0,0-.24-.48,1.24,1.24,0,0,0-.55-.19,2.75,2.75,0,0,1-.67-.17,1,1,0,0,1-.53-.4A1.14,1.14,0,0,1,13.1,101.7Z"/><path class="cls-7" d="M17.84,104.59v-.28a.72.72,0,0,1,.18-.49.61.61,0,0,1,.49-.21.73.73,0,0,1,.56.29,1.55,1.55,0,0,1,.27,1,2.87,2.87,0,0,1-.11.77,3.07,3.07,0,0,1-.23.65,2.93,2.93,0,0,1-.3.47l-.27.3c-.08.08-.13.11-.15.11s-.08,0-.15-.11S18,107,18,107s0-.09.12-.19a3.84,3.84,0,0,0,.29-.34,2.13,2.13,0,0,0,.29-.57,3.27,3.27,0,0,0,.19-.83v-.13h0l0,0-.07,0-.1,0h-.14a.68.68,0,0,1-.5-.19Z"/><path class="cls-7" d="M26,101.26a.93.93,0,0,0-.06-.25,1.12,1.12,0,0,0-.26-.4.76.76,0,0,0-.52-.23,1.06,1.06,0,0,0-.76.36,2.19,2.19,0,0,0-.57.92,9.06,9.06,0,0,0-.47,1.86v.13a.45.45,0,0,1,0,.13,1,1,0,0,0,.2.71.7.7,0,0,0,.49.2,1.29,1.29,0,0,0,.86-.37,2,2,0,0,0,.5-.58s.11-.44.3-1.22S26,101.32,26,101.26Zm-3.62,1.94a3.35,3.35,0,0,1,.87-2.18,2.54,2.54,0,0,1,1.94-1,1.31,1.31,0,0,1,1,.56.56.56,0,0,1,.52-.34.41.41,0,0,1,.26.09.27.27,0,0,1,.11.23c0,.1-.14.7-.42,1.82s-.42,1.74-.43,1.89a.61.61,0,0,0,.08.37.3.3,0,0,0,.24.1.45.45,0,0,0,.23-.1,2.52,2.52,0,0,0,.46-1.09q.07-.23.12-.24h.16c.14,0,.21,0,.21.1a2.52,2.52,0,0,1-.05.31,4.14,4.14,0,0,1-.23.61,2.08,2.08,0,0,1-.37.57,1,1,0,0,1-.36.24,1,1,0,0,1-.27,0,1.11,1.11,0,0,1-.65-.17.8.8,0,0,1-.34-.35l-.07-.17s0,0-.05,0l0,0a2,2,0,0,1-1.37.63,1.57,1.57,0,0,1-1.1-.45A1.92,1.92,0,0,1,22.37,103.2Z"/><path class="cls-7" d="M28.7,96.47H29l.32.27a5.73,5.73,0,0,1,1.56,2.41,9.54,9.54,0,0,1,.49,3,9.08,9.08,0,0,1-.12,1.49,8.65,8.65,0,0,1-.26,1.21,5.06,5.06,0,0,1-.42,1c-.18.34-.32.59-.43.77a4,4,0,0,1-.47.58l-.36.37-.26.22-.05,0h-.26a.09.09,0,0,1-.06,0,.62.62,0,0,1,0-.1l.12-.15a7.48,7.48,0,0,0,1.77-5.4,7.52,7.52,0,0,0-1.77-5.41.71.71,0,0,0-.12-.14A.14.14,0,0,1,28.7,96.47Z"/><text class="cls-1" transform="translate(180.67 89.12)"><tspan class="cls-8">A</tspan><tspan class="cls-4" x="6.23" y="0">c</tspan><tspan x="10.87" y="0">tion</tspan><tspan class="cls-9" x="28.3" y="0">-</tspan><tspan class="cls-2" x="31.26" y="0">V</tspan><tspan x="36.89" y="0">alue</tspan></text><path class="cls-7" d="M91.23,97.87a.54.54,0,0,1,.14-.38h.12c.3,0,.68,0,1.13,0a13.44,13.44,0,0,0,1.49,0h.11c0,.05.06.08.06.1a1,1,0,0,1,0,.19.73.73,0,0,1-.09.21h-.23l-.32,0c-.21,0-.33.09-.35.16s.11.92.32,2.7.31,2.69.32,2.7l.78-1.26c.53-.84,1-1.68,1.57-2.54s.8-1.29.81-1.32a.29.29,0,0,0,0-.16c0-.17-.15-.27-.47-.3-.13,0-.19,0-.19-.12a.64.64,0,0,1,0-.14.59.59,0,0,1,.06-.19.17.17,0,0,1,.14-.05h.5l.69,0a8.38,8.38,0,0,0,.93,0h.08a.19.19,0,0,1,.07.12.73.73,0,0,1-.09.35.38.38,0,0,1-.19,0l-.26,0a.87.87,0,0,0-.22,0l-.17.08a.38.38,0,0,0-.13.09l-.11.07a.22.22,0,0,0-.09.1s-.05.07-.07.07l-2.08,3.34c-1.29,2.08-2,3.15-2,3.2l-.07.06h-.27c-.13,0-.2,0-.2-.08s-.16-1.19-.42-3.44-.41-3.43-.42-3.45S91.9,98,91.49,98H91.3A.15.15,0,0,1,91.23,97.87Z"/><path class="cls-7" d="M100,102.15a9.16,9.16,0,0,1,.11-1.41,10.21,10.21,0,0,1,.25-1.15,4.09,4.09,0,0,1,.4-1c.17-.3.3-.54.41-.72a3.23,3.23,0,0,1,.45-.56l.35-.36.27-.23h.18c.1,0,.15,0,.15.1a.89.89,0,0,1-.18.23,3.69,3.69,0,0,0-.44.57,8.09,8.09,0,0,0-.53.92,6,6,0,0,0-.45,1.49,12,12,0,0,0,0,4.14,7.07,7.07,0,0,0,.44,1.49,4.88,4.88,0,0,0,.53.93l.45.57.18.22c0,.07,0,.1-.16.1h-.17l-.3-.26a5.27,5.27,0,0,1-1.47-2.28A8.77,8.77,0,0,1,100,102.15Z"/><path class="cls-7" d="M104.54,101.73a1.53,1.53,0,0,1,.17-.7,1.8,1.8,0,0,1,1.64-.94,1.33,1.33,0,0,1,1,.29.89.89,0,0,1,.31.64.66.66,0,0,1-.18.51.65.65,0,0,1-.41.17.43.43,0,0,1-.26-.09.34.34,0,0,1-.12-.28.53.53,0,0,1,.09-.3,1.13,1.13,0,0,1,.19-.19.26.26,0,0,1,.14-.07h0s0-.05-.08-.09a.57.57,0,0,0-.27-.12,1.84,1.84,0,0,0-.42-.07.91.91,0,0,0-1,.85.39.39,0,0,0,.21.38,2.19,2.19,0,0,0,.59.18,2.86,2.86,0,0,1,.56.16,1.08,1.08,0,0,1,.71,1,1.61,1.61,0,0,1-.12.6,2.39,2.39,0,0,1-.36.6,1.57,1.57,0,0,1-.67.48,3.2,3.2,0,0,1-1,.18,1.78,1.78,0,0,1-1.17-.31,1,1,0,0,1-.35-.74.74.74,0,0,1,.22-.6.76.76,0,0,1,.48-.18.51.51,0,0,1,.3.1.4.4,0,0,1,.15.33.63.63,0,0,1-.2.47.52.52,0,0,1-.33.2h0s0,0,0,0a.28.28,0,0,0,.08.09,2.36,2.36,0,0,0,.34.14,1.8,1.8,0,0,0,.59.07,1.71,1.71,0,0,0,.67-.12,1,1,0,0,0,.41-.3,1.84,1.84,0,0,0,.18-.33,1,1,0,0,0,0-.27.5.5,0,0,0-.22-.45,1.3,1.3,0,0,0-.52-.19,2.49,2.49,0,0,1-.64-.16,1,1,0,0,1-.5-.37A1.11,1.11,0,0,1,104.54,101.73Z"/><path class="cls-7" d="M108.82,96.78h.28l.3.26a5.36,5.36,0,0,1,1.47,2.28,8.76,8.76,0,0,1,.46,2.84,9.18,9.18,0,0,1-.1,1.41,9.31,9.31,0,0,1-.25,1.15,4.81,4.81,0,0,1-.4,1c-.17.31-.31.55-.41.72a3.09,3.09,0,0,1-.44.55l-.34.35-.25.21,0,0h-.25a.05.05,0,0,1,0,0,.23.23,0,0,1,0-.1l.12-.14a7.1,7.1,0,0,0,1.67-5.11A7.11,7.11,0,0,0,108.88,97l-.12-.14A.13.13,0,0,1,108.82,96.78Z"/><text class="cls-1" transform="translate(270.67 89.12)">Experien<tspan class="cls-10" x="38.1" y="0">c</tspan><tspan x="42.5" y="0">e</tspan></text><polygon class="cls-7" points="271.94 107.53 271.94 96.77 273.42 96.77 273.42 97.2 272.37 97.2 272.37 107.1 273.42 107.1 273.42 107.53 271.94 107.53"/><path class="cls-7" d="M274.67,102.15a9.16,9.16,0,0,1,.11-1.41,8.39,8.39,0,0,1,.25-1.15,4.09,4.09,0,0,1,.4-1c.17-.3.3-.54.41-.72a3.23,3.23,0,0,1,.45-.56l.35-.36.27-.23h.18c.1,0,.15,0,.15.1a.89.89,0,0,1-.18.23,3.69,3.69,0,0,0-.44.57,8.09,8.09,0,0,0-.53.92,6,6,0,0,0-.45,1.49,12,12,0,0,0,0,4.14,7.07,7.07,0,0,0,.44,1.49,4.88,4.88,0,0,0,.53.93l.45.57.18.22c0,.07-.05.1-.16.1h-.17l-.3-.26a5.27,5.27,0,0,1-1.47-2.28A8.77,8.77,0,0,1,274.67,102.15Z"/><path class="cls-7" d="M279.26,101.73a1.53,1.53,0,0,1,.17-.7,1.8,1.8,0,0,1,1.64-.94,1.33,1.33,0,0,1,1,.29.89.89,0,0,1,.31.64.66.66,0,0,1-.18.51.65.65,0,0,1-.41.17.43.43,0,0,1-.26-.09.34.34,0,0,1-.12-.28.53.53,0,0,1,.09-.3,1.73,1.73,0,0,1,.18-.19.35.35,0,0,1,.14-.07h0s0-.05-.08-.09a.57.57,0,0,0-.27-.12,1.84,1.84,0,0,0-.42-.07.91.91,0,0,0-1,.85.39.39,0,0,0,.21.38,2.19,2.19,0,0,0,.59.18,2.86,2.86,0,0,1,.56.16,1.08,1.08,0,0,1,.71,1,1.61,1.61,0,0,1-.12.6,2.39,2.39,0,0,1-.36.6,1.57,1.57,0,0,1-.67.48,3.2,3.2,0,0,1-1,.18,1.78,1.78,0,0,1-1.17-.31,1,1,0,0,1-.35-.74.74.74,0,0,1,.22-.6.76.76,0,0,1,.48-.18.51.51,0,0,1,.3.1.4.4,0,0,1,.15.33.63.63,0,0,1-.2.47.52.52,0,0,1-.33.2h0s0,0,0,0,0,0,.08.09a2.36,2.36,0,0,0,.34.14,1.8,1.8,0,0,0,.59.07,1.71,1.71,0,0,0,.67-.12.92.92,0,0,0,.4-.3,1.45,1.45,0,0,0,.19-.33,1,1,0,0,0,.05-.27.5.5,0,0,0-.22-.45,1.36,1.36,0,0,0-.52-.19,2.49,2.49,0,0,1-.64-.16,1,1,0,0,1-.5-.37A1.11,1.11,0,0,1,279.26,101.73Z"/><path class="cls-7" d="M283.73,104.46v-.26a.71.71,0,0,1,.17-.47.6.6,0,0,1,.47-.19.68.68,0,0,1,.53.27,1.47,1.47,0,0,1,.25.94,2.59,2.59,0,0,1-.1.74,3.57,3.57,0,0,1-.22.61,2.57,2.57,0,0,1-.28.44l-.26.29c-.07.07-.12.11-.14.1s-.07,0-.14-.1-.1-.11-.1-.14,0-.08.12-.17.17-.19.27-.32a2.23,2.23,0,0,0,.28-.54,3,3,0,0,0,.17-.79v-.13h0l-.05,0-.07,0-.09,0h-.13a.66.66,0,0,1-.48-.18Z"/><path class="cls-7" d="M291.44,101.31a.72.72,0,0,0-.05-.23,1.07,1.07,0,0,0-.25-.38.68.68,0,0,0-.49-.22,1.05,1.05,0,0,0-.72.34,2.23,2.23,0,0,0-.54.87,8.1,8.1,0,0,0-.44,1.76v.12c0,.06,0,.1,0,.13a.91.91,0,0,0,.19.67.71.71,0,0,0,.46.19,1.22,1.22,0,0,0,.81-.35,1.74,1.74,0,0,0,.47-.55s.12-.41.29-1.15S291.44,101.37,291.44,101.31ZM288,103.15a3.2,3.2,0,0,1,.82-2.06,2.37,2.37,0,0,1,1.84-1,1.21,1.21,0,0,1,1,.52.54.54,0,0,1,.49-.32.37.37,0,0,1,.25.09.26.26,0,0,1,.11.21c0,.1-.13.67-.4,1.72s-.4,1.65-.41,1.79a.54.54,0,0,0,.08.35.3.3,0,0,0,.22.1.47.47,0,0,0,.22-.1,2.34,2.34,0,0,0,.44-1c0-.14.08-.22.11-.22l.1,0h.05c.13,0,.2,0,.2.1a2.43,2.43,0,0,1-.05.29,3.42,3.42,0,0,1-.22.58,1.67,1.67,0,0,1-.34.54,1.12,1.12,0,0,1-.35.23l-.25,0a1.19,1.19,0,0,1-.62-.16.84.84,0,0,1-.32-.34l-.06-.16h0l0,0a1.88,1.88,0,0,1-1.29.6,1.44,1.44,0,0,1-1-.43A1.79,1.79,0,0,1,288,103.15Z"/><path class="cls-7" d="M294.2,104.46v-.26a.71.71,0,0,1,.17-.47.59.59,0,0,1,.46-.19.71.71,0,0,1,.54.27,1.47,1.47,0,0,1,.25.94,2.59,2.59,0,0,1-.1.74,3.57,3.57,0,0,1-.22.61,2.57,2.57,0,0,1-.28.44l-.26.29c-.07.07-.12.11-.14.1s-.08,0-.14-.1-.1-.11-.1-.14,0-.08.12-.17.17-.19.27-.32a2.23,2.23,0,0,0,.28-.54,3.42,3.42,0,0,0,.17-.79v-.13h0l0,0a.09.09,0,0,0-.07,0,.22.22,0,0,1-.1,0h-.12a.65.65,0,0,1-.48-.18Z"/><path class="cls-7" d="M298.37,101.75a.19.19,0,0,0,0-.08l.06-.24a2.58,2.58,0,0,1,.1-.33l.17-.36a1.11,1.11,0,0,1,.21-.32,2.32,2.32,0,0,1,.28-.24.47.47,0,0,1,.36-.09,1.05,1.05,0,0,1,.54.13,1.31,1.31,0,0,1,.34.23.6.6,0,0,1,.12.22s0,.06,0,.06l.08-.07a1.58,1.58,0,0,1,1.2-.56h0a.84.84,0,0,1,.78.44,1.14,1.14,0,0,1,.08.4.81.81,0,0,1-.14.51.64.64,0,0,1-.28.25.51.51,0,0,1-.27,0,.49.49,0,0,1-.34-.12.37.37,0,0,1-.13-.31q0-.51.6-.69a.85.85,0,0,0-.38-.14,1.38,1.38,0,0,0-1.11.8,1.17,1.17,0,0,0-.16.36c0,.12-.16.59-.37,1.43-.24,1-.38,1.53-.42,1.6a.48.48,0,0,1-.46.29.33.33,0,0,1-.23-.07.45.45,0,0,1-.12-.12.26.26,0,0,1,0-.11c0-.1.15-.71.43-1.85a17.55,17.55,0,0,0,.43-1.91c0-.28-.09-.42-.28-.42s-.28.1-.38.31a2.68,2.68,0,0,0-.26.65q-.11.36-.12.39a.45.45,0,0,1-.17,0h-.15A.16.16,0,0,1,298.37,101.75Z"/><path class="cls-7" d="M303.64,96.78h.28l.3.26a5.29,5.29,0,0,1,1.48,2.28,8.76,8.76,0,0,1,.46,2.84,9.16,9.16,0,0,1-.11,1.41,9.49,9.49,0,0,1-.24,1.15,5.5,5.5,0,0,1-.4,1c-.17.31-.31.55-.41.72a3.63,3.63,0,0,1-.44.55c-.2.2-.31.32-.35.35a1.52,1.52,0,0,1-.24.21l-.05,0h-.24a.07.07,0,0,1-.06,0,.62.62,0,0,1,0-.1l.12-.14a7.1,7.1,0,0,0,1.67-5.11A7.11,7.11,0,0,0,303.71,97l-.12-.14A.15.15,0,0,1,303.64,96.78Z"/><polygon class="cls-7" points="307.42 97.2 307.42 96.77 308.89 96.77 308.89 107.53 307.42 107.53 307.42 107.1 308.46 107.1 308.46 97.2 307.42 97.2"/><path class="cls-7" d="M184.24,105a2.26,2.26,0,0,0,1-.24l0-.11q0-.63-.42-.75a.9.9,0,0,0-.21,0h-.07l-.05,0a.7.7,0,0,0-.46.23.72.72,0,0,0-.25.52Q183.79,105,184.24,105Zm3.66-5.12a3,3,0,0,0-.17-1.09,1.5,1.5,0,0,0-.46-.69,2.51,2.51,0,0,0-.57-.34,1.46,1.46,0,0,0-.6-.12A2.49,2.49,0,0,0,185,98a4.1,4.1,0,0,0-1.86,2,6.39,6.39,0,0,0-.71,2.82,2.37,2.37,0,0,0,.62,1.79,1.09,1.09,0,0,0,.33.23v-.09a1.19,1.19,0,0,1,.37-.84,1.25,1.25,0,0,1,.89-.4,1,1,0,0,1,.49.13.76.76,0,0,1,.3.34,1.54,1.54,0,0,1,.14.36c0,.1,0,.2.07.31l.15-.1a4.39,4.39,0,0,0,1.24-1.38,6.26,6.26,0,0,0,.7-1.69A6.66,6.66,0,0,0,187.9,99.9Zm-2.69,6.24c0-.25,0-.44,0-.57s0-.2,0-.22v0l-.17,0a4.31,4.31,0,0,1-.95.13,2.8,2.8,0,0,1-2.87-2.54c0-.06,0-.22,0-.49a4.67,4.67,0,0,1,.55-2.21,6.46,6.46,0,0,1,1.46-1.85,4.45,4.45,0,0,1,2.83-1.17h.55a2.67,2.67,0,0,1,1.77,1,3.23,3.23,0,0,1,.69,2.07A5.16,5.16,0,0,1,187.4,104a5.26,5.26,0,0,1-1.49,1l-.19.1v0s0,.11.06.31a.85.85,0,0,0,.24.48.7.7,0,0,0,.52.18,1.3,1.3,0,0,0,.76-.25,1.19,1.19,0,0,0,.48-.65c0-.11.09-.16.15-.16a.11.11,0,0,1,.12.1,1.92,1.92,0,0,1-.11.41,7,7,0,0,1-.32.75,2,2,0,0,1-.61.74,1.52,1.52,0,0,1-.87.33c-.62,0-.93-.4-.93-1.21Z"/><path class="cls-7" d="M190.74,102.38a8.93,8.93,0,0,1,.11-1.49,10.84,10.84,0,0,1,.26-1.21,4.83,4.83,0,0,1,.42-1c.18-.33.33-.58.43-.77a3.28,3.28,0,0,1,.48-.59l.38-.38a1.3,1.3,0,0,1,.28-.24h.19c.11,0,.16,0,.16.1a.94.94,0,0,1-.19.24,5.78,5.78,0,0,0-.47.6,8.38,8.38,0,0,0-.55,1,6.54,6.54,0,0,0-.48,1.57,12.72,12.72,0,0,0,0,4.38,7,7,0,0,0,.47,1.58,5.1,5.1,0,0,0,.55,1q.28.38.48.6a1.63,1.63,0,0,1,.19.24c0,.07,0,.1-.17.1h-.18l-.32-.27a5.73,5.73,0,0,1-1.56-2.41A9.53,9.53,0,0,1,190.74,102.38Z"/><path class="cls-7" d="M195.58,101.94a1.71,1.71,0,0,1,.18-.74,1.87,1.87,0,0,1,.64-.69,1.74,1.74,0,0,1,1.1-.31,1.44,1.44,0,0,1,1,.31,1,1,0,0,1,.33.68.66.66,0,0,1-.2.53.67.67,0,0,1-.43.19.45.45,0,0,1-.27-.1.34.34,0,0,1-.14-.29.58.58,0,0,1,.1-.32.94.94,0,0,1,.2-.2.25.25,0,0,1,.14-.07h0s0-.06-.08-.11a1,1,0,0,0-.29-.12,1.93,1.93,0,0,0-.44-.07,1,1,0,0,0-.8.3,1,1,0,0,0-.26.6.41.41,0,0,0,.22.4,2.42,2.42,0,0,0,.62.19,2.26,2.26,0,0,1,.59.17,1.12,1.12,0,0,1,.75,1.09,1.81,1.81,0,0,1-.12.64,2.56,2.56,0,0,1-.38.64,1.6,1.6,0,0,1-.71.5,3.19,3.19,0,0,1-1.07.19,1.82,1.82,0,0,1-1.24-.33,1.08,1.08,0,0,1-.38-.77.77.77,0,0,1,.24-.64.78.78,0,0,1,.5-.19.53.53,0,0,1,.32.1.42.42,0,0,1,.16.35.69.69,0,0,1-.2.5.57.57,0,0,1-.36.21h0s0,0,0,0a.36.36,0,0,0,.09.09,1.39,1.39,0,0,0,.35.15,1.75,1.75,0,0,0,.63.08,1.68,1.68,0,0,0,.7-.13,1,1,0,0,0,.43-.31,1.66,1.66,0,0,0,.2-.36.76.76,0,0,0,0-.28.56.56,0,0,0-.23-.48,1.17,1.17,0,0,0-.55-.19,3.14,3.14,0,0,1-.67-.17,1.06,1.06,0,0,1-.73-1.06Z"/><path class="cls-7" d="M200.31,104.83v-.29a.72.72,0,0,1,.18-.49.65.65,0,0,1,.49-.2.75.75,0,0,1,.57.28,1.53,1.53,0,0,1,.26,1,2.86,2.86,0,0,1-.1.77,4,4,0,0,1-.24.65,2.81,2.81,0,0,1-.29.46l-.28.31c-.07.08-.12.11-.14.1s-.08,0-.15-.1-.11-.12-.11-.15.05-.09.13-.18a3.93,3.93,0,0,0,.28-.34,2.15,2.15,0,0,0,.3-.57,3.28,3.28,0,0,0,.18-.83v-.12l-.06,0-.06,0a.18.18,0,0,1-.11,0l-.13,0a.67.67,0,0,1-.5-.2Z"/><path class="cls-7" d="M208.47,101.5a.93.93,0,0,0-.06-.25,1.09,1.09,0,0,0-.26-.4.72.72,0,0,0-.53-.23,1.11,1.11,0,0,0-.76.35,2.48,2.48,0,0,0-.57.92,9,9,0,0,0-.46,1.87v.12c0,.06,0,.11,0,.14a1,1,0,0,0,.2.71.8.8,0,0,0,.49.2,1.27,1.27,0,0,0,.85-.37,2.08,2.08,0,0,0,.5-.58s.12-.44.31-1.22S208.46,101.56,208.47,101.5Zm-3.62,1.94a3.37,3.37,0,0,1,.86-2.18,2.57,2.57,0,0,1,1.95-1.05,1.29,1.29,0,0,1,1,.56.57.57,0,0,1,.52-.34.44.44,0,0,1,.27.09.28.28,0,0,1,.11.23c0,.09-.14.7-.42,1.81a19,19,0,0,0-.43,1.89.58.58,0,0,0,.08.38.34.34,0,0,0,.24.1.52.52,0,0,0,.22-.1,2.56,2.56,0,0,0,.47-1.09c0-.16.08-.23.11-.24H210c.15,0,.22,0,.22.1a1.84,1.84,0,0,1-.06.31,3.52,3.52,0,0,1-.23.61,1.87,1.87,0,0,1-.36.57,1.13,1.13,0,0,1-.36.24l-.28,0a1.23,1.23,0,0,1-.65-.17.93.93,0,0,1-.34-.35l-.06-.17s0,0,0,0l-.05,0a2,2,0,0,1-1.36.64,1.52,1.52,0,0,1-1.1-.46A1.89,1.89,0,0,1,204.85,103.44Z"/><path class="cls-7" d="M211.17,96.71h.3l.32.27a5.55,5.55,0,0,1,1.55,2.41,9.16,9.16,0,0,1,.49,3,8.93,8.93,0,0,1-.11,1.49,10.14,10.14,0,0,1-.26,1.22,5.33,5.33,0,0,1-.42,1c-.18.33-.33.59-.43.76a3.63,3.63,0,0,1-.47.58l-.37.38a1.54,1.54,0,0,1-.26.21l0,0h-.26a.06.06,0,0,1-.06,0,.18.18,0,0,1,0-.11l.12-.15a7.47,7.47,0,0,0,1.76-5.4,7.47,7.47,0,0,0-1.76-5.4.8.8,0,0,1-.12-.15C211.12,96.77,211.13,96.73,211.17,96.71Z"/><rect class="cls-11" x="59.42" y="1.84" width="13.25" height="69.76"/><rect class="cls-12" x="45.83" y="2.32" width="11.52" height="11.52"/><rect class="cls-13" x="2.13" y="1.33" width="13.48" height="13.48"/><polygon class="cls-14" points="8.85 13.06 11.65 11.67 6.05 11.67 8.85 13.06"/><polygon class="cls-15" points="13.83 8.07 12.43 5.27 12.43 10.87 13.83 8.07"/><rect class="cls-13" x="16.39" y="1.34" width="13.48" height="13.48"/><polygon class="cls-14" points="18.17 8.08 19.56 10.88 19.56 5.28 18.17 8.08"/><polygon class="cls-14" points="23.12 13.08 25.92 11.68 20.32 11.68 23.12 13.08"/><polygon class="cls-15" points="28.1 8.08 26.7 5.28 26.7 10.88 28.1 8.08"/><rect class="cls-13" x="30.6" y="1.34" width="13.48" height="13.48"/><polygon class="cls-14" points="32.38 8.08 33.77 10.88 33.77 5.28 32.38 8.08"/><polygon class="cls-14" points="37.33 13.08 40.13 11.69 34.52 11.69 37.33 13.08"/><polygon class="cls-15" points="42.3 8.09 40.91 5.28 40.91 10.89 42.3 8.09"/><rect class="cls-13" x="2.13" y="15.59" width="13.48" height="13.48"/><polygon class="cls-14" points="8.85 27.33 11.65 25.94 6.05 25.94 8.85 27.33"/><polygon class="cls-14" points="13.83 22.34 12.43 19.53 12.43 25.14 13.83 22.34"/><polygon class="cls-15" points="8.85 17.36 6.05 18.76 11.65 18.76 8.85 17.36"/><rect class="cls-13" x="16.39" y="15.61" width="13.48" height="13.48"/><polygon class="cls-14" points="18.17 22.35 19.56 25.15 19.56 19.55 18.17 22.35"/><polygon class="cls-14" points="23.12 27.35 25.92 25.95 20.32 25.95 23.12 27.35"/><polygon class="cls-14" points="28.1 22.35 26.7 19.55 26.7 25.15 28.1 22.35"/><polygon class="cls-15" points="23.12 17.38 20.32 18.77 25.92 18.77 23.12 17.38"/><rect class="cls-13" x="30.6" y="15.61" width="13.48" height="13.48"/><polygon class="cls-14" points="32.38 22.35 33.77 25.15 33.77 19.55 32.38 22.35"/><polygon class="cls-14" points="37.33 27.35 40.13 25.95 34.52 25.95 37.33 27.35"/><polygon class="cls-14" points="42.3 22.35 40.91 19.55 40.91 25.16 42.3 22.35"/><polygon class="cls-15" points="37.33 17.38 34.52 18.77 40.13 18.77 37.33 17.38"/><rect class="cls-13" x="44.85" y="15.62" width="13.48" height="13.48"/><polygon class="cls-14" points="46.62 22.36 48.02 25.16 48.02 19.55 46.62 22.36"/><polygon class="cls-14" points="51.57 27.36 54.38 25.96 48.77 25.96 51.57 27.36"/><polygon class="cls-14" points="56.55 22.36 55.16 19.56 55.16 25.16 56.55 22.36"/><polygon class="cls-15" points="51.57 17.39 48.77 18.78 54.38 18.78 51.57 17.39"/><rect class="cls-13" x="2.13" y="29.8" width="13.48" height="13.48"/><polygon class="cls-14" points="8.85 41.54 11.65 40.15 6.05 40.15 8.85 41.54"/><polygon class="cls-14" points="13.83 36.54 12.43 33.74 12.43 39.34 13.83 36.54"/><polygon class="cls-15" points="8.85 31.57 6.05 32.97 11.65 32.97 8.85 31.57"/><rect class="cls-13" x="16.39" y="29.82" width="13.48" height="13.48"/><polygon class="cls-14" points="18.17 36.55 19.56 39.36 19.56 33.75 18.17 36.55"/><polygon class="cls-14" points="23.12 41.55 25.92 40.16 20.32 40.16 23.12 41.55"/><polygon class="cls-14" points="28.1 36.56 26.7 33.76 26.7 39.36 28.1 36.56"/><polygon class="cls-15" points="23.12 31.59 20.32 32.98 25.92 32.98 23.12 31.59"/><rect class="cls-13" x="30.6" y="29.82" width="13.48" height="13.48"/><polygon class="cls-14" points="32.38 36.56 33.77 39.36 33.77 33.76 32.38 36.56"/><polygon class="cls-14" points="37.33 41.56 40.13 40.16 34.52 40.16 37.33 41.56"/><polygon class="cls-14" points="42.3 36.56 40.91 33.76 40.91 39.36 42.3 36.56"/><polygon class="cls-15" points="37.33 31.59 34.52 32.98 40.13 32.98 37.33 31.59"/><rect class="cls-13" x="44.85" y="29.83" width="13.48" height="13.48"/><polygon class="cls-14" points="46.62 36.56 48.02 39.37 48.02 33.76 46.62 36.56"/><polygon class="cls-14" points="51.57 41.56 54.38 40.17 48.77 40.17 51.57 41.56"/><polygon class="cls-14" points="56.55 36.57 55.16 33.77 55.16 39.37 56.55 36.57"/><polygon class="cls-15" points="51.57 31.59 48.77 32.99 54.38 32.99 51.57 31.59"/><rect class="cls-13" x="2.13" y="44.07" width="13.48" height="13.48"/><polygon class="cls-14" points="8.85 55.81 11.65 54.41 6.05 54.41 8.85 55.81"/><polygon class="cls-14" points="13.83 50.81 12.43 48.01 12.43 53.61 13.83 50.81"/><polygon class="cls-15" points="8.85 45.84 6.05 47.23 11.65 47.23 8.85 45.84"/><rect class="cls-13" x="16.39" y="44.09" width="13.48" height="13.48"/><polygon class="cls-15" points="18.17 50.82 19.56 53.63 19.56 48.02 18.17 50.82"/><polygon class="cls-14" points="23.12 55.82 25.92 54.43 20.32 54.43 23.12 55.82"/><polygon class="cls-14" points="28.1 50.83 26.7 48.02 26.7 53.63 28.1 50.83"/><polygon class="cls-14" points="23.12 45.85 20.32 47.25 25.92 47.25 23.12 45.85"/><rect class="cls-13" x="30.6" y="44.09" width="13.48" height="13.48"/><polygon class="cls-15" points="32.38 50.83 33.77 53.63 33.77 48.02 32.38 50.83"/><polygon class="cls-14" points="37.33 55.83 40.13 54.43 34.52 54.43 37.33 55.83"/><polygon class="cls-14" points="42.3 50.83 40.91 48.03 40.91 53.63 42.3 50.83"/><polygon class="cls-14" points="37.33 45.86 34.52 47.25 40.13 47.25 37.33 45.86"/><rect class="cls-13" x="44.85" y="44.09" width="13.48" height="13.48"/><polygon class="cls-15" points="46.62 50.83 48.02 53.63 48.02 48.03 46.62 50.83"/><polygon class="cls-14" points="51.57 55.83 54.38 54.44 48.77 54.44 51.57 55.83"/><polygon class="cls-14" points="56.55 50.84 55.16 48.03 55.16 53.64 56.55 50.84"/><polygon class="cls-14" points="51.57 45.86 48.77 47.26 54.38 47.26 51.57 45.86"/><rect class="cls-13" x="2.13" y="58.33" width="13.48" height="13.48"/><polygon class="cls-14" points="13.83 65.07 12.43 62.27 12.43 67.87 13.83 65.07"/><polygon class="cls-15" points="8.85 60.09 6.05 61.49 11.65 61.49 8.85 60.09"/><rect class="cls-13" x="16.39" y="58.34" width="13.48" height="13.48"/><polygon class="cls-15" points="18.17 65.08 19.56 67.88 19.56 62.28 18.17 65.08"/><polygon class="cls-14" points="28.1 65.08 26.7 62.28 26.7 67.89 28.1 65.08"/><polygon class="cls-14" points="23.12 60.11 20.32 61.51 25.92 61.51 23.12 60.11"/><rect class="cls-13" x="30.6" y="58.34" width="13.48" height="13.48"/><polygon class="cls-15" points="32.38 65.08 33.77 67.88 33.77 62.28 32.38 65.08"/><polygon class="cls-14" points="42.3 65.09 40.91 62.28 40.91 67.89 42.3 65.09"/><polygon class="cls-14" points="37.33 60.11 34.52 61.51 40.13 61.51 37.33 60.11"/><rect class="cls-13" x="44.85" y="58.35" width="13.48" height="13.48"/><polygon class="cls-15" points="46.62 65.09 48.02 67.89 48.02 62.29 46.62 65.09"/><polygon class="cls-14" points="56.55 65.09 55.16 62.29 55.16 67.89 56.55 65.09"/><polygon class="cls-14" points="51.57 60.12 48.77 61.51 54.38 61.51 51.57 60.12"/><rect class="cls-11" x="147.84" y="1.85" width="13.2" height="69.51"/><rect class="cls-12" x="134.3" y="2.33" width="11.48" height="11.48"/><rect class="cls-13" x="90.75" y="1.34" width="13.43" height="13.43"/><rect class="cls-13" x="104.97" y="1.36" width="13.43" height="13.43"/><rect class="cls-13" x="119.13" y="1.36" width="13.43" height="13.43"/><rect class="cls-13" x="90.75" y="15.56" width="13.43" height="13.43"/><rect class="cls-13" x="104.97" y="15.58" width="13.43" height="13.43"/><rect class="cls-13" x="119.13" y="15.58" width="13.43" height="13.43"/><rect class="cls-13" x="133.32" y="15.58" width="13.43" height="13.43"/><rect class="cls-13" x="90.75" y="29.72" width="13.43" height="13.43"/><rect class="cls-13" x="104.97" y="29.73" width="13.43" height="13.43"/><rect class="cls-13" x="119.13" y="29.74" width="13.43" height="13.43"/><rect class="cls-13" x="133.32" y="29.74" width="13.43" height="13.43"/><rect class="cls-13" x="90.75" y="43.94" width="13.43" height="13.43"/><rect class="cls-13" x="104.97" y="43.95" width="13.43" height="13.43"/><rect class="cls-13" x="119.13" y="43.95" width="13.43" height="13.43"/><rect class="cls-13" x="133.32" y="43.96" width="13.43" height="13.43"/><rect class="cls-13" x="90.75" y="58.14" width="13.43" height="13.43"/><rect class="cls-13" x="104.97" y="58.16" width="13.43" height="13.43"/><rect class="cls-13" x="119.13" y="58.16" width="13.43" height="13.43"/><rect class="cls-13" x="133.32" y="58.16" width="13.43" height="13.43"/><circle class="cls-16" cx="97.47" cy="8.06" r="4.25"/><circle class="cls-16" cx="111.68" cy="8.08" r="4.25"/><circle class="cls-12" cx="126.07" cy="8.08" r="4.25"/><circle class="cls-16" cx="97.38" cy="22.29" r="4.25"/><circle class="cls-17" cx="111.6" cy="22.31" r="4.25"/><circle class="cls-18" cx="125.98" cy="22.31" r="4.25"/><circle class="cls-16" cx="140.02" cy="22.28" r="4.25"/><circle class="cls-19" cx="97.38" cy="36.6" r="4.25"/><circle class="cls-20" cx="111.6" cy="36.62" r="4.25"/><circle class="cls-21" cx="125.98" cy="36.62" r="4.25"/><circle class="cls-16" cx="140.02" cy="36.59" r="4.25"/><circle class="cls-16" cx="97.38" cy="50.7" r="4.25"/><circle class="cls-19" cx="111.6" cy="50.65" r="4.25"/><circle class="cls-22" cx="125.98" cy="50.72" r="4.25"/><circle class="cls-16" cx="140.02" cy="50.69" r="4.25"/><circle class="cls-16" cx="97.38" cy="65.01" r="4.25"/><circle class="cls-23" cx="111.6" cy="65.32" r="4.25"/><circle class="cls-24" cx="125.98" cy="65.03" r="4.25"/><circle class="cls-11" cx="140.02" cy="65" r="4.25"/><rect class="cls-13" x="270.67" y="1.1" width="13.43" height="13.43"/><rect class="cls-13" x="284.88" y="1.12" width="13.43" height="13.43"/><rect class="cls-13" x="299.04" y="1.12" width="13.43" height="13.43"/><rect class="cls-13" x="270.67" y="15.32" width="13.43" height="13.43"/><rect class="cls-13" x="284.88" y="15.33" width="13.43" height="13.43"/><rect class="cls-13" x="299.04" y="15.34" width="13.43" height="13.43"/><rect class="cls-13" x="313.24" y="15.34" width="13.43" height="13.43"/><rect class="cls-13" x="270.67" y="29.48" width="13.43" height="13.43"/><rect class="cls-13" x="284.88" y="29.49" width="13.43" height="13.43"/><rect class="cls-13" x="299.04" y="29.49" width="13.43" height="13.43"/><rect class="cls-13" x="313.24" y="29.5" width="13.43" height="13.43"/><rect class="cls-13" x="270.67" y="43.69" width="13.43" height="13.43"/><rect class="cls-13" x="284.88" y="43.71" width="13.43" height="13.43"/><rect class="cls-13" x="299.04" y="43.71" width="13.43" height="13.43"/><rect class="cls-13" x="313.24" y="43.72" width="13.43" height="13.43"/><rect class="cls-13" x="270.67" y="57.9" width="13.43" height="13.43"/><rect class="cls-13" x="284.88" y="57.91" width="13.43" height="13.43"/><rect class="cls-13" x="299.04" y="57.92" width="13.43" height="13.43"/><rect class="cls-13" x="313.24" y="57.92" width="13.43" height="13.43"/><circle class="cls-16" cx="277.38" cy="7.82" r="4.25"/><circle class="cls-16" cx="291.6" cy="7.84" r="4.25"/><circle class="cls-16" cx="305.98" cy="7.84" r="4.25"/><circle class="cls-16" cx="277.3" cy="22.05" r="4.25"/><circle class="cls-16" cx="291.51" cy="22.07" r="4.25"/><circle class="cls-16" cx="305.9" cy="22.07" r="4.25"/><circle class="cls-16" cx="319.94" cy="22.03" r="4.25"/><circle class="cls-16" cx="277.3" cy="36.36" r="4.25"/><circle class="cls-16" cx="291.51" cy="36.38" r="4.25"/><circle class="cls-16" cx="305.9" cy="36.38" r="4.25"/><circle class="cls-16" cx="319.94" cy="36.35" r="4.25"/><circle class="cls-16" cx="277.3" cy="50.46" r="4.25"/><circle class="cls-16" cx="291.51" cy="50.41" r="4.25"/><circle class="cls-16" cx="305.9" cy="50.48" r="4.25"/><circle class="cls-16" cx="319.94" cy="50.45" r="4.25"/><circle class="cls-16" cx="277.3" cy="64.77" r="4.25"/><circle class="cls-16" cx="291.51" cy="65.07" r="4.25"/><circle class="cls-16" cx="305.9" cy="64.79" r="4.25"/><circle class="cls-16" cx="319.94" cy="64.76" r="4.25"/><polyline class="cls-25" points="277.3 36.36 305.9 36.36 305.9 50.48 291.51 50.41 291.51 22.07 305.9 22.07 305.98 7.84 319.95 7.83"/><line class="cls-25" x1="291.51" y1="65.07" x2="334.36" y2="65.07"/><rect class="cls-11" x="327.76" y="1.61" width="13.2" height="69.51"/><rect class="cls-12" x="314.21" y="2.09" width="11.48" height="11.48"/><rect class="cls-11" x="237.55" y="2.13" width="13.15" height="69.26"/><rect class="cls-12" x="224.06" y="2.61" width="11.44" height="11.44"/><rect class="cls-13" x="180.67" y="1.62" width="13.38" height="13.38"/><polygon class="cls-26" points="187.34 13.28 190.13 11.89 184.56 11.89 187.34 13.28"/><polygon class="cls-26" points="192.29 8.32 190.9 5.53 190.9 11.1 192.29 8.32"/><rect class="cls-13" x="194.83" y="1.64" width="13.38" height="13.38"/><polygon class="cls-27" points="196.59 8.33 197.98 11.11 197.98 5.55 196.59 8.33"/><polygon class="cls-27" points="201.51 13.29 204.29 11.91 198.73 11.91 201.51 13.29"/><polygon class="cls-27" points="206.45 8.33 205.07 5.55 205.07 11.11 206.45 8.33"/><rect class="cls-13" x="208.94" y="1.64" width="13.38" height="13.38"/><polygon class="cls-27" points="210.7 8.33 212.09 11.11 212.09 5.55 210.7 8.33"/><polygon class="cls-27" points="215.62 13.29 218.4 11.91 212.84 11.91 215.62 13.29"/><polygon class="cls-18" points="220.56 8.33 219.17 5.55 219.17 11.12 220.56 8.33"/><rect class="cls-13" x="180.67" y="15.79" width="13.38" height="13.38"/><polygon class="cls-27" points="187.34 27.45 190.13 26.06 184.56 26.06 187.34 27.45"/><polygon class="cls-27" points="192.29 22.48 190.9 19.7 190.9 25.27 192.29 22.48"/><polygon class="cls-27" points="187.34 17.55 184.56 18.93 190.13 18.93 187.34 17.55"/><rect class="cls-13" x="194.83" y="15.8" width="13.38" height="13.38"/><polygon class="cls-28" points="196.59 22.5 197.98 25.28 197.98 19.71 196.59 22.5"/><polygon class="cls-28" points="201.51 27.46 204.29 26.07 198.73 26.07 201.51 27.46"/><polygon class="cls-18" points="206.45 22.5 205.07 19.72 205.07 25.28 206.45 22.5"/><polygon class="cls-28" points="201.51 17.56 198.73 18.95 204.29 18.95 201.51 17.56"/><rect class="cls-13" x="208.94" y="15.81" width="13.38" height="13.38"/><polygon class="cls-28" points="210.7 22.5 212.09 25.28 212.09 19.72 210.7 22.5"/><polygon class="cls-28" points="215.62 27.46 218.4 26.08 212.84 26.08 215.62 27.46"/><polygon class="cls-28" points="220.56 22.5 219.17 19.72 219.17 25.28 220.56 22.5"/><polygon class="cls-28" points="215.62 17.56 212.84 18.95 218.4 18.95 215.62 17.56"/><rect class="cls-13" x="223.09" y="15.81" width="13.38" height="13.38"/><polygon class="cls-28" points="224.85 22.5 226.23 25.29 226.23 19.72 224.85 22.5"/><polygon class="cls-28" points="229.76 27.47 232.54 26.08 226.98 26.08 229.76 27.47"/><polygon class="cls-28" points="234.71 22.51 233.32 19.73 233.32 25.29 234.71 22.51"/><polygon class="cls-28" points="229.76 17.57 226.98 18.95 232.54 18.95 229.76 17.57"/><rect class="cls-13" x="180.67" y="29.9" width="13.38" height="13.38"/><polygon class="cls-27" points="187.34 41.55 190.13 40.17 184.56 40.17 187.34 41.55"/><polygon class="cls-18" points="192.29 36.59 190.9 33.81 190.9 39.37 192.29 36.59"/><polygon class="cls-27" points="187.34 31.65 184.56 33.04 190.13 33.04 187.34 31.65"/><rect class="cls-13" x="194.83" y="29.91" width="13.38" height="13.38"/><polygon class="cls-28" points="196.59 36.6 197.98 39.38 197.98 33.82 196.59 36.6"/><polygon class="cls-28" points="201.51 41.57 204.29 40.18 198.73 40.18 201.51 41.57"/><polygon class="cls-18" points="206.45 36.6 205.07 33.82 205.07 39.39 206.45 36.6"/><polygon class="cls-18" points="201.51 31.67 198.73 33.05 204.29 33.05 201.51 31.67"/><rect class="cls-13" x="208.94" y="29.91" width="13.38" height="13.38"/><polygon class="cls-28" points="210.7 36.6 212.09 39.39 212.09 33.82 210.7 36.6"/><polygon class="cls-18" points="215.62 41.57 218.4 40.18 212.84 40.18 215.62 41.57"/><polygon class="cls-28" points="220.56 36.61 219.17 33.83 219.17 39.39 220.56 36.61"/><polygon class="cls-28" points="215.62 31.67 212.84 33.05 218.4 33.05 215.62 31.67"/><rect class="cls-13" x="223.09" y="29.92" width="13.38" height="13.38"/><polygon class="cls-28" points="224.85 36.61 226.23 39.39 226.23 33.83 224.85 36.61"/><polygon class="cls-28" points="229.76 41.57 232.54 40.19 226.98 40.19 229.76 41.57"/><polygon class="cls-28" points="234.71 36.61 233.32 33.83 233.32 39.4 234.71 36.61"/><polygon class="cls-28" points="229.76 31.68 226.98 33.06 232.54 33.06 229.76 31.68"/><rect class="cls-13" x="180.67" y="44.06" width="13.38" height="13.38"/><polygon class="cls-27" points="187.34 55.72 190.13 54.33 184.56 54.33 187.34 55.72"/><polygon class="cls-27" points="192.29 50.76 190.9 47.98 190.9 53.54 192.29 50.76"/><polygon class="cls-27" points="187.34 45.82 184.56 47.2 190.13 47.2 187.34 45.82"/><rect class="cls-13" x="194.83" y="44.08" width="13.38" height="13.38"/><polygon class="cls-28" points="196.59 50.77 197.98 53.55 197.98 47.99 196.59 50.77"/><polygon class="cls-28" points="201.51 55.73 204.29 54.35 198.73 54.35 201.51 55.73"/><polygon class="cls-28" points="206.45 50.77 205.07 47.99 205.07 53.55 206.45 50.77"/><polygon class="cls-18" points="201.51 45.83 198.73 47.22 204.29 47.22 201.51 45.83"/><rect class="cls-13" x="208.94" y="44.08" width="13.38" height="13.38"/><polygon class="cls-18" points="210.7 50.77 212.09 53.55 212.09 47.99 210.7 50.77"/><polygon class="cls-28" points="215.62 55.74 218.4 54.35 212.84 54.35 215.62 55.74"/><polygon class="cls-28" points="220.56 50.77 219.17 47.99 219.17 53.56 220.56 50.77"/><polygon class="cls-28" points="215.62 45.84 212.84 47.22 218.4 47.22 215.62 45.84"/><rect class="cls-13" x="223.09" y="44.09" width="13.38" height="13.38"/><polygon class="cls-28" points="224.85 50.78 226.23 53.56 226.23 48 224.85 50.78"/><polygon class="cls-28" points="229.76 55.74 232.54 54.36 226.98 54.36 229.76 55.74"/><polygon class="cls-28" points="234.71 50.78 233.32 48 233.32 53.56 234.71 50.78"/><polygon class="cls-28" points="229.76 45.84 226.98 47.23 232.54 47.23 229.76 45.84"/><rect class="cls-13" x="180.67" y="58.22" width="13.38" height="13.38"/><polygon class="cls-26" points="192.29 64.91 190.9 62.13 190.9 67.69 192.29 64.91"/><polygon class="cls-26" points="187.34 59.97 184.56 61.36 190.13 61.36 187.34 59.97"/><rect class="cls-13" x="194.83" y="58.23" width="13.38" height="13.38"/><polygon class="cls-27" points="196.59 64.92 197.98 67.71 197.98 62.14 196.59 64.92"/><polygon class="cls-24" points="206.45 64.93 205.07 62.15 205.07 67.71 206.45 64.93"/><polygon class="cls-27" points="201.51 59.99 198.73 61.37 204.29 61.37 201.51 59.99"/><rect class="cls-13" x="208.94" y="58.24" width="13.38" height="13.38"/><polygon class="cls-27" points="210.7 64.93 212.09 67.71 212.09 62.15 210.7 64.93"/><polygon class="cls-24" points="220.56 64.93 219.17 62.15 219.17 67.71 220.56 64.93"/><polygon class="cls-27" points="215.62 59.99 212.84 61.38 218.4 61.38 215.62 59.99"/><rect class="cls-13" x="223.09" y="58.24" width="13.38" height="13.38"/><polygon class="cls-27" points="224.85 64.93 226.23 67.71 226.23 62.15 224.85 64.93"/><polygon class="cls-24" points="234.71 64.94 233.32 62.15 233.32 67.72 234.71 64.94"/><polygon class="cls-27" points="229.76 60 226.98 61.38 232.54 61.38 229.76 60"/><text class="cls-29" transform="translate(315.41 10.05)">+1</text><text class="cls-29" transform="translate(330.34 67.72)">-1</text></svg>