<svg id="Layer_1" data-name="Layer 1" xmlns="http://www.w3.org/2000/svg" viewBox="0 0 662.47982 122.8395">
  <defs>
    <style>
      .cls-1 {
        fill: #e7ebe8;
      }

      .cls-2 {
        fill: #70a8da;
        opacity: 0.5;
      }

      .cls-3 {
        fill: #ef4136;
      }

      .cls-4 {
        fill: #267ec1;
      }

      .cls-5 {
        fill: #fff;
      }

      .cls-6 {
        fill: #231f20;
      }

      .cls-7 {
        fill: #010101;
      }
    </style>
  </defs>
  <title>double-q-learning</title>
  <rect class="cls-1" x="202.21637" y="48.47404" width="74.08071" height="74.08071"/>
  <polygon class="cls-2" points="211.967 85.513 219.637 100.914 219.637 70.112 211.967 85.513"/>
  <polygon class="cls-3" points="239.182 112.996 254.583 105.326 223.781 105.326 239.182 112.996"/>
  <polygon class="cls-4" points="266.547 85.53 258.876 70.129 258.876 100.931 266.547 85.53"/>
  <polygon class="cls-2" points="239.182 58.191 223.781 65.862 254.583 65.862 239.182 58.191"/>
  <rect class="cls-1" x="1.13914" y="48.59862" width="73.94519" height="73.94519"/>
  <circle class="cls-2" cx="38.89392" cy="86.52271" r="23.42114"/>
  <rect class="cls-1" x="417.56952" y="48.62596" width="74.08071" height="74.08071"/>
  <polygon class="cls-5" points="427.32 85.665 434.99 101.066 434.99 70.264 427.32 85.665"/>
  <polygon class="cls-5" points="454.535 113.148 469.936 105.478 439.135 105.478 454.535 113.148"/>
  <polygon class="cls-5" points="481.9 85.682 474.229 70.281 474.229 101.083 481.9 85.682"/>
  <polygon class="cls-6" points="454.535 58.343 439.135 66.014 469.936 66.014 454.535 58.343"/>
  <path id="MJMAIN-22C5" class="cls-7" d="M383.12208,20.55641a2.24945,2.24945,0,0,1,.64546-1.59468,2.14941,2.14941,0,0,1,1.63265-.68344,2.32532,2.32532,0,0,1,1.59469.6075,2.19093,2.19093,0,0,1,.7214,1.63265,2.29517,2.29517,0,0,1-.64547,1.63265,2.14941,2.14941,0,0,1-1.63265.68343,2.21273,2.21273,0,0,1-1.63265-.64546A2.34782,2.34782,0,0,1,383.12208,20.55641Z"/>
  <g>
    <path id="MJMATHI-56" class="cls-7" d="M1.63633,8.4477A1.34688,1.34688,0,0,1,2.00654,7.451H2.3198q1.19609.08544,2.99019.08544,3.3604,0,3.95844-.08544h.28478q.17088.17086.17087.2563t-.057.51261a1.56849,1.56849,0,0,1-.25631.54108h-.598q-.62652.057-.85434.057-.82587.14238-.9113.42717,0,.057.82586,7.148t.85434,7.148l2.0789-3.33192q2.0789-3.33194,4.15778-6.72081t2.13585-3.5028a.84694.84694,0,0,0,.11392-.42717q0-.68346-1.253-.79738-.5126,0-.5126-.31326,0-.02847.057-.37021a1.53256,1.53256,0,0,1,.17086-.51261A.45212.45212,0,0,1,16.0462,7.451h.34173q.28479,0,.96826.02848t1.82259.02848q1.965,0,2.47759-.057h.19934q.19935.19935.19935.31326a1.742,1.742,0,0,1-.2563.9113.815.815,0,0,1-.48413.08543q-.37022.02848-.68347.057a2.11707,2.11707,0,0,0-.598.14239q-.28477.11391-.45565.19934a1.78348,1.78348,0,0,0-.34174.22783,1.59265,1.59265,0,0,1-.28478.19934.619.619,0,0,0-.22782.2563q-.11391.19935-.19935.19935l-5.49625,8.82818q-5.126,8.28709-5.29691,8.48645-.08542.057-.19934.14239l-.51261.02847H6.81933q-.51261,0-.51261-.19934-.08543-.17086-1.11064-9.113-1.08216-9.056-1.11064-9.14144Q3.943,8.761,2.3198,8.761H1.83568A.39452.39452,0,0,1,1.63633,8.4477Z"/>
    <g>
      <path id="MJMATHI-3C0" class="cls-7" d="M26.30751,15.39a.59633.59633,0,0,1-.68456-.66442v-.22147l.26174-.56375a39.01454,39.01454,0,0,0,2.1946-5.49657l.16108-.48321h-.64429a6.71233,6.71233,0,0,0-1.08723.0604,2.17823,2.17823,0,0,0-.78523.38254,2.63013,2.63013,0,0,0-.44294.36241,5.18742,5.18742,0,0,0-.38255.42282,2.48269,2.48269,0,0,0-.18121.2416,1.14738,1.14738,0,0,1-.302.02014q-.38254,0-.38255-.20134a2.43093,2.43093,0,0,1,.38255-.70469,6.84634,6.84634,0,0,1,1.10736-1.2483A2.73725,2.73725,0,0,1,26.95179,6.531q.14094-.04027,4.53014-.04027,3.22143,0,3.302.02013a.5497.5497,0,0,1,.40268.56375.8409.8409,0,0,1-.64429.84563,10.9203,10.9203,0,0,1-1.38924.04027H31.86448l-.06041.34227a15.11232,15.11232,0,0,0-.2416,2.39594,8.773,8.773,0,0,0,.1812,1.87246,7.27464,7.27464,0,0,0,.38255,1.28857,2.34817,2.34817,0,0,1,.20134.56375.93307.93307,0,0,1-.28188.64429.947.947,0,0,1-.72482.302.92781.92781,0,0,1-.36241-.0604q-.14094-.0604-.32214-.48322a5.81562,5.81562,0,0,1-.32215-1.208q-.02013-.18121-.02013-.8859a13.36223,13.36223,0,0,1,.1812-2.11406q.18121-1.12751.36241-1.85233l.20134-.80535H29.06586l-.02014.08053q0,.0604-.38254,1.59058t-.86576,3.24157a15.00523,15.00523,0,0,1-.62415,1.953A.84657.84657,0,0,1,26.30751,15.39Z"/>
      <path id="MJMAIN-2217" class="cls-7" d="M38.47263,3.79155q-.18512-1.908-.18511-2.13585,0-.2563.34173-.39869h.0712a.19831.19831,0,0,0,.08543-.01424.56858.56858,0,0,1,.31326.12815.35064.35064,0,0,1,.14239.28478q0,.24206-.08543,1.13912t-.09968.99673l.82587-.598q.79739-.5838.86858-.62652a.27477.27477,0,0,1,.14239-.04271.4984.4984,0,0,1,.34173.14239.5393.5393,0,0,1,.17087.38445.45019.45019,0,0,1-.14239.3275q-.07119.04272-.96825.46988t-.96825.45565l.93977.44141.99673.49837a.4435.4435,0,0,1,.12815.32749.51232.51232,0,0,1-.12815.356.48315.48315,0,0,1-.34174.15663.51066.51066,0,0,1-.2563-.08544q-.14238-.08543-.78314-.56956l-.82587-.598q.18511,1.908.18511,2.13585a.434.434,0,0,1-.09967.27054.59884.59884,0,0,1-.74043,0,.52126.52126,0,0,1-.11391-.27054q0-.24207.08543-1.13912t.09968-.99673l-.82587.598q-.79739.5838-.86858.62652a.23063.23063,0,0,1-.14239.04272.49844.49844,0,0,1-.34173-.14239.53934.53934,0,0,1-.17087-.38446V5.45751a.12306.12306,0,0,1,.04272-.08543.56529.56529,0,0,0,.07119-.08544.39417.39417,0,0,1,.12815-.09967q.09967-.057.18511-.09967t.27054-.12815q.18512-.08544.356-.15663t.45564-.21359l.56956-.28478-1.9365-.92553a.44353.44353,0,0,1-.12815-.3275.51232.51232,0,0,1,.12815-.356.48314.48314,0,0,1,.34174-.15662.51064.51064,0,0,1,.2563.08543q.1424.08544.78314.56956Z"/>
    </g>
    <path id="MJMAIN-28" class="cls-7" d="M49.87807,19.78195a23.42266,23.42266,0,0,1,.28478-3.73062,26.09944,26.09944,0,0,1,.655-3.04715,11.92475,11.92475,0,0,1,1.05369-2.50606q.68346-1.22456,1.08216-1.908a7.56366,7.56366,0,0,1,1.19608-1.48085q.79738-.79738.93977-.96826a5.13269,5.13269,0,0,1,.712-.598h.48413q.39868,0,.39869.2563a2.30134,2.30134,0,0,1-.48413.598,12.92839,12.92839,0,0,0-1.1676,1.50933,19.70475,19.70475,0,0,0-1.39542,2.44911,16.20147,16.20147,0,0,0-1.19607,3.93,28.74278,28.74278,0,0,0-.48413,5.49626,28.29569,28.29569,0,0,0,.48413,5.46777,18.49579,18.49579,0,0,0,1.16759,3.95845,12.897,12.897,0,0,0,1.39543,2.4491q.71195.93978,1.19607,1.50934a6.43158,6.43158,0,0,1,.48413.598q0,.25629-.42717.2563h-.45565l-.79738-.68347a14.05363,14.05363,0,0,1-3.90149-6.03734A23.28362,23.28362,0,0,1,49.87807,19.78195Z"/>
    <g>
      <path id="MJMATHI-73" class="cls-7" d="M62.03817,18.6713a4.22035,4.22035,0,0,1,.45565-1.85107,4.68522,4.68522,0,0,1,1.59477-1.73715,4.55011,4.55011,0,0,1,2.76237-.76891,3.59793,3.59793,0,0,1,2.563.76891,2.43993,2.43993,0,0,1,.82586,1.70868,1.696,1.696,0,0,1-.48413,1.33846,1.7253,1.7253,0,0,1-1.08216.45565,1.13746,1.13746,0,0,1-.68347-.22782.92136.92136,0,0,1-.34174-.74043,1.29228,1.29228,0,0,1,.2563-.79739,2.55817,2.55817,0,0,1,.48413-.5126.68917.68917,0,0,1,.37021-.17087.02517.02517,0,0,0,.02848-.02848q0-.08543-.19935-.2563a1.94519,1.94519,0,0,0-.712-.31326,5.0389,5.0389,0,0,0-1.11064-.17086,2.40873,2.40873,0,0,0-2.64845,2.24976,1.0295,1.0295,0,0,0,.54108.99673,5.906,5.906,0,0,0,1.56629.48412,6.241,6.241,0,0,1,1.48086.42717,2.81448,2.81448,0,0,1,1.87954,2.73389,4.33375,4.33375,0,0,1-.31325,1.59477,6.37017,6.37017,0,0,1-.93978,1.59477,4.11964,4.11964,0,0,1-1.79411,1.253,7.73282,7.73282,0,0,1-2.67694.48413,4.60643,4.60643,0,0,1-3.1041-.82586,2.63473,2.63473,0,0,1-.93977-1.93651,1.93673,1.93673,0,0,1,.598-1.59477,1.96637,1.96637,0,0,1,1.253-.48412,1.374,1.374,0,0,1,.79738.2563,1.06018,1.06018,0,0,1,.39869.88282,1.70444,1.70444,0,0,1-.5126,1.253,1.40249,1.40249,0,0,1-.88282.5126.21851.21851,0,0,1-.08543.02848q-.02849,0-.02848.057a.61564.61564,0,0,0,.22782.22782,3.97608,3.97608,0,0,0,.88282.37022,5.60121,5.60121,0,0,0,3.33193-.11392,2.44646,2.44646,0,0,0,1.08216-.79738,3.78037,3.78037,0,0,0,.48413-.88282,2.14788,2.14788,0,0,0,.14239-.712,1.34164,1.34164,0,0,0-.598-1.19608,3.02721,3.02721,0,0,0-1.36694-.48412,7.04848,7.04848,0,0,1-1.68021-.42717A2.63547,2.63547,0,0,1,62.5223,20.323,2.86651,2.86651,0,0,1,62.03817,18.6713Z"/>
      <g>
        <path id="MJMATHI-74" class="cls-7" d="M72.18722,23.42158q-.14094-.14094-.14094-.20134a1.69359,1.69359,0,0,1,.0604-.32215.82758.82758,0,0,1,.10067-.28187.173.173,0,0,1,.18121-.10067q.14094,0,1.02683-.02013h1.0671L74.865,20.8847q.06039-.22147.14093-.58388a4.31873,4.31873,0,0,1,.14094-.52349,3.78661,3.78661,0,0,0,.1208-.40268.73855.73855,0,0,1,.16108-.34227,1.91833,1.91833,0,0,0,.20134-.24161.45371.45371,0,0,1,.28187-.18121,1.66639,1.66639,0,0,1,.36241-.04026.6173.6173,0,0,1,.50335.22147.6746.6746,0,0,1,.14094.38254,7.65158,7.65158,0,0,1-.18121.9463q-.1812.80536-.40268,1.59058l-.20134.745a4.75736,4.75736,0,0,0,1.0067.04027H78.167q.14094.14092.14094.22147a.95228.95228,0,0,1-.26174.70469H75.89187L75.167,26.341q-.78522,3.22143-.78522,3.463,0,.84562.54362.84562a1.92422,1.92422,0,0,0,1.36911-.68455,5.12834,5.12834,0,0,0,1.0671-1.69125q.04026-.12081.10066-.14094a1.77437,1.77437,0,0,1,.302-.04027h.08054q.302,0,.302.16108a.98836.98836,0,0,1-.0604.2416,3.7887,3.7887,0,0,1-.36241.76509,7.15707,7.15707,0,0,1-.68456.9463,3.72275,3.72275,0,0,1-1.02683.84562,2.4653,2.4653,0,0,1-1.22817.34228,2.32868,2.32868,0,0,1-1.14764-.302,1.74439,1.74439,0,0,1-.78522-1.047,2.53169,2.53169,0,0,1-.04027-.54362v-.36241l.70469-2.81875q.70468-2.8389.72482-2.859a4.947,4.947,0,0,0-1.02683-.04027Z"/>
        <path id="MJMAIN-2B" class="cls-7" d="M80.05959,26.4014v-.26174a.43858.43858,0,0,1,.28188-.40268h6.02V22.71689l.02013-3.02009q.20135-.26175.38255-.26174a.44026.44026,0,0,1,.40268.302V25.737h5.99991a.41946.41946,0,0,1,0,.80536H87.16688v5.99992q-.16107.28187-.36241.28187h-.08054a.39031.39031,0,0,1-.36241-.28187V26.54234h-6.02a.43858.43858,0,0,1-.28188-.40268Z"/>
        <path id="MJMAIN-31" class="cls-7" d="M98.905,19.53573l-.26174.10067a5.77094,5.77094,0,0,1-.80536.20133,9.27854,9.27854,0,0,1-1.16777.14094h-.38254v-.92616h.38254a6.547,6.547,0,0,0,1.75165-.302,4.75477,4.75477,0,0,0,1.12751-.48321,5.16151,5.16151,0,0,0,.56375-.44295q.04026-.0604.2416-.0604a.56079.56079,0,0,1,.34228.1208v6.02L100.717,29.945a.79709.79709,0,0,0,.2416.1812,2.38771,2.38771,0,0,0,.48322.08054q.38254.04026,1.2483.04027h.52348v.92616h-.22147q-.4228-.0604-3.2013-.0604-2.7382,0-3.161.0604h-.2416V30.247H97.6768a4.83606,4.83606,0,0,0,.50335-.02014,1.97079,1.97079,0,0,0,.32214-.0604,1.20609,1.20609,0,0,1,.16107-.04027q.02014,0,.12081-.10067t.1208-.08053Z"/>
      </g>
    </g>
    <path id="MJMAIN-29" class="cls-7" d="M109.2547,5.57142l.11391-.02847h.62652l.79738.68347a14.05368,14.05368,0,0,1,3.90149,6.03733,23.28368,23.28368,0,0,1,1.22455,7.5182,23.773,23.773,0,0,1-.28478,3.73061,24.48414,24.48414,0,0,1-.655,3.04715,12.82639,12.82639,0,0,1-1.05369,2.50607q-.68346,1.253-1.08216,1.908a8.663,8.663,0,0,1-1.1676,1.45238q-.7689.79738-.91129.93977t-.655.54109l-.11391.11391h-.655a.16734.16734,0,0,1-.14239-.08544.67028.67028,0,0,1-.08544-.2563q.02849-.02847.31326-.37021,4.4141-4.585,4.41409-13.527t-4.41409-13.527q-.28477-.34175-.31326-.37022A.33472.33472,0,0,1,109.2547,5.57142Z"/>
    <path id="MJMATHI-42" class="cls-7" d="M22.13424,21.2341a5.588,5.588,0,0,1-.66646-.02083q-.10413-.02082-.10413-.22909,0-.56232.22909-.68728.02083-.02083,2.70748-.02083,5.39414,0,5.68571.04165a4.42273,4.42273,0,0,1,2.18682.93721A2.43225,2.43225,0,0,1,33.0683,23.171a3.13842,3.13842,0,0,1-1.208,2.39508,6.39436,6.39436,0,0,1-2.77,1.437l-.20827.06248a4.00758,4.00758,0,0,1,2.18682.958,2.54241,2.54241,0,0,1,.87472,1.91607,4.07516,4.07516,0,0,1-1.49953,2.93657,5.94126,5.94126,0,0,1-3.68634,1.60366q-.14579.02083-4.39445.02083-4.16535,0-4.22783-.04165a.19793.19793,0,0,1-.08331-.16662,1.05689,1.05689,0,0,1,.04165-.29157q.10413-.39572.20827-.43736a1.52678,1.52678,0,0,1,.3124-.02083h.125q.56232,0,1.24961-.06248a.55343.55343,0,0,0,.39571-.24992q.06248-.08331,1.49953-5.78985t1.437-6.01894Q23.32136,21.27575,22.13424,21.2341ZM30.83983,23.171a2.29493,2.29493,0,0,0-.3124-1.1663,1.50985,1.50985,0,0,0-1.02051-.70811q-.14579-.04165-1.91607-.06248h-.87472q-.45819,0-.72894.02083h-.27075a.41865.41865,0,0,0-.39571.20827q-.04164.08329-.66645,2.49921a.393.393,0,0,1-.02083.125l-.64563,2.62417h1.687q1.687,0,1.93689-.04165a3.99538,3.99538,0,0,0,2.22847-1.208A3.26336,3.26336,0,0,0,30.83983,23.171Zm-1.12465,6.56044a2.37058,2.37058,0,0,0-.479-1.52036,1.855,1.855,0,0,0-1.24961-.70811q-.125-.02082-1.72862-.02082-2.45756,0-2.47839.02082,0,.04165-.35405,1.52036t-.72894,2.93657l-.37488,1.45788q0,.08331.24992.0833t1.687.04166q1.85358,0,1.99937-.02083a4.001,4.001,0,0,0,2.37425-1.208A3.48149,3.48149,0,0,0,29.71518,29.73143Z"/>
  </g>
  <path id="MJMAIN-3D" class="cls-7" d="M151.019,16.54035a.73438.73438,0,0,1,.472-.67427h21.47537a.784.784,0,0,1,.5057.67427.76486.76486,0,0,1-.472.64055l-10.72083.03371H151.55842A.6682.6682,0,0,1,151.019,16.54035Zm0,6.54038a.66822.66822,0,0,1,.53942-.67427h21.44166q.472.33714.472.67427a.73717.73717,0,0,1-.5057.67427H151.491A.73438.73438,0,0,1,151.019,23.08073Z"/>
  <g>
    <path id="MJMATHI-51" class="cls-7" d="M212.21379,29.34956q0-.97211.02945-1.47289a2.90933,2.90933,0,0,1,.05892-.5597v-.11784l-.44187.11784a10.71637,10.71637,0,0,1-2.47447.324,7.22909,7.22909,0,0,1-7.42341-6.56912q-.02945-.23566-.02945-1.2667a12.18653,12.18653,0,0,1,1.414-5.71484A16.4989,16.4989,0,0,1,207.147,9.28869a11.49,11.49,0,0,1,7.335-3.03417q1.11941,0,1.414.02946a7.01324,7.01324,0,0,1,4.59544,2.53338,8.30552,8.30552,0,0,1,1.76748,5.36135,13.40335,13.40335,0,0,1-4.35978,9.66222,14.12807,14.12807,0,0,1-3.859,2.68067l-.50079.23566v.14729q0,.02946.14729.79537a2.31819,2.31819,0,0,0,.61862,1.23723,1.83412,1.83412,0,0,0,1.35507.47133,3.432,3.432,0,0,0,1.97368-.64807,2.997,2.997,0,0,0,1.23723-1.67911q.17676-.41241.383-.41241a.303.303,0,0,1,.324.26512,4.40642,4.40642,0,0,1-.29458,1.06049q-.29459.82482-.82483,1.94422a5.11384,5.11384,0,0,1-1.59073,1.91477,4.02,4.02,0,0,1-2.2388.85428q-2.41556,0-2.41555-3.152Zm6.98153-16.143a8.22289,8.22289,0,0,0-.44187-2.828,3.87233,3.87233,0,0,0-1.20777-1.79694,6.64183,6.64183,0,0,0-1.4729-.88374,4.021,4.021,0,0,0-1.56127-.29458,6.42644,6.42644,0,0,0-2.88688.73645,10.6059,10.6059,0,0,0-4.83111,5.1846A16.58837,16.58837,0,0,0,204.96713,20.63a6.084,6.084,0,0,0,1.59073,4.6249,2.76645,2.76645,0,0,0,.85428.61861v-.23566a3.08108,3.08108,0,0,1,.97211-2.17989,3.20237,3.20237,0,0,1,2.29772-1.031,2.38253,2.38253,0,0,1,1.26669.324,2.037,2.037,0,0,1,.79537.88374,4.84955,4.84955,0,0,1,.35349.94265q.08838.383.17675.79537l.383-.26512a10.90957,10.90957,0,0,0,3.21091-3.56442,16.08266,16.08266,0,0,0,1.8264-4.38923A17.24311,17.24311,0,0,0,219.19532,13.2066Zm-9.48546,13.25608a5.84706,5.84706,0,0,0,2.65121-.61861l-.02945-.29458q-.11784-1.62019-1.08995-1.94423a3.60581,3.60581,0,0,0-.5597-.05891h-.17675a.17059.17059,0,0,1-.11783-.02946,1.79416,1.79416,0,0,0-1.20778.58916,1.93043,1.93043,0,0,0-.64807,1.35506Q208.53154,26.46269,209.70986,26.46268Z"/>
    <g>
      <path id="MJMATHI-3C0-2" data-name="MJMATHI-3C0" class="cls-7" d="M226.51044,16.85282a.61685.61685,0,0,1-.70811-.68728v-.2291l.27075-.58315a40.35744,40.35744,0,0,0,2.27012-5.68571l.16661-.49984h-.66645a6.94279,6.94279,0,0,0-1.12465.06248,2.25308,2.25308,0,0,0-.81225.39571,2.7204,2.7204,0,0,0-.45818.37488,5.36638,5.36638,0,0,0-.39571.43736,2.56472,2.56472,0,0,0-.18744.24992,1.18722,1.18722,0,0,1-.31241.02083q-.3957,0-.3957-.20827a2.5146,2.5146,0,0,1,.3957-.72894,7.0822,7.0822,0,0,1,1.14548-1.29126,2.8314,2.8314,0,0,1,1.4787-.79141q.14579-.04166,4.686-.04166,3.3323,0,3.4156.02083a.5686.5686,0,0,1,.41653.58315.86982.86982,0,0,1-.66646.87472,11.294,11.294,0,0,1-1.437.04166h-1.33292l-.06248.354a15.63284,15.63284,0,0,0-.24992,2.47839,9.07474,9.07474,0,0,0,.18744,1.93689,7.525,7.525,0,0,0,.39571,1.33291,2.42855,2.42855,0,0,1,.20827.58315.96517.96517,0,0,1-.29158.66646.97959.97959,0,0,1-.74976.3124.95964.95964,0,0,1-.37488-.06248q-.14578-.06248-.33323-.49984a6.01623,6.01623,0,0,1-.33323-1.24961q-.02082-.18744-.02083-.91638a13.8218,13.8218,0,0,1,.18744-2.18681q.18745-1.16629.37489-1.91606l.20826-.83307h-2.041l-.02083.0833q0,.06249-.39571,1.64532t-.89555,3.35311a15.52049,15.52049,0,0,1-.64563,2.0202A.8757.8757,0,0,1,226.51044,16.85282Z"/>
      <path id="MJMAIN-2217-2" data-name="MJMAIN-2217" class="cls-7" d="M239.09418,4.85527q-.19149-1.97368-.19148-2.20935,0-.26512.35349-.41241h.07365a.2051.2051,0,0,0,.08837-.01473.5882.5882,0,0,1,.324.13256.36273.36273,0,0,1,.14729.29458q0,.2504-.08837,1.17832t-.10311,1.031l.85428-.61862q.82484-.60388.89847-.64807a.2842.2842,0,0,1,.14729-.04419.51559.51559,0,0,1,.3535.14729.5579.5579,0,0,1,.17675.39768.46569.46569,0,0,1-.14729.33877q-.07365.04419-1.00157.486t-1.00158.47133l.97212.4566,1.031.51551a.45879.45879,0,0,1,.13256.33877.53.53,0,0,1-.13256.36823.49975.49975,0,0,1-.3535.162.5282.5282,0,0,1-.26512-.08837q-.14728-.08838-.8101-.58916l-.85428-.61862q.19147,1.97368.19148,2.20935a.44891.44891,0,0,1-.1031.27985.61944.61944,0,0,1-.76591,0,.53924.53924,0,0,1-.11783-.27985q0-.25039.08837-1.17832t.10311-1.031l-.85429.61862q-.82482.60389-.89846.64808a.23865.23865,0,0,1-.14729.04418.51554.51554,0,0,1-.3535-.14729.5579.5579,0,0,1-.17675-.39768V6.57856a.12728.12728,0,0,1,.04419-.08837.58525.58525,0,0,0,.07365-.08838.40744.40744,0,0,1,.13256-.1031q.1031-.05892.19147-.1031t.27985-.13256q.19147-.08838.36823-.162t.47133-.22094l.58916-.29458-2.00315-.95738a.45879.45879,0,0,1-.13256-.33877.52991.52991,0,0,1,.13256-.36822.49976.49976,0,0,1,.3535-.162.5283.5283,0,0,1,.26512.08837q.14728.08838.81009.58916Z"/>
    </g>
    <path id="MJMATHI-42-2" data-name="MJMATHI-42" class="cls-7" d="M228.57621,23.14a5.59162,5.59162,0,0,1-.66646-.02082q-.10413-.02084-.10413-.2291,0-.56232.22909-.68728.02084-.02083,2.70749-.02083,5.39414,0,5.68571.04165a4.42273,4.42273,0,0,1,2.18681.93721,2.4322,2.4322,0,0,1,.89555,1.91606,3.13844,3.13844,0,0,1-1.20795,2.39508,6.39447,6.39447,0,0,1-2.77,1.437l-.20827.06248a4.00762,4.00762,0,0,1,2.18681.958,2.54241,2.54241,0,0,1,.87472,1.91607,4.07517,4.07517,0,0,1-1.49952,2.93657,5.94137,5.94137,0,0,1-3.68634,1.60367q-.1458.02082-4.39445.02082-4.16536,0-4.22784-.04165a.19793.19793,0,0,1-.08331-.16662,1.0569,1.0569,0,0,1,.04166-.29157q.10413-.39571.20826-.43736a1.5269,1.5269,0,0,1,.31241-.02083h.125q.56232,0,1.2496-.06248a.55338.55338,0,0,0,.39571-.24992q.06248-.08331,1.49953-5.78985t1.437-6.01894Q229.76334,23.18162,228.57621,23.14Zm8.70559,1.93689a2.29493,2.29493,0,0,0-.3124-1.1663,1.5098,1.5098,0,0,0-1.02051-.70811q-.14579-.04165-1.91606-.06248h-.87473q-.45819,0-.72893.02083h-.27075a.41864.41864,0,0,0-.39571.20827q-.04166.08331-.66646,2.49921a.393.393,0,0,1-.02083.125l-.64563,2.62418h1.687q1.687,0,1.93689-.04166a3.99526,3.99526,0,0,0,2.22847-1.208A3.26336,3.26336,0,0,0,237.2818,25.07686Zm-1.12464,6.56044a2.37055,2.37055,0,0,0-.479-1.52036,1.855,1.855,0,0,0-1.2496-.70811q-.125-.02082-1.72863-.02082-2.45755,0-2.47838.02082,0,.04166-.35406,1.52036t-.72894,2.93657l-.37488,1.45788q0,.08331.24992.08331t1.687.04165q1.85358,0,1.99937-.02083a4.001,4.001,0,0,0,2.37426-1.208A3.48153,3.48153,0,0,0,236.15716,31.6373Z"/>
    <path id="MJMAIN-28-2" data-name="MJMAIN-28" class="cls-7" d="M250.89209,19.62844a24.22914,24.22914,0,0,1,.29458-3.859,26.99976,26.99976,0,0,1,.67753-3.152,12.33487,12.33487,0,0,1,1.08995-2.5923q.707-1.26669,1.1194-1.97368a7.82433,7.82433,0,0,1,1.23723-1.53182q.82484-.82482.97212-1.00157a5.30867,5.30867,0,0,1,.73645-.61861h.50078q.41241,0,.41241.26512a2.3804,2.3804,0,0,1-.50078.61861A13.37378,13.37378,0,0,0,256.224,7.34447a20.38039,20.38039,0,0,0-1.44344,2.53338,16.75841,16.75841,0,0,0-1.23723,4.0652,29.73146,29.73146,0,0,0-.50079,5.68539,29.26921,29.26921,0,0,0,.50079,5.65593,19.13165,19.13165,0,0,0,1.20777,4.09465,13.34188,13.34188,0,0,0,1.44344,2.53339q.73645.9721,1.23724,1.56127a6.654,6.654,0,0,1,.50078.61862q0,.26511-.44187.26512h-.47132l-.82483-.707a14.53729,14.53729,0,0,1-4.03574-6.24509A24.08492,24.08492,0,0,1,250.89209,19.62844Z"/>
    <g>
      <path id="MJMATHI-73-2" data-name="MJMATHI-73" class="cls-7" d="M263.47064,18.47958a4.36544,4.36544,0,0,1,.47133-1.91477,4.84634,4.84634,0,0,1,1.64964-1.79694,4.70675,4.70675,0,0,1,2.85743-.79536,3.72177,3.72177,0,0,1,2.65121.79536,2.52389,2.52389,0,0,1,.85428,1.76748,1.75436,1.75436,0,0,1-.50078,1.38453,1.78476,1.78476,0,0,1-1.11941.47132,1.17662,1.17662,0,0,1-.707-.23566.95307.95307,0,0,1-.35349-.76591,1.33671,1.33671,0,0,1,.26512-.82482,2.64639,2.64639,0,0,1,.50079-.53024.71281.71281,0,0,1,.383-.17675.026.026,0,0,0,.02946-.02946q0-.08838-.20621-.26512a2.01207,2.01207,0,0,0-.73645-.324,5.21249,5.21249,0,0,0-1.14886-.17675,2.49164,2.49164,0,0,0-2.73959,2.32718,1.06493,1.06493,0,0,0,.5597,1.031,6.10928,6.10928,0,0,0,1.62019.50079,6.45514,6.45514,0,0,1,1.53181.44187,2.91132,2.91132,0,0,1,1.94423,2.828,4.48266,4.48266,0,0,1-.324,1.64965,6.58919,6.58919,0,0,1-.97211,1.64964,4.26151,4.26151,0,0,1-1.85585,1.29615,7.99891,7.99891,0,0,1-2.769.50079,4.76493,4.76493,0,0,1-3.21092-.85428,2.72539,2.72539,0,0,1-.97211-2.00315,2.00337,2.00337,0,0,1,.61862-1.64964,2.034,2.034,0,0,1,1.29615-.50079,1.42133,1.42133,0,0,1,.82482.26513,1.09666,1.09666,0,0,1,.41241.91319,1.76311,1.76311,0,0,1-.53024,1.29615,1.45078,1.45078,0,0,1-.9132.53025.22623.22623,0,0,1-.08837.02945q-.02946,0-.02946.05892a.63662.63662,0,0,0,.23566.23566,4.11233,4.11233,0,0,0,.9132.383,5.79392,5.79392,0,0,0,3.44658-.11784,2.53056,2.53056,0,0,0,1.1194-.82482,3.91054,3.91054,0,0,0,.50079-.91319,2.22206,2.22206,0,0,0,.14729-.73645,1.38779,1.38779,0,0,0-.61862-1.23724,3.13135,3.13135,0,0,0-1.414-.50078,7.291,7.291,0,0,1-1.738-.44187,2.72615,2.72615,0,0,1-1.38453-1.031A2.96521,2.96521,0,0,1,263.47064,18.47958Z"/>
      <g>
        <path id="MJMATHI-74-2" data-name="MJMATHI-74" class="cls-7" d="M273.96893,23.39331q-.14579-.14579-.14579-.20827a1.75137,1.75137,0,0,1,.06248-.33322.8558.8558,0,0,1,.10413-.29158.17889.17889,0,0,1,.18744-.10413q.1458,0,1.06217-.02083h1.10382l.39571-1.66614q.06247-.2291.14579-.604a4.46779,4.46779,0,0,1,.14578-.5415,3.91731,3.91731,0,0,0,.125-.41653.76417.76417,0,0,1,.16662-.35406,1.9838,1.9838,0,0,0,.20827-.24992.46931.46931,0,0,1,.29157-.18744,1.72333,1.72333,0,0,1,.37488-.04165.63856.63856,0,0,1,.52067.22909.69785.69785,0,0,1,.14579.39571,7.91575,7.91575,0,0,1-.18744.97886q-.18744.83307-.41654,1.64532l-.20826.77059a4.9207,4.9207,0,0,0,1.04133.04165h1.06217q.14578.14579.14579.22909a.985.985,0,0,1-.27075.72894H277.801l-.74976,3.01988q-.81225,3.3323-.81224,3.58221,0,.87473.56232.87473a1.99044,1.99044,0,0,0,1.41622-.70811,5.30467,5.30467,0,0,0,1.10382-1.74945q.04165-.125.10413-.14579a1.83421,1.83421,0,0,1,.31241-.04166h.0833q.3124,0,.3124.16662a1.0222,1.0222,0,0,1-.06248.24992,3.9182,3.9182,0,0,1-.37488.79142,7.40307,7.40307,0,0,1-.70811.97886,3.851,3.851,0,0,1-1.06216.87472,2.55019,2.55019,0,0,1-1.27044.35406,2.40875,2.40875,0,0,1-1.18712-.31241,1.80434,1.80434,0,0,1-.81225-1.083,2.61842,2.61842,0,0,1-.04165-.56232v-.37488l.72893-2.91575q.72894-2.93658.74977-2.9574a5.11747,5.11747,0,0,0-1.06217-.04166Z"/>
        <path id="MJMAIN-2B-2" data-name="MJMAIN-2B" class="cls-7" d="M282.1122,26.47568v-.27075a.45367.45367,0,0,1,.29157-.41654H288.631v-3.124l.02083-3.124q.20826-.27075.39571-.27075a.45539.45539,0,0,1,.41653.3124v6.20638h6.20638a.43389.43389,0,0,1,0,.83307h-6.20638v6.20638q-.16662.29158-.37488.29158h-.08331a.40373.40373,0,0,1-.37488-.29158V26.62146h-6.22721a.45366.45366,0,0,1-.29157-.41653Z"/>
        <path id="MJMAIN-31-2" data-name="MJMAIN-31" class="cls-7" d="M301.60606,19.37374l-.27074.10414a5.96971,5.96971,0,0,1-.83308.20826,9.59868,9.59868,0,0,1-1.20795.14579h-.39571v-.958h.39571a6.77286,6.77286,0,0,0,1.81193-.3124,4.91845,4.91845,0,0,0,1.1663-.49984,5.3389,5.3389,0,0,0,.58315-.45819q.04166-.06249.24992-.06248a.58007.58007,0,0,1,.35406.125v6.2272l.02082,6.248a.82482.82482,0,0,0,.24993.18744,2.46958,2.46958,0,0,0,.49984.08331q.3957.04165,1.29126.04165h.54149v.958h-.22909q-.43736-.06247-3.31146-.06248-2.83244,0-3.2698.06248h-.24992v-.958h1.33291a5.00022,5.00022,0,0,0,.52067-.02083,2.03876,2.03876,0,0,0,.33323-.06248,1.24772,1.24772,0,0,1,.16661-.04165q.02084,0,.125-.10413t.125-.08331Z"/>
      </g>
    </g>
    <path id="MJMAIN-2C" class="cls-7" d="M312.84218,25.9619v-.73645a1.84211,1.84211,0,0,1,.47133-1.26669,1.6101,1.6101,0,0,1,1.26669-.53025,1.92563,1.92563,0,0,1,1.4729.73645,4.06681,4.06681,0,0,1,.67754,2.5923,7.57874,7.57874,0,0,1-.26513,2.00315,9.15863,9.15863,0,0,1-.61861,1.6791,6.3889,6.3889,0,0,1-.76591,1.20778q-.41241.50078-.707.79536t-.383.26512q-.11783,0-.38295-.26512t-.26512-.383q0-.11784.324-.47133t.73645-.88374a5.65328,5.65328,0,0,0,.7659-1.4729,8.461,8.461,0,0,0,.47133-2.15043v-.35349l-.02946.02945a1.14224,1.14224,0,0,1-.14729.05892.74377.74377,0,0,0-.17674.08837.48207.48207,0,0,1-.26513.05892,2.14654,2.14654,0,0,0-.35349.02946,1.75378,1.75378,0,0,1-1.29615-.50079Z"/>
    <path id="MJMATHI-61" class="cls-7" d="M324.62537,22.368a8.70518,8.70518,0,0,1,2.2388-5.65593,6.59205,6.59205,0,0,1,5.03732-2.71013,3.33955,3.33955,0,0,1,2.65121,1.44344,1.474,1.474,0,0,1,1.35507-.88374,1.054,1.054,0,0,1,.67753.23566.72542.72542,0,0,1,.29458.58916q0,.38295-1.08994,4.71327t-1.11941,4.89a1.576,1.576,0,0,0,.20621.97211.86535.86535,0,0,0,.61862.26512,1.28,1.28,0,0,0,.58916-.26512,6.67967,6.67967,0,0,0,1.20777-2.828q.17675-.58915.29458-.61861a.86159.86159,0,0,1,.29458-.02946h.11783q.55971,0,.55971.26512a4.67928,4.67928,0,0,1-.14729.79537,9.24233,9.24233,0,0,1-.58916,1.59073,5.01848,5.01848,0,0,1-.94266,1.47289,2.91268,2.91268,0,0,1-.94265.61862,3.14037,3.14037,0,0,1-.707.05892,3.011,3.011,0,0,1-1.67911-.44187,2.26152,2.26152,0,0,1-.88374-.9132l-.17674-.44187q-.02946-.02946-.11784.02946l-.11783.11783A5.16468,5.16468,0,0,1,328.72,27.28751a4.02033,4.02033,0,0,1-2.85743-1.17832A4.96389,4.96389,0,0,1,324.62537,22.368Zm9.36763-5.03731a2.66685,2.66685,0,0,0-.14729-.64808,2.80076,2.80076,0,0,0-.67753-1.031,1.883,1.883,0,0,0-1.35507-.58916,2.82687,2.82687,0,0,0-1.97368.9132,6.16384,6.16384,0,0,0-1.4729,2.38609,23.5183,23.5183,0,0,0-1.20778,4.83111v.324a1.57079,1.57079,0,0,1-.02945.35349,2.474,2.474,0,0,0,.53024,1.8264,1.89721,1.89721,0,0,0,1.26669.53024,3.32641,3.32641,0,0,0,2.20935-.97211,4.9534,4.9534,0,0,0,1.29615-1.50236q.05892-.11782.79536-3.152T333.993,17.33072Z"/>
    <path id="MJMAIN-29-2" data-name="MJMAIN-29" class="cls-7" d="M341.03345,4.92891l.11784-.02945h.64807l.82482.707a14.53727,14.53727,0,0,1,4.03575,6.24508,24.08493,24.08493,0,0,1,1.26669,7.77691,24.5928,24.5928,0,0,1-.29458,3.859,25.3269,25.3269,0,0,1-.67754,3.152,13.26744,13.26744,0,0,1-1.08994,2.5923q-.707,1.29615-1.1194,1.97369a8.96143,8.96143,0,0,1-1.20778,1.50235q-.79536.82482-.94265.97211t-.67754.55971l-.11783.11783h-.67753a.1731.1731,0,0,1-.14729-.08838.69341.69341,0,0,1-.08838-.26512q.02946-.02946.324-.383,4.566-4.74273,4.566-13.99253T341.2102,5.6359q-.29457-.35349-.324-.383A.34625.34625,0,0,1,341.03345,4.92891Z"/>
  </g>
  <g>
    <path id="MJMAIN-61" class="cls-7" d="M420.89753,18.16384h-.63769a1.45725,1.45725,0,0,1-1.07249-.43479,1.52925,1.52925,0,0,1-.43479-1.13046,2.26656,2.26656,0,0,1,.98553-1.79714,7.44048,7.44048,0,0,1,6.92767.14493,4.48889,4.48889,0,0,1,1.73917,2.20295,2.65607,2.65607,0,0,1,.14493.89857q0,.49277.029,3.3334v2.029a8.3486,8.3486,0,0,0,.14493,1.91308.60637.60637,0,0,0,.60871.52175.5745.5745,0,0,0,.57972-.46378,5.71892,5.71892,0,0,0,.14493-1.53626v-1.0435h1.15944v1.13046a9.11983,9.11983,0,0,1-.087,1.36234,2.4032,2.4032,0,0,1-1.01451,1.36235,3.06484,3.06484,0,0,1-1.59424.52175,1.70408,1.70408,0,0,1-1.36234-.52175,2.7774,2.7774,0,0,1-.69567-1.21742v-.11594l-.058.087a1.15187,1.15187,0,0,1-.14493.17391q-.087.087-.23189.26088a1.84571,1.84571,0,0,1-.34783.31885q-.20291.14493-.4348.34783a1.80307,1.80307,0,0,1-.52175.31885q-.28986.11593-.63769.23189a4.30832,4.30832,0,0,1-.75364.17391q-.4058.058-.89857.087a5.64569,5.64569,0,0,1-3.1305-.89857,2.84063,2.84063,0,0,1-1.39133-2.52179,3.32705,3.32705,0,0,1,.2029-1.15944,3.79093,3.79093,0,0,1,.78263-1.18843,5.14108,5.14108,0,0,1,1.39133-1.07249,10.564,10.564,0,0,1,2.26092-.81161,14.6052,14.6052,0,0,1,3.18847-.43479h.4058v-.6377a4.43612,4.43612,0,0,0-.17391-1.4493,2.68479,2.68479,0,0,0-2.81165-2.058q-.52176,0-.98553.029a2.97557,2.97557,0,0,0-.72465.11595.9523.9523,0,0,0-.23189.08695,1.44529,1.44529,0,0,1,.63769,1.27539,1.42292,1.42292,0,0,1-.46378,1.13046Zm-.31885,5.76824a2.19319,2.19319,0,0,0,.69567,1.59423,2.4286,2.4286,0,0,0,1.71018.72465,3.03647,3.03647,0,0,0,1.94207-.66668,3.23522,3.23522,0,0,0,1.13046-1.73916,15.94109,15.94109,0,0,0,.087-1.91308q0-1.6812-.029-1.6812-.23188,0-.60871.029a9.27717,9.27717,0,0,0-1.30437.26087,9.51754,9.51754,0,0,0-1.6812.57972,3.68357,3.68357,0,0,0-1.33336,1.07249A2.83315,2.83315,0,0,0,420.57868,23.93208Z"/>
    <path id="MJMAIN-72" class="cls-7" d="M432.463,25.67124h.40581q1.13046,0,1.36235-.4058v-.89857q0-.40581.029-.89857a10.98065,10.98065,0,0,0,0-1.13046q-.029-.6377,0-1.21742V17.49716l-.029-.66668a.92735.92735,0,0,0-.40581-.72465A3.89134,3.89134,0,0,0,432.521,15.845h-.52175v-.66668q0-.66667.058-.66668l.28986-.029q.28986-.029.81161-.058l1.0435-.058q.46378-.029,1.01451-.058a6.27209,6.27209,0,0,0,.8406-.087q.28986-.058.31885-.029h.087v2a3.27,3.27,0,0,1,2.81165-1.97106h.17391a2.53859,2.53859,0,0,1,1.91309.6377,1.92331,1.92331,0,0,1,.60871,1.33336,1.53977,1.53977,0,0,1-.37682,1.0435,1.37843,1.37843,0,0,1-1.10148.43479,1.25358,1.25358,0,0,1-1.07248-.46378,1.78594,1.78594,0,0,1-.37682-.98553,1.69089,1.69089,0,0,1,.058-.46377,1.44911,1.44911,0,0,1,.14493-.34784l.087-.14493q-.058-.058-.66668.11595a3.378,3.378,0,0,0-.69567.43479q-1.36235,1.30437-1.36234,5.18851V24.077a4.80744,4.80744,0,0,0,.029.57972,1.63541,1.63541,0,0,1,0,.43479v.14493a.45432.45432,0,0,0,.087.11595.36389.36389,0,0,0,.14493.087.3639.3639,0,0,1,.14493.087.28286.28286,0,0,0,.2029.058.49756.49756,0,0,1,.20291.029.71986.71986,0,0,0,.26087.029h.26088q.058,0,.28986.029a.6679.6679,0,0,0,.28986,0h.89857V27.0046h-.26088q-.52175-.087-3.68123-.087a27.22171,27.22171,0,0,0-3.24644.087h-.23189V25.67124Z"/>
    <path id="MJMAIN-67" class="cls-7" d="M452.34745,15.14929a3.99519,3.99519,0,0,1,2.89861-1.27539,1.40058,1.40058,0,0,1,1.2464.55074,1.94016,1.94016,0,0,1,.37682,1.10147,1.11326,1.11326,0,0,1-.26087.72465.952.952,0,0,1-.78263.31885A.941.941,0,0,1,454.7533,15.7a.83714.83714,0,0,1,.087-.6087.22255.22255,0,0,1,.029-.087v-.029a3.05161,3.05161,0,0,0-1.53626.6377q-.2319.14493-.23189.2029,0,.029.11594.14493a2.011,2.011,0,0,1,.26088.34783q.14493.23188.31884.52175a2.2877,2.2877,0,0,1,.26088.75364,7.61127,7.61127,0,0,1,.11594.95654,3.9,3.9,0,0,1-1.42031,3.04354,5.24363,5.24363,0,0,1-3.50732,1.27539,5.72982,5.72982,0,0,1-2.86963-.81161,2.07921,2.07921,0,0,0-.31884,1.10147,1.67626,1.67626,0,0,0,.75363,1.50728.89827.89827,0,0,0,.49277.17392q.23188,0,2.087.058a21.4266,21.4266,0,0,1,3.1305.17391A5.12472,5.12472,0,0,1,455.304,26.251a3.85218,3.85218,0,0,1,1.13046,2.84064,3.26535,3.26535,0,0,1-2.26092,2.98557,9.94268,9.94268,0,0,1-8.261,0q-2.26092-1.01451-2.26092-2.89861a2.54573,2.54573,0,0,1,.60871-1.73917,3.52278,3.52278,0,0,1,1.21741-.95654l.31885-.17391a3.04737,3.04737,0,0,1-1.0435-2.43484,3.96128,3.96128,0,0,1,.8406-2.46381,3.96491,3.96491,0,0,1-1.27539-2.86963,3.89763,3.89763,0,0,1,1.4493-3.07253,5.43768,5.43768,0,0,1,6.261-.52175Zm-.86958,1.91308a1.97552,1.97552,0,0,0-.75364-1.27539,2.5563,2.5563,0,0,0-1.50728-.49276,2.32213,2.32213,0,0,0-1.4493.46378,1.99489,1.99489,0,0,0-.75364,1.30437,9.23141,9.23141,0,0,0-.087,1.47829,6.422,6.422,0,0,0,.2029,1.8841,1.89906,1.89906,0,0,0,.86958,1.01451,2.4283,2.4283,0,0,0,1.24641.28986,2.73387,2.73387,0,0,0,1.10147-.2029,1.44458,1.44458,0,0,0,.66668-.52175,4.51985,4.51985,0,0,0,.31885-.57972,1.88991,1.88991,0,0,0,.14493-.43479,8.66305,8.66305,0,0,0,.087-1.44931A9.2326,9.2326,0,0,0,451.47787,17.06237Zm3.01455,12.11619a1.73892,1.73892,0,0,0-.4058-1.18843,2.29392,2.29392,0,0,0-1.18843-.66668,8.94342,8.94342,0,0,0-1.42032-.26087q-.6377-.058-1.56525-.058H449.13a8.322,8.322,0,0,0-2.31889.17392,1.92853,1.92853,0,0,0-.89856.81161,2.526,2.526,0,0,0-.34784,1.15944,1.62656,1.62656,0,0,0,.17392.66669,3.79448,3.79448,0,0,0,.60871.86958,3.15327,3.15327,0,0,0,1.39133.81161,7.92353,7.92353,0,0,0,2.31889.34783,5.7109,5.7109,0,0,0,3.21746-.81161A2.2716,2.2716,0,0,0,454.49242,29.17856Z"/>
    <path id="MJMAIN-6D" class="cls-7" d="M458.4925,25.67124h.40581q1.13046,0,1.36235-.4058V23.4683q0-.49276.029-1.13046t0-1.21742V19.20734q0-1.01451-.029-1.71018v-.66668a.92738.92738,0,0,0-.40581-.72465,3.89134,3.89134,0,0,0-1.30437-.26088h-.52175v-.66668q0-.66667.058-.66668l.28986-.029q.28986-.029.81161-.058t1.07249-.058q.49275-.029,1.0435-.058a6.27209,6.27209,0,0,0,.84059-.087q.28986-.058.31885-.029h.087v1.15944a7.877,7.877,0,0,0,.029,1.10147q.029,0,.14493-.14493l.34784-.43479a2.83633,2.83633,0,0,1,.55073-.52175q.31885-.23189.8406-.55074a3.92994,3.92994,0,0,1,1.10147-.46377,6.24819,6.24819,0,0,1,1.47829-.14493,5.34484,5.34484,0,0,1,.81161.058,3.04309,3.04309,0,0,1,.66668.17392q.28986.11594.55074.23188a1.84945,1.84945,0,0,1,.43479.26088,2.48446,2.48446,0,0,1,.31885.31885q.14493.17391.26087.31884a1.78987,1.78987,0,0,1,.20291.31885,1.491,1.491,0,0,1,.11594.28986,1.13253,1.13253,0,0,0,.087.23189l.058.14493.087-.11594.17392-.23189q.087-.11595.26087-.31885a3.46973,3.46973,0,0,1,.37682-.37682q.2029-.17391.43479-.37682a2.098,2.098,0,0,1,.57972-.34783q.34784-.14493.66668-.28986a2.67482,2.67482,0,0,1,.75364-.20291q.43479-.058.89857-.08695,3.65224,0,3.9711,3.27543.029.20289.029,4.02906v2.49281a7.70533,7.70533,0,0,0,.058,1.30437.44288.44288,0,0,0,.31884.28986,10.16888,10.16888,0,0,0,1.42032.087h.46378V27.0046h-.23189l-.66668-.029q-.69567-.029-1.47829-.029t-1.10147-.029a27.22208,27.22208,0,0,0-3.24645.087H474.087V25.67124h.46377q1.76816,0,1.76816-.46378.029-.058.029-4.00008-.029-3.91313-.058-4.145a2.39426,2.39426,0,0,0-.57972-1.21742,1.85636,1.85636,0,0,0-.69567-.49276,2.20564,2.20564,0,0,0-.75364-.058,3.141,3.141,0,0,0-2.2899.98553,3.50012,3.50012,0,0,0-.98553,1.59423,11.50864,11.50864,0,0,0-.23189,2.40585V23.8741q0,.8696.029,1.15945a.96075.96075,0,0,0,.087.37682.59963.59963,0,0,0,.26087.17391,10.16888,10.16888,0,0,0,1.42032.087h.46378V27.0046h-.23189l-.69567-.029q-.66667-.029-1.4493-.029t-1.10147-.029a27.22208,27.22208,0,0,0-3.24645.087h-.23188V25.67124h.46377q1.76815,0,1.76816-.46378.029-.058.029-4.00008-.029-3.91313-.058-4.145a2.39426,2.39426,0,0,0-.57972-1.21742,1.85636,1.85636,0,0,0-.69567-.49276,2.20564,2.20564,0,0,0-.75364-.058,3.141,3.141,0,0,0-2.2899.98553,3.50012,3.50012,0,0,0-.98553,1.59423,11.50864,11.50864,0,0,0-.23189,2.40585V23.8741q0,.8696.029,1.15945a.96075.96075,0,0,0,.087.37682.59956.59956,0,0,0,.26087.17391,10.16888,10.16888,0,0,0,1.42032.087h.46378V27.0046h-.23189l-.66668-.029q-.69567-.029-1.47829-.029t-1.10147-.029a27.22208,27.22208,0,0,0-3.24645.087h-.23188V25.67124Z"/>
    <path id="MJMAIN-61-2" data-name="MJMAIN-61" class="cls-7" d="M485.44958,18.16384h-.6377a1.45723,1.45723,0,0,1-1.07248-.43479,1.52925,1.52925,0,0,1-.43479-1.13046,2.26657,2.26657,0,0,1,.98552-1.79714,7.4405,7.4405,0,0,1,6.92768.14493,4.48889,4.48889,0,0,1,1.73917,2.20295,2.65607,2.65607,0,0,1,.14493.89857q0,.49277.029,3.3334v2.029a8.34785,8.34785,0,0,0,.14494,1.91308.60637.60637,0,0,0,.6087.52175.57452.57452,0,0,0,.57973-.46378,5.71892,5.71892,0,0,0,.14493-1.53626v-1.0435h1.15944v1.13046a9.11983,9.11983,0,0,1-.087,1.36234,2.40325,2.40325,0,0,1-1.01451,1.36235,3.06484,3.06484,0,0,1-1.59424.52175,1.70407,1.70407,0,0,1-1.36234-.52175,2.7773,2.7773,0,0,1-.69567-1.21742v-.11594l-.058.087a1.15187,1.15187,0,0,1-.14493.17391q-.087.087-.23189.26088a1.84547,1.84547,0,0,1-.34784.31885q-.20289.14493-.43479.34783a1.8032,1.8032,0,0,1-.52175.31885q-.28986.11593-.63769.23189a4.30832,4.30832,0,0,1-.75364.17391q-.40581.058-.89857.087a5.64569,5.64569,0,0,1-3.1305-.89857,2.84063,2.84063,0,0,1-1.39133-2.52179,3.32682,3.32682,0,0,1,.2029-1.15944,3.79093,3.79093,0,0,1,.78263-1.18843,5.14108,5.14108,0,0,1,1.39133-1.07249,10.56376,10.56376,0,0,1,2.26092-.81161,14.6052,14.6052,0,0,1,3.18847-.43479h.4058v-.6377a4.43612,4.43612,0,0,0-.17391-1.4493,2.6848,2.6848,0,0,0-2.81166-2.058q-.52174,0-.98552.029a2.97575,2.97575,0,0,0-.72466.11595.95289.95289,0,0,0-.23189.08695,1.44529,1.44529,0,0,1,.6377,1.27539,1.42292,1.42292,0,0,1-.46378,1.13046Zm-.31885,5.76824a2.19319,2.19319,0,0,0,.69567,1.59423,2.42856,2.42856,0,0,0,1.71018.72465,3.03647,3.03647,0,0,0,1.94207-.66668,3.23526,3.23526,0,0,0,1.13045-1.73916,15.93737,15.93737,0,0,0,.087-1.91308q0-1.6812-.029-1.6812-.2319,0-.60871.029a9.27723,9.27723,0,0,0-1.30438.26087,9.51743,9.51743,0,0,0-1.68119.57972,3.68348,3.68348,0,0,0-1.33336,1.07249A2.83309,2.83309,0,0,0,485.13073,23.93208Z"/>
    <path id="MJMAIN-78" class="cls-7" d="M501.79774,27.0046a23.14848,23.14848,0,0,0-2.86962-.087,16.56153,16.56153,0,0,0-2.46382.087h-.17392V25.67124h.40581a5.77157,5.77157,0,0,0,1.21741-.17391,7.6408,7.6408,0,0,0,.8406-.26088,2.8121,2.8121,0,0,0,.72465-.49276,3.07639,3.07639,0,0,0,.52175-.52175,8.95342,8.95342,0,0,1,.60871-.75364,3.21823,3.21823,0,0,0,.57972-.81161l1.33336-1.73917-1.68119-2.26091q-.26088-.37683-.55074-.78263t-.46378-.60871a3.5932,3.5932,0,0,1-.31884-.43479,2.011,2.011,0,0,0-.26088-.34783,1.40529,1.40529,0,0,1-.17391-.2029.62859.62859,0,0,0-.20291-.17392.63554.63554,0,0,0-.17391-.087.807.807,0,0,1-.17392-.058.66806.66806,0,0,0-.23189-.058q-.17391,0-1.0435-.058h-.81161V14.51159h.2029q1.04351.058,2.98557.058,2.69571,0,2.98557-.058h.23189V15.845q-1.04351.11595-1.0435.46378a2.03519,2.03519,0,0,0,.28986.46378q.28986.40581.81161,1.10147t.8406,1.18843l.11594.116.72465-.98553a3.92077,3.92077,0,0,0,.92756-1.56525.851.851,0,0,0-.058-.31885.424.424,0,0,0-.14493-.2029.95015.95015,0,0,1-.14493-.116.62234.62234,0,0,0-.20291-.11594l-.087-.029h-.14493V14.51159h.2029a24.5837,24.5837,0,0,0,2.86962.087,15.39033,15.39033,0,0,0,2.46382-.087h.17392V15.845h-.20291a4.97471,4.97471,0,0,0-2.34787.49277,3.1834,3.1834,0,0,0-.98553.78262q-.49277.55074-1.88409,2.43484l-.46378.6087,1.79714,2.46382q1.91308,2.60875,2.058,2.7247a1.341,1.341,0,0,0,.49276.2029,7.6019,7.6019,0,0,0,1.53627.11594h.49276V27.0046h-.4058a4.80774,4.80774,0,0,0-.57973-.029q-.34784,0-.72465-.029a4.53544,4.53544,0,0,0-.72465,0,1.39083,1.39083,0,0,1-.52175-.029h-1.07249q-.75363,0-1.4493.058l-.66668.029h-.26088V25.67124h.087a1.52982,1.52982,0,0,0,.6377-.14493q.31884-.14493.31884-.34783,0-.058-1.15944-1.65221L503.21806,21.932q-.029.029-.89857,1.21741t-.98553,1.30438a.63407.63407,0,0,0-.11594.4058.80877.80877,0,0,0,.2029.55074.75823.75823,0,0,0,.52175.26087q.058,0,.058.66668v.66668Z"/>
    <path id="MJMATHI-61-2" data-name="MJMATHI-61" class="cls-7" d="M459.3473,43.19038a6.05594,6.05594,0,0,1,1.55749-3.93469,4.58593,4.58593,0,0,1,3.50433-1.88537,2.32326,2.32326,0,0,1,1.84438,1.00416,1.02543,1.02543,0,0,1,.94269-.61479.73326.73326,0,0,1,.47134.16394.50467.50467,0,0,1,.20493.40987q0,.2664-.75824,3.27891t-.77874,3.40186a1.09633,1.09633,0,0,0,.14345.67628.60205.60205,0,0,0,.43036.18444.8906.8906,0,0,0,.40986-.18444,4.647,4.647,0,0,0,.84022-1.96735q.123-.40986.20493-.43035a.59918.59918,0,0,1,.20493-.0205h.082q.38937,0,.38937.18444a3.25528,3.25528,0,0,1-.10247.55332,6.42931,6.42931,0,0,1-.40986,1.10663,3.49147,3.49147,0,0,1-.65579,1.02466,2.02626,2.02626,0,0,1-.65578.43035,2.18432,2.18432,0,0,1-.49183.041,2.09471,2.09471,0,0,1-1.16811-.3074,1.57329,1.57329,0,0,1-.6148-.63529l-.123-.30739q-.02049-.0205-.082.02049l-.082.082a3.593,3.593,0,0,1-2.45918,1.14762A2.79679,2.79679,0,0,1,460.208,45.793,3.45323,3.45323,0,0,1,459.3473,43.19038Zm6.51683-3.50433a1.855,1.855,0,0,0-.10246-.45085,1.94841,1.94841,0,0,0-.47134-.71726,1.31,1.31,0,0,0-.94269-.40987,1.96661,1.96661,0,0,0-1.373.63529,4.288,4.288,0,0,0-1.02466,1.65995,16.3604,16.3604,0,0,0-.84022,3.36088v.22542a1.09185,1.09185,0,0,1-.0205.24592,1.72108,1.72108,0,0,0,.36888,1.27058,1.31989,1.31989,0,0,0,.88121.36888,2.3141,2.3141,0,0,0,1.537-.67628,3.44615,3.44615,0,0,0,.9017-1.04515q.041-.082.55331-2.19277T465.86413,39.68605Z"/>
    <g>
      <path id="MJMATHI-51-2" data-name="MJMATHI-51" class="cls-7" d="M527.68233,29.32349q0-.95653.029-1.4493a2.86279,2.86279,0,0,1,.058-.55074v-.11594l-.4348.11594a10.54409,10.54409,0,0,1-2.43483.31885,7.11331,7.11331,0,0,1-7.3045-6.4639q-.029-.2319-.029-1.24641a11.99146,11.99146,0,0,1,1.39133-5.6233A16.23466,16.23466,0,0,1,522.69672,9.584a11.30589,11.30589,0,0,1,7.21754-2.98557q1.10146,0,1.39133.029a6.90092,6.90092,0,0,1,4.52183,2.49281,8.17248,8.17248,0,0,1,1.73917,5.27547,13.18865,13.18865,0,0,1-4.28994,9.50744,13.902,13.902,0,0,1-3.79718,2.63774l-.49277.23188v.14493q0,.029.14493.78263a2.28106,2.28106,0,0,0,.60871,1.21742,1.80476,1.80476,0,0,0,1.33336.46377,3.377,3.377,0,0,0,1.94207-.63769,2.94905,2.94905,0,0,0,1.21742-1.65221q.17391-.40581.37682-.4058a.29811.29811,0,0,1,.31884.26087,4.33553,4.33553,0,0,1-.28986,1.0435q-.28986.8116-.81161,1.91308a5.03191,5.03191,0,0,1-1.56525,1.8841,3.95561,3.95561,0,0,1-2.20294.8406q-2.37687,0-2.37686-3.10152Zm6.8697-15.88438a8.09125,8.09125,0,0,0-.43479-2.78267,3.81028,3.81028,0,0,0-1.18843-1.76815,6.53514,6.53514,0,0,0-1.4493-.86958,3.95647,3.95647,0,0,0-1.53627-.28986,6.32357,6.32357,0,0,0-2.84063.72465,10.436,10.436,0,0,0-4.75372,5.10155,16.32261,16.32261,0,0,0-1.79714,7.18856,5.98651,5.98651,0,0,0,1.56525,4.55081,2.72223,2.72223,0,0,0,.84059.60871v-.23189a3.03175,3.03175,0,0,1,.95654-2.145,3.15105,3.15105,0,0,1,2.26092-1.01451,2.34438,2.34438,0,0,1,1.2464.31884,2.00432,2.00432,0,0,1,.78263.86959,4.77265,4.77265,0,0,1,.34783.92755q.087.37683.17392.78263l.37682-.26088a10.73473,10.73473,0,0,0,3.15948-3.50732,15.82511,15.82511,0,0,0,1.79714-4.31892A16.9666,16.9666,0,0,0,534.552,13.43911Zm-9.33352,13.04374a5.75349,5.75349,0,0,0,2.60875-.6087l-.029-.28987q-.11593-1.59423-1.07248-1.91308a3.54833,3.54833,0,0,0-.55074-.058h-.17392a.16781.16781,0,0,1-.11594-.029,1.76539,1.76539,0,0,0-1.18843.57973,1.89946,1.89946,0,0,0-.63769,1.33336Q524.05907,26.48285,525.21851,26.48285Z"/>
      <g>
        <path id="MJMATHI-3C0-3" data-name="MJMATHI-3C0" class="cls-7" d="M541.75,17.02692a.607.607,0,0,1-.69677-.67627v-.22543l.26641-.57381a39.71014,39.71014,0,0,0,2.23376-5.59463l.16394-.49184h-.65578a6.83185,6.83185,0,0,0-1.10663.06148,2.21708,2.21708,0,0,0-.79923.38937,2.676,2.676,0,0,0-.45085.36888,5.27777,5.27777,0,0,0-.38937.43035,2.52419,2.52419,0,0,0-.18444.24592,1.16868,1.16868,0,0,1-.3074.02049q-.38937,0-.38937-.20493a2.47425,2.47425,0,0,1,.38937-.71726,6.969,6.969,0,0,1,1.12712-1.27058,2.78615,2.78615,0,0,1,1.455-.77874q.14346-.041,4.611-.041,3.27891,0,3.36088.02049a.5595.5595,0,0,1,.40987.57381.8559.8559,0,0,1-.65578.86071,11.1127,11.1127,0,0,1-1.414.041h-1.31157l-.06147.34838a15.38144,15.38144,0,0,0-.24592,2.43869,8.92927,8.92927,0,0,0,.18444,1.90587,7.40388,7.40388,0,0,0,.38937,1.31156,2.38974,2.38974,0,0,1,.20493.57381.94973.94973,0,0,1-.28691.65578.96392.96392,0,0,1-.73775.3074.94456.94456,0,0,1-.36888-.06148q-.14344-.06148-.32789-.49184a5.91948,5.91948,0,0,1-.32789-1.22959q-.02049-.18444-.02049-.9017a13.60018,13.60018,0,0,1,.18444-2.15178q.18442-1.14762.36887-1.88537l.20493-.81973h-2.00833l-.02049.082q0,.06148-.38937,1.619t-.88121,3.2994a15.273,15.273,0,0,1-.63528,1.98784A.86169.86169,0,0,1,541.75,17.02692Z"/>
        <path id="MJMAIN-2217-3" data-name="MJMAIN-2217" class="cls-7" d="M554.13215,5.22155q-.18842-1.94206-.18841-2.174,0-.26088.34783-.40581h.07246a.20188.20188,0,0,0,.087-.01449.57872.57872,0,0,1,.31885.13044.35691.35691,0,0,1,.14493.28986q0,.24638-.087,1.15944t-.10145,1.01452l.8406-.60871q.8116-.59421.88407-.63769a.2796.2796,0,0,1,.14493-.04348.50733.50733,0,0,1,.34784.14493.54894.54894,0,0,1,.17391.39131.45821.45821,0,0,1-.14493.33334q-.07246.04349-.98552.47827t-.98553.46378l.95654.44928,1.01451.50726a.45141.45141,0,0,1,.13044.33334.52143.52143,0,0,1-.13044.36233.49172.49172,0,0,1-.34783.15942.51979.51979,0,0,1-.26087-.087q-.14493-.087-.79712-.57972l-.8406-.60871q.18842,1.94207.18841,2.174a.44173.44173,0,0,1-.10145.27537.60954.60954,0,0,1-.75364,0,.53058.53058,0,0,1-.11594-.27537q0-.24639.087-1.15945t.10146-1.01451l-.8406.60871q-.81162.59421-.88408.63769a.23475.23475,0,0,1-.14493.04348.50731.50731,0,0,1-.34783-.14493.549.549,0,0,1-.17392-.39131V6.91723a.12528.12528,0,0,1,.04348-.08695.5765.5765,0,0,0,.07247-.087.401.401,0,0,1,.13043-.10145q.10146-.058.18841-.10145T552.451,6.41q.18841-.087.36233-.15943t.46378-.21739l.57972-.28986-1.97106-.942a.4514.4514,0,0,1-.13043-.33334.52142.52142,0,0,1,.13043-.36233.49176.49176,0,0,1,.34784-.15942.51982.51982,0,0,1,.26087.087q.14493.087.79712.57972Z"/>
      </g>
      <path id="MJMATHI-41" class="cls-7" d="M543.31132,35.4273q0,.49183.94268.57381.36888,0,.36888.22542,0,.02049-.041.26641a1.10255,1.10255,0,0,1-.123.36888.32533.32533,0,0,1-.26641.082h-.24592q-.20493,0-.69676-.02049t-1.31157-.02049q-1.455,0-1.86488.041h-.16394q-.14346-.14344-.14345-.22542a.95374.95374,0,0,1,.26641-.71726h.2869a2.48657,2.48657,0,0,0,2.09031-1.02466q.123-.123,3.70926-6.25042t3.64779-6.20943a.5223.5223,0,0,1,.49183-.24592h.51233a1.11213,1.11213,0,0,1,.123.20493l.57381,6.6193q.57381,6.61929.61479,6.68077.10246.22543,1.33206.22543.51232,0,.51233.20493a2.1774,2.1774,0,0,1-.06148.2869,1.43816,1.43816,0,0,1-.10247.36888q-.041.06148-.2869.082h-.2869q-.22544,0-.79924-.02049t-1.496-.02049q-1.92636,0-2.52066.041h-.24592q-.123-.123-.123-.18444t.041-.36887a1.672,1.672,0,0,1,.123-.32789l.082-.06148H548.66q1.10664-.06148,1.31157-.34839l-.24592-3.074H544.8483l-.69676,1.1886A6.69137,6.69137,0,0,0,543.31132,35.4273Zm6.31189-3.81173q0-.22544-.24591-3.19694t-.28691-2.992l-.55331.88121q-.3279.55331-1.29107,2.19276l-1.84439,3.115,2.1108.02049Q549.62321,31.63606,549.62321,31.61557Z"/>
    </g>
    <path id="MJMAIN-28-3" data-name="MJMAIN-28" class="cls-7" d="M565.77007,19.75808a23.84143,23.84143,0,0,1,.28986-3.79718,26.56406,26.56406,0,0,1,.66668-3.10151,12.137,12.137,0,0,1,1.07248-2.55078q.69567-1.24641,1.10147-1.94207A7.69924,7.69924,0,0,1,570.118,6.85926q.8116-.8116.95654-.98552a5.22344,5.22344,0,0,1,.72465-.60871h.49277q.40581,0,.4058.26087a2.342,2.342,0,0,1-.49276.60871,13.15972,13.15972,0,0,0-1.18843,1.53626,20.05393,20.05393,0,0,0-1.42032,2.49281,16.49057,16.49057,0,0,0-1.21742,4.00008,29.25625,29.25625,0,0,0-.49276,5.59432,28.80125,28.80125,0,0,0,.49276,5.56533,18.82571,18.82571,0,0,0,1.18843,4.02907,13.12777,13.12777,0,0,0,1.42032,2.4928q.72465.95655,1.21742,1.53627a6.54811,6.54811,0,0,1,.49276.6087q0,.26088-.43479.26088h-.46378l-.81161-.69567a14.3043,14.3043,0,0,1-3.97109-6.145A23.699,23.699,0,0,1,565.77007,19.75808Z"/>
    <g>
      <path id="MJMATHI-73-3" data-name="MJMATHI-73" class="cls-7" d="M578.11814,18.62762a4.29566,4.29566,0,0,1,.46378-1.8841,4.76876,4.76876,0,0,1,1.62322-1.76815,4.63134,4.63134,0,0,1,2.81166-.78262,3.66212,3.66212,0,0,1,2.60874.78262,2.48339,2.48339,0,0,1,.8406,1.73917,1.72621,1.72621,0,0,1-.49276,1.36234,1.75611,1.75611,0,0,1-1.10147.46378,1.15771,1.15771,0,0,1-.69567-.23189.93775.93775,0,0,1-.34783-.75364,1.31532,1.31532,0,0,1,.26087-.81161,2.604,2.604,0,0,1,.49277-.52175.70146.70146,0,0,1,.37681-.17391.02563.02563,0,0,0,.029-.029q0-.087-.2029-.26087a1.97982,1.97982,0,0,0-.72465-.31885,5.12927,5.12927,0,0,0-1.13046-.17392,2.45173,2.45173,0,0,0-2.69571,2.2899,1.04787,1.04787,0,0,0,.55074,1.01452,6.01152,6.01152,0,0,0,1.59423.49276,6.35222,6.35222,0,0,1,1.50728.43479,2.8647,2.8647,0,0,1,1.91308,2.78267,4.41078,4.41078,0,0,1-.31885,1.62322,6.48365,6.48365,0,0,1-.95654,1.62322A4.19308,4.19308,0,0,1,582.698,26.8017a7.87058,7.87058,0,0,1-2.72469.49276,4.68859,4.68859,0,0,1-3.15949-.84059,2.68173,2.68173,0,0,1-.95654-1.97106,1.97129,1.97129,0,0,1,.60871-1.62322,2.00144,2.00144,0,0,1,1.27539-.49276,1.39864,1.39864,0,0,1,.81161.26087,1.07911,1.07911,0,0,1,.4058.89857,1.73487,1.73487,0,0,1-.52175,1.27539,1.42752,1.42752,0,0,1-.89857.52175.22255.22255,0,0,1-.087.029q-.029,0-.029.058a.62645.62645,0,0,0,.23189.23189,4.04723,4.04723,0,0,0,.89857.37682,5.70107,5.70107,0,0,0,3.39137-.11595,2.49008,2.49008,0,0,0,1.10147-.81161,3.84832,3.84832,0,0,0,.49277-.89857,2.18635,2.18635,0,0,0,.14493-.72465,1.36557,1.36557,0,0,0-.60871-1.21742,3.08136,3.08136,0,0,0-1.39133-.49276,7.17358,7.17358,0,0,1-1.71018-.43479,2.68244,2.68244,0,0,1-1.36235-1.01452A2.91764,2.91764,0,0,1,578.11814,18.62762Z"/>
      <g>
        <path id="MJMATHI-74-3" data-name="MJMATHI-74" class="cls-7" d="M588.44827,23.46265q-.14346-.14346-.14345-.20494a1.72291,1.72291,0,0,1,.06148-.32789.84213.84213,0,0,1,.10246-.2869.176.176,0,0,1,.18444-.10247q.14346,0,1.04515-.02049h1.08614l.38937-1.63945q.06148-.22544.14345-.59431a4.39618,4.39618,0,0,1,.14346-.53282,3.85925,3.85925,0,0,0,.123-.40986.75176.75176,0,0,1,.16394-.34839,1.95145,1.95145,0,0,0,.20493-.24591.46177.46177,0,0,1,.28691-.18444,1.6954,1.6954,0,0,1,.36887-.041.62829.62829,0,0,1,.51233.22543.68661.68661,0,0,1,.14346.38937,7.7892,7.7892,0,0,1-.18444.96318q-.18444.81972-.40987,1.619l-.20493.75824a4.84111,4.84111,0,0,0,1.02466.041h1.04515q.14346.14344.14345.22543a.96924.96924,0,0,1-.26641.71726H592.219l-.73775,2.97151q-.79923,3.27891-.79923,3.52482,0,.86071.55331.86072a1.95856,1.95856,0,0,0,1.39354-.69677A5.21967,5.21967,0,0,0,593.715,28.4015q.041-.123.10246-.14345a1.8048,1.8048,0,0,1,.3074-.041h.082q.3074,0,.3074.16395a1.006,1.006,0,0,1-.06148.24592,3.85563,3.85563,0,0,1-.36888.77874,7.28415,7.28415,0,0,1-.69677.96318,3.78921,3.78921,0,0,1-1.04515.86071,2.50928,2.50928,0,0,1-1.25008.34838,2.37021,2.37021,0,0,1-1.16811-.30739,1.77556,1.77556,0,0,1-.79924-1.06565,2.57691,2.57691,0,0,1-.041-.55332v-.36887l.71726-2.86905q.71725-2.88952.73775-2.91a5.03662,5.03662,0,0,0-1.04515-.041Z"/>
        <path id="MJMAIN-2B-3" data-name="MJMAIN-2B" class="cls-7" d="M596.4611,26.49564v-.26642a.44642.44642,0,0,1,.2869-.40986h6.12746v-3.074l.0205-3.074q.20493-.26642.38937-.26641a.44809.44809,0,0,1,.40986.3074v6.107h6.107a.42695.42695,0,0,1,0,.81973h-6.107v6.107q-.164.28691-.36888.28691h-.082a.39728.39728,0,0,1-.36888-.28691v-6.107H596.748a.44642.44642,0,0,1-.2869-.40987Z"/>
        <path id="MJMAIN-31-3" data-name="MJMAIN-31" class="cls-7" d="M615.64271,19.50746l-.26641.10247a5.8735,5.8735,0,0,1-.81973.20493,9.44558,9.44558,0,0,1-1.1886.14345h-.38937v-.94268h.38937a6.66456,6.66456,0,0,0,1.78291-.3074,4.83935,4.83935,0,0,0,1.14761-.49184,5.25125,5.25125,0,0,0,.57381-.45085q.041-.06147.24592-.06148a.57077.57077,0,0,1,.34838.123v6.12746l.0205,6.14795a.81122.81122,0,0,0,.24592.18444,2.43,2.43,0,0,0,.49183.082q.38937.041,1.27058.041h.53282v.94269h-.22542q-.43036-.06148-3.25842-.06148-2.78707,0-3.21743.06148h-.24592v-.94269h1.31157a4.9226,4.9226,0,0,0,.51233-.02049,2.007,2.007,0,0,0,.32789-.06148,1.22913,1.22913,0,0,1,.16394-.041q.0205,0,.123-.10246t.123-.082Z"/>
      </g>
    </g>
    <path id="MJMAIN-2C-2" data-name="MJMAIN-2C" class="cls-7" d="M626.72784,25.99009v-.72465a1.81268,1.81268,0,0,1,.46377-1.24641,1.58435,1.58435,0,0,1,1.24641-.52175,1.89478,1.89478,0,0,1,1.4493.72466,4.00161,4.00161,0,0,1,.66668,2.55077,7.45762,7.45762,0,0,1-.26087,1.97106,9.0124,9.0124,0,0,1-.60871,1.65221,6.28633,6.28633,0,0,1-.75364,1.18843q-.40581.49276-.69567.78262t-.37682.26088q-.11594,0-.37681-.26088t-.26088-.37682q0-.11594.31885-.46377t.72465-.86959a5.56278,5.56278,0,0,0,.75364-1.4493,8.3262,8.3262,0,0,0,.46378-2.116v-.34783l-.029.029a1.12479,1.12479,0,0,1-.14493.058.73192.73192,0,0,0-.17392.08695.47431.47431,0,0,1-.26087.058,2.11267,2.11267,0,0,0-.34783.029,1.72572,1.72572,0,0,1-1.27539-.49276Z"/>
    <path id="MJMATHI-61-3" data-name="MJMATHI-61" class="cls-7" d="M638.32228,22.45379a8.56573,8.56573,0,0,1,2.20294-5.56534,6.4865,6.4865,0,0,1,4.95662-2.66672,3.28608,3.28608,0,0,1,2.60875,1.42032,1.45038,1.45038,0,0,1,1.33336-.86958,1.03706,1.03706,0,0,1,.66668.23189.71378.71378,0,0,1,.28987.57972q0,.37682-1.07249,4.63778t-1.10147,4.81169a1.5507,1.5507,0,0,0,.2029.95654.85147.85147,0,0,0,.60871.26087,1.25937,1.25937,0,0,0,.57972-.26087,6.57262,6.57262,0,0,0,1.18843-2.78267q.17393-.57972.28986-.6087a.84765.84765,0,0,1,.28986-.029h.11595q.55072,0,.55073.26087a4.60381,4.60381,0,0,1-.14493.78263,9.09391,9.09391,0,0,1-.57972,1.56525,4.93821,4.93821,0,0,1-.92755,1.4493,2.866,2.866,0,0,1-.92756.60871,3.09013,3.09013,0,0,1-.69567.058,2.96277,2.96277,0,0,1-1.6522-.43479,2.22527,2.22527,0,0,1-.86959-.89857l-.17391-.43479q-.029-.029-.11595.029l-.11594.11594a5.082,5.082,0,0,1-3.47833,1.62322,3.9559,3.9559,0,0,1-2.81166-1.15944A4.88436,4.88436,0,0,1,638.32228,22.45379Zm9.21758-4.95663a2.624,2.624,0,0,0-.14493-.63769,2.75588,2.75588,0,0,0-.66668-1.01452,1.85291,1.85291,0,0,0-1.33336-.57972,2.78162,2.78162,0,0,0-1.94207.89857,6.06517,6.06517,0,0,0-1.44931,2.34788,23.14076,23.14076,0,0,0-1.18843,4.75372v.31884a1.54547,1.54547,0,0,1-.029.34784,2.43429,2.43429,0,0,0,.52175,1.79713,1.86676,1.86676,0,0,0,1.2464.52175,3.27309,3.27309,0,0,0,2.174-.95654,4.87375,4.87375,0,0,0,1.27538-1.47829q.058-.11594.78263-3.10151T647.53986,17.49716Z"/>
    <path id="MJMAIN-29-3" data-name="MJMAIN-29" class="cls-7" d="M654.46754,5.294l.11594-.029h.63769l.81162.69566a14.30439,14.30439,0,0,1,3.97109,6.14506,23.69888,23.69888,0,0,1,1.2464,7.65233,24.19831,24.19831,0,0,1-.28986,3.79718,24.92075,24.92075,0,0,1-.66668,3.10151,13.05553,13.05553,0,0,1-1.07248,2.55078q-.69567,1.27539-1.10148,1.94207a8.81749,8.81749,0,0,1-1.18843,1.47829q-.78262.81161-.92755.95654t-.66668.55073l-.11595.116h-.66668a.17034.17034,0,0,1-.14493-.087.68243.68243,0,0,1-.087-.26087q.029-.029.31884-.37682,4.49284-4.66677,4.49285-13.7684t-4.49285-13.7684q-.28986-.34783-.31884-.37682A.3407.3407,0,0,1,654.46754,5.294Z"/>
  </g>
</svg>
