<svg id="Layer_1" data-name="Layer 1" xmlns="http://www.w3.org/2000/svg" viewBox="0 0 564.932 114.45457">
  <defs>
    <style>
      .cls-1 {
        fill: #e7ebe8;
      }

      .cls-2, .cls-5 {
        fill: #70a8da;
      }

      .cls-2, .cls-4 {
        opacity: 0.5;
      }

      .cls-3, .cls-4 {
        fill: #ef4136;
      }

      .cls-6 {
        fill: #010101;
      }

      .cls-7 {
        fill: #58595b;
      }

      .cls-8 {
        fill: #fff;
      }

      .cls-9 {
        fill: #b2b3c3;
      }
    </style>
  </defs>
  <title>expected-sarsa</title>
  <rect class="cls-1" x="201.51769" y="39.92169" width="74.08071" height="74.08071"/>
  <polygon class="cls-2" points="211.268 76.961 218.938 92.361 218.938 61.56 211.268 76.961"/>
  <polygon class="cls-3" points="238.483 104.444 253.884 96.773 223.083 96.773 238.483 104.444"/>
  <polygon class="cls-4" points="265.848 76.978 258.178 61.577 258.178 92.378 265.848 76.978"/>
  <polygon class="cls-5" points="238.483 49.639 223.083 57.31 253.884 57.31 238.483 49.639"/>
  <rect class="cls-1" x="0.44045" y="40.04627" width="73.94519" height="73.94519"/>
  <circle class="cls-2" cx="38.19524" cy="77.97035" r="23.42114"/>
  <g>
    <path id="MJMATHI-56" class="cls-6" d="M.67458,3.674a1.365,1.365,0,0,1,.3752-1.01013h.31747q1.21215.08658,3.03039.08658,3.4056,0,4.01167-.08658h.28861q.17318.17316.17317.25974t-.05772.5195a1.59,1.59,0,0,1-.25975.54836H7.94754q-.63493.05772-.86583.05772-.837.1443-.92355.43291,0,.05772.837,7.2441T7.861,18.97025L9.9678,15.59352q2.10685-3.37672,4.2137-6.81118t2.16457-3.54989a.85849.85849,0,0,0,.11544-.43292q0-.69265-1.26988-.8081-.51949,0-.51949-.31747,0-.02886.05772-.37519a1.55306,1.55306,0,0,1,.17316-.5195.45822.45822,0,0,1,.3752-.11544h.34633q.2886,0,.98127.02886t1.8471.02886q1.9914,0,2.5109-.05772h.202q.202.202.202.31747a1.76529,1.76529,0,0,1-.25975.92355.82582.82582,0,0,1-.49063.08658q-.37519.02886-.69266.05772a2.146,2.146,0,0,0-.60608.1443q-.28862.11545-.46178.202a1.80712,1.80712,0,0,0-.34633.23089,1.61485,1.61485,0,0,1-.28861.202.62736.62736,0,0,0-.23089.25974q-.11544.202-.202.202L12.219,14.23706q-5.195,8.39853-5.36814,8.60056-.08658.05772-.202.1443l-.5195.02886h-.202q-.5195,0-.51949-.202-.08659-.17318-1.12558-9.2355Q3.18549,4.39548,3.15662,4.3089q-.1443-.31748-1.78937-.31747H.87661A.39984.39984,0,0,1,.67458,3.674Z"/>
    <path id="MJMAIN-28" class="cls-6" d="M24.0808,15.16061a23.738,23.738,0,0,1,.28861-3.78078,26.45148,26.45148,0,0,1,.6638-3.08812A12.08482,12.08482,0,0,1,26.10107,5.752q.69266-1.241,1.09671-1.93369a7.66577,7.66577,0,0,1,1.21216-1.50077q.80811-.80809.95241-.98127a5.20189,5.20189,0,0,1,.72153-.60608h.49063q.40405,0,.40405.25975a2.332,2.332,0,0,1-.49063.60608,13.10355,13.10355,0,0,0-1.1833,1.52963,19.96854,19.96854,0,0,0-1.41419,2.482,16.4195,16.4195,0,0,0-1.21215,3.98281,29.12832,29.12832,0,0,0-.49064,5.57016,28.67535,28.67535,0,0,0,.49064,5.5413,18.74414,18.74414,0,0,0,1.18329,4.01167,13.071,13.071,0,0,0,1.41419,2.482q.72151.95241,1.21216,1.52963a6.51833,6.51833,0,0,1,.49063.60608q0,.25974-.43291.25975h-.46177l-.80811-.69267a14.2426,14.2426,0,0,1-3.954-6.11851A23.59669,23.59669,0,0,1,24.0808,15.16061Z"/>
    <g>
      <path id="MJMATHI-73" class="cls-6" d="M36.40442,14.035a4.277,4.277,0,0,1,.46177-1.876,4.74812,4.74812,0,0,1,1.61622-1.76051,4.61131,4.61131,0,0,1,2.79951-.77925,3.64631,3.64631,0,0,1,2.59748.77925,2.47267,2.47267,0,0,1,.837,1.73165,1.7188,1.7188,0,0,1-.49064,1.35647,1.74857,1.74857,0,0,1-1.09671.46177,1.15272,1.15272,0,0,1-.69266-.23089.93372.93372,0,0,1-.34634-.75038,1.3097,1.3097,0,0,1,.25975-.80811,2.59273,2.59273,0,0,1,.49064-.51949.6984.6984,0,0,1,.37519-.17317.02551.02551,0,0,0,.02886-.02886q0-.08658-.202-.25975a1.97132,1.97132,0,0,0-.72152-.31747,5.10732,5.10732,0,0,0-1.12557-.17317,2.44115,2.44115,0,0,0-2.68407,2.28,1.04333,1.04333,0,0,0,.54836,1.01013A5.98545,5.98545,0,0,0,40.647,14.468a6.32465,6.32465,0,0,1,1.50077.43291,2.85232,2.85232,0,0,1,1.90482,2.77065,4.39193,4.39193,0,0,1-.31747,1.61621,6.45607,6.45607,0,0,1-.95241,1.61622,4.17523,4.17523,0,0,1-1.81824,1.26988,7.83682,7.83682,0,0,1-2.71293.49063,4.66839,4.66839,0,0,1-3.14584-.837,2.67016,2.67016,0,0,1-.95241-1.96255,1.96277,1.96277,0,0,1,.60608-1.61621,1.99281,1.99281,0,0,1,1.26988-.49064,1.39254,1.39254,0,0,1,.8081.25975,1.07446,1.07446,0,0,1,.40406.89469,1.72738,1.72738,0,0,1-.5195,1.26988,1.42137,1.42137,0,0,1-.89469.5195.2215.2215,0,0,1-.08658.02886q-.02886,0-.02886.05772a.62373.62373,0,0,0,.23089.23089,4.02919,4.02919,0,0,0,.89468.37519,5.67643,5.67643,0,0,0,3.37673-.11544,2.47944,2.47944,0,0,0,1.09672-.80811,3.83109,3.83109,0,0,0,.49063-.89469,2.17669,2.17669,0,0,0,.14431-.72152,1.35966,1.35966,0,0,0-.60608-1.21216,3.068,3.068,0,0,0-1.38533-.49064,7.14259,7.14259,0,0,1-1.70279-.43291A2.6709,2.6709,0,0,1,36.89506,15.709,2.90509,2.90509,0,0,1,36.40442,14.035Z"/>
      <g>
        <path id="MJMATHI-74" class="cls-6" d="M46.68994,18.84918q-.14283-.14283-.14284-.204a1.71576,1.71576,0,0,1,.06122-.32647.83877.83877,0,0,1,.102-.28567.17527.17527,0,0,1,.18364-.102q.14285,0,1.04064-.0204h1.08145l.38769-1.63238q.06121-.22444.14283-.59173a4.37869,4.37869,0,0,1,.14284-.53053,3.84,3.84,0,0,0,.12242-.40809.74864.74864,0,0,1,.16324-.34688,1.94192,1.94192,0,0,0,.204-.24486.45982.45982,0,0,1,.28566-.18364,1.68893,1.68893,0,0,1,.36729-.04081.62563.62563,0,0,1,.51011.22445.68367.68367,0,0,1,.14284.38769,7.75629,7.75629,0,0,1-.18364.959q-.18364.81619-.4081,1.612l-.204.755a4.82136,4.82136,0,0,0,1.02023.04081h1.04064q.14283.14283.14283.22445a.965.965,0,0,1-.26526.71416H50.4444l-.73457,2.95868q-.79578,3.26475-.79578,3.50961,0,.857.55092.857a1.95008,1.95008,0,0,0,1.38752-.69376,5.19679,5.19679,0,0,0,1.08145-1.714q.04082-.12243.102-.14283a1.79615,1.79615,0,0,1,.30607-.04081h.08162q.30607,0,.30607.16323a1.00169,1.00169,0,0,1-.06121.24486,3.83877,3.83877,0,0,1-.36729.77538,7.25333,7.25333,0,0,1-.69375.959,3.77313,3.77313,0,0,1-1.04064.857,2.49856,2.49856,0,0,1-1.24469.34688,2.36,2.36,0,0,1-1.16307-.30608,1.76783,1.76783,0,0,1-.79578-1.061,2.56575,2.56575,0,0,1-.04081-.55092v-.36729l.71417-2.85665q.71417-2.87706.73457-2.89747a5.01378,5.01378,0,0,0-1.04064-.04081Z"/>
        <path id="MJMAIN-2B" class="cls-6" d="M54.66817,21.86907v-.26526a.44447.44447,0,0,1,.28566-.40809h6.101V18.135l.02041-3.0607q.204-.26527.38769-.26527a.44617.44617,0,0,1,.40809.30607v6.0806h6.0806a.4251.4251,0,0,1,0,.81619H61.871V28.0925q-.16323.28567-.36728.28567h-.08162a.39555.39555,0,0,1-.36729-.28567V22.01191h-6.101a.44449.44449,0,0,1-.28566-.4081Z"/>
        <path id="MJMAIN-31" class="cls-6" d="M73.767,14.91108l-.26526.102a5.84809,5.84809,0,0,1-.81619.20405A9.40739,9.40739,0,0,1,71.502,15.36h-.38769v-.93861H71.502a6.63579,6.63579,0,0,0,1.77521-.30607,4.8189,4.8189,0,0,0,1.14266-.48972,5.23108,5.23108,0,0,0,.57133-.4489q.04081-.06121.24486-.06121a.56839.56839,0,0,1,.34688.12242v6.101l.0204,6.12141a.80805.80805,0,0,0,.24486.18364,2.41958,2.41958,0,0,0,.48971.08162q.38769.04082,1.26509.04081h.53052V26.705H77.9091q-.42851-.06122-3.24434-.06121-2.775,0-3.20354.06121h-.24486v-.93861h1.3059a4.8984,4.8984,0,0,0,.51012-.02041,1.9975,1.9975,0,0,0,.32648-.06121,1.22227,1.22227,0,0,1,.16323-.04081q.02041,0,.12243-.102t.12243-.08162Z"/>
      </g>
    </g>
    <path id="MJMAIN-29" class="cls-6" d="M84.25585.759l.11544-.02886h.63494l.80811.69266a14.24269,14.24269,0,0,1,3.95395,6.11852,23.59692,23.59692,0,0,1,1.241,7.61929,24.09437,24.09437,0,0,1-.28861,3.78078,24.81475,24.81475,0,0,1-.6638,3.08812A12.99843,12.99843,0,0,1,88.989,24.56927q-.69266,1.26988-1.09671,1.93369a8.77917,8.77917,0,0,1-1.1833,1.4719q-.77925.80811-.92355.95242t-.6638.54835l-.11545.11545h-.6638a.16958.16958,0,0,1-.1443-.08659.67955.67955,0,0,1-.08659-.25974q.02887-.02886.31748-.3752,4.47344-4.64661,4.47344-13.70894T84.429,1.45167q-.28861-.34634-.31748-.3752A.33924.33924,0,0,1,84.25585.759Z"/>
  </g>
  <rect class="cls-1" x="409.87083" y="40.0736" width="74.08071" height="74.08071"/>
  <polygon class="cls-7" points="419.621 77.112 427.292 92.513 427.292 61.712 419.621 77.112"/>
  <polygon class="cls-8" points="446.837 104.596 462.237 96.925 431.436 96.925 446.837 104.596"/>
  <polygon class="cls-9" points="474.201 77.129 466.531 61.729 466.531 92.53 474.201 77.129"/>
  <polygon class="cls-9" points="446.837 49.791 431.436 57.461 462.237 57.461 446.837 49.791"/>
  <g>
    <path id="MJMATHI-51" class="cls-6" d="M211.47045,24.689q0-.95387.02891-1.44525a2.85515,2.85515,0,0,1,.05781-.5492v-.11562l-.43358.11562a10.515,10.515,0,0,1-2.428.318,7.09341,7.09341,0,0,1-7.28408-6.44583q-.0289-.23124-.02891-1.24292A11.95786,11.95786,0,0,1,202.77,9.71618a16.18918,16.18918,0,0,1,3.72875-4.71153,11.27434,11.27434,0,0,1,7.19736-2.97722q1.09839,0,1.38745.0289a6.88166,6.88166,0,0,1,4.50919,2.48584,8.14962,8.14962,0,0,1,1.7343,5.26072,13.15174,13.15174,0,0,1-4.278,9.48086,13.86282,13.86282,0,0,1-3.78656,2.63036l-.49139.23124v.14453q0,.0289.14453.78044a2.27462,2.27462,0,0,0,.607,1.214,1.79968,1.79968,0,0,0,1.32963.46248,3.36752,3.36752,0,0,0,1.93664-.63591,2.94081,2.94081,0,0,0,1.214-1.64759q.17343-.40467.37576-.40467a.29729.29729,0,0,1,.318.26014,4.32343,4.32343,0,0,1-.28905,1.04059q-.28905.80934-.80934,1.90773a5.018,5.018,0,0,1-1.56088,1.87883,3.94455,3.94455,0,0,1-2.19678.83825q-2.37022,0-2.37022-3.09285Zm6.8505-15.84a8.06857,8.06857,0,0,0-.43357-2.77488,3.79966,3.79966,0,0,0-1.18511-1.76321,6.51683,6.51683,0,0,0-1.44525-.86715,3.94542,3.94542,0,0,0-1.532-.28905,6.30592,6.30592,0,0,0-2.8327.72262,10.4069,10.4069,0,0,0-4.74043,5.08729,16.27715,16.27715,0,0,0-1.79211,7.16846,5.96984,5.96984,0,0,0,1.56087,4.5381,2.71468,2.71468,0,0,0,.83825.607V21.047a3.02324,3.02324,0,0,1,.95386-2.139,3.14224,3.14224,0,0,1,2.2546-1.01168,2.3378,2.3378,0,0,1,1.24292.31795,1.99876,1.99876,0,0,1,.78043.86716,4.75919,4.75919,0,0,1,.34686.925q.08671.37576.17343.78044l.37577-.26015a10.70482,10.70482,0,0,0,3.15065-3.49751,15.78088,15.78088,0,0,0,1.79212-4.30686A16.9191,16.9191,0,0,0,218.321,8.849ZM209.01352,21.8563a5.73735,5.73735,0,0,0,2.60146-.607l-.02891-.28905q-.11562-1.58979-1.06949-1.90774a3.53859,3.53859,0,0,0-.54919-.05781H209.794a.16739.16739,0,0,1-.11562-.0289,1.76049,1.76049,0,0,0-1.18511.5781,1.8942,1.8942,0,0,0-.63591,1.32963Q207.85732,21.8563,209.01352,21.8563Z"/>
    <path id="MJMAIN-28-2" data-name="MJMAIN-28" class="cls-6" d="M225.51831,15.15033a23.77484,23.77484,0,0,1,.289-3.78657,26.49145,26.49145,0,0,1,.66482-3.09284,12.10365,12.10365,0,0,1,1.06949-2.54364q.69372-1.24293,1.09839-1.93664a7.67761,7.67761,0,0,1,1.214-1.50307q.80934-.80934.95387-.98277a5.2096,5.2096,0,0,1,.72263-.607h.49138q.40467,0,.40467.26014a2.33547,2.33547,0,0,1-.49138.607,13.1221,13.1221,0,0,0-1.18511,1.532,19.99784,19.99784,0,0,0-1.41635,2.48583,16.44435,16.44435,0,0,0-1.214,3.9889,29.1737,29.1737,0,0,0-.49139,5.57868,28.72,28.72,0,0,0,.49139,5.54977,18.77248,18.77248,0,0,0,1.18511,4.0178,13.09008,13.09008,0,0,0,1.41635,2.48584q.72262.95386,1.214,1.532a6.52907,6.52907,0,0,1,.49138.607q0,.26016-.43357.26015h-.46248l-.80934-.69372a14.26438,14.26438,0,0,1-3.96-6.12788A23.63282,23.63282,0,0,1,225.51831,15.15033Z"/>
    <g>
      <path id="MJMATHI-73-2" data-name="MJMATHI-73" class="cls-6" d="M237.86078,14.023a4.28356,4.28356,0,0,1,.46248-1.87883,4.75538,4.75538,0,0,1,1.61868-1.76321,4.61839,4.61839,0,0,1,2.80379-.78043,3.65192,3.65192,0,0,1,2.60146.78043,2.47644,2.47644,0,0,1,.83824,1.73431,1.72139,1.72139,0,0,1-.49138,1.35853,1.75122,1.75122,0,0,1-1.09839.46249,1.15453,1.15453,0,0,1-.69373-.23125.93517.93517,0,0,1-.34686-.75153,1.31166,1.31166,0,0,1,.26015-.80934,2.59638,2.59638,0,0,1,.49139-.52029.6995.6995,0,0,1,.37576-.17343.02556.02556,0,0,0,.02891-.02891q0-.08671-.20234-.26014a1.97431,1.97431,0,0,0-.72263-.318A5.11438,5.11438,0,0,0,242.659,10.67a2.44486,2.44486,0,0,0-2.68817,2.2835,1.04494,1.04494,0,0,0,.54919,1.01168,5.99469,5.99469,0,0,0,1.58978.49139,6.33424,6.33424,0,0,1,1.50306.43357,2.85668,2.85668,0,0,1,1.90774,2.77489,4.39856,4.39856,0,0,1-.318,1.61868,6.46589,6.46589,0,0,1-.95386,1.61869,4.18155,4.18155,0,0,1-1.821,1.27182,7.84885,7.84885,0,0,1-2.71708.49138,4.6755,4.6755,0,0,1-3.15065-.83824,2.67424,2.67424,0,0,1-.95387-1.96555,1.96579,1.96579,0,0,1,.607-1.61868,1.99587,1.99587,0,0,1,1.27182-.49139,1.39467,1.39467,0,0,1,.80934.26015,1.0761,1.0761,0,0,1,.40467.89606,1.73,1.73,0,0,1-.52029,1.27182,1.42352,1.42352,0,0,1-.89606.52029.22186.22186,0,0,1-.08671.02891q-.02891,0-.02891.05781a.6247.6247,0,0,0,.23125.23124,4.03552,4.03552,0,0,0,.89605.37576,5.685,5.685,0,0,0,3.38189-.11562,2.48316,2.48316,0,0,0,1.0984-.80934,3.83721,3.83721,0,0,0,.49138-.89606,2.18019,2.18019,0,0,0,.14453-.72262,1.36174,1.36174,0,0,0-.607-1.214,3.07263,3.07263,0,0,0-1.38744-.49138,7.15374,7.15374,0,0,1-1.7054-.43358,2.675,2.675,0,0,1-1.35854-1.01168A2.90948,2.90948,0,0,1,237.86078,14.023Z"/>
      <g>
        <path id="MJMATHI-74-2" data-name="MJMATHI-74" class="cls-6" d="M248.162,18.84454q-.14306-.14306-.14305-.20436a1.71839,1.71839,0,0,1,.06131-.327.83978.83978,0,0,1,.10218-.28611.17552.17552,0,0,1,.18392-.10218q.14306,0,1.04223-.02043h1.0831l.38828-1.63487q.06131-.22479.14305-.59264a4.38285,4.38285,0,0,1,.14306-.53133,3.84766,3.84766,0,0,0,.12261-.40872.74968.74968,0,0,1,.16349-.34741,1.94637,1.94637,0,0,0,.20436-.24523.4605.4605,0,0,1,.2861-.18393,1.6915,1.6915,0,0,1,.36784-.04087.62659.62659,0,0,1,.5109.2248.68468.68468,0,0,1,.143.38828,7.76548,7.76548,0,0,1-.18392.96048q-.18393.81744-.40872,1.61444l-.20436.75613a4.82828,4.82828,0,0,0,1.0218.04087h1.04223q.143.14306.143.22479a.96654.96654,0,0,1-.26567.71526h-2.18664l-.73569,2.9632q-.797,3.26975-.797,3.515,0,.85831.55177.85831a1.95309,1.95309,0,0,0,1.38964-.69482,5.205,5.205,0,0,0,1.0831-1.71661q.04088-.12262.10218-.14305a1.79949,1.79949,0,0,1,.30654-.04088h.08174q.30654,0,.30654.16349a1.00291,1.00291,0,0,1-.06131.24523,3.845,3.845,0,0,1-.36784.77657,7.26469,7.26469,0,0,1-.69482.96048,3.77864,3.77864,0,0,1-1.04223.85831,2.5023,2.5023,0,0,1-1.24659.34741,2.36357,2.36357,0,0,1-1.16485-.30654,1.77053,1.77053,0,0,1-.797-1.06267,2.569,2.569,0,0,1-.04088-.55176v-.36785l.71526-2.861q.71526-2.88147.73569-2.9019a5.02172,5.02172,0,0,0-1.04223-.04087Z"/>
        <path id="MJMAIN-2B-2" data-name="MJMAIN-2B" class="cls-6" d="M256.15245,21.86905v-.26567a.44514.44514,0,0,1,.2861-.40871h6.11033V18.12928l.02044-3.06538q.20436-.26567.38828-.26566a.44685.44685,0,0,1,.40872.30653v6.0899h6.08989a.42574.42574,0,0,1,0,.81743h-6.08989V28.102q-.16348.28611-.36785.28611h-.08174a.39615.39615,0,0,1-.36785-.28611V22.0121h-6.11033a.44517.44517,0,0,1-.2861-.40872Z"/>
        <path id="MJMAIN-31-2" data-name="MJMAIN-31" class="cls-6" d="M275.28044,14.90041l-.26567.10218a5.85711,5.85711,0,0,1-.81744.20436,9.41838,9.41838,0,0,1-1.18528.143h-.38828v-.94h.38828a6.64536,6.64536,0,0,0,1.77792-.30653,4.826,4.826,0,0,0,1.14441-.49047,5.23733,5.23733,0,0,0,.57221-.44959q.04087-.06131.24523-.0613a.5692.5692,0,0,1,.34741.12261V19.335l.02043,6.13077a.80946.80946,0,0,0,.24524.18392,2.42345,2.42345,0,0,0,.49046.08174q.38828.04087,1.267.04087h.53133v.94h-.22479q-.42915-.06131-3.24931-.0613-2.77928,0-3.20843.0613H272.726v-.94h1.3079a4.90922,4.90922,0,0,0,.51089-.02043,2.00151,2.00151,0,0,0,.327-.06131,1.22441,1.22441,0,0,1,.16348-.04087q.02045,0,.12262-.10218t.12262-.08174Z"/>
      </g>
    </g>
    <path id="MJMAIN-2C" class="cls-6" d="M286.30566,21.36492v-.72263a1.80758,1.80758,0,0,1,.46249-1.24292,1.57987,1.57987,0,0,1,1.24291-.52029,1.88949,1.88949,0,0,1,1.44526.72263,3.99046,3.99046,0,0,1,.66481,2.54364,7.43653,7.43653,0,0,1-.26014,1.96555,8.98687,8.98687,0,0,1-.607,1.64759,6.26851,6.26851,0,0,1-.75153,1.1851q-.40467.49139-.69372.78044t-.37577.26015q-.11562,0-.37576-.26015t-.26015-.37576q0-.11563.318-.46249t.72262-.86715a5.54736,5.54736,0,0,0,.75153-1.44525,8.3024,8.3024,0,0,0,.46249-2.11007v-.34686l-.02891.0289a1.1214,1.1214,0,0,1-.14452.05781.72958.72958,0,0,0-.17343.08672.47306.47306,0,0,1-.26015.05781,2.10644,2.10644,0,0,0-.34686.0289,1.72089,1.72089,0,0,1-1.27182-.49138Z"/>
    <path id="MJMATHI-61" class="cls-6" d="M297.86769,17.8385a8.54174,8.54174,0,0,1,2.19679-5.54977,6.46832,6.46832,0,0,1,4.94276-2.65927,3.27692,3.27692,0,0,1,2.60146,1.41635,1.44632,1.44632,0,0,1,1.32963-.86715,1.03423,1.03423,0,0,1,.66482.23124.71181.71181,0,0,1,.289.5781q0,.37577-1.06949,4.62481t-1.09839,4.79824a1.5464,1.5464,0,0,0,.20233.95387.84911.84911,0,0,0,.607.26014,1.2559,1.2559,0,0,0,.5781-.26014A6.55434,6.55434,0,0,0,310.29687,18.59q.17343-.5781.289-.607a.84551.84551,0,0,1,.28905-.0289h.11562q.54919,0,.5492.26014a4.591,4.591,0,0,1-.14453.78044,9.06846,9.06846,0,0,1-.5781,1.56088,4.9244,4.9244,0,0,1-.925,1.44525,2.8581,2.8581,0,0,1-.925.607,3.08174,3.08174,0,0,1-.69373.05781,2.95447,2.95447,0,0,1-1.64758-.43357,2.21906,2.21906,0,0,1-.86716-.89606l-.17343-.43357q-.0289-.0289-.11562.0289l-.11562.11562a5.06775,5.06775,0,0,1-3.46861,1.61868,3.94484,3.94484,0,0,1-2.80379-1.1562A4.87071,4.87071,0,0,1,297.86769,17.8385Zm9.19181-4.94277a2.61659,2.61659,0,0,0-.14452-.63591,2.74817,2.74817,0,0,0-.66482-1.01168,1.84766,1.84766,0,0,0-1.32963-.5781,2.77382,2.77382,0,0,0-1.93664.89606,6.04814,6.04814,0,0,0-1.44526,2.34131,23.07625,23.07625,0,0,0-1.1851,4.74043v.318a1.54073,1.54073,0,0,1-.02891.34686,2.42754,2.42754,0,0,0,.52029,1.79211,1.86158,1.86158,0,0,0,1.24292.52029,3.264,3.264,0,0,0,2.16788-.95386,4.86055,4.86055,0,0,0,1.27182-1.47416q.05781-.11562.78044-3.09284T307.0595,12.89573Z"/>
    <path id="MJMAIN-29-2" data-name="MJMAIN-29" class="cls-6" d="M313.96781.7267l.11562-.0289h.63591l.80935.69372a14.26436,14.26436,0,0,1,3.96,6.12787,23.63288,23.63288,0,0,1,1.24292,7.63094,24.13048,24.13048,0,0,1-.28905,3.78656,24.85221,24.85221,0,0,1-.66482,3.09284,13.01857,13.01857,0,0,1-1.06949,2.54365q-.69372,1.27182-1.09839,1.93664a8.79287,8.79287,0,0,1-1.18511,1.47416q-.78043.80934-.925.95386t-.66482.5492l-.11562.11562h-.66481a.16986.16986,0,0,1-.14453-.08671.68055.68055,0,0,1-.08671-.26015q.02891-.0289.31795-.37577,4.48029-4.6537,4.48029-13.7299T314.14124,1.42042q-.28905-.34686-.31795-.37576A.33974.33974,0,0,1,313.96781.7267Z"/>
  </g>
  <g>
    <path id="MJMATHI-3C0" class="cls-6" d="M413.23233,22.618a.84743.84743,0,0,1-.97281-.94419v-.31473l.372-.80114a55.44257,55.44257,0,0,0,3.1187-7.811l.2289-.68669h-.91559a9.53821,9.53821,0,0,0-1.545.08584,3.09548,3.09548,0,0,0-1.11587.54362,3.73747,3.73747,0,0,0-.62946.515,7.37064,7.37064,0,0,0-.54362.60085,3.523,3.523,0,0,0-.25751.34334,1.63165,1.63165,0,0,1-.42918.02861q-.54363,0-.54363-.28612a3.45449,3.45449,0,0,1,.54363-1.00141,9.72925,9.72925,0,0,1,1.57366-1.77394,3.88986,3.88986,0,0,1,2.03144-1.08726q.20028-.05722,6.43769-.05722,4.57791,0,4.69235.02861a.78116.78116,0,0,1,.57224.80113,1.195,1.195,0,0,1-.91558,1.20171,15.51766,15.51766,0,0,1-1.97422.05722h-1.83117l-.08583.4864A21.47519,21.47519,0,0,0,420.7,15.95146a12.46687,12.46687,0,0,0,.25751,2.66091,10.337,10.337,0,0,0,.54363,1.83116,3.33685,3.33685,0,0,1,.28612.80114,1.326,1.326,0,0,1-.40057.91558,1.3458,1.3458,0,0,1-1.03.42918,1.31839,1.31839,0,0,1-.515-.08584q-.2003-.08583-.45779-.68668a8.26512,8.26512,0,0,1-.4578-1.71672q-.0286-.25751-.02861-1.25892A18.98855,18.98855,0,0,1,419.155,15.837q.25751-1.60225.515-2.63229l.28612-1.14448h-2.804l-.02861.11445q0,.08583-.54362,2.26034t-1.23032,4.60652a21.3211,21.3211,0,0,1-.887,2.77536A1.203,1.203,0,0,1,413.23233,22.618Z"/>
    <path id="MJMAIN-28-3" data-name="MJMAIN-28" class="cls-6" d="M428.53971,15.15033a23.53421,23.53421,0,0,1,.28612-3.74816,26.22354,26.22354,0,0,1,.65808-3.06148,11.98093,11.98093,0,0,1,1.05864-2.51785q.68669-1.23031,1.08725-1.917A7.59966,7.59966,0,0,1,432.8315,2.418q.80113-.80113.9442-.97281A5.15686,5.15686,0,0,1,434.491.84436h.48641q.40056,0,.40056.25751a2.31183,2.31183,0,0,1-.4864.60085,12.98939,12.98939,0,0,0-1.17309,1.51643,19.79418,19.79418,0,0,0-1.402,2.46063,16.27679,16.27679,0,0,0-1.2017,3.94845,28.87765,28.87765,0,0,0-.48641,5.5221,28.42861,28.42861,0,0,0,.48641,5.49349,18.58116,18.58116,0,0,0,1.17309,3.97706,12.95782,12.95782,0,0,0,1.402,2.46062q.71529.94419,1.2017,1.51643a6.46194,6.46194,0,0,1,.4864.60086q0,.25751-.42918.2575H434.491l-.80113-.68668A14.11979,14.11979,0,0,1,429.77,22.70388,23.39314,23.39314,0,0,1,428.53971,15.15033Z"/>
    <g>
      <path id="MJMATHI-73-3" data-name="MJMATHI-73" class="cls-6" d="M440.757,14.03446a4.24,4.24,0,0,1,.45779-1.85977,4.707,4.707,0,0,1,1.60227-1.74533,4.57149,4.57149,0,0,1,2.77535-.77252,3.61487,3.61487,0,0,1,2.57508.77252,2.45137,2.45137,0,0,1,.82974,1.71672,1.704,1.704,0,0,1-.4864,1.34476,1.73348,1.73348,0,0,1-1.08725.45779,1.14282,1.14282,0,0,1-.68669-.2289.92568.92568,0,0,1-.34334-.74391,1.29834,1.29834,0,0,1,.2575-.80113,2.57047,2.57047,0,0,1,.48641-.515.69237.69237,0,0,1,.37195-.17167.02529.02529,0,0,0,.02861-.02861q0-.08583-.20028-.25751a1.95428,1.95428,0,0,0-.7153-.31473,5.06247,5.06247,0,0,0-1.11586-.17167,2.42007,2.42007,0,0,0-2.66091,2.26034,1.03435,1.03435,0,0,0,.54362,1.00142,5.93406,5.93406,0,0,0,1.57366.4864,6.26958,6.26958,0,0,1,1.48782.42918,2.82772,2.82772,0,0,1,1.88839,2.74675,4.35393,4.35393,0,0,1-.31473,1.60226,6.4002,6.4002,0,0,1-.9442,1.60227,4.13911,4.13911,0,0,1-1.80255,1.25893,7.7694,7.7694,0,0,1-2.68952.4864,4.628,4.628,0,0,1-3.1187-.82975,2.64708,2.64708,0,0,1-.94419-1.94561,1.94586,1.94586,0,0,1,.60085-1.60227,1.97564,1.97564,0,0,1,1.25892-.4864,1.38058,1.38058,0,0,1,.80114.25751,1.06517,1.06517,0,0,1,.40056.887,1.71247,1.71247,0,0,1-.515,1.25892,1.4091,1.4091,0,0,1-.887.515.21966.21966,0,0,1-.08584.02861q-.0286,0-.02861.05722a.61825.61825,0,0,0,.2289.2289,3.99423,3.99423,0,0,0,.887.372,5.62741,5.62741,0,0,0,3.34759-.11444,2.458,2.458,0,0,0,1.08725-.80114,3.79839,3.79839,0,0,0,.48641-.887,2.15812,2.15812,0,0,0,.14306-.7153,1.348,1.348,0,0,0-.60085-1.2017,3.04151,3.04151,0,0,0-1.37338-.4864,7.0808,7.0808,0,0,1-1.6881-.42918,2.64777,2.64777,0,0,1-1.34476-1.00142A2.87994,2.87994,0,0,1,440.757,14.03446Z"/>
      <g>
        <path id="MJMATHI-74-3" data-name="MJMATHI-74" class="cls-6" d="M450.95378,18.80708q-.1416-.1416-.1416-.20229a1.70075,1.70075,0,0,1,.06069-.32366.83139.83139,0,0,1,.10114-.2832.17375.17375,0,0,1,.18206-.10114q.1416,0,1.03166-.02023h1.07212l.38434-1.61829q.06069-.22253.1416-.58663a4.33859,4.33859,0,0,1,.1416-.52595,3.80447,3.80447,0,0,0,.12137-.40457.74214.74214,0,0,1,.16183-.34389,1.92614,1.92614,0,0,0,.20229-.24274.45584.45584,0,0,1,.2832-.18206,1.674,1.674,0,0,1,.36412-.04046.62022.62022,0,0,1,.50571.22252.67778.67778,0,0,1,.1416.38434,7.68683,7.68683,0,0,1-.18206.95075q-.18205.80914-.40457,1.59806l-.20229.74846a4.77942,4.77942,0,0,0,1.01144.04046h1.03166q.1416.1416.1416.22251a.95677.95677,0,0,1-.263.708h-2.16447l-.72823,2.93315q-.78891,3.23658-.78892,3.47932,0,.8496.54618.84961a1.93325,1.93325,0,0,0,1.37554-.68778,5.15213,5.15213,0,0,0,1.07212-1.6992q.04046-.12138.10114-.1416a1.78064,1.78064,0,0,1,.30343-.04046h.08092q.30343,0,.30343.16183a.99312.99312,0,0,1-.06069.24274,3.80623,3.80623,0,0,1-.36411.76869,7.19124,7.19124,0,0,1-.68778.95075,3.74033,3.74033,0,0,1-1.03166.8496,2.47688,2.47688,0,0,1-1.23394.34388,2.33958,2.33958,0,0,1-1.153-.30343,1.75258,1.75258,0,0,1-.78891-1.05188,2.5434,2.5434,0,0,1-.04046-.54618V24.552l.708-2.832q.708-2.85224.72823-2.87247a4.9714,4.9714,0,0,0-1.03166-.04045Z"/>
        <path id="MJMAIN-2B-3" data-name="MJMAIN-2B" class="cls-6" d="M458.86318,21.80091v-.263a.44064.44064,0,0,1,.2832-.40457h6.04836v-3.0343l.02023-3.03429q.20229-.263.38434-.263a.44232.44232,0,0,1,.40458.30343v6.02813H472.032a.42143.42143,0,0,1,0,.80914h-6.02813v6.02814q-.16183.2832-.36412.2832h-.08091a.39214.39214,0,0,1-.36412-.2832V21.94251h-6.04836a.44063.44063,0,0,1-.2832-.40457Z"/>
        <path id="MJMAIN-31-3" data-name="MJMAIN-31" class="cls-6" d="M477.79718,14.903l-.263.10114a5.79772,5.79772,0,0,1-.80915.20229,9.32389,9.32389,0,0,1-1.17326.1416h-.38434v-.93052h.38434a6.57807,6.57807,0,0,0,1.75989-.30343,4.77688,4.77688,0,0,0,1.13281-.48549,5.18478,5.18478,0,0,0,.5664-.445q.04046-.06067.24274-.06068a.56346.56346,0,0,1,.34389.12137v6.04836l.02023,6.06859a.801.801,0,0,0,.24274.18206,2.39953,2.39953,0,0,0,.48549.08092q.38434.04045,1.25417.04045h.52595v.93052h-.22252q-.4248-.06069-3.21635-.06069-2.75109,0-3.1759.06069h-.24274v-.93052h1.29463a4.85693,4.85693,0,0,0,.50572-.02023,1.98041,1.98041,0,0,0,.32366-.06068,1.21259,1.21259,0,0,1,.16183-.04046q.02022,0,.12137-.10114t.12137-.08092Z"/>
      </g>
    </g>
    <path id="MJMAIN-2C-2" data-name="MJMAIN-2C" class="cls-6" d="M488.7106,21.30189v-.7153a1.78924,1.78924,0,0,1,.45779-1.23031,1.56386,1.56386,0,0,1,1.23031-.515,1.87032,1.87032,0,0,1,1.4306.71529,3.95,3.95,0,0,1,.65807,2.51785,7.36124,7.36124,0,0,1-.2575,1.94562,8.897,8.897,0,0,1-.60085,1.63088,6.20513,6.20513,0,0,1-.74391,1.17308q-.40057.48641-.68669.77253t-.372.2575q-.11443,0-.37195-.2575t-.25751-.372q0-.11445.31473-.45779t.7153-.85836a5.49081,5.49081,0,0,0,.74391-1.43059,8.21849,8.21849,0,0,0,.45779-2.08867V22.0458l-.02861.02861a1.11034,1.11034,0,0,1-.14306.05723.7223.7223,0,0,0-.17167.08583.46821.46821,0,0,1-.25751.05723,2.08556,2.08556,0,0,0-.34334.02861,1.70344,1.70344,0,0,1-1.25893-.4864Z"/>
    <path id="MJMATHI-61-2" data-name="MJMATHI-61" class="cls-6" d="M500.15537,17.81124a8.45517,8.45517,0,0,1,2.17451-5.49349,6.40273,6.40273,0,0,1,4.89264-2.6323,3.24369,3.24369,0,0,1,2.57507,1.402,1.43165,1.43165,0,0,1,1.31615-.85835,1.02368,1.02368,0,0,1,.65807.22889.70458.70458,0,0,1,.28612.57224q0,.372-1.05864,4.57791T509.912,20.3577a1.5307,1.5307,0,0,0,.20028.94419.84046.84046,0,0,0,.60085.25751,1.24312,1.24312,0,0,0,.57224-.25751,6.48773,6.48773,0,0,0,1.17309-2.74674q.17168-.57223.28612-.60085a.83676.83676,0,0,1,.28612-.02861h.11445q.54362,0,.54362.2575a4.54346,4.54346,0,0,1-.14306.77252,8.97574,8.97574,0,0,1-.57224,1.545,4.87433,4.87433,0,0,1-.91558,1.4306,2.82915,2.82915,0,0,1-.91558.60085,3.05091,3.05091,0,0,1-.68668.05722,2.92451,2.92451,0,0,1-1.63088-.42918,2.19658,2.19658,0,0,1-.85836-.887l-.17167-.42918q-.02862-.0286-.11445.02861l-.11445.11445a5.01636,5.01636,0,0,1-3.43343,1.60227,3.90481,3.90481,0,0,1-2.77536-1.14448A4.82131,4.82131,0,0,1,500.15537,17.81124ZM509.254,12.9186a2.58973,2.58973,0,0,0-.14306-.62946,2.72015,2.72015,0,0,0-.65807-1.00142,1.8289,1.8289,0,0,0-1.31615-.57224,2.74572,2.74572,0,0,0-1.917.887A5.98667,5.98667,0,0,0,503.78909,13.92a22.84161,22.84161,0,0,0-1.17309,4.69236v.31473a1.52481,1.52481,0,0,1-.02862.34335,2.403,2.403,0,0,0,.515,1.77394,1.8427,1.8427,0,0,0,1.23031.515,3.23086,3.23086,0,0,0,2.1459-.94419,4.81122,4.81122,0,0,0,1.25892-1.45921q.05723-.11445.77252-3.06148T509.254,12.9186Z"/>
    <path id="MJMAIN-29-3" data-name="MJMAIN-29" class="cls-6" d="M516.09222.873l.11444-.02862h.62947l.80113.68669a14.11976,14.11976,0,0,1,3.91983,6.06573,23.3931,23.3931,0,0,1,1.23032,7.55355,23.88649,23.88649,0,0,1-.28612,3.74816,24.60121,24.60121,0,0,1-.65808,3.06148,12.887,12.887,0,0,1-1.05864,2.51785q-.68669,1.25892-1.08725,1.917a8.70443,8.70443,0,0,1-1.17309,1.4592q-.77253.80114-.91558.9442t-.65808.54362l-.11444.11445h-.65808a.16814.16814,0,0,1-.14306-.08583.67351.67351,0,0,1-.08583-.25751q.0286-.02862.31473-.372,4.43484-4.60652,4.43485-13.59066T516.26389,1.55966q-.28612-.34334-.31473-.37195A.33626.33626,0,0,1,516.09222.873Z"/>
  </g>
  <path id="MJMAIN-22C5" class="cls-6" d="M379.56237,16.74779a2.2495,2.2495,0,0,1,.64547-1.59469,2.14941,2.14941,0,0,1,1.63265-.68343,2.32529,2.32529,0,0,1,1.59468.6075,2.19091,2.19091,0,0,1,.7214,1.63265,2.29518,2.29518,0,0,1-.64546,1.63265,2.14942,2.14942,0,0,1-1.63265.68343,2.21272,2.21272,0,0,1-1.63265-.64546A2.34781,2.34781,0,0,1,379.56237,16.74779Z"/>
  <path id="MJMAIN-3D" class="cls-6" d="M150.44267,13.32659a.73436.73436,0,0,1,.472-.67426H172.39a.784.784,0,0,1,.5057.67426.76486.76486,0,0,1-.472.64055l-10.72083.03372H150.98208A.66821.66821,0,0,1,150.44267,13.32659Zm0,6.54038a.66819.66819,0,0,1,.53941-.67426h21.44166q.472.33712.472.67426a.73719.73719,0,0,1-.5057.67427H150.91466A.73438.73438,0,0,1,150.44267,19.867Z"/>
</svg>
