<svg xmlns="http://www.w3.org/2000/svg" viewBox="0 0 356.67 219"><defs><style>.cls-1{isolation:isolate;}.cls-2,.cls-31,.cls-35{fill:#efefef;stroke:#fff;}.cls-2,.cls-29,.cls-31,.cls-32,.cls-33,.cls-35,.cls-36{stroke-miterlimit:10;}.cls-3{fill:#fefeff;}.cls-4{fill:#4f59a8;}.cls-5{fill:#e8e7f4;}.cls-6{fill:#7f8ac4;}.cls-7{fill:#dddbee;}.cls-8{fill:#5a5faa;}.cls-9{fill:#5e5eaa;}.cls-10,.cls-20{font-size:10px;font-weight:700;}.cls-10{fill:#4d4b4c;font-family:MyriadPro-Semibold, Myriad Pro;}.cls-11{letter-spacing:0em;}.cls-12{letter-spacing:0em;}.cls-13{letter-spacing:-0.01em;}.cls-14{letter-spacing:-0.01em;}.cls-15{letter-spacing:-0.06em;}.cls-16{letter-spacing:-0.03em;}.cls-17{letter-spacing:-0.01em;}.cls-18{letter-spacing:0.01em;}.cls-19{letter-spacing:-0.01em;}.cls-20{fill:#231f20;font-family:MyriadPro-Bold, Myriad Pro;}.cls-21{letter-spacing:-0.04em;}.cls-22{letter-spacing:0em;}.cls-23{letter-spacing:-0.01em;}.cls-24{fill:#8c96bf;}.cls-25{fill:#a7aecc;}.cls-26{fill:#c7cddd;}.cls-27{fill:#99a3d0;}.cls-28{fill:#7b7bbb;}.cls-29,.cls-32,.cls-33,.cls-36{fill:none;}.cls-29{stroke:#666766;stroke-width:0.5px;}.cls-30{letter-spacing:0em;}.cls-31,.cls-32{opacity:0.27;}.cls-32,.cls-33,.cls-36{stroke:#231f20;stroke-width:0.8px;}.cls-34{fill:#f78f1e;opacity:0.2;mix-blend-mode:multiply;}.cls-35,.cls-36{opacity:0.1;}</style></defs><title>function-approximation</title><g class="cls-1"><g id="Layer_1" data-name="Layer 1"><rect class="cls-2" x="57" y="54" width="18" height="18"/><rect class="cls-2" x="57" y="72" width="18" height="18"/><rect class="cls-2" x="57" y="90" width="18" height="18"/><rect class="cls-2" x="57" y="108" width="18" height="18"/><rect class="cls-2" x="75" y="54" width="18" height="18"/><rect class="cls-2" x="75" y="72" width="18" height="18"/><rect class="cls-2" x="75" y="90" width="18" height="18"/><rect class="cls-2" x="75" y="108" width="18" height="18"/><rect class="cls-2" x="93" y="54" width="18" height="18"/><rect class="cls-2" x="93" y="72" width="18" height="18"/><rect class="cls-2" x="93" y="90" width="18" height="18"/><rect class="cls-2" x="93" y="108" width="18" height="18"/><rect class="cls-2" x="111" y="54" width="18" height="18"/><rect class="cls-2" x="111" y="72" width="18" height="18"/><rect class="cls-2" x="111" y="90" width="18" height="18"/><rect class="cls-2" x="111" y="108" width="18" height="18"/><circle class="cls-3" cx="66.12" cy="63.2" r="5.83"/><circle class="cls-3" cx="83.67" cy="63.2" r="5.83"/><circle class="cls-4" cx="101.22" cy="63.2" r="5.83"/><circle class="cls-3" cx="118.77" cy="63.2" r="5.83"/><circle class="cls-3" cx="66.12" cy="81.2" r="5.83"/><circle class="cls-5" cx="83.67" cy="81.2" r="5.83"/><circle class="cls-6" cx="101.22" cy="81.2" r="5.83"/><circle class="cls-7" cx="118.77" cy="81.2" r="5.83"/><circle class="cls-3" cx="66.12" cy="99.2" r="5.83"/><circle class="cls-3" cx="83.67" cy="99.2" r="5.83"/><circle class="cls-8" cx="101.22" cy="99.2" r="5.83"/><circle class="cls-3" cx="118.77" cy="99.2" r="5.83"/><circle class="cls-3" cx="66.12" cy="117.2" r="5.83"/><circle class="cls-3" cx="83.67" cy="117.2" r="5.83"/><circle class="cls-9" cx="101.22" cy="117.2" r="5.83"/><circle class="cls-3" cx="118.77" cy="117.2" r="5.83"/><rect class="cls-2" x="147.26" y="54.04" width="18" height="18"/><rect class="cls-2" x="147.26" y="72.04" width="18" height="18"/><rect class="cls-2" x="147.26" y="90.04" width="18" height="18"/><rect class="cls-2" x="147.26" y="108.04" width="18" height="18"/><rect class="cls-2" x="165.26" y="54.04" width="18" height="18"/><rect class="cls-2" x="165.26" y="72.04" width="18" height="18"/><rect class="cls-2" x="165.26" y="90.04" width="18" height="18"/><rect class="cls-2" x="165.26" y="108.04" width="18" height="18"/><rect class="cls-2" x="183.26" y="54.04" width="18" height="18"/><rect class="cls-2" x="183.26" y="72.04" width="18" height="18"/><rect class="cls-2" x="183.26" y="90.04" width="18" height="18"/><rect class="cls-2" x="183.26" y="108.04" width="18" height="18"/><rect class="cls-2" x="201.26" y="54.04" width="18" height="18"/><rect class="cls-2" x="201.26" y="72.04" width="18" height="18"/><rect class="cls-2" x="201.26" y="90.04" width="18" height="18"/><rect class="cls-2" x="201.26" y="108.04" width="18" height="18"/><rect class="cls-2" x="57" y="144" width="18" height="18"/><rect class="cls-2" x="57" y="162" width="18" height="18"/><rect class="cls-2" x="57" y="180" width="18" height="18"/><rect class="cls-2" x="57" y="198" width="18" height="18"/><rect class="cls-2" x="75" y="144" width="18" height="18"/><rect class="cls-2" x="75" y="162" width="18" height="18"/><rect class="cls-2" x="75" y="180" width="18" height="18"/><rect class="cls-2" x="75" y="198" width="18" height="18"/><rect class="cls-2" x="93" y="144" width="18" height="18"/><rect class="cls-2" x="93" y="162" width="18" height="18"/><rect class="cls-2" x="93" y="180" width="18" height="18"/><rect class="cls-2" x="93" y="198" width="18" height="18"/><rect class="cls-2" x="111" y="144" width="18" height="18"/><rect class="cls-2" x="111" y="162" width="18" height="18"/><rect class="cls-2" x="111" y="180" width="18" height="18"/><rect class="cls-2" x="111" y="198" width="18" height="18"/><rect class="cls-2" x="147" y="144" width="18" height="18"/><rect class="cls-2" x="147" y="162" width="18" height="18"/><rect class="cls-2" x="147" y="180" width="18" height="18"/><rect class="cls-2" x="147" y="198" width="18" height="18"/><rect class="cls-2" x="165" y="144" width="18" height="18"/><rect class="cls-2" x="165" y="162" width="18" height="18"/><rect class="cls-2" x="165" y="180" width="18" height="18"/><rect class="cls-2" x="165" y="198" width="18" height="18"/><rect class="cls-2" x="183" y="144" width="18" height="18"/><rect class="cls-2" x="183" y="162" width="18" height="18"/><rect class="cls-2" x="183" y="180" width="18" height="18"/><rect class="cls-2" x="183" y="198" width="18" height="18"/><rect class="cls-2" x="201" y="144" width="18" height="18"/><rect class="cls-2" x="201" y="162" width="18" height="18"/><rect class="cls-2" x="201" y="180" width="18" height="18"/><rect class="cls-2" x="201" y="198" width="18" height="18"/><text class="cls-10" transform="translate(57 43.1)"><tspan class="cls-11">M</tspan><tspan x="8.32" y="0">o</tspan><tspan class="cls-12" x="13.96" y="0">n</tspan><tspan class="cls-13" x="19.63" y="0">t</tspan><tspan x="23.08" y="0">e </tspan><tspan class="cls-14" x="30.31" y="0">C</tspan><tspan x="36.1" y="0">arlo</tspan></text><text class="cls-10" transform="translate(3 61.1)"><tspan class="cls-15">T</tspan><tspan x="4.6" y="0">abular</tspan></text><text class="cls-10" transform="translate(3 151.1)"><tspan class="cls-16">A</tspan><tspan class="cls-17" x="6.09" y="0">v</tspan><tspan x="11.04" y="0">e</tspan><tspan class="cls-14" x="16.2" y="0">r</tspan><tspan x="19.67" y="0">ager</tspan></text><text class="cls-10" transform="translate(147 43.1)">T<tspan class="cls-18" x="5.25" y="0">D</tspan><tspan x="12.21" y="0">-</tspan><tspan class="cls-19" x="15.36" y="0">L</tspan><tspan x="20.18" y="0">earning</tspan></text><text class="cls-20" transform="translate(3 15.1)"><tspan class="cls-21">V</tspan><tspan x="5.94" y="0">alue </tspan><tspan class="cls-22" x="27.1" y="0">E</tspan><tspan x="32.48" y="0">stim</tspan><tspan class="cls-23" x="51.83" y="0">a</tspan><tspan class="cls-12" x="57.03" y="0">t</tspan><tspan x="60.65" y="0">es</tspan></text><circle class="cls-3" cx="157.11" cy="63.04" r="5.83"/><circle class="cls-3" cx="174.66" cy="63.04" r="5.83"/><circle class="cls-4" cx="192.21" cy="63.04" r="5.83"/><circle class="cls-3" cx="209.76" cy="63.04" r="5.83"/><circle class="cls-24" cx="157.11" cy="81.04" r="5.83"/><circle class="cls-24" cx="174.66" cy="81.04" r="5.83"/><circle class="cls-6" cx="192.21" cy="81.04" r="5.83"/><circle class="cls-7" cx="209.76" cy="81.04" r="5.83"/><circle class="cls-3" cx="157.11" cy="99.04" r="5.83"/><circle class="cls-3" cx="174.66" cy="99.04" r="5.83"/><circle class="cls-24" cx="192.21" cy="99.04" r="5.83"/><circle class="cls-3" cx="209.76" cy="99.04" r="5.83"/><circle class="cls-3" cx="157.11" cy="117.04" r="5.83"/><circle class="cls-3" cx="174.66" cy="117.04" r="5.83"/><circle class="cls-24" cx="192.21" cy="117.04" r="5.83"/><circle class="cls-3" cx="209.76" cy="117.04" r="5.83"/><circle class="cls-24" cx="157.11" cy="152.67" r="5.83"/><circle class="cls-6" cx="174.66" cy="152.67" r="5.83"/><circle class="cls-4" cx="192.21" cy="152.67" r="5.83"/><circle class="cls-6" cx="209.76" cy="152.67" r="5.83"/><circle class="cls-24" cx="157.11" cy="170.67" r="5.83"/><circle class="cls-24" cx="174.66" cy="170.67" r="5.83"/><circle class="cls-6" cx="192.21" cy="170.67" r="5.83"/><circle class="cls-7" cx="209.76" cy="170.67" r="5.83"/><circle class="cls-25" cx="157.11" cy="188.67" r="5.83"/><circle class="cls-25" cx="174.66" cy="188.67" r="5.83"/><circle class="cls-24" cx="192.21" cy="188.67" r="5.83"/><circle class="cls-26" cx="209.76" cy="188.67" r="5.83"/><circle class="cls-26" cx="157.11" cy="206.67" r="5.83"/><circle class="cls-25" cx="174.66" cy="206.67" r="5.83"/><circle class="cls-24" cx="192.21" cy="206.67" r="5.83"/><circle class="cls-25" cx="209.76" cy="206.67" r="5.83"/><circle class="cls-5" cx="66.12" cy="153.33" r="5.83"/><circle class="cls-27" cx="83.67" cy="153.33" r="5.83"/><circle class="cls-4" cx="101.22" cy="153.33" r="5.83"/><circle class="cls-6" cx="118.77" cy="153.33" r="5.83"/><circle class="cls-3" cx="64.87" cy="171.33" r="5.83"/><circle class="cls-5" cx="83.67" cy="171.33" r="5.83"/><circle class="cls-6" cx="101.22" cy="171.33" r="5.83"/><circle class="cls-7" cx="118.77" cy="171.33" r="5.83"/><circle class="cls-5" cx="66.12" cy="189.33" r="5.83"/><circle class="cls-27" cx="83.67" cy="189.33" r="5.83"/><circle class="cls-8" cx="101.22" cy="189.33" r="5.83"/><circle class="cls-27" cx="118.77" cy="189.33" r="5.83"/><circle class="cls-27" cx="66.12" cy="207.33" r="5.83"/><circle class="cls-28" cx="83.67" cy="207.33" r="5.83"/><circle class="cls-9" cx="101.22" cy="207.33" r="5.83"/><circle class="cls-28" cx="118.77" cy="207.33" r="5.83"/><line class="cls-29" x1="3" y1="20.67" x2="219" y2="20.67"/><text class="cls-20" transform="translate(255 15.1)">Ex<tspan class="cls-30" x="10.53" y="0">p</tspan><tspan x="16.54" y="0">erien</tspan><tspan class="cls-19" x="39.5" y="0">c</tspan><tspan x="43.9" y="0">e</tspan></text><line class="cls-29" x1="255" y1="20.67" x2="354" y2="20.67"/><rect class="cls-31" x="255" y="111.94" width="9.27" height="9.27"/><rect class="cls-31" x="255" y="121.2" width="9.27" height="9.27"/><rect class="cls-31" x="255" y="130.47" width="9.27" height="9.27"/><rect class="cls-31" x="255" y="139.73" width="9.27" height="9.27"/><rect class="cls-31" x="263.87" y="111.94" width="9.27" height="9.27"/><rect class="cls-31" x="263.87" y="121.2" width="9.27" height="9.27"/><rect class="cls-31" x="263.87" y="130.47" width="9.27" height="9.27"/><rect class="cls-31" x="263.87" y="139.73" width="9.27" height="9.27"/><rect class="cls-31" x="272.75" y="111.94" width="9.27" height="9.27"/><rect class="cls-31" x="272.75" y="121.2" width="9.27" height="9.27"/><rect class="cls-31" x="272.75" y="130.47" width="9.27" height="9.27"/><rect class="cls-31" x="272.75" y="139.73" width="9.27" height="9.27"/><rect class="cls-31" x="281.62" y="111.94" width="9.27" height="9.27"/><rect class="cls-31" x="281.62" y="121.2" width="9.27" height="9.27"/><rect class="cls-31" x="281.62" y="130.47" width="9.27" height="9.27"/><rect class="cls-31" x="281.62" y="139.73" width="9.27" height="9.27"/><polyline class="cls-32" points="259.63 116.57 268.51 116.57 268.51 135.1 277.38 135.1 277.38 144.37 287.04 144.37 287.04 135.1 277.38 135.1 277.38 125.84"/><rect class="cls-31" x="309" y="111.94" width="9.27" height="9.27"/><rect class="cls-31" x="309" y="121.2" width="9.27" height="9.27"/><rect class="cls-31" x="309" y="130.47" width="9.27" height="9.27"/><rect class="cls-31" x="309" y="139.73" width="9.27" height="9.27"/><rect class="cls-31" x="317.87" y="111.94" width="9.27" height="9.27"/><rect class="cls-31" x="317.87" y="121.2" width="9.27" height="9.27"/><rect class="cls-31" x="317.87" y="130.47" width="9.27" height="9.27"/><rect class="cls-31" x="317.87" y="139.73" width="9.27" height="9.27"/><rect class="cls-31" x="326.75" y="111.94" width="9.27" height="9.27"/><rect class="cls-31" x="326.75" y="121.2" width="9.27" height="9.27"/><rect class="cls-31" x="326.75" y="130.47" width="9.27" height="9.27"/><rect class="cls-31" x="326.75" y="139.73" width="9.27" height="9.27"/><rect class="cls-31" x="335.62" y="111.94" width="9.27" height="9.27"/><rect class="cls-31" x="335.62" y="121.2" width="9.27" height="9.27"/><rect class="cls-31" x="335.62" y="130.47" width="9.27" height="9.27"/><rect class="cls-31" x="335.62" y="139.73" width="9.27" height="9.27"/><polyline class="cls-32" points="313.63 116.57 322.51 116.57 322.51 135.1 331.38 135.1 331.38 144.37 341.04 144.37 341.04 135.1 331.38 135.1 331.38 125.84"/><rect class="cls-2" x="311.17" y="56.48" width="9.27" height="9.27"/><rect class="cls-2" x="320.04" y="56.48" width="9.27" height="9.27"/><rect class="cls-2" x="328.92" y="56.48" width="9.27" height="9.27"/><rect class="cls-2" x="337.79" y="56.48" width="9.27" height="9.27"/><rect class="cls-2" x="311.17" y="65.75" width="9.27" height="9.27"/><rect class="cls-2" x="311.17" y="75.02" width="9.27" height="9.27"/><rect class="cls-2" x="311.17" y="84.28" width="9.27" height="9.27"/><rect class="cls-2" x="320.04" y="65.75" width="9.27" height="9.27"/><rect class="cls-2" x="320.04" y="75.02" width="9.27" height="9.27"/><rect class="cls-2" x="320.04" y="84.28" width="9.27" height="9.27"/><rect class="cls-2" x="328.92" y="65.75" width="9.27" height="9.27"/><rect class="cls-2" x="328.92" y="75.02" width="9.27" height="9.27"/><rect class="cls-2" x="328.92" y="84.28" width="9.27" height="9.27"/><rect class="cls-2" x="337.79" y="65.75" width="9.27" height="9.27"/><rect class="cls-2" x="337.79" y="75.02" width="9.27" height="9.27"/><rect class="cls-2" x="337.79" y="84.28" width="9.27" height="9.27"/><line class="cls-33" x1="333.55" y1="61.12" x2="333.55" y2="88.91"/><rect class="cls-34" x="309" y="54" width="39.5" height="41" rx="2" ry="2"/><rect class="cls-2" x="257.17" y="55.64" width="9.27" height="9.27"/><rect class="cls-2" x="257.17" y="64.9" width="9.27" height="9.27"/><rect class="cls-2" x="257.17" y="74.17" width="9.27" height="9.27"/><rect class="cls-2" x="257.17" y="83.43" width="9.27" height="9.27"/><rect class="cls-2" x="266.04" y="55.64" width="9.27" height="9.27"/><rect class="cls-2" x="266.04" y="64.9" width="9.27" height="9.27"/><rect class="cls-2" x="266.04" y="74.17" width="9.27" height="9.27"/><rect class="cls-2" x="266.04" y="83.43" width="9.27" height="9.27"/><rect class="cls-2" x="274.92" y="55.64" width="9.27" height="9.27"/><rect class="cls-2" x="274.92" y="64.9" width="9.27" height="9.27"/><rect class="cls-2" x="274.92" y="74.17" width="9.27" height="9.27"/><rect class="cls-2" x="274.92" y="83.43" width="9.27" height="9.27"/><rect class="cls-2" x="283.79" y="55.64" width="9.27" height="9.27"/><rect class="cls-2" x="283.79" y="64.9" width="9.27" height="9.27"/><rect class="cls-2" x="283.79" y="74.17" width="9.27" height="9.27"/><rect class="cls-2" x="283.79" y="83.43" width="9.27" height="9.27"/><line class="cls-33" x1="261.8" y1="69.53" x2="289.58" y2="69.53"/><rect class="cls-34" x="255" y="54" width="39.5" height="41" rx="2" ry="2"/><rect class="cls-35" x="311.17" y="168.48" width="9.27" height="9.27"/><rect class="cls-35" x="320.04" y="168.48" width="9.27" height="9.27"/><rect class="cls-35" x="328.92" y="168.48" width="9.27" height="9.27"/><rect class="cls-35" x="337.79" y="168.48" width="9.27" height="9.27"/><rect class="cls-35" x="311.17" y="177.75" width="9.27" height="9.27"/><rect class="cls-35" x="311.17" y="187.02" width="9.27" height="9.27"/><rect class="cls-35" x="311.17" y="196.28" width="9.27" height="9.27"/><rect class="cls-35" x="320.04" y="177.75" width="9.27" height="9.27"/><rect class="cls-35" x="320.04" y="187.02" width="9.27" height="9.27"/><rect class="cls-35" x="320.04" y="196.28" width="9.27" height="9.27"/><rect class="cls-35" x="328.92" y="177.75" width="9.27" height="9.27"/><rect class="cls-35" x="328.92" y="187.02" width="9.27" height="9.27"/><rect class="cls-35" x="328.92" y="196.28" width="9.27" height="9.27"/><rect class="cls-35" x="337.79" y="177.75" width="9.27" height="9.27"/><rect class="cls-35" x="337.79" y="187.02" width="9.27" height="9.27"/><rect class="cls-35" x="337.79" y="196.28" width="9.27" height="9.27"/><line class="cls-36" x1="333.55" y1="173.12" x2="333.55" y2="200.91"/><rect class="cls-2" x="257.17" y="167.64" width="9.27" height="9.27"/><rect class="cls-2" x="257.17" y="176.9" width="9.27" height="9.27"/><rect class="cls-2" x="257.17" y="186.17" width="9.27" height="9.27"/><rect class="cls-2" x="257.17" y="195.43" width="9.27" height="9.27"/><rect class="cls-2" x="266.04" y="167.64" width="9.27" height="9.27"/><rect class="cls-2" x="266.04" y="176.9" width="9.27" height="9.27"/><rect class="cls-2" x="266.04" y="186.17" width="9.27" height="9.27"/><rect class="cls-2" x="266.04" y="195.43" width="9.27" height="9.27"/><rect class="cls-2" x="274.92" y="167.64" width="9.27" height="9.27"/><rect class="cls-2" x="274.92" y="176.9" width="9.27" height="9.27"/><rect class="cls-2" x="274.92" y="186.17" width="9.27" height="9.27"/><rect class="cls-2" x="274.92" y="195.43" width="9.27" height="9.27"/><rect class="cls-2" x="283.79" y="167.64" width="9.27" height="9.27"/><rect class="cls-2" x="283.79" y="176.9" width="9.27" height="9.27"/><rect class="cls-2" x="283.79" y="186.17" width="9.27" height="9.27"/><rect class="cls-2" x="283.79" y="195.43" width="9.27" height="9.27"/><line class="cls-33" x1="261.8" y1="181.53" x2="289.58" y2="181.53"/><rect class="cls-34" x="255" y="166" width="39.5" height="41" rx="2" ry="2"/></g></g></svg>