<svg id="Layer_1" data-name="Layer 1" xmlns="http://www.w3.org/2000/svg" viewBox="0 0 349.53 202.43"><defs><style>.cls-1{fill:#e7ebe8;}.cls-2,.cls-7,.cls-8{fill:none;stroke:#58595b;stroke-width:2px;}.cls-2,.cls-8{stroke-miterlimit:10;}.cls-3,.cls-4,.cls-9{fill:#58595b;}.cls-4{font-size:13px;}.cls-4,.cls-9{font-family:MyriadPro-Semibold, Myriad Pro;font-weight:700;}.cls-5{letter-spacing:-0.02em;}.cls-6{letter-spacing:-0.01em;}.cls-7{stroke-linecap:round;stroke-linejoin:round;}.cls-7,.cls-8{stroke-dasharray:0.25 4;}.cls-8{stroke-linecap:square;}.cls-9{font-size:10px;}</style></defs><title>gridworld-puzzle</title><rect class="cls-1" x="28.44" y="15.01" width="25.45" height="25.45"/><rect class="cls-1" x="55.27" y="15.01" width="25.45" height="25.45"/><rect class="cls-1" x="82.18" y="15.03" width="25.45" height="25.45"/><rect class="cls-1" x="1.5" y="41.93" width="25.45" height="25.45"/><rect class="cls-1" x="28.44" y="41.95" width="25.45" height="25.45"/><rect class="cls-1" x="55.27" y="41.96" width="25.45" height="25.45"/><rect class="cls-1" x="1.5" y="68.85" width="25.45" height="25.45"/><rect class="cls-1" x="28.44" y="68.87" width="25.45" height="25.45"/><rect class="cls-1" x="55.27" y="68.88" width="25.45" height="25.45"/><rect class="cls-1" x="82.18" y="68.89" width="25.45" height="25.45"/><rect class="cls-1" x="148.79" y="15" width="25.45" height="25.45"/><rect class="cls-1" x="175.62" y="15.01" width="25.45" height="25.45"/><rect class="cls-1" x="202.53" y="15.02" width="25.45" height="25.45"/><rect class="cls-1" x="121.85" y="41.92" width="25.45" height="25.45"/><rect class="cls-1" x="148.79" y="41.94" width="25.45" height="25.45"/><rect class="cls-1" x="175.62" y="41.95" width="25.45" height="25.45"/><rect class="cls-1" x="121.85" y="68.84" width="25.45" height="25.45"/><rect class="cls-1" x="148.79" y="68.86" width="25.45" height="25.45"/><rect class="cls-1" x="175.62" y="68.87" width="25.45" height="25.45"/><rect class="cls-1" x="202.53" y="68.88" width="25.45" height="25.45"/><rect class="cls-1" x="269.14" y="14.99" width="25.45" height="25.45"/><rect class="cls-1" x="295.97" y="15" width="25.45" height="25.45"/><rect class="cls-1" x="322.87" y="15.01" width="25.45" height="25.45"/><rect class="cls-1" x="242.2" y="41.91" width="25.45" height="25.45"/><rect class="cls-1" x="269.14" y="41.94" width="25.45" height="25.45"/><rect class="cls-1" x="295.97" y="41.94" width="25.45" height="25.45"/><rect class="cls-1" x="242.2" y="68.83" width="25.45" height="25.45"/><rect class="cls-1" x="269.14" y="68.86" width="25.45" height="25.45"/><rect class="cls-1" x="295.97" y="68.86" width="25.45" height="25.45"/><rect class="cls-1" x="322.87" y="68.87" width="25.45" height="25.45"/><rect class="cls-1" x="148.79" y="123.1" width="25.45" height="25.45"/><rect class="cls-1" x="175.62" y="123.11" width="25.45" height="25.45"/><rect class="cls-1" x="202.53" y="123.12" width="25.45" height="25.45"/><rect class="cls-1" x="121.85" y="150.02" width="25.45" height="25.45"/><rect class="cls-1" x="148.79" y="150.04" width="25.45" height="25.45"/><rect class="cls-1" x="175.62" y="150.05" width="25.45" height="25.45"/><rect class="cls-1" x="121.85" y="176.94" width="25.45" height="25.45"/><rect class="cls-1" x="148.79" y="176.97" width="25.45" height="25.45"/><rect class="cls-1" x="175.62" y="176.97" width="25.45" height="25.45"/><rect class="cls-1" x="202.53" y="176.98" width="25.45" height="25.45"/><polyline class="cls-2" points="14.23 54.7 14.23 81.61 41.11 81.61 68 81.57 94.9 81.57"/><rect class="cls-3" x="1.5" y="14.98" width="25.45" height="25.45"/><rect class="cls-3" x="82.18" y="41.97" width="25.45" height="25.45"/><rect class="cls-3" x="121.85" y="14.97" width="25.45" height="25.45"/><rect class="cls-3" x="202.53" y="41.96" width="25.45" height="25.45"/><rect class="cls-3" x="242.2" y="14.96" width="25.45" height="25.45"/><rect class="cls-3" x="322.87" y="41.95" width="25.45" height="25.45"/><text class="cls-4" transform="translate(36.98 9.55)"><tspan class="cls-5">P</tspan><tspan class="cls-6" x="6.99" y="0">a</tspan><tspan x="13.52" y="0">th 1</tspan></text><text class="cls-4" transform="translate(157.32 9.23)"><tspan class="cls-5">P</tspan><tspan class="cls-6" x="6.99" y="0">a</tspan><tspan x="13.52" y="0">th 2</tspan></text><text class="cls-4" transform="translate(277.67 9.55)"><tspan class="cls-5">P</tspan><tspan class="cls-6" x="6.99" y="0">a</tspan><tspan x="13.52" y="0">th 3</tspan></text><rect class="cls-3" x="121.85" y="123.07" width="25.45" height="25.45"/><rect class="cls-3" x="202.53" y="150.06" width="25.45" height="25.45"/><text class="cls-4" transform="translate(157.32 117.66)"><tspan class="cls-5">P</tspan><tspan class="cls-6" x="6.99" y="0">a</tspan><tspan x="13.52" y="0">th 4</tspan></text><circle class="cls-3" cx="14.23" cy="81.62" r="2.95"/><circle class="cls-3" cx="41.11" cy="81.62" r="2.95"/><circle class="cls-3" cx="68" cy="81.57" r="2.95"/><circle class="cls-3" cx="94.9" cy="81.57" r="2.95"/><circle class="cls-3" cx="14.23" cy="54.69" r="2.95"/><polyline class="cls-7" points="134.57 54.69 161.51 54.67 161.46 81.61 188.35 81.56 188.38 54.63"/><circle class="cls-3" cx="161.51" cy="54.67" r="2.95"/><circle class="cls-3" cx="161.46" cy="81.61" r="2.95"/><circle class="cls-3" cx="188.35" cy="81.56" r="2.95"/><circle class="cls-3" cx="188.38" cy="54.63" r="2.95"/><circle class="cls-3" cx="134.57" cy="54.69" r="2.95"/><path class="cls-8" d="M254.92,54.68v0l26.89-.09.05-26.18H335.6"/><line class="cls-2" x1="134.57" y1="162.79" x2="161.46" y2="162.79"/><circle class="cls-3" cx="281.81" cy="54.63" r="2.95"/><circle class="cls-3" cx="281.86" cy="28.45" r="2.95"/><circle class="cls-3" cx="308.69" cy="28.45" r="2.95"/><circle class="cls-3" cx="335.6" cy="28.45" r="2.95"/><circle class="cls-3" cx="254.92" cy="54.68" r="2.95"/><circle class="cls-3" cx="161.46" cy="162.79" r="2.95"/><circle class="cls-3" cx="134.57" cy="162.79" r="2.95"/><text class="cls-4" transform="translate(165.76 166.9)">?</text><text class="cls-9" transform="translate(89.1 91.81)">+5</text><text class="cls-9" transform="translate(184.13 48.89)">-1</text><text class="cls-9" transform="translate(329.94 38.5)">+1</text></svg>