<svg id="Layer_1" data-name="Layer 1" xmlns="http://www.w3.org/2000/svg" viewBox="0 0 349.5271 202.43067">
  <defs>
    <style>
      .cls-1 {
        fill: #e7ebe8;
      }

      .cls-2, .cls-7, .cls-8 {
        fill: none;
        stroke: #58595b;
        stroke-width: 2px;
      }

      .cls-2, .cls-8 {
        stroke-miterlimit: 10;
      }

      .cls-3, .cls-4, .cls-9 {
        fill: #58595b;
      }

      .cls-4 {
        font-size: 13px;
      }

      .cls-4, .cls-9 {
        font-family: MyriadPro-Semibold, Myriad Pro;
        font-weight: 700;
      }

      .cls-5 {
        letter-spacing: -0.021em;
      }

      .cls-6 {
        letter-spacing: -0.00601em;
      }

      .cls-7 {
        stroke-linecap: round;
        stroke-linejoin: round;
      }

      .cls-7, .cls-8 {
        stroke-dasharray: 0.25 4;
      }

      .cls-8 {
        stroke-linecap: square;
      }

      .cls-9 {
        font-size: 10px;
      }
    </style>
  </defs>
  <title>gridworld-puzzle</title>
  <rect class="cls-1" x="28.44111" y="15.00927" width="25.44966" height="25.44966"/>
  <rect class="cls-1" x="55.27304" y="15.01459" width="25.44966" height="25.44966"/>
  <rect class="cls-1" x="82.17738" y="15.02525" width="25.44966" height="25.44966"/>
  <rect class="cls-1" x="1.50157" y="41.92671" width="25.44966" height="25.44966"/>
  <rect class="cls-1" x="28.44111" y="41.954" width="25.44966" height="25.44966"/>
  <rect class="cls-1" x="55.27304" y="41.95933" width="25.44966" height="25.44966"/>
  <rect class="cls-1" x="1.50157" y="68.84715" width="25.44966" height="25.44966"/>
  <rect class="cls-1" x="28.44111" y="68.87444" width="25.44966" height="25.44966"/>
  <rect class="cls-1" x="55.27304" y="68.87976" width="25.44966" height="25.44966"/>
  <rect class="cls-1" x="82.17738" y="68.89042" width="25.44966" height="25.44966"/>
  <rect class="cls-1" x="148.78879" y="14.99978" width="25.44966" height="25.44966"/>
  <rect class="cls-1" x="175.62072" y="15.00511" width="25.44966" height="25.44966"/>
  <rect class="cls-1" x="202.52505" y="15.01576" width="25.44966" height="25.44966"/>
  <rect class="cls-1" x="121.84925" y="41.91723" width="25.44966" height="25.44966"/>
  <rect class="cls-1" x="148.78879" y="41.94451" width="25.44966" height="25.44966"/>
  <rect class="cls-1" x="175.62072" y="41.94984" width="25.44966" height="25.44966"/>
  <rect class="cls-1" x="121.84925" y="68.83767" width="25.44966" height="25.44966"/>
  <rect class="cls-1" x="148.78879" y="68.86495" width="25.44966" height="25.44966"/>
  <rect class="cls-1" x="175.62072" y="68.87028" width="25.44966" height="25.44966"/>
  <rect class="cls-1" x="202.52505" y="68.88093" width="25.44966" height="25.44966"/>
  <rect class="cls-1" x="269.13647" y="14.99029" width="25.44966" height="25.44966"/>
  <rect class="cls-1" x="295.96839" y="14.99562" width="25.44966" height="25.44966"/>
  <rect class="cls-1" x="322.87273" y="15.00628" width="25.44966" height="25.44966"/>
  <rect class="cls-1" x="242.19692" y="41.90774" width="25.44966" height="25.44966"/>
  <rect class="cls-1" x="269.13647" y="41.93503" width="25.44966" height="25.44966"/>
  <rect class="cls-1" x="295.96839" y="41.94035" width="25.44966" height="25.44966"/>
  <rect class="cls-1" x="242.19692" y="68.82818" width="25.44966" height="25.44966"/>
  <rect class="cls-1" x="269.13647" y="68.85546" width="25.44966" height="25.44966"/>
  <rect class="cls-1" x="295.96839" y="68.86079" width="25.44966" height="25.44966"/>
  <rect class="cls-1" x="322.87273" y="68.87145" width="25.44966" height="25.44966"/>
  <rect class="cls-1" x="148.78879" y="123.09985" width="25.44966" height="25.44966"/>
  <rect class="cls-1" x="175.62072" y="123.10518" width="25.44966" height="25.44966"/>
  <rect class="cls-1" x="202.52505" y="123.11583" width="25.44966" height="25.44966"/>
  <rect class="cls-1" x="121.84925" y="150.0173" width="25.44966" height="25.44966"/>
  <rect class="cls-1" x="148.78879" y="150.04458" width="25.44966" height="25.44966"/>
  <rect class="cls-1" x="175.62072" y="150.04991" width="25.44966" height="25.44966"/>
  <rect class="cls-1" x="121.84925" y="176.93774" width="25.44966" height="25.44966"/>
  <rect class="cls-1" x="148.78879" y="176.96502" width="25.44966" height="25.44966"/>
  <rect class="cls-1" x="175.62072" y="176.97035" width="25.44966" height="25.44966"/>
  <rect class="cls-1" x="202.52505" y="176.981" width="25.44966" height="25.44966"/>
  <g>
    <polyline class="cls-2" points="14.226 54.695 14.226 81.615 41.112 81.615 67.998 81.572 94.902 81.572"/>
    <rect class="cls-3" x="1.50157" y="14.98198" width="25.44966" height="25.44966"/>
    <rect class="cls-3" x="82.17738" y="41.96998" width="25.44966" height="25.44966"/>
    <rect class="cls-3" x="121.84925" y="14.97249" width="25.44966" height="25.44966"/>
    <rect class="cls-3" x="202.52505" y="41.9605" width="25.44966" height="25.44966"/>
    <rect class="cls-3" x="242.19692" y="14.96301" width="25.44966" height="25.44966"/>
    <rect class="cls-3" x="322.87273" y="41.95101" width="25.44966" height="25.44966"/>
    <text class="cls-4" transform="translate(36.97549 9.54959)"><tspan class="cls-5">P</tspan><tspan class="cls-6" x="6.99414" y="0">a</tspan><tspan x="13.52002" y="0">th 1</tspan></text>
    <text class="cls-4" transform="translate(157.3232 9.22891)"><tspan class="cls-5">P</tspan><tspan class="cls-6" x="6.99414" y="0">a</tspan><tspan x="13.52002" y="0">th 2</tspan></text>
    <text class="cls-4" transform="translate(277.67092 9.54959)"><tspan class="cls-5">P</tspan><tspan class="cls-6" x="6.99414" y="0">a</tspan><tspan x="13.52002" y="0">th 3</tspan></text>
    <rect class="cls-3" x="121.84925" y="123.07256" width="25.44966" height="25.44966"/>
    <rect class="cls-3" x="202.52505" y="150.06057" width="25.44966" height="25.44966"/>
    <text class="cls-4" transform="translate(157.3232 117.65945)"><tspan class="cls-5">P</tspan><tspan class="cls-6" x="6.99414" y="0">a</tspan><tspan x="13.52002" y="0">th 4</tspan></text>
    <circle class="cls-3" cx="14.2264" cy="81.61525" r="2.94884"/>
    <circle class="cls-3" cx="41.11214" cy="81.61525" r="2.94884"/>
    <circle class="cls-3" cx="67.99787" cy="81.57198" r="2.94884"/>
    <circle class="cls-3" cx="94.90221" cy="81.57198" r="2.94884"/>
    <circle class="cls-3" cx="14.2264" cy="54.69482" r="2.94884"/>
    <polyline class="cls-7" points="134.574 54.685 161.514 54.669 161.46 81.606 188.346 81.562 188.382 54.633"/>
    <circle class="cls-3" cx="161.51362" cy="54.66935" r="2.94884"/>
    <circle class="cls-3" cx="161.45981" cy="81.60577" r="2.94884"/>
    <circle class="cls-3" cx="188.34555" cy="81.5625" r="2.94884"/>
    <circle class="cls-3" cx="188.38175" cy="54.63257" r="2.94884"/>
    <circle class="cls-3" cx="134.57408" cy="54.68533" r="2.94884"/>
    <path class="cls-8" d="M254.92175,54.67584v.04327l26.88574-.08654L281.8613,28.449l26.83193.00266,26.90433-.00266"/>
    <line class="cls-2" x1="134.57408" y1="162.7854" x2="161.45981" y2="162.7854"/>
    <circle class="cls-3" cx="281.80749" cy="54.63257" r="2.94884"/>
    <circle class="cls-3" cx="281.8613" cy="28.44902" r="2.94884"/>
    <circle class="cls-3" cx="308.69323" cy="28.45168" r="2.94884"/>
    <circle class="cls-3" cx="335.59756" cy="28.44902" r="2.94884"/>
    <circle class="cls-3" cx="254.92175" cy="54.67584" r="2.94884"/>
    <circle class="cls-3" cx="161.45981" cy="162.7854" r="2.94884"/>
    <circle class="cls-3" cx="134.57408" cy="162.7854" r="2.94884"/>
    <text class="cls-4" transform="translate(165.75838 166.89901)">?</text>
    <text class="cls-9" transform="translate(89.10354 91.81436)">+5</text>
    <text class="cls-9" transform="translate(184.12692 48.88613)">-1</text>
    <text class="cls-9" transform="translate(329.93783 38.49941)">+1</text>
  </g>
</svg>
