<svg id="Layer_1" data-name="Layer 1" xmlns="http://www.w3.org/2000/svg" viewBox="0 0 581.95332 305.7559">
  <defs>
    <style>
      .cls-1 {
        fill: #e7ebe8;
      }

      .cls-2 {
        font-size: 13px;
      }

      .cls-14, .cls-2, .cls-5 {
        fill: #58595b;
      }

      .cls-19, .cls-2, .cls-22, .cls-5 {
        font-family: MyriadPro-Semibold, Myriad Pro;
        font-weight: 700;
      }

      .cls-3 {
        letter-spacing: -0.021em;
      }

      .cls-4 {
        letter-spacing: -0.00601em;
      }

      .cls-5 {
        font-size: 10px;
      }

      .cls-6 {
        letter-spacing: -0.00898em;
      }

      .cls-7 {
        fill: #4068b2;
      }

      .cls-8 {
        letter-spacing: 0.003em;
      }

      .cls-9 {
        letter-spacing: -0.00901em;
      }

      .cls-10 {
        letter-spacing: 0.016em;
      }

      .cls-11, .cls-12, .cls-13 {
        fill: none;
        stroke: #58595b;
        stroke-width: 2px;
      }

      .cls-11, .cls-13 {
        stroke-miterlimit: 10;
      }

      .cls-12 {
        stroke-linecap: round;
        stroke-linejoin: round;
      }

      .cls-12, .cls-13 {
        stroke-dasharray: 0.25 4;
      }

      .cls-13 {
        stroke-linecap: square;
      }

      .cls-15 {
        letter-spacing: 0.005em;
      }

      .cls-16 {
        letter-spacing: -0.005em;
      }

      .cls-17 {
        letter-spacing: 0.013em;
      }

      .cls-18 {
        letter-spacing: -0.003em;
      }

      .cls-19 {
        font-size: 6px;
      }

      .cls-19, .cls-22 {
        fill: #f1f2f2;
      }

      .cls-20 {
        fill: #be1e2d;
      }

      .cls-21 {
        fill: #6b6b6b;
      }

      .cls-22 {
        font-size: 4px;
      }
    </style>
  </defs>
  <title>gridworld-puzzle-solved</title>
  <rect class="cls-1" x="127.50215" y="15.00927" width="25.44966" height="25.44966"/>
  <rect class="cls-1" x="154.33408" y="15.01459" width="25.44966" height="25.44966"/>
  <rect class="cls-1" x="181.23842" y="15.02525" width="25.44966" height="25.44966"/>
  <rect class="cls-1" x="100.56261" y="41.92671" width="25.44966" height="25.44966"/>
  <rect class="cls-1" x="127.50215" y="41.954" width="25.44966" height="25.44966"/>
  <rect class="cls-1" x="154.33408" y="41.95933" width="25.44966" height="25.44966"/>
  <rect class="cls-1" x="100.56261" y="68.84715" width="25.44966" height="25.44966"/>
  <rect class="cls-1" x="127.50215" y="68.87444" width="25.44966" height="25.44966"/>
  <rect class="cls-1" x="154.33408" y="68.87976" width="25.44966" height="25.44966"/>
  <rect class="cls-1" x="181.23842" y="68.89042" width="25.44966" height="25.44966"/>
  <text class="cls-2" transform="translate(136.03657 9.55038)"><tspan class="cls-3">P</tspan><tspan class="cls-4" x="6.99414" y="0">a</tspan><tspan x="13.52002" y="0">th 1</tspan></text>
  <rect class="cls-1" x="502.76739" y="15.21307" width="25.44966" height="25.44966"/>
  <rect class="cls-1" x="529.59931" y="15.2184" width="25.44966" height="25.44966"/>
  <rect class="cls-1" x="556.50365" y="15.22906" width="25.44966" height="25.44966"/>
  <rect class="cls-1" x="475.82784" y="42.13052" width="25.44966" height="25.44966"/>
  <rect class="cls-1" x="502.76739" y="42.15781" width="25.44966" height="25.44966"/>
  <rect class="cls-1" x="529.59931" y="42.16313" width="25.44966" height="25.44966"/>
  <rect class="cls-1" x="475.82784" y="69.05096" width="25.44966" height="25.44966"/>
  <rect class="cls-1" x="502.76739" y="69.07824" width="25.44966" height="25.44966"/>
  <rect class="cls-1" x="529.59931" y="69.08357" width="25.44966" height="25.44966"/>
  <rect class="cls-1" x="556.50365" y="69.09423" width="25.44966" height="25.44966"/>
  <text class="cls-2" transform="translate(511.30231 9.7731)"><tspan class="cls-3">P</tspan><tspan class="cls-4" x="6.99414" y="0">a</tspan><tspan x="13.52002" y="0">th 4</tspan></text>
  <text class="cls-2" transform="translate(519.73749 59.01266)">?</text>
  <text class="cls-5" transform="translate(188.30292 91.66464)">+5</text>
  <rect class="cls-1" x="247.84983" y="14.99978" width="25.44966" height="25.44966"/>
  <rect class="cls-1" x="274.68176" y="15.00511" width="25.44966" height="25.44966"/>
  <rect class="cls-1" x="301.58609" y="15.01576" width="25.44966" height="25.44966"/>
  <rect class="cls-1" x="220.91029" y="41.91723" width="25.44966" height="25.44966"/>
  <rect class="cls-1" x="247.84983" y="41.94451" width="25.44966" height="25.44966"/>
  <rect class="cls-1" x="274.68176" y="41.94984" width="25.44966" height="25.44966"/>
  <rect class="cls-1" x="220.91029" y="68.83767" width="25.44966" height="25.44966"/>
  <rect class="cls-1" x="247.84983" y="68.86495" width="25.44966" height="25.44966"/>
  <rect class="cls-1" x="274.68176" y="68.87028" width="25.44966" height="25.44966"/>
  <rect class="cls-1" x="301.58609" y="68.88093" width="25.44966" height="25.44966"/>
  <text class="cls-2" transform="translate(256.38422 9.22971)"><tspan class="cls-3">P</tspan><tspan class="cls-4" x="6.99414" y="0">a</tspan><tspan x="13.52002" y="0">th 2</tspan></text>
  <text class="cls-5" transform="translate(283.18806 50.33835)">-1</text>
  <rect class="cls-1" x="368.19751" y="14.99029" width="25.44966" height="25.44966"/>
  <rect class="cls-1" x="395.02943" y="14.99562" width="25.44966" height="25.44966"/>
  <rect class="cls-1" x="421.93377" y="15.00628" width="25.44966" height="25.44966"/>
  <rect class="cls-1" x="341.25796" y="41.90774" width="25.44966" height="25.44966"/>
  <rect class="cls-1" x="368.19751" y="41.93503" width="25.44966" height="25.44966"/>
  <rect class="cls-1" x="395.02943" y="41.94035" width="25.44966" height="25.44966"/>
  <rect class="cls-1" x="341.25796" y="68.82818" width="25.44966" height="25.44966"/>
  <rect class="cls-1" x="368.19751" y="68.85546" width="25.44966" height="25.44966"/>
  <rect class="cls-1" x="395.02943" y="68.86079" width="25.44966" height="25.44966"/>
  <rect class="cls-1" x="421.93377" y="68.87145" width="25.44966" height="25.44966"/>
  <text class="cls-2" transform="translate(376.73212 9.55038)"><tspan class="cls-3">P</tspan><tspan class="cls-4" x="6.99414" y="0">a</tspan><tspan x="13.52002" y="0">th 3</tspan></text>
  <text class="cls-5" transform="translate(428.99848 38.50113)">+1</text>
  <text class="cls-2" transform="translate(11.19154 56.80716)">Experien<tspan class="cls-6" x="49.52979" y="0">c</tspan><tspan x="55.25" y="0">e</tspan></text>
  <rect class="cls-1" x="127.50215" y="132.42363" width="25.44966" height="25.44966"/>
  <rect class="cls-1" x="154.33408" y="132.42896" width="25.44966" height="25.44966"/>
  <rect class="cls-1" x="181.23842" y="132.43962" width="25.44966" height="25.44966"/>
  <rect class="cls-1" x="100.56261" y="159.34108" width="25.44966" height="25.44966"/>
  <rect class="cls-1" x="127.50215" y="159.36837" width="25.44966" height="25.44966"/>
  <rect class="cls-1" x="154.33408" y="159.37369" width="25.44966" height="25.44966"/>
  <rect class="cls-1" x="100.56261" y="186.26152" width="25.44966" height="25.44966"/>
  <rect class="cls-1" x="127.50215" y="186.2888" width="25.44966" height="25.44966"/>
  <rect class="cls-1" x="154.33408" y="186.29413" width="25.44966" height="25.44966"/>
  <rect class="cls-1" x="181.23842" y="186.30479" width="25.44966" height="25.44966"/>
  <polygon class="cls-7" points="152.98 199.014 145.572 193.723 145.572 204.305 152.98 199.014"/>
  <polygon class="cls-7" points="126.04 198.971 118.632 193.681 118.632 204.262 126.04 198.971"/>
  <polygon class="cls-7" points="179.812 199.027 172.404 193.736 172.404 204.318 179.812 199.027"/>
  <rect class="cls-1" x="247.84983" y="132.41415" width="25.44966" height="25.44966"/>
  <rect class="cls-1" x="274.68176" y="132.41947" width="25.44966" height="25.44966"/>
  <rect class="cls-1" x="301.58609" y="132.43013" width="25.44966" height="25.44966"/>
  <rect class="cls-1" x="220.91029" y="159.3316" width="25.44966" height="25.44966"/>
  <rect class="cls-1" x="247.84983" y="159.35888" width="25.44966" height="25.44966"/>
  <rect class="cls-1" x="274.68176" y="159.36421" width="25.44966" height="25.44966"/>
  <rect class="cls-1" x="220.91029" y="186.25203" width="25.44966" height="25.44966"/>
  <rect class="cls-1" x="247.84983" y="186.27932" width="25.44966" height="25.44966"/>
  <rect class="cls-1" x="274.68176" y="186.28465" width="25.44966" height="25.44966"/>
  <rect class="cls-1" x="301.58609" y="186.2953" width="25.44966" height="25.44966"/>
  <rect class="cls-1" x="368.19751" y="132.45742" width="25.44966" height="25.44966"/>
  <rect class="cls-1" x="395.02943" y="132.46274" width="25.44966" height="25.44966"/>
  <rect class="cls-1" x="421.93377" y="132.4734" width="25.44966" height="25.44966"/>
  <rect class="cls-1" x="341.25796" y="159.37486" width="25.44966" height="25.44966"/>
  <rect class="cls-1" x="368.19751" y="159.40215" width="25.44966" height="25.44966"/>
  <rect class="cls-1" x="395.02943" y="159.40748" width="25.44966" height="25.44966"/>
  <rect class="cls-1" x="341.25796" y="186.2953" width="25.44966" height="25.44966"/>
  <rect class="cls-1" x="368.19751" y="186.32259" width="25.44966" height="25.44966"/>
  <rect class="cls-1" x="395.02943" y="186.32791" width="25.44966" height="25.44966"/>
  <rect class="cls-1" x="421.93377" y="186.33857" width="25.44966" height="25.44966"/>
  <rect class="cls-1" x="502.56539" y="132.40466" width="25.44966" height="25.44966"/>
  <rect class="cls-1" x="529.39732" y="132.40999" width="25.44966" height="25.44966"/>
  <rect class="cls-1" x="556.30165" y="132.42064" width="25.44966" height="25.44966"/>
  <rect class="cls-1" x="475.62585" y="159.32211" width="25.44966" height="25.44966"/>
  <rect class="cls-1" x="502.56539" y="159.34939" width="25.44966" height="25.44966"/>
  <rect class="cls-1" x="529.39732" y="159.35472" width="25.44966" height="25.44966"/>
  <rect class="cls-1" x="475.62585" y="186.24255" width="25.44966" height="25.44966"/>
  <rect class="cls-1" x="502.56539" y="186.26983" width="25.44966" height="25.44966"/>
  <rect class="cls-1" x="529.39732" y="186.27516" width="25.44966" height="25.44966"/>
  <rect class="cls-1" x="556.30165" y="186.28582" width="25.44966" height="25.44966"/>
  <text class="cls-2" transform="translate(489.93 127.06113)"><tspan class="cls-8">G</tspan><tspan class="cls-9" x="8.69678" y="0">r</tspan><tspan x="13.20752" y="0">eedy poli</tspan><tspan class="cls-10" x="64.97314" y="0">c</tspan><tspan x="71.01807" y="0">y</tspan></text>
  <rect class="cls-1" x="127.60315" y="226.3913" width="25.44966" height="25.44966"/>
  <rect class="cls-1" x="154.43508" y="226.39662" width="25.44966" height="25.44966"/>
  <rect class="cls-1" x="181.33942" y="226.40728" width="25.44966" height="25.44966"/>
  <rect class="cls-1" x="100.66361" y="253.30874" width="25.44966" height="25.44966"/>
  <rect class="cls-1" x="127.60315" y="253.33603" width="25.44966" height="25.44966"/>
  <rect class="cls-1" x="154.43508" y="253.34136" width="25.44966" height="25.44966"/>
  <rect class="cls-1" x="100.66361" y="280.22918" width="25.44966" height="25.44966"/>
  <rect class="cls-1" x="127.60315" y="280.25647" width="25.44966" height="25.44966"/>
  <rect class="cls-1" x="154.43508" y="280.26179" width="25.44966" height="25.44966"/>
  <rect class="cls-1" x="181.33942" y="280.27245" width="25.44966" height="25.44966"/>
  <rect class="cls-1" x="247.95083" y="226.38181" width="25.44966" height="25.44966"/>
  <rect class="cls-1" x="274.78276" y="226.38714" width="25.44966" height="25.44966"/>
  <rect class="cls-1" x="301.68709" y="226.39779" width="25.44966" height="25.44966"/>
  <rect class="cls-1" x="221.01129" y="253.29926" width="25.44966" height="25.44966"/>
  <rect class="cls-1" x="247.95083" y="253.32654" width="25.44966" height="25.44966"/>
  <rect class="cls-1" x="274.78276" y="253.33187" width="25.44966" height="25.44966"/>
  <rect class="cls-1" x="221.01129" y="280.2197" width="25.44966" height="25.44966"/>
  <rect class="cls-1" x="247.95083" y="280.24698" width="25.44966" height="25.44966"/>
  <rect class="cls-1" x="274.78276" y="280.25231" width="25.44966" height="25.44966"/>
  <rect class="cls-1" x="301.68709" y="280.26296" width="25.44966" height="25.44966"/>
  <rect class="cls-1" x="368.29851" y="226.42508" width="25.44966" height="25.44966"/>
  <rect class="cls-1" x="395.13043" y="226.43041" width="25.44966" height="25.44966"/>
  <rect class="cls-1" x="422.03477" y="226.44106" width="25.44966" height="25.44966"/>
  <rect class="cls-1" x="341.35896" y="253.34253" width="25.44966" height="25.44966"/>
  <rect class="cls-1" x="368.29851" y="253.36981" width="25.44966" height="25.44966"/>
  <rect class="cls-1" x="395.13043" y="253.37514" width="25.44966" height="25.44966"/>
  <rect class="cls-1" x="341.35896" y="280.26296" width="25.44966" height="25.44966"/>
  <rect class="cls-1" x="368.29851" y="280.29025" width="25.44966" height="25.44966"/>
  <rect class="cls-1" x="395.13043" y="280.29558" width="25.44966" height="25.44966"/>
  <rect class="cls-1" x="422.03477" y="280.30623" width="25.44966" height="25.44966"/>
  <rect class="cls-1" x="502.66639" y="226.37232" width="25.44966" height="25.44966"/>
  <rect class="cls-1" x="529.49832" y="226.37765" width="25.44966" height="25.44966"/>
  <rect class="cls-1" x="556.40265" y="226.38831" width="25.44966" height="25.44966"/>
  <rect class="cls-1" x="475.72684" y="253.28977" width="25.44966" height="25.44966"/>
  <rect class="cls-1" x="502.66639" y="253.31706" width="25.44966" height="25.44966"/>
  <rect class="cls-1" x="529.49832" y="253.32238" width="25.44966" height="25.44966"/>
  <rect class="cls-1" x="475.72684" y="280.21021" width="25.44966" height="25.44966"/>
  <rect class="cls-1" x="502.66639" y="280.2375" width="25.44966" height="25.44966"/>
  <rect class="cls-1" x="529.49832" y="280.24282" width="25.44966" height="25.44966"/>
  <rect class="cls-1" x="556.40265" y="280.25348" width="25.44966" height="25.44966"/>
  <polyline class="cls-11" points="113.287 54.695 113.287 81.615 140.173 81.615 167.059 81.572 193.963 81.572"/>
  <polyline class="cls-12" points="233.635 54.685 260.575 54.669 260.521 81.606 287.407 81.562 287.443 54.633"/>
  <path class="cls-13" d="M353.9828,54.67584v.04327l26.88573-.08654.05381-26.18355,26.83193.00266L434.6586,28.449"/>
  <line class="cls-11" x1="488.55268" y1="54.89862" x2="515.43841" y2="54.89862"/>
  <line class="cls-11" x1="461.60564" y1="15.01576" x2="461.60564" y2="305.7559"/>
  <g>
    <rect class="cls-14" x="421.93377" y="41.95101" width="25.44966" height="25.44966"/>
    <circle class="cls-14" cx="260.57466" cy="54.66935" r="2.94884"/>
    <rect class="cls-14" x="100.56261" y="14.98198" width="25.44966" height="25.44966"/>
    <rect class="cls-14" x="181.23842" y="41.96998" width="25.44966" height="25.44966"/>
    <circle class="cls-14" cx="113.28744" cy="81.61525" r="2.94884"/>
    <circle class="cls-14" cx="140.17318" cy="81.61525" r="2.94884"/>
    <circle class="cls-14" cx="167.05891" cy="81.57198" r="2.94884"/>
    <circle class="cls-14" cx="193.96325" cy="81.57198" r="2.94884"/>
    <circle class="cls-14" cx="113.28744" cy="54.69482" r="2.94884"/>
    <rect class="cls-14" x="475.82784" y="15.18579" width="25.44966" height="25.44966"/>
    <rect class="cls-14" x="556.50365" y="42.17379" width="25.44966" height="25.44966"/>
    <circle class="cls-14" cx="515.43841" cy="54.89862" r="2.94884"/>
    <circle class="cls-14" cx="488.55268" cy="54.89862" r="2.94884"/>
    <rect class="cls-14" x="220.91029" y="14.97249" width="25.44966" height="25.44966"/>
    <rect class="cls-14" x="301.58609" y="41.9605" width="25.44966" height="25.44966"/>
    <circle class="cls-14" cx="260.52085" cy="81.60577" r="2.94884"/>
    <circle class="cls-14" cx="287.40659" cy="81.5625" r="2.94884"/>
    <circle class="cls-14" cx="287.44279" cy="54.63257" r="2.94884"/>
    <circle class="cls-14" cx="233.63512" cy="54.68533" r="2.94884"/>
    <rect class="cls-14" x="341.25796" y="14.96301" width="25.44966" height="25.44966"/>
    <circle class="cls-14" cx="380.86853" cy="54.63257" r="2.94884"/>
    <circle class="cls-14" cx="380.92234" cy="28.44902" r="2.94884"/>
    <circle class="cls-14" cx="407.75427" cy="28.45168" r="2.94884"/>
    <circle class="cls-14" cx="434.6586" cy="28.44902" r="2.94884"/>
    <circle class="cls-14" cx="353.9828" cy="54.67584" r="2.94884"/>
    <rect class="cls-14" x="100.56261" y="132.39635" width="25.44966" height="25.44966"/>
    <rect class="cls-14" x="181.23842" y="159.38435" width="25.44966" height="25.44966"/>
    <rect class="cls-14" x="220.91029" y="132.38686" width="25.44966" height="25.44966"/>
    <rect class="cls-14" x="301.58609" y="159.37486" width="25.44966" height="25.44966"/>
    <rect class="cls-14" x="341.25796" y="132.43013" width="25.44966" height="25.44966"/>
    <rect class="cls-14" x="421.93377" y="159.41813" width="25.44966" height="25.44966"/>
    <rect class="cls-14" x="475.62585" y="132.37738" width="25.44966" height="25.44966"/>
    <rect class="cls-14" x="556.30165" y="159.36538" width="25.44966" height="25.44966"/>
    <polygon class="cls-14" points="515.29 159.365 509.999 166.774 520.581 166.774 515.29 159.365"/>
    <polygon class="cls-14" points="488.325 184.747 493.616 177.338 483.034 177.338 488.325 184.747"/>
    <polygon class="cls-14" points="528.043 198.995 520.635 193.704 520.635 204.286 528.043 198.995"/>
    <polygon class="cls-14" points="501.104 198.952 493.695 193.662 493.695 204.243 501.104 198.952"/>
    <polygon class="cls-14" points="554.875 199.008 547.467 193.717 547.467 204.299 554.875 199.008"/>
    <polygon class="cls-14" points="554.929 145.173 547.521 139.882 547.521 150.464 554.929 145.173"/>
    <polygon class="cls-14" points="527.989 145.131 520.581 139.84 520.581 150.421 527.989 145.131"/>
    <rect class="cls-14" x="100.66361" y="226.36401" width="25.44966" height="25.44966"/>
    <rect class="cls-14" x="181.33942" y="253.35201" width="25.44966" height="25.44966"/>
    <rect class="cls-14" x="221.01129" y="226.35452" width="25.44966" height="25.44966"/>
    <rect class="cls-14" x="301.68709" y="253.34253" width="25.44966" height="25.44966"/>
    <rect class="cls-14" x="341.35896" y="226.39779" width="25.44966" height="25.44966"/>
    <rect class="cls-14" x="422.03477" y="253.3858" width="25.44966" height="25.44966"/>
    <rect class="cls-14" x="475.72684" y="226.34504" width="25.44966" height="25.44966"/>
    <rect class="cls-14" x="556.40265" y="253.33304" width="25.44966" height="25.44966"/>
    <polygon class="cls-14" points="515.366 278.757 520.656 271.349 510.075 271.349 515.366 278.757"/>
    <polygon class="cls-14" points="488.426 278.714 493.717 271.306 483.135 271.306 488.426 278.714"/>
    <polygon class="cls-14" points="528.144 292.963 520.736 287.672 520.736 298.254 528.144 292.963"/>
    <polygon class="cls-14" points="501.205 292.92 493.796 287.629 493.796 298.211 501.205 292.92"/>
    <polygon class="cls-14" points="554.976 292.976 547.568 287.685 547.568 298.266 554.976 292.976"/>
    <polygon class="cls-14" points="555.03 239.141 547.622 233.85 547.622 244.432 555.03 239.141"/>
    <polygon class="cls-14" points="528.09 239.098 520.682 233.807 520.682 244.389 528.09 239.098"/>
  </g>
  <text class="cls-2" transform="translate(7.75281 164.90823)"><tspan class="cls-15">M</tspan><tspan x="10.81592" y="0">o</tspan><tspan class="cls-16" x="18.14795" y="0">n</tspan><tspan class="cls-4" x="25.51904" y="0">t</tspan><tspan x="30.00391" y="0">e </tspan><tspan class="cls-6" x="39.40283" y="0">C</tspan><tspan x="46.93018" y="0">arlo</tspan><tspan class="cls-17" x="9.73047" y="15.6001">Q</tspan><tspan class="cls-18" x="19.05127" y="15.6001">-</tspan><tspan class="cls-4" x="23.10693" y="15.6001">v</tspan><tspan x="29.63281" y="15.6001">alues</tspan></text>
  <text class="cls-2" transform="translate(34.31769 255.9458)">TD<tspan class="cls-17" x="-16.83447" y="15.6001">Q</tspan><tspan class="cls-18" x="-7.51367" y="15.6001">-</tspan><tspan class="cls-4" x="-3.45801" y="15.6001">v</tspan><tspan x="3.06787" y="15.6001">alues</tspan></text>
  <polygon class="cls-7" points="113.287 184.782 118.578 177.373 107.997 177.373 113.287 184.782"/>
  <text class="cls-19" transform="translate(111.67878 181.92447)">5</text>
  <text class="cls-19" transform="translate(119.49287 200.92111)">5</text>
  <text class="cls-19" transform="translate(146.13618 200.92154)">5</text>
  <text class="cls-19" transform="translate(173.26435 200.92154)">5</text>
  <polygon class="cls-7" points="273.299 199.018 265.891 193.727 265.891 204.309 273.299 199.018"/>
  <polygon class="cls-7" points="246.36 198.975 238.952 193.685 238.952 204.266 246.36 198.975"/>
  <polygon class="cls-7" points="300.131 199.031 292.723 193.74 292.723 204.322 300.131 199.031"/>
  <polygon class="cls-7" points="233.607 184.786 238.898 177.377 228.316 177.377 233.607 184.786"/>
  <text class="cls-19" transform="translate(231.99824 181.92831)">5</text>
  <text class="cls-19" transform="translate(239.81226 200.92502)">5</text>
  <text class="cls-19" transform="translate(266.45557 200.92538)">2</text>
  <text class="cls-19" transform="translate(293.58362 200.92538)">5</text>
  <polygon class="cls-20" points="246.36 171.235 238.952 165.944 238.952 176.526 246.36 171.235"/>
  <text class="cls-19" transform="translate(239.26197 173.14218)">-1</text>
  <polygon class="cls-20" points="260.575 184.781 265.865 177.373 255.284 177.373 260.575 184.781"/>
  <text class="cls-19" transform="translate(258.02161 181.92392)">-1</text>
  <polygon class="cls-20" points="287.407 186.28 282.116 193.689 292.697 193.689 287.407 186.28"/>
  <text class="cls-19" transform="translate(284.85438 192.73312)">-1</text>
  <polygon class="cls-7" points="393.647 199.074 386.239 193.783 386.239 204.365 393.647 199.074"/>
  <polygon class="cls-7" points="366.708 199.032 359.299 193.741 359.299 204.322 366.708 199.032"/>
  <polygon class="cls-7" points="420.479 199.087 413.071 193.796 413.071 204.378 420.479 199.087"/>
  <polygon class="cls-7" points="353.955 184.842 359.245 177.434 348.664 177.434 353.955 184.842"/>
  <text class="cls-19" transform="translate(352.34583 181.98465)">5</text>
  <text class="cls-19" transform="translate(360.15992 200.98135)">5</text>
  <text class="cls-19" transform="translate(386.80323 200.98172)">2</text>
  <text class="cls-19" transform="translate(413.9314 200.98172)">5</text>
  <polygon class="cls-21" points="366.708 171.291 359.299 166 359.299 176.582 366.708 171.291"/>
  <text class="cls-19" transform="translate(360.55384 173.19852)">0</text>
  <polygon class="cls-20" points="380.922 184.838 386.213 177.429 375.632 177.429 380.922 184.838"/>
  <text class="cls-19" transform="translate(378.36927 181.98019)">-1</text>
  <polygon class="cls-20" points="407.754 186.337 402.463 193.745 413.045 193.745 407.754 186.337"/>
  <text class="cls-19" transform="translate(405.20203 192.7894)">-1</text>
  <polygon class="cls-7" points="381.023 159.322 375.733 166.731 386.314 166.731 381.023 159.322"/>
  <text class="cls-19" transform="translate(379.41553 165.77481)">1</text>
  <polygon class="cls-7" points="393.575 145.102 386.166 139.811 386.166 150.393 393.575 145.102"/>
  <text class="cls-19" transform="translate(386.73084 147.00961)">1</text>
  <polygon class="cls-7" points="420.442 145.102 413.033 139.811 413.033 150.393 420.442 145.102"/>
  <text class="cls-19" transform="translate(413.59791 147.00961)">1</text>
  <polygon class="cls-7" points="153.045 292.944 145.637 287.653 145.637 298.234 153.045 292.944"/>
  <polygon class="cls-7" points="126.106 292.901 118.697 287.61 118.697 298.192 126.106 292.901"/>
  <polygon class="cls-7" points="179.877 292.956 172.469 287.666 172.469 298.247 179.877 292.956"/>
  <polygon class="cls-7" points="113.353 278.711 118.644 271.303 108.062 271.303 113.353 278.711"/>
  <text class="cls-19" transform="translate(111.74421 275.85385)">5</text>
  <text class="cls-19" transform="translate(119.5583 294.85043)">5</text>
  <text class="cls-19" transform="translate(146.20161 294.8508)">5</text>
  <text class="cls-19" transform="translate(173.32978 294.8508)">5</text>
  <polygon class="cls-7" points="273.365 292.947 265.956 287.657 265.956 298.238 273.365 292.947"/>
  <polygon class="cls-7" points="246.425 292.905 239.017 287.614 239.017 298.196 246.425 292.905"/>
  <polygon class="cls-7" points="300.197 292.96 292.788 287.669 292.788 298.251 300.197 292.96"/>
  <polygon class="cls-7" points="233.672 278.715 238.963 271.307 228.382 271.307 233.672 278.715"/>
  <text class="cls-19" transform="translate(232.06367 275.85776)">5</text>
  <text class="cls-19" transform="translate(239.87769 294.85428)">5</text>
  <text class="cls-19" transform="translate(266.52088 294.85471)">2</text>
  <text class="cls-19" transform="translate(293.64905 294.85471)">5</text>
  <polygon class="cls-7" points="246.425 265.164 239.017 259.873 239.017 270.455 246.425 265.164"/>
  <text class="cls-19" transform="translate(240.27161 267.07169)">2</text>
  <polygon class="cls-7" points="260.64 278.711 265.931 271.302 255.349 271.302 260.64 278.711"/>
  <text class="cls-19" transform="translate(259.03126 275.8533)">2</text>
  <polygon class="cls-20" points="287.472 280.21 282.181 287.618 292.763 287.618 287.472 280.21"/>
  <text class="cls-19" transform="translate(284.91968 286.66245)">-1</text>
  <polygon class="cls-7" points="393.713 293.004 386.304 287.713 386.304 298.295 393.713 293.004"/>
  <polygon class="cls-7" points="366.773 292.961 359.365 287.67 359.365 298.252 366.773 292.961"/>
  <polygon class="cls-7" points="420.544 293.017 413.136 287.726 413.136 298.307 420.544 293.017"/>
  <polygon class="cls-7" points="354.02 278.771 359.311 271.363 348.729 271.363 354.02 278.771"/>
  <text class="cls-19" transform="translate(352.41126 275.91409)">5</text>
  <text class="cls-19" transform="translate(360.22523 294.91061)">5</text>
  <text class="cls-19" transform="translate(386.86866 294.91098)">2</text>
  <text class="cls-19" transform="translate(413.99671 294.91098)">5</text>
  <polygon class="cls-7" points="366.773 265.221 359.365 259.93 359.365 270.511 366.773 265.221"/>
  <text class="cls-22" transform="translate(359.54615 266.5372)">1.5</text>
  <polygon class="cls-7" points="380.988 278.767 386.278 271.359 375.697 271.359 380.988 278.767"/>
  <text class="cls-19" transform="translate(379.37891 275.90964)">2</text>
  <polygon class="cls-20" points="407.82 280.266 402.529 287.675 413.11 287.675 407.82 280.266"/>
  <text class="cls-19" transform="translate(405.26746 286.71878)">-1</text>
  <polygon class="cls-7" points="381.089 253.252 375.798 260.66 386.379 260.66 381.089 253.252"/>
  <text class="cls-19" transform="translate(379.48084 259.70432)">1</text>
  <polygon class="cls-7" points="393.64 239.032 386.232 233.741 386.232 244.322 393.64 239.032"/>
  <text class="cls-19" transform="translate(386.79615 240.93912)">1</text>
  <polygon class="cls-7" points="420.507 239.032 413.099 233.741 413.099 244.322 420.507 239.032"/>
  <text class="cls-19" transform="translate(413.66334 240.93912)">1</text>
</svg>
