<svg id="Layer_1" data-name="Layer 1" xmlns="http://www.w3.org/2000/svg" viewBox="0 0 581.95 305.76"><defs><style>.cls-1,.cls-3,.cls-8,.cls-9{fill:#9b9dad;}.cls-2{fill:#e7ebe8;}.cls-3{font-size:16px;}.cls-3,.cls-8,.cls-9{font-family:MyriadPro-Regular, Myriad Pro;}.cls-4{letter-spacing:-0.03em;}.cls-5{letter-spacing:0em;}.cls-10,.cls-11,.cls-12,.cls-13,.cls-14,.cls-15,.cls-6{fill:none;}.cls-10,.cls-11,.cls-12,.cls-13,.cls-14,.cls-15,.cls-6,.cls-7{stroke:#9b9dad;stroke-width:2px;}.cls-6,.cls-7{stroke-miterlimit:10;}.cls-7{fill:#e7ebe7;}.cls-8{font-size:12px;}.cls-9{font-size:10px;}.cls-10,.cls-11,.cls-12,.cls-13,.cls-14{stroke-linecap:round;}.cls-10,.cls-11,.cls-12,.cls-13,.cls-14,.cls-15{stroke-linejoin:round;}.cls-11{stroke-dasharray:0.26 4.23;}.cls-12{stroke-dasharray:0.26 4.23;}.cls-13{stroke-dasharray:0.26 4.22;}.cls-14{stroke-dasharray:0.26 4.23;}.cls-15{stroke-linecap:square;stroke-dasharray:0.25 4;}.cls-16{letter-spacing:0em;}.cls-17{letter-spacing:-0.01em;}.cls-18{fill:#4068b2;}.cls-18,.cls-28{opacity:0.5;}.cls-19{letter-spacing:-0.01em;}.cls-20{letter-spacing:0em;}.cls-21{letter-spacing:0.02em;}.cls-22{letter-spacing:0.01em;}.cls-23{letter-spacing:-0.01em;}.cls-24{letter-spacing:0.01em;}.cls-25{letter-spacing:0em;}.cls-26{letter-spacing:0em;}.cls-27{font-size:6px;}.cls-27,.cls-30{fill:#f1f2f2;font-family:MyriadPro-Semibold, Myriad Pro;font-weight:700;}.cls-28{fill:#be1e2d;}.cls-29{fill:#d1d3d4;}.cls-30{font-size:4px;}</style></defs><title>gridworld-puzzle-solved</title><rect class="cls-1" x="100.56" y="14.98" width="25.45" height="25.45"/><rect class="cls-2" x="127.5" y="15.01" width="25.45" height="25.45"/><rect class="cls-2" x="154.33" y="15.01" width="25.45" height="25.45"/><rect class="cls-2" x="181.24" y="15.03" width="25.45" height="25.45"/><rect class="cls-2" x="100.56" y="41.93" width="25.45" height="25.45"/><rect class="cls-2" x="127.5" y="41.95" width="25.45" height="25.45"/><rect class="cls-2" x="154.33" y="41.96" width="25.45" height="25.45"/><rect class="cls-1" x="181.24" y="41.97" width="25.45" height="25.45"/><rect class="cls-2" x="100.56" y="68.85" width="25.45" height="25.45"/><rect class="cls-2" x="127.5" y="68.87" width="25.45" height="25.45"/><rect class="cls-2" x="154.33" y="68.88" width="25.45" height="25.45"/><rect class="cls-2" x="181.24" y="68.89" width="25.45" height="25.45"/><text class="cls-3" transform="translate(132.87 11.68)"><tspan class="cls-4">P</tspan><tspan class="cls-5" x="8.1" y="0">a</tspan><tspan x="15.74" y="0">th 1</tspan></text><polyline class="cls-6" points="113.29 54.7 113.29 81.61 140.17 81.61 167.06 81.57 193.96 81.57"/><circle class="cls-1" cx="113.29" cy="81.62" r="2.95"/><circle class="cls-1" cx="140.17" cy="81.62" r="2.95"/><circle class="cls-1" cx="167.06" cy="81.57" r="2.95"/><circle class="cls-1" cx="193.96" cy="81.57" r="2.95"/><circle class="cls-7" cx="113.29" cy="54.69" r="2.95"/><rect class="cls-1" x="475.83" y="15.19" width="25.45" height="25.45"/><rect class="cls-2" x="502.77" y="15.21" width="25.45" height="25.45"/><rect class="cls-2" x="529.6" y="15.22" width="25.45" height="25.45"/><rect class="cls-2" x="556.5" y="15.23" width="25.45" height="25.45"/><rect class="cls-2" x="475.83" y="42.13" width="25.45" height="25.45"/><rect class="cls-2" x="502.77" y="42.16" width="25.45" height="25.45"/><rect class="cls-2" x="529.6" y="42.16" width="25.45" height="25.45"/><rect class="cls-1" x="556.5" y="42.17" width="25.45" height="25.45"/><rect class="cls-2" x="475.83" y="69.05" width="25.45" height="25.45"/><rect class="cls-2" x="502.77" y="69.08" width="25.45" height="25.45"/><rect class="cls-2" x="529.6" y="69.08" width="25.45" height="25.45"/><rect class="cls-2" x="556.5" y="69.09" width="25.45" height="25.45"/><text class="cls-3" transform="translate(508.13 11.9)"><tspan class="cls-4">P</tspan><tspan class="cls-5" x="8.1" y="0">a</tspan><tspan x="15.74" y="0">th 4</tspan></text><line class="cls-6" x1="488.55" y1="54.9" x2="515.44" y2="54.9"/><circle class="cls-1" cx="515.44" cy="54.9" r="2.95"/><circle class="cls-7" cx="488.55" cy="54.9" r="2.95"/><text class="cls-8" transform="translate(520.08 58.3)">?</text><text class="cls-9" transform="translate(188.42 91.66)">+5</text><rect class="cls-1" x="220.91" y="14.97" width="25.45" height="25.45"/><rect class="cls-2" x="247.85" y="15" width="25.45" height="25.45"/><rect class="cls-2" x="274.68" y="15.01" width="25.45" height="25.45"/><rect class="cls-2" x="301.59" y="15.02" width="25.45" height="25.45"/><rect class="cls-2" x="220.91" y="41.92" width="25.45" height="25.45"/><rect class="cls-2" x="247.85" y="41.94" width="25.45" height="25.45"/><rect class="cls-2" x="274.68" y="41.95" width="25.45" height="25.45"/><rect class="cls-1" x="301.59" y="41.96" width="25.45" height="25.45"/><rect class="cls-2" x="220.91" y="68.84" width="25.45" height="25.45"/><rect class="cls-2" x="247.85" y="68.86" width="25.45" height="25.45"/><rect class="cls-2" x="274.68" y="68.87" width="25.45" height="25.45"/><rect class="cls-2" x="301.59" y="68.88" width="25.45" height="25.45"/><text class="cls-3" transform="translate(253.21 11.36)"><tspan class="cls-4">P</tspan><tspan class="cls-5" x="8.1" y="0">a</tspan><tspan x="15.74" y="0">th 2</tspan></text><line class="cls-10" x1="233.64" y1="54.69" x2="233.76" y2="54.69"/><line class="cls-11" x1="237.99" y1="54.68" x2="258.34" y2="54.67"/><polyline class="cls-10" points="260.45 54.67 260.57 54.67 260.57 54.79"/><line class="cls-12" x1="260.57" y1="59.02" x2="260.53" y2="79.37"/><polyline class="cls-10" points="260.52 81.48 260.52 81.61 260.65 81.61"/><line class="cls-13" x1="264.87" y1="81.6" x2="285.17" y2="81.57"/><polyline class="cls-10" points="287.28 81.56 287.41 81.56 287.41 81.44"/><line class="cls-14" x1="287.41" y1="77.21" x2="287.44" y2="56.87"/><line class="cls-10" x1="287.44" y1="54.76" x2="287.44" y2="54.63"/><circle class="cls-1" cx="260.57" cy="54.67" r="2.95"/><circle class="cls-1" cx="260.52" cy="81.61" r="2.95"/><circle class="cls-1" cx="287.41" cy="81.56" r="2.95"/><circle class="cls-1" cx="287.44" cy="54.63" r="2.95"/><circle class="cls-7" cx="233.64" cy="54.69" r="2.95"/><text class="cls-9" transform="translate(283.34 50.34)">-1</text><rect class="cls-1" x="341.26" y="14.96" width="25.45" height="25.45"/><rect class="cls-2" x="368.2" y="14.99" width="25.45" height="25.45"/><rect class="cls-2" x="395.03" y="15" width="25.45" height="25.45"/><rect class="cls-2" x="421.93" y="15.01" width="25.45" height="25.45"/><rect class="cls-2" x="341.26" y="41.91" width="25.45" height="25.45"/><rect class="cls-2" x="368.2" y="41.94" width="25.45" height="25.45"/><rect class="cls-2" x="395.03" y="41.94" width="25.45" height="25.45"/><rect class="cls-1" x="421.93" y="41.95" width="25.45" height="25.45"/><rect class="cls-2" x="341.26" y="68.83" width="25.45" height="25.45"/><rect class="cls-2" x="368.2" y="68.86" width="25.45" height="25.45"/><rect class="cls-2" x="395.03" y="68.86" width="25.45" height="25.45"/><rect class="cls-2" x="421.93" y="68.87" width="25.45" height="25.45"/><text class="cls-3" transform="translate(373.56 11.68)"><tspan class="cls-4">P</tspan><tspan class="cls-5" x="8.1" y="0">a</tspan><tspan x="15.74" y="0">th 3</tspan></text><path class="cls-15" d="M354,54.68v0l26.89-.09.05-26.18h53.74"/><circle class="cls-1" cx="380.87" cy="54.63" r="2.95"/><circle class="cls-1" cx="380.92" cy="28.45" r="2.95"/><circle class="cls-1" cx="407.75" cy="28.45" r="2.95"/><circle class="cls-1" cx="434.66" cy="28.45" r="2.95"/><circle class="cls-7" cx="353.98" cy="54.68" r="2.95"/><text class="cls-9" transform="translate(429.11 38.5)">+1</text><line class="cls-6" x1="461.61" y1="15.02" x2="461.61" y2="305.76"/><text class="cls-3" transform="translate(7.08 58.94)">Expe<tspan class="cls-16" x="32.4" y="0">r</tspan><tspan x="37.69" y="0">ien</tspan><tspan class="cls-17" x="58.33" y="0">c</tspan><tspan x="65.41" y="0">e</tspan></text><rect class="cls-1" x="100.56" y="132.4" width="25.45" height="25.45"/><rect class="cls-2" x="127.5" y="132.42" width="25.45" height="25.45"/><rect class="cls-2" x="154.33" y="132.43" width="25.45" height="25.45"/><rect class="cls-2" x="181.24" y="132.44" width="25.45" height="25.45"/><rect class="cls-2" x="100.56" y="159.34" width="25.45" height="25.45"/><rect class="cls-2" x="127.5" y="159.37" width="25.45" height="25.45"/><rect class="cls-2" x="154.33" y="159.37" width="25.45" height="25.45"/><rect class="cls-1" x="181.24" y="159.38" width="25.45" height="25.45"/><rect class="cls-2" x="100.56" y="186.26" width="25.45" height="25.45"/><rect class="cls-2" x="127.5" y="186.29" width="25.45" height="25.45"/><rect class="cls-2" x="154.33" y="186.29" width="25.45" height="25.45"/><rect class="cls-2" x="181.24" y="186.3" width="25.45" height="25.45"/><polygon class="cls-18" points="152.98 199.01 145.57 193.72 145.57 204.31 152.98 199.01"/><polygon class="cls-18" points="126.04 198.97 118.63 193.68 118.63 204.26 126.04 198.97"/><polygon class="cls-18" points="179.81 199.03 172.4 193.74 172.4 204.32 179.81 199.03"/><rect class="cls-1" x="220.91" y="132.39" width="25.45" height="25.45"/><rect class="cls-2" x="247.85" y="132.41" width="25.45" height="25.45"/><rect class="cls-2" x="274.68" y="132.42" width="25.45" height="25.45"/><rect class="cls-2" x="301.59" y="132.43" width="25.45" height="25.45"/><rect class="cls-2" x="220.91" y="159.33" width="25.45" height="25.45"/><rect class="cls-2" x="247.85" y="159.36" width="25.45" height="25.45"/><rect class="cls-2" x="274.68" y="159.36" width="25.45" height="25.45"/><rect class="cls-1" x="301.59" y="159.37" width="25.45" height="25.45"/><rect class="cls-2" x="220.91" y="186.25" width="25.45" height="25.45"/><rect class="cls-2" x="247.85" y="186.28" width="25.45" height="25.45"/><rect class="cls-2" x="274.68" y="186.28" width="25.45" height="25.45"/><rect class="cls-2" x="301.59" y="186.3" width="25.45" height="25.45"/><rect class="cls-1" x="341.26" y="132.43" width="25.45" height="25.45"/><rect class="cls-2" x="368.2" y="132.46" width="25.45" height="25.45"/><rect class="cls-2" x="395.03" y="132.46" width="25.45" height="25.45"/><rect class="cls-2" x="421.93" y="132.47" width="25.45" height="25.45"/><rect class="cls-2" x="341.26" y="159.37" width="25.45" height="25.45"/><rect class="cls-2" x="368.2" y="159.4" width="25.45" height="25.45"/><rect class="cls-2" x="395.03" y="159.41" width="25.45" height="25.45"/><rect class="cls-1" x="421.93" y="159.42" width="25.45" height="25.45"/><rect class="cls-2" x="341.26" y="186.3" width="25.45" height="25.45"/><rect class="cls-2" x="368.2" y="186.32" width="25.45" height="25.45"/><rect class="cls-2" x="395.03" y="186.33" width="25.45" height="25.45"/><rect class="cls-2" x="421.93" y="186.34" width="25.45" height="25.45"/><rect class="cls-1" x="475.63" y="132.38" width="25.45" height="25.45"/><rect class="cls-2" x="502.57" y="132.4" width="25.45" height="25.45"/><rect class="cls-2" x="529.4" y="132.41" width="25.45" height="25.45"/><rect class="cls-2" x="556.3" y="132.42" width="25.45" height="25.45"/><rect class="cls-2" x="475.63" y="159.32" width="25.45" height="25.45"/><rect class="cls-2" x="502.57" y="159.35" width="25.45" height="25.45"/><rect class="cls-2" x="529.4" y="159.35" width="25.45" height="25.45"/><rect class="cls-1" x="556.3" y="159.37" width="25.45" height="25.45"/><rect class="cls-2" x="475.63" y="186.24" width="25.45" height="25.45"/><rect class="cls-2" x="502.57" y="186.27" width="25.45" height="25.45"/><rect class="cls-2" x="529.4" y="186.28" width="25.45" height="25.45"/><rect class="cls-2" x="556.3" y="186.29" width="25.45" height="25.45"/><polygon class="cls-1" points="515.29 159.37 510 166.77 520.58 166.77 515.29 159.37"/><polygon class="cls-1" points="488.32 184.75 493.62 177.34 483.03 177.34 488.32 184.75"/><polygon class="cls-1" points="528.04 199 520.63 193.7 520.63 204.29 528.04 199"/><polygon class="cls-1" points="501.1 198.95 493.69 193.66 493.69 204.24 501.1 198.95"/><polygon class="cls-1" points="554.88 199.01 547.47 193.72 547.47 204.3 554.88 199.01"/><polygon class="cls-1" points="554.93 145.17 547.52 139.88 547.52 150.46 554.93 145.17"/><polygon class="cls-1" points="527.99 145.13 520.58 139.84 520.58 150.42 527.99 145.13"/><text class="cls-3" transform="translate(482.79 129.19)">G<tspan class="cls-19" x="10.34" y="0">r</tspan><tspan class="cls-20" x="15.41" y="0">eedy poli</tspan><tspan class="cls-21" x="76.8" y="0">c</tspan><tspan x="84.25" y="0">y</tspan></text><rect class="cls-1" x="100.66" y="226.36" width="25.45" height="25.45"/><rect class="cls-2" x="127.6" y="226.39" width="25.45" height="25.45"/><rect class="cls-2" x="154.44" y="226.4" width="25.45" height="25.45"/><rect class="cls-2" x="181.34" y="226.41" width="25.45" height="25.45"/><rect class="cls-2" x="100.66" y="253.31" width="25.45" height="25.45"/><rect class="cls-2" x="127.6" y="253.34" width="25.45" height="25.45"/><rect class="cls-2" x="154.44" y="253.34" width="25.45" height="25.45"/><rect class="cls-1" x="181.34" y="253.35" width="25.45" height="25.45"/><rect class="cls-2" x="100.66" y="280.23" width="25.45" height="25.45"/><rect class="cls-2" x="127.6" y="280.26" width="25.45" height="25.45"/><rect class="cls-2" x="154.44" y="280.26" width="25.45" height="25.45"/><rect class="cls-2" x="181.34" y="280.27" width="25.45" height="25.45"/><rect class="cls-1" x="221.01" y="226.35" width="25.45" height="25.45"/><rect class="cls-2" x="247.95" y="226.38" width="25.45" height="25.45"/><rect class="cls-2" x="274.78" y="226.39" width="25.45" height="25.45"/><rect class="cls-2" x="301.69" y="226.4" width="25.45" height="25.45"/><rect class="cls-2" x="221.01" y="253.3" width="25.45" height="25.45"/><rect class="cls-2" x="247.95" y="253.33" width="25.45" height="25.45"/><rect class="cls-2" x="274.78" y="253.33" width="25.45" height="25.45"/><rect class="cls-1" x="301.69" y="253.34" width="25.45" height="25.45"/><rect class="cls-2" x="221.01" y="280.22" width="25.45" height="25.45"/><rect class="cls-2" x="247.95" y="280.25" width="25.45" height="25.45"/><rect class="cls-2" x="274.78" y="280.25" width="25.45" height="25.45"/><rect class="cls-2" x="301.69" y="280.26" width="25.45" height="25.45"/><rect class="cls-1" x="341.36" y="226.4" width="25.45" height="25.45"/><rect class="cls-2" x="368.3" y="226.43" width="25.45" height="25.45"/><rect class="cls-2" x="395.13" y="226.43" width="25.45" height="25.45"/><rect class="cls-2" x="422.03" y="226.44" width="25.45" height="25.45"/><rect class="cls-2" x="341.36" y="253.34" width="25.45" height="25.45"/><rect class="cls-2" x="368.3" y="253.37" width="25.45" height="25.45"/><rect class="cls-2" x="395.13" y="253.38" width="25.45" height="25.45"/><rect class="cls-1" x="422.03" y="253.39" width="25.45" height="25.45"/><rect class="cls-2" x="341.36" y="280.26" width="25.45" height="25.45"/><rect class="cls-2" x="368.3" y="280.29" width="25.45" height="25.45"/><rect class="cls-2" x="395.13" y="280.3" width="25.45" height="25.45"/><rect class="cls-2" x="422.03" y="280.31" width="25.45" height="25.45"/><rect class="cls-1" x="475.73" y="226.35" width="25.45" height="25.45"/><rect class="cls-2" x="502.67" y="226.37" width="25.45" height="25.45"/><rect class="cls-2" x="529.5" y="226.38" width="25.45" height="25.45"/><rect class="cls-2" x="556.4" y="226.39" width="25.45" height="25.45"/><rect class="cls-2" x="475.73" y="253.29" width="25.45" height="25.45"/><rect class="cls-2" x="502.67" y="253.32" width="25.45" height="25.45"/><rect class="cls-2" x="529.5" y="253.32" width="25.45" height="25.45"/><rect class="cls-1" x="556.4" y="253.33" width="25.45" height="25.45"/><rect class="cls-2" x="475.73" y="280.21" width="25.45" height="25.45"/><rect class="cls-2" x="502.67" y="280.24" width="25.45" height="25.45"/><rect class="cls-2" x="529.5" y="280.24" width="25.45" height="25.45"/><rect class="cls-2" x="556.4" y="280.25" width="25.45" height="25.45"/><polygon class="cls-1" points="515.37 278.76 520.66 271.35 510.07 271.35 515.37 278.76"/><polygon class="cls-1" points="488.43 278.71 493.72 271.31 483.13 271.31 488.43 278.71"/><polygon class="cls-1" points="528.14 292.96 520.74 287.67 520.74 298.25 528.14 292.96"/><polygon class="cls-1" points="501.2 292.92 493.8 287.63 493.8 298.21 501.2 292.92"/><polygon class="cls-1" points="554.98 292.98 547.57 287.69 547.57 298.27 554.98 292.98"/><polygon class="cls-1" points="555.03 239.14 547.62 233.85 547.62 244.43 555.03 239.14"/><polygon class="cls-1" points="528.09 239.1 520.68 233.81 520.68 244.39 528.09 239.1"/><text class="cls-3" transform="translate(1.22 167.04)"><tspan class="cls-22">M</tspan><tspan class="cls-20" x="12.96" y="0">o</tspan><tspan class="cls-5" x="21.74" y="0">n</tspan><tspan class="cls-17" x="30.56" y="0">t</tspan><tspan x="35.76" y="0">e </tspan><tspan class="cls-23" x="47.17" y="0">C</tspan><tspan x="56.33" y="0">a</tspan><tspan class="cls-16" x="64.05" y="0">r</tspan><tspan x="69.34" y="0">lo</tspan><tspan class="cls-24" x="11.77" y="19.2">Q</tspan><tspan class="cls-25" x="23.02" y="19.2">-</tspan><tspan class="cls-26" x="27.85" y="19.2">v</tspan><tspan x="35.48" y="19.2">alues</tspan></text><text class="cls-3" transform="translate(32.87 258.08)">TD<tspan class="cls-24" x="-19.88" y="19.2">Q</tspan><tspan class="cls-25" x="-8.63" y="19.2">-</tspan><tspan class="cls-26" x="-3.8" y="19.2">v</tspan><tspan x="3.83" y="19.2">alues</tspan></text><polygon class="cls-18" points="113.29 184.78 118.58 177.37 108 177.37 113.29 184.78"/><text class="cls-27" transform="translate(111.68 181.92)">5</text><text class="cls-27" transform="translate(119.49 200.92)">5</text><text class="cls-27" transform="translate(146.14 200.92)">5</text><text class="cls-27" transform="translate(173.26 200.92)">5</text><polygon class="cls-18" points="273.3 199.02 265.89 193.73 265.89 204.31 273.3 199.02"/><polygon class="cls-18" points="246.36 198.97 238.95 193.69 238.95 204.27 246.36 198.97"/><polygon class="cls-18" points="300.13 199.03 292.72 193.74 292.72 204.32 300.13 199.03"/><polygon class="cls-18" points="233.61 184.79 238.9 177.38 228.32 177.38 233.61 184.79"/><text class="cls-27" transform="translate(232 181.93)">5</text><text class="cls-27" transform="translate(239.81 200.92)">5</text><text class="cls-27" transform="translate(266.46 200.93)">2</text><text class="cls-27" transform="translate(293.58 200.93)">5</text><polygon class="cls-28" points="246.36 171.24 238.95 165.94 238.95 176.53 246.36 171.24"/><text class="cls-27" transform="translate(239.26 173.14)">-1</text><polygon class="cls-28" points="260.57 184.78 265.87 177.37 255.28 177.37 260.57 184.78"/><text class="cls-27" transform="translate(258.02 181.92)">-1</text><polygon class="cls-28" points="287.41 186.28 282.12 193.69 292.7 193.69 287.41 186.28"/><text class="cls-27" transform="translate(284.85 192.73)">-1</text><polygon class="cls-18" points="393.65 199.07 386.24 193.78 386.24 204.37 393.65 199.07"/><polygon class="cls-18" points="366.71 199.03 359.3 193.74 359.3 204.32 366.71 199.03"/><polygon class="cls-18" points="420.48 199.09 413.07 193.8 413.07 204.38 420.48 199.09"/><polygon class="cls-18" points="353.95 184.84 359.25 177.43 348.66 177.43 353.95 184.84"/><text class="cls-27" transform="translate(352.35 181.98)">5</text><text class="cls-27" transform="translate(360.16 200.98)">5</text><text class="cls-27" transform="translate(386.8 200.98)">2</text><text class="cls-27" transform="translate(413.93 200.98)">5</text><polygon class="cls-29" points="366.71 171.29 359.3 166 359.3 176.58 366.71 171.29"/><text class="cls-27" transform="translate(360.55 173.2)">0</text><polygon class="cls-28" points="380.92 184.84 386.21 177.43 375.63 177.43 380.92 184.84"/><text class="cls-27" transform="translate(378.37 181.98)">-1</text><polygon class="cls-28" points="407.75 186.34 402.46 193.75 413.05 193.75 407.75 186.34"/><text class="cls-27" transform="translate(405.2 192.79)">-1</text><polygon class="cls-18" points="381.02 159.32 375.73 166.73 386.31 166.73 381.02 159.32"/><text class="cls-27" transform="translate(379.42 165.77)">1</text><polygon class="cls-18" points="393.57 145.1 386.17 139.81 386.17 150.39 393.57 145.1"/><text class="cls-27" transform="translate(386.73 147.01)">1</text><polygon class="cls-18" points="420.44 145.1 413.03 139.81 413.03 150.39 420.44 145.1"/><text class="cls-27" transform="translate(413.6 147.01)">1</text><polygon class="cls-18" points="153.04 292.94 145.64 287.65 145.64 298.23 153.04 292.94"/><polygon class="cls-18" points="126.11 292.9 118.7 287.61 118.7 298.19 126.11 292.9"/><polygon class="cls-18" points="179.88 292.96 172.47 287.67 172.47 298.25 179.88 292.96"/><polygon class="cls-18" points="113.35 278.71 118.64 271.3 108.06 271.3 113.35 278.71"/><text class="cls-27" transform="translate(111.74 275.85)">5</text><text class="cls-27" transform="translate(119.56 294.85)">5</text><text class="cls-27" transform="translate(146.2 294.85)">5</text><text class="cls-27" transform="translate(173.33 294.85)">5</text><polygon class="cls-18" points="273.37 292.95 265.96 287.66 265.96 298.24 273.37 292.95"/><polygon class="cls-18" points="246.43 292.9 239.02 287.61 239.02 298.2 246.43 292.9"/><polygon class="cls-18" points="300.2 292.96 292.79 287.67 292.79 298.25 300.2 292.96"/><polygon class="cls-18" points="233.67 278.71 238.96 271.31 228.38 271.31 233.67 278.71"/><text class="cls-27" transform="translate(232.06 275.86)">5</text><text class="cls-27" transform="translate(239.88 294.85)">5</text><text class="cls-27" transform="translate(266.52 294.85)">2</text><text class="cls-27" transform="translate(293.65 294.85)">5</text><polygon class="cls-18" points="246.43 265.16 239.02 259.87 239.02 270.45 246.43 265.16"/><text class="cls-27" transform="translate(240.27 267.07)">2</text><polygon class="cls-18" points="260.64 278.71 265.93 271.3 255.35 271.3 260.64 278.71"/><text class="cls-27" transform="translate(259.03 275.85)">2</text><polygon class="cls-28" points="287.47 280.21 282.18 287.62 292.76 287.62 287.47 280.21"/><text class="cls-27" transform="translate(284.92 286.66)">-1</text><polygon class="cls-18" points="393.71 293 386.3 287.71 386.3 298.3 393.71 293"/><polygon class="cls-18" points="366.77 292.96 359.37 287.67 359.37 298.25 366.77 292.96"/><polygon class="cls-18" points="420.54 293.02 413.14 287.73 413.14 298.31 420.54 293.02"/><polygon class="cls-18" points="354.02 278.77 359.31 271.36 348.73 271.36 354.02 278.77"/><text class="cls-27" transform="translate(352.41 275.91)">5</text><text class="cls-27" transform="translate(360.23 294.91)">5</text><text class="cls-27" transform="translate(386.87 294.91)">2</text><text class="cls-27" transform="translate(414 294.91)">5</text><polygon class="cls-18" points="366.77 265.22 359.37 259.93 359.37 270.51 366.77 265.22"/><text class="cls-30" transform="translate(359.55 266.54)">1.5</text><polygon class="cls-18" points="380.99 278.77 386.28 271.36 375.7 271.36 380.99 278.77"/><text class="cls-27" transform="translate(379.38 275.91)">2</text><polygon class="cls-28" points="407.82 280.27 402.53 287.68 413.11 287.68 407.82 280.27"/><text class="cls-27" transform="translate(405.27 286.72)">-1</text><polygon class="cls-18" points="381.09 253.25 375.8 260.66 386.38 260.66 381.09 253.25"/><text class="cls-27" transform="translate(379.48 259.7)">1</text><polygon class="cls-18" points="393.64 239.03 386.23 233.74 386.23 244.32 393.64 239.03"/><text class="cls-27" transform="translate(386.8 240.94)">1</text><polygon class="cls-18" points="420.51 239.03 413.1 233.74 413.1 244.32 420.51 239.03"/><text class="cls-27" transform="translate(413.66 240.94)">1</text></svg>