<svg id="Layer_1" data-name="Layer 1" xmlns="http://www.w3.org/2000/svg" viewBox="0 0 349.53 202.43"><defs><style>.cls-1,.cls-14,.cls-15,.cls-3{fill:#9b9dad;}.cls-2{fill:#e7ebe8;}.cls-3{font-size:16px;}.cls-14,.cls-15,.cls-3{font-family:MyriadPro-Regular, Myriad Pro;}.cls-4{letter-spacing:-0.03em;}.cls-5{letter-spacing:0em;}.cls-10,.cls-11,.cls-12,.cls-13,.cls-6,.cls-8,.cls-9{fill:none;}.cls-10,.cls-11,.cls-12,.cls-13,.cls-6,.cls-7,.cls-8,.cls-9{stroke:#9b9dad;stroke-width:2px;}.cls-6,.cls-7{stroke-miterlimit:10;}.cls-7{fill:#e7ebe7;}.cls-10,.cls-11,.cls-12,.cls-8,.cls-9{stroke-linecap:round;}.cls-10,.cls-11,.cls-12,.cls-13,.cls-8,.cls-9{stroke-linejoin:round;}.cls-9{stroke-dasharray:0.26 4.23;}.cls-10{stroke-dasharray:0.26 4.23;}.cls-11{stroke-dasharray:0.26 4.22;}.cls-12{stroke-dasharray:0.26 4.23;}.cls-13{stroke-linecap:square;stroke-dasharray:0.25 4;}.cls-14{font-size:12px;}.cls-15{font-size:10px;}</style></defs><title>gridworld-puzzle</title><rect class="cls-1" x="1.5" y="14.98" width="25.45" height="25.45"/><rect class="cls-2" x="28.44" y="15.01" width="25.45" height="25.45"/><rect class="cls-2" x="55.27" y="15.01" width="25.45" height="25.45"/><rect class="cls-2" x="82.18" y="15.03" width="25.45" height="25.45"/><rect class="cls-2" x="1.5" y="41.93" width="25.45" height="25.45"/><rect class="cls-2" x="28.44" y="41.95" width="25.45" height="25.45"/><rect class="cls-2" x="55.27" y="41.96" width="25.45" height="25.45"/><rect class="cls-1" x="82.18" y="41.97" width="25.45" height="25.45"/><rect class="cls-2" x="1.5" y="68.85" width="25.45" height="25.45"/><rect class="cls-2" x="28.44" y="68.87" width="25.45" height="25.45"/><rect class="cls-2" x="55.27" y="68.88" width="25.45" height="25.45"/><rect class="cls-2" x="82.18" y="68.89" width="25.45" height="25.45"/><rect class="cls-1" x="121.85" y="14.97" width="25.45" height="25.45"/><rect class="cls-2" x="148.79" y="15" width="25.45" height="25.45"/><rect class="cls-2" x="175.62" y="15.01" width="25.45" height="25.45"/><rect class="cls-2" x="202.53" y="15.02" width="25.45" height="25.45"/><rect class="cls-2" x="121.85" y="41.92" width="25.45" height="25.45"/><rect class="cls-2" x="148.79" y="41.94" width="25.45" height="25.45"/><rect class="cls-2" x="175.62" y="41.95" width="25.45" height="25.45"/><rect class="cls-1" x="202.53" y="41.96" width="25.45" height="25.45"/><rect class="cls-2" x="121.85" y="68.84" width="25.45" height="25.45"/><rect class="cls-2" x="148.79" y="68.86" width="25.45" height="25.45"/><rect class="cls-2" x="175.62" y="68.87" width="25.45" height="25.45"/><rect class="cls-2" x="202.53" y="68.88" width="25.45" height="25.45"/><rect class="cls-1" x="242.2" y="14.96" width="25.45" height="25.45"/><rect class="cls-2" x="269.14" y="14.99" width="25.45" height="25.45"/><rect class="cls-2" x="295.97" y="15" width="25.45" height="25.45"/><rect class="cls-2" x="322.87" y="15.01" width="25.45" height="25.45"/><rect class="cls-2" x="242.2" y="41.91" width="25.45" height="25.45"/><rect class="cls-2" x="269.14" y="41.94" width="25.45" height="25.45"/><rect class="cls-2" x="295.97" y="41.94" width="25.45" height="25.45"/><rect class="cls-1" x="322.87" y="41.95" width="25.45" height="25.45"/><rect class="cls-2" x="242.2" y="68.83" width="25.45" height="25.45"/><rect class="cls-2" x="269.14" y="68.86" width="25.45" height="25.45"/><rect class="cls-2" x="295.97" y="68.86" width="25.45" height="25.45"/><rect class="cls-2" x="322.87" y="68.87" width="25.45" height="25.45"/><text class="cls-3" transform="translate(33.8 11.68)"><tspan class="cls-4">P</tspan><tspan class="cls-5" x="8.1" y="0">a</tspan><tspan x="15.74" y="0">th 1</tspan></text><text class="cls-3" transform="translate(154.15 11.36)"><tspan class="cls-4">P</tspan><tspan class="cls-5" x="8.1" y="0">a</tspan><tspan x="15.74" y="0">th 2</tspan></text><text class="cls-3" transform="translate(274.5 11.68)"><tspan class="cls-4">P</tspan><tspan class="cls-5" x="8.1" y="0">a</tspan><tspan x="15.74" y="0">th 3</tspan></text><rect class="cls-1" x="121.85" y="123.07" width="25.45" height="25.45"/><rect class="cls-2" x="148.79" y="123.1" width="25.45" height="25.45"/><rect class="cls-2" x="175.62" y="123.11" width="25.45" height="25.45"/><rect class="cls-2" x="202.53" y="123.12" width="25.45" height="25.45"/><rect class="cls-2" x="121.85" y="150.02" width="25.45" height="25.45"/><rect class="cls-2" x="148.79" y="150.04" width="25.45" height="25.45"/><rect class="cls-2" x="175.62" y="150.05" width="25.45" height="25.45"/><rect class="cls-1" x="202.53" y="150.06" width="25.45" height="25.45"/><rect class="cls-2" x="121.85" y="176.94" width="25.45" height="25.45"/><rect class="cls-2" x="148.79" y="176.97" width="25.45" height="25.45"/><rect class="cls-2" x="175.62" y="176.97" width="25.45" height="25.45"/><rect class="cls-2" x="202.53" y="176.98" width="25.45" height="25.45"/><text class="cls-3" transform="translate(154.15 119.79)"><tspan class="cls-4">P</tspan><tspan class="cls-5" x="8.1" y="0">a</tspan><tspan x="15.74" y="0">th 4</tspan></text><polyline class="cls-6" points="14.23 54.7 14.23 81.61 41.11 81.61 68 81.57 94.9 81.57"/><circle class="cls-1" cx="14.23" cy="81.62" r="2.95"/><circle class="cls-1" cx="41.11" cy="81.62" r="2.95"/><circle class="cls-1" cx="68" cy="81.57" r="2.95"/><circle class="cls-1" cx="94.9" cy="81.57" r="2.95"/><circle class="cls-7" cx="14.23" cy="54.69" r="2.95"/><line class="cls-8" x1="134.57" y1="54.69" x2="134.7" y2="54.69"/><line class="cls-9" x1="138.93" y1="54.68" x2="159.27" y2="54.67"/><polyline class="cls-8" points="161.39 54.67 161.51 54.67 161.51 54.79"/><line class="cls-10" x1="161.5" y1="59.02" x2="161.46" y2="79.37"/><polyline class="cls-8" points="161.46 81.48 161.46 81.61 161.59 81.61"/><line class="cls-11" x1="165.8" y1="81.6" x2="186.11" y2="81.57"/><polyline class="cls-8" points="188.22 81.56 188.35 81.56 188.35 81.44"/><line class="cls-12" x1="188.35" y1="77.21" x2="188.38" y2="56.87"/><line class="cls-8" x1="188.38" y1="54.76" x2="188.38" y2="54.63"/><circle class="cls-1" cx="161.51" cy="54.67" r="2.95"/><circle class="cls-1" cx="161.46" cy="81.61" r="2.95"/><circle class="cls-1" cx="188.35" cy="81.56" r="2.95"/><circle class="cls-1" cx="188.38" cy="54.63" r="2.95"/><circle class="cls-7" cx="134.57" cy="54.69" r="2.95"/><path class="cls-13" d="M254.92,54.68v0l26.89-.09.05-26.18H335.6"/><line class="cls-6" x1="134.57" y1="162.79" x2="161.46" y2="162.79"/><circle class="cls-1" cx="281.81" cy="54.63" r="2.95"/><circle class="cls-1" cx="281.86" cy="28.45" r="2.95"/><circle class="cls-1" cx="308.69" cy="28.45" r="2.95"/><circle class="cls-1" cx="335.6" cy="28.45" r="2.95"/><circle class="cls-7" cx="254.92" cy="54.68" r="2.95"/><circle class="cls-1" cx="161.46" cy="162.79" r="2.95"/><circle class="cls-7" cx="134.57" cy="162.79" r="2.95"/><text class="cls-14" transform="translate(166.1 166.19)">?</text><text class="cls-15" transform="translate(89.36 91.66)">+5</text><text class="cls-15" transform="translate(184.28 50.34)">-1</text><text class="cls-15" transform="translate(330.05 38.5)">+1</text></svg>