<svg id="Layer_1" data-name="Layer 1" xmlns="http://www.w3.org/2000/svg" viewBox="0 0 106.13 94"><defs><style>.cls-1,.cls-3,.cls-7{fill:#9b9dad;}.cls-2{fill:#e7ebe8;}.cls-3{font-size:14px;}.cls-3,.cls-7{font-family:MyriadPro-Regular, Myriad Pro;}.cls-4{letter-spacing:0.01em;}.cls-5{letter-spacing:-0.01em;}.cls-6{letter-spacing:0em;}.cls-7{font-size:10px;}.cls-8,.cls-9{fill:none;}.cls-10,.cls-8,.cls-9{stroke:#9b9dad;stroke-width:2px;}.cls-8{stroke-linecap:round;stroke-linejoin:round;stroke-dasharray:0.25 4;}.cls-10,.cls-9{stroke-miterlimit:10;}.cls-10{fill:#e7ebe7;}</style></defs><title>gridworld-puzzle-merge</title><rect class="cls-1" y="14.66" width="25.45" height="25.45"/><rect class="cls-2" x="26.94" y="14.69" width="25.45" height="25.45"/><rect class="cls-2" x="53.77" y="14.69" width="25.45" height="25.45"/><rect class="cls-2" x="80.68" y="14.7" width="25.45" height="25.45"/><rect class="cls-2" y="41.61" width="25.45" height="25.45"/><rect class="cls-2" x="26.94" y="41.63" width="25.45" height="25.45"/><rect class="cls-2" x="53.77" y="41.64" width="25.45" height="25.45"/><rect class="cls-1" x="80.68" y="41.65" width="25.45" height="25.45"/><rect class="cls-2" y="68.53" width="25.45" height="25.45"/><rect class="cls-2" x="26.94" y="68.55" width="25.45" height="25.45"/><rect class="cls-2" x="53.77" y="68.56" width="25.45" height="25.45"/><rect class="cls-2" x="80.68" y="68.57" width="25.45" height="25.45"/><text class="cls-3" transform="translate(0.58 9.94)"><tspan class="cls-4">M</tspan><tspan x="11.34" y="0">e</tspan><tspan class="cls-5" x="18.35" y="0">r</tspan><tspan x="22.82" y="0">ge p</tspan><tspan class="cls-6" x="48.59" y="0">a</tspan><tspan x="55.28" y="0">ths 1 &amp; 2</tspan></text><circle class="cls-1" cx="39.66" cy="54.36" r="2.95"/><circle class="cls-1" cx="39.61" cy="81.29" r="2.95"/><circle class="cls-1" cx="66.5" cy="81.25" r="2.95"/><circle class="cls-1" cx="93.4" cy="81.25" r="2.95"/><text class="cls-7" transform="translate(87.86 91.34)">+5</text><polyline class="cls-8" points="66.5 81.25 39.61 81.3 39.66 54.36 12.72 54.37"/><line class="cls-9" x1="93.4" y1="81.3" x2="66.5" y2="81.29"/><circle class="cls-10" cx="12.72" cy="54.37" r="2.95"/></svg>