<svg id="Layer_1" data-name="Layer 1" xmlns="http://www.w3.org/2000/svg" viewBox="0 0 178.45445 179.11766">
  <defs>
    <style>
      .cls-1 {
        fill: #9ca3c4;
      }

      .cls-2 {
        fill: #e7ebe8;
      }

      .cls-3 {
        fill: #cac9cc;
      }

      .cls-4 {
        fill: none;
        stroke: #58595b;
        stroke-linecap: round;
        stroke-miterlimit: 10;
        stroke-width: 3px;
      }

      .cls-5 {
        fill: #a92323;
      }
    </style>
  </defs>
  <title>large-cliffworld-barrier-intro</title>
  <rect class="cls-1" x="154.81194" y="1.46044" width="10.33424" height="10.33424"/>
  <rect class="cls-2" x="115.61083" y="0.56991" width="12.08939" height="12.08939"/>
  <rect class="cls-2" x="128.40796" y="0.58287" width="12.08939" height="12.08939"/>
  <rect class="cls-2" x="141.15397" y="0.5854" width="12.08939" height="12.08939"/>
  <rect class="cls-2" x="115.61083" y="13.3695" width="12.08939" height="12.08939"/>
  <rect class="cls-2" x="128.40796" y="13.38246" width="12.08939" height="12.08939"/>
  <rect class="cls-2" x="141.15397" y="13.38499" width="12.08939" height="12.08939"/>
  <rect class="cls-2" x="153.93437" y="13.39005" width="12.08939" height="12.08939"/>
  <rect class="cls-2" x="115.61083" y="26.11408" width="12.08939" height="12.08939"/>
  <rect class="cls-2" x="128.40796" y="26.12704" width="12.08939" height="12.08939"/>
  <rect class="cls-2" x="141.15397" y="26.12957" width="12.08939" height="12.08939"/>
  <rect class="cls-2" x="153.93437" y="26.13463" width="12.08939" height="12.08939"/>
  <rect class="cls-2" x="115.61083" y="38.91367" width="12.08939" height="12.08939"/>
  <rect class="cls-2" x="128.40796" y="38.92663" width="12.08939" height="12.08939"/>
  <rect class="cls-2" x="141.15397" y="38.92916" width="12.08939" height="12.08939"/>
  <rect class="cls-2" x="153.93437" y="38.93422" width="12.08939" height="12.08939"/>
  <rect class="cls-2" x="115.61083" y="51.70172" width="12.08939" height="12.08939"/>
  <rect class="cls-2" x="128.40796" y="51.71468" width="12.08939" height="12.08939"/>
  <rect class="cls-2" x="141.15397" y="51.71721" width="12.08939" height="12.08939"/>
  <rect class="cls-2" x="153.93437" y="51.72228" width="12.08939" height="12.08939"/>
  <circle class="cls-3" cx="121.65553" cy="6.6146" r="3.82915"/>
  <circle class="cls-3" cx="134.45265" cy="6.63263" r="3.82915"/>
  <circle class="cls-3" cx="147.4033" cy="6.63263" r="3.82915"/>
  <circle class="cls-3" cx="121.57877" cy="19.42573" r="3.82915"/>
  <circle class="cls-3" cx="134.37589" cy="19.44376" r="3.82915"/>
  <circle class="cls-3" cx="147.32654" cy="19.44376" r="3.82915"/>
  <circle class="cls-3" cx="159.96689" cy="19.41419" r="3.82915"/>
  <circle class="cls-3" cx="121.57877" cy="32.3118" r="3.82915"/>
  <circle class="cls-3" cx="134.37589" cy="32.32982" r="3.82915"/>
  <circle class="cls-3" cx="147.32654" cy="32.32982" r="3.82915"/>
  <circle class="cls-3" cx="159.96689" cy="32.30026" r="3.82915"/>
  <circle class="cls-3" cx="121.57877" cy="45.00278" r="3.82915"/>
  <circle class="cls-3" cx="134.37589" cy="44.95836" r="3.82915"/>
  <circle class="cls-3" cx="147.32654" cy="45.02081" r="3.82915"/>
  <circle class="cls-3" cx="159.96689" cy="44.99124" r="3.82915"/>
  <circle class="cls-3" cx="121.57877" cy="57.88884" r="3.82915"/>
  <circle class="cls-3" cx="134.37589" cy="58.15954" r="3.82915"/>
  <circle class="cls-3" cx="147.32654" cy="57.90687" r="3.82915"/>
  <circle class="cls-3" cx="159.96689" cy="57.8773" r="3.82915"/>
  <rect class="cls-2" x="90.01658" y="0.54169" width="12.08939" height="12.08939"/>
  <rect class="cls-2" x="102.8137" y="0.55465" width="12.08939" height="12.08939"/>
  <rect class="cls-2" x="90.01658" y="13.34128" width="12.08939" height="12.08939"/>
  <rect class="cls-2" x="102.8137" y="13.35424" width="12.08939" height="12.08939"/>
  <rect class="cls-2" x="90.01658" y="26.08586" width="12.08939" height="12.08939"/>
  <rect class="cls-2" x="102.8137" y="26.09882" width="12.08939" height="12.08939"/>
  <rect class="cls-2" x="90.01658" y="38.88545" width="12.08939" height="12.08939"/>
  <rect class="cls-2" x="102.8137" y="38.89841" width="12.08939" height="12.08939"/>
  <rect class="cls-2" x="90.01658" y="51.6735" width="12.08939" height="12.08939"/>
  <rect class="cls-2" x="102.8137" y="51.68647" width="12.08939" height="12.08939"/>
  <circle class="cls-3" cx="96.06127" cy="6.58638" r="3.82915"/>
  <circle class="cls-3" cx="108.8584" cy="6.60441" r="3.82915"/>
  <circle class="cls-3" cx="95.98451" cy="19.39752" r="3.82915"/>
  <circle class="cls-3" cx="108.78164" cy="19.41554" r="3.82915"/>
  <circle class="cls-3" cx="95.98451" cy="32.28358" r="3.82915"/>
  <circle class="cls-3" cx="108.78164" cy="32.30161" r="3.82915"/>
  <circle class="cls-3" cx="95.98451" cy="44.97456" r="3.82915"/>
  <circle class="cls-3" cx="108.78164" cy="44.93015" r="3.82915"/>
  <circle class="cls-3" cx="95.98451" cy="57.86062" r="3.82915"/>
  <circle class="cls-3" cx="108.78164" cy="58.13132" r="3.82915"/>
  <rect class="cls-2" x="64.42232" y="0.51347" width="12.08939" height="12.08939"/>
  <rect class="cls-2" x="77.21945" y="0.52643" width="12.08939" height="12.08939"/>
  <rect class="cls-2" x="64.42232" y="13.31307" width="12.08939" height="12.08939"/>
  <rect class="cls-2" x="77.21945" y="13.32603" width="12.08939" height="12.08939"/>
  <rect class="cls-2" x="64.42232" y="26.05764" width="12.08939" height="12.08939"/>
  <rect class="cls-2" x="77.21945" y="26.0706" width="12.08939" height="12.08939"/>
  <rect class="cls-2" x="64.42232" y="38.85724" width="12.08939" height="12.08939"/>
  <rect class="cls-2" x="77.21945" y="38.8702" width="12.08939" height="12.08939"/>
  <rect class="cls-2" x="64.42232" y="51.64529" width="12.08939" height="12.08939"/>
  <rect class="cls-2" x="77.21945" y="51.65825" width="12.08939" height="12.08939"/>
  <circle class="cls-3" cx="70.46702" cy="6.55817" r="3.82915"/>
  <circle class="cls-3" cx="83.26414" cy="6.57619" r="3.82915"/>
  <circle class="cls-3" cx="70.39026" cy="19.3693" r="3.82915"/>
  <circle class="cls-3" cx="83.18738" cy="19.38733" r="3.82915"/>
  <circle class="cls-3" cx="70.39026" cy="32.25536" r="3.82915"/>
  <circle class="cls-3" cx="83.18738" cy="32.27339" r="3.82915"/>
  <circle class="cls-3" cx="70.39026" cy="44.94635" r="3.82915"/>
  <circle class="cls-3" cx="83.18738" cy="44.90193" r="3.82915"/>
  <circle class="cls-3" cx="70.39026" cy="57.83241" r="3.82915"/>
  <circle class="cls-3" cx="83.18738" cy="58.1031" r="3.82915"/>
  <rect class="cls-2" x="38.82807" y="0.48525" width="12.08939" height="12.08939"/>
  <rect class="cls-2" x="51.62519" y="0.49822" width="12.08939" height="12.08939"/>
  <rect class="cls-2" x="38.82807" y="13.28485" width="12.08939" height="12.08939"/>
  <rect class="cls-2" x="51.62519" y="13.29781" width="12.08939" height="12.08939"/>
  <rect class="cls-2" x="38.82807" y="26.02942" width="12.08939" height="12.08939"/>
  <rect class="cls-2" x="51.62519" y="26.04239" width="12.08939" height="12.08939"/>
  <rect class="cls-2" x="38.82807" y="38.82902" width="12.08939" height="12.08939"/>
  <rect class="cls-2" x="51.62519" y="38.84198" width="12.08939" height="12.08939"/>
  <rect class="cls-2" x="38.82807" y="51.61707" width="12.08939" height="12.08939"/>
  <rect class="cls-2" x="51.62519" y="51.63003" width="12.08939" height="12.08939"/>
  <circle class="cls-3" cx="44.87276" cy="6.52995" r="3.82915"/>
  <circle class="cls-3" cx="57.66989" cy="6.54798" r="3.82915"/>
  <circle class="cls-3" cx="44.796" cy="19.34108" r="3.82915"/>
  <circle class="cls-3" cx="57.59313" cy="19.35911" r="3.82915"/>
  <circle class="cls-3" cx="44.796" cy="32.22714" r="3.82915"/>
  <circle class="cls-3" cx="57.59313" cy="32.24517" r="3.82915"/>
  <circle class="cls-3" cx="44.796" cy="44.91813" r="3.82915"/>
  <circle class="cls-3" cx="57.59313" cy="44.87371" r="3.82915"/>
  <circle class="cls-3" cx="44.796" cy="57.80419" r="3.82915"/>
  <circle class="cls-3" cx="57.59313" cy="58.07488" r="3.82915"/>
  <rect class="cls-2" x="13.23381" y="0.47229" width="12.08939" height="12.08939"/>
  <rect class="cls-2" x="26.03094" y="0.48525" width="12.08939" height="12.08939"/>
  <rect class="cls-2" x="13.23381" y="13.27189" width="12.08939" height="12.08939"/>
  <rect class="cls-2" x="26.03094" y="13.28485" width="12.08939" height="12.08939"/>
  <rect class="cls-2" x="13.23381" y="26.01646" width="12.08939" height="12.08939"/>
  <rect class="cls-2" x="26.03094" y="26.02942" width="12.08939" height="12.08939"/>
  <rect class="cls-2" x="13.23381" y="38.81606" width="12.08939" height="12.08939"/>
  <rect class="cls-2" x="26.03094" y="38.82902" width="12.08939" height="12.08939"/>
  <rect class="cls-2" x="13.23381" y="51.60411" width="12.08939" height="12.08939"/>
  <rect class="cls-2" x="26.03094" y="51.61707" width="12.08939" height="12.08939"/>
  <circle class="cls-3" cx="19.27851" cy="6.51699" r="3.82915"/>
  <circle class="cls-3" cx="32.07563" cy="6.53502" r="3.82915"/>
  <circle class="cls-3" cx="19.20175" cy="19.32812" r="3.82915"/>
  <circle class="cls-3" cx="31.99887" cy="19.34615" r="3.82915"/>
  <circle class="cls-3" cx="19.20175" cy="32.21418" r="3.82915"/>
  <circle class="cls-3" cx="31.99887" cy="32.23221" r="3.82915"/>
  <circle class="cls-3" cx="19.20175" cy="44.90517" r="3.82915"/>
  <circle class="cls-3" cx="31.99887" cy="44.86075" r="3.82915"/>
  <circle class="cls-3" cx="19.20175" cy="57.79123" r="3.82915"/>
  <circle class="cls-3" cx="31.99887" cy="58.06192" r="3.82915"/>
  <rect class="cls-2" x="0.43668" y="0.47229" width="12.08939" height="12.08939"/>
  <rect class="cls-2" x="0.43668" y="13.27189" width="12.08939" height="12.08939"/>
  <rect class="cls-2" x="0.43668" y="26.01646" width="12.08939" height="12.08939"/>
  <rect class="cls-2" x="0.43668" y="38.81606" width="12.08939" height="12.08939"/>
  <rect class="cls-2" x="0.43668" y="51.60411" width="12.08939" height="12.08939"/>
  <circle class="cls-3" cx="6.48138" cy="6.51699" r="3.82915"/>
  <circle class="cls-3" cx="6.40462" cy="19.32812" r="3.82915"/>
  <circle class="cls-3" cx="6.40462" cy="32.21418" r="3.82915"/>
  <circle class="cls-3" cx="6.40462" cy="44.90517" r="3.82915"/>
  <circle class="cls-3" cx="6.40462" cy="57.79123" r="3.82915"/>
  <rect class="cls-2" x="115.61047" y="64.56547" width="12.08939" height="12.08939"/>
  <rect class="cls-2" x="128.4076" y="64.57843" width="12.08939" height="12.08939"/>
  <rect class="cls-2" x="141.1536" y="64.58096" width="12.08939" height="12.08939"/>
  <rect class="cls-2" x="153.93401" y="64.58602" width="12.08939" height="12.08939"/>
  <rect class="cls-2" x="115.61047" y="77.31005" width="12.08939" height="12.08939"/>
  <rect class="cls-2" x="128.4076" y="77.32301" width="12.08939" height="12.08939"/>
  <rect class="cls-2" x="141.1536" y="77.32554" width="12.08939" height="12.08939"/>
  <rect class="cls-2" x="153.93401" y="77.3306" width="12.08939" height="12.08939"/>
  <rect class="cls-2" x="115.61047" y="90.10964" width="12.08939" height="12.08939"/>
  <rect class="cls-2" x="128.4076" y="90.1226" width="12.08939" height="12.08939"/>
  <rect class="cls-2" x="141.1536" y="90.12513" width="12.08939" height="12.08939"/>
  <rect class="cls-2" x="153.93401" y="90.13019" width="12.08939" height="12.08939"/>
  <rect class="cls-2" x="115.61047" y="102.89769" width="12.08939" height="12.08939"/>
  <rect class="cls-2" x="128.4076" y="102.91065" width="12.08939" height="12.08939"/>
  <rect class="cls-2" x="141.1536" y="102.91318" width="12.08939" height="12.08939"/>
  <rect class="cls-2" x="153.93401" y="102.91824" width="12.08939" height="12.08939"/>
  <circle class="cls-3" cx="121.5784" cy="70.6217" r="3.82915"/>
  <circle class="cls-3" cx="134.37553" cy="70.63973" r="3.82915"/>
  <circle class="cls-3" cx="147.32618" cy="70.63973" r="3.82915"/>
  <circle class="cls-3" cx="159.96653" cy="70.61016" r="3.82915"/>
  <circle class="cls-3" cx="121.5784" cy="83.50776" r="3.82915"/>
  <circle class="cls-3" cx="134.37553" cy="83.52579" r="3.82915"/>
  <circle class="cls-3" cx="147.32618" cy="83.52579" r="3.82915"/>
  <circle class="cls-3" cx="159.96653" cy="83.49622" r="3.82915"/>
  <circle class="cls-3" cx="121.5784" cy="96.19875" r="3.82915"/>
  <circle class="cls-3" cx="134.37553" cy="96.15433" r="3.82915"/>
  <circle class="cls-3" cx="147.32618" cy="96.21678" r="3.82915"/>
  <circle class="cls-3" cx="159.96653" cy="96.18721" r="3.82915"/>
  <circle class="cls-3" cx="121.5784" cy="109.08481" r="3.82915"/>
  <circle class="cls-3" cx="134.37553" cy="109.3555" r="3.82915"/>
  <circle class="cls-3" cx="147.32618" cy="109.10284" r="3.82915"/>
  <circle class="cls-3" cx="159.96653" cy="109.07327" r="3.82915"/>
  <rect class="cls-2" x="90.01621" y="64.53725" width="12.08939" height="12.08939"/>
  <rect class="cls-2" x="102.81334" y="64.55021" width="12.08939" height="12.08939"/>
  <rect class="cls-2" x="90.01621" y="77.28183" width="12.08939" height="12.08939"/>
  <rect class="cls-2" x="102.81334" y="77.29479" width="12.08939" height="12.08939"/>
  <rect class="cls-2" x="90.01621" y="90.08142" width="12.08939" height="12.08939"/>
  <rect class="cls-2" x="102.81334" y="90.09438" width="12.08939" height="12.08939"/>
  <rect class="cls-2" x="90.01621" y="102.86947" width="12.08939" height="12.08939"/>
  <rect class="cls-2" x="102.81334" y="102.88243" width="12.08939" height="12.08939"/>
  <circle class="cls-3" cx="95.98415" cy="70.59348" r="3.82915"/>
  <circle class="cls-3" cx="108.78128" cy="70.61151" r="3.82915"/>
  <circle class="cls-3" cx="95.98415" cy="83.47955" r="3.82915"/>
  <circle class="cls-3" cx="108.78128" cy="83.49757" r="3.82915"/>
  <circle class="cls-3" cx="95.98415" cy="96.17053" r="3.82915"/>
  <circle class="cls-3" cx="108.78128" cy="96.12611" r="3.82915"/>
  <circle class="cls-3" cx="95.98415" cy="109.05659" r="3.82915"/>
  <circle class="cls-3" cx="108.78128" cy="109.32729" r="3.82915"/>
  <rect class="cls-2" x="64.42196" y="64.50903" width="12.08939" height="12.08939"/>
  <rect class="cls-2" x="77.21909" y="64.52199" width="12.08939" height="12.08939"/>
  <rect class="cls-2" x="64.42196" y="77.25361" width="12.08939" height="12.08939"/>
  <rect class="cls-2" x="77.21909" y="77.26657" width="12.08939" height="12.08939"/>
  <rect class="cls-2" x="64.42196" y="90.0532" width="12.08939" height="12.08939"/>
  <rect class="cls-2" x="77.21909" y="90.06616" width="12.08939" height="12.08939"/>
  <rect class="cls-2" x="64.42196" y="102.84125" width="12.08939" height="12.08939"/>
  <rect class="cls-2" x="77.21909" y="102.85422" width="12.08939" height="12.08939"/>
  <circle class="cls-3" cx="70.38989" cy="70.56527" r="3.82915"/>
  <circle class="cls-3" cx="83.18702" cy="70.58329" r="3.82915"/>
  <circle class="cls-3" cx="70.38989" cy="83.45133" r="3.82915"/>
  <circle class="cls-3" cx="83.18702" cy="83.46936" r="3.82915"/>
  <circle class="cls-3" cx="70.38989" cy="96.14231" r="3.82915"/>
  <circle class="cls-3" cx="83.18702" cy="96.0979" r="3.82915"/>
  <circle class="cls-3" cx="70.38989" cy="109.02837" r="3.82915"/>
  <circle class="cls-3" cx="83.18702" cy="109.29907" r="3.82915"/>
  <rect class="cls-2" x="38.8277" y="64.48081" width="12.08939" height="12.08939"/>
  <rect class="cls-2" x="51.62483" y="64.49378" width="12.08939" height="12.08939"/>
  <rect class="cls-2" x="38.8277" y="77.22539" width="12.08939" height="12.08939"/>
  <rect class="cls-2" x="51.62483" y="77.23835" width="12.08939" height="12.08939"/>
  <rect class="cls-2" x="38.8277" y="90.02499" width="12.08939" height="12.08939"/>
  <rect class="cls-2" x="51.62483" y="90.03795" width="12.08939" height="12.08939"/>
  <rect class="cls-2" x="38.8277" y="102.81304" width="12.08939" height="12.08939"/>
  <rect class="cls-2" x="51.62483" y="102.826" width="12.08939" height="12.08939"/>
  <circle class="cls-3" cx="44.79564" cy="70.53705" r="3.82915"/>
  <circle class="cls-3" cx="57.59277" cy="70.55508" r="3.82915"/>
  <circle class="cls-3" cx="44.79564" cy="83.42311" r="3.82915"/>
  <circle class="cls-3" cx="57.59277" cy="83.44114" r="3.82915"/>
  <circle class="cls-3" cx="44.79564" cy="96.1141" r="3.82915"/>
  <circle class="cls-3" cx="57.59277" cy="96.06968" r="3.82915"/>
  <circle class="cls-3" cx="44.79564" cy="109.00016" r="3.82915"/>
  <circle class="cls-3" cx="57.59277" cy="109.27085" r="3.82915"/>
  <rect class="cls-2" x="13.23345" y="64.46785" width="12.08939" height="12.08939"/>
  <rect class="cls-2" x="26.03058" y="64.48081" width="12.08939" height="12.08939"/>
  <rect class="cls-2" x="13.23345" y="77.21243" width="12.08939" height="12.08939"/>
  <rect class="cls-2" x="26.03058" y="77.22539" width="12.08939" height="12.08939"/>
  <rect class="cls-2" x="13.23345" y="90.01202" width="12.08939" height="12.08939"/>
  <rect class="cls-2" x="26.03058" y="90.02499" width="12.08939" height="12.08939"/>
  <rect class="cls-2" x="13.23345" y="102.80007" width="12.08939" height="12.08939"/>
  <rect class="cls-2" x="26.03058" y="102.81304" width="12.08939" height="12.08939"/>
  <circle class="cls-3" cx="19.20138" cy="70.52409" r="3.82915"/>
  <circle class="cls-3" cx="31.99851" cy="70.54212" r="3.82915"/>
  <circle class="cls-3" cx="19.20138" cy="83.41015" r="3.82915"/>
  <circle class="cls-3" cx="31.99851" cy="83.42818" r="3.82915"/>
  <circle class="cls-3" cx="19.20138" cy="96.10113" r="3.82915"/>
  <circle class="cls-3" cx="31.99851" cy="96.05672" r="3.82915"/>
  <circle class="cls-3" cx="19.20138" cy="108.9872" r="3.82915"/>
  <circle class="cls-3" cx="31.99851" cy="109.25789" r="3.82915"/>
  <rect class="cls-2" x="0.43632" y="64.46785" width="12.08939" height="12.08939"/>
  <rect class="cls-2" x="0.43632" y="77.21243" width="12.08939" height="12.08939"/>
  <rect class="cls-2" x="0.43632" y="90.01202" width="12.08939" height="12.08939"/>
  <rect class="cls-2" x="0.43632" y="102.80007" width="12.08939" height="12.08939"/>
  <circle class="cls-3" cx="6.40426" cy="70.52409" r="3.82915"/>
  <circle class="cls-3" cx="6.40426" cy="83.41015" r="3.82915"/>
  <circle class="cls-3" cx="6.40426" cy="96.10113" r="3.82915"/>
  <circle class="cls-3" cx="6.40426" cy="108.9872" r="3.82915"/>
  <rect class="cls-2" x="115.60681" y="115.80089" width="12.08939" height="12.08939"/>
  <rect class="cls-2" x="128.40394" y="115.81385" width="12.08939" height="12.08939"/>
  <rect class="cls-2" x="141.14994" y="115.81638" width="12.08939" height="12.08939"/>
  <rect class="cls-2" x="153.93035" y="115.82144" width="12.08939" height="12.08939"/>
  <circle class="cls-3" cx="121.57474" cy="121.98801" r="3.82915"/>
  <circle class="cls-3" cx="134.37187" cy="122.2587" r="3.82915"/>
  <circle class="cls-3" cx="147.32252" cy="122.00604" r="3.82915"/>
  <circle class="cls-3" cx="159.96287" cy="121.97647" r="3.82915"/>
  <rect class="cls-2" x="90.01255" y="115.77267" width="12.08939" height="12.08939"/>
  <rect class="cls-2" x="102.80968" y="115.78563" width="12.08939" height="12.08939"/>
  <circle class="cls-3" cx="95.98049" cy="121.95979" r="3.82915"/>
  <circle class="cls-3" cx="108.77762" cy="122.23049" r="3.82915"/>
  <rect class="cls-2" x="64.4183" y="115.74446" width="12.08939" height="12.08939"/>
  <rect class="cls-2" x="77.21543" y="115.75742" width="12.08939" height="12.08939"/>
  <circle class="cls-3" cx="70.38623" cy="121.93158" r="3.82915"/>
  <circle class="cls-3" cx="83.18336" cy="122.20227" r="3.82915"/>
  <rect class="cls-2" x="38.82404" y="115.71624" width="12.08939" height="12.08939"/>
  <rect class="cls-2" x="51.62117" y="115.7292" width="12.08939" height="12.08939"/>
  <circle class="cls-3" cx="44.79198" cy="121.90336" r="3.82915"/>
  <circle class="cls-3" cx="57.58911" cy="122.17405" r="3.82915"/>
  <rect class="cls-2" x="13.22979" y="115.70328" width="12.08939" height="12.08939"/>
  <rect class="cls-2" x="26.02692" y="115.71624" width="12.08939" height="12.08939"/>
  <circle class="cls-3" cx="19.19772" cy="121.8904" r="3.82915"/>
  <circle class="cls-3" cx="31.99485" cy="122.16109" r="3.82915"/>
  <rect class="cls-2" x="0.43266" y="115.70328" width="12.08939" height="12.08939"/>
  <circle class="cls-3" cx="6.4006" cy="121.8904" r="3.82915"/>
  <rect class="cls-2" x="115.60645" y="128.66464" width="12.08939" height="12.08939"/>
  <rect class="cls-2" x="128.40357" y="128.6776" width="12.08939" height="12.08939"/>
  <rect class="cls-2" x="141.14958" y="128.68013" width="12.08939" height="12.08939"/>
  <rect class="cls-2" x="153.92998" y="128.68519" width="12.08939" height="12.08939"/>
  <rect class="cls-2" x="115.60645" y="141.40921" width="12.08939" height="12.08939"/>
  <rect class="cls-2" x="128.40357" y="141.42217" width="12.08939" height="12.08939"/>
  <rect class="cls-2" x="141.14958" y="141.42471" width="12.08939" height="12.08939"/>
  <rect class="cls-2" x="153.92998" y="141.42977" width="12.08939" height="12.08939"/>
  <rect class="cls-2" x="115.60645" y="154.20881" width="12.08939" height="12.08939"/>
  <rect class="cls-2" x="128.40357" y="154.22177" width="12.08939" height="12.08939"/>
  <rect class="cls-2" x="141.14958" y="154.2243" width="12.08939" height="12.08939"/>
  <rect class="cls-2" x="153.92998" y="154.22936" width="12.08939" height="12.08939"/>
  <rect class="cls-2" x="115.60645" y="166.99686" width="12.08939" height="12.08939"/>
  <rect class="cls-2" x="128.40357" y="167.00982" width="12.08939" height="12.08939"/>
  <rect class="cls-2" x="141.14958" y="167.01235" width="12.08939" height="12.08939"/>
  <rect class="cls-2" x="153.92998" y="167.01741" width="12.08939" height="12.08939"/>
  <circle class="cls-3" cx="121.57438" cy="134.72087" r="3.82915"/>
  <circle class="cls-3" cx="134.37151" cy="134.7389" r="3.82915"/>
  <circle class="cls-3" cx="147.32215" cy="134.7389" r="3.82915"/>
  <circle class="cls-3" cx="159.96251" cy="134.70933" r="3.82915"/>
  <circle class="cls-3" cx="121.57438" cy="147.60693" r="3.82915"/>
  <circle class="cls-3" cx="134.37151" cy="147.62496" r="3.82915"/>
  <circle class="cls-3" cx="147.32215" cy="147.62496" r="3.82915"/>
  <circle class="cls-3" cx="159.96251" cy="147.59539" r="3.82915"/>
  <circle class="cls-3" cx="121.57438" cy="160.29792" r="3.82915"/>
  <circle class="cls-3" cx="134.37151" cy="160.2535" r="3.82915"/>
  <circle class="cls-3" cx="147.32215" cy="160.31594" r="3.82915"/>
  <circle class="cls-3" cx="159.96251" cy="160.28638" r="3.82915"/>
  <circle class="cls-3" cx="121.57438" cy="173.18398" r="3.82915"/>
  <circle class="cls-3" cx="134.37151" cy="173.45467" r="3.82915"/>
  <circle class="cls-3" cx="147.32215" cy="173.20201" r="3.82915"/>
  <circle class="cls-3" cx="159.96251" cy="173.17244" r="3.82915"/>
  <rect class="cls-2" x="90.01219" y="128.63642" width="12.08939" height="12.08939"/>
  <rect class="cls-2" x="102.80932" y="128.64938" width="12.08939" height="12.08939"/>
  <rect class="cls-2" x="90.01219" y="141.381" width="12.08939" height="12.08939"/>
  <rect class="cls-2" x="102.80932" y="141.39396" width="12.08939" height="12.08939"/>
  <rect class="cls-2" x="90.01219" y="154.18059" width="12.08939" height="12.08939"/>
  <rect class="cls-2" x="102.80932" y="154.19355" width="12.08939" height="12.08939"/>
  <rect class="cls-2" x="90.01219" y="166.96864" width="12.08939" height="12.08939"/>
  <rect class="cls-2" x="102.80932" y="166.9816" width="12.08939" height="12.08939"/>
  <circle class="cls-3" cx="95.98013" cy="134.69265" r="3.82915"/>
  <circle class="cls-3" cx="108.77725" cy="134.71068" r="3.82915"/>
  <circle class="cls-3" cx="95.98013" cy="147.57871" r="3.82915"/>
  <circle class="cls-3" cx="108.77725" cy="147.59674" r="3.82915"/>
  <circle class="cls-3" cx="95.98013" cy="160.2697" r="3.82915"/>
  <circle class="cls-3" cx="108.77725" cy="160.22528" r="3.82915"/>
  <circle class="cls-3" cx="95.98013" cy="173.15576" r="3.82915"/>
  <circle class="cls-3" cx="108.77725" cy="173.42645" r="3.82915"/>
  <rect class="cls-2" x="64.41794" y="128.6082" width="12.08939" height="12.08939"/>
  <rect class="cls-2" x="77.21506" y="128.62116" width="12.08939" height="12.08939"/>
  <rect class="cls-2" x="64.41794" y="141.35278" width="12.08939" height="12.08939"/>
  <rect class="cls-2" x="77.21506" y="141.36574" width="12.08939" height="12.08939"/>
  <rect class="cls-2" x="64.41794" y="154.15237" width="12.08939" height="12.08939"/>
  <rect class="cls-2" x="77.21506" y="154.16533" width="12.08939" height="12.08939"/>
  <rect class="cls-2" x="64.41794" y="166.94042" width="12.08939" height="12.08939"/>
  <rect class="cls-2" x="77.21506" y="166.95338" width="12.08939" height="12.08939"/>
  <circle class="cls-3" cx="70.38587" cy="134.66443" r="3.82915"/>
  <circle class="cls-3" cx="83.183" cy="134.68246" r="3.82915"/>
  <circle class="cls-3" cx="70.38587" cy="147.5505" r="3.82915"/>
  <circle class="cls-3" cx="83.183" cy="147.56852" r="3.82915"/>
  <circle class="cls-3" cx="70.38587" cy="160.24148" r="3.82915"/>
  <circle class="cls-3" cx="83.183" cy="160.19707" r="3.82915"/>
  <circle class="cls-3" cx="70.38587" cy="173.12754" r="3.82915"/>
  <circle class="cls-3" cx="83.183" cy="173.39824" r="3.82915"/>
  <rect class="cls-2" x="38.82368" y="128.57998" width="12.08939" height="12.08939"/>
  <rect class="cls-2" x="51.62081" y="128.59294" width="12.08939" height="12.08939"/>
  <rect class="cls-2" x="38.82368" y="141.32456" width="12.08939" height="12.08939"/>
  <rect class="cls-2" x="51.62081" y="141.33752" width="12.08939" height="12.08939"/>
  <rect class="cls-2" x="38.82368" y="154.12415" width="12.08939" height="12.08939"/>
  <rect class="cls-2" x="51.62081" y="154.13711" width="12.08939" height="12.08939"/>
  <rect class="cls-2" x="38.82368" y="166.9122" width="12.08939" height="12.08939"/>
  <rect class="cls-2" x="51.62081" y="166.92517" width="12.08939" height="12.08939"/>
  <circle class="cls-3" cx="44.79162" cy="134.63622" r="3.82915"/>
  <circle class="cls-3" cx="57.58874" cy="134.65424" r="3.82915"/>
  <circle class="cls-3" cx="44.79162" cy="147.52228" r="3.82915"/>
  <circle class="cls-3" cx="57.58874" cy="147.54031" r="3.82915"/>
  <circle class="cls-3" cx="44.79162" cy="160.21326" r="3.82915"/>
  <circle class="cls-3" cx="57.58874" cy="160.16885" r="3.82915"/>
  <circle class="cls-3" cx="44.79162" cy="173.09932" r="3.82915"/>
  <circle class="cls-3" cx="57.58874" cy="173.37002" r="3.82915"/>
  <rect class="cls-2" x="13.22943" y="128.56702" width="12.08939" height="12.08939"/>
  <rect class="cls-2" x="26.02655" y="128.57998" width="12.08939" height="12.08939"/>
  <rect class="cls-2" x="13.22943" y="141.3116" width="12.08939" height="12.08939"/>
  <rect class="cls-2" x="26.02655" y="141.32456" width="12.08939" height="12.08939"/>
  <rect class="cls-2" x="13.22943" y="154.11119" width="12.08939" height="12.08939"/>
  <rect class="cls-2" x="26.02655" y="154.12415" width="12.08939" height="12.08939"/>
  <rect class="cls-2" x="13.22943" y="166.89924" width="12.08939" height="12.08939"/>
  <rect class="cls-2" x="26.02655" y="166.9122" width="12.08939" height="12.08939"/>
  <circle class="cls-3" cx="19.19736" cy="134.62326" r="3.82915"/>
  <circle class="cls-3" cx="31.99449" cy="134.64128" r="3.82915"/>
  <circle class="cls-3" cx="19.19736" cy="147.50932" r="3.82915"/>
  <circle class="cls-3" cx="31.99449" cy="147.52734" r="3.82915"/>
  <circle class="cls-3" cx="19.19736" cy="160.2003" r="3.82915"/>
  <circle class="cls-3" cx="31.99449" cy="160.15589" r="3.82915"/>
  <circle class="cls-3" cx="19.19736" cy="173.08636" r="3.82915"/>
  <circle class="cls-3" cx="31.99449" cy="173.35706" r="3.82915"/>
  <rect class="cls-2" x="0.4323" y="128.56702" width="12.08939" height="12.08939"/>
  <rect class="cls-2" x="0.4323" y="141.3116" width="12.08939" height="12.08939"/>
  <rect class="cls-2" x="0.4323" y="154.11119" width="12.08939" height="12.08939"/>
  <rect class="cls-2" x="0.4323" y="166.89924" width="12.08939" height="12.08939"/>
  <circle class="cls-3" cx="6.40023" cy="134.62326" r="3.82915"/>
  <circle class="cls-3" cx="6.40023" cy="147.50932" r="3.82915"/>
  <circle class="cls-3" cx="6.40023" cy="160.2003" r="3.82915"/>
  <circle class="cls-3" cx="6.40023" cy="173.08636" r="3.82915"/>
  <line class="cls-4" x1="166.65716" y1="51.41713" x2="25.68173" y2="51.29484"/>
  <rect class="cls-5" x="167.00622" y="0.56991" width="11.8813" height="178.41872"/>
</svg>
