<svg id="Layer_1" data-name="Layer 1" xmlns="http://www.w3.org/2000/svg" viewBox="0 0 178.45 178.68"><defs><style>.cls-1{fill:#aa1e22;}.cls-2{fill:#e7ebe8;}.cls-3{fill:#cac9cc;}.cls-4{fill:#6d79ba;}.cls-5{fill:#c4c6e4;}.cls-6{fill:#dfe1ee;}.cls-7{fill:none;stroke:#6d79ba;stroke-miterlimit:10;stroke-width:2px;}.cls-8{fill:#2c3592;}.cls-9{font-size:6.65px;fill:#d1d3d4;font-family:MyriadPro-Semibold, Myriad Pro;font-weight:700;}</style></defs><title>large-cliffworld-approx</title><rect class="cls-1" x="166.57" y="0.19" width="11.88" height="178.42"/><rect class="cls-2" x="115.18" y="0.19" width="12.09" height="12.09"/><rect class="cls-2" x="127.98" y="0.2" width="12.09" height="12.09"/><rect class="cls-2" x="140.72" y="0.2" width="12.09" height="12.09"/><rect class="cls-2" x="115.18" y="12.99" width="12.09" height="12.09"/><rect class="cls-2" x="127.98" y="13" width="12.09" height="12.09"/><rect class="cls-2" x="140.72" y="13" width="12.09" height="12.09"/><rect class="cls-2" x="153.5" y="13.01" width="12.09" height="12.09"/><rect class="cls-2" x="115.18" y="25.73" width="12.09" height="12.09"/><rect class="cls-2" x="127.98" y="25.75" width="12.09" height="12.09"/><rect class="cls-2" x="140.72" y="25.75" width="12.09" height="12.09"/><rect class="cls-2" x="153.5" y="25.75" width="12.09" height="12.09"/><rect class="cls-2" x="115.18" y="38.53" width="12.09" height="12.09"/><rect class="cls-2" x="127.98" y="38.55" width="12.09" height="12.09"/><rect class="cls-2" x="140.72" y="38.55" width="12.09" height="12.09"/><rect class="cls-2" x="153.5" y="38.55" width="12.09" height="12.09"/><rect class="cls-2" x="115.18" y="51.32" width="12.09" height="12.09"/><rect class="cls-2" x="127.98" y="51.33" width="12.09" height="12.09"/><rect class="cls-2" x="140.72" y="51.34" width="12.09" height="12.09"/><rect class="cls-2" x="153.5" y="51.34" width="12.09" height="12.09"/><circle class="cls-3" cx="159.53" cy="57.5" r="3.83"/><rect class="cls-2" x="89.58" y="0.16" width="12.09" height="12.09"/><rect class="cls-2" x="102.38" y="0.17" width="12.09" height="12.09"/><rect class="cls-2" x="89.58" y="12.96" width="12.09" height="12.09"/><rect class="cls-2" x="102.38" y="12.97" width="12.09" height="12.09"/><rect class="cls-2" x="89.58" y="25.7" width="12.09" height="12.09"/><rect class="cls-2" x="102.38" y="25.72" width="12.09" height="12.09"/><rect class="cls-2" x="89.58" y="38.5" width="12.09" height="12.09"/><rect class="cls-2" x="102.38" y="38.52" width="12.09" height="12.09"/><rect class="cls-2" x="89.58" y="51.29" width="12.09" height="12.09"/><rect class="cls-2" x="102.38" y="51.31" width="12.09" height="12.09"/><rect class="cls-2" x="63.99" y="0.13" width="12.09" height="12.09"/><rect class="cls-2" x="76.79" y="0.15" width="12.09" height="12.09"/><rect class="cls-2" x="63.99" y="12.93" width="12.09" height="12.09"/><rect class="cls-2" x="76.79" y="12.94" width="12.09" height="12.09"/><rect class="cls-2" x="63.99" y="25.68" width="12.09" height="12.09"/><rect class="cls-2" x="76.79" y="25.69" width="12.09" height="12.09"/><rect class="cls-2" x="63.99" y="38.48" width="12.09" height="12.09"/><rect class="cls-2" x="76.79" y="38.49" width="12.09" height="12.09"/><rect class="cls-2" x="63.99" y="51.26" width="12.09" height="12.09"/><rect class="cls-2" x="76.79" y="51.28" width="12.09" height="12.09"/><rect class="cls-2" x="38.4" y="0.1" width="12.09" height="12.09"/><rect class="cls-2" x="51.19" y="0.12" width="12.09" height="12.09"/><rect class="cls-2" x="38.4" y="12.9" width="12.09" height="12.09"/><rect class="cls-2" x="51.19" y="12.92" width="12.09" height="12.09"/><rect class="cls-2" x="38.4" y="25.65" width="12.09" height="12.09"/><rect class="cls-2" x="51.19" y="25.66" width="12.09" height="12.09"/><rect class="cls-2" x="38.4" y="38.45" width="12.09" height="12.09"/><rect class="cls-2" x="51.19" y="38.46" width="12.09" height="12.09"/><rect class="cls-2" x="38.4" y="51.24" width="12.09" height="12.09"/><rect class="cls-2" x="51.19" y="51.25" width="12.09" height="12.09"/><rect class="cls-2" x="12.8" y="0.09" width="12.09" height="12.09"/><rect class="cls-2" x="25.6" y="0.1" width="12.09" height="12.09"/><rect class="cls-2" x="12.8" y="12.89" width="12.09" height="12.09"/><rect class="cls-2" x="25.6" y="12.9" width="12.09" height="12.09"/><rect class="cls-2" x="12.8" y="25.64" width="12.09" height="12.09"/><rect class="cls-2" x="25.6" y="25.65" width="12.09" height="12.09"/><rect class="cls-2" x="12.8" y="38.43" width="12.09" height="12.09"/><rect class="cls-2" x="25.6" y="38.45" width="12.09" height="12.09"/><rect class="cls-2" x="12.8" y="51.22" width="12.09" height="12.09"/><rect class="cls-2" x="25.6" y="51.24" width="12.09" height="12.09"/><rect class="cls-2" y="0.09" width="12.09" height="12.09"/><rect class="cls-2" y="12.89" width="12.09" height="12.09"/><rect class="cls-2" y="25.64" width="12.09" height="12.09"/><rect class="cls-2" y="38.43" width="12.09" height="12.09"/><rect class="cls-2" y="51.22" width="12.09" height="12.09"/><rect class="cls-2" x="115.18" y="64.18" width="12.09" height="12.09"/><rect class="cls-2" x="127.97" y="64.2" width="12.09" height="12.09"/><rect class="cls-2" x="140.72" y="64.2" width="12.09" height="12.09"/><rect class="cls-2" x="153.5" y="64.2" width="12.09" height="12.09"/><rect class="cls-2" x="115.18" y="76.93" width="12.09" height="12.09"/><rect class="cls-2" x="127.97" y="76.94" width="12.09" height="12.09"/><rect class="cls-2" x="140.72" y="76.94" width="12.09" height="12.09"/><rect class="cls-2" x="153.5" y="76.95" width="12.09" height="12.09"/><rect class="cls-2" x="115.18" y="89.73" width="12.09" height="12.09"/><rect class="cls-2" x="127.97" y="89.74" width="12.09" height="12.09"/><rect class="cls-2" x="140.72" y="89.74" width="12.09" height="12.09"/><rect class="cls-2" x="153.5" y="89.75" width="12.09" height="12.09"/><rect class="cls-2" x="115.18" y="102.52" width="12.09" height="12.09"/><rect class="cls-2" x="127.97" y="102.53" width="12.09" height="12.09"/><rect class="cls-2" x="140.72" y="102.53" width="12.09" height="12.09"/><rect class="cls-2" x="153.5" y="102.54" width="12.09" height="12.09"/><circle class="cls-3" cx="146.89" cy="70.26" r="3.83"/><circle class="cls-3" cx="159.53" cy="70.23" r="3.83"/><circle class="cls-3" cx="121.15" cy="83.13" r="3.83"/><circle class="cls-3" cx="133.94" cy="83.14" r="3.83"/><circle class="cls-3" cx="146.89" cy="83.14" r="3.83"/><circle class="cls-3" cx="159.53" cy="83.11" r="3.83"/><circle class="cls-3" cx="121.15" cy="95.82" r="3.83"/><circle class="cls-3" cx="133.94" cy="95.77" r="3.83"/><circle class="cls-3" cx="146.89" cy="95.84" r="3.83"/><circle class="cls-3" cx="159.53" cy="95.81" r="3.83"/><circle class="cls-3" cx="121.15" cy="108.7" r="3.83"/><circle class="cls-3" cx="133.94" cy="108.97" r="3.83"/><circle class="cls-3" cx="146.89" cy="108.72" r="3.83"/><circle class="cls-3" cx="159.53" cy="108.69" r="3.83"/><rect class="cls-2" x="89.58" y="64.16" width="12.09" height="12.09"/><rect class="cls-2" x="102.38" y="64.17" width="12.09" height="12.09"/><rect class="cls-2" x="89.58" y="76.9" width="12.09" height="12.09"/><rect class="cls-2" x="102.38" y="76.91" width="12.09" height="12.09"/><rect class="cls-2" x="89.58" y="89.7" width="12.09" height="12.09"/><rect class="cls-2" x="102.38" y="89.71" width="12.09" height="12.09"/><rect class="cls-2" x="89.58" y="102.49" width="12.09" height="12.09"/><rect class="cls-2" x="102.38" y="102.5" width="12.09" height="12.09"/><circle class="cls-3" cx="95.55" cy="83.1" r="3.83"/><circle class="cls-3" cx="108.35" cy="83.12" r="3.83"/><circle class="cls-3" cx="95.55" cy="95.79" r="3.83"/><circle class="cls-3" cx="108.35" cy="95.74" r="3.83"/><circle class="cls-3" cx="95.55" cy="108.68" r="3.83"/><circle class="cls-3" cx="108.35" cy="108.95" r="3.83"/><rect class="cls-2" x="63.99" y="64.13" width="12.09" height="12.09"/><rect class="cls-2" x="76.79" y="64.14" width="12.09" height="12.09"/><rect class="cls-2" x="63.99" y="76.87" width="12.09" height="12.09"/><rect class="cls-2" x="76.79" y="76.89" width="12.09" height="12.09"/><rect class="cls-2" x="63.99" y="89.67" width="12.09" height="12.09"/><rect class="cls-2" x="76.79" y="89.68" width="12.09" height="12.09"/><rect class="cls-2" x="63.99" y="102.46" width="12.09" height="12.09"/><rect class="cls-2" x="76.79" y="102.47" width="12.09" height="12.09"/><circle class="cls-3" cx="69.96" cy="83.07" r="3.83"/><circle class="cls-3" cx="82.75" cy="83.09" r="3.83"/><circle class="cls-3" cx="69.96" cy="95.76" r="3.83"/><circle class="cls-3" cx="82.75" cy="95.72" r="3.83"/><circle class="cls-3" cx="69.96" cy="108.65" r="3.83"/><circle class="cls-3" cx="82.75" cy="108.92" r="3.83"/><rect class="cls-2" x="38.4" y="64.1" width="12.09" height="12.09"/><rect class="cls-2" x="51.19" y="64.11" width="12.09" height="12.09"/><rect class="cls-2" x="38.4" y="76.84" width="12.09" height="12.09"/><rect class="cls-2" x="51.19" y="76.86" width="12.09" height="12.09"/><rect class="cls-2" x="38.4" y="89.64" width="12.09" height="12.09"/><rect class="cls-2" x="51.19" y="89.66" width="12.09" height="12.09"/><rect class="cls-2" x="38.4" y="102.43" width="12.09" height="12.09"/><rect class="cls-2" x="51.19" y="102.44" width="12.09" height="12.09"/><circle class="cls-3" cx="57.16" cy="95.69" r="3.83"/><circle class="cls-3" cx="57.16" cy="108.89" r="3.83"/><rect class="cls-2" x="12.8" y="64.09" width="12.09" height="12.09"/><rect class="cls-2" x="25.6" y="64.1" width="12.09" height="12.09"/><rect class="cls-2" x="12.8" y="76.83" width="12.09" height="12.09"/><rect class="cls-2" x="25.6" y="76.84" width="12.09" height="12.09"/><rect class="cls-2" x="12.8" y="89.63" width="12.09" height="12.09"/><rect class="cls-2" x="25.6" y="89.64" width="12.09" height="12.09"/><rect class="cls-2" x="12.8" y="102.42" width="12.09" height="12.09"/><rect class="cls-2" x="25.6" y="102.43" width="12.09" height="12.09"/><rect class="cls-2" y="64.09" width="12.09" height="12.09"/><rect class="cls-2" y="76.83" width="12.09" height="12.09"/><rect class="cls-2" y="89.63" width="12.09" height="12.09"/><rect class="cls-2" y="102.42" width="12.09" height="12.09"/><rect class="cls-2" x="115.17" y="115.42" width="12.09" height="12.09"/><rect class="cls-2" x="127.97" y="115.43" width="12.09" height="12.09"/><rect class="cls-2" x="140.72" y="115.44" width="12.09" height="12.09"/><rect class="cls-2" x="153.5" y="115.44" width="12.09" height="12.09"/><circle class="cls-3" cx="121.14" cy="121.61" r="3.83"/><circle class="cls-3" cx="133.94" cy="121.88" r="3.83"/><circle class="cls-3" cx="146.89" cy="121.62" r="3.83"/><circle class="cls-3" cx="159.53" cy="121.6" r="3.83"/><rect class="cls-2" x="89.58" y="115.39" width="12.09" height="12.09"/><rect class="cls-2" x="102.38" y="115.4" width="12.09" height="12.09"/><circle class="cls-3" cx="95.55" cy="121.58" r="3.83"/><circle class="cls-3" cx="108.34" cy="121.85" r="3.83"/><rect class="cls-2" x="63.99" y="115.36" width="12.09" height="12.09"/><rect class="cls-2" x="76.78" y="115.38" width="12.09" height="12.09"/><circle class="cls-3" cx="69.95" cy="121.55" r="3.83"/><circle class="cls-3" cx="82.75" cy="121.82" r="3.83"/><rect class="cls-2" x="38.39" y="115.34" width="12.09" height="12.09"/><rect class="cls-2" x="51.19" y="115.35" width="12.09" height="12.09"/><circle class="cls-3" cx="57.16" cy="121.79" r="3.83"/><rect class="cls-2" x="12.8" y="115.32" width="12.09" height="12.09"/><rect class="cls-2" x="25.59" y="115.34" width="12.09" height="12.09"/><rect class="cls-2" y="115.32" width="12.09" height="12.09"/><rect class="cls-2" x="115.17" y="128.28" width="12.09" height="12.09"/><rect class="cls-2" x="127.97" y="128.3" width="12.09" height="12.09"/><rect class="cls-2" x="140.72" y="128.3" width="12.09" height="12.09"/><rect class="cls-2" x="153.5" y="128.3" width="12.09" height="12.09"/><rect class="cls-2" x="115.17" y="141.03" width="12.09" height="12.09"/><rect class="cls-2" x="127.97" y="141.04" width="12.09" height="12.09"/><rect class="cls-2" x="140.72" y="141.04" width="12.09" height="12.09"/><rect class="cls-2" x="153.5" y="141.05" width="12.09" height="12.09"/><rect class="cls-2" x="115.17" y="153.83" width="12.09" height="12.09"/><rect class="cls-2" x="127.97" y="153.84" width="12.09" height="12.09"/><rect class="cls-2" x="140.72" y="153.84" width="12.09" height="12.09"/><rect class="cls-2" x="153.5" y="153.85" width="12.09" height="12.09"/><rect class="cls-2" x="115.17" y="166.62" width="12.09" height="12.09"/><rect class="cls-2" x="127.97" y="166.63" width="12.09" height="12.09"/><rect class="cls-2" x="140.72" y="166.63" width="12.09" height="12.09"/><rect class="cls-2" x="153.5" y="166.64" width="12.09" height="12.09"/><circle class="cls-3" cx="121.14" cy="134.34" r="3.83"/><circle class="cls-3" cx="133.94" cy="134.36" r="3.83"/><circle class="cls-3" cx="146.89" cy="134.36" r="3.83"/><circle class="cls-3" cx="159.53" cy="134.33" r="3.83"/><circle class="cls-3" cx="121.14" cy="147.23" r="3.83"/><circle class="cls-3" cx="133.94" cy="147.24" r="3.83"/><circle class="cls-3" cx="146.89" cy="147.24" r="3.83"/><circle class="cls-3" cx="159.53" cy="147.21" r="3.83"/><circle class="cls-3" cx="121.14" cy="159.92" r="3.83"/><circle class="cls-3" cx="133.94" cy="159.87" r="3.83"/><circle class="cls-3" cx="146.89" cy="159.93" r="3.83"/><circle class="cls-3" cx="159.53" cy="159.91" r="3.83"/><circle class="cls-3" cx="121.14" cy="172.8" r="3.83"/><circle class="cls-3" cx="133.94" cy="173.07" r="3.83"/><circle class="cls-3" cx="146.89" cy="172.82" r="3.83"/><circle class="cls-3" cx="159.53" cy="172.79" r="3.83"/><rect class="cls-2" x="89.58" y="128.26" width="12.09" height="12.09"/><rect class="cls-2" x="102.38" y="128.27" width="12.09" height="12.09"/><rect class="cls-2" x="89.58" y="141" width="12.09" height="12.09"/><rect class="cls-2" x="102.38" y="141.01" width="12.09" height="12.09"/><rect class="cls-2" x="89.58" y="153.8" width="12.09" height="12.09"/><rect class="cls-2" x="102.38" y="153.81" width="12.09" height="12.09"/><rect class="cls-2" x="89.58" y="166.59" width="12.09" height="12.09"/><rect class="cls-2" x="102.38" y="166.6" width="12.09" height="12.09"/><circle class="cls-3" cx="95.55" cy="134.31" r="3.83"/><circle class="cls-3" cx="108.34" cy="134.33" r="3.83"/><circle class="cls-3" cx="95.55" cy="147.2" r="3.83"/><circle class="cls-3" cx="108.34" cy="147.22" r="3.83"/><circle class="cls-3" cx="95.55" cy="159.89" r="3.83"/><circle class="cls-3" cx="108.34" cy="159.84" r="3.83"/><circle class="cls-3" cx="95.55" cy="172.77" r="3.83"/><circle class="cls-3" cx="108.34" cy="173.05" r="3.83"/><rect class="cls-2" x="63.99" y="128.23" width="12.09" height="12.09"/><rect class="cls-2" x="76.78" y="128.24" width="12.09" height="12.09"/><rect class="cls-2" x="63.99" y="140.97" width="12.09" height="12.09"/><rect class="cls-2" x="76.78" y="140.98" width="12.09" height="12.09"/><rect class="cls-2" x="63.99" y="153.77" width="12.09" height="12.09"/><rect class="cls-2" x="76.78" y="153.78" width="12.09" height="12.09"/><rect class="cls-2" x="63.99" y="166.56" width="12.09" height="12.09"/><rect class="cls-2" x="76.78" y="166.57" width="12.09" height="12.09"/><circle class="cls-3" cx="69.95" cy="134.28" r="3.83"/><circle class="cls-3" cx="82.75" cy="134.3" r="3.83"/><circle class="cls-3" cx="69.95" cy="147.17" r="3.83"/><circle class="cls-3" cx="82.75" cy="147.19" r="3.83"/><circle class="cls-3" cx="69.95" cy="159.86" r="3.83"/><circle class="cls-3" cx="82.75" cy="159.82" r="3.83"/><circle class="cls-3" cx="69.95" cy="172.75" r="3.83"/><circle class="cls-3" cx="82.75" cy="173.02" r="3.83"/><rect class="cls-2" x="38.39" y="128.2" width="12.09" height="12.09"/><rect class="cls-2" x="51.19" y="128.21" width="12.09" height="12.09"/><rect class="cls-2" x="38.39" y="140.94" width="12.09" height="12.09"/><rect class="cls-2" x="51.19" y="140.96" width="12.09" height="12.09"/><rect class="cls-2" x="38.39" y="153.74" width="12.09" height="12.09"/><rect class="cls-2" x="51.19" y="153.76" width="12.09" height="12.09"/><rect class="cls-2" x="38.39" y="166.53" width="12.09" height="12.09"/><rect class="cls-2" x="51.19" y="166.54" width="12.09" height="12.09"/><circle class="cls-3" cx="57.16" cy="134.27" r="3.83"/><circle class="cls-3" cx="57.16" cy="147.16" r="3.83"/><circle class="cls-3" cx="57.16" cy="159.79" r="3.83"/><circle class="cls-3" cx="57.16" cy="172.99" r="3.83"/><rect class="cls-2" x="12.8" y="128.19" width="12.09" height="12.09"/><rect class="cls-2" x="25.59" y="128.2" width="12.09" height="12.09"/><rect class="cls-2" x="12.8" y="140.93" width="12.09" height="12.09"/><rect class="cls-2" x="25.59" y="140.94" width="12.09" height="12.09"/><rect class="cls-2" x="12.8" y="153.73" width="12.09" height="12.09"/><rect class="cls-2" x="25.59" y="153.74" width="12.09" height="12.09"/><rect class="cls-2" x="12.8" y="166.52" width="12.09" height="12.09"/><rect class="cls-2" x="25.59" y="166.53" width="12.09" height="12.09"/><circle class="cls-4" cx="146.97" cy="6.25" r="3.83"/><circle class="cls-4" cx="133.94" cy="19.06" r="3.83"/><circle class="cls-4" cx="146.89" cy="19.06" r="3.83"/><circle class="cls-4" cx="121.15" cy="31.93" r="3.83"/><circle class="cls-4" cx="133.94" cy="31.95" r="3.83"/><circle class="cls-4" cx="108.35" cy="31.92" r="3.83"/><circle class="cls-4" cx="95.55" cy="44.59" r="3.83"/><circle class="cls-4" cx="108.35" cy="44.55" r="3.83"/><circle class="cls-4" cx="69.96" cy="18.99" r="3.83"/><circle class="cls-4" cx="69.96" cy="31.87" r="3.83"/><circle class="cls-4" cx="82.75" cy="31.89" r="3.83"/><circle class="cls-4" cx="82.75" cy="44.52" r="3.83"/><circle class="cls-4" cx="44.36" cy="18.96" r="3.83"/><circle class="cls-4" cx="57.16" cy="18.98" r="3.83"/><circle class="cls-4" cx="31.57" cy="18.96" r="3.83"/><circle class="cls-4" cx="18.77" cy="31.83" r="3.83"/><circle class="cls-4" cx="31.57" cy="31.85" r="3.83"/><circle class="cls-4" cx="5.97" cy="31.83" r="3.83"/><circle class="cls-4" cx="5.97" cy="44.52" r="3.83"/><circle class="cls-4" cx="5.97" cy="57.41" r="3.83"/><circle class="cls-4" cx="18.77" cy="70.14" r="3.83"/><circle class="cls-4" cx="18.77" cy="83.03" r="3.83"/><circle class="cls-4" cx="18.77" cy="95.72" r="3.83"/><circle class="cls-4" cx="18.77" cy="108.61" r="3.83"/><circle class="cls-4" cx="5.97" cy="70.14" r="3.83"/><circle class="cls-4" cx="18.77" cy="121.51" r="3.83"/><circle class="cls-4" cx="18.76" cy="134.24" r="3.83"/><circle class="cls-4" cx="18.76" cy="147.13" r="3.83"/><circle class="cls-4" cx="18.76" cy="159.82" r="3.83"/><rect class="cls-2" y="128.19" width="12.09" height="12.09"/><rect class="cls-2" y="140.93" width="12.09" height="12.09"/><rect class="cls-2" y="153.73" width="12.09" height="12.09"/><rect class="cls-2" y="166.52" width="12.09" height="12.09"/><circle class="cls-5" cx="134.02" cy="6.25" r="3.83"/><circle class="cls-5" cx="121.15" cy="19.04" r="3.83"/><circle class="cls-5" cx="159.53" cy="19.03" r="3.83"/><circle class="cls-5" cx="146.89" cy="31.95" r="3.83"/><circle class="cls-5" cx="121.15" cy="44.62" r="3.83"/><circle class="cls-5" cx="133.94" cy="44.58" r="3.83"/><circle class="cls-5" cx="121.15" cy="57.51" r="3.83"/><circle class="cls-5" cx="95.55" cy="19.02" r="3.83"/><circle class="cls-5" cx="108.35" cy="19.03" r="3.83"/><circle class="cls-5" cx="95.55" cy="31.9" r="3.83"/><circle class="cls-5" cx="95.55" cy="57.48" r="3.83"/><circle class="cls-5" cx="108.35" cy="57.75" r="3.83"/><circle class="cls-5" cx="70.03" cy="6.18" r="3.83"/><circle class="cls-5" cx="82.83" cy="6.19" r="3.83"/><circle class="cls-5" cx="82.75" cy="19.01" r="3.83"/><circle class="cls-5" cx="69.96" cy="44.57" r="3.83"/><circle class="cls-5" cx="69.96" cy="57.45" r="3.83"/><circle class="cls-5" cx="82.75" cy="57.72" r="3.83"/><circle class="cls-5" cx="44.44" cy="6.15" r="3.83"/><circle class="cls-5" cx="57.24" cy="6.17" r="3.83"/><circle class="cls-5" cx="44.36" cy="31.85" r="3.83"/><circle class="cls-5" cx="57.16" cy="31.86" r="3.83"/><circle class="cls-5" cx="44.36" cy="44.54" r="3.83"/><circle class="cls-5" cx="57.16" cy="44.49" r="3.83"/><circle class="cls-5" cx="31.64" cy="6.15" r="3.83"/><circle class="cls-5" cx="18.77" cy="18.95" r="3.83"/><circle class="cls-5" cx="18.77" cy="44.52" r="3.83"/><circle class="cls-5" cx="31.57" cy="44.48" r="3.83"/><circle class="cls-5" cx="18.77" cy="57.41" r="3.83"/><circle class="cls-5" cx="31.57" cy="57.68" r="3.83"/><circle class="cls-5" cx="5.97" cy="18.95" r="3.83"/><circle class="cls-5" cx="31.57" cy="70.16" r="3.83"/><circle class="cls-5" cx="31.57" cy="83.05" r="3.83"/><circle class="cls-5" cx="31.57" cy="95.68" r="3.83"/><circle class="cls-5" cx="31.57" cy="108.88" r="3.83"/><circle class="cls-5" cx="5.97" cy="83.03" r="3.83"/><circle class="cls-5" cx="5.97" cy="95.72" r="3.83"/><circle class="cls-5" cx="5.97" cy="108.61" r="3.83"/><circle class="cls-5" cx="31.56" cy="121.78" r="3.83"/><circle class="cls-5" cx="5.97" cy="121.51" r="3.83"/><circle class="cls-5" cx="31.56" cy="134.26" r="3.83"/><circle class="cls-5" cx="31.56" cy="147.15" r="3.83"/><circle class="cls-5" cx="31.56" cy="159.77" r="3.83"/><circle class="cls-5" cx="18.76" cy="172.71" r="3.83"/><circle class="cls-5" cx="5.97" cy="134.24" r="3.83"/><circle class="cls-5" cx="5.97" cy="147.13" r="3.83"/><circle class="cls-5" cx="5.97" cy="159.82" r="3.83"/><circle class="cls-6" cx="121.22" cy="6.23" r="3.83"/><circle class="cls-6" cx="159.53" cy="31.92" r="3.83"/><circle class="cls-6" cx="146.89" cy="44.64" r="3.83"/><circle class="cls-6" cx="159.53" cy="44.61" r="3.83"/><circle class="cls-6" cx="133.94" cy="57.78" r="3.83"/><circle class="cls-6" cx="146.89" cy="57.53" r="3.83"/><circle class="cls-6" cx="95.63" cy="6.21" r="3.83"/><circle class="cls-6" cx="108.43" cy="6.22" r="3.83"/><circle class="cls-6" cx="44.36" cy="57.42" r="3.83"/><circle class="cls-6" cx="57.16" cy="57.69" r="3.83"/><circle class="cls-6" cx="18.85" cy="6.14" r="3.83"/><circle class="cls-6" cx="6.05" cy="6.14" r="3.83"/><circle class="cls-6" cx="121.15" cy="70.24" r="3.83"/><circle class="cls-6" cx="133.94" cy="70.26" r="3.83"/><circle class="cls-6" cx="95.55" cy="70.21" r="3.83"/><circle class="cls-6" cx="108.35" cy="70.23" r="3.83"/><circle class="cls-6" cx="69.96" cy="70.18" r="3.83"/><circle class="cls-6" cx="82.75" cy="70.2" r="3.83"/><circle class="cls-6" cx="44.36" cy="70.16" r="3.83"/><circle class="cls-6" cx="57.16" cy="70.17" r="3.83"/><circle class="cls-6" cx="44.36" cy="83.04" r="3.83"/><circle class="cls-6" cx="57.16" cy="83.06" r="3.83"/><circle class="cls-6" cx="44.36" cy="95.73" r="3.83"/><circle class="cls-6" cx="44.36" cy="108.62" r="3.83"/><circle class="cls-6" cx="44.36" cy="121.52" r="3.83"/><circle class="cls-6" cx="44.36" cy="134.25" r="3.83"/><circle class="cls-6" cx="44.36" cy="147.14" r="3.83"/><circle class="cls-6" cx="44.36" cy="159.83" r="3.83"/><circle class="cls-6" cx="44.36" cy="172.72" r="3.83"/><circle class="cls-6" cx="31.56" cy="172.98" r="3.83"/><circle class="cls-6" cx="5.97" cy="172.71" r="3.83"/><polyline class="cls-7" points="18.77 159.82 18.77 70.14 5.97 70.14 5.97 31.83 31.57 31.83 31.57 18.96 69.96 18.96 69.96 31.87 82.75 31.87 82.75 44.52 95.55 44.52 108.35 44.52 108.35 31.92 133.94 31.92 133.94 19.06 146.89 19.06 146.89 6.25 159.53 6.25"/><rect class="cls-8" x="154.38" y="1.08" width="10.33" height="10.33"/><text class="cls-9" transform="translate(155.77 7.48)">+1</text></svg>