<svg id="Layer_1" data-name="Layer 1" xmlns="http://www.w3.org/2000/svg" viewBox="0 0 178.45 178.74"><defs><style>.cls-1{fill:#aa1e22;}.cls-2{fill:#2c3592;}.cls-3{fill:#e7ebe8;}.cls-4{fill:#cac9cc;}</style></defs><title>large-cliffworld-states</title><rect class="cls-1" x="166.57" y="0.03" width="11.88" height="178.42"/><rect class="cls-2" x="154.38" y="0.92" width="10.33" height="10.33"/><rect class="cls-3" x="115.18" y="0.03" width="12.09" height="12.09"/><rect class="cls-3" x="127.97" y="0.04" width="12.09" height="12.09"/><rect class="cls-3" x="140.72" y="0.04" width="12.09" height="12.09"/><rect class="cls-3" x="115.18" y="12.83" width="12.09" height="12.09"/><rect class="cls-3" x="127.97" y="12.84" width="12.09" height="12.09"/><rect class="cls-3" x="140.72" y="12.84" width="12.09" height="12.09"/><rect class="cls-3" x="153.5" y="12.85" width="12.09" height="12.09"/><rect class="cls-3" x="115.18" y="25.57" width="12.09" height="12.09"/><rect class="cls-3" x="127.97" y="25.59" width="12.09" height="12.09"/><rect class="cls-3" x="140.72" y="25.59" width="12.09" height="12.09"/><rect class="cls-3" x="153.5" y="25.59" width="12.09" height="12.09"/><rect class="cls-3" x="115.18" y="38.37" width="12.09" height="12.09"/><rect class="cls-3" x="127.97" y="38.38" width="12.09" height="12.09"/><rect class="cls-3" x="140.72" y="38.39" width="12.09" height="12.09"/><rect class="cls-3" x="153.5" y="38.39" width="12.09" height="12.09"/><rect class="cls-3" x="115.18" y="51.16" width="12.09" height="12.09"/><rect class="cls-3" x="127.97" y="51.17" width="12.09" height="12.09"/><rect class="cls-3" x="140.72" y="51.18" width="12.09" height="12.09"/><rect class="cls-3" x="153.5" y="51.18" width="12.09" height="12.09"/><circle class="cls-4" cx="121.22" cy="6.07" r="3.83"/><circle class="cls-4" cx="134.02" cy="6.09" r="3.83"/><circle class="cls-4" cx="146.97" cy="6.09" r="3.83"/><circle class="cls-4" cx="121.15" cy="18.88" r="3.83"/><circle class="cls-4" cx="133.94" cy="18.9" r="3.83"/><circle class="cls-4" cx="146.89" cy="18.9" r="3.83"/><circle class="cls-4" cx="159.53" cy="18.87" r="3.83"/><circle class="cls-4" cx="121.15" cy="31.77" r="3.83"/><circle class="cls-4" cx="133.94" cy="31.79" r="3.83"/><circle class="cls-4" cx="146.89" cy="31.79" r="3.83"/><circle class="cls-4" cx="159.53" cy="31.76" r="3.83"/><circle class="cls-4" cx="121.15" cy="44.46" r="3.83"/><circle class="cls-4" cx="133.94" cy="44.42" r="3.83"/><circle class="cls-4" cx="146.89" cy="44.48" r="3.83"/><circle class="cls-4" cx="159.53" cy="44.45" r="3.83"/><circle class="cls-4" cx="121.15" cy="57.35" r="3.83"/><circle class="cls-4" cx="133.94" cy="57.62" r="3.83"/><circle class="cls-4" cx="146.89" cy="57.37" r="3.83"/><circle class="cls-4" cx="159.53" cy="57.34" r="3.83"/><rect class="cls-3" x="89.58" width="12.09" height="12.09"/><rect class="cls-3" x="102.38" y="0.01" width="12.09" height="12.09"/><rect class="cls-3" x="89.58" y="12.8" width="12.09" height="12.09"/><rect class="cls-3" x="102.38" y="12.81" width="12.09" height="12.09"/><rect class="cls-3" x="89.58" y="25.54" width="12.09" height="12.09"/><rect class="cls-3" x="102.38" y="25.56" width="12.09" height="12.09"/><rect class="cls-3" x="89.58" y="38.34" width="12.09" height="12.09"/><rect class="cls-3" x="102.38" y="38.36" width="12.09" height="12.09"/><rect class="cls-3" x="89.58" y="51.13" width="12.09" height="12.09"/><rect class="cls-3" x="102.38" y="51.14" width="12.09" height="12.09"/><circle class="cls-4" cx="95.63" cy="6.04" r="3.83"/><circle class="cls-4" cx="108.43" cy="6.06" r="3.83"/><circle class="cls-4" cx="95.55" cy="18.86" r="3.83"/><circle class="cls-4" cx="108.35" cy="18.87" r="3.83"/><circle class="cls-4" cx="95.55" cy="31.74" r="3.83"/><circle class="cls-4" cx="108.35" cy="31.76" r="3.83"/><circle class="cls-4" cx="95.55" cy="44.43" r="3.83"/><circle class="cls-4" cx="108.35" cy="44.39" r="3.83"/><circle class="cls-4" cx="95.55" cy="57.32" r="3.83"/><circle class="cls-4" cx="108.35" cy="57.59" r="3.83"/><rect class="cls-3" x="63.99" y="-0.03" width="12.09" height="12.09"/><rect class="cls-3" x="76.79" y="-0.02" width="12.09" height="12.09"/><rect class="cls-3" x="63.99" y="12.77" width="12.09" height="12.09"/><rect class="cls-3" x="76.79" y="12.78" width="12.09" height="12.09"/><rect class="cls-3" x="63.99" y="25.52" width="12.09" height="12.09"/><rect class="cls-3" x="76.79" y="25.53" width="12.09" height="12.09"/><rect class="cls-3" x="63.99" y="38.32" width="12.09" height="12.09"/><rect class="cls-3" x="76.79" y="38.33" width="12.09" height="12.09"/><rect class="cls-3" x="63.99" y="51.1" width="12.09" height="12.09"/><rect class="cls-3" x="76.79" y="51.12" width="12.09" height="12.09"/><circle class="cls-4" cx="70.03" cy="6.02" r="3.83"/><circle class="cls-4" cx="82.83" cy="6.03" r="3.83"/><circle class="cls-4" cx="69.96" cy="18.83" r="3.83"/><circle class="cls-4" cx="82.75" cy="18.85" r="3.83"/><circle class="cls-4" cx="69.96" cy="31.71" r="3.83"/><circle class="cls-4" cx="82.75" cy="31.73" r="3.83"/><circle class="cls-4" cx="69.96" cy="44.4" r="3.83"/><circle class="cls-4" cx="82.75" cy="44.36" r="3.83"/><circle class="cls-4" cx="69.96" cy="57.29" r="3.83"/><circle class="cls-4" cx="82.75" cy="57.56" r="3.83"/><rect class="cls-3" x="38.4" y="-0.06" width="12.09" height="12.09"/><rect class="cls-3" x="51.19" y="-0.04" width="12.09" height="12.09"/><rect class="cls-3" x="38.4" y="12.74" width="12.09" height="12.09"/><rect class="cls-3" x="51.19" y="12.76" width="12.09" height="12.09"/><rect class="cls-3" x="38.4" y="25.49" width="12.09" height="12.09"/><rect class="cls-3" x="51.19" y="25.5" width="12.09" height="12.09"/><rect class="cls-3" x="38.4" y="38.29" width="12.09" height="12.09"/><rect class="cls-3" x="51.19" y="38.3" width="12.09" height="12.09"/><rect class="cls-3" x="38.4" y="51.08" width="12.09" height="12.09"/><rect class="cls-3" x="51.19" y="51.09" width="12.09" height="12.09"/><circle class="cls-4" cx="44.44" cy="5.99" r="3.83"/><circle class="cls-4" cx="57.24" cy="6.01" r="3.83"/><circle class="cls-4" cx="44.36" cy="18.8" r="3.83"/><circle class="cls-4" cx="57.16" cy="18.82" r="3.83"/><circle class="cls-4" cx="44.36" cy="31.69" r="3.83"/><circle class="cls-4" cx="57.16" cy="31.7" r="3.83"/><circle class="cls-4" cx="44.36" cy="44.38" r="3.83"/><circle class="cls-4" cx="57.16" cy="44.33" r="3.83"/><circle class="cls-4" cx="44.36" cy="57.26" r="3.83"/><circle class="cls-4" cx="57.16" cy="57.53" r="3.83"/><rect class="cls-3" x="12.8" y="-0.07" width="12.09" height="12.09"/><rect class="cls-3" x="25.6" y="-0.06" width="12.09" height="12.09"/><rect class="cls-3" x="12.8" y="12.73" width="12.09" height="12.09"/><rect class="cls-3" x="25.6" y="12.74" width="12.09" height="12.09"/><rect class="cls-3" x="12.8" y="25.47" width="12.09" height="12.09"/><rect class="cls-3" x="25.6" y="25.49" width="12.09" height="12.09"/><rect class="cls-3" x="12.8" y="38.27" width="12.09" height="12.09"/><rect class="cls-3" x="25.6" y="38.29" width="12.09" height="12.09"/><rect class="cls-3" x="12.8" y="51.06" width="12.09" height="12.09"/><rect class="cls-3" x="25.6" y="51.08" width="12.09" height="12.09"/><circle class="cls-4" cx="18.85" cy="5.98" r="3.83"/><circle class="cls-4" cx="31.64" cy="5.99" r="3.83"/><circle class="cls-4" cx="18.77" cy="18.79" r="3.83"/><circle class="cls-4" cx="31.57" cy="18.8" r="3.83"/><circle class="cls-4" cx="18.77" cy="31.67" r="3.83"/><circle class="cls-4" cx="31.57" cy="31.69" r="3.83"/><circle class="cls-4" cx="18.77" cy="44.36" r="3.83"/><circle class="cls-4" cx="31.57" cy="44.32" r="3.83"/><circle class="cls-4" cx="18.77" cy="57.25" r="3.83"/><circle class="cls-4" cx="31.57" cy="57.52" r="3.83"/><rect class="cls-3" y="-0.07" width="12.09" height="12.09"/><rect class="cls-3" y="12.73" width="12.09" height="12.09"/><rect class="cls-3" y="25.47" width="12.09" height="12.09"/><rect class="cls-3" y="38.27" width="12.09" height="12.09"/><rect class="cls-3" y="51.06" width="12.09" height="12.09"/><circle class="cls-4" cx="6.05" cy="5.98" r="3.83"/><circle class="cls-4" cx="5.97" cy="18.79" r="3.83"/><circle class="cls-4" cx="5.97" cy="31.67" r="3.83"/><circle class="cls-4" cx="5.97" cy="44.36" r="3.83"/><circle class="cls-4" cx="5.97" cy="57.25" r="3.83"/><rect class="cls-3" x="115.18" y="64.02" width="12.09" height="12.09"/><rect class="cls-3" x="127.97" y="64.04" width="12.09" height="12.09"/><rect class="cls-3" x="140.72" y="64.04" width="12.09" height="12.09"/><rect class="cls-3" x="153.5" y="64.04" width="12.09" height="12.09"/><rect class="cls-3" x="115.18" y="76.77" width="12.09" height="12.09"/><rect class="cls-3" x="127.97" y="76.78" width="12.09" height="12.09"/><rect class="cls-3" x="140.72" y="76.78" width="12.09" height="12.09"/><rect class="cls-3" x="153.5" y="76.79" width="12.09" height="12.09"/><rect class="cls-3" x="115.18" y="89.57" width="12.09" height="12.09"/><rect class="cls-3" x="127.97" y="89.58" width="12.09" height="12.09"/><rect class="cls-3" x="140.72" y="89.58" width="12.09" height="12.09"/><rect class="cls-3" x="153.5" y="89.59" width="12.09" height="12.09"/><rect class="cls-3" x="115.18" y="102.36" width="12.09" height="12.09"/><rect class="cls-3" x="127.97" y="102.37" width="12.09" height="12.09"/><rect class="cls-3" x="140.72" y="102.37" width="12.09" height="12.09"/><rect class="cls-3" x="153.5" y="102.38" width="12.09" height="12.09"/><circle class="cls-4" cx="121.15" cy="70.08" r="3.83"/><circle class="cls-4" cx="133.94" cy="70.1" r="3.83"/><circle class="cls-4" cx="146.89" cy="70.1" r="3.83"/><circle class="cls-4" cx="159.53" cy="70.07" r="3.83"/><circle class="cls-4" cx="121.15" cy="82.97" r="3.83"/><circle class="cls-4" cx="133.94" cy="82.98" r="3.83"/><circle class="cls-4" cx="146.89" cy="82.98" r="3.83"/><circle class="cls-4" cx="159.53" cy="82.95" r="3.83"/><circle class="cls-4" cx="121.15" cy="95.66" r="3.83"/><circle class="cls-4" cx="133.94" cy="95.61" r="3.83"/><circle class="cls-4" cx="146.89" cy="95.68" r="3.83"/><circle class="cls-4" cx="159.53" cy="95.65" r="3.83"/><circle class="cls-4" cx="121.15" cy="108.54" r="3.83"/><circle class="cls-4" cx="133.94" cy="108.81" r="3.83"/><circle class="cls-4" cx="146.89" cy="108.56" r="3.83"/><circle class="cls-4" cx="159.53" cy="108.53" r="3.83"/><rect class="cls-3" x="89.58" y="64" width="12.09" height="12.09"/><rect class="cls-3" x="102.38" y="64.01" width="12.09" height="12.09"/><rect class="cls-3" x="89.58" y="76.74" width="12.09" height="12.09"/><rect class="cls-3" x="102.38" y="76.75" width="12.09" height="12.09"/><rect class="cls-3" x="89.58" y="89.54" width="12.09" height="12.09"/><rect class="cls-3" x="102.38" y="89.55" width="12.09" height="12.09"/><rect class="cls-3" x="89.58" y="102.33" width="12.09" height="12.09"/><rect class="cls-3" x="102.38" y="102.34" width="12.09" height="12.09"/><circle class="cls-4" cx="95.55" cy="70.05" r="3.83"/><circle class="cls-4" cx="108.35" cy="70.07" r="3.83"/><circle class="cls-4" cx="95.55" cy="82.94" r="3.83"/><circle class="cls-4" cx="108.35" cy="82.96" r="3.83"/><circle class="cls-4" cx="95.55" cy="95.63" r="3.83"/><circle class="cls-4" cx="108.35" cy="95.58" r="3.83"/><circle class="cls-4" cx="95.55" cy="108.51" r="3.83"/><circle class="cls-4" cx="108.35" cy="108.79" r="3.83"/><rect class="cls-3" x="63.99" y="63.97" width="12.09" height="12.09"/><rect class="cls-3" x="76.79" y="63.98" width="12.09" height="12.09"/><rect class="cls-3" x="63.99" y="76.71" width="12.09" height="12.09"/><rect class="cls-3" x="76.79" y="76.72" width="12.09" height="12.09"/><rect class="cls-3" x="63.99" y="89.51" width="12.09" height="12.09"/><rect class="cls-3" x="76.79" y="89.52" width="12.09" height="12.09"/><rect class="cls-3" x="63.99" y="102.3" width="12.09" height="12.09"/><rect class="cls-3" x="76.79" y="102.31" width="12.09" height="12.09"/><circle class="cls-4" cx="69.96" cy="70.02" r="3.83"/><circle class="cls-4" cx="82.75" cy="70.04" r="3.83"/><circle class="cls-4" cx="69.96" cy="82.91" r="3.83"/><circle class="cls-4" cx="82.75" cy="82.93" r="3.83"/><circle class="cls-4" cx="69.96" cy="95.6" r="3.83"/><circle class="cls-4" cx="82.75" cy="95.56" r="3.83"/><circle class="cls-4" cx="69.96" cy="108.49" r="3.83"/><circle class="cls-4" cx="82.75" cy="108.76" r="3.83"/><rect class="cls-3" x="38.39" y="63.94" width="12.09" height="12.09"/><rect class="cls-3" x="51.19" y="63.95" width="12.09" height="12.09"/><rect class="cls-3" x="38.39" y="76.68" width="12.09" height="12.09"/><rect class="cls-3" x="51.19" y="76.7" width="12.09" height="12.09"/><rect class="cls-3" x="38.39" y="89.48" width="12.09" height="12.09"/><rect class="cls-3" x="51.19" y="89.5" width="12.09" height="12.09"/><rect class="cls-3" x="38.39" y="102.27" width="12.09" height="12.09"/><rect class="cls-3" x="51.19" y="102.28" width="12.09" height="12.09"/><circle class="cls-4" cx="44.36" cy="70" r="3.83"/><circle class="cls-4" cx="57.16" cy="70.01" r="3.83"/><circle class="cls-4" cx="44.36" cy="82.88" r="3.83"/><circle class="cls-4" cx="57.16" cy="82.9" r="3.83"/><circle class="cls-4" cx="44.36" cy="95.57" r="3.83"/><circle class="cls-4" cx="57.16" cy="95.53" r="3.83"/><circle class="cls-4" cx="44.36" cy="108.46" r="3.83"/><circle class="cls-4" cx="57.16" cy="108.73" r="3.83"/><rect class="cls-3" x="12.8" y="63.93" width="12.09" height="12.09"/><rect class="cls-3" x="25.6" y="63.94" width="12.09" height="12.09"/><rect class="cls-3" x="12.8" y="76.67" width="12.09" height="12.09"/><rect class="cls-3" x="25.6" y="76.68" width="12.09" height="12.09"/><rect class="cls-3" x="12.8" y="89.47" width="12.09" height="12.09"/><rect class="cls-3" x="25.6" y="89.48" width="12.09" height="12.09"/><rect class="cls-3" x="12.8" y="102.26" width="12.09" height="12.09"/><rect class="cls-3" x="25.6" y="102.27" width="12.09" height="12.09"/><circle class="cls-4" cx="18.77" cy="69.98" r="3.83"/><circle class="cls-4" cx="31.57" cy="70" r="3.83"/><circle class="cls-4" cx="18.77" cy="82.87" r="3.83"/><circle class="cls-4" cx="31.57" cy="82.89" r="3.83"/><circle class="cls-4" cx="18.77" cy="95.56" r="3.83"/><circle class="cls-4" cx="31.57" cy="95.52" r="3.83"/><circle class="cls-4" cx="18.77" cy="108.45" r="3.83"/><circle class="cls-4" cx="31.57" cy="108.72" r="3.83"/><rect class="cls-3" y="63.93" width="12.09" height="12.09"/><rect class="cls-3" y="76.67" width="12.09" height="12.09"/><rect class="cls-3" y="89.47" width="12.09" height="12.09"/><rect class="cls-3" y="102.26" width="12.09" height="12.09"/><circle class="cls-4" cx="5.97" cy="69.98" r="3.83"/><circle class="cls-4" cx="5.97" cy="82.87" r="3.83"/><circle class="cls-4" cx="5.97" cy="95.56" r="3.83"/><circle class="cls-4" cx="5.97" cy="108.45" r="3.83"/><rect class="cls-3" x="115.17" y="115.26" width="12.09" height="12.09"/><rect class="cls-3" x="127.97" y="115.27" width="12.09" height="12.09"/><rect class="cls-3" x="140.72" y="115.27" width="12.09" height="12.09"/><rect class="cls-3" x="153.5" y="115.28" width="12.09" height="12.09"/><circle class="cls-4" cx="121.14" cy="121.45" r="3.83"/><circle class="cls-4" cx="133.94" cy="121.72" r="3.83"/><circle class="cls-4" cx="146.89" cy="121.46" r="3.83"/><circle class="cls-4" cx="159.53" cy="121.43" r="3.83"/><rect class="cls-3" x="89.58" y="115.23" width="12.09" height="12.09"/><rect class="cls-3" x="102.38" y="115.24" width="12.09" height="12.09"/><circle class="cls-4" cx="95.55" cy="121.42" r="3.83"/><circle class="cls-4" cx="108.34" cy="121.69" r="3.83"/><rect class="cls-3" x="63.99" y="115.2" width="12.09" height="12.09"/><rect class="cls-3" x="76.78" y="115.22" width="12.09" height="12.09"/><circle class="cls-4" cx="69.95" cy="121.39" r="3.83"/><circle class="cls-4" cx="82.75" cy="121.66" r="3.83"/><rect class="cls-3" x="38.39" y="115.17" width="12.09" height="12.09"/><rect class="cls-3" x="51.19" y="115.19" width="12.09" height="12.09"/><circle class="cls-4" cx="44.36" cy="121.36" r="3.83"/><circle class="cls-4" cx="57.16" cy="121.63" r="3.83"/><rect class="cls-3" x="12.8" y="115.16" width="12.09" height="12.09"/><rect class="cls-3" x="25.59" y="115.17" width="12.09" height="12.09"/><circle class="cls-4" cx="18.76" cy="121.35" r="3.83"/><circle class="cls-4" cx="31.56" cy="121.62" r="3.83"/><rect class="cls-3" y="115.16" width="12.09" height="12.09"/><circle class="cls-4" cx="5.97" cy="121.35" r="3.83"/><rect class="cls-3" x="115.17" y="128.12" width="12.09" height="12.09"/><rect class="cls-3" x="127.97" y="128.14" width="12.09" height="12.09"/><rect class="cls-3" x="140.72" y="128.14" width="12.09" height="12.09"/><rect class="cls-3" x="153.5" y="128.14" width="12.09" height="12.09"/><rect class="cls-3" x="115.17" y="140.87" width="12.09" height="12.09"/><rect class="cls-3" x="127.97" y="140.88" width="12.09" height="12.09"/><rect class="cls-3" x="140.72" y="140.88" width="12.09" height="12.09"/><rect class="cls-3" x="153.5" y="140.89" width="12.09" height="12.09"/><rect class="cls-3" x="115.17" y="153.67" width="12.09" height="12.09"/><rect class="cls-3" x="127.97" y="153.68" width="12.09" height="12.09"/><rect class="cls-3" x="140.72" y="153.68" width="12.09" height="12.09"/><rect class="cls-3" x="153.5" y="153.69" width="12.09" height="12.09"/><rect class="cls-3" x="115.17" y="166.46" width="12.09" height="12.09"/><rect class="cls-3" x="127.97" y="166.47" width="12.09" height="12.09"/><rect class="cls-3" x="140.72" y="166.47" width="12.09" height="12.09"/><rect class="cls-3" x="153.5" y="166.48" width="12.09" height="12.09"/><circle class="cls-4" cx="121.14" cy="134.18" r="3.83"/><circle class="cls-4" cx="133.94" cy="134.2" r="3.83"/><circle class="cls-4" cx="146.89" cy="134.2" r="3.83"/><circle class="cls-4" cx="159.53" cy="134.17" r="3.83"/><circle class="cls-4" cx="121.14" cy="147.07" r="3.83"/><circle class="cls-4" cx="133.94" cy="147.08" r="3.83"/><circle class="cls-4" cx="146.89" cy="147.08" r="3.83"/><circle class="cls-4" cx="159.53" cy="147.05" r="3.83"/><circle class="cls-4" cx="121.14" cy="159.76" r="3.83"/><circle class="cls-4" cx="133.94" cy="159.71" r="3.83"/><circle class="cls-4" cx="146.89" cy="159.77" r="3.83"/><circle class="cls-4" cx="159.53" cy="159.74" r="3.83"/><circle class="cls-4" cx="121.14" cy="172.64" r="3.83"/><circle class="cls-4" cx="133.94" cy="172.91" r="3.83"/><circle class="cls-4" cx="146.89" cy="172.66" r="3.83"/><circle class="cls-4" cx="159.53" cy="172.63" r="3.83"/><rect class="cls-3" x="89.58" y="128.09" width="12.09" height="12.09"/><rect class="cls-3" x="102.38" y="128.11" width="12.09" height="12.09"/><rect class="cls-3" x="89.58" y="140.84" width="12.09" height="12.09"/><rect class="cls-3" x="102.38" y="140.85" width="12.09" height="12.09"/><rect class="cls-3" x="89.58" y="153.64" width="12.09" height="12.09"/><rect class="cls-3" x="102.38" y="153.65" width="12.09" height="12.09"/><rect class="cls-3" x="89.58" y="166.43" width="12.09" height="12.09"/><rect class="cls-3" x="102.38" y="166.44" width="12.09" height="12.09"/><circle class="cls-4" cx="95.55" cy="134.15" r="3.83"/><circle class="cls-4" cx="108.34" cy="134.17" r="3.83"/><circle class="cls-4" cx="95.55" cy="147.04" r="3.83"/><circle class="cls-4" cx="108.34" cy="147.06" r="3.83"/><circle class="cls-4" cx="95.55" cy="159.73" r="3.83"/><circle class="cls-4" cx="108.34" cy="159.68" r="3.83"/><circle class="cls-4" cx="95.55" cy="172.61" r="3.83"/><circle class="cls-4" cx="108.34" cy="172.88" r="3.83"/><rect class="cls-3" x="63.98" y="128.07" width="12.09" height="12.09"/><rect class="cls-3" x="76.78" y="128.08" width="12.09" height="12.09"/><rect class="cls-3" x="63.98" y="140.81" width="12.09" height="12.09"/><rect class="cls-3" x="76.78" y="140.82" width="12.09" height="12.09"/><rect class="cls-3" x="63.98" y="153.61" width="12.09" height="12.09"/><rect class="cls-3" x="76.78" y="153.62" width="12.09" height="12.09"/><rect class="cls-3" x="63.98" y="166.4" width="12.09" height="12.09"/><rect class="cls-3" x="76.78" y="166.41" width="12.09" height="12.09"/><circle class="cls-4" cx="69.95" cy="134.12" r="3.83"/><circle class="cls-4" cx="82.75" cy="134.14" r="3.83"/><circle class="cls-4" cx="69.95" cy="147.01" r="3.83"/><circle class="cls-4" cx="82.75" cy="147.03" r="3.83"/><circle class="cls-4" cx="69.95" cy="159.7" r="3.83"/><circle class="cls-4" cx="82.75" cy="159.66" r="3.83"/><circle class="cls-4" cx="69.95" cy="172.59" r="3.83"/><circle class="cls-4" cx="82.75" cy="172.86" r="3.83"/><rect class="cls-3" x="38.39" y="128.04" width="12.09" height="12.09"/><rect class="cls-3" x="51.19" y="128.05" width="12.09" height="12.09"/><rect class="cls-3" x="38.39" y="140.78" width="12.09" height="12.09"/><rect class="cls-3" x="51.19" y="140.8" width="12.09" height="12.09"/><rect class="cls-3" x="38.39" y="153.58" width="12.09" height="12.09"/><rect class="cls-3" x="51.19" y="153.6" width="12.09" height="12.09"/><rect class="cls-3" x="38.39" y="166.37" width="12.09" height="12.09"/><rect class="cls-3" x="51.19" y="166.38" width="12.09" height="12.09"/><circle class="cls-4" cx="44.36" cy="134.09" r="3.83"/><circle class="cls-4" cx="57.16" cy="134.11" r="3.83"/><circle class="cls-4" cx="44.36" cy="146.98" r="3.83"/><circle class="cls-4" cx="57.16" cy="147" r="3.83"/><circle class="cls-4" cx="44.36" cy="159.67" r="3.83"/><circle class="cls-4" cx="57.16" cy="159.63" r="3.83"/><circle class="cls-4" cx="44.36" cy="172.56" r="3.83"/><circle class="cls-4" cx="57.16" cy="172.83" r="3.83"/><rect class="cls-3" x="12.8" y="128.03" width="12.09" height="12.09"/><rect class="cls-3" x="25.59" y="128.04" width="12.09" height="12.09"/><rect class="cls-3" x="12.8" y="140.77" width="12.09" height="12.09"/><rect class="cls-3" x="25.59" y="140.78" width="12.09" height="12.09"/><rect class="cls-3" x="12.8" y="153.57" width="12.09" height="12.09"/><rect class="cls-3" x="25.59" y="153.58" width="12.09" height="12.09"/><rect class="cls-3" x="12.8" y="166.36" width="12.09" height="12.09"/><rect class="cls-3" x="25.59" y="166.37" width="12.09" height="12.09"/><circle class="cls-4" cx="18.76" cy="134.08" r="3.83"/><circle class="cls-4" cx="31.56" cy="134.1" r="3.83"/><circle class="cls-4" cx="18.76" cy="146.97" r="3.83"/><circle class="cls-4" cx="31.56" cy="146.99" r="3.83"/><circle class="cls-4" cx="18.76" cy="159.66" r="3.83"/><circle class="cls-4" cx="31.56" cy="159.61" r="3.83"/><circle class="cls-4" cx="18.76" cy="172.54" r="3.83"/><circle class="cls-4" cx="31.56" cy="172.82" r="3.83"/><rect class="cls-3" y="128.03" width="12.09" height="12.09"/><rect class="cls-3" y="140.77" width="12.09" height="12.09"/><rect class="cls-3" y="153.57" width="12.09" height="12.09"/><rect class="cls-3" y="166.36" width="12.09" height="12.09"/><circle class="cls-4" cx="5.97" cy="134.08" r="3.83"/><circle class="cls-4" cx="5.97" cy="146.97" r="3.83"/><circle class="cls-4" cx="5.97" cy="159.66" r="3.83"/><circle class="cls-4" cx="5.97" cy="172.54" r="3.83"/></svg>