<svg id="Layer_1" data-name="Layer 1" xmlns="http://www.w3.org/2000/svg" viewBox="0 0 178.45 178.68"><defs><style>.cls-1{fill:#e7ebe8;}.cls-2{fill:#cac9cc;}.cls-3{fill:#6d79ba;}.cls-4{fill:#c4c6e4;}.cls-5{fill:#dfe1ee;}.cls-6,.cls-9{fill:none;stroke-miterlimit:10;}.cls-6{stroke:#6d79ba;stroke-width:2px;}.cls-7{fill:#2c3592;}.cls-8{font-size:6.65px;fill:#d1d3d4;font-family:MyriadPro-Semibold, Myriad Pro;font-weight:700;}.cls-9{stroke:#58595b;stroke-linecap:round;stroke-width:3px;}.cls-10{fill:#aa1e22;}</style></defs><title>large-cliffworld-barrier</title><rect class="cls-1" x="115.47" y="0.18" width="12.09" height="12.09"/><rect class="cls-1" x="128.27" y="0.19" width="12.09" height="12.09"/><rect class="cls-1" x="141.02" y="0.19" width="12.09" height="12.09"/><rect class="cls-1" x="115.47" y="12.98" width="12.09" height="12.09"/><rect class="cls-1" x="128.27" y="12.99" width="12.09" height="12.09"/><rect class="cls-1" x="141.02" y="12.99" width="12.09" height="12.09"/><rect class="cls-1" x="153.8" y="13" width="12.09" height="12.09"/><rect class="cls-1" x="115.47" y="25.72" width="12.09" height="12.09"/><rect class="cls-1" x="128.27" y="25.74" width="12.09" height="12.09"/><rect class="cls-1" x="141.02" y="25.74" width="12.09" height="12.09"/><rect class="cls-1" x="153.8" y="25.74" width="12.09" height="12.09"/><rect class="cls-1" x="115.47" y="38.52" width="12.09" height="12.09"/><rect class="cls-1" x="128.27" y="38.54" width="12.09" height="12.09"/><rect class="cls-1" x="141.02" y="38.54" width="12.09" height="12.09"/><rect class="cls-1" x="153.8" y="38.54" width="12.09" height="12.09"/><rect class="cls-1" x="115.47" y="51.31" width="12.09" height="12.09"/><rect class="cls-1" x="128.27" y="51.32" width="12.09" height="12.09"/><rect class="cls-1" x="141.02" y="51.33" width="12.09" height="12.09"/><rect class="cls-1" x="153.8" y="51.33" width="12.09" height="12.09"/><circle class="cls-2" cx="159.83" cy="57.49" r="3.83"/><rect class="cls-1" x="89.88" y="0.15" width="12.09" height="12.09"/><rect class="cls-1" x="102.68" y="0.16" width="12.09" height="12.09"/><rect class="cls-1" x="89.88" y="12.95" width="12.09" height="12.09"/><rect class="cls-1" x="102.68" y="12.96" width="12.09" height="12.09"/><rect class="cls-1" x="89.88" y="25.69" width="12.09" height="12.09"/><rect class="cls-1" x="102.68" y="25.71" width="12.09" height="12.09"/><rect class="cls-1" x="89.88" y="38.49" width="12.09" height="12.09"/><rect class="cls-1" x="102.68" y="38.51" width="12.09" height="12.09"/><rect class="cls-1" x="89.88" y="51.28" width="12.09" height="12.09"/><rect class="cls-1" x="102.68" y="51.29" width="12.09" height="12.09"/><rect class="cls-1" x="64.28" y="0.12" width="12.09" height="12.09"/><rect class="cls-1" x="77.08" y="0.13" width="12.09" height="12.09"/><rect class="cls-1" x="64.28" y="12.92" width="12.09" height="12.09"/><rect class="cls-1" x="77.08" y="12.93" width="12.09" height="12.09"/><rect class="cls-1" x="64.28" y="25.67" width="12.09" height="12.09"/><rect class="cls-1" x="77.08" y="25.68" width="12.09" height="12.09"/><rect class="cls-1" x="64.28" y="38.47" width="12.09" height="12.09"/><rect class="cls-1" x="77.08" y="38.48" width="12.09" height="12.09"/><rect class="cls-1" x="64.28" y="51.25" width="12.09" height="12.09"/><rect class="cls-1" x="77.08" y="51.27" width="12.09" height="12.09"/><rect class="cls-1" x="38.69" y="0.09" width="12.09" height="12.09"/><rect class="cls-1" x="51.49" y="0.11" width="12.09" height="12.09"/><rect class="cls-1" x="38.69" y="12.89" width="12.09" height="12.09"/><rect class="cls-1" x="51.49" y="12.91" width="12.09" height="12.09"/><rect class="cls-1" x="38.69" y="25.64" width="12.09" height="12.09"/><rect class="cls-1" x="51.49" y="25.65" width="12.09" height="12.09"/><rect class="cls-1" x="38.69" y="38.44" width="12.09" height="12.09"/><rect class="cls-1" x="51.49" y="38.45" width="12.09" height="12.09"/><rect class="cls-1" x="38.69" y="51.23" width="12.09" height="12.09"/><rect class="cls-1" x="51.49" y="51.24" width="12.09" height="12.09"/><rect class="cls-1" x="13.1" y="0.08" width="12.09" height="12.09"/><rect class="cls-1" x="25.89" y="0.09" width="12.09" height="12.09"/><rect class="cls-1" x="13.1" y="12.88" width="12.09" height="12.09"/><rect class="cls-1" x="25.89" y="12.89" width="12.09" height="12.09"/><rect class="cls-1" x="13.1" y="25.62" width="12.09" height="12.09"/><rect class="cls-1" x="25.89" y="25.64" width="12.09" height="12.09"/><rect class="cls-1" x="13.1" y="38.42" width="12.09" height="12.09"/><rect class="cls-1" x="25.89" y="38.44" width="12.09" height="12.09"/><rect class="cls-1" x="13.1" y="51.21" width="12.09" height="12.09"/><rect class="cls-1" x="25.89" y="51.23" width="12.09" height="12.09"/><rect class="cls-1" x="0.3" y="0.08" width="12.09" height="12.09"/><rect class="cls-1" x="0.3" y="12.88" width="12.09" height="12.09"/><rect class="cls-1" x="0.3" y="25.62" width="12.09" height="12.09"/><rect class="cls-1" x="0.3" y="38.42" width="12.09" height="12.09"/><rect class="cls-1" x="0.3" y="51.21" width="12.09" height="12.09"/><rect class="cls-1" x="115.47" y="64.17" width="12.09" height="12.09"/><rect class="cls-1" x="128.27" y="64.19" width="12.09" height="12.09"/><rect class="cls-1" x="141.02" y="64.19" width="12.09" height="12.09"/><rect class="cls-1" x="153.8" y="64.19" width="12.09" height="12.09"/><rect class="cls-1" x="115.47" y="76.92" width="12.09" height="12.09"/><rect class="cls-1" x="128.27" y="76.93" width="12.09" height="12.09"/><rect class="cls-1" x="141.02" y="76.93" width="12.09" height="12.09"/><rect class="cls-1" x="153.8" y="76.94" width="12.09" height="12.09"/><rect class="cls-1" x="115.47" y="89.72" width="12.09" height="12.09"/><rect class="cls-1" x="128.27" y="89.73" width="12.09" height="12.09"/><rect class="cls-1" x="141.02" y="89.73" width="12.09" height="12.09"/><rect class="cls-1" x="153.8" y="89.74" width="12.09" height="12.09"/><rect class="cls-1" x="115.47" y="102.51" width="12.09" height="12.09"/><rect class="cls-1" x="128.27" y="102.52" width="12.09" height="12.09"/><rect class="cls-1" x="141.02" y="102.52" width="12.09" height="12.09"/><rect class="cls-1" x="153.8" y="102.53" width="12.09" height="12.09"/><circle class="cls-2" cx="147.19" cy="70.25" r="3.83"/><circle class="cls-2" cx="159.83" cy="70.22" r="3.83"/><circle class="cls-2" cx="121.44" cy="83.12" r="3.83"/><circle class="cls-2" cx="134.24" cy="83.13" r="3.83"/><circle class="cls-2" cx="147.19" cy="83.13" r="3.83"/><circle class="cls-2" cx="159.83" cy="83.1" r="3.83"/><circle class="cls-2" cx="121.44" cy="95.81" r="3.83"/><circle class="cls-2" cx="134.24" cy="95.76" r="3.83"/><circle class="cls-2" cx="147.19" cy="95.83" r="3.83"/><circle class="cls-2" cx="159.83" cy="95.8" r="3.83"/><circle class="cls-2" cx="121.44" cy="108.69" r="3.83"/><circle class="cls-2" cx="134.24" cy="108.96" r="3.83"/><circle class="cls-2" cx="147.19" cy="108.71" r="3.83"/><circle class="cls-2" cx="159.83" cy="108.68" r="3.83"/><rect class="cls-1" x="89.88" y="64.15" width="12.09" height="12.09"/><rect class="cls-1" x="102.68" y="64.16" width="12.09" height="12.09"/><rect class="cls-1" x="89.88" y="76.89" width="12.09" height="12.09"/><rect class="cls-1" x="102.68" y="76.9" width="12.09" height="12.09"/><rect class="cls-1" x="89.88" y="89.69" width="12.09" height="12.09"/><rect class="cls-1" x="102.68" y="89.7" width="12.09" height="12.09"/><rect class="cls-1" x="89.88" y="102.48" width="12.09" height="12.09"/><rect class="cls-1" x="102.68" y="102.49" width="12.09" height="12.09"/><circle class="cls-2" cx="95.85" cy="83.09" r="3.83"/><circle class="cls-2" cx="108.64" cy="83.11" r="3.83"/><circle class="cls-2" cx="95.85" cy="95.78" r="3.83"/><circle class="cls-2" cx="108.64" cy="95.73" r="3.83"/><circle class="cls-2" cx="95.85" cy="108.67" r="3.83"/><circle class="cls-2" cx="108.64" cy="108.94" r="3.83"/><rect class="cls-1" x="64.28" y="64.12" width="12.09" height="12.09"/><rect class="cls-1" x="77.08" y="64.13" width="12.09" height="12.09"/><rect class="cls-1" x="64.28" y="76.86" width="12.09" height="12.09"/><rect class="cls-1" x="77.08" y="76.88" width="12.09" height="12.09"/><rect class="cls-1" x="64.28" y="89.66" width="12.09" height="12.09"/><rect class="cls-1" x="77.08" y="89.67" width="12.09" height="12.09"/><rect class="cls-1" x="64.28" y="102.45" width="12.09" height="12.09"/><rect class="cls-1" x="77.08" y="102.46" width="12.09" height="12.09"/><circle class="cls-2" cx="70.25" cy="83.06" r="3.83"/><circle class="cls-2" cx="83.05" cy="83.08" r="3.83"/><circle class="cls-2" cx="70.25" cy="95.75" r="3.83"/><circle class="cls-2" cx="83.05" cy="95.71" r="3.83"/><circle class="cls-2" cx="70.25" cy="108.64" r="3.83"/><circle class="cls-2" cx="83.05" cy="108.91" r="3.83"/><rect class="cls-1" x="38.69" y="64.09" width="12.09" height="12.09"/><rect class="cls-1" x="51.49" y="64.1" width="12.09" height="12.09"/><rect class="cls-1" x="38.69" y="76.83" width="12.09" height="12.09"/><rect class="cls-1" x="51.49" y="76.85" width="12.09" height="12.09"/><rect class="cls-1" x="38.69" y="89.63" width="12.09" height="12.09"/><rect class="cls-1" x="51.49" y="89.65" width="12.09" height="12.09"/><rect class="cls-1" x="38.69" y="102.42" width="12.09" height="12.09"/><rect class="cls-1" x="51.49" y="102.43" width="12.09" height="12.09"/><circle class="cls-2" cx="57.46" cy="95.68" r="3.83"/><circle class="cls-2" cx="57.46" cy="108.88" r="3.83"/><rect class="cls-1" x="13.1" y="64.08" width="12.09" height="12.09"/><rect class="cls-1" x="25.89" y="64.09" width="12.09" height="12.09"/><rect class="cls-1" x="13.1" y="76.82" width="12.09" height="12.09"/><rect class="cls-1" x="25.89" y="76.83" width="12.09" height="12.09"/><rect class="cls-1" x="13.1" y="89.62" width="12.09" height="12.09"/><rect class="cls-1" x="25.89" y="89.63" width="12.09" height="12.09"/><rect class="cls-1" x="13.1" y="102.41" width="12.09" height="12.09"/><rect class="cls-1" x="25.89" y="102.42" width="12.09" height="12.09"/><rect class="cls-1" x="0.3" y="64.08" width="12.09" height="12.09"/><rect class="cls-1" x="0.3" y="76.82" width="12.09" height="12.09"/><rect class="cls-1" x="0.3" y="89.62" width="12.09" height="12.09"/><rect class="cls-1" x="0.3" y="102.41" width="12.09" height="12.09"/><rect class="cls-1" x="115.47" y="115.41" width="12.09" height="12.09"/><rect class="cls-1" x="128.27" y="115.42" width="12.09" height="12.09"/><rect class="cls-1" x="141.01" y="115.42" width="12.09" height="12.09"/><rect class="cls-1" x="153.79" y="115.43" width="12.09" height="12.09"/><circle class="cls-2" cx="121.44" cy="121.6" r="3.83"/><circle class="cls-2" cx="134.23" cy="121.87" r="3.83"/><circle class="cls-2" cx="147.18" cy="121.61" r="3.83"/><circle class="cls-2" cx="159.83" cy="121.58" r="3.83"/><rect class="cls-1" x="89.87" y="115.38" width="12.09" height="12.09"/><rect class="cls-1" x="102.67" y="115.39" width="12.09" height="12.09"/><circle class="cls-2" cx="95.84" cy="121.57" r="3.83"/><circle class="cls-2" cx="108.64" cy="121.84" r="3.83"/><rect class="cls-1" x="64.28" y="115.35" width="12.09" height="12.09"/><rect class="cls-1" x="77.08" y="115.37" width="12.09" height="12.09"/><circle class="cls-2" cx="70.25" cy="121.54" r="3.83"/><circle class="cls-2" cx="83.05" cy="121.81" r="3.83"/><rect class="cls-1" x="38.69" y="115.32" width="12.09" height="12.09"/><rect class="cls-1" x="51.48" y="115.34" width="12.09" height="12.09"/><circle class="cls-2" cx="57.45" cy="121.78" r="3.83"/><rect class="cls-1" x="13.09" y="115.31" width="12.09" height="12.09"/><rect class="cls-1" x="25.89" y="115.32" width="12.09" height="12.09"/><rect class="cls-1" x="0.29" y="115.31" width="12.09" height="12.09"/><rect class="cls-1" x="115.47" y="128.27" width="12.09" height="12.09"/><rect class="cls-1" x="128.27" y="128.29" width="12.09" height="12.09"/><rect class="cls-1" x="141.01" y="128.29" width="12.09" height="12.09"/><rect class="cls-1" x="153.79" y="128.29" width="12.09" height="12.09"/><rect class="cls-1" x="115.47" y="141.02" width="12.09" height="12.09"/><rect class="cls-1" x="128.27" y="141.03" width="12.09" height="12.09"/><rect class="cls-1" x="141.01" y="141.03" width="12.09" height="12.09"/><rect class="cls-1" x="153.79" y="141.04" width="12.09" height="12.09"/><rect class="cls-1" x="115.47" y="153.82" width="12.09" height="12.09"/><rect class="cls-1" x="128.27" y="153.83" width="12.09" height="12.09"/><rect class="cls-1" x="141.01" y="153.83" width="12.09" height="12.09"/><rect class="cls-1" x="153.79" y="153.84" width="12.09" height="12.09"/><rect class="cls-1" x="115.47" y="166.61" width="12.09" height="12.09"/><rect class="cls-1" x="128.27" y="166.62" width="12.09" height="12.09"/><rect class="cls-1" x="141.01" y="166.62" width="12.09" height="12.09"/><rect class="cls-1" x="153.79" y="166.63" width="12.09" height="12.09"/><circle class="cls-2" cx="121.44" cy="134.33" r="3.83"/><circle class="cls-2" cx="134.23" cy="134.35" r="3.83"/><circle class="cls-2" cx="147.18" cy="134.35" r="3.83"/><circle class="cls-2" cx="159.82" cy="134.32" r="3.83"/><circle class="cls-2" cx="121.44" cy="147.22" r="3.83"/><circle class="cls-2" cx="134.23" cy="147.23" r="3.83"/><circle class="cls-2" cx="147.18" cy="147.23" r="3.83"/><circle class="cls-2" cx="159.82" cy="147.2" r="3.83"/><circle class="cls-2" cx="121.44" cy="159.91" r="3.83"/><circle class="cls-2" cx="134.23" cy="159.86" r="3.83"/><circle class="cls-2" cx="147.18" cy="159.92" r="3.83"/><circle class="cls-2" cx="159.82" cy="159.89" r="3.83"/><circle class="cls-2" cx="121.44" cy="172.79" r="3.83"/><circle class="cls-2" cx="134.23" cy="173.06" r="3.83"/><circle class="cls-2" cx="147.18" cy="172.81" r="3.83"/><circle class="cls-2" cx="159.82" cy="172.78" r="3.83"/><rect class="cls-1" x="89.87" y="128.24" width="12.09" height="12.09"/><rect class="cls-1" x="102.67" y="128.26" width="12.09" height="12.09"/><rect class="cls-1" x="89.87" y="140.99" width="12.09" height="12.09"/><rect class="cls-1" x="102.67" y="141" width="12.09" height="12.09"/><rect class="cls-1" x="89.87" y="153.79" width="12.09" height="12.09"/><rect class="cls-1" x="102.67" y="153.8" width="12.09" height="12.09"/><rect class="cls-1" x="89.87" y="166.58" width="12.09" height="12.09"/><rect class="cls-1" x="102.67" y="166.59" width="12.09" height="12.09"/><circle class="cls-2" cx="95.84" cy="134.3" r="3.83"/><circle class="cls-2" cx="108.64" cy="134.32" r="3.83"/><circle class="cls-2" cx="95.84" cy="147.19" r="3.83"/><circle class="cls-2" cx="108.64" cy="147.21" r="3.83"/><circle class="cls-2" cx="95.84" cy="159.88" r="3.83"/><circle class="cls-2" cx="108.64" cy="159.83" r="3.83"/><circle class="cls-2" cx="95.84" cy="172.76" r="3.83"/><circle class="cls-2" cx="108.64" cy="173.03" r="3.83"/><rect class="cls-1" x="64.28" y="128.22" width="12.09" height="12.09"/><rect class="cls-1" x="77.08" y="128.23" width="12.09" height="12.09"/><rect class="cls-1" x="64.28" y="140.96" width="12.09" height="12.09"/><rect class="cls-1" x="77.08" y="140.97" width="12.09" height="12.09"/><rect class="cls-1" x="64.28" y="153.76" width="12.09" height="12.09"/><rect class="cls-1" x="77.08" y="153.77" width="12.09" height="12.09"/><rect class="cls-1" x="64.28" y="166.55" width="12.09" height="12.09"/><rect class="cls-1" x="77.08" y="166.56" width="12.09" height="12.09"/><circle class="cls-2" cx="70.25" cy="134.27" r="3.83"/><circle class="cls-2" cx="83.05" cy="134.29" r="3.83"/><circle class="cls-2" cx="70.25" cy="147.16" r="3.83"/><circle class="cls-2" cx="83.05" cy="147.18" r="3.83"/><circle class="cls-2" cx="70.25" cy="159.85" r="3.83"/><circle class="cls-2" cx="83.05" cy="159.81" r="3.83"/><circle class="cls-2" cx="70.25" cy="172.74" r="3.83"/><circle class="cls-2" cx="83.05" cy="173.01" r="3.83"/><rect class="cls-1" x="38.69" y="128.19" width="12.09" height="12.09"/><rect class="cls-1" x="51.48" y="128.2" width="12.09" height="12.09"/><rect class="cls-1" x="38.69" y="140.93" width="12.09" height="12.09"/><rect class="cls-1" x="51.48" y="140.95" width="12.09" height="12.09"/><rect class="cls-1" x="38.69" y="153.73" width="12.09" height="12.09"/><rect class="cls-1" x="51.48" y="153.75" width="12.09" height="12.09"/><rect class="cls-1" x="38.69" y="166.52" width="12.09" height="12.09"/><rect class="cls-1" x="51.48" y="166.53" width="12.09" height="12.09"/><circle class="cls-2" cx="57.45" cy="134.26" r="3.83"/><circle class="cls-2" cx="57.45" cy="147.15" r="3.83"/><circle class="cls-2" cx="57.45" cy="159.78" r="3.83"/><circle class="cls-2" cx="57.45" cy="172.98" r="3.83"/><rect class="cls-1" x="13.09" y="128.18" width="12.09" height="12.09"/><rect class="cls-1" x="25.89" y="128.19" width="12.09" height="12.09"/><rect class="cls-1" x="13.09" y="140.92" width="12.09" height="12.09"/><rect class="cls-1" x="25.89" y="140.93" width="12.09" height="12.09"/><rect class="cls-1" x="13.09" y="153.72" width="12.09" height="12.09"/><rect class="cls-1" x="25.89" y="153.73" width="12.09" height="12.09"/><rect class="cls-1" x="13.09" y="166.51" width="12.09" height="12.09"/><rect class="cls-1" x="25.89" y="166.52" width="12.09" height="12.09"/><circle class="cls-3" cx="147.27" cy="6.24" r="3.83"/><circle class="cls-3" cx="134.24" cy="19.05" r="3.83"/><circle class="cls-3" cx="147.19" cy="19.05" r="3.83"/><circle class="cls-3" cx="121.44" cy="31.92" r="3.83"/><circle class="cls-3" cx="134.24" cy="31.94" r="3.83"/><circle class="cls-3" cx="108.64" cy="31.91" r="3.83"/><circle class="cls-3" cx="95.85" cy="44.58" r="3.83"/><circle class="cls-3" cx="108.64" cy="44.54" r="3.83"/><circle class="cls-3" cx="70.25" cy="18.98" r="3.83"/><circle class="cls-3" cx="70.25" cy="31.86" r="3.83"/><circle class="cls-3" cx="83.05" cy="31.88" r="3.83"/><circle class="cls-3" cx="83.05" cy="44.51" r="3.83"/><circle class="cls-3" cx="44.66" cy="18.95" r="3.83"/><circle class="cls-3" cx="57.46" cy="18.97" r="3.83"/><circle class="cls-3" cx="31.86" cy="18.95" r="3.83"/><circle class="cls-3" cx="19.06" cy="31.82" r="3.83"/><circle class="cls-3" cx="31.86" cy="31.84" r="3.83"/><circle class="cls-3" cx="6.27" cy="31.82" r="3.83"/><circle class="cls-3" cx="6.27" cy="44.51" r="3.83"/><circle class="cls-3" cx="6.27" cy="57.4" r="3.83"/><circle class="cls-3" cx="19.06" cy="70.13" r="3.83"/><circle class="cls-3" cx="19.06" cy="83.02" r="3.83"/><circle class="cls-3" cx="19.06" cy="95.71" r="3.83"/><circle class="cls-3" cx="19.06" cy="108.6" r="3.83"/><circle class="cls-3" cx="6.27" cy="70.13" r="3.83"/><circle class="cls-3" cx="19.06" cy="121.5" r="3.83"/><circle class="cls-3" cx="19.06" cy="134.23" r="3.83"/><circle class="cls-3" cx="19.06" cy="147.12" r="3.83"/><circle class="cls-3" cx="19.06" cy="159.81" r="3.83"/><rect class="cls-1" x="0.29" y="128.18" width="12.09" height="12.09"/><rect class="cls-1" x="0.29" y="140.92" width="12.09" height="12.09"/><rect class="cls-1" x="0.29" y="153.72" width="12.09" height="12.09"/><rect class="cls-1" x="0.29" y="166.51" width="12.09" height="12.09"/><circle class="cls-4" cx="134.31" cy="6.24" r="3.83"/><circle class="cls-4" cx="121.44" cy="19.03" r="3.83"/><circle class="cls-4" cx="159.83" cy="19.02" r="3.83"/><circle class="cls-4" cx="147.19" cy="31.94" r="3.83"/><circle class="cls-4" cx="121.44" cy="44.61" r="3.83"/><circle class="cls-4" cx="134.24" cy="44.57" r="3.83"/><circle class="cls-4" cx="121.44" cy="57.5" r="3.83"/><circle class="cls-4" cx="95.85" cy="19.01" r="3.83"/><circle class="cls-4" cx="108.64" cy="19.02" r="3.83"/><circle class="cls-4" cx="95.85" cy="31.89" r="3.83"/><circle class="cls-4" cx="95.85" cy="57.47" r="3.83"/><circle class="cls-4" cx="108.64" cy="57.74" r="3.83"/><circle class="cls-4" cx="70.33" cy="6.17" r="3.83"/><circle class="cls-4" cx="83.13" cy="6.18" r="3.83"/><circle class="cls-4" cx="83.05" cy="19" r="3.83"/><circle class="cls-4" cx="70.25" cy="44.55" r="3.83"/><circle class="cls-4" cx="70.25" cy="57.44" r="3.83"/><circle class="cls-4" cx="83.05" cy="57.71" r="3.83"/><circle class="cls-4" cx="44.74" cy="6.14" r="3.83"/><circle class="cls-4" cx="57.53" cy="6.16" r="3.83"/><circle class="cls-4" cx="44.66" cy="31.84" r="3.83"/><circle class="cls-4" cx="57.46" cy="31.85" r="3.83"/><circle class="cls-4" cx="44.66" cy="44.53" r="3.83"/><circle class="cls-4" cx="57.46" cy="44.48" r="3.83"/><circle class="cls-4" cx="31.94" cy="6.14" r="3.83"/><circle class="cls-4" cx="19.06" cy="18.94" r="3.83"/><circle class="cls-4" cx="19.06" cy="44.51" r="3.83"/><circle class="cls-4" cx="31.86" cy="44.47" r="3.83"/><circle class="cls-4" cx="19.06" cy="57.4" r="3.83"/><circle class="cls-4" cx="31.86" cy="57.67" r="3.83"/><circle class="cls-4" cx="6.27" cy="18.94" r="3.83"/><circle class="cls-4" cx="31.86" cy="70.15" r="3.83"/><circle class="cls-4" cx="31.86" cy="83.04" r="3.83"/><circle class="cls-4" cx="31.86" cy="95.67" r="3.83"/><circle class="cls-4" cx="31.86" cy="108.87" r="3.83"/><circle class="cls-4" cx="6.27" cy="83.02" r="3.83"/><circle class="cls-4" cx="6.27" cy="95.71" r="3.83"/><circle class="cls-4" cx="6.27" cy="108.6" r="3.83"/><circle class="cls-4" cx="31.86" cy="121.77" r="3.83"/><circle class="cls-4" cx="6.26" cy="121.5" r="3.83"/><circle class="cls-4" cx="31.86" cy="134.25" r="3.83"/><circle class="cls-4" cx="31.86" cy="147.14" r="3.83"/><circle class="cls-4" cx="31.86" cy="159.76" r="3.83"/><circle class="cls-4" cx="19.06" cy="172.69" r="3.83"/><circle class="cls-4" cx="6.26" cy="134.23" r="3.83"/><circle class="cls-4" cx="6.26" cy="147.12" r="3.83"/><circle class="cls-4" cx="6.26" cy="159.81" r="3.83"/><circle class="cls-5" cx="121.52" cy="6.22" r="3.83"/><circle class="cls-5" cx="159.83" cy="31.91" r="3.83"/><circle class="cls-5" cx="147.19" cy="44.63" r="3.83"/><circle class="cls-5" cx="159.83" cy="44.6" r="3.83"/><circle class="cls-5" cx="134.24" cy="57.77" r="3.83"/><circle class="cls-5" cx="147.19" cy="57.52" r="3.83"/><circle class="cls-5" cx="95.92" cy="6.19" r="3.83"/><circle class="cls-5" cx="108.72" cy="6.21" r="3.83"/><circle class="cls-5" cx="44.66" cy="57.41" r="3.83"/><circle class="cls-5" cx="57.46" cy="57.68" r="3.83"/><circle class="cls-5" cx="19.14" cy="6.13" r="3.83"/><circle class="cls-5" cx="6.34" cy="6.13" r="3.83"/><circle class="cls-5" cx="121.44" cy="70.23" r="3.83"/><circle class="cls-5" cx="134.24" cy="70.25" r="3.83"/><circle class="cls-5" cx="95.85" cy="70.2" r="3.83"/><circle class="cls-5" cx="108.64" cy="70.22" r="3.83"/><circle class="cls-5" cx="70.25" cy="70.17" r="3.83"/><circle class="cls-5" cx="83.05" cy="70.19" r="3.83"/><circle class="cls-5" cx="44.66" cy="70.15" r="3.83"/><circle class="cls-5" cx="57.46" cy="70.16" r="3.83"/><circle class="cls-5" cx="44.66" cy="83.03" r="3.83"/><circle class="cls-5" cx="57.46" cy="83.05" r="3.83"/><circle class="cls-5" cx="44.66" cy="95.72" r="3.83"/><circle class="cls-5" cx="44.66" cy="108.61" r="3.83"/><circle class="cls-5" cx="44.65" cy="121.51" r="3.83"/><circle class="cls-5" cx="44.65" cy="134.24" r="3.83"/><circle class="cls-5" cx="44.65" cy="147.13" r="3.83"/><circle class="cls-5" cx="44.65" cy="159.82" r="3.83"/><circle class="cls-5" cx="44.65" cy="172.71" r="3.83"/><circle class="cls-5" cx="31.86" cy="172.97" r="3.83"/><circle class="cls-5" cx="6.26" cy="172.69" r="3.83"/><polyline class="cls-6" points="19.06 159.81 19.06 70.13 6.27 70.13 6.27 31.82 31.86 31.82 31.86 18.95 70.25 18.95 70.25 31.86 83.05 31.86 83.05 44.51 95.85 44.51 108.64 44.51 108.64 31.91 134.24 31.91 134.24 19.05 147.19 19.05 147.19 6.24 159.82 6.24"/><rect class="cls-7" x="154.67" y="1.07" width="10.33" height="10.33"/><text class="cls-8" transform="translate(156.07 7.47)">+1</text><line class="cls-9" x1="166.87" y1="51.02" x2="25.89" y2="50.9"/><rect class="cls-10" x="166.87" y="0.18" width="11.88" height="178.42"/></svg>