<svg id="Layer_1" data-name="Layer 1" xmlns="http://www.w3.org/2000/svg" viewBox="0 0 178.45 178.59"><defs><style>.cls-1{fill:#aa1e22;}.cls-2{fill:#e7ebe8;}.cls-3{fill:#cac9cc;}.cls-4{fill:#6d79ba;}.cls-5{fill:none;stroke:#6d79ba;stroke-miterlimit:10;stroke-width:2px;}.cls-6{fill:#2c3592;}.cls-7{font-size:5.23px;fill:#d1d3d4;font-family:MyriadPro-Semibold, Myriad Pro;font-weight:700;}</style></defs><title>large-cliffworld-path</title><rect class="cls-1" x="166.57" y="0.13" width="11.88" height="178.42"/><rect class="cls-2" x="115.18" y="0.13" width="12.09" height="12.09"/><rect class="cls-2" x="127.98" y="0.15" width="12.09" height="12.09"/><rect class="cls-2" x="140.72" y="0.15" width="12.09" height="12.09"/><rect class="cls-2" x="115.18" y="12.93" width="12.09" height="12.09"/><rect class="cls-2" x="127.98" y="12.95" width="12.09" height="12.09"/><rect class="cls-2" x="140.72" y="12.95" width="12.09" height="12.09"/><rect class="cls-2" x="153.5" y="12.95" width="12.09" height="12.09"/><rect class="cls-2" x="115.18" y="25.68" width="12.09" height="12.09"/><rect class="cls-2" x="127.98" y="25.69" width="12.09" height="12.09"/><rect class="cls-2" x="140.72" y="25.69" width="12.09" height="12.09"/><rect class="cls-2" x="153.5" y="25.7" width="12.09" height="12.09"/><rect class="cls-2" x="115.18" y="38.48" width="12.09" height="12.09"/><rect class="cls-2" x="127.98" y="38.49" width="12.09" height="12.09"/><rect class="cls-2" x="140.72" y="38.49" width="12.09" height="12.09"/><rect class="cls-2" x="153.5" y="38.5" width="12.09" height="12.09"/><rect class="cls-2" x="115.18" y="51.26" width="12.09" height="12.09"/><rect class="cls-2" x="127.98" y="51.28" width="12.09" height="12.09"/><rect class="cls-2" x="140.72" y="51.28" width="12.09" height="12.09"/><rect class="cls-2" x="153.5" y="51.29" width="12.09" height="12.09"/><circle class="cls-3" cx="121.22" cy="6.18" r="3.83"/><circle class="cls-3" cx="134.02" cy="6.2" r="3.83"/><circle class="cls-3" cx="121.15" cy="18.99" r="3.83"/><circle class="cls-3" cx="159.53" cy="18.98" r="3.83"/><circle class="cls-3" cx="146.89" cy="31.89" r="3.83"/><circle class="cls-3" cx="159.53" cy="31.86" r="3.83"/><circle class="cls-3" cx="121.15" cy="44.57" r="3.83"/><circle class="cls-3" cx="133.94" cy="44.52" r="3.83"/><circle class="cls-3" cx="146.89" cy="44.58" r="3.83"/><circle class="cls-3" cx="159.53" cy="44.55" r="3.83"/><circle class="cls-3" cx="121.15" cy="57.45" r="3.83"/><circle class="cls-3" cx="133.94" cy="57.72" r="3.83"/><circle class="cls-3" cx="146.89" cy="57.47" r="3.83"/><circle class="cls-3" cx="159.53" cy="57.44" r="3.83"/><rect class="cls-2" x="89.58" y="0.1" width="12.09" height="12.09"/><rect class="cls-2" x="102.38" y="0.12" width="12.09" height="12.09"/><rect class="cls-2" x="89.58" y="12.9" width="12.09" height="12.09"/><rect class="cls-2" x="102.38" y="12.92" width="12.09" height="12.09"/><rect class="cls-2" x="89.58" y="25.65" width="12.09" height="12.09"/><rect class="cls-2" x="102.38" y="25.66" width="12.09" height="12.09"/><rect class="cls-2" x="89.58" y="38.45" width="12.09" height="12.09"/><rect class="cls-2" x="102.38" y="38.46" width="12.09" height="12.09"/><rect class="cls-2" x="89.58" y="51.24" width="12.09" height="12.09"/><rect class="cls-2" x="102.38" y="51.25" width="12.09" height="12.09"/><circle class="cls-3" cx="95.63" cy="6.15" r="3.83"/><circle class="cls-3" cx="108.43" cy="6.17" r="3.83"/><circle class="cls-3" cx="95.55" cy="18.96" r="3.83"/><circle class="cls-3" cx="108.35" cy="18.98" r="3.83"/><circle class="cls-3" cx="95.55" cy="31.85" r="3.83"/><circle class="cls-3" cx="95.55" cy="57.42" r="3.83"/><circle class="cls-3" cx="108.35" cy="57.69" r="3.83"/><rect class="cls-2" x="63.99" y="0.08" width="12.09" height="12.09"/><rect class="cls-2" x="76.79" y="0.09" width="12.09" height="12.09"/><rect class="cls-2" x="63.99" y="12.88" width="12.09" height="12.09"/><rect class="cls-2" x="76.79" y="12.89" width="12.09" height="12.09"/><rect class="cls-2" x="63.99" y="25.62" width="12.09" height="12.09"/><rect class="cls-2" x="76.79" y="25.63" width="12.09" height="12.09"/><rect class="cls-2" x="63.99" y="38.42" width="12.09" height="12.09"/><rect class="cls-2" x="76.79" y="38.43" width="12.09" height="12.09"/><rect class="cls-2" x="63.99" y="51.21" width="12.09" height="12.09"/><rect class="cls-2" x="76.79" y="51.22" width="12.09" height="12.09"/><circle class="cls-3" cx="70.03" cy="6.12" r="3.83"/><circle class="cls-3" cx="82.83" cy="6.14" r="3.83"/><circle class="cls-3" cx="82.75" cy="18.95" r="3.83"/><circle class="cls-3" cx="69.96" cy="44.51" r="3.83"/><circle class="cls-3" cx="69.96" cy="57.4" r="3.83"/><circle class="cls-3" cx="82.75" cy="57.67" r="3.83"/><rect class="cls-2" x="38.4" y="0.05" width="12.09" height="12.09"/><rect class="cls-2" x="51.19" y="0.06" width="12.09" height="12.09"/><rect class="cls-2" x="38.4" y="12.85" width="12.09" height="12.09"/><rect class="cls-2" x="51.19" y="12.86" width="12.09" height="12.09"/><rect class="cls-2" x="38.4" y="25.59" width="12.09" height="12.09"/><rect class="cls-2" x="51.19" y="25.61" width="12.09" height="12.09"/><rect class="cls-2" x="38.4" y="38.39" width="12.09" height="12.09"/><rect class="cls-2" x="51.19" y="38.41" width="12.09" height="12.09"/><rect class="cls-2" x="38.4" y="51.18" width="12.09" height="12.09"/><rect class="cls-2" x="51.19" y="51.19" width="12.09" height="12.09"/><circle class="cls-3" cx="44.44" cy="6.09" r="3.83"/><circle class="cls-3" cx="57.24" cy="6.11" r="3.83"/><circle class="cls-3" cx="44.36" cy="31.79" r="3.83"/><circle class="cls-3" cx="57.16" cy="31.81" r="3.83"/><circle class="cls-3" cx="44.36" cy="44.48" r="3.83"/><circle class="cls-3" cx="57.16" cy="44.44" r="3.83"/><circle class="cls-3" cx="44.36" cy="57.37" r="3.83"/><circle class="cls-3" cx="57.16" cy="57.64" r="3.83"/><rect class="cls-2" x="12.8" y="0.04" width="12.09" height="12.09"/><rect class="cls-2" x="25.6" y="0.05" width="12.09" height="12.09"/><rect class="cls-2" x="12.8" y="12.84" width="12.09" height="12.09"/><rect class="cls-2" x="25.6" y="12.85" width="12.09" height="12.09"/><rect class="cls-2" x="12.8" y="25.58" width="12.09" height="12.09"/><rect class="cls-2" x="25.6" y="25.59" width="12.09" height="12.09"/><rect class="cls-2" x="12.8" y="38.38" width="12.09" height="12.09"/><rect class="cls-2" x="25.6" y="38.39" width="12.09" height="12.09"/><rect class="cls-2" x="12.8" y="51.17" width="12.09" height="12.09"/><rect class="cls-2" x="25.6" y="51.18" width="12.09" height="12.09"/><circle class="cls-3" cx="18.85" cy="6.08" r="3.83"/><circle class="cls-3" cx="31.64" cy="6.1" r="3.83"/><circle class="cls-3" cx="18.77" cy="18.89" r="3.83"/><circle class="cls-3" cx="18.77" cy="44.47" r="3.83"/><circle class="cls-3" cx="31.57" cy="44.42" r="3.83"/><circle class="cls-3" cx="18.77" cy="57.35" r="3.83"/><circle class="cls-3" cx="31.57" cy="57.63" r="3.83"/><rect class="cls-2" y="0.04" width="12.09" height="12.09"/><rect class="cls-2" y="12.84" width="12.09" height="12.09"/><rect class="cls-2" y="25.58" width="12.09" height="12.09"/><rect class="cls-2" y="38.38" width="12.09" height="12.09"/><rect class="cls-2" y="51.17" width="12.09" height="12.09"/><circle class="cls-3" cx="6.05" cy="6.08" r="3.83"/><circle class="cls-3" cx="5.97" cy="18.89" r="3.83"/><rect class="cls-2" x="115.18" y="64.13" width="12.09" height="12.09"/><rect class="cls-2" x="127.97" y="64.14" width="12.09" height="12.09"/><rect class="cls-2" x="140.72" y="64.14" width="12.09" height="12.09"/><rect class="cls-2" x="153.5" y="64.15" width="12.09" height="12.09"/><rect class="cls-2" x="115.18" y="76.87" width="12.09" height="12.09"/><rect class="cls-2" x="127.97" y="76.89" width="12.09" height="12.09"/><rect class="cls-2" x="140.72" y="76.89" width="12.09" height="12.09"/><rect class="cls-2" x="153.5" y="76.89" width="12.09" height="12.09"/><rect class="cls-2" x="115.18" y="89.67" width="12.09" height="12.09"/><rect class="cls-2" x="127.97" y="89.69" width="12.09" height="12.09"/><rect class="cls-2" x="140.72" y="89.69" width="12.09" height="12.09"/><rect class="cls-2" x="153.5" y="89.69" width="12.09" height="12.09"/><rect class="cls-2" x="115.18" y="102.46" width="12.09" height="12.09"/><rect class="cls-2" x="127.97" y="102.47" width="12.09" height="12.09"/><rect class="cls-2" x="140.72" y="102.48" width="12.09" height="12.09"/><rect class="cls-2" x="153.5" y="102.48" width="12.09" height="12.09"/><circle class="cls-3" cx="121.15" cy="70.18" r="3.83"/><circle class="cls-3" cx="133.94" cy="70.2" r="3.83"/><circle class="cls-3" cx="146.89" cy="70.2" r="3.83"/><circle class="cls-3" cx="159.53" cy="70.17" r="3.83"/><circle class="cls-3" cx="121.15" cy="83.07" r="3.83"/><circle class="cls-3" cx="133.94" cy="83.09" r="3.83"/><circle class="cls-3" cx="146.89" cy="83.09" r="3.83"/><circle class="cls-3" cx="159.53" cy="83.06" r="3.83"/><circle class="cls-3" cx="121.15" cy="95.76" r="3.83"/><circle class="cls-3" cx="133.94" cy="95.72" r="3.83"/><circle class="cls-3" cx="146.89" cy="95.78" r="3.83"/><circle class="cls-3" cx="159.53" cy="95.75" r="3.83"/><circle class="cls-3" cx="121.15" cy="108.65" r="3.83"/><circle class="cls-3" cx="133.94" cy="108.92" r="3.83"/><circle class="cls-3" cx="146.89" cy="108.67" r="3.83"/><circle class="cls-3" cx="159.53" cy="108.64" r="3.83"/><rect class="cls-2" x="89.58" y="64.1" width="12.09" height="12.09"/><rect class="cls-2" x="102.38" y="64.11" width="12.09" height="12.09"/><rect class="cls-2" x="89.58" y="76.85" width="12.09" height="12.09"/><rect class="cls-2" x="102.38" y="76.86" width="12.09" height="12.09"/><rect class="cls-2" x="89.58" y="89.64" width="12.09" height="12.09"/><rect class="cls-2" x="102.38" y="89.66" width="12.09" height="12.09"/><rect class="cls-2" x="89.58" y="102.43" width="12.09" height="12.09"/><rect class="cls-2" x="102.38" y="102.45" width="12.09" height="12.09"/><circle class="cls-3" cx="95.55" cy="70.16" r="3.83"/><circle class="cls-3" cx="108.35" cy="70.17" r="3.83"/><circle class="cls-3" cx="95.55" cy="83.04" r="3.83"/><circle class="cls-3" cx="108.35" cy="83.06" r="3.83"/><circle class="cls-3" cx="95.55" cy="95.73" r="3.83"/><circle class="cls-3" cx="108.35" cy="95.69" r="3.83"/><circle class="cls-3" cx="95.55" cy="108.62" r="3.83"/><circle class="cls-3" cx="108.35" cy="108.89" r="3.83"/><rect class="cls-2" x="63.99" y="64.07" width="12.09" height="12.09"/><rect class="cls-2" x="76.79" y="64.09" width="12.09" height="12.09"/><rect class="cls-2" x="63.99" y="76.82" width="12.09" height="12.09"/><rect class="cls-2" x="76.79" y="76.83" width="12.09" height="12.09"/><rect class="cls-2" x="63.99" y="89.62" width="12.09" height="12.09"/><rect class="cls-2" x="76.79" y="89.63" width="12.09" height="12.09"/><rect class="cls-2" x="63.99" y="102.4" width="12.09" height="12.09"/><rect class="cls-2" x="76.79" y="102.42" width="12.09" height="12.09"/><circle class="cls-3" cx="69.96" cy="70.13" r="3.83"/><circle class="cls-3" cx="82.75" cy="70.15" r="3.83"/><circle class="cls-3" cx="69.96" cy="83.01" r="3.83"/><circle class="cls-3" cx="82.75" cy="83.03" r="3.83"/><circle class="cls-3" cx="69.96" cy="95.71" r="3.83"/><circle class="cls-3" cx="82.75" cy="95.66" r="3.83"/><circle class="cls-3" cx="69.96" cy="108.59" r="3.83"/><circle class="cls-3" cx="82.75" cy="108.86" r="3.83"/><rect class="cls-2" x="38.4" y="64.04" width="12.09" height="12.09"/><rect class="cls-2" x="51.19" y="64.06" width="12.09" height="12.09"/><rect class="cls-2" x="38.4" y="76.79" width="12.09" height="12.09"/><rect class="cls-2" x="51.19" y="76.8" width="12.09" height="12.09"/><rect class="cls-2" x="38.4" y="89.59" width="12.09" height="12.09"/><rect class="cls-2" x="51.19" y="89.6" width="12.09" height="12.09"/><rect class="cls-2" x="38.4" y="102.38" width="12.09" height="12.09"/><rect class="cls-2" x="51.19" y="102.39" width="12.09" height="12.09"/><circle class="cls-3" cx="44.36" cy="70.1" r="3.83"/><circle class="cls-3" cx="57.16" cy="70.12" r="3.83"/><circle class="cls-3" cx="44.36" cy="82.99" r="3.83"/><circle class="cls-3" cx="57.16" cy="83" r="3.83"/><circle class="cls-3" cx="44.36" cy="95.68" r="3.83"/><circle class="cls-3" cx="57.16" cy="95.63" r="3.83"/><circle class="cls-3" cx="44.36" cy="108.56" r="3.83"/><circle class="cls-3" cx="57.16" cy="108.83" r="3.83"/><rect class="cls-2" x="12.8" y="64.03" width="12.09" height="12.09"/><rect class="cls-2" x="25.6" y="64.04" width="12.09" height="12.09"/><rect class="cls-2" x="12.8" y="76.78" width="12.09" height="12.09"/><rect class="cls-2" x="25.6" y="76.79" width="12.09" height="12.09"/><rect class="cls-2" x="12.8" y="89.58" width="12.09" height="12.09"/><rect class="cls-2" x="25.6" y="89.59" width="12.09" height="12.09"/><rect class="cls-2" x="12.8" y="102.36" width="12.09" height="12.09"/><rect class="cls-2" x="25.6" y="102.38" width="12.09" height="12.09"/><circle class="cls-3" cx="31.57" cy="70.11" r="3.83"/><circle class="cls-3" cx="31.57" cy="82.99" r="3.83"/><circle class="cls-3" cx="31.57" cy="95.62" r="3.83"/><circle class="cls-3" cx="31.57" cy="108.82" r="3.83"/><rect class="cls-2" y="64.03" width="12.09" height="12.09"/><rect class="cls-2" y="76.78" width="12.09" height="12.09"/><rect class="cls-2" y="89.58" width="12.09" height="12.09"/><rect class="cls-2" y="102.36" width="12.09" height="12.09"/><circle class="cls-3" cx="5.97" cy="82.97" r="3.83"/><circle class="cls-3" cx="5.97" cy="95.66" r="3.83"/><circle class="cls-3" cx="5.97" cy="108.55" r="3.83"/><rect class="cls-2" x="115.17" y="115.36" width="12.09" height="12.09"/><rect class="cls-2" x="127.97" y="115.38" width="12.09" height="12.09"/><rect class="cls-2" x="140.72" y="115.38" width="12.09" height="12.09"/><rect class="cls-2" x="153.5" y="115.38" width="12.09" height="12.09"/><circle class="cls-3" cx="121.14" cy="121.55" r="3.83"/><circle class="cls-3" cx="133.94" cy="121.82" r="3.83"/><circle class="cls-3" cx="146.89" cy="121.57" r="3.83"/><circle class="cls-3" cx="159.53" cy="121.54" r="3.83"/><rect class="cls-2" x="89.58" y="115.34" width="12.09" height="12.09"/><rect class="cls-2" x="102.38" y="115.35" width="12.09" height="12.09"/><circle class="cls-3" cx="95.55" cy="121.52" r="3.83"/><circle class="cls-3" cx="108.34" cy="121.79" r="3.83"/><rect class="cls-2" x="63.99" y="115.31" width="12.09" height="12.09"/><rect class="cls-2" x="76.78" y="115.32" width="12.09" height="12.09"/><circle class="cls-3" cx="69.95" cy="121.49" r="3.83"/><circle class="cls-3" cx="82.75" cy="121.77" r="3.83"/><rect class="cls-2" x="38.39" y="115.28" width="12.09" height="12.09"/><rect class="cls-2" x="51.19" y="115.29" width="12.09" height="12.09"/><circle class="cls-3" cx="44.36" cy="121.47" r="3.83"/><circle class="cls-3" cx="57.16" cy="121.74" r="3.83"/><rect class="cls-2" x="12.8" y="115.27" width="12.09" height="12.09"/><rect class="cls-2" x="25.59" y="115.28" width="12.09" height="12.09"/><circle class="cls-3" cx="31.56" cy="121.72" r="3.83"/><rect class="cls-2" y="115.27" width="12.09" height="12.09"/><circle class="cls-3" cx="5.97" cy="121.45" r="3.83"/><rect class="cls-2" x="115.17" y="128.23" width="12.09" height="12.09"/><rect class="cls-2" x="127.97" y="128.24" width="12.09" height="12.09"/><rect class="cls-2" x="140.72" y="128.24" width="12.09" height="12.09"/><rect class="cls-2" x="153.5" y="128.25" width="12.09" height="12.09"/><rect class="cls-2" x="115.17" y="140.97" width="12.09" height="12.09"/><rect class="cls-2" x="127.97" y="140.99" width="12.09" height="12.09"/><rect class="cls-2" x="140.72" y="140.99" width="12.09" height="12.09"/><rect class="cls-2" x="153.5" y="140.99" width="12.09" height="12.09"/><rect class="cls-2" x="115.17" y="153.77" width="12.09" height="12.09"/><rect class="cls-2" x="127.97" y="153.78" width="12.09" height="12.09"/><rect class="cls-2" x="140.72" y="153.79" width="12.09" height="12.09"/><rect class="cls-2" x="153.5" y="153.79" width="12.09" height="12.09"/><rect class="cls-2" x="115.17" y="166.56" width="12.09" height="12.09"/><rect class="cls-2" x="127.97" y="166.57" width="12.09" height="12.09"/><rect class="cls-2" x="140.72" y="166.58" width="12.09" height="12.09"/><rect class="cls-2" x="153.5" y="166.58" width="12.09" height="12.09"/><circle class="cls-3" cx="121.14" cy="134.28" r="3.83"/><circle class="cls-3" cx="133.94" cy="134.3" r="3.83"/><circle class="cls-3" cx="146.89" cy="134.3" r="3.83"/><circle class="cls-3" cx="159.53" cy="134.27" r="3.83"/><circle class="cls-3" cx="121.14" cy="147.17" r="3.83"/><circle class="cls-3" cx="133.94" cy="147.19" r="3.83"/><circle class="cls-3" cx="146.89" cy="147.19" r="3.83"/><circle class="cls-3" cx="159.53" cy="147.16" r="3.83"/><circle class="cls-3" cx="121.14" cy="159.86" r="3.83"/><circle class="cls-3" cx="133.94" cy="159.82" r="3.83"/><circle class="cls-3" cx="146.89" cy="159.88" r="3.83"/><circle class="cls-3" cx="159.53" cy="159.85" r="3.83"/><circle class="cls-3" cx="121.14" cy="172.75" r="3.83"/><circle class="cls-3" cx="133.94" cy="173.02" r="3.83"/><circle class="cls-3" cx="146.89" cy="172.77" r="3.83"/><circle class="cls-3" cx="159.53" cy="172.74" r="3.83"/><rect class="cls-2" x="89.58" y="128.2" width="12.09" height="12.09"/><rect class="cls-2" x="102.38" y="128.21" width="12.09" height="12.09"/><rect class="cls-2" x="89.58" y="140.94" width="12.09" height="12.09"/><rect class="cls-2" x="102.38" y="140.96" width="12.09" height="12.09"/><rect class="cls-2" x="89.58" y="153.74" width="12.09" height="12.09"/><rect class="cls-2" x="102.38" y="153.76" width="12.09" height="12.09"/><rect class="cls-2" x="89.58" y="166.53" width="12.09" height="12.09"/><rect class="cls-2" x="102.38" y="166.54" width="12.09" height="12.09"/><circle class="cls-3" cx="95.55" cy="134.26" r="3.83"/><circle class="cls-3" cx="108.34" cy="134.27" r="3.83"/><circle class="cls-3" cx="95.55" cy="147.14" r="3.83"/><circle class="cls-3" cx="108.34" cy="147.16" r="3.83"/><circle class="cls-3" cx="95.55" cy="159.83" r="3.83"/><circle class="cls-3" cx="108.34" cy="159.79" r="3.83"/><circle class="cls-3" cx="95.55" cy="172.72" r="3.83"/><circle class="cls-3" cx="108.34" cy="172.99" r="3.83"/><rect class="cls-2" x="63.99" y="128.17" width="12.09" height="12.09"/><rect class="cls-2" x="76.78" y="128.18" width="12.09" height="12.09"/><rect class="cls-2" x="63.99" y="140.92" width="12.09" height="12.09"/><rect class="cls-2" x="76.78" y="140.93" width="12.09" height="12.09"/><rect class="cls-2" x="63.99" y="153.72" width="12.09" height="12.09"/><rect class="cls-2" x="76.78" y="153.73" width="12.09" height="12.09"/><rect class="cls-2" x="63.99" y="166.5" width="12.09" height="12.09"/><rect class="cls-2" x="76.78" y="166.52" width="12.09" height="12.09"/><circle class="cls-3" cx="69.95" cy="134.23" r="3.83"/><circle class="cls-3" cx="82.75" cy="134.25" r="3.83"/><circle class="cls-3" cx="69.95" cy="147.11" r="3.83"/><circle class="cls-3" cx="82.75" cy="147.13" r="3.83"/><circle class="cls-3" cx="69.95" cy="159.8" r="3.83"/><circle class="cls-3" cx="82.75" cy="159.76" r="3.83"/><circle class="cls-3" cx="69.95" cy="172.69" r="3.83"/><circle class="cls-3" cx="82.75" cy="172.96" r="3.83"/><rect class="cls-2" x="38.39" y="128.14" width="12.09" height="12.09"/><rect class="cls-2" x="51.19" y="128.16" width="12.09" height="12.09"/><rect class="cls-2" x="38.39" y="140.89" width="12.09" height="12.09"/><rect class="cls-2" x="51.19" y="140.9" width="12.09" height="12.09"/><rect class="cls-2" x="38.39" y="153.69" width="12.09" height="12.09"/><rect class="cls-2" x="51.19" y="153.7" width="12.09" height="12.09"/><rect class="cls-2" x="38.39" y="166.48" width="12.09" height="12.09"/><rect class="cls-2" x="51.19" y="166.49" width="12.09" height="12.09"/><circle class="cls-3" cx="44.36" cy="134.2" r="3.83"/><circle class="cls-3" cx="57.16" cy="134.22" r="3.83"/><circle class="cls-3" cx="44.36" cy="147.09" r="3.83"/><circle class="cls-3" cx="57.16" cy="147.1" r="3.83"/><circle class="cls-3" cx="44.36" cy="159.78" r="3.83"/><circle class="cls-3" cx="57.16" cy="159.73" r="3.83"/><circle class="cls-3" cx="44.36" cy="172.66" r="3.83"/><circle class="cls-3" cx="57.16" cy="172.93" r="3.83"/><rect class="cls-2" x="12.8" y="128.13" width="12.09" height="12.09"/><rect class="cls-2" x="25.59" y="128.14" width="12.09" height="12.09"/><rect class="cls-2" x="12.8" y="140.87" width="12.09" height="12.09"/><rect class="cls-2" x="25.59" y="140.89" width="12.09" height="12.09"/><rect class="cls-2" x="12.8" y="153.67" width="12.09" height="12.09"/><rect class="cls-2" x="25.59" y="153.69" width="12.09" height="12.09"/><rect class="cls-2" x="12.8" y="166.46" width="12.09" height="12.09"/><rect class="cls-2" x="25.59" y="166.48" width="12.09" height="12.09"/><circle class="cls-3" cx="31.56" cy="134.2" r="3.83"/><circle class="cls-3" cx="31.56" cy="147.09" r="3.83"/><circle class="cls-4" cx="146.97" cy="6.2" r="3.83"/><circle class="cls-4" cx="133.94" cy="19.01" r="3.83"/><circle class="cls-4" cx="146.89" cy="19.01" r="3.83"/><circle class="cls-4" cx="121.15" cy="31.88" r="3.83"/><circle class="cls-4" cx="133.94" cy="31.89" r="3.83"/><circle class="cls-4" cx="108.35" cy="31.86" r="3.83"/><circle class="cls-4" cx="95.55" cy="44.54" r="3.83"/><circle class="cls-4" cx="108.35" cy="44.49" r="3.83"/><circle class="cls-4" cx="69.96" cy="18.93" r="3.83"/><circle class="cls-4" cx="69.96" cy="31.82" r="3.83"/><circle class="cls-4" cx="82.75" cy="31.84" r="3.83"/><circle class="cls-4" cx="82.75" cy="44.47" r="3.83"/><circle class="cls-4" cx="44.36" cy="18.9" r="3.83"/><circle class="cls-4" cx="57.16" cy="18.92" r="3.83"/><circle class="cls-4" cx="31.57" cy="18.91" r="3.83"/><circle class="cls-4" cx="18.77" cy="31.78" r="3.83"/><circle class="cls-4" cx="31.57" cy="31.8" r="3.83"/><circle class="cls-4" cx="5.97" cy="31.78" r="3.83"/><circle class="cls-4" cx="5.97" cy="44.47" r="3.83"/><circle class="cls-4" cx="5.97" cy="57.35" r="3.83"/><circle class="cls-4" cx="18.77" cy="70.09" r="3.83"/><circle class="cls-4" cx="18.77" cy="82.97" r="3.83"/><circle class="cls-4" cx="18.77" cy="95.66" r="3.83"/><circle class="cls-4" cx="18.77" cy="108.55" r="3.83"/><circle class="cls-4" cx="5.97" cy="70.09" r="3.83"/><circle class="cls-4" cx="18.77" cy="121.45" r="3.83"/><circle class="cls-4" cx="18.76" cy="134.19" r="3.83"/><circle class="cls-4" cx="18.76" cy="147.07" r="3.83"/><circle class="cls-4" cx="18.76" cy="159.76" r="3.83"/><circle class="cls-3" cx="31.56" cy="159.72" r="3.83"/><circle class="cls-3" cx="18.76" cy="172.65" r="3.83"/><circle class="cls-3" cx="31.56" cy="172.92" r="3.83"/><rect class="cls-2" y="128.13" width="12.09" height="12.09"/><rect class="cls-2" y="140.87" width="12.09" height="12.09"/><rect class="cls-2" y="153.67" width="12.09" height="12.09"/><rect class="cls-2" y="166.46" width="12.09" height="12.09"/><circle class="cls-3" cx="5.97" cy="134.19" r="3.83"/><circle class="cls-3" cx="5.97" cy="147.07" r="3.83"/><circle class="cls-3" cx="5.97" cy="159.76" r="3.83"/><circle class="cls-3" cx="5.97" cy="172.65" r="3.83"/><polyline class="cls-5" points="18.77 159.76 18.77 70.09 5.97 70.09 5.97 31.78 31.57 31.78 31.57 18.91 69.96 18.91 69.96 31.82 82.75 31.82 82.75 44.47 95.55 44.47 108.35 44.47 108.35 31.86 133.94 31.86 133.94 19.01 146.89 19.01 146.89 6.2 159.53 6.2"/><rect class="cls-6" x="154.38" y="1.02" width="10.33" height="10.33"/><text class="cls-7" transform="translate(156.58 7.42)">+1</text></svg>