<svg id="Layer_1" data-name="Layer 1" xmlns="http://www.w3.org/2000/svg" viewBox="0 0 180 80.67"><defs><style>.cls-1{fill:#efefef;stroke:#fff;}.cls-1,.cls-8{stroke-miterlimit:10;}.cls-2{fill:#d8d8d8;}.cls-3{opacity:0.3;}.cls-4{fill:#d8d6eb;}.cls-5{fill:#a29bcc;}.cls-6{fill:#7f7dbb;}.cls-7{fill:#4f59a7;}.cls-8{fill:none;stroke:#686868;}</style></defs><title>merge-paths</title><rect class="cls-1" x="9.76" y="2.96" width="18" height="18"/><rect class="cls-1" x="9.76" y="20.96" width="18" height="18"/><rect class="cls-1" x="9.76" y="38.96" width="18" height="18"/><rect class="cls-1" x="9.76" y="56.96" width="18" height="18"/><rect class="cls-1" x="27.76" y="2.96" width="18" height="18"/><rect class="cls-1" x="27.76" y="20.96" width="18" height="18"/><rect class="cls-1" x="27.76" y="38.96" width="18" height="18"/><rect class="cls-1" x="27.76" y="56.96" width="18" height="18"/><rect class="cls-1" x="45.76" y="2.96" width="18" height="18"/><rect class="cls-1" x="45.76" y="20.96" width="18" height="18"/><rect class="cls-1" x="45.76" y="38.96" width="18" height="18"/><rect class="cls-1" x="45.76" y="56.96" width="18" height="18"/><rect class="cls-1" x="63.76" y="2.96" width="18" height="18"/><rect class="cls-1" x="63.76" y="20.96" width="18" height="18"/><rect class="cls-1" x="63.76" y="38.96" width="18" height="18"/><rect class="cls-1" x="63.76" y="56.96" width="18" height="18"/><rect class="cls-1" x="99.01" y="2.96" width="18" height="18"/><rect class="cls-1" x="99.01" y="20.96" width="18" height="18"/><rect class="cls-1" x="99.01" y="38.96" width="18" height="18"/><rect class="cls-1" x="99.01" y="56.96" width="18" height="18"/><rect class="cls-1" x="117.01" y="2.96" width="18" height="18"/><rect class="cls-1" x="117.01" y="20.96" width="18" height="18"/><rect class="cls-1" x="117.01" y="38.96" width="18" height="18"/><rect class="cls-1" x="117.01" y="56.96" width="18" height="18"/><rect class="cls-1" x="135.01" y="2.96" width="18" height="18"/><rect class="cls-1" x="135.01" y="20.96" width="18" height="18"/><rect class="cls-1" x="135.01" y="38.96" width="18" height="18"/><rect class="cls-1" x="135.01" y="56.96" width="18" height="18"/><rect class="cls-1" x="153.01" y="2.96" width="18" height="18"/><rect class="cls-1" x="153.01" y="20.96" width="18" height="18"/><rect class="cls-1" x="153.01" y="38.96" width="18" height="18"/><rect class="cls-1" x="153.01" y="56.96" width="18" height="18"/><circle class="cls-2" cx="18.87" cy="12.17" r="5.83"/><circle class="cls-2" cx="36.43" cy="12.17" r="5.83"/><circle class="cls-2" cx="53.98" cy="12.17" r="5.83"/><circle class="cls-2" cx="71.53" cy="12.17" r="5.83"/><circle class="cls-2" cx="18.87" cy="30.17" r="5.83"/><circle class="cls-2" cx="36.43" cy="30.17" r="5.83"/><circle class="cls-2" cx="53.98" cy="30.17" r="5.83"/><circle class="cls-2" cx="71.53" cy="30.17" r="5.83"/><circle class="cls-2" cx="18.87" cy="48.17" r="5.83"/><circle class="cls-2" cx="36.43" cy="48.17" r="5.83"/><circle class="cls-2" cx="53.98" cy="48.17" r="5.83"/><circle class="cls-2" cx="71.53" cy="48.17" r="5.83"/><circle class="cls-2" cx="18.87" cy="66.17" r="5.83"/><circle class="cls-2" cx="36.43" cy="66.17" r="5.83"/><circle class="cls-2" cx="53.98" cy="66.17" r="5.83"/><circle class="cls-2" cx="71.53" cy="66.17" r="5.83"/><g class="cls-3"><circle class="cls-4" cx="18.87" cy="12.17" r="5.83"/><circle class="cls-4" cx="36.43" cy="12.17" r="5.83"/><circle class="cls-5" cx="53.98" cy="12.17" r="5.83"/><circle class="cls-4" cx="71.53" cy="12.17" r="5.83"/><circle class="cls-4" cx="18.87" cy="30.17" r="5.83"/><circle class="cls-5" cx="36.43" cy="30.17" r="5.83"/><circle class="cls-6" cx="53.98" cy="30.17" r="5.83"/><circle class="cls-7" cx="71.53" cy="30.17" r="5.83"/><circle class="cls-4" cx="18.87" cy="48.17" r="5.83"/><circle class="cls-4" cx="36.43" cy="48.17" r="5.83"/><circle class="cls-7" cx="53.98" cy="48.17" r="5.83"/><circle class="cls-4" cx="71.53" cy="48.17" r="5.83"/><circle class="cls-4" cx="18.87" cy="66.17" r="5.83"/><circle class="cls-4" cx="36.43" cy="66.17" r="5.83"/><circle class="cls-7" cx="53.98" cy="66.17" r="5.83"/><circle class="cls-4" cx="71.53" cy="66.17" r="5.83"/></g><path class="cls-8" d="M54,66.17v-30a6,6,0,0,1,6-6H71.53"/><path class="cls-8" d="M54.2,11.5v13a6,6,0,0,1-6,6H36.64"/><path class="cls-8" d="M143.23,66.17v-30a6,6,0,0,1,6-6h11.55"/><path class="cls-8" d="M143.45,11.5v13a6,6,0,0,1-6,6H125.89"/><circle class="cls-2" cx="108.12" cy="12.17" r="5.83"/><circle class="cls-2" cx="125.68" cy="12.17" r="5.83"/><circle class="cls-2" cx="143.23" cy="12.17" r="5.83"/><circle class="cls-2" cx="160.78" cy="12.17" r="5.83"/><circle class="cls-2" cx="108.12" cy="30.17" r="5.83"/><circle class="cls-2" cx="125.68" cy="30.17" r="5.83"/><circle class="cls-2" cx="143.23" cy="30.17" r="5.83"/><circle class="cls-2" cx="160.78" cy="30.17" r="5.83"/><circle class="cls-2" cx="108.12" cy="48.17" r="5.83"/><circle class="cls-2" cx="125.68" cy="48.17" r="5.83"/><circle class="cls-2" cx="143.23" cy="48.17" r="5.83"/><circle class="cls-2" cx="160.78" cy="48.17" r="5.83"/><circle class="cls-2" cx="108.12" cy="66.17" r="5.83"/><circle class="cls-2" cx="125.68" cy="66.17" r="5.83"/><circle class="cls-2" cx="143.23" cy="66.17" r="5.83"/><circle class="cls-2" cx="160.78" cy="66.17" r="5.83"/><g class="cls-3"><circle class="cls-4" cx="108.25" cy="12.17" r="5.83"/><circle class="cls-4" cx="125.8" cy="12.17" r="5.83"/><circle class="cls-5" cx="143.35" cy="12.17" r="5.83"/><circle class="cls-4" cx="160.9" cy="12.17" r="5.83"/><circle class="cls-4" cx="108.25" cy="30.17" r="5.83"/><circle class="cls-5" cx="125.8" cy="30.17" r="5.83"/><circle class="cls-6" cx="143.35" cy="30.17" r="5.83"/><circle class="cls-7" cx="160.9" cy="30.17" r="5.83"/><circle class="cls-4" cx="108.25" cy="48.17" r="5.83"/><circle class="cls-4" cx="125.8" cy="48.17" r="5.83"/><circle class="cls-7" cx="143.35" cy="48.17" r="5.83"/><circle class="cls-4" cx="160.9" cy="48.17" r="5.83"/><circle class="cls-4" cx="108.25" cy="66.17" r="5.83"/><circle class="cls-4" cx="125.8" cy="66.17" r="5.83"/><circle class="cls-7" cx="143.35" cy="66.17" r="5.83"/><circle class="cls-4" cx="160.9" cy="66.17" r="5.83"/></g></svg>