<svg id="Layer_1" data-name="Layer 1" xmlns="http://www.w3.org/2000/svg" viewBox="0 0 795.97746 143.02764">
  <defs>
    <style>
      .cls-1 {
        fill: #e7ebe8;
      }

      .cls-2 {
        fill: #fff;
      }

      .cls-3, .cls-8 {
        fill: #ef4136;
      }

      .cls-3, .cls-9 {
        opacity: 0.5;
      }

      .cls-4 {
        fill: #010101;
      }

      .cls-5 {
        fill: #58595b;
      }

      .cls-6 {
        fill: #b2b3c3;
      }

      .cls-7, .cls-9 {
        fill: #70a8da;
      }

      .cls-8 {
        opacity: 0.48;
      }

      .cls-10 {
        font-size: 15.2726px;
        font-family: ArialMT, Arial;
      }

      .cls-10, .cls-12 {
        fill: #6d6e71;
      }

      .cls-11 {
        letter-spacing: -0.0181em;
      }
    </style>
  </defs>
  <title>off-policy-value</title>
  <rect class="cls-1" x="713.68838" y="61.48076" width="79.83102" height="79.83102"/>
  <circle class="cls-2" cx="754.45052" cy="102.39331" r="25.28539"/>
  <circle class="cls-3" cx="754.44834" cy="102.42349" r="25.28539"/>
  <g>
    <path id="MJMATHI-56" class="cls-4" d="M713.10728,21.621a1.201,1.201,0,0,1,.3301-.88875h.27933q1.06648.07618,2.66624.07618,2.99635,0,3.5296-.07618h.25393q.15236.15235.15236.22853t-.05079.45708a1.39887,1.39887,0,0,1-.22853.48246h-.53325q-.55864.05079-.76179.05078-.73639.127-.81257.3809,0,.05077.73639,6.37359t.76179,6.3736l1.85367-2.971q1.85368-2.971,3.70735-5.9927t1.90447-3.12332a.75532.75532,0,0,0,.10157-.38089q0-.60943-1.11729-.711-.45707,0-.45707-.27932,0-.02539.05079-.33011a1.3665,1.3665,0,0,1,.15235-.45707.40316.40316,0,0,1,.33011-.10157h.30472q.25392,0,.86335.02539t1.62514.0254q1.75211,0,2.20918-.05079h.17775q.17775.17775.17775.27932a1.55316,1.55316,0,0,1-.22854.81257.72657.72657,0,0,1-.43168.07618q-.33011.02539-.60943.05078a1.888,1.888,0,0,0-.53324.127q-.25393.10156-.40629.17775A1.58973,1.58973,0,0,0,728.8,22.459a1.42065,1.42065,0,0,1-.25393.17775.55188.55188,0,0,0-.20314.22854q-.10158.17775-.17775.17775l-4.90082,7.87177q-4.5707,7.3893-4.72306,7.56706-.07619.05078-.17775.127l-.45707.02539h-.17775q-.45706,0-.45707-.17775-.07619-.15236-.99032-8.1257-.96493-8.07491-.99032-8.15109-.127-.27932-1.57435-.27932H713.285A.35177.35177,0,0,1,713.10728,21.621Z"/>
    <g>
      <path id="MJMATHI-3C0" class="cls-4" d="M735.10568,27.81117a.53172.53172,0,0,1-.61039-.59244v-.19748l.23338-.50267a34.78741,34.78741,0,0,0,1.95685-4.9011l.14362-.43086h-.57448a5.98471,5.98471,0,0,0-.96945.05386,1.94209,1.94209,0,0,0-.70016.3411,2.34523,2.34523,0,0,0-.395.32315,4.62724,4.62724,0,0,0-.3411.377,2.21109,2.21109,0,0,0-.16157.21544,1.02361,1.02361,0,0,1-.26929.01795q-.3411,0-.34111-.17953a2.16762,2.16762,0,0,1,.34111-.62834,6.10451,6.10451,0,0,1,.9874-1.11307,2.44066,2.44066,0,0,1,1.27464-.6822q.12567-.03591,4.03936-.03591,2.87244,0,2.94425.018a.49014.49014,0,0,1,.35905.50268.74978.74978,0,0,1-.57449.754,9.73512,9.73512,0,0,1-1.23873.03591h-1.149l-.05386.30519a13.47534,13.47534,0,0,0-.21543,2.13638,7.82208,7.82208,0,0,0,.16158,1.6696,6.48568,6.48568,0,0,0,.3411,1.149,2.09372,2.09372,0,0,1,.17953.50267.832.832,0,0,1-.25134.57449.84442.84442,0,0,1-.6463.26929.82726.82726,0,0,1-.32315-.05386q-.12567-.05385-.28724-.43086a5.18589,5.18589,0,0,1-.28725-1.07717q-.018-.16157-.018-.78992a11.915,11.915,0,0,1,.16157-1.885q.16158-1.00536.32315-1.65165l.17953-.71811H737.5652l-.018.07181q0,.05385-.3411,1.41826t-.772,2.89039a13.37908,13.37908,0,0,1-.55653,1.74142A.75487.75487,0,0,1,735.10568,27.81117Z"/>
      <path id="MJMAIN-32" class="cls-4" d="M744.35314,24.87127a.694.694,0,0,1-.546-.22854.81088.81088,0,0,1-.20314-.55864,2.11537,2.11537,0,0,1,.67291-1.56166,2.29767,2.29767,0,0,1,1.67592-.66021,2.74556,2.74556,0,0,1,1.92986.711,2.424,2.424,0,0,1,.78717,1.841,2.25157,2.25157,0,0,1-.25392,1.0411,3.593,3.593,0,0,1-.60943.86336q-.3555.36819-1.01571.93953-.45708.3936-1.26965,1.16807l-.74908.711.96492.0127a15.24117,15.24117,0,0,0,2.1203-.06348,3.4421,3.4421,0,0,0,.30472-1.13v-.03808h.50785v.03808q-.01269.0381-.165,1.15538a9.47439,9.47439,0,0,1-.19045,1.16807V30.318h-4.71036v-.39359a.324.324,0,0,1,.07618-.19045q.07617-.10156.38089-.44437.36819-.40629.63482-.711.11427-.127.43168-.46977t.43167-.46977q.11427-.127.3682-.419t.3555-.43167q.10156-.13967.292-.3809a2.1671,2.1671,0,0,0,.26662-.40628q.07619-.16506.19045-.3682a1.64106,1.64106,0,0,0,.16505-.40628q.05079-.20314.08888-.38089a2.02168,2.02168,0,0,0,.03808-.419,2.26385,2.26385,0,0,0-.43167-1.3839,1.43974,1.43974,0,0,0-1.23155-.584,1.278,1.278,0,0,0-.7364.21584,1.52942,1.52942,0,0,0-.44437.419.90489.90489,0,0,0-.127.24123q0,.0127.06348.0127a.79593.79593,0,0,1,.46976.17775.67728.67728,0,0,1,.24124.584.7484.7484,0,0,1-.20315.53325A.786.786,0,0,1,744.35314,24.87127Z"/>
    </g>
    <path id="MJMAIN-28" class="cls-4" d="M756.04653,31.72733a20.88651,20.88651,0,0,1,.25392-3.32646,23.27334,23.27334,0,0,1,.584-2.717,10.63308,10.63308,0,0,1,.93953-2.23457q.60944-1.09189.96493-1.70132a6.74459,6.74459,0,0,1,1.0665-1.32042q.711-.711.838-.86336a4.57646,4.57646,0,0,1,.63482-.53325h.43168q.3555,0,.3555.22854a2.05192,2.05192,0,0,1-.43168.53325,11.52865,11.52865,0,0,0-1.0411,1.34581,17.56678,17.56678,0,0,0-1.24425,2.18379,14.44551,14.44551,0,0,0-1.0665,3.5042,25.6285,25.6285,0,0,0-.43168,4.90082,25.22993,25.22993,0,0,0,.43168,4.87542,16.49149,16.49149,0,0,0,1.0411,3.5296,11.50065,11.50065,0,0,0,1.24425,2.18378q.63483.838,1.0665,1.34582a5.73481,5.73481,0,0,1,.43168.53325q0,.22854-.38089.22853h-.40629l-.711-.60942a12.53109,12.53109,0,0,1-3.47881-5.38328A20.76108,20.76108,0,0,1,756.04653,31.72733Z"/>
    <path id="MJMATHI-73" class="cls-4" d="M766.88926,30.737a3.7631,3.7631,0,0,1,.40628-1.65053,4.17756,4.17756,0,0,1,1.422-1.549,4.05719,4.05719,0,0,1,2.4631-.6856,3.20819,3.20819,0,0,1,2.28536.6856,2.17557,2.17557,0,0,1,.73639,1.52357,1.5122,1.5122,0,0,1-.43168,1.19346,1.53844,1.53844,0,0,1-.96493.40629,1.01421,1.01421,0,0,1-.60942-.20314.82153.82153,0,0,1-.30472-.66022,1.15224,1.15224,0,0,1,.22854-.711,2.281,2.281,0,0,1,.43168-.45708.61447.61447,0,0,1,.3301-.15235.02245.02245,0,0,0,.02539-.0254q0-.07617-.17774-.22853a1.73445,1.73445,0,0,0-.63483-.27932,4.49318,4.49318,0,0,0-.99032-.15236,2.1478,2.1478,0,0,0-2.36153,2.006.918.918,0,0,0,.48247.88875,5.266,5.266,0,0,0,1.3966.43168,5.56454,5.56454,0,0,1,1.32043.38089,2.50957,2.50957,0,0,1,1.67592,2.43771,3.864,3.864,0,0,1-.27932,1.422,5.67987,5.67987,0,0,1-.838,1.422,3.67334,3.67334,0,0,1-1.59975,1.11728,6.895,6.895,0,0,1-2.38692.43168,4.10736,4.10736,0,0,1-2.76782-.73639,2.34931,2.34931,0,0,1-.838-1.72671,1.72692,1.72692,0,0,1,.53325-1.422,1.75331,1.75331,0,0,1,1.11728-.43168,1.22518,1.22518,0,0,1,.711.22854.94533.94533,0,0,1,.3555.78717,1.51983,1.51983,0,0,1-.45707,1.11729,1.2506,1.2506,0,0,1-.78718.45707.19486.19486,0,0,1-.07618.02539q-.0254,0-.02539.05079a.54883.54883,0,0,0,.20314.20314,3.54529,3.54529,0,0,0,.78718.33011,4.99425,4.99425,0,0,0,2.971-.10158,2.18152,2.18152,0,0,0,.96493-.711,3.371,3.371,0,0,0,.43167-.78718,1.91514,1.91514,0,0,0,.127-.63482,1.19627,1.19627,0,0,0-.53325-1.0665,2.69936,2.69936,0,0,0-1.21886-.43168,6.28421,6.28421,0,0,1-1.49817-.38089,2.34982,2.34982,0,0,1-1.19346-.88875A2.55591,2.55591,0,0,1,766.88926,30.737Z"/>
    <path id="MJMAIN-29" class="cls-4" d="M776.9956,19.05631l.10157-.02539h.55864l.711.60943a12.53123,12.53123,0,0,1,3.47882,5.38327,20.76146,20.76146,0,0,1,1.09189,6.70371,21.19907,21.19907,0,0,1-.25393,3.32646,21.83386,21.83386,0,0,1-.584,2.717,11.43733,11.43733,0,0,1-.93953,2.23457q-.60944,1.11727-.96493,1.70131a7.7243,7.7243,0,0,1-1.0411,1.295q-.68561.711-.81257.838t-.584.48246l-.10157.10157h-.584a.14923.14923,0,0,1-.127-.07617.598.598,0,0,1-.07618-.22854q.0254-.0254.27932-.33011,3.93589-4.08823,3.93589-12.06158T777.148,19.66574q-.25392-.30471-.27932-.33011A.29847.29847,0,0,1,776.9956,19.05631Z"/>
  </g>
  <g>
    <path id="MJMATHI-3C0-2" data-name="MJMATHI-3C0" class="cls-4" d="M303.3365,38.48751a.87027.87027,0,0,1-.999-.96964v-.32321l.382-.82273a56.93578,56.93578,0,0,0,3.20275-8.02158l.23507-.70519H305.217a9.7958,9.7958,0,0,0-1.58669.08815,3.179,3.179,0,0,0-1.14593.55828,3.838,3.838,0,0,0-.64643.52889,7.571,7.571,0,0,0-.55828.617,3.62071,3.62071,0,0,0-.26445.35259,1.67509,1.67509,0,0,1-.44074.02939q-.55829,0-.55828-.29383a3.5473,3.5473,0,0,1,.55828-1.02841,9.99178,9.99178,0,0,1,1.61606-1.82175,3.9948,3.9948,0,0,1,2.0862-1.11656q.20568-.05875,6.61119-.05876,4.7013,0,4.81883.02938a.80221.80221,0,0,1,.58766.82273,1.22717,1.22717,0,0,1-.94026,1.23408,15.93449,15.93449,0,0,1-2.02743.05877h-1.88052l-.08815.49951a22.055,22.055,0,0,0-.35259,3.49659,12.80261,12.80261,0,0,0,.26444,2.73262,10.61622,10.61622,0,0,0,.55828,1.88052,3.42608,3.42608,0,0,1,.29383.82273,1.36171,1.36171,0,0,1-.41136.94025,1.382,1.382,0,0,1-1.05779.44075,1.354,1.354,0,0,1-.5289-.08815q-.20568-.08814-.47013-.70519a8.48865,8.48865,0,0,1-.47012-1.763q-.02938-.26443-.02939-1.29285a19.49974,19.49974,0,0,1,.26445-3.08522q.26445-1.64545.52889-2.70325l.29384-1.17532H307.362l-.02938.11753q0,.08816-.55828,2.32127t-1.26347,4.73067A21.89792,21.89792,0,0,1,304.6,37.66479,1.23549,1.23549,0,0,1,303.3365,38.48751Z"/>
    <path id="MJMAIN-32-2" data-name="MJMAIN-32" class="cls-4" d="M318.466,33.67715a1.13544,1.13544,0,0,1-.89327-.37393,1.32678,1.32678,0,0,1-.33238-.91405,3.46115,3.46115,0,0,1,1.101-2.55518,3.75947,3.75947,0,0,1,2.74215-1.08024,4.49225,4.49225,0,0,1,3.15762,1.16334,3.96613,3.96613,0,0,1,1.288,3.0122,3.68392,3.68392,0,0,1-.41548,1.70346,5.87867,5.87867,0,0,1-.99714,1.41262q-.58167.60245-1.66191,1.53726-.74785.644-2.07738,1.9112l-1.22566,1.16333,1.57881.02077a24.93592,24.93592,0,0,0,3.46923-.10387,5.63118,5.63118,0,0,0,.49857-1.84887v-.06232h.831v.06232q-.02078.06233-.27006,1.89042a15.504,15.504,0,0,1-.31161,1.91119v.06233h-7.70709v-.644a.53019.53019,0,0,1,.12464-.31161q.12465-.16619.62322-.72708.60243-.66477,1.03869-1.16334.187-.20774.70631-.76863t.70631-.76863q.187-.20773.60244-.68554t.58167-.70631q.16618-.22851.47779-.62321a3.54626,3.54626,0,0,0,.43626-.66477q.12464-.27006.3116-.60244a2.68453,2.68453,0,0,0,.27006-.66476q.0831-.33239.14542-.62322a3.30706,3.30706,0,0,0,.06232-.68553,3.70417,3.70417,0,0,0-.70631-2.26435,2.35569,2.35569,0,0,0-2.01506-.9556,2.091,2.091,0,0,0-1.20488.35316,2.50251,2.50251,0,0,0-.72709.68554,1.4804,1.4804,0,0,0-.20774.3947q0,.02078.10387.02077a1.30233,1.30233,0,0,1,.76864.29084,1.10819,1.10819,0,0,1,.3947.95559,1.22457,1.22457,0,0,1-.33238.8725A1.28611,1.28611,0,0,1,318.466,33.67715Z"/>
    <path id="MJMAIN-28-2" data-name="MJMAIN-28" class="cls-4" d="M332.30821,30.81853a24.16868,24.16868,0,0,1,.29383-3.84918,26.9308,26.9308,0,0,1,.67581-3.144,12.30431,12.30431,0,0,1,1.08718-2.58571q.70519-1.26346,1.11655-1.96866a7.80421,7.80421,0,0,1,1.23409-1.52792q.82274-.82274.96964-.999a5.29651,5.29651,0,0,1,.73458-.617h.49951q.41136,0,.41137.26444a2.37427,2.37427,0,0,1-.49952.617,13.34052,13.34052,0,0,0-1.2047,1.5573,20.32758,20.32758,0,0,0-1.43977,2.52695,16.71609,16.71609,0,0,0-1.23409,4.05486,29.656,29.656,0,0,0-.49951,5.67093,29.19477,29.19477,0,0,0,.49951,5.64155,19.083,19.083,0,0,0,1.2047,4.08425,13.30759,13.30759,0,0,0,1.43977,2.52694q.73458.96964,1.23409,1.55731a6.63755,6.63755,0,0,1,.49952.617q0,.26445-.44075.26445h-.47013l-.82273-.7052a14.50031,14.50031,0,0,1-4.02548-6.22921A24.02369,24.02369,0,0,1,332.30821,30.81853Z"/>
    <path id="MJMATHI-73-2" data-name="MJMATHI-73" class="cls-4" d="M344.8254,29.67259a4.35438,4.35438,0,0,1,.47013-1.9099,4.834,4.834,0,0,1,1.64545-1.79236,4.69472,4.69472,0,0,1,2.85016-.79335,3.71226,3.71226,0,0,1,2.64447.79335,2.51736,2.51736,0,0,1,.85211,1.763,1.74985,1.74985,0,0,1-.49951,1.381,1.78018,1.78018,0,0,1-1.11656.47013,1.17363,1.17363,0,0,1-.70519-.23506.95062.95062,0,0,1-.3526-.764,1.33336,1.33336,0,0,1,.26445-.82273,2.63965,2.63965,0,0,1,.49951-.52889.71112.71112,0,0,1,.382-.1763.026.026,0,0,0,.02939-.02938q0-.08816-.20568-.26445a2.00722,2.00722,0,0,0-.73458-.32322,5.19878,5.19878,0,0,0-1.14594-.17629,2.4853,2.4853,0,0,0-2.73263,2.32126,1.06223,1.06223,0,0,0,.55828,1.02841,6.09416,6.09416,0,0,0,1.61607.49951,6.439,6.439,0,0,1,1.52792.44074,2.90393,2.90393,0,0,1,1.93928,2.82078,4.4712,4.4712,0,0,1-.32321,1.64545,6.57261,6.57261,0,0,1-.96964,1.64545,4.25059,4.25059,0,0,1-1.85114,1.29286,7.97851,7.97851,0,0,1-2.762.49951,4.75284,4.75284,0,0,1-3.20276-.85211,2.71846,2.71846,0,0,1-.96964-1.998,1.99831,1.99831,0,0,1,.617-1.64545,2.02889,2.02889,0,0,1,1.29286-.49951,1.41775,1.41775,0,0,1,.82273.26445,1.09388,1.09388,0,0,1,.41136.91087,1.75863,1.75863,0,0,1-.5289,1.29286,1.44708,1.44708,0,0,1-.91087.52889.22548.22548,0,0,1-.08815.02938q-.02938,0-.02938.05877a.635.635,0,0,0,.23506.23507,4.1025,4.1025,0,0,0,.91088.382,5.77909,5.77909,0,0,0,3.43781-.11754,2.52415,2.52415,0,0,0,1.11656-.82272,3.90044,3.90044,0,0,0,.49951-.91088,2.2161,2.2161,0,0,0,.14692-.73457,1.38424,1.38424,0,0,0-.61705-1.23409,3.12339,3.12339,0,0,0-1.41038-.49952,7.27172,7.27172,0,0,1-1.7336-.44074,2.71924,2.71924,0,0,1-1.381-1.02841A2.9576,2.9576,0,0,1,344.8254,29.67259Z"/>
    <path id="MJMAIN-2C" class="cls-4" d="M357.07814,37.13589v-.73457a1.83747,1.83747,0,0,1,.47013-1.26348,1.606,1.606,0,0,1,1.26347-.52889,1.9207,1.9207,0,0,1,1.46915.73458,4.05639,4.05639,0,0,1,.67582,2.58571,7.55937,7.55937,0,0,1-.26445,1.998,9.13518,9.13518,0,0,1-.617,1.67484,6.37218,6.37218,0,0,1-.764,1.20471q-.41136.4995-.70519.79334t-.382.26445q-.11754,0-.382-.26445t-.26445-.382q0-.11754.32322-.47013t.73457-.88149a5.63912,5.63912,0,0,0,.764-1.46916,8.43963,8.43963,0,0,0,.47013-2.145v-.3526l-.02938.02939a1.14158,1.14158,0,0,1-.14692.05876.74178.74178,0,0,0-.1763.08815.48078.48078,0,0,1-.26444.05877,2.14109,2.14109,0,0,0-.3526.02938,1.74932,1.74932,0,0,1-1.29285-.49951Z"/>
    <path id="MJMATHI-61" class="cls-4" d="M368.83137,33.55116a8.68305,8.68305,0,0,1,2.23311-5.64155,6.57529,6.57529,0,0,1,5.02451-2.70324,3.33109,3.33109,0,0,1,2.64447,1.43977,1.47023,1.47023,0,0,1,1.35162-.8815,1.0513,1.0513,0,0,1,.67581.23507.72358.72358,0,0,1,.29384.58766q0,.382-1.08718,4.70129T378.851,36.16625a1.57194,1.57194,0,0,0,.20569.96964.86314.86314,0,0,0,.617.26445,1.27667,1.27667,0,0,0,.58766-.26445,6.66263,6.66263,0,0,0,1.20471-2.82077q.17629-.58767.29383-.617a.85945.85945,0,0,1,.29383-.02938h.11753q.55828,0,.55828.26445a4.66632,4.66632,0,0,1-.14692.79334,9.218,9.218,0,0,1-.58766,1.58669,5.0061,5.0061,0,0,1-.94025,1.46915,2.90557,2.90557,0,0,1-.94026.617,3.13241,3.13241,0,0,1-.7052.05877,3.00328,3.00328,0,0,1-1.67483-.44075,2.25576,2.25576,0,0,1-.88149-.91087l-.1763-.44075q-.02938-.02938-.11753.02939l-.11754.11753a5.15153,5.15153,0,0,1-3.526,1.64545,4.01,4.01,0,0,1-2.85015-1.17532A4.95124,4.95124,0,0,1,368.83137,33.55116Zm9.34381-5.02451a2.65993,2.65993,0,0,0-.14691-.64642,2.79345,2.79345,0,0,0-.67581-1.02841,1.87817,1.87817,0,0,0-1.35162-.58766,2.8197,2.8197,0,0,0-1.96867.91087,6.148,6.148,0,0,0-1.46915,2.38,23.45836,23.45836,0,0,0-1.20471,4.81882v.32322a1.56613,1.56613,0,0,1-.02938.35259,2.46769,2.46769,0,0,0,.52889,1.82175,1.89238,1.89238,0,0,0,1.26348.5289,3.31793,3.31793,0,0,0,2.20373-.96964,4.94079,4.94079,0,0,0,1.29285-1.49854q.05877-.11753.79334-3.144T378.17518,28.52665Z"/>
    <path id="MJMAIN-29-2" data-name="MJMAIN-29" class="cls-4" d="M385.19774,16.15638l.11753-.02938h.64643l.82272.70519a14.50022,14.50022,0,0,1,4.02548,6.22921,24.02352,24.02352,0,0,1,1.26348,7.75713,24.53029,24.53029,0,0,1-.29383,3.84918,25.26421,25.26421,0,0,1-.67581,3.144,13.23417,13.23417,0,0,1-1.08718,2.58571q-.7052,1.29286-1.11656,1.96867a8.93859,8.93859,0,0,1-1.2047,1.49854q-.79335.82272-.94026.96964t-.67581.55828l-.11753.11753h-.67581a.17268.17268,0,0,1-.14692-.08815.69174.69174,0,0,1-.08815-.26445q.02938-.02939.32322-.382,4.55437-4.73067,4.55437-13.957t-4.55437-13.957q-.29383-.35259-.32322-.382A.34534.34534,0,0,1,385.19774,16.15638Z"/>
  </g>
  <g>
    <path id="MJMATHI-51" class="cls-4" d="M498.72606,39.71165q0-.8679.0263-1.315a2.59762,2.59762,0,0,1,.0526-.4997v-.1052l-.3945.1052a9.56764,9.56764,0,0,1-2.2092.2893,6.45411,6.45411,0,0,1-6.6276-5.8649q-.0263-.21041-.0263-1.1309a10.88014,10.88014,0,0,1,1.2624-5.1022,14.73008,14.73008,0,0,1,3.3927-4.2869,10.25816,10.25816,0,0,1,6.5487-2.7089q.99941,0,1.2624.0263a6.26135,6.26135,0,0,1,4.1028,2.2618,7.41508,7.41508,0,0,1,1.578,4.7866,11.96646,11.96646,0,0,1-3.8924,8.6264,12.61352,12.61352,0,0,1-3.4453,2.3933l-.4471.2104v.1315q0,.0263.1315.7101a2.06973,2.06973,0,0,0,.5523,1.1046,1.6375,1.6375,0,0,0,1.2098.4208,3.064,3.064,0,0,0,1.7621-.5786,2.67577,2.67577,0,0,0,1.1046-1.4991q.1578-.3682.3419-.3682a.2705.2705,0,0,1,.2893.2367,3.93359,3.93359,0,0,1-.263.9468q-.263.7364-.7364,1.7358a4.56574,4.56574,0,0,1-1.4202,1.7095,3.58909,3.58909,0,0,1-1.9988.7627q-2.15659,0-2.1566-2.8141Zm6.2331-14.4124a7.34135,7.34135,0,0,0-.3945-2.5248,3.45713,3.45713,0,0,0-1.0783-1.6043,5.92911,5.92911,0,0,0-1.315-.789,3.58966,3.58966,0,0,0-1.3939-.263,5.7375,5.7375,0,0,0-2.5774.6575,9.46889,9.46889,0,0,0-4.3132,4.6288,14.81016,14.81016,0,0,0-1.6306,6.5224,5.43178,5.43178,0,0,0,1.4202,4.1291,2.47018,2.47018,0,0,0,.7627.5523v-.2104a2.75076,2.75076,0,0,1,.8679-1.9462,2.859,2.859,0,0,1,2.0514-.9205,2.12708,2.12708,0,0,1,1.1309.2893,1.81849,1.81849,0,0,1,.7101.789,4.33,4.33,0,0,1,.3156.8416q.0789.3419.1578.7101l.3419-.2367a9.74018,9.74018,0,0,0,2.8667-3.1823,14.35838,14.35838,0,0,0,1.6306-3.9187A15.39417,15.39417,0,0,0,504.95916,25.29925Zm-8.4686,11.835a5.22025,5.22025,0,0,0,2.367-.5523l-.0263-.263q-.1052-1.44651-.9731-1.7358a3.21936,3.21936,0,0,0-.4997-.0526h-.1578a.15231.15231,0,0,1-.1052-.0263,1.6018,1.6018,0,0,0-1.0783.526,1.72346,1.72346,0,0,0-.5786,1.2098Q495.43856,37.13425,496.49056,37.13425Z"/>
    <g>
      <path id="MJMATHI-3C0-3" data-name="MJMATHI-3C0" class="cls-4" d="M511.49008,26.97658a.55073.55073,0,0,1-.6322-.61361v-.20453l.24173-.52064a36.03023,36.03023,0,0,0,2.02675-5.07618l.14876-.44626h-.595a6.19922,6.19922,0,0,0-1.00409.05578,2.01169,2.01169,0,0,0-.72517.35329,2.429,2.429,0,0,0-.40907.33469,4.79146,4.79146,0,0,0-.35328.39048,2.29032,2.29032,0,0,0-.16735.22313,1.06054,1.06054,0,0,1-.27891.01859q-.35329,0-.35329-.18594a2.24472,2.24472,0,0,1,.35329-.65079,6.32252,6.32252,0,0,1,1.02267-1.15284,2.52792,2.52792,0,0,1,1.32018-.70657q.13017-.0372,4.18368-.03719,2.97505,0,3.04943.01859a.50765.50765,0,0,1,.37188.52064.77659.77659,0,0,1-.595.781,10.08459,10.08459,0,0,1-1.283.03719h-1.19l-.05578.3161a13.95668,13.95668,0,0,0-.22313,2.21269,8.10216,8.10216,0,0,0,.16735,1.72926,6.71807,6.71807,0,0,0,.35329,1.19,2.16827,2.16827,0,0,1,.18594.52063.86168.86168,0,0,1-.26032.595.87456.87456,0,0,1-.66939.27892.85683.85683,0,0,1-.33469-.05579q-.13016-.05577-.29751-.44625a5.37151,5.37151,0,0,1-.2975-1.11565q-.0186-.16736-.01859-.81814a12.34042,12.34042,0,0,1,.16734-1.95238q.16736-1.04127.3347-1.71066l.18594-.74376h-1.82223l-.01859.07437q0,.05578-.35329,1.46894t-.79954,2.99365a13.85845,13.85845,0,0,1-.57642,1.80363A.78183.78183,0,0,1,511.49008,26.97658Z"/>
      <path id="MJMAIN-32-3" data-name="MJMAIN-32" class="cls-4" d="M521.06791,23.93165a.71875.71875,0,0,1-.56545-.2367.83991.83991,0,0,1-.2104-.5786,2.19093,2.19093,0,0,1,.697-1.61745,2.37977,2.37977,0,0,1,1.7358-.6838,2.8436,2.8436,0,0,1,1.9988.7364,2.51054,2.51054,0,0,1,.8153,1.90675,2.33192,2.33192,0,0,1-.263,1.0783,3.7211,3.7211,0,0,1-.6312.8942q-.36819.38134-1.052.9731-.4734.40764-1.315,1.2098l-.77585.7364.9994.01315a15.78572,15.78572,0,0,0,2.19605-.06575,3.56478,3.56478,0,0,0,.3156-1.17035v-.03945h.526v.03945q-.01314.03945-.17095,1.19665a9.81552,9.81552,0,0,1-.19725,1.2098V29.573h-4.87865v-.40765a.33559.33559,0,0,1,.0789-.19725q.0789-.10521.3945-.46025.38136-.42081.6575-.7364.11835-.13151.4471-.48655t.4471-.48655q.11835-.1315.38135-.43395t.3682-.4471q.10521-.14466.30245-.3945a2.24485,2.24485,0,0,0,.27615-.4208q.0789-.171.19725-.38135a1.69958,1.69958,0,0,0,.17095-.4208q.05261-.21041.092-.3945a2.09364,2.09364,0,0,0,.03945-.43395,2.34471,2.34471,0,0,0-.4471-1.43335,1.49115,1.49115,0,0,0-1.27555-.6049,1.32359,1.32359,0,0,0-.7627.22355,1.58414,1.58414,0,0,0-.46025.43395.93726.93726,0,0,0-.1315.24985q0,.01314.06575.01315a.82431.82431,0,0,1,.48655.1841.70147.70147,0,0,1,.24985.6049.77516.77516,0,0,1-.2104.5523A.81411.81411,0,0,1,521.06791,23.93165Z"/>
    </g>
    <path id="MJMAIN-28-3" data-name="MJMAIN-28" class="cls-4" d="M533.17906,31.03265a21.63234,21.63234,0,0,1,.263-3.4453,24.10585,24.10585,0,0,1,.6049-2.8141,11.01309,11.01309,0,0,1,.9731-2.3144q.6312-1.13091.9994-1.7621a6.98554,6.98554,0,0,1,1.1046-1.3676q.7364-.73641.8679-.8942a4.73987,4.73987,0,0,1,.6575-.5523h.4471q.36821,0,.3682.2367a2.125,2.125,0,0,1-.4471.5523,11.93957,11.93957,0,0,0-1.0783,1.3939,18.196,18.196,0,0,0-1.2887,2.2618,14.96255,14.96255,0,0,0-1.1046,3.6294,26.54491,26.54491,0,0,0-.4471,5.0759,26.13219,26.13219,0,0,0,.4471,5.0496,17.081,17.081,0,0,0,1.0783,3.6557,11.91144,11.91144,0,0,0,1.2887,2.2618q.6575.8679,1.1046,1.3939a5.938,5.938,0,0,1,.4471.5523q0,.2367-.3945.2367h-.4208l-.7364-.6312a12.979,12.979,0,0,1-3.6031-5.5756A21.50306,21.50306,0,0,1,533.17906,31.03265Z"/>
    <path id="MJMATHI-73-3" data-name="MJMATHI-73" class="cls-4" d="M544.40916,30.007a3.89753,3.89753,0,0,1,.4208-1.7095,4.32686,4.32686,0,0,1,1.4728-1.6043,4.20208,4.20208,0,0,1,2.5511-.7101,3.32277,3.32277,0,0,1,2.367.7101,2.25329,2.25329,0,0,1,.7627,1.578,1.56626,1.56626,0,0,1-.4471,1.2361,1.59342,1.59342,0,0,1-.9994.4208,1.05054,1.05054,0,0,1-.6312-.2104.85087.85087,0,0,1-.3156-.6838,1.19343,1.19343,0,0,1,.2367-.7364,2.36254,2.36254,0,0,1,.4471-.4734.63647.63647,0,0,1,.3419-.1578.02325.02325,0,0,0,.0263-.0263q0-.0789-.1841-.2367a1.79629,1.79629,0,0,0-.6575-.2893,4.6531,4.6531,0,0,0-1.0257-.1578,2.22453,2.22453,0,0,0-2.4459,2.0777.95078.95078,0,0,0,.4997.9205,5.45486,5.45486,0,0,0,1.4465.4471,5.763,5.763,0,0,1,1.3676.3945,2.59921,2.59921,0,0,1,1.7358,2.5248,4.00211,4.00211,0,0,1-.2893,1.4728,5.88336,5.88336,0,0,1-.8679,1.4728,3.80467,3.80467,0,0,1-1.6569,1.1572,7.14163,7.14163,0,0,1-2.4722.4471,4.25417,4.25417,0,0,1-2.8667-.7627,2.43328,2.43328,0,0,1-.8679-1.7884,1.78862,1.78862,0,0,1,.5523-1.4728,1.816,1.816,0,0,1,1.1572-.4471,1.269,1.269,0,0,1,.7364.2367.97908.97908,0,0,1,.3682.8153,1.57411,1.57411,0,0,1-.4734,1.1572,1.29523,1.29523,0,0,1-.8153.4734.20184.20184,0,0,1-.0789.0263q-.0263,0-.0263.0526a.56853.56853,0,0,0,.2104.2104,3.67249,3.67249,0,0,0,.8153.3419,5.17277,5.17277,0,0,0,3.0771-.1052,2.25945,2.25945,0,0,0,.9994-.7364,3.49173,3.49173,0,0,0,.4471-.8153,1.98368,1.98368,0,0,0,.1315-.6575,1.239,1.239,0,0,0-.5523-1.1046,2.79568,2.79568,0,0,0-1.2624-.4471,6.509,6.509,0,0,1-1.5517-.3945,2.43394,2.43394,0,0,1-1.2361-.9205A2.64734,2.64734,0,0,1,544.40916,30.007Z"/>
    <path id="MJMAIN-2C-2" data-name="MJMAIN-2C" class="cls-4" d="M555.35,36.68715v-.6575a1.64466,1.64466,0,0,1,.4208-1.1309,1.43751,1.43751,0,0,1,1.1309-.4734,1.71915,1.71915,0,0,1,1.315.6575,3.63075,3.63075,0,0,1,.6049,2.3144,6.76635,6.76635,0,0,1-.2367,1.7884,8.1769,8.1769,0,0,1-.5523,1.4991,5.70356,5.70356,0,0,1-.6838,1.0783q-.36819.44709-.6312.7101t-.3419.2367q-.1052,0-.3419-.2367t-.2367-.3419q0-.10521.2893-.4208t.6575-.789a5.04743,5.04743,0,0,0,.6838-1.315,7.55448,7.55448,0,0,0,.4208-1.9199V37.371l-.0263.0263a1.02148,1.02148,0,0,1-.1315.0526.66356.66356,0,0,0-.1578.0789.43045.43045,0,0,1-.2367.0526,1.91589,1.91589,0,0,0-.3156.0263,1.56583,1.56583,0,0,1-1.1572-.4471Z"/>
    <path id="MJMATHI-61-2" data-name="MJMATHI-61" class="cls-4" d="M565.89626,33.47855a7.772,7.772,0,0,1,1.9988-5.0496,5.88538,5.88538,0,0,1,4.4973-2.4196,2.98156,2.98156,0,0,1,2.367,1.2887,1.316,1.316,0,0,1,1.2098-.789.941.941,0,0,1,.6049.2104.64766.64766,0,0,1,.263.526q0,.34189-.9731,4.208t-.9994,4.3658a1.407,1.407,0,0,0,.1841.8679.77261.77261,0,0,0,.5523.2367,1.14288,1.14288,0,0,0,.526-.2367,5.96369,5.96369,0,0,0,1.0783-2.5248q.1578-.526.263-.5523a.76909.76909,0,0,1,.263-.0263h.1052q.49969,0,.4997.2367a4.1768,4.1768,0,0,1-.1315.7101,8.25115,8.25115,0,0,1-.526,1.4202,4.48058,4.48058,0,0,1-.8416,1.315,2.60064,2.60064,0,0,1-.8416.5523,2.8043,2.8043,0,0,1-.6312.0526,2.68824,2.68824,0,0,1-1.4991-.3945,2.01907,2.01907,0,0,1-.789-.8153l-.1578-.3945q-.0263-.02631-.1052.0263l-.1052.1052a4.611,4.611,0,0,1-3.156,1.4728,3.58932,3.58932,0,0,1-2.5511-1.052A4.43175,4.43175,0,0,1,565.89626,33.47855Zm8.3634-4.4973a2.38065,2.38065,0,0,0-.1315-.5786,2.50043,2.50043,0,0,0-.6049-.9205,1.68111,1.68111,0,0,0-1.2098-.526,2.52383,2.52383,0,0,0-1.7621.8153,5.50306,5.50306,0,0,0-1.315,2.1303,20.99674,20.99674,0,0,0-1.0783,4.3132v.2893a1.40161,1.40161,0,0,1-.0263.3156,2.20876,2.20876,0,0,0,.4734,1.6306,1.69387,1.69387,0,0,0,1.1309.4734,2.96978,2.96978,0,0,0,1.9725-.8679,4.42239,4.42239,0,0,0,1.1572-1.3413q.0526-.10521.7101-2.8141T574.25966,28.98125Z"/>
    <path id="MJMAIN-29-3" data-name="MJMAIN-29" class="cls-4" d="M580.51906,17.909l.1052-.0263h.5786l.7364.6312a12.97868,12.97868,0,0,1,3.6031,5.5756,21.503,21.503,0,0,1,1.1309,6.9432,21.95618,21.95618,0,0,1-.263,3.4453,22.61258,22.61258,0,0,1-.6049,2.8141,11.84549,11.84549,0,0,1-.9731,2.3144q-.6312,1.15719-.9994,1.7621a8.00056,8.00056,0,0,1-1.0783,1.3413q-.7101.7364-.8416.8679t-.6049.4997l-.1052.1052h-.6049a.15455.15455,0,0,1-.1315-.0789.61936.61936,0,0,1-.0789-.2367q.02631-.02631.2893-.3419,4.0765-4.2343,4.0765-12.4925t-4.0765-12.4925q-.263-.3156-.2893-.3419A.30912.30912,0,0,1,580.51906,17.909Z"/>
  </g>
  <rect class="cls-1" x="302.71336" y="61.3672" width="79.83102" height="79.83102"/>
  <polygon class="cls-2" points="313.22 101.281 321.486 117.877 321.486 84.685 313.22 101.281"/>
  <polygon class="cls-5" points="342.549 130.898 359.145 122.632 325.952 122.632 342.549 130.898"/>
  <polygon class="cls-6" points="372.037 101.299 363.771 84.703 363.771 117.896 372.037 101.299"/>
  <polygon class="cls-6" points="342.549 71.839 325.952 80.105 359.145 80.105 342.549 71.839"/>
  <path id="MJSZ2-2211" class="cls-4" d="M219.04226,4.57167q.11391-.07593,22.971-.07594h22.85711l2.20218,5.12577q2.24014,5.23967,2.392,5.54341h-1.51875l-.26578-.53156a12.82785,12.82785,0,0,0-2.12624-2.96155,15.93714,15.93714,0,0,0-4.21451-2.92358,20.78978,20.78978,0,0,0-5.35358-1.63265,44.16728,44.16728,0,0,0-5.73326-.64547q-2.69577-.11391-6.94826-.15187H226.29427l.30375.41765Q244.17748,30.77,244.25342,30.99782a.3423.3423,0,0,1,0,.22782q-.11391.1139-10.02371,11.46652L224.206,54.08274q0,.038,8.01138.038h5.35357q3.37921,0,4.86.038,5.16372,0,8.35309-.18985a48.7731,48.7731,0,0,0,6.34076-.79734,17.48524,17.48524,0,0,0,5.35357-1.86046,14.23855,14.23855,0,0,0,3.91077-3.30327,12.03225,12.03225,0,0,0,1.55671-2.73374h1.51875q0,.038-.26578.79734t-.94922,2.468q-.68343,1.70859-1.177,3.18937l-2.20218,5.88513-22.81914.038q-22.8571,0-22.971-.07594a.32255.32255,0,0,1-.22781-.34171.58275.58275,0,0,1,.07594-.22782l20.23727-23.16085q0-.038-1.253-1.70859T233.926,26.6694Q231.19221,22.87254,228.99,19.911L218.89039,6.05245l-.038-.56953Q218.85242,4.68558,219.04226,4.57167Z"/>
  <path id="MJMAIN-22C5" class="cls-4" d="M443.29882,30.03859a2.24942,2.24942,0,0,1,.64547-1.59468,2.14942,2.14942,0,0,1,1.63265-.68344,2.32531,2.32531,0,0,1,1.59468.6075,2.19094,2.19094,0,0,1,.7214,1.63265,2.29516,2.29516,0,0,1-.64546,1.63265,2.14942,2.14942,0,0,1-1.63266.68344,2.21276,2.21276,0,0,1-1.63265-.64547A2.34782,2.34782,0,0,1,443.29882,30.03859Z"/>
  <rect class="cls-1" x="492.31343" y="61.37858" width="79.83102" height="79.83102"/>
  <polygon class="cls-2" points="561.597 101.33 553.331 84.733 553.332 117.926 561.597 101.33"/>
  <polygon class="cls-2" points="502.782 101.292 511.048 117.889 511.048 84.696 502.782 101.292"/>
  <polygon class="cls-7" points="502.821 101.292 511.086 117.889 511.086 84.696 502.821 101.292"/>
  <polygon class="cls-8" points="532.149 130.909 548.745 122.643 515.552 122.643 532.149 130.909"/>
  <polygon class="cls-3" points="561.637 101.311 553.371 84.715 553.371 117.907 561.637 101.311"/>
  <polygon class="cls-9" points="532.149 71.85 515.552 80.116 548.745 80.116 532.149 71.85"/>
  <path id="MJMAIN-3D" class="cls-4" d="M639.68781,26.35924a.82708.82708,0,0,1,.53156-.75937h24.186a.883.883,0,0,1,.56953.75937.86141.86141,0,0,1-.53156.72141l-12.074.038h-12.074A.75255.75255,0,0,1,639.68781,26.35924Zm0,7.36591a.75254.75254,0,0,1,.6075-.75937h24.148q.53156.37969.53156.75937a.83023.83023,0,0,1-.56953.75938h-24.186A.82708.82708,0,0,1,639.68781,33.72515Z"/>
  <text class="cls-10" transform="translate(4.10999 16.05385)">O<tspan class="cls-11" x="11.87988" y="0">f</tspan><tspan x="15.84668" y="0">f-policy value estimation</tspan><tspan x="0" y="18.32715">uses importance sampling</tspan><tspan x="0" y="36.6543" xml:space="preserve">to find the    -values of a</tspan><tspan x="0" y="54.98145" xml:space="preserve">second policy      .</tspan><tspan x="0" y="91.63574">Then it weights them by that</tspan><tspan x="0" y="109.96289" xml:space="preserve">policy to find            .</tspan></text>
  <path id="MJMATHI-51-2" data-name="MJMATHI-51" class="cls-12" d="M81.27861,52.73667q0-.47125.01428-.714a1.41053,1.41053,0,0,1,.02856-.27133v-.05712l-.2142.05712a5.19486,5.19486,0,0,1-1.19953.15709,3.5044,3.5044,0,0,1-3.5986-3.18448q-.01429-.11424-.01429-.614a5.90768,5.90768,0,0,1,.68545-2.77035,7.99836,7.99836,0,0,1,1.84214-2.32767A5.56994,5.56994,0,0,1,82.37819,41.541q.54264,0,.68544.01428a3.39977,3.39977,0,0,1,2.22771,1.22809,4.02619,4.02619,0,0,1,.85681,2.599,6.49743,6.49743,0,0,1-2.11347,4.68389,6.84846,6.84846,0,0,1-1.8707,1.2995l-.24276.11424v.0714q0,.01428.0714.38557a1.12374,1.12374,0,0,0,.29988.59976.88915.88915,0,0,0,.65689.22849,1.66369,1.66369,0,0,0,.95677-.31417,1.4528,1.4528,0,0,0,.59977-.814q.08568-.19992.18564-.19992a.14687.14687,0,0,1,.15708.12852,2.136,2.136,0,0,1-.1428.51409q-.1428.39984-.39984.94249a2.47907,2.47907,0,0,1-.77113.92821,1.94879,1.94879,0,0,1-1.08529.41412q-1.171,0-1.171-1.528Zm3.3844-7.82554a3.98619,3.98619,0,0,0-.2142-1.37089,1.87706,1.87706,0,0,0-.58549-.87109,3.21942,3.21942,0,0,0-.714-.42841,1.94913,1.94913,0,0,0-.75684-.1428,3.11524,3.11524,0,0,0-1.39946.357,5.14134,5.14134,0,0,0-2.34195,2.51331,8.04152,8.04152,0,0,0-.88537,3.54148,2.94927,2.94927,0,0,0,.77113,2.242,1.34129,1.34129,0,0,0,.41413.29989v-.11425a1.49362,1.49362,0,0,1,.47124-1.05673,1.55239,1.55239,0,0,1,1.11385-.4998,1.155,1.155,0,0,1,.61405.15708.9875.9875,0,0,1,.38557.4284,2.35124,2.35124,0,0,1,.17136.457q.04284.18564.08568.38556l.18564-.12852a5.28853,5.28853,0,0,0,1.55654-1.7279,7.79648,7.79648,0,0,0,.88537-2.12774A8.35883,8.35883,0,0,0,84.663,44.91113ZM80.0648,51.33721A2.83446,2.83446,0,0,0,81.35,51.03733l-.01428-.14281q-.05712-.7854-.52836-.94249a1.74831,1.74831,0,0,0-.27133-.02856h-.08568a.08269.08269,0,0,1-.05712-.01428.86971.86971,0,0,0-.58548.28561.93577.93577,0,0,0-.31417.65688Q79.49359,51.33722,80.0648,51.33721Z"/>
  <path id="MJMATHI-3C0-4" data-name="MJMATHI-3C0" class="cls-12" d="M103.21178,70.9439a.58064.58064,0,0,1-.66654-.64693v-.21565l.25485-.54891a37.98586,37.98586,0,0,0,2.13683-5.35187l.15684-.4705h-.62733a6.53538,6.53538,0,0,0-1.05861.05882,2.12077,2.12077,0,0,0-.76456.37247,2.56113,2.56113,0,0,0-.43128.35287,5.05137,5.05137,0,0,0-.37248.41168,2.41619,2.41619,0,0,0-.17643.23525,1.11761,1.11761,0,0,1-.29406.01961q-.37248,0-.37248-.196a2.3668,2.3668,0,0,1,.37248-.68614,6.66632,6.66632,0,0,1,1.07821-1.21545,2.66533,2.66533,0,0,1,1.39188-.745q.13723-.03919,4.41089-.0392,3.13664,0,3.21505.0196a.53523.53523,0,0,1,.39207.54891.81876.81876,0,0,1-.62732.82337,10.63272,10.63272,0,0,1-1.35267.0392h-1.25466l-.05881.33327a14.71444,14.71444,0,0,0-.23524,2.33287,8.54212,8.54212,0,0,0,.17643,1.82317,7.082,7.082,0,0,0,.37248,1.25465,2.28605,2.28605,0,0,1,.196.54891.90853.90853,0,0,1-.27446.62733.92213.92213,0,0,1-.70574.294.90337.90337,0,0,1-.35287-.05881q-.13724-.05882-.31367-.47049a5.66375,5.66375,0,0,1-.31366-1.17624q-.0196-.17643-.0196-.86257a13.01055,13.01055,0,0,1,.17643-2.05842q.17645-1.09782.35287-1.80356l.196-.78416h-1.92118l-.01961.07842q0,.05881-.37247,1.54871t-.843,3.15624a14.60948,14.60948,0,0,1-.60772,1.90158A.8243.8243,0,0,1,103.21178,70.9439Z"/>
  <path id="MJMAIN-32-4" data-name="MJMAIN-32" class="cls-12" d="M113.30594,67.7345a.75756.75756,0,0,1-.596-.24948.88521.88521,0,0,1-.22175-.60984,2.30922,2.30922,0,0,1,.73457-1.70478,2.50826,2.50826,0,0,1,1.82952-.72072,2.99718,2.99718,0,0,1,2.10672.77616,2.64615,2.64615,0,0,1,.85932,2.0097,2.4579,2.4579,0,0,1-.2772,1.13652,3.92207,3.92207,0,0,1-.66528.94248q-.38808.40194-1.1088,1.02564-.499.42966-1.386,1.27511l-.81774.77616,1.05336.01386a16.63748,16.63748,0,0,0,2.31462-.0693,3.75739,3.75739,0,0,0,.33264-1.23354v-.04158h.5544v.04158q-.01386.04158-.18018,1.26126a10.345,10.345,0,0,1-.2079,1.27512v.04158h-5.14205v-.42966a.35377.35377,0,0,1,.08315-.2079q.08316-.11088.4158-.4851.40194-.44352.693-.77616.12474-.1386.47124-.51282t.47124-.51282q.12474-.1386.40194-.45737t.38808-.47124q.11088-.15246.31878-.4158a2.36572,2.36572,0,0,0,.29106-.44352q.08316-.18018.2079-.40194a1.79145,1.79145,0,0,0,.18018-.44352q.05544-.22176.097-.4158a2.20659,2.20659,0,0,0,.04158-.45738,2.47134,2.47134,0,0,0-.47124-1.51074,1.57168,1.57168,0,0,0-1.34442-.63756,1.3951,1.3951,0,0,0-.80388.23562,1.66962,1.66962,0,0,0-.4851.45738.98773.98773,0,0,0-.1386.26334q0,.01386.0693.01386a.86888.86888,0,0,1,.51282.194.73937.73937,0,0,1,.26334.63756.817.817,0,0,1-.22176.58212A.85807.85807,0,0,1,113.30594,67.7345Z"/>
  <g>
    <path id="MJMATHI-56-2" data-name="MJMATHI-56" class="cls-12" d="M94.99515,115.648a.68464.68464,0,0,1,.18819-.50665h.15923q.608.04343,1.51994.04343,1.70813,0,2.01212-.04343h.14475q.08685.08685.08686.13028t-.029.26056a.79714.79714,0,0,1-.13028.275h-.304q-.31847.02895-.43427.029-.4198.07237-.46322.21713,0,.029.41979,3.63339t.43427,3.63339l1.05672-1.69365q1.05672-1.69365,2.11344-3.41626t1.08568-1.7805a.43057.43057,0,0,0,.0579-.21713q0-.34742-.63693-.40532-.26056,0-.26056-.15923,0-.01448.029-.18819a.779.779,0,0,1,.08685-.26056.22984.22984,0,0,1,.18819-.0579h.17371q.14475,0,.49217.01447t.92644.01448q.99882,0,1.25938-.029h.10133q.10133.10133.10133.15923a.88544.88544,0,0,1-.13028.46322.41421.41421,0,0,1-.24609.04343q-.18818.01448-.34741.029a1.07636,1.07636,0,0,0-.304.07238q-.14476.0579-.23161.10133a.90606.90606,0,0,0-.17371.1158.80969.80969,0,0,1-.14476.10133.31464.31464,0,0,0-.1158.13028q-.0579.10134-.10133.10133l-2.7938,4.48745q-2.60562,4.2124-2.69247,4.31374-.04342.029-.10133.07238l-.26056.01448h-.10133q-.26056,0-.26056-.10133-.04342-.08686-.56455-4.63221-.55008-4.60324-.56455-4.64668-.07237-.15923-.89749-.15923h-.24609A.20054.20054,0,0,1,94.99515,115.648Z"/>
    <g>
      <path id="MJMATHI-3C0-5" data-name="MJMATHI-3C0" class="cls-12" d="M107.53575,119.17684a.30312.30312,0,0,1-.348-.33773v-.11257l.133-.28656a19.83081,19.83081,0,0,0,1.11553-2.794l.08188-.24562h-.3275a3.412,3.412,0,0,0-.55265.0307,1.10725,1.10725,0,0,0-.39914.19445,1.337,1.337,0,0,0-.22515.18422,2.63639,2.63639,0,0,0-.19445.21492,1.26066,1.26066,0,0,0-.09211.12281.58379.58379,0,0,1-.15351.01023q-.19446,0-.19446-.10234a1.23553,1.23553,0,0,1,.19446-.3582,3.48,3.48,0,0,1,.56288-.63452,1.39142,1.39142,0,0,1,.72663-.38891q.07164-.02046,2.30272-.02047,1.63748,0,1.67842.01024a.27941.27941,0,0,1,.20468.28656.42743.42743,0,0,1-.32749.42984,5.55169,5.55169,0,0,1-.70617.02047h-.655l-.0307.174a7.681,7.681,0,0,0-.12282,1.21788,4.45966,4.45966,0,0,0,.09211.95179,3.69909,3.69909,0,0,0,.19445.655,1.19365,1.19365,0,0,1,.10235.28656.47431.47431,0,0,1-.14328.3275.48139.48139,0,0,1-.36844.15351.47158.47158,0,0,1-.18421-.0307q-.07164-.0307-.16375-.24563a2.956,2.956,0,0,1-.16375-.61405q-.01023-.09211-.01024-.45031a6.79266,6.79266,0,0,1,.09211-1.0746q.09211-.57312.18422-.94155l.10234-.40937h-1.003l-.01023.04093q0,.03071-.19445.80851t-.44008,1.64772a7.62514,7.62514,0,0,1-.31726.99272A.43032.43032,0,0,1,107.53575,119.17684Z"/>
      <path id="MJMAIN-32-5" data-name="MJMAIN-32" class="cls-12" d="M112.80743,117.5009a.39563.39563,0,0,1-.31123-.13028.4623.4623,0,0,1-.1158-.31847,1.20592,1.20592,0,0,1,.3836-.89025,1.30984,1.30984,0,0,1,.95539-.37636,1.56515,1.56515,0,0,1,1.10015.40531,1.38186,1.38186,0,0,1,.44875,1.04949,1.2835,1.2835,0,0,1-.14476.5935,2.0482,2.0482,0,0,1-.34741.49217q-.20267.2099-.579.5356-.26056.22437-.72378.66588l-.427.40532.55007.00723a8.68755,8.68755,0,0,0,1.20872-.03619,1.96217,1.96217,0,0,0,.1737-.64416V119.238h.28952v.02171q-.00724.0217-.09409.65864a5.40491,5.40491,0,0,1-.10857.66588v.02171H112.3804v-.22437a.18473.18473,0,0,1,.04342-.10857q.04344-.0579.21714-.25332.20989-.23161.36189-.40532.06515-.07237.24609-.2678t.24608-.2678q.06515-.07237.2099-.23884t.20266-.24609q.0579-.07962.16647-.21714a1.23482,1.23482,0,0,0,.152-.23161q.04343-.09408.10857-.20989a.93551.93551,0,0,0,.09409-.23161q.02895-.11581.05066-.21714a1.152,1.152,0,0,0,.02172-.23885,1.29055,1.29055,0,0,0-.24609-.78892.82074.82074,0,0,0-.70207-.33294.72852.72852,0,0,0-.41979.12305.87177.87177,0,0,0-.25332.23884.51576.51576,0,0,0-.07238.13752q0,.00724.03619.00724a.45377.45377,0,0,1,.2678.10133.3861.3861,0,0,1,.13752.33294.42667.42667,0,0,1-.11581.304A.4481.4481,0,0,1,112.80743,117.5009Z"/>
    </g>
    <path id="MJMAIN-28-4" data-name="MJMAIN-28" class="cls-12" d="M119.47346,121.40932a11.90572,11.90572,0,0,1,.14476-1.89631,13.26538,13.26538,0,0,1,.33294-1.54889,6.06075,6.06075,0,0,1,.5356-1.27386q.34741-.62246.55007-.96987a3.84461,3.84461,0,0,1,.608-.75273q.40531-.40531.47769-.49217a2.609,2.609,0,0,1,.36189-.304h.24609q.20266,0,.20266.13028a1.16972,1.16972,0,0,1-.24609.304,6.57143,6.57143,0,0,0-.5935.76721,10.01581,10.01581,0,0,0-.70931,1.2449,8.23571,8.23571,0,0,0-.608,1.99764,14.61,14.61,0,0,0-.24609,2.7938,14.38261,14.38261,0,0,0,.24609,2.77932,9.40139,9.40139,0,0,0,.5935,2.01212,6.55581,6.55581,0,0,0,.70931,1.2449q.36189.4777.608.76721a3.27008,3.27008,0,0,1,.24609.304q0,.13027-.21714.13028h-.23161l-.40531-.34741a7.1437,7.1437,0,0,1-1.98317-3.06884A11.83523,11.83523,0,0,1,119.47346,121.40932Z"/>
    <path id="MJMATHI-73-4" data-name="MJMATHI-73" class="cls-12" d="M125.65456,120.84477a2.1452,2.1452,0,0,1,.23161-.94092,2.38156,2.38156,0,0,1,.81063-.883,2.31292,2.31292,0,0,1,1.40414-.39084,1.82888,1.82888,0,0,1,1.30281.39084,1.24021,1.24021,0,0,1,.41979.86854.86209.86209,0,0,1-.24608.68035.877.877,0,0,1-.55008.23161.57819.57819,0,0,1-.34741-.1158.46831.46831,0,0,1-.17371-.37637.65693.65693,0,0,1,.13028-.40532,1.30045,1.30045,0,0,1,.24609-.26056.35031.35031,0,0,1,.18818-.08685.0128.0128,0,0,0,.01448-.01448q0-.04343-.10133-.13028a.98887.98887,0,0,0-.3619-.15923,2.56133,2.56133,0,0,0-.56455-.08685,1.22438,1.22438,0,0,0-1.34623,1.14357.5233.5233,0,0,0,.275.50665,3.0025,3.0025,0,0,0,.79616.24609,3.17232,3.17232,0,0,1,.75273.21713,1.43062,1.43062,0,0,1,.95539,1.38966,2.20271,2.20271,0,0,1-.15923.81064,3.23785,3.23785,0,0,1-.4777.81063,2.094,2.094,0,0,1-.912.63693,3.93059,3.93059,0,0,1-1.36071.24609,2.34147,2.34147,0,0,1-1.57785-.4198,1.33925,1.33925,0,0,1-.47769-.98434.98448.98448,0,0,1,.304-.81064.99957.99957,0,0,1,.63693-.24608.69845.69845,0,0,1,.40531.13028.53888.53888,0,0,1,.20266.44874.86638.86638,0,0,1-.26056.63693.7129.7129,0,0,1-.44874.26056.11119.11119,0,0,1-.04343.01448q-.01447,0-.01448.02895a.313.313,0,0,0,.11581.11581,2.02084,2.02084,0,0,0,.44874.18818,2.84713,2.84713,0,0,0,1.69365-.0579,1.24365,1.24365,0,0,0,.55008-.40532,1.92175,1.92175,0,0,0,.24608-.44875,1.09159,1.09159,0,0,0,.07238-.36189.68194.68194,0,0,0-.304-.608,1.53873,1.53873,0,0,0-.69483-.24609,3.58268,3.58268,0,0,1-.85406-.21713,1.33969,1.33969,0,0,1-.68036-.50665A1.45712,1.45712,0,0,1,125.65456,120.84477Z"/>
    <path id="MJMAIN-29-4" data-name="MJMAIN-29" class="cls-12" d="M131.41586,114.186l.05791-.01448h.31846l.40532.34742a7.14359,7.14359,0,0,1,1.98316,3.06883,11.83528,11.83528,0,0,1,.62245,3.82157,12.08508,12.08508,0,0,1-.14475,1.89631,12.44789,12.44789,0,0,1-.33294,1.54889,6.5201,6.5201,0,0,1-.5356,1.27386q-.34742.63693-.55008.96987a4.40352,4.40352,0,0,1-.5935.73826q-.39084.40532-.46322.47769t-.33294.275l-.0579.0579h-.33294a.08505.08505,0,0,1-.07238-.04343.34089.34089,0,0,1-.04343-.13028q.01449-.01448.15924-.18818,2.24371-2.33058,2.24372-6.87593t-2.24372-6.87593q-.14477-.1737-.15924-.18818A.17014.17014,0,0,1,131.41586,114.186Z"/>
  </g>
</svg>
