<svg id="Layer_1" data-name="Layer 1" xmlns="http://www.w3.org/2000/svg" viewBox="0 0 662.14619 122.64622">
  <defs>
    <style>
      .cls-1 {
        fill: #e7ebe8;
      }

      .cls-2 {
        fill: #70a8da;
      }

      .cls-2, .cls-3 {
        opacity: 0.5;
      }

      .cls-3, .cls-4 {
        fill: #ef4136;
      }

      .cls-5 {
        fill: #fff;
      }

      .cls-6 {
        fill: #58595b;
      }

      .cls-7 {
        fill: #808285;
      }

      .cls-8 {
        fill: #b2b3c3;
      }

      .cls-9 {
        fill: #010101;
      }
    </style>
  </defs>
  <title>off-policy</title>
  <rect class="cls-1" x="202.03881" y="47.87094" width="74.08071" height="74.08071"/>
  <polygon class="cls-2" points="211.789 84.91 219.46 100.311 219.46 69.509 211.789 84.91"/>
  <polygon class="cls-3" points="239.005 112.393 254.405 104.723 223.604 104.723 239.005 112.393"/>
  <polygon class="cls-4" points="266.369 84.927 258.699 69.526 258.699 100.328 266.369 84.927"/>
  <polygon class="cls-2" points="239.005 57.588 223.604 65.259 254.405 65.259 239.005 57.588"/>
  <rect class="cls-1" x="0.96158" y="47.99553" width="73.94519" height="73.94519"/>
  <circle class="cls-3" cx="38.71636" cy="85.91961" r="23.42114"/>
  <rect class="cls-1" x="417.39196" y="48.02286" width="74.08071" height="74.08071"/>
  <polygon class="cls-5" points="427.142 85.062 434.813 100.463 434.813 69.661 427.142 85.062"/>
  <polygon class="cls-6" points="454.358 112.545 469.759 104.875 438.957 104.875 454.358 112.545"/>
  <polygon class="cls-7" points="481.722 85.079 474.052 69.678 474.052 100.48 481.722 85.079"/>
  <polygon class="cls-8" points="454.358 57.74 438.957 65.411 469.759 65.411 454.358 57.74"/>
  <path id="MJMAIN-22C5" class="cls-9" d="M382.81133,24.697a2.24945,2.24945,0,0,1,.64546-1.59468,2.14942,2.14942,0,0,1,1.63265-.68343,2.32526,2.32526,0,0,1,1.59468.60749,2.191,2.191,0,0,1,.72141,1.63265,2.29517,2.29517,0,0,1-.64547,1.63265,2.1494,2.1494,0,0,1-1.63265.68344,2.21274,2.21274,0,0,1-1.63265-.64547A2.34782,2.34782,0,0,1,382.81133,24.697Z"/>
  <g>
    <path id="MJMATHI-51" class="cls-9" d="M211.42747,32.66613q0-.96267.02917-1.45859a2.88259,2.88259,0,0,1,.05834-.55427v-.11669l-.43757.11669a10.612,10.612,0,0,1-2.45044.32089,7.1589,7.1589,0,0,1-7.35133-6.50533q-.02916-.23339-.02917-1.2544a12.06826,12.06826,0,0,1,1.40025-5.65935,16.33872,16.33872,0,0,1,3.76318-4.755,11.37836,11.37836,0,0,1,7.26381-3.00471q1.10853,0,1.40025.02918a6.94515,6.94515,0,0,1,4.55082,2.50878,8.22489,8.22489,0,0,1,1.75031,5.30929,13.27322,13.27322,0,0,1-4.31744,9.56839,13.991,13.991,0,0,1-3.82152,2.65464l-.49593.23337v.14586q0,.02917.14586.78765a2.29572,2.29572,0,0,0,.61261,1.22522,1.81634,1.81634,0,0,0,1.34191.46675,3.39859,3.39859,0,0,0,1.95452-.64179,2.968,2.968,0,0,0,1.22522-1.66279q.175-.40842.37924-.40841a.3.3,0,0,1,.32089.26255,4.3633,4.3633,0,0,1-.29172,1.05018q-.29172.81683-.81682,1.92535a5.06426,5.06426,0,0,1-1.57528,1.89618,3.98094,3.98094,0,0,1-2.21706.846q-2.39211,0-2.3921-3.12139Zm6.91374-15.98621a8.14308,8.14308,0,0,0-.43758-2.8005,3.83475,3.83475,0,0,0-1.196-1.77949,6.57716,6.57716,0,0,0-1.45859-.87515,3.98177,3.98177,0,0,0-1.54611-.29172,6.36412,6.36412,0,0,0-2.85885.7293,10.50288,10.50288,0,0,0-4.78419,5.13425,16.42727,16.42727,0,0,0-1.80866,7.23464,6.02492,6.02492,0,0,0,1.57528,4.58,2.73994,2.73994,0,0,0,.846.61261v-.23338a3.05116,3.05116,0,0,1,.96267-2.15872,3.17126,3.17126,0,0,1,2.27541-1.021,2.35942,2.35942,0,0,1,1.25439.32089,2.01718,2.01718,0,0,1,.78764.87516,4.80378,4.80378,0,0,1,.35007.9335q.08751.37924.175.78764l.37923-.26254a10.80366,10.80366,0,0,0,3.17974-3.5298,15.9264,15.9264,0,0,0,1.80866-4.34662A17.07557,17.07557,0,0,0,218.34121,16.67992Zm-9.39335,13.12737a5.7904,5.7904,0,0,0,2.62547-.61261l-.02917-.29172q-.1167-1.60446-1.07936-1.92535a3.57088,3.57088,0,0,0-.55427-.05834h-.175a.16892.16892,0,0,1-.11669-.02918,1.77674,1.77674,0,0,0-1.196.58344,1.91172,1.91172,0,0,0-.64178,1.34191Q207.781,29.80729,208.94786,29.80729Z"/>
    <g>
      <path id="MJMATHI-3C0" class="cls-9" d="M225.5853,18.54042a.61086.61086,0,0,1-.70124-.68061v-.22687l.26812-.57749a39.96457,39.96457,0,0,0,2.24808-5.6305l.165-.495h-.66a6.87625,6.87625,0,0,0-1.11373.06187,2.23125,2.23125,0,0,0-.80435.39187,2.69318,2.69318,0,0,0-.45374.37124,5.31448,5.31448,0,0,0-.39187.43311,2.54045,2.54045,0,0,0-.18562.2475,1.176,1.176,0,0,1-.30937.02062q-.39186,0-.39187-.20624a2.49023,2.49023,0,0,1,.39187-.72186,7.01364,7.01364,0,0,1,1.13435-1.27872,2.804,2.804,0,0,1,1.46434-.78374q.14437-.04125,4.64053-.04125,3.29993,0,3.38242.02063a.56309.56309,0,0,1,.41249.57749.86138.86138,0,0,1-.66.86623,11.18545,11.18545,0,0,1-1.4231.04125h-1.32l-.06187.35061a15.4802,15.4802,0,0,0-.2475,2.45432,8.987,8.987,0,0,0,.18562,1.91809,7.45214,7.45214,0,0,0,.39187,1.32,2.40506,2.40506,0,0,1,.20625.57748.95581.95581,0,0,1-.28875.66.97012.97012,0,0,1-.74248.30937.95038.95038,0,0,1-.37124-.06188q-.14437-.06188-.33-.495a5.95831,5.95831,0,0,1-.33-1.23747q-.02063-.18563-.02062-.90748a13.68706,13.68706,0,0,1,.18562-2.16557q.18563-1.155.37124-1.89746l.20625-.825h-2.02121l-.02062.08249q0,.06188-.39187,1.62934t-.88686,3.32055a15.36817,15.36817,0,0,1-.63936,2.00058A.86719.86719,0,0,1,225.5853,18.54042Z"/>
      <g>
        <path id="MJMATHI-6F" class="cls-9" d="M237.63843,11.006a2.308,2.308,0,0,1-1.7649-.71471,2.42514,2.42514,0,0,1-.67095-1.72115,3.85106,3.85106,0,0,1,.43758-1.79407,4.7,4.7,0,0,1,1.196-1.47318,3.59138,3.59138,0,0,1,2.26083-.88974q.46674,0,.58344.01458.18962.04375.37923.1021a2.99508,2.99508,0,0,1,.51051.23338,1.66256,1.66256,0,0,1,.52509.43758,2.84376,2.84376,0,0,1,.37924.71471,2.8105,2.8105,0,0,1,.175,1.021,3.89213,3.89213,0,0,1-1.25439,2.81509A3.83323,3.83323,0,0,1,237.63843,11.006Zm-1.16687-1.91076a1.21195,1.21195,0,0,0,1.2398,1.37108,1.87822,1.87822,0,0,0,1.21064-.46675,3.25406,3.25406,0,0,0,.90433-1.22522A8.88622,8.88622,0,0,0,240.1618,7.695a5.36427,5.36427,0,0,0,.20421-1.34191,1.56056,1.56056,0,0,0-.26255-.97726,1.13483,1.13483,0,0,0-.9335-.43758,2.06158,2.06158,0,0,0-1.619.846,4.16141,4.16141,0,0,0-.80223,1.70655A8.32127,8.32127,0,0,0,236.47156,9.09523Z"/>
        <path id="MJMATHI-66" class="cls-9" d="M243.502,13.20847a.22384.22384,0,0,1,.08751.02917.53674.53674,0,0,0,.16045.04376,1.266,1.266,0,0,0,.175.01458.45871.45871,0,0,0,.35006-.18961,1.20577,1.20577,0,0,0,.23338-.423,20.63894,20.63894,0,0,0,.49592-2.23165q.35007-1.83783.67095-3.50063t.32089-1.67738V5.23h-.68554a3.936,3.936,0,0,1-.72929-.02917.17063.17063,0,0,1-.05835-.14586l.1021-.40841a.11353.11353,0,0,1,.11669-.07293q.08752,0,.68554-.01458a6.31549,6.31549,0,0,0,.70013-.01459q0-.02917.13127-.7293t.175-.846q.53969-2.40669,2.12955-2.40669a1.47285,1.47285,0,0,1,.88975.32089.95619.95619,0,0,1,.35006.77306.893.893,0,0,1-.30631.75847,1.09819,1.09819,0,0,1-.61261.248q-.64178,0-.64178-.61261a.756.756,0,0,1,.16045-.48134,1.13578,1.13578,0,0,1,.35006-.3063l.13127-.07293a1.25,1.25,0,0,0-.43757-.08752.49514.49514,0,0,0-.33548.14586.75533.75533,0,0,0-.21879.40841q-.1021.423-.23338,1.1377t-.23337,1.21064q-.1021.49592-.1021.52509a4.16325,4.16325,0,0,0,.80222.02918q.65637,0,.75847.01458a.24029.24029,0,0,1,.16045.08752.68263.68263,0,0,1-.02917.248.92743.92743,0,0,1-.07293.23337.12529.12529,0,0,1-.13128.07293q-.10209,0-.78764.01459h-.81681l-.33548,1.77949q-.70012,3.61731-.97726,4.52164a4.3029,4.3029,0,0,1-1.021,1.83783,1.64437,1.64437,0,0,1-1.06478.46675,1.39978,1.39978,0,0,1-.846-.27713.91749.91749,0,0,1-.37924-.78764.95426.95426,0,0,1,.30631-.78764.97441.97441,0,0,1,.61261-.248q.64178,0,.64178.61261a.756.756,0,0,1-.16045.48133,1.13569,1.13569,0,0,1-.35006.30631Z"/>
        <path id="MJMATHI-66-2" data-name="MJMATHI-66" class="cls-9" d="M251.53885,13.20847a.22379.22379,0,0,1,.08751.02917.53674.53674,0,0,0,.16045.04376,1.266,1.266,0,0,0,.175.01458.45871.45871,0,0,0,.35006-.18961,1.20577,1.20577,0,0,0,.23338-.423,20.6363,20.6363,0,0,0,.49592-2.23165q.35007-1.83783.671-3.50063t.32089-1.67738V5.23h-.68554a3.93607,3.93607,0,0,1-.7293-.02917.17062.17062,0,0,1-.05834-.14586l.1021-.40841a.11351.11351,0,0,1,.11668-.07293q.08752,0,.68554-.01458a6.31534,6.31534,0,0,0,.70013-.01459q0-.02917.13127-.7293t.175-.846Q255.0103.56244,256.60017.56244a1.47285,1.47285,0,0,1,.88975.32089.95619.95619,0,0,1,.35006.77306.893.893,0,0,1-.3063.75847,1.09824,1.09824,0,0,1-.61261.248q-.64179,0-.64179-.61261a.75609.75609,0,0,1,.16045-.48134,1.13578,1.13578,0,0,1,.35006-.3063l.13128-.07293a1.25006,1.25006,0,0,0-.43758-.08752.49514.49514,0,0,0-.33548.14586.75546.75546,0,0,0-.21879.40841q-.1021.423-.23337,1.1377t-.23338,1.21064q-.1021.49592-.1021.52509a4.16332,4.16332,0,0,0,.80223.02918q.65635,0,.75847.01458a.24027.24027,0,0,1,.16044.08752.68239.68239,0,0,1-.02917.248.92743.92743,0,0,1-.07293.23337.12529.12529,0,0,1-.13127.07293q-.1021,0-.78765.01459h-.81681l-.33548,1.77949q-.70012,3.61731-.97725,4.52164a4.303,4.303,0,0,1-1.021,1.83783,1.64435,1.64435,0,0,1-1.06478.46675,1.3998,1.3998,0,0,1-.846-.27713.91749.91749,0,0,1-.37924-.78764.95426.95426,0,0,1,.30631-.78764.97441.97441,0,0,1,.61261-.248q.64178,0,.64178.61261a.756.756,0,0,1-.16045.48133,1.13569,1.13569,0,0,1-.35006.30631Z"/>
      </g>
    </g>
    <path id="MJMAIN-28" class="cls-9" d="M265.57054,23.0394a23.99407,23.99407,0,0,1,.29172-3.82152,26.73658,26.73658,0,0,1,.671-3.12139,12.21517,12.21517,0,0,1,1.07936-2.56713q.70012-1.25439,1.10853-1.95452a7.74855,7.74855,0,0,1,1.22522-1.51694q.81682-.81681.96268-.99184a5.25663,5.25663,0,0,1,.7293-.61261h.49592q.40841,0,.40841.26254a2.357,2.357,0,0,1-.49593.61261,13.2458,13.2458,0,0,0-1.19605,1.54611,20.1827,20.1827,0,0,0-1.42942,2.50879,16.59573,16.59573,0,0,0-1.22522,4.02572,29.44346,29.44346,0,0,0-.49592,5.63018,28.98557,28.98557,0,0,0,.49592,5.601,18.94551,18.94551,0,0,0,1.19605,4.05489,13.21132,13.21132,0,0,0,1.42942,2.50879q.7293.96267,1.22522,1.54611a6.58952,6.58952,0,0,1,.49593.61261q0,.26254-.43758.26255h-.46675l-.81682-.70013a14.39608,14.39608,0,0,1-3.99655-6.18444A23.85105,23.85105,0,0,1,265.57054,23.0394Z"/>
    <g>
      <path id="MJMATHI-73" class="cls-9" d="M278.02694,21.9017a4.32306,4.32306,0,0,1,.46676-1.89618,4.79916,4.79916,0,0,1,1.63362-1.77948,4.66105,4.66105,0,0,1,2.82968-.78765,3.6856,3.6856,0,0,1,2.62547.78765,2.49936,2.49936,0,0,1,.846,1.75031,1.73728,1.73728,0,0,1-.49593,1.37108,1.76735,1.76735,0,0,1-1.10853.46675,1.16524,1.16524,0,0,1-.70013-.23337.94384.94384,0,0,1-.35006-.75847,1.3238,1.3238,0,0,1,.26255-.81682,2.62086,2.62086,0,0,1,.49592-.52509.706.706,0,0,1,.37924-.175.02579.02579,0,0,0,.02917-.02917q0-.08753-.20421-.26255a1.99249,1.99249,0,0,0-.72929-.32089,5.16125,5.16125,0,0,0-1.13771-.175,2.46745,2.46745,0,0,0-2.713,2.30458,1.05459,1.05459,0,0,0,.55427,1.021,6.05011,6.05011,0,0,0,1.60446.49593,6.3928,6.3928,0,0,1,1.51694.43757,2.88306,2.88306,0,0,1,1.92534,2.80051,4.43916,4.43916,0,0,1-.32089,1.63363,6.52556,6.52556,0,0,1-.96267,1.63362,4.2202,4.2202,0,0,1-1.83783,1.28357,7.92147,7.92147,0,0,1-2.74216.49592,4.71865,4.71865,0,0,1-3.17974-.846,2.69887,2.69887,0,0,1-.96267-1.98369,1.98391,1.98391,0,0,1,.61261-1.63362,2.01426,2.01426,0,0,1,1.28356-.49593,1.40754,1.40754,0,0,1,.81681.26255,1.086,1.086,0,0,1,.40841.90433,1.746,1.746,0,0,1-.52509,1.28356,1.43668,1.43668,0,0,1-.90433.5251.22387.22387,0,0,1-.08752.02917q-.02918,0-.02917.05834a.63049.63049,0,0,0,.23337.23338,4.07279,4.07279,0,0,0,.90433.37923,5.73758,5.73758,0,0,0,3.41312-.11668,2.50616,2.50616,0,0,0,1.10853-.81682,3.87258,3.87258,0,0,0,.49592-.90433,2.20031,2.20031,0,0,0,.14586-.72929,1.37429,1.37429,0,0,0-.61261-1.22522,3.10113,3.10113,0,0,0-1.40025-.49593,7.21932,7.21932,0,0,1-1.72114-.43758,2.69961,2.69961,0,0,1-1.37108-1.021A2.93632,2.93632,0,0,1,278.02694,21.9017Z"/>
      <g>
        <path id="MJMATHI-74" class="cls-9" d="M288.42329,26.76772q-.14438-.14438-.14437-.20625a1.7339,1.7339,0,0,1,.06187-.33.84753.84753,0,0,1,.10312-.28874.17716.17716,0,0,1,.18562-.10313q.14438,0,1.05186-.02062h1.0931l.39186-1.65q.06187-.22687.14437-.59812a4.42388,4.42388,0,0,1,.14438-.53623,3.88218,3.88218,0,0,0,.12374-.4125.75663.75663,0,0,1,.165-.35061,1.96382,1.96382,0,0,0,.20625-.2475.46472.46472,0,0,1,.28874-.18562,1.70663,1.70663,0,0,1,.37124-.04125.63235.63235,0,0,1,.51561.22687.69105.69105,0,0,1,.14438.39187,7.84028,7.84028,0,0,1-.18562.96935q-.18562.825-.4125,1.62934l-.20624.76311a4.87278,4.87278,0,0,0,1.03123.04125h1.05185q.14438.14438.14437.22687a.97545.97545,0,0,1-.26812.72186H292.2182l-.74248,2.99056q-.80436,3.29993-.80436,3.54742,0,.86622.55687.86623a1.97111,1.97111,0,0,0,1.40247-.70124,5.25309,5.25309,0,0,0,1.0931-1.73246q.04125-.12375.10312-.14437a1.81645,1.81645,0,0,1,.30937-.04125h.0825q.30936,0,.30936.165a1.01235,1.01235,0,0,1-.06187.24749,3.88077,3.88077,0,0,1-.37124.78374,7.331,7.331,0,0,1-.70124.96935,3.81364,3.81364,0,0,1-1.05185.86623,2.52546,2.52546,0,0,1-1.2581.35062,2.38541,2.38541,0,0,1-1.17559-.30937,1.7869,1.7869,0,0,1-.80436-1.07248,2.593,2.593,0,0,1-.04125-.55686v-.37124l.72186-2.88744q.72186-2.90806.74248-2.92868a5.068,5.068,0,0,0-1.05185-.04125Z"/>
        <path id="MJMAIN-2B" class="cls-9" d="M296.48749,29.82015V29.552a.44926.44926,0,0,1,.28874-.41249H302.943V26.04586l.02062-3.09368q.20625-.26812.39187-.26812a.451.451,0,0,1,.41249.30937v6.14611h6.14611a.42968.42968,0,0,1,0,.825H303.768v6.14612q-.165.28874-.37124.28874h-.0825a.39981.39981,0,0,1-.37124-.28874V29.96452h-6.16674a.44925.44925,0,0,1-.28874-.41249Z"/>
        <path id="MJMAIN-31" class="cls-9" d="M315.79206,22.78718l-.26812.10312a5.91132,5.91132,0,0,1-.825.20625,9.50718,9.50718,0,0,1-1.19623.14437h-.39186v-.94873h.39186a6.707,6.707,0,0,0,1.79434-.30937,4.87006,4.87006,0,0,0,1.155-.495,5.28594,5.28594,0,0,0,.57749-.45374q.04125-.06186.24749-.06187a.57443.57443,0,0,1,.35062.12375v6.16674l.02063,6.18736a.81659.81659,0,0,0,.24749.18562,2.44587,2.44587,0,0,0,.495.0825q.39186.04125,1.27872.04125h.53624v.94873h-.22687q-.43311-.06188-3.2793-.06188-2.80494,0-3.23806.06188H313.214v-.94873h1.32a4.95271,4.95271,0,0,0,.51561-.02063,2.01961,2.01961,0,0,0,.33-.06187,1.23566,1.23566,0,0,1,.165-.04125q.02063,0,.12375-.10312t.12375-.0825Z"/>
      </g>
    </g>
    <path id="MJMAIN-2C" class="cls-9" d="M326.91907,29.31136v-.72929a1.82426,1.82426,0,0,1,.46675-1.2544,1.59448,1.59448,0,0,1,1.25439-.52509,1.90693,1.90693,0,0,1,1.4586.7293,4.0273,4.0273,0,0,1,.671,2.56712,7.50481,7.50481,0,0,1-.26255,1.98369,9.06913,9.06913,0,0,1-.61261,1.6628,6.32561,6.32561,0,0,1-.75847,1.19605q-.40841.49593-.70012.78764t-.37924.26255q-.11669,0-.37923-.26255T327.415,35.35q0-.11668.32089-.46675t.7293-.87516a5.59843,5.59843,0,0,0,.75847-1.45859,8.3793,8.3793,0,0,0,.46675-2.12955v-.35007l-.02917.02917a1.13226,1.13226,0,0,1-.14586.05835.73656.73656,0,0,0-.175.08751.47737.47737,0,0,1-.26255.05835,2.12564,2.12564,0,0,0-.35006.02917,1.73682,1.73682,0,0,1-1.28357-.49592Z"/>
    <path id="MJMATHI-61" class="cls-9" d="M338.58783,25.75239a8.62068,8.62068,0,0,1,2.21707-5.601,6.528,6.528,0,0,1,4.9884-2.68381,3.30716,3.30716,0,0,1,2.62547,1.42942,1.45968,1.45968,0,0,1,1.34191-.87516,1.04373,1.04373,0,0,1,.671.23338.71837.71837,0,0,1,.29172.58344q0,.37923-1.07936,4.6675t-1.10853,4.84254a1.56061,1.56061,0,0,0,.2042.96267.85693.85693,0,0,0,.61261.26255,1.2675,1.2675,0,0,0,.58344-.26255,6.61479,6.61479,0,0,0,1.19605-2.8005q.175-.58344.29172-.61261a.85316.85316,0,0,1,.29171-.02917h.11669q.55426,0,.55427.26254a4.63334,4.63334,0,0,1-.14586.78765,9.152,9.152,0,0,1-.58344,1.57528,4.96971,4.96971,0,0,1-.9335,1.45859,2.88449,2.88449,0,0,1-.9335.61262,3.11049,3.11049,0,0,1-.70013.05834,2.98179,2.98179,0,0,1-1.6628-.43758,2.23952,2.23952,0,0,1-.87515-.90433l-.175-.43758q-.02918-.02917-.11669.02917l-.11669.11669a5.11454,5.11454,0,0,1-3.50063,1.63363,3.98125,3.98125,0,0,1-2.82968-1.16688A4.91569,4.91569,0,0,1,338.58783,25.75239Zm9.27667-4.9884a2.64083,2.64083,0,0,0-.14586-.64178,2.77351,2.77351,0,0,0-.671-1.021,1.86469,1.86469,0,0,0-1.34191-.58343,2.79946,2.79946,0,0,0-1.95452.90432,6.104,6.104,0,0,0-1.45859,2.36293,23.289,23.289,0,0,0-1.19605,4.78419v.32089a1.55553,1.55553,0,0,1-.02917.35007,2.45,2.45,0,0,0,.52509,1.80866,1.87877,1.87877,0,0,0,1.25439.52509,3.2941,3.2941,0,0,0,2.1879-.96267,4.90538,4.90538,0,0,0,1.28356-1.48777q.05835-.11669.78764-3.1214T347.8645,20.764Z"/>
    <path id="MJMAIN-29" class="cls-9" d="M354.83659,8.48262l.11669-.02917h.64178l.81681.70012a14.39608,14.39608,0,0,1,3.99655,6.18445,23.85073,23.85073,0,0,1,1.2544,7.70138,24.35315,24.35315,0,0,1-.29172,3.82152,25.08061,25.08061,0,0,1-.671,3.1214,13.13878,13.13878,0,0,1-1.07936,2.56713q-.70013,1.28355-1.10853,1.95451a8.87328,8.87328,0,0,1-1.19605,1.48777q-.78763.81681-.9335.96267t-.671.55427l-.11669.11669h-.671a.1714.1714,0,0,1-.14586-.08752.68668.68668,0,0,1-.08752-.26255q.02918-.02916.32089-.37923,4.52165-4.69668,4.52165-13.85666T355.01162,9.18274q-.29172-.35006-.32089-.37923A.34287.34287,0,0,1,354.83659,8.48262Z"/>
  </g>
  <g>
    <path id="MJMATHI-3C0-2" data-name="MJMATHI-3C0" class="cls-9" d="M420.71073,30.89844a.869.869,0,0,1-.99753-.96819v-.32273l.3814-.8215a56.85194,56.85194,0,0,0,3.198-8.0096l.23471-.70414h-.93885a9.78135,9.78135,0,0,0-1.58432.088,3.174,3.174,0,0,0-1.14423.55744,3.83243,3.83243,0,0,0-.64546.52811,7.56186,7.56186,0,0,0-.55745.61612,3.61466,3.61466,0,0,0-.264.35207,1.67278,1.67278,0,0,1-.44009.02934q-.55744,0-.55744-.29339a3.54206,3.54206,0,0,1,.55744-1.02687,9.97667,9.97667,0,0,1,1.61366-1.819,3.98864,3.98864,0,0,1,2.08308-1.11489q.20538-.05868,6.60132-.05868,4.69426,0,4.81163.02934a.801.801,0,0,1,.58678.82149,1.22535,1.22535,0,0,1-.93885,1.23225,15.9115,15.9115,0,0,1-2.02441.05868h-1.8777l-.088.49877a22.02064,22.02064,0,0,0-.35207,3.49136,12.78326,12.78326,0,0,0,.264,2.72854,10.60141,10.60141,0,0,0,.55744,1.87771,3.42116,3.42116,0,0,1,.2934.8215,1.35968,1.35968,0,0,1-.41075.93885,1.38,1.38,0,0,1-1.05621.44009,1.352,1.352,0,0,1-.52811-.088q-.20536-.088-.46943-.70414a8.47521,8.47521,0,0,1-.46942-1.76035q-.02934-.264-.02934-1.29092a19.47151,19.47151,0,0,1,.264-3.08062q.26406-1.643.52811-2.6992l.29339-1.17357H424.7302l-.02934.11736q0,.088-.55745,2.31779T422.88183,27.231a21.86281,21.86281,0,0,1-.90952,2.8459A1.23362,1.23362,0,0,1,420.71073,30.89844Z"/>
    <g>
      <path id="MJMATHI-6F-2" data-name="MJMATHI-6F" class="cls-9" d="M437.848,18.71613a3.28227,3.28227,0,0,1-2.50988-1.01639,3.44877,3.44877,0,0,1-.95417-2.44766,5.47654,5.47654,0,0,1,.62228-2.55136,6.68389,6.68389,0,0,1,1.70091-2.095,5.10729,5.10729,0,0,1,3.21514-1.26531q.66377,0,.82971.02075.26965.06222.53931.1452a4.25866,4.25866,0,0,1,.726.33188,2.36429,2.36429,0,0,1,.74674.62229,4.04407,4.04407,0,0,1,.53931,1.01639,3.99682,3.99682,0,0,1,.24892,1.452,5.535,5.535,0,0,1-1.78388,4.00336A5.45124,5.45124,0,0,1,437.848,18.71613Zm-1.65943-2.7173a1.72352,1.72352,0,0,0,1.76314,1.94982,2.671,2.671,0,0,0,1.72165-.66377,4.62724,4.62724,0,0,0,1.28606-1.7424,12.6376,12.6376,0,0,0,.47708-1.535,7.6288,7.6288,0,0,0,.2904-1.90834,2.21931,2.21931,0,0,0-.37337-1.38977,1.61384,1.61384,0,0,0-1.32754-.62229,2.93178,2.93178,0,0,0-2.30245,1.20309,5.91811,5.91811,0,0,0-1.14086,2.42691A11.83438,11.83438,0,0,0,436.18853,15.99883Z"/>
      <path id="MJMATHI-66-3" data-name="MJMATHI-66" class="cls-9" d="M446.18657,21.8483a.31848.31848,0,0,1,.12445.04148.76307.76307,0,0,0,.22817.06223,1.79932,1.79932,0,0,0,.24892.02074.65233.65233,0,0,0,.49782-.26965,1.71471,1.71471,0,0,0,.33189-.60154,29.35054,29.35054,0,0,0,.70525-3.17365q.49784-2.6136.95417-4.97828t.45635-2.38542V10.502h-.97492a5.59882,5.59882,0,0,1-1.03714-.04148.24269.24269,0,0,1-.083-.20743l.1452-.5808a.16145.16145,0,0,1,.16594-.10372q.12447,0,.97492-.02074a8.98053,8.98053,0,0,0,.99565-.02074q0-.04149.18669-1.03714t.24891-1.20308q.76749-3.42257,3.02845-3.42257a2.09441,2.09441,0,0,1,1.26531.45634A1.35976,1.35976,0,0,1,455.14746,5.42a1.27,1.27,0,0,1-.4356,1.07863,1.56178,1.56178,0,0,1-.8712.35263q-.91267,0-.91268-.8712a1.07517,1.07517,0,0,1,.22817-.68451,1.6151,1.6151,0,0,1,.49783-.4356l.18668-.10372a1.77746,1.77746,0,0,0-.62228-.12445.70419.70419,0,0,0-.47709.20742,1.07427,1.07427,0,0,0-.31114.5808q-.1452.60154-.33188,1.61794t-.33189,1.72165q-.1452.70525-.1452.74675a5.923,5.923,0,0,0,1.14086.04148q.93342,0,1.07862.02074a.34166.34166,0,0,1,.22817.12446.97064.97064,0,0,1-.04148.35263,1.3191,1.3191,0,0,1-.10372.33188.17815.17815,0,0,1-.18668.10372q-.1452,0-1.12011.02074h-1.1616l-.47709,2.53062q-.99565,5.14422-1.38976,6.43027a6.1193,6.1193,0,0,1-1.452,2.6136,2.33849,2.33849,0,0,1-1.51423.66377,1.99073,1.99073,0,0,1-1.20308-.39411,1.30482,1.30482,0,0,1-.53931-1.12012,1.35712,1.35712,0,0,1,.4356-1.12011,1.38581,1.38581,0,0,1,.8712-.35263q.91267,0,.91268.8712a1.07517,1.07517,0,0,1-.22817.68451,1.61522,1.61522,0,0,1-.49783.4356Z"/>
      <path id="MJMATHI-66-4" data-name="MJMATHI-66" class="cls-9" d="M457.61585,21.8483a.31847.31847,0,0,1,.12446.04148.763.763,0,0,0,.22817.06223,1.79931,1.79931,0,0,0,.24891.02074.65234.65234,0,0,0,.49783-.26965,1.71487,1.71487,0,0,0,.33189-.60154,29.35054,29.35054,0,0,0,.70525-3.17365q.49783-2.6136.95417-4.97828t.45634-2.38542V10.502H460.188a5.59882,5.59882,0,0,1-1.03714-.04148.24269.24269,0,0,1-.083-.20743l.1452-.5808a.16145.16145,0,0,1,.16594-.10372q.12445,0,.97491-.02074a8.98082,8.98082,0,0,0,.99566-.02074q0-.04149.18668-1.03714t.24892-1.20308q.76747-3.42257,3.02845-3.42257a2.09446,2.09446,0,0,1,1.26531.45634A1.35979,1.35979,0,0,1,466.57675,5.42a1.27,1.27,0,0,1-.4356,1.07863,1.56178,1.56178,0,0,1-.8712.35263q-.91269,0-.91268-.8712a1.07511,1.07511,0,0,1,.22817-.68451,1.61507,1.61507,0,0,1,.49782-.4356l.18669-.10372a1.7775,1.7775,0,0,0-.62228-.12445.70418.70418,0,0,0-.47709.20742,1.07427,1.07427,0,0,0-.31114.5808q-.1452.60154-.33189,1.61794t-.33188,1.72165q-.1452.70525-.1452.74675a5.92285,5.92285,0,0,0,1.14085.04148q.93343,0,1.07863.02074a.34166.34166,0,0,1,.22817.12446.97064.97064,0,0,1-.04148.35263,1.3191,1.3191,0,0,1-.10372.33188.17816.17816,0,0,1-.18668.10372q-.1452,0-1.12012.02074h-1.16159l-.47709,2.53062q-.99565,5.14422-1.38977,6.43027a6.1194,6.1194,0,0,1-1.452,2.6136,2.33849,2.33849,0,0,1-1.51423.66377,1.99073,1.99073,0,0,1-1.20308-.39411,1.30482,1.30482,0,0,1-.53931-1.12012,1.35712,1.35712,0,0,1,.4356-1.12011,1.38576,1.38576,0,0,1,.87119-.35263q.91269,0,.91269.8712a1.07517,1.07517,0,0,1-.22817.68451,1.61522,1.61522,0,0,1-.49783.4356Z"/>
    </g>
    <path id="MJMAIN-28-2" data-name="MJMAIN-28" class="cls-9" d="M472.289,23.24091a24.13223,24.13223,0,0,1,.29339-3.84343,26.88922,26.88922,0,0,1,.6748-3.1393,12.28533,12.28533,0,0,1,1.08555-2.58185q.70415-1.26158,1.11489-1.96572a7.79244,7.79244,0,0,1,1.23225-1.52564q.82149-.82149.96819-.99753a5.28742,5.28742,0,0,1,.73348-.61612h.49877q.41074,0,.41075.264a2.37074,2.37074,0,0,1-.49877.61612,13.32054,13.32054,0,0,0-1.20291,1.555,20.2997,20.2997,0,0,0-1.43762,2.52317,16.69143,16.69143,0,0,0-1.23224,4.04881,29.61106,29.61106,0,0,0-.49877,5.66246,29.15074,29.15074,0,0,0,.49877,5.63313,19.05479,19.05479,0,0,0,1.2029,4.07814,13.28764,13.28764,0,0,0,1.43762,2.52317q.73349.96821,1.23225,1.555a6.62756,6.62756,0,0,1,.49877.61613q0,.264-.44009.26405h-.46943l-.8215-.70414a14.47872,14.47872,0,0,1-4.01947-6.21991A23.98793,23.98793,0,0,1,472.289,23.24091Z"/>
    <g>
      <path id="MJMATHI-73-2" data-name="MJMATHI-73" class="cls-9" d="M484.78752,22.09668a4.34788,4.34788,0,0,1,.46943-1.907,4.82679,4.82679,0,0,1,1.643-1.7897,4.68775,4.68775,0,0,1,2.8459-.79215,3.70681,3.70681,0,0,1,2.64053.79215,2.5137,2.5137,0,0,1,.85083,1.76036,1.74726,1.74726,0,0,1-.49876,1.37894,1.77757,1.77757,0,0,1-1.11489.46943,1.17183,1.17183,0,0,1-.70414-.23472.94916.94916,0,0,1-.35207-.76282,1.3313,1.3313,0,0,1,.264-.82149,2.63562,2.63562,0,0,1,.49876-.52811.71.71,0,0,1,.38141-.176.02593.02593,0,0,0,.02934-.02934q0-.088-.20537-.26406a2.00422,2.00422,0,0,0-.73348-.32273,5.19112,5.19112,0,0,0-1.14423-.176,2.48159,2.48159,0,0,0-2.72854,2.31779,1.06062,1.06062,0,0,0,.55744,1.02687,6.08432,6.08432,0,0,0,1.61366.49877,6.42919,6.42919,0,0,1,1.52563.44009,2.89958,2.89958,0,0,1,1.93639,2.81656,4.46473,4.46473,0,0,1-.32273,1.643,6.5632,6.5632,0,0,1-.96819,1.643,4.24438,4.24438,0,0,1-1.84837,1.29093,7.96675,7.96675,0,0,1-2.75789.49876,4.74572,4.74572,0,0,1-3.198-.85083,2.71443,2.71443,0,0,1-.96819-1.99507,1.9953,1.9953,0,0,1,.61612-1.643,2.02581,2.02581,0,0,1,1.29092-.49877,1.41563,1.41563,0,0,1,.8215.264,1.09225,1.09225,0,0,1,.41075.90952,1.756,1.756,0,0,1-.5281,1.29092,1.44494,1.44494,0,0,1-.90952.52811.22519.22519,0,0,1-.088.02934q-.02934,0-.02934.05867a.63413.63413,0,0,0,.23472.23472,4.09617,4.09617,0,0,0,.90951.38141,5.7706,5.7706,0,0,0,3.43269-.11736,2.52054,2.52054,0,0,0,1.11489-.8215,3.89469,3.89469,0,0,0,.49876-.90951,2.2129,2.2129,0,0,0,.1467-.73348,1.3822,1.3822,0,0,0-.61612-1.23225,3.11874,3.11874,0,0,0-1.40828-.49876,7.26148,7.26148,0,0,1-1.731-.44009,2.7152,2.7152,0,0,1-1.37894-1.02687A2.95321,2.95321,0,0,1,484.78752,22.09668Z"/>
      <g>
        <path id="MJMATHI-74-2" data-name="MJMATHI-74" class="cls-9" d="M495.24348,26.99061q-.1452-.1452-.1452-.20743a1.74459,1.74459,0,0,1,.06223-.33189.85247.85247,0,0,1,.10372-.2904.17816.17816,0,0,1,.18668-.10371q.1452,0,1.05789-.02074h1.09936l.39412-1.65943q.06222-.22816.1452-.60154a4.44851,4.44851,0,0,1,.1452-.53931,3.90467,3.90467,0,0,0,.12445-.41486.761.761,0,0,1,.166-.35263,1.97476,1.97476,0,0,0,.20742-.24891.46743.46743,0,0,1,.2904-.18668,1.71636,1.71636,0,0,1,.37337-.04149.636.636,0,0,1,.51858.22817.69507.69507,0,0,1,.14519.39411,7.88283,7.88283,0,0,1-.18668.97492q-.18669.82971-.41486,1.63868l-.20742.76748a4.90028,4.90028,0,0,0,1.03714.04149h1.05788q.1452.1452.1452.22817a.98105.98105,0,0,1-.26966.726h-2.21948l-.74674,3.0077q-.809,3.31886-.809,3.56777,0,.8712.56006.8712A1.98241,1.98241,0,0,0,499.475,33.732a5.28318,5.28318,0,0,0,1.09937-1.7424q.04147-.12446.10371-.1452a1.82832,1.82832,0,0,1,.31114-.04148h.083q.31114,0,.31115.16594a1.01869,1.01869,0,0,1-.06223.24892,3.90319,3.90319,0,0,1-.37337.78822,7.37269,7.37269,0,0,1-.70526.97491,3.83531,3.83531,0,0,1-1.05788.8712,2.53987,2.53987,0,0,1-1.26531.35263,2.399,2.399,0,0,1-1.18234-.31114,1.79714,1.79714,0,0,1-.809-1.07863,2.60759,2.60759,0,0,1-.04149-.56005v-.37338l.726-2.904q.726-2.92473.74674-2.94548a5.09822,5.09822,0,0,0-1.05788-.04148Z"/>
        <path id="MJMAIN-2B-2" data-name="MJMAIN-2B" class="cls-9" d="M503.35392,30.06054v-.26965a.45185.45185,0,0,1,.2904-.41486h6.2021V26.26461l.02075-3.11142q.20742-.26965.39411-.26966a.45354.45354,0,0,1,.41485.31114V29.376h6.18136a.43214.43214,0,0,1,0,.82971h-6.18136V36.3871q-.16593.2904-.37337.2904h-.083a.4021.4021,0,0,1-.37337-.2904V30.20574h-6.2021a.45183.45183,0,0,1-.2904-.41485Z"/>
        <path id="MJMAIN-31-2" data-name="MJMAIN-31" class="cls-9" d="M522.76919,22.98724l-.26965.10372a5.94638,5.94638,0,0,1-.82972.20743,9.56256,9.56256,0,0,1-1.20308.1452h-.39411v-.95417h.39411a6.74581,6.74581,0,0,0,1.80463-.31114,4.89892,4.89892,0,0,0,1.16159-.49783,5.31822,5.31822,0,0,0,.5808-.45634q.04149-.06223.24892-.06223a.57773.57773,0,0,1,.35262.12445v6.2021l.02075,6.22285a.8213.8213,0,0,0,.24891.18668,2.459,2.459,0,0,0,.49783.083q.39411.04149,1.28605.04149h.53931v.95417H526.98q-.4356-.06224-3.2981-.06223-2.821,0-3.25662.06223h-.24892v-.95417h1.32754a4.98145,4.98145,0,0,0,.51857-.02074,2.031,2.031,0,0,0,.33189-.06223,1.24291,1.24291,0,0,1,.16594-.04149q.02075,0,.12446-.10371t.12445-.083Z"/>
      </g>
    </g>
    <path id="MJMAIN-2C-2" data-name="MJMAIN-2C" class="cls-9" d="M533.98935,29.54884v-.73348a1.83472,1.83472,0,0,1,.46943-1.26159,1.6036,1.6036,0,0,1,1.26158-.5281,1.91784,1.91784,0,0,1,1.467.73348,4.05037,4.05037,0,0,1,.6748,2.58185,7.548,7.548,0,0,1-.264,1.99506,9.12192,9.12192,0,0,1-.61612,1.67234,6.36331,6.36331,0,0,1-.76282,1.2029q-.41074.49876-.70414.79216t-.38141.26405q-.11736,0-.38141-.26405t-.264-.38141q0-.11736.32273-.46943t.73348-.88017a5.631,5.631,0,0,0,.76282-1.467,8.42728,8.42728,0,0,0,.46942-2.14176v-.35207l-.02934.02934a1.13625,1.13625,0,0,1-.14669.05867.74054.74054,0,0,0-.176.088.4801.4801,0,0,1-.264.05868,2.138,2.138,0,0,0-.35207.02934,1.74673,1.74673,0,0,1-1.29092-.49877Z"/>
    <path id="MJMATHI-61-2" data-name="MJMATHI-61" class="cls-9" d="M545.725,25.96946a8.67008,8.67008,0,0,1,2.22978-5.63313,6.56547,6.56547,0,0,1,5.017-2.6992,3.32608,3.32608,0,0,1,2.64052,1.43762,1.468,1.468,0,0,1,1.34961-.88018,1.04979,1.04979,0,0,1,.6748.23471.72252.72252,0,0,1,.29339.58679q0,.38141-1.08555,4.69427t-1.11489,4.8703a1.5696,1.5696,0,0,0,.20538.9682.86186.86186,0,0,0,.61612.26405,1.27483,1.27483,0,0,0,.58678-.26405,6.65278,6.65278,0,0,0,1.20291-2.81656q.176-.58678.29339-.61613a.85815.85815,0,0,1,.29339-.02934h.11736q.55744,0,.55745.26406a4.65968,4.65968,0,0,1-.1467.79215,9.20456,9.20456,0,0,1-.58678,1.58432,4.99858,4.99858,0,0,1-.93886,1.467,2.90094,2.90094,0,0,1-.93885.61612,3.12781,3.12781,0,0,1-.70414.05868,2.99881,2.99881,0,0,1-1.67234-.44009,2.25233,2.25233,0,0,1-.88017-.90951l-.176-.44009q-.02934-.02934-.11736.02934l-.11735.11736a5.14388,5.14388,0,0,1-3.52071,1.643,4.00407,4.00407,0,0,1-2.8459-1.17357A4.94386,4.94386,0,0,1,545.725,25.96946Zm9.32986-5.017a2.656,2.656,0,0,0-.1467-.64546,2.78933,2.78933,0,0,0-.6748-1.02687,1.87541,1.87541,0,0,0-1.3496-.58678,2.81552,2.81552,0,0,0-1.96573.90951,6.13894,6.13894,0,0,0-1.467,2.37648,23.42272,23.42272,0,0,0-1.2029,4.81162v.32274a1.56394,1.56394,0,0,1-.02934.35207,2.464,2.464,0,0,0,.5281,1.819,1.88954,1.88954,0,0,0,1.26159.5281,3.313,3.313,0,0,0,2.20044-.96819,4.93329,4.93329,0,0,0,1.29092-1.4963q.05868-.11736.79216-3.13929T555.05489,20.95245Z"/>
    <path id="MJMAIN-29-2" data-name="MJMAIN-29" class="cls-9" d="M562.03762,8.60065l.11735-.02933h.64547l.82149.70414a14.47853,14.47853,0,0,1,4.01947,6.2199,23.98776,23.98776,0,0,1,1.26159,7.74555,24.49359,24.49359,0,0,1-.29339,3.84344,25.22738,25.22738,0,0,1-.6748,3.13929,13.21514,13.21514,0,0,1-1.08555,2.58185q-.70414,1.29092-1.11489,1.96572a8.92529,8.92529,0,0,1-1.20291,1.4963q-.79216.8215-.93885.9682t-.67481.55744l-.11735.11736h-.6748a.17241.17241,0,0,1-.1467-.088.6907.6907,0,0,1-.088-.26405q.02934-.02934.32273-.38141,4.54758-4.72362,4.54758-13.93612T562.21365,9.3048q-.29339-.35208-.32273-.38141A.34484.34484,0,0,1,562.03762,8.60065Z"/>
  </g>
  <g>
    <path id="MJMATHI-56" class="cls-9" d="M.99458,11.54771a1.3784,1.3784,0,0,1,.37887-1.02H1.694q1.224.08743,3.06014.08743,3.439,0,4.051-.08743h.29144q.17487.17485.17487.2623t-.05829.52459a1.60539,1.60539,0,0,1-.2623.55374h-.612q-.64116.05829-.87432.05829-.84519.14573-.93262.43716,0,.05829.84519,7.3152t.87432,7.31519L10.379,23.58427q2.12753-3.40988,4.25505-6.878t2.18582-3.58474a.86686.86686,0,0,0,.11657-.43716q0-.69946-1.28234-.816-.52459,0-.5246-.32059,0-.02914.05829-.37887a1.56833,1.56833,0,0,1,.17487-.5246.46271.46271,0,0,1,.37887-.11657h.34973q.29145,0,.99091.02914t1.86522.02915q2.011,0,2.53555-.05829h.204q.204.204.204.32058a1.78263,1.78263,0,0,1-.2623.93262.83393.83393,0,0,1-.49545.08743q-.37887.02914-.69946.05829a2.16714,2.16714,0,0,0-.612.14572q-.29143.11658-.46631.204a1.82549,1.82549,0,0,0-.34973.23315,1.62967,1.62967,0,0,1-.29144.204.63344.63344,0,0,0-.23315.2623q-.11658.204-.204.204l-5.62483,9.0347q-5.246,8.481-5.42082,8.685-.08744.05829-.204.14573l-.5246.02914h-.204q-.5246,0-.52459-.204-.08744-.17487-1.13663-9.32614Q3.53012,12.27633,3.501,12.18889q-.14573-.3206-1.80694-.32059H1.19859A.40374.40374,0,0,1,.99458,11.54771Z"/>
    <g>
      <path id="MJMATHI-3C0-3" data-name="MJMATHI-3C0" class="cls-9" d="M26.2429,18.6524a.61028.61028,0,0,1-.70057-.68v-.22666l.26786-.57694a39.92543,39.92543,0,0,0,2.24594-5.62515l.16484-.49452h-.65936A6.8693,6.8693,0,0,0,26.449,11.111a2.22932,2.22932,0,0,0-.8036.39149,2.6923,2.6923,0,0,0-.45331.37089,5.30993,5.30993,0,0,0-.39149.43271,2.53558,2.53558,0,0,0-.18544.24726,1.17535,1.17535,0,0,1-.30908.0206q-.39148,0-.39149-.20605a2.4878,2.4878,0,0,1,.39149-.72117,7.00734,7.00734,0,0,1,1.13327-1.27751,2.80135,2.80135,0,0,1,1.463-.783q.14423-.04121,4.63611-.04121,3.29679,0,3.37921.02061a.56255.56255,0,0,1,.4121.57694.86056.86056,0,0,1-.65936.8654,11.17332,11.17332,0,0,1-1.42174.04121H31.92986l-.06181.35029a15.46577,15.46577,0,0,0-.24726,2.452,8.978,8.978,0,0,0,.18544,1.91626,7.44429,7.44429,0,0,0,.3915,1.31871,2.40322,2.40322,0,0,1,.206.57694.95491.95491,0,0,1-.28847.65936.96918.96918,0,0,1-.74178.30908.94957.94957,0,0,1-.37089-.06182q-.14424-.06181-.32968-.49452a5.95245,5.95245,0,0,1-.32968-1.23629q-.0206-.18544-.0206-.90662a13.67433,13.67433,0,0,1,.18544-2.16352q.18544-1.15388.37089-1.89566l.206-.8242H29.06578l-.02061.08242q0,.06182-.39149,1.62779t-.886,3.3174a15.35456,15.35456,0,0,1-.63875,1.99868A.86637.86637,0,0,1,26.2429,18.6524Z"/>
      <g>
        <path id="MJMATHI-6F-3" data-name="MJMATHI-6F" class="cls-9" d="M38.28458,11.12512a2.30583,2.30583,0,0,1-1.76322-.714A2.42281,2.42281,0,0,1,35.851,8.69158a3.84746,3.84746,0,0,1,.43716-1.79237,4.69565,4.69565,0,0,1,1.19492-1.47178,3.58793,3.58793,0,0,1,2.25867-.8889q.4663,0,.58289.01458.18943.04371.37887.102a2.9923,2.9923,0,0,1,.51.23315,1.661,1.661,0,0,1,.5246.43717,2.8406,2.8406,0,0,1,.37887.714,2.80784,2.80784,0,0,1,.17487,1.02005,3.88838,3.88838,0,0,1-1.2532,2.81241A3.82957,3.82957,0,0,1,38.28458,11.12512ZM37.11881,9.21618A1.21082,1.21082,0,0,0,38.35744,10.586a1.87642,1.87642,0,0,0,1.20949-.46631,3.25078,3.25078,0,0,0,.90347-1.22406,8.878,8.878,0,0,0,.33516-1.07833,5.35953,5.35953,0,0,0,.204-1.34064,1.55913,1.55913,0,0,0-.26229-.97633,1.13377,1.13377,0,0,0-.93262-.43716,2.05963,2.05963,0,0,0-1.6175.84518,4.15758,4.15758,0,0,0-.80147,1.70494A8.31432,8.31432,0,0,0,37.11881,9.21618Z"/>
        <path id="MJMATHI-66-5" data-name="MJMATHI-66" class="cls-9" d="M44.14257,13.32551a.2237.2237,0,0,1,.08743.02915.53624.53624,0,0,0,.16029.04371,1.26346,1.26346,0,0,0,.17487.01457.45828.45828,0,0,0,.34973-.18943,1.20475,1.20475,0,0,0,.23315-.42259,20.6172,20.6172,0,0,0,.49545-2.22954q.34974-1.83607.67032-3.4973t.32059-1.67579V5.35457h-.68489a3.93271,3.93271,0,0,1-.72861-.02914.17048.17048,0,0,1-.05829-.14572l.102-.408a.11341.11341,0,0,1,.11658-.07286q.08742,0,.68488-.01457a6.30548,6.30548,0,0,0,.69946-.01458q0-.02914.13115-.7286t.17487-.84518Q47.61072.6915,49.19909.6915a1.4713,1.4713,0,0,1,.88889.32059.95522.95522,0,0,1,.34973.77232.89216.89216,0,0,1-.306.75775,1.09718,1.09718,0,0,1-.612.24772q-.64117,0-.64117-.612a.75534.75534,0,0,1,.16029-.48088,1.13467,1.13467,0,0,1,.34973-.306l.13115-.07286a1.24862,1.24862,0,0,0-.43716-.08743.49466.49466,0,0,0-.33516.14572.75468.75468,0,0,0-.21858.408q-.102.42258-.23315,1.13662t-.23316,1.20949q-.102.49545-.102.52459a4.15958,4.15958,0,0,0,.80146.02915q.65575,0,.75775.01457a.24.24,0,0,1,.16029.08743.68183.68183,0,0,1-.02914.24773.92651.92651,0,0,1-.07286.23315.12518.12518,0,0,1-.13115.07286q-.102,0-.78689.01457h-.816l-.33516,1.7778q-.69947,3.61388-.97633,4.51735a4.29884,4.29884,0,0,1-1.02,1.83608,1.64275,1.64275,0,0,1-1.06376.46631,1.3985,1.3985,0,0,1-.84518-.27687.91664.91664,0,0,1-.37888-.78689.95341.95341,0,0,1,.306-.7869.97352.97352,0,0,1,.612-.24772q.64116,0,.64117.612a.75534.75534,0,0,1-.16029.48088,1.13478,1.13478,0,0,1-.34973.306Z"/>
        <path id="MJMATHI-66-6" data-name="MJMATHI-66" class="cls-9" d="M52.17179,13.32551a.22374.22374,0,0,1,.08744.02915.53624.53624,0,0,0,.16029.04371,1.26334,1.26334,0,0,0,.17487.01457.4583.4583,0,0,0,.34973-.18943,1.20475,1.20475,0,0,0,.23315-.42259,20.6172,20.6172,0,0,0,.49545-2.22954q.34973-1.83607.67032-3.4973t.32058-1.67579V5.35457h-.68489a3.93255,3.93255,0,0,1-.7286-.02914.17048.17048,0,0,1-.05829-.14572l.102-.408a.1134.1134,0,0,1,.11657-.07286q.08743,0,.68489-.01457a6.30548,6.30548,0,0,0,.69946-.01458q0-.02914.13115-.7286t.17487-.84518Q55.64.6915,57.22831.6915a1.47131,1.47131,0,0,1,.8889.32059.95522.95522,0,0,1,.34973.77232.89216.89216,0,0,1-.306.75775,1.09718,1.09718,0,0,1-.612.24772q-.64118,0-.64117-.612A.75534.75534,0,0,1,57.068,1.697a1.13467,1.13467,0,0,1,.34973-.306l.13115-.07286a1.2487,1.2487,0,0,0-.43716-.08743.49466.49466,0,0,0-.33516.14572.75468.75468,0,0,0-.21858.408q-.102.42258-.23316,1.13662t-.23315,1.20949q-.102.49545-.102.52459a4.15974,4.15974,0,0,0,.80147.02915q.65574,0,.75775.01457a.24.24,0,0,1,.16029.08743.68183.68183,0,0,1-.02914.24773.927.927,0,0,1-.07286.23315A.12518.12518,0,0,1,57.476,5.34q-.102,0-.78689.01457h-.816L55.538,7.13237q-.69946,3.61388-.97633,4.51735a4.29884,4.29884,0,0,1-1.02,1.83608,1.64275,1.64275,0,0,1-1.06376.46631,1.3985,1.3985,0,0,1-.84518-.27687.91662.91662,0,0,1-.37888-.78689.95341.95341,0,0,1,.306-.7869.97349.97349,0,0,1,.612-.24772q.64118,0,.64118.612a.75529.75529,0,0,1-.1603.48088,1.13467,1.13467,0,0,1-.34973.306Z"/>
      </g>
    </g>
    <path id="MJMAIN-28-3" data-name="MJMAIN-28" class="cls-9" d="M66.19016,23.14711a23.97065,23.97065,0,0,1,.29144-3.81789,26.71,26.71,0,0,1,.67031-3.11843,12.204,12.204,0,0,1,1.07834-2.56469q.69947-1.25321,1.10748-1.95266a7.74036,7.74036,0,0,1,1.22406-1.5155q.816-.816.96175-.99091a5.25325,5.25325,0,0,1,.72861-.612h.49545q.408,0,.408.26229a2.35487,2.35487,0,0,1-.49545.612A13.23023,13.23023,0,0,0,71.46526,10.994a20.16275,20.16275,0,0,0-1.42807,2.5064,16.58,16.58,0,0,0-1.22406,4.0219,29.41505,29.41505,0,0,0-.49545,5.62483,28.95761,28.95761,0,0,0,.49545,5.59568,18.92748,18.92748,0,0,0,1.19492,4.05105,13.19911,13.19911,0,0,0,1.42806,2.5064q.72861.96175,1.22406,1.54464a6.58323,6.58323,0,0,1,.49545.612q0,.2623-.43716.2623h-.46631l-.816-.69946a14.38239,14.38239,0,0,1-3.99275-6.17857A23.82832,23.82832,0,0,1,66.19016,23.14711Z"/>
    <g>
      <path id="MJMATHI-73-3" data-name="MJMATHI-73" class="cls-9" d="M78.63473,22.01048a4.319,4.319,0,0,1,.46631-1.89437,4.79474,4.79474,0,0,1,1.63207-1.7778,4.65664,4.65664,0,0,1,2.827-.78689,3.68216,3.68216,0,0,1,2.623.78689,2.497,2.497,0,0,1,.84518,1.74866,1.73563,1.73563,0,0,1-.49545,1.36977,1.76565,1.76565,0,0,1-1.10748.46631,1.16412,1.16412,0,0,1-.69946-.23315.9429.9429,0,0,1-.34973-.75775,1.32253,1.32253,0,0,1,.26229-.816,2.61839,2.61839,0,0,1,.49546-.5246.7053.7053,0,0,1,.37887-.17486.02576.02576,0,0,0,.02915-.02914q0-.08743-.204-.2623a1.99075,1.99075,0,0,0-.72861-.32059,5.15658,5.15658,0,0,0-1.13662-.17486,2.46509,2.46509,0,0,0-2.71041,2.30239,1.05357,1.05357,0,0,0,.55374,1.02,6.04418,6.04418,0,0,0,1.60293.49546,6.38629,6.38629,0,0,1,1.5155.43716,2.88031,2.88031,0,0,1,1.92351,2.79784,4.435,4.435,0,0,1-.32058,1.63208,6.5193,6.5193,0,0,1-.96176,1.63207,4.216,4.216,0,0,1-1.83609,1.28235A7.91374,7.91374,0,0,1,80.5,30.7246a4.71419,4.71419,0,0,1-3.17672-.84518,2.6964,2.6964,0,0,1-.96176-1.98181,1.982,1.982,0,0,1,.612-1.63207,2.01239,2.01239,0,0,1,1.28234-.49545,1.40622,1.40622,0,0,1,.816.26229,1.085,1.085,0,0,1,.408.90347,1.74433,1.74433,0,0,1-.52459,1.28235,1.43531,1.43531,0,0,1-.90347.52459.22374.22374,0,0,1-.08744.02915q-.02914,0-.02914.05829a.63.63,0,0,0,.23315.23315,4.06881,4.06881,0,0,0,.90347.37887,5.73223,5.73223,0,0,0,3.40987-.11657,2.50374,2.50374,0,0,0,1.10748-.816,3.86894,3.86894,0,0,0,.49546-.90347,2.19841,2.19841,0,0,0,.14572-.7286,1.373,1.373,0,0,0-.612-1.22406,3.09813,3.09813,0,0,0-1.39892-.49545A7.21262,7.21262,0,0,1,80.5,24.72089a2.69711,2.69711,0,0,1-1.36978-1.02A2.93358,2.93358,0,0,1,78.63473,22.01048Z"/>
      <g>
        <path id="MJMATHI-74-3" data-name="MJMATHI-74" class="cls-9" d="M89.0212,26.87188q-.14424-.14423-.14424-.20605a1.73268,1.73268,0,0,1,.06182-.32968.84694.84694,0,0,1,.103-.28847.177.177,0,0,1,.18545-.103q.14423,0,1.05085-.02061h1.09206l.3915-1.64839q.06181-.22665.14423-.59755a4.42033,4.42033,0,0,1,.14424-.53572,3.87865,3.87865,0,0,0,.12363-.4121A.75591.75591,0,0,1,92.3386,22.38a1.96141,1.96141,0,0,0,.206-.24726.46435.46435,0,0,1,.28847-.18544,1.70527,1.70527,0,0,1,.37089-.04121.6318.6318,0,0,1,.51513.22665.69045.69045,0,0,1,.14423.3915,7.83124,7.83124,0,0,1-.18544.96843q-.18545.8242-.4121,1.62779l-.20605.76238a4.86763,4.86763,0,0,0,1.03025.04121h1.05085q.14424.14424.14423.22666a.9745.9745,0,0,1-.26786.72117H92.81251l-.74178,2.98772q-.8036,3.29679-.80359,3.544,0,.86541.55633.86541a1.96923,1.96923,0,0,0,1.40114-.70057,5.24787,5.24787,0,0,0,1.09206-1.73082q.0412-.12361.103-.14423a1.81468,1.81468,0,0,1,.30907-.04121h.08242q.30908,0,.30907.16484a1.01151,1.01151,0,0,1-.06181.24726,3.87626,3.87626,0,0,1-.37089.783,7.32511,7.32511,0,0,1-.70057.96843,3.8098,3.8098,0,0,1-1.05085.86541,2.52306,2.52306,0,0,1-1.2569.35028,2.38314,2.38314,0,0,1-1.17449-.30907,1.78522,1.78522,0,0,1-.80359-1.07146,2.59076,2.59076,0,0,1-.04121-.55633v-.37089l.72118-2.8847q.72117-2.90529.74177-2.9259a5.0636,5.0636,0,0,0-1.05085-.04121Z"/>
        <path id="MJMAIN-2B-3" data-name="MJMAIN-2B" class="cls-9" d="M97.07773,29.92141v-.26786a.44884.44884,0,0,1,.28847-.4121h6.16088V26.15071l.02061-3.09074q.206-.26787.39149-.26787a.45054.45054,0,0,1,.4121.30908v6.14027h6.14028a.42927.42927,0,0,1,0,.8242h-6.14028v6.14027q-.16484.28848-.37089.28847H103.898a.39942.39942,0,0,1-.37089-.28847V30.06565H97.3662a.44884.44884,0,0,1-.28847-.4121Z"/>
        <path id="MJMAIN-31-3" data-name="MJMAIN-31" class="cls-9" d="M116.364,22.89513l-.26787.103a5.90542,5.90542,0,0,1-.82419.20605,9.50005,9.50005,0,0,1-1.19509.14424h-.3915v-.94783h.3915a6.70087,6.70087,0,0,0,1.79263-.30908,4.86548,4.86548,0,0,0,1.15388-.49452,5.28285,5.28285,0,0,0,.57694-.4533q.04121-.06181.24725-.06182a.5739.5739,0,0,1,.35029.12363V27.3664l.0206,6.18149a.81608.81608,0,0,0,.24726.18544,2.4437,2.4437,0,0,0,.49452.08242q.3915.0412,1.27751.04121h.53573v.94783h-.22666q-.4327-.06181-3.27618-.06182-2.80228,0-3.235.06182h-.24726V33.857h1.31872a4.95073,4.95073,0,0,0,.51512-.0206,2.01838,2.01838,0,0,0,.32968-.06182,1.2354,1.2354,0,0,1,.16484-.04121q.02061,0,.12363-.103t.12363-.08242Z"/>
      </g>
    </g>
    <path id="MJMAIN-29-3" data-name="MJMAIN-29" class="cls-9" d="M126.95582,8.60415l.11657-.02914h.64118l.816.69946a14.38238,14.38238,0,0,1,3.99276,6.17857,23.82823,23.82823,0,0,1,1.2532,7.69407,24.33073,24.33073,0,0,1-.29144,3.81789,25.05973,25.05973,0,0,1-.67032,3.11843,13.12638,13.12638,0,0,1-1.07834,2.56469q-.69945,1.28234-1.10747,1.95266a8.86551,8.86551,0,0,1-1.19492,1.48635q-.78688.816-.93261.96176t-.67032.55374l-.11657.11658h-.67032a.17127.17127,0,0,1-.14572-.08743.68613.68613,0,0,1-.08744-.2623q.02914-.02914.32059-.37888,4.51735-4.69221,4.51735-13.84349t-4.51735-13.8435q-.29143-.34973-.32059-.37887A.34255.34255,0,0,1,126.95582,8.60415Z"/>
  </g>
  <path id="MJMAIN-3D" class="cls-9" d="M151.10144,20.50271a.73437.73437,0,0,1,.472-.67426H173.0488a.784.784,0,0,1,.5057.67426.76486.76486,0,0,1-.472.64055l-10.72083.03372H151.64085A.66821.66821,0,0,1,151.10144,20.50271Zm0,6.54038a.66819.66819,0,0,1,.53941-.67426h21.44166q.472.33713.472.67426a.73719.73719,0,0,1-.5057.67427H151.57342A.73439.73439,0,0,1,151.10144,27.04309Z"/>
</svg>
