<svg id="Layer_1" data-name="Layer 1" xmlns="http://www.w3.org/2000/svg" viewBox="0 0 580 160.90809">
  <defs>
    <style>
      .cls-1 {
        fill: #e7ebe8;
      }

      .cls-2 {
        fill: #fff;
      }

      .cls-3 {
        fill: #58595b;
      }

      .cls-4 {
        fill: #b2b3c3;
      }

      .cls-5, .cls-8 {
        fill: #ef4136;
      }

      .cls-5, .cls-7 {
        opacity: 0.5;
      }

      .cls-6 {
        fill: #010101;
      }

      .cls-7, .cls-9 {
        fill: #70a8da;
      }

      .cls-10 {
        font-size: 15.28267px;
        fill: #6d6e71;
        font-family: Roboto-Regular, Roboto;
      }

      .cls-11 {
        letter-spacing: -0.00735em;
      }

      .cls-12 {
        letter-spacing: 0.00006em;
      }
    </style>
  </defs>
  <title>off-policy-value</title>
  <rect class="cls-1" x="298.09935" y="36.20425" width="97.23467" height="97.23467"/>
  <polygon class="cls-2" points="310.897 84.82 320.965 105.034 320.965 64.605 310.897 84.82"/>
  <polygon class="cls-3" points="346.619 120.893 366.833 110.825 326.404 110.825 346.619 120.893"/>
  <polygon class="cls-4" points="382.536 84.842 372.468 64.628 372.468 105.056 382.536 84.842"/>
  <polygon class="cls-4" points="346.619 48.959 326.404 59.027 366.833 59.027 346.619 48.959"/>
  <rect class="cls-1" x="1.64618" y="36.41007" width="97.23467" height="97.23467"/>
  <circle class="cls-2" cx="51.29472" cy="86.24181" r="30.79776"/>
  <circle class="cls-5" cx="51.29206" cy="86.27856" r="30.79776"/>
  <g>
    <path id="MJMAIN-3D" class="cls-6" d="M152.59412,81.379a.824.824,0,0,1,.5296-.75657h24.09667a.87969.87969,0,0,1,.56743.75657.85823.85823,0,0,1-.5296.71874l-12.02942.03783H153.19937A.74976.74976,0,0,1,152.59412,81.379Zm0,7.33871a.74976.74976,0,0,1,.60525-.75657h24.05885q.52959.37828.5296.75657a.82714.82714,0,0,1-.56743.75656H153.12372A.824.824,0,0,1,152.59412,88.71775Z"/>
    <path id="MJSZ2-2211" class="cls-6" d="M217.88589,58.64419q.11349-.07566,22.88617-.07566h22.77268l2.19405,5.10683q2.23188,5.22031,2.38319,5.52294h-1.51314l-.2648-.52959a12.78039,12.78039,0,0,0-2.11839-2.95062,15.87809,15.87809,0,0,0-4.19895-2.91278,20.71277,20.71277,0,0,0-5.3338-1.62662,44.00433,44.00433,0,0,0-5.71208-.64308q-2.68581-.11349-6.92259-.15132H225.11111l.30263.41612q17.51454,23.94536,17.5902,24.17233a.341.341,0,0,1,0,.227q-.11349.11348-9.9867,11.42417l-9.98669,11.34851q0,.03783,7.98179.03783h5.3338q3.36672,0,4.842.03783,5.14467,0,8.32225-.18915a48.59277,48.59277,0,0,0,6.31733-.79439,17.42105,17.42105,0,0,0,5.33381-1.85359,14.18613,14.18613,0,0,0,3.89632-3.29107,11.98766,11.98766,0,0,0,1.551-2.72364H268.122q0,.03782-.2648.79439t-.94571,2.45885q-.68091,1.70228-1.17268,3.17758l-2.19405,5.8634-22.73485.03783q-22.77269,0-22.88617-.07566a.32136.32136,0,0,1-.227-.34046.58071.58071,0,0,1,.07566-.227l20.16252-23.0753q0-.03783-1.24833-1.70228t-3.972-5.44729q-2.72364-3.78284-4.91769-6.73345L217.73458,60.1195l-.03783-.56743Q217.69675,58.75767,217.88589,58.64419Z"/>
  </g>
  <path id="MJMAIN-22C5" class="cls-6" d="M435.67439,86.99608a2.24114,2.24114,0,0,1,.64308-1.58879,2.14148,2.14148,0,0,1,1.62662-.68091,2.31671,2.31671,0,0,1,1.58879.60525,2.18284,2.18284,0,0,1,.71874,1.62662,2.2867,2.2867,0,0,1-.64308,1.62662,2.14148,2.14148,0,0,1-1.62662.68091,2.20456,2.20456,0,0,1-1.62662-.64308A2.33917,2.33917,0,0,1,435.67439,86.99608Z"/>
  <rect class="cls-1" x="481.32318" y="36.21811" width="97.23467" height="97.23467"/>
  <polygon class="cls-2" points="565.711 84.879 555.644 64.664 555.644 105.093 565.711 84.879"/>
  <polygon class="cls-2" points="494.074 84.833 504.142 105.048 504.142 64.619 494.074 84.833"/>
  <polygon class="cls-7" points="494.121 84.833 504.189 105.048 504.189 64.619 494.121 84.833"/>
  <polygon class="cls-8" points="529.843 120.907 550.057 110.839 509.628 110.839 529.843 120.907"/>
  <polygon class="cls-5" points="565.76 84.856 555.692 64.641 555.692 105.07 565.76 84.856"/>
  <polygon class="cls-9" points="529.843 48.973 509.628 59.041 550.057 59.041 529.843 48.973"/>
  <g>
    <path id="MJMATHI-56" class="cls-6" d="M2.073,4.84861a1.201,1.201,0,0,1,.3301-.88875h.27933Q3.74892,4.036,5.34867,4.036q2.99635,0,3.5296-.07618H9.1322q.15236.15235.15236.22853t-.05079.45707a1.39885,1.39885,0,0,1-.22853.48247H8.472q-.55864.05078-.76179.05078-.7364.127-.81257.3809,0,.05078.73639,6.37359t.76179,6.3736l1.85367-2.971q1.85369-2.971,3.70735-5.9927T15.8613,6.21982a.75535.75535,0,0,0,.10157-.38089q0-.60944-1.11729-.711-.45707,0-.45707-.27932,0-.02539.05079-.33011a1.36641,1.36641,0,0,1,.15235-.45707.40316.40316,0,0,1,.33011-.10157h.30472q.25392,0,.86335.02539t1.62514.02539q1.75211,0,2.20918-.05078h.17775q.17775.17775.17775.27932a1.55319,1.55319,0,0,1-.22854.81257.72657.72657,0,0,1-.43168.07618q-.3301.0254-.60943.05078a1.888,1.888,0,0,0-.53324.127q-.25393.10156-.40629.17775a1.58973,1.58973,0,0,0-.30471.20314,1.42065,1.42065,0,0,1-.25393.17775.55184.55184,0,0,0-.20314.22853q-.10158.17776-.17775.17775l-4.90082,7.87178q-4.57069,7.3893-4.72306,7.56706-.07618.05077-.17775.127l-.45707.02539H6.69449q-.45707,0-.45707-.17775-.07619-.15235-.99032-8.1257-.96493-8.0749-.99032-8.15109-.127-.27931-1.57435-.27932H2.25075A.35177.35177,0,0,1,2.073,4.84861Z"/>
    <g>
      <path id="MJMATHI-3C0" class="cls-6" d="M24.0714,11.03879a.53172.53172,0,0,1-.61039-.59244v-.19748l.23338-.50267a34.78741,34.78741,0,0,0,1.95685-4.9011l.14362-.43086h-.57448a5.98471,5.98471,0,0,0-.96945.05386,1.94209,1.94209,0,0,0-.70016.3411,2.34523,2.34523,0,0,0-.395.32315,4.62724,4.62724,0,0,0-.3411.377,2.21109,2.21109,0,0,0-.16157.21544,1.0241,1.0241,0,0,1-.26929.018q-.3411,0-.34111-.17953a2.16762,2.16762,0,0,1,.34111-.62834,6.10451,6.10451,0,0,1,.9874-1.11307,2.44076,2.44076,0,0,1,1.27464-.68221q.12567-.0359,4.03936-.0359,2.87244,0,2.94425.018a.49014.49014,0,0,1,.359.50268.74978.74978,0,0,1-.57449.754,9.73512,9.73512,0,0,1-1.23873.03591h-1.149l-.05386.30519a13.47523,13.47523,0,0,0-.21543,2.13638,7.82208,7.82208,0,0,0,.16158,1.6696,6.48527,6.48527,0,0,0,.3411,1.149,2.09388,2.09388,0,0,1,.17953.50268.832.832,0,0,1-.25134.57449.84446.84446,0,0,1-.6463.26929.82726.82726,0,0,1-.32315-.05386q-.12567-.05386-.28724-.43087A5.18559,5.18559,0,0,1,27.644,9.459q-.018-.16156-.01795-.78992a11.915,11.915,0,0,1,.16157-1.885q.16158-1.00536.32315-1.65165l.17953-.71811H26.53092l-.01795.07181q0,.05385-.3411,1.41826t-.772,2.89039a13.378,13.378,0,0,1-.55653,1.74141A.75486.75486,0,0,1,24.0714,11.03879Z"/>
      <path id="MJMAIN-32" class="cls-6" d="M33.31886,8.09889a.694.694,0,0,1-.54595-.22854.81088.81088,0,0,1-.20314-.55864,2.11536,2.11536,0,0,1,.67291-1.56166,2.29766,2.29766,0,0,1,1.67592-.66021,2.74556,2.74556,0,0,1,1.92986.711,2.424,2.424,0,0,1,.78717,1.841,2.25157,2.25157,0,0,1-.25392,1.0411,3.593,3.593,0,0,1-.60943.86336q-.3555.36819-1.01571.93953-.45708.39358-1.26965,1.16807l-.74908.711.96492.0127a15.23815,15.23815,0,0,0,2.1203-.06349,3.44187,3.44187,0,0,0,.30472-1.13V11.146h.50785v.03809q-.01269.0381-.16505,1.15538a9.47439,9.47439,0,0,1-.19045,1.16807v.03809H32.56977v-.39359a.324.324,0,0,1,.07618-.19045q.07617-.10157.38089-.44437.36819-.40629.63482-.711.11427-.127.43168-.46977t.43167-.46977q.11427-.127.3682-.419t.3555-.43168q.10156-.13965.292-.38089a2.1671,2.1671,0,0,0,.26662-.40628q.07618-.16506.19045-.3682a1.64121,1.64121,0,0,0,.16505-.40628q.05079-.20314.08888-.3809a2.02158,2.02158,0,0,0,.03808-.419,2.2639,2.2639,0,0,0-.43167-1.38391,1.43976,1.43976,0,0,0-1.23155-.584,1.278,1.278,0,0,0-.7364.21584,1.52942,1.52942,0,0,0-.44437.419.90489.90489,0,0,0-.127.24123q0,.0127.06348.0127a.79593.79593,0,0,1,.46976.17775.67728.67728,0,0,1,.24124.584.7484.7484,0,0,1-.20315.53325A.786.786,0,0,1,33.31886,8.09889Z"/>
    </g>
    <path id="MJMAIN-28" class="cls-6" d="M45.01225,14.955a20.88651,20.88651,0,0,1,.25392-3.32646,23.27334,23.27334,0,0,1,.584-2.717,10.63308,10.63308,0,0,1,.93953-2.23457q.60943-1.0919.96493-1.70132a6.74462,6.74462,0,0,1,1.0665-1.32043q.711-.711.838-.86335a4.57646,4.57646,0,0,1,.63482-.53325h.43168q.3555,0,.3555.22854a2.05179,2.05179,0,0,1-.43168.53324,11.52978,11.52978,0,0,0-1.0411,1.34582A17.56678,17.56678,0,0,0,48.3641,6.54993a14.44551,14.44551,0,0,0-1.0665,3.5042,25.6285,25.6285,0,0,0-.43168,4.90082,25.22993,25.22993,0,0,0,.43168,4.87542A16.49149,16.49149,0,0,0,48.3387,23.36a11.50065,11.50065,0,0,0,1.24425,2.18378q.63483.838,1.0665,1.34582a5.73481,5.73481,0,0,1,.43168.53325q0,.22854-.38089.22853H50.294l-.711-.60942a12.53115,12.53115,0,0,1-3.47881-5.38328A20.76108,20.76108,0,0,1,45.01225,14.955Z"/>
    <path id="MJMATHI-73" class="cls-6" d="M55.855,13.96463a3.76317,3.76317,0,0,1,.40628-1.65054,4.17762,4.17762,0,0,1,1.422-1.549,4.05719,4.05719,0,0,1,2.4631-.6856,3.20819,3.20819,0,0,1,2.28536.6856,2.17557,2.17557,0,0,1,.73639,1.52357,1.5122,1.5122,0,0,1-.43168,1.19346,1.53844,1.53844,0,0,1-.96493.40629,1.01427,1.01427,0,0,1-.60942-.20314.82153.82153,0,0,1-.30472-.66022,1.15229,1.15229,0,0,1,.22854-.711,2.28093,2.28093,0,0,1,.43168-.45707.61447.61447,0,0,1,.3301-.15235.02245.02245,0,0,0,.02539-.0254q0-.07617-.17775-.22853a1.73431,1.73431,0,0,0-.63482-.27932,4.49259,4.49259,0,0,0-.99032-.15236,2.1478,2.1478,0,0,0-2.36153,2.006.918.918,0,0,0,.48247.88875,5.266,5.266,0,0,0,1.3966.43168,5.56454,5.56454,0,0,1,1.32043.38089,2.50957,2.50957,0,0,1,1.67592,2.43771,3.864,3.864,0,0,1-.27932,1.422,5.67987,5.67987,0,0,1-.838,1.422A3.67343,3.67343,0,0,1,59.867,21.1254a6.895,6.895,0,0,1-2.38692.43168,4.10741,4.10741,0,0,1-2.76782-.73639,2.34931,2.34931,0,0,1-.838-1.72671,1.72692,1.72692,0,0,1,.53325-1.422,1.75331,1.75331,0,0,1,1.11728-.43168,1.22518,1.22518,0,0,1,.711.22854.94532.94532,0,0,1,.3555.78717,1.51983,1.51983,0,0,1-.45707,1.11729,1.2506,1.2506,0,0,1-.78718.45707.19486.19486,0,0,1-.07618.02539q-.0254,0-.02539.05079a.54883.54883,0,0,0,.20314.20314,3.54492,3.54492,0,0,0,.78718.3301,4.99435,4.99435,0,0,0,2.971-.10157,2.18146,2.18146,0,0,0,.96493-.711,3.37076,3.37076,0,0,0,.43167-.78717,1.91514,1.91514,0,0,0,.127-.63482,1.19627,1.19627,0,0,0-.53325-1.0665,2.69936,2.69936,0,0,0-1.21886-.43168,6.28421,6.28421,0,0,1-1.49817-.38089,2.34982,2.34982,0,0,1-1.19346-.88875A2.55591,2.55591,0,0,1,55.855,13.96463Z"/>
    <path id="MJMAIN-29" class="cls-6" d="M65.96132,2.28393l.10157-.02539h.55864l.711.60943a12.53117,12.53117,0,0,1,3.47882,5.38327A20.76146,20.76146,0,0,1,71.90324,14.955a21.19907,21.19907,0,0,1-.25393,3.32646,21.83386,21.83386,0,0,1-.584,2.717,11.437,11.437,0,0,1-.93953,2.23456q-.60944,1.11729-.96493,1.70132a7.7243,7.7243,0,0,1-1.0411,1.295q-.68561.711-.81257.838t-.584.48246l-.10157.10157h-.584a.14923.14923,0,0,1-.127-.07617.598.598,0,0,1-.07618-.22854q.0254-.0254.27932-.33011,3.9359-4.08824,3.93589-12.06158T66.11367,2.89336q-.25392-.30471-.27932-.33011A.29847.29847,0,0,1,65.96132,2.28393Z"/>
  </g>
  <text class="cls-10" transform="translate(0.55707 155.90097)">Off-policy <tspan class="cls-11" x="69.05566" y="0">v</tspan><tspan class="cls-12" x="76.3457" y="0">alue estimation</tspan></text>
  <g>
    <path id="MJMATHI-3C0-2" data-name="MJMATHI-3C0" class="cls-6" d="M303.02864,25.3716a.87028.87028,0,0,1-.999-.96965v-.32321l.382-.82273a56.9364,56.9364,0,0,0,3.20276-8.02157l.23506-.7052h-.94025a9.7969,9.7969,0,0,0-1.58669.08815,3.17892,3.17892,0,0,0-1.14594.55828,3.838,3.838,0,0,0-.64643.5289,7.57113,7.57113,0,0,0-.55828.617,3.61923,3.61923,0,0,0-.26444.3526,1.67542,1.67542,0,0,1-.44075.02938q-.55827,0-.55828-.29383a3.54772,3.54772,0,0,1,.55828-1.02841,9.99226,9.99226,0,0,1,1.61607-1.82175,3.99473,3.99473,0,0,1,2.0862-1.11656q.20568-.05876,6.61119-.05876,4.70128,0,4.81882.02938a.8022.8022,0,0,1,.58766.82273,1.22719,1.22719,0,0,1-.94025,1.23409,15.93827,15.93827,0,0,1-2.02744.05876h-1.88051l-.08815.49952a22.05373,22.05373,0,0,0-.3526,3.49658,12.80274,12.80274,0,0,0,.26445,2.73263,10.61633,10.61633,0,0,0,.55828,1.88051,3.42658,3.42658,0,0,1,.29383.82273,1.36169,1.36169,0,0,1-.41137.94026,1.38206,1.38206,0,0,1-1.05779.44074,1.354,1.354,0,0,1-.52889-.08815q-.20568-.08814-.47013-.70519a8.48763,8.48763,0,0,1-.47013-1.763q-.02938-.26445-.02938-1.29286a19.501,19.501,0,0,1,.26444-3.08522q.26445-1.64546.5289-2.70324l.29383-1.17533h-2.87954l-.02938.11754q0,.08814-.55828,2.32126T305.203,21.69871a21.8965,21.8965,0,0,1-.91088,2.85016A1.23548,1.23548,0,0,1,303.02864,25.3716Z"/>
    <path id="MJMAIN-32-2" data-name="MJMAIN-32" class="cls-6" d="M318.15813,20.56123a1.13548,1.13548,0,0,1-.89328-.37392,1.32684,1.32684,0,0,1-.33238-.914,3.46115,3.46115,0,0,1,1.101-2.55518,3.75944,3.75944,0,0,1,2.74214-1.08024,4.49228,4.49228,0,0,1,3.15762,1.16333,3.96613,3.96613,0,0,1,1.288,3.01221,3.684,3.684,0,0,1-.41547,1.70345,5.8787,5.8787,0,0,1-.99715,1.41262q-.58167.60244-1.6619,1.53726-.74787.644-2.07739,1.9112l-1.22565,1.16333,1.57881.02078a24.938,24.938,0,0,0,3.46923-.10387,5.632,5.632,0,0,0,.49857-1.84887V25.547h.83095v.06233q-.02077.06231-.27006,1.89041a15.50822,15.50822,0,0,1-.3116,1.9112v.06232h-7.7071v-.644a.53017.53017,0,0,1,.12465-.31161q.12464-.16619.62321-.72708.60244-.66477,1.03869-1.16334.187-.20773.70631-.76863t.70631-.76863q.187-.20773.60244-.68554t.58167-.70631q.1662-.22851.4778-.62321a3.5456,3.5456,0,0,0,.43625-.66476q.12465-.27006.31161-.60245a2.68515,2.68515,0,0,0,.27006-.66476q.08308-.33239.14541-.62321a3.30711,3.30711,0,0,0,.06233-.68554,3.70417,3.70417,0,0,0-.70631-2.26435,2.3557,2.3557,0,0,0-2.01507-.95559,2.09108,2.09108,0,0,0-1.20488.35315,2.50246,2.50246,0,0,0-.72708.68554,1.48056,1.48056,0,0,0-.20774.3947q0,.02078.10387.02077a1.30231,1.30231,0,0,1,.76863.29084,1.10817,1.10817,0,0,1,.3947.95559,1.22457,1.22457,0,0,1-.33238.87251A1.28608,1.28608,0,0,1,318.15813,20.56123Z"/>
    <path id="MJMAIN-28-2" data-name="MJMAIN-28" class="cls-6" d="M332.00035,17.70261a24.16751,24.16751,0,0,1,.29383-3.84918,26.92713,26.92713,0,0,1,.67581-3.144,12.30374,12.30374,0,0,1,1.08717-2.58571q.70519-1.26346,1.11656-1.96866a7.80384,7.80384,0,0,1,1.23409-1.52792q.82272-.82274.96964-.999a5.29521,5.29521,0,0,1,.73458-.617h.49951q.41136,0,.41136.26445a2.37432,2.37432,0,0,1-.49951.617,13.34041,13.34041,0,0,0-1.20471,1.5573,20.32886,20.32886,0,0,0-1.43977,2.527,16.71609,16.71609,0,0,0-1.23409,4.05486,29.65682,29.65682,0,0,0-.49951,5.67093,29.19556,29.19556,0,0,0,.49951,5.64155,19.083,19.083,0,0,0,1.20471,4.08425,13.307,13.307,0,0,0,1.43977,2.52694q.73458.96965,1.23409,1.55731a6.63611,6.63611,0,0,1,.49951.617q0,.26445-.44075.26445H338.112l-.82273-.70519a14.50025,14.50025,0,0,1-4.02548-6.22922A24.02342,24.02342,0,0,1,332.00035,17.70261Z"/>
    <path id="MJMATHI-73-2" data-name="MJMATHI-73" class="cls-6" d="M344.51753,16.55667a4.35434,4.35434,0,0,1,.47013-1.90989,4.834,4.834,0,0,1,1.64546-1.79237,4.69476,4.69476,0,0,1,2.85015-.79335,3.71229,3.71229,0,0,1,2.64448.79335,2.51744,2.51744,0,0,1,.85211,1.763,1.74988,1.74988,0,0,1-.49951,1.381,1.7802,1.7802,0,0,1-1.11656.47013,1.17362,1.17362,0,0,1-.70519-.23507.95062.95062,0,0,1-.3526-.764,1.33331,1.33331,0,0,1,.26445-.82272,2.63947,2.63947,0,0,1,.49951-.5289.71112.71112,0,0,1,.382-.1763.026.026,0,0,0,.02938-.02938q0-.08816-.20568-.26445a2.007,2.007,0,0,0-.73458-.32321,5.19858,5.19858,0,0,0-1.14594-.1763,2.4853,2.4853,0,0,0-2.73262,2.32126,1.06222,1.06222,0,0,0,.55828,1.02841,6.09354,6.09354,0,0,0,1.61607.49951,6.43893,6.43893,0,0,1,1.52792.44075,2.90392,2.90392,0,0,1,1.93928,2.82077,4.47117,4.47117,0,0,1-.32322,1.64545,6.57253,6.57253,0,0,1-.96964,1.64546,4.25062,4.25062,0,0,1-1.85113,1.29285,7.97861,7.97861,0,0,1-2.762.49951,4.75276,4.75276,0,0,1-3.20275-.85211,2.71843,2.71843,0,0,1-.96964-1.99805,1.99832,1.99832,0,0,1,.617-1.64545,2.02884,2.02884,0,0,1,1.29285-.49951,1.41771,1.41771,0,0,1,.82273.26445,1.0939,1.0939,0,0,1,.41136.91087,1.75862,1.75862,0,0,1-.52889,1.29286,1.44705,1.44705,0,0,1-.91088.52889.2255.2255,0,0,1-.08815.02939q-.02937,0-.02938.05876a.635.635,0,0,0,.23507.23507,4.10235,4.10235,0,0,0,.91087.382,5.77922,5.77922,0,0,0,3.43782-.11753,2.5243,2.5243,0,0,0,1.11656-.82273,3.901,3.901,0,0,0,.49951-.91088,2.21631,2.21631,0,0,0,.14691-.73457,1.38425,1.38425,0,0,0-.617-1.23409,3.12338,3.12338,0,0,0-1.41039-.49951,7.27249,7.27249,0,0,1-1.7336-.44075,2.71915,2.71915,0,0,1-1.381-1.02841A2.9576,2.9576,0,0,1,344.51753,16.55667Z"/>
    <path id="MJMAIN-2C" class="cls-6" d="M356.77028,24.02V23.2854a1.83742,1.83742,0,0,1,.47012-1.26347,1.606,1.606,0,0,1,1.26348-.5289,1.92071,1.92071,0,0,1,1.46915.73458,4.05645,4.05645,0,0,1,.67581,2.58571,7.5595,7.5595,0,0,1-.26445,1.998,9.13609,9.13609,0,0,1-.617,1.67483,6.37268,6.37268,0,0,1-.764,1.20471q-.41136.49952-.7052.79334t-.382.26445q-.11753,0-.382-.26445t-.26444-.382q0-.11753.32321-.47013t.73458-.88149a5.63951,5.63951,0,0,0,.764-1.46915,8.44057,8.44057,0,0,0,.47013-2.145v-.3526l-.02939.02939a1.13993,1.13993,0,0,1-.14691.05876.742.742,0,0,0-.1763.08815.48084.48084,0,0,1-.26445.05877,2.14106,2.14106,0,0,0-.35259.02938,1.74935,1.74935,0,0,1-1.29286-.49951Z"/>
    <path id="MJMATHI-61" class="cls-6" d="M368.5235,20.43524a8.683,8.683,0,0,1,2.23312-5.64155,6.57531,6.57531,0,0,1,5.0245-2.70324,3.33109,3.33109,0,0,1,2.64448,1.43977,1.47024,1.47024,0,0,1,1.35162-.88149,1.05133,1.05133,0,0,1,.67581.23506.72357.72357,0,0,1,.29383.58766q0,.382-1.08717,4.70129t-1.11656,4.87759a1.572,1.572,0,0,0,.20568.96964.86314.86314,0,0,0,.61705.26445,1.27676,1.27676,0,0,0,.58766-.26445,6.66265,6.66265,0,0,0,1.2047-2.82077q.17631-.58766.29383-.617a.85935.85935,0,0,1,.29383-.02939h.11754q.55827,0,.55828.26445a4.66739,4.66739,0,0,1-.14692.79334,9.21771,9.21771,0,0,1-.58766,1.58669,5.00576,5.00576,0,0,1-.94026,1.46915,2.90522,2.90522,0,0,1-.94026.617,3.133,3.133,0,0,1-.70519.05876,3.00337,3.00337,0,0,1-1.67484-.44074,2.25577,2.25577,0,0,1-.88149-.91088l-.1763-.44074q-.02938-.02939-.11753.02938l-.11753.11753a5.15157,5.15157,0,0,1-3.526,1.64545,4.01006,4.01006,0,0,1-2.85016-1.17532A4.95128,4.95128,0,0,1,368.5235,20.43524Zm9.34382-5.02451a2.65971,2.65971,0,0,0-.14692-.64642,2.79353,2.79353,0,0,0-.67581-1.02841,1.87818,1.87818,0,0,0-1.35162-.58766,2.81969,2.81969,0,0,0-1.96866.91087,6.14822,6.14822,0,0,0-1.46916,2.38,23.45779,23.45779,0,0,0-1.2047,4.81883v.32321a1.56618,1.56618,0,0,1-.02939.3526,2.46768,2.46768,0,0,0,.5289,1.82175,1.89239,1.89239,0,0,0,1.26347.52889,3.31791,3.31791,0,0,0,2.20373-.96964A4.94087,4.94087,0,0,0,376.31,21.81624q.05876-.11753.79334-3.144T377.86732,15.41073Z"/>
    <path id="MJMAIN-29-2" data-name="MJMAIN-29" class="cls-6" d="M384.88987,3.04046l.11754-.02938h.64642l.82273.70519A14.50037,14.50037,0,0,1,390.502,9.94548a24.02378,24.02378,0,0,1,1.26347,7.75713,24.52921,24.52921,0,0,1-.29383,3.84919,25.26461,25.26461,0,0,1-.67581,3.144,13.234,13.234,0,0,1-1.08717,2.58571q-.7052,1.29285-1.11656,1.96866a8.9382,8.9382,0,0,1-1.20471,1.49854q-.79333.82272-.94025.96964t-.67581.55828l-.11754.11753H384.978a.17265.17265,0,0,1-.14691-.08815.69168.69168,0,0,1-.08815-.26445q.02938-.02939.32321-.382,4.55437-4.73067,4.55438-13.957T385.06617,3.74566q-.29384-.3526-.32321-.382A.34537.34537,0,0,1,384.88987,3.04046Z"/>
  </g>
  <g>
    <path id="MJMATHI-51" class="cls-6" d="M490.09021,22.93776q0-.8679.0263-1.315a2.59776,2.59776,0,0,1,.0526-.4997v-.1052l-.3945.1052a9.5671,9.5671,0,0,1-2.2092.2893,6.45411,6.45411,0,0,1-6.6276-5.8649q-.0263-.2104-.0263-1.1309a10.88017,10.88017,0,0,1,1.2624-5.1022,14.73021,14.73021,0,0,1,3.3927-4.2869,10.25821,10.25821,0,0,1,6.5487-2.7089q.99941,0,1.2624.0263a6.26144,6.26144,0,0,1,4.1028,2.2618,7.41508,7.41508,0,0,1,1.578,4.7866,11.96648,11.96648,0,0,1-3.8924,8.6264,12.6133,12.6133,0,0,1-3.4453,2.3933l-.4471.2104v.1315q0,.0263.1315.7101a2.06966,2.06966,0,0,0,.5523,1.1046,1.6375,1.6375,0,0,0,1.2098.4208,3.06406,3.06406,0,0,0,1.7621-.5786,2.6757,2.6757,0,0,0,1.1046-1.4991q.1578-.3682.3419-.3682a.2705.2705,0,0,1,.2893.2367,3.93385,3.93385,0,0,1-.263.9468q-.263.73639-.7364,1.7358a4.56567,4.56567,0,0,1-1.4202,1.7095,3.58909,3.58909,0,0,1-1.9988.7627q-2.15659,0-2.1566-2.8141Zm6.2331-14.4124a7.34143,7.34143,0,0,0-.3945-2.5248,3.45718,3.45718,0,0,0-1.0783-1.6043,5.92934,5.92934,0,0,0-1.315-.789,3.58984,3.58984,0,0,0-1.3939-.263,5.73763,5.73763,0,0,0-2.5774.6575,9.46894,9.46894,0,0,0-4.3132,4.6288,14.81006,14.81006,0,0,0-1.6306,6.5224,5.43178,5.43178,0,0,0,1.4202,4.1291,2.47005,2.47005,0,0,0,.7627.5523V19.624a2.75078,2.75078,0,0,1,.8679-1.9462,2.859,2.859,0,0,1,2.0514-.9205,2.12708,2.12708,0,0,1,1.1309.2893,1.8186,1.8186,0,0,1,.7101.789,4.33027,4.33027,0,0,1,.3156.8416q.0789.3419.1578.7101l.3419-.2367a9.74008,9.74008,0,0,0,2.8667-3.1823,14.3587,14.3587,0,0,0,1.6306-3.9187A15.3941,15.3941,0,0,0,496.32331,8.52536Zm-8.4686,11.835a5.22025,5.22025,0,0,0,2.367-.5523l-.0263-.263q-.1052-1.44649-.9731-1.7358a3.21936,3.21936,0,0,0-.4997-.0526h-.1578a.15231.15231,0,0,1-.1052-.0263,1.6018,1.6018,0,0,0-1.0783.526,1.72348,1.72348,0,0,0-.5786,1.2098Q486.80271,20.36036,487.85471,20.36036Z"/>
    <g>
      <path id="MJMATHI-3C0-3" data-name="MJMATHI-3C0" class="cls-6" d="M502.85423,10.2027a.55073.55073,0,0,1-.6322-.61361V9.38456l.24173-.52064a36.03029,36.03029,0,0,0,2.02675-5.07619l.14876-.44626h-.595a6.19876,6.19876,0,0,0-1.00408.05579,2.01164,2.01164,0,0,0-.72517.35328,2.42956,2.42956,0,0,0-.40907.3347,4.78977,4.78977,0,0,0-.35328.39047,2.28979,2.28979,0,0,0-.16735.22313,1.05982,1.05982,0,0,1-.27891.0186q-.35329,0-.35329-.18594a2.24484,2.24484,0,0,1,.35329-.6508,6.32282,6.32282,0,0,1,1.02267-1.15283,2.528,2.528,0,0,1,1.32018-.70658q.13017-.03719,4.18368-.03719,2.97505,0,3.04943.0186a.50765.50765,0,0,1,.37188.52063.77658.77658,0,0,1-.595.78095,10.08237,10.08237,0,0,1-1.283.03719h-1.19l-.05578.3161a13.95689,13.95689,0,0,0-.22313,2.2127,8.10141,8.10141,0,0,0,.16735,1.72925,6.71781,6.71781,0,0,0,.35329,1.19,2.16827,2.16827,0,0,1,.18594.52064.8617.8617,0,0,1-.26032.595.87459.87459,0,0,1-.66939.27891.85685.85685,0,0,1-.33469-.05578q-.13016-.05579-.29751-.44626a5.37157,5.37157,0,0,1-.2975-1.11564q-.0186-.16736-.0186-.81815a12.34059,12.34059,0,0,1,.16735-1.95238q.16735-1.04127.33469-1.71065l.186-.74377h-1.82223l-.01859.07438q0,.05579-.35329,1.46893t-.79954,2.99365a13.85724,13.85724,0,0,1-.57642,1.80363A.78184.78184,0,0,1,502.85423,10.2027Z"/>
      <path id="MJMAIN-32-3" data-name="MJMAIN-32" class="cls-6" d="M512.43206,7.15776a.71875.71875,0,0,1-.56545-.2367.83986.83986,0,0,1-.2104-.5786,2.191,2.191,0,0,1,.697-1.61745,2.37974,2.37974,0,0,1,1.7358-.6838,2.84366,2.84366,0,0,1,1.9988.7364,2.51059,2.51059,0,0,1,.8153,1.90675,2.332,2.332,0,0,1-.263,1.0783,3.72091,3.72091,0,0,1-.6312.8942q-.36821.38134-1.052.9731-.4734.40766-1.315,1.2098l-.77585.7364.9994.01315a15.78583,15.78583,0,0,0,2.19605-.06575,3.56467,3.56467,0,0,0,.3156-1.17035v-.03945h.526v.03945q-.01315.03945-.17095,1.19665a9.81507,9.81507,0,0,1-.19725,1.2098v.03945h-4.87865v-.40765a.33559.33559,0,0,1,.0789-.19725q.0789-.1052.3945-.46025.38135-.42079.6575-.7364.11835-.1315.4471-.48655t.4471-.48655q.11835-.1315.38135-.43395t.3682-.4471q.10519-.14465.30245-.3945a2.24453,2.24453,0,0,0,.27615-.4208q.0789-.171.19725-.38135a1.69981,1.69981,0,0,0,.17095-.4208q.0526-.21041.092-.3945a2.09351,2.09351,0,0,0,.03945-.43395,2.34473,2.34473,0,0,0-.4471-1.43335,1.49116,1.49116,0,0,0-1.27555-.6049,1.32367,1.32367,0,0,0-.7627.22355,1.584,1.584,0,0,0-.46025.434.93707.93707,0,0,0-.1315.24985q0,.01316.06575.01315a.8244.8244,0,0,1,.48655.1841.70149.70149,0,0,1,.24985.6049.77512.77512,0,0,1-.2104.5523A.81415.81415,0,0,1,512.43206,7.15776Z"/>
    </g>
    <path id="MJMAIN-28-3" data-name="MJMAIN-28" class="cls-6" d="M524.54321,14.25876a21.63243,21.63243,0,0,1,.263-3.4453,24.10379,24.10379,0,0,1,.6049-2.8141,11.01256,11.01256,0,0,1,.9731-2.3144q.6312-1.1309.9994-1.7621a6.98554,6.98554,0,0,1,1.1046-1.3676q.7364-.7364.8679-.8942a4.73987,4.73987,0,0,1,.6575-.5523h.4471q.36821,0,.3682.2367a2.125,2.125,0,0,1-.4471.5523,11.93957,11.93957,0,0,0-1.0783,1.3939,18.19542,18.19542,0,0,0-1.2887,2.2618,14.96255,14.96255,0,0,0-1.1046,3.6294,26.54418,26.54418,0,0,0-.4471,5.0759,26.1314,26.1314,0,0,0,.4471,5.0496,17.08082,17.08082,0,0,0,1.0783,3.6557,11.91112,11.91112,0,0,0,1.2887,2.2618q.6575.8679,1.1046,1.3939a5.94127,5.94127,0,0,1,.4471.5523q0,.2367-.3945.2367h-.4208l-.7364-.6312a12.97883,12.97883,0,0,1-3.6031-5.5756A21.503,21.503,0,0,1,524.54321,14.25876Z"/>
    <path id="MJMATHI-73-3" data-name="MJMATHI-73" class="cls-6" d="M535.77331,13.23306a3.89753,3.89753,0,0,1,.4208-1.7095,4.32677,4.32677,0,0,1,1.4728-1.6043,4.20219,4.20219,0,0,1,2.5511-.7101,3.32277,3.32277,0,0,1,2.367.7101,2.25329,2.25329,0,0,1,.7627,1.578,1.56625,1.56625,0,0,1-.4471,1.2361,1.59337,1.59337,0,0,1-.9994.4208,1.05048,1.05048,0,0,1-.6312-.2104.85087.85087,0,0,1-.3156-.6838,1.19345,1.19345,0,0,1,.2367-.7364,2.36254,2.36254,0,0,1,.4471-.4734.63647.63647,0,0,1,.3419-.1578.02325.02325,0,0,0,.0263-.0263q0-.0789-.1841-.2367a1.79646,1.79646,0,0,0-.6575-.2893,4.6531,4.6531,0,0,0-1.0257-.1578,2.22453,2.22453,0,0,0-2.4459,2.0777.95077.95077,0,0,0,.4997.9205,5.45437,5.45437,0,0,0,1.4465.4471,5.763,5.763,0,0,1,1.3676.3945,2.59923,2.59923,0,0,1,1.7358,2.5248,4.00207,4.00207,0,0,1-.2893,1.4728,5.88318,5.88318,0,0,1-.8679,1.4728,3.80458,3.80458,0,0,1-1.6569,1.1572,7.1414,7.1414,0,0,1-2.4722.4471,4.25409,4.25409,0,0,1-2.8667-.7627,2.43321,2.43321,0,0,1-.8679-1.7884,1.78863,1.78863,0,0,1,.5523-1.4728,1.816,1.816,0,0,1,1.1572-.4471,1.269,1.269,0,0,1,.7364.2367.97912.97912,0,0,1,.3682.8153,1.5741,1.5741,0,0,1-.4734,1.1572,1.29525,1.29525,0,0,1-.8153.4734.20194.20194,0,0,1-.0789.0263q-.02629,0-.0263.0526a.56845.56845,0,0,0,.2104.2104,3.67176,3.67176,0,0,0,.8153.3419,5.17277,5.17277,0,0,0,3.0771-.1052,2.25937,2.25937,0,0,0,.9994-.7364,3.49153,3.49153,0,0,0,.4471-.8153,1.98363,1.98363,0,0,0,.1315-.6575,1.239,1.239,0,0,0-.5523-1.1046,2.79568,2.79568,0,0,0-1.2624-.4471,6.509,6.509,0,0,1-1.5517-.3945,2.43384,2.43384,0,0,1-1.2361-.9205A2.64724,2.64724,0,0,1,535.77331,13.23306Z"/>
    <path id="MJMAIN-2C-2" data-name="MJMAIN-2C" class="cls-6" d="M546.71411,19.91326v-.6575a1.64468,1.64468,0,0,1,.4208-1.1309,1.43749,1.43749,0,0,1,1.1309-.4734,1.7192,1.7192,0,0,1,1.315.6575,3.63082,3.63082,0,0,1,.6049,2.3144,6.7663,6.7663,0,0,1-.2367,1.7884,8.1769,8.1769,0,0,1-.5523,1.4991,5.70356,5.70356,0,0,1-.6838,1.0783q-.3682.44711-.6312.7101t-.3419.2367q-.1052,0-.3419-.2367t-.2367-.3419q0-.10519.2893-.4208t.6575-.789a5.04726,5.04726,0,0,0,.6838-1.315,7.55438,7.55438,0,0,0,.4208-1.9199v-.3156l-.0263.0263a1.02062,1.02062,0,0,1-.1315.0526.66356.66356,0,0,0-.1578.0789.43036.43036,0,0,1-.2367.0526,1.917,1.917,0,0,0-.3156.0263,1.56579,1.56579,0,0,1-1.1572-.4471Z"/>
    <path id="MJMATHI-61-2" data-name="MJMATHI-61" class="cls-6" d="M557.26041,16.70466a7.772,7.772,0,0,1,1.9988-5.0496,5.88538,5.88538,0,0,1,4.4973-2.4196,2.98159,2.98159,0,0,1,2.367,1.2887,1.316,1.316,0,0,1,1.2098-.789.941.941,0,0,1,.6049.2104.64767.64767,0,0,1,.263.526q0,.3419-.9731,4.208t-.9994,4.3658a1.407,1.407,0,0,0,.1841.8679.77253.77253,0,0,0,.5523.2367,1.14268,1.14268,0,0,0,.526-.2367,5.96369,5.96369,0,0,0,1.0783-2.5248q.1578-.526.263-.5523a.76936.76936,0,0,1,.263-.0263h.1052q.49969,0,.4997.2367a4.1768,4.1768,0,0,1-.1315.7101,8.25115,8.25115,0,0,1-.526,1.4202,4.48058,4.48058,0,0,1-.8416,1.315,2.60064,2.60064,0,0,1-.8416.5523,2.8037,2.8037,0,0,1-.6312.0526,2.68824,2.68824,0,0,1-1.4991-.3945,2.01907,2.01907,0,0,1-.789-.8153l-.1578-.3945q-.02629-.0263-.1052.0263l-.1052.1052a4.611,4.611,0,0,1-3.156,1.4728,3.58932,3.58932,0,0,1-2.5511-1.052A4.43173,4.43173,0,0,1,557.26041,16.70466Zm8.3634-4.4973a2.38065,2.38065,0,0,0-.1315-.5786,2.50051,2.50051,0,0,0-.6049-.9205,1.68115,1.68115,0,0,0-1.2098-.526,2.52385,2.52385,0,0,0-1.7621.8153,5.503,5.503,0,0,0-1.315,2.1303,20.99626,20.99626,0,0,0-1.0783,4.3132v.2893a1.40209,1.40209,0,0,1-.0263.3156,2.20876,2.20876,0,0,0,.4734,1.6306,1.69377,1.69377,0,0,0,1.1309.4734,2.96978,2.96978,0,0,0,1.9725-.8679,4.42239,4.42239,0,0,0,1.1572-1.3413q.05261-.1052.7101-2.8141T565.62381,12.20736Z"/>
    <path id="MJMAIN-29-3" data-name="MJMAIN-29" class="cls-6" d="M571.88321,1.13506l.1052-.0263h.5786l.7364.6312a12.97883,12.97883,0,0,1,3.6031,5.5756,21.503,21.503,0,0,1,1.1309,6.9432,21.95608,21.95608,0,0,1-.263,3.4453,22.61258,22.61258,0,0,1-.6049,2.8141,11.84523,11.84523,0,0,1-.9731,2.3144q-.6312,1.15721-.9994,1.7621a8.00027,8.00027,0,0,1-1.0783,1.3413q-.7101.73639-.8416.8679t-.6049.4997l-.1052.1052h-.6049a.15455.15455,0,0,1-.1315-.0789.619.619,0,0,1-.0789-.2367q.02629-.0263.2893-.3419,4.0765-4.2343,4.0765-12.4925T572.041,1.76626q-.263-.3156-.2893-.3419A.3091.3091,0,0,1,571.88321,1.13506Z"/>
  </g>
</svg>
