<svg id="Layer_1" data-name="Layer 1" xmlns="http://www.w3.org/2000/svg" viewBox="0 0 580 160.90809">
  <defs>
    <style>
      .cls-1 {
        fill: #e7ebe8;
      }

      .cls-2 {
        fill: #fff;
      }

      .cls-3 {
        fill: #58595b;
      }

      .cls-4 {
        fill: #b2b3c3;
      }

      .cls-5, .cls-8 {
        fill: #ef4136;
      }

      .cls-5, .cls-7 {
        opacity: 0.5;
      }

      .cls-6 {
        fill: #010101;
      }

      .cls-7, .cls-9 {
        fill: #70a8da;
      }

      .cls-10 {
        font-size: 15.28267px;
        fill: #6d6e71;
        font-family: Roboto-Regular, Roboto;
      }

      .cls-11 {
        letter-spacing: -0.00735em;
      }

      .cls-12 {
        letter-spacing: 0.00006em;
      }
    </style>
  </defs>
  <title>off-policy-value</title>
  <rect class="cls-1" x="298.09935" y="36.20425" width="97.23467" height="97.23467"/>
  <polygon class="cls-2" points="310.897 84.82 320.965 105.034 320.965 64.605 310.897 84.82"/>
  <polygon class="cls-3" points="346.619 120.893 366.833 110.825 326.404 110.825 346.619 120.893"/>
  <polygon class="cls-4" points="382.536 84.842 372.468 64.628 372.468 105.056 382.536 84.842"/>
  <polygon class="cls-4" points="346.619 48.959 326.404 59.027 366.833 59.027 346.619 48.959"/>
  <rect class="cls-1" x="1.64618" y="36.41007" width="97.23467" height="97.23467"/>
  <circle class="cls-2" cx="51.29472" cy="86.24181" r="30.79776"/>
  <circle class="cls-5" cx="51.29206" cy="86.27856" r="30.79776"/>
  <g>
    <path id="MJMAIN-3D" class="cls-6" d="M152.59412,81.379a.824.824,0,0,1,.5296-.75657h24.09667a.87969.87969,0,0,1,.56743.75657.85823.85823,0,0,1-.5296.71874l-12.02942.03783H153.19937A.74976.74976,0,0,1,152.59412,81.379Zm0,7.33871a.74976.74976,0,0,1,.60525-.75657h24.05885q.52959.37828.5296.75657a.82714.82714,0,0,1-.56743.75656H153.12372A.824.824,0,0,1,152.59412,88.71775Z"/>
    <path id="MJSZ2-2211" class="cls-6" d="M217.88589,58.64419q.11349-.07566,22.88617-.07566h22.77268l2.19405,5.10683q2.23188,5.22031,2.38319,5.52294h-1.51314l-.2648-.52959a12.78039,12.78039,0,0,0-2.11839-2.95062,15.87809,15.87809,0,0,0-4.19895-2.91278,20.71277,20.71277,0,0,0-5.3338-1.62662,44.00433,44.00433,0,0,0-5.71208-.64308q-2.68581-.11349-6.92259-.15132H225.11111l.30263.41612q17.51454,23.94536,17.5902,24.17233a.341.341,0,0,1,0,.227q-.11349.11348-9.9867,11.42417l-9.98669,11.34851q0,.03783,7.98179.03783h5.3338q3.36672,0,4.842.03783,5.14467,0,8.32225-.18915a48.59277,48.59277,0,0,0,6.31733-.79439,17.42105,17.42105,0,0,0,5.33381-1.85359,14.18613,14.18613,0,0,0,3.89632-3.29107,11.98766,11.98766,0,0,0,1.551-2.72364H268.122q0,.03782-.2648.79439t-.94571,2.45885q-.68091,1.70228-1.17268,3.17758l-2.19405,5.8634-22.73485.03783q-22.77269,0-22.88617-.07566a.32136.32136,0,0,1-.227-.34046.58071.58071,0,0,1,.07566-.227l20.16252-23.0753q0-.03783-1.24833-1.70228t-3.972-5.44729q-2.72364-3.78284-4.91769-6.73345L217.73458,60.1195l-.03783-.56743Q217.69675,58.75767,217.88589,58.64419Z"/>
  </g>
  <path id="MJMAIN-22C5" class="cls-6" d="M435.67439,86.99608a2.24114,2.24114,0,0,1,.64308-1.58879,2.14148,2.14148,0,0,1,1.62662-.68091,2.31671,2.31671,0,0,1,1.58879.60525,2.18284,2.18284,0,0,1,.71874,1.62662,2.2867,2.2867,0,0,1-.64308,1.62662,2.14148,2.14148,0,0,1-1.62662.68091,2.20456,2.20456,0,0,1-1.62662-.64308A2.33917,2.33917,0,0,1,435.67439,86.99608Z"/>
  <rect class="cls-1" x="481.32318" y="36.21811" width="97.23467" height="97.23467"/>
  <polygon class="cls-2" points="565.711 84.879 555.644 64.664 555.644 105.093 565.711 84.879"/>
  <polygon class="cls-2" points="494.074 84.833 504.142 105.048 504.142 64.619 494.074 84.833"/>
  <polygon class="cls-7" points="494.121 84.833 504.189 105.048 504.189 64.619 494.121 84.833"/>
  <polygon class="cls-8" points="529.843 120.907 550.057 110.839 509.628 110.839 529.843 120.907"/>
  <polygon class="cls-5" points="565.76 84.856 555.692 64.641 555.692 105.07 565.76 84.856"/>
  <polygon class="cls-9" points="529.843 48.973 509.628 59.041 550.057 59.041 529.843 48.973"/>
  <g>
    <path id="MJMATHI-51" class="cls-6" d="M490.08754,22.94279q0-.8683.02631-1.31561a2.59856,2.59856,0,0,1,.05263-.49993V21.022l-.39468.10525a9.57209,9.57209,0,0,1-2.21022.28943,6.45708,6.45708,0,0,1-6.63066-5.8676q-.02631-.21051-.02631-1.13143a10.88515,10.88515,0,0,1,1.263-5.10455,14.73711,14.73711,0,0,1,3.39426-4.28888,10.26294,10.26294,0,0,1,6.55173-2.71015q.99985,0,1.263.02631a6.26426,6.26426,0,0,1,4.10469,2.26285A7.41855,7.41855,0,0,1,499.06,9.392a11.972,11.972,0,0,1-3.8942,8.63038,12.61921,12.61921,0,0,1-3.44689,2.3944l-.4473.2105v.13156q0,.02631.13156.71043a2.07068,2.07068,0,0,0,.55255,1.10511,1.63828,1.63828,0,0,0,1.21036.421,3.06544,3.06544,0,0,0,1.76291-.57887,2.67694,2.67694,0,0,0,1.10511-1.49979q.15787-.36837.34206-.36837a.27064.27064,0,0,1,.28944.23681,3.9355,3.9355,0,0,1-.26313.94724q-.26312.73674-.73674,1.7366a4.56779,4.56779,0,0,1-1.42085,1.71029,3.59068,3.59068,0,0,1-1.99972.763q-2.1576,0-2.1576-2.8154Zm6.236-14.41906a7.34484,7.34484,0,0,0-.39468-2.526,3.45892,3.45892,0,0,0-1.0788-1.605,5.932,5.932,0,0,0-1.31561-.78936,3.59132,3.59132,0,0,0-1.39454-.26313,5.74018,5.74018,0,0,0-2.57859.65781A9.47327,9.47327,0,0,0,485.24611,8.629a14.81691,14.81691,0,0,0-1.63135,6.52541,5.43428,5.43428,0,0,0,1.42085,4.131,2.47133,2.47133,0,0,0,.763.55255v-.21049a2.75208,2.75208,0,0,1,.8683-1.9471,2.86038,2.86038,0,0,1,2.05235-.92093,2.128,2.128,0,0,1,1.13142.28944,1.81931,1.81931,0,0,1,.71043.78936,4.33294,4.33294,0,0,1,.31575.842q.07893.34206.15787.71043l.34206-.23681a9.74468,9.74468,0,0,0,2.868-3.18377,14.36521,14.36521,0,0,0,1.63135-3.92051A15.40166,15.40166,0,0,0,496.32352,8.52373ZM487.851,20.3642a5.22265,5.22265,0,0,0,2.36809-.55256l-.02631-.26312q-.10525-1.44717-.97355-1.7366a3.22174,3.22174,0,0,0-.49993-.05263h-.15787a.15237.15237,0,0,1-.10525-.02631,1.60257,1.60257,0,0,0-1.0788.52625,1.7243,1.7243,0,0,0-.57887,1.21035Q486.79852,20.36419,487.851,20.3642Z"/>
    <g>
      <path id="MJMATHI-3C0" class="cls-6" d="M502.85745,10.20184A.551.551,0,0,1,502.225,9.588V9.38333l.24184-.52088a36.04775,36.04775,0,0,0,2.02769-5.07853l.14882-.44647H504.048a6.20265,6.20265,0,0,0-1.00454.05581,2.01286,2.01286,0,0,0-.72551.35345,2.43035,2.43035,0,0,0-.40925.33485,4.79445,4.79445,0,0,0-.35346.39066,2.29274,2.29274,0,0,0-.16742.22323,1.06081,1.06081,0,0,1-.279.0186q-.35344,0-.35345-.186a2.24605,2.24605,0,0,1,.35345-.6511A6.32562,6.32562,0,0,1,502.132,2.72357a2.52911,2.52911,0,0,1,1.32079-.70691q.13022-.0372,4.1856-.0372,2.97643,0,3.05084.0186a.50788.50788,0,0,1,.37205.52088.77693.77693,0,0,1-.59528.78131,10.09044,10.09044,0,0,1-1.28359.0372h-1.19057l-.05581.31625a13.96307,13.96307,0,0,0-.22323,2.21372,8.10528,8.10528,0,0,0,.16743,1.73005,6.72067,6.72067,0,0,0,.35345,1.19057,2.16944,2.16944,0,0,1,.186.52088.86212.86212,0,0,1-.26043.59528.875.875,0,0,1-.6697.279.85719.85719,0,0,1-.33485-.05581q-.13022-.0558-.29764-.44646a5.37342,5.37342,0,0,1-.29764-1.11616q-.01861-.16743-.01861-.81852a12.34518,12.34518,0,0,1,.16743-1.95328q.16742-1.04175.33485-1.71145l.186-.74411H505.406l-.0186.07442q0,.0558-.35345,1.46961t-.79992,2.995a13.86321,13.86321,0,0,1-.57668,1.80446A.78219.78219,0,0,1,502.85745,10.20184Z"/>
      <path id="MJMAIN-31" class="cls-6" d="M513.80793,5.19525l-.171.06578a3.77058,3.77058,0,0,1-.52624.13156,6.06487,6.06487,0,0,1-.76305.09209h-.25V4.8795h.25a4.27831,4.27831,0,0,0,1.14458-.19734,3.10764,3.10764,0,0,0,.73674-.31574,3.37293,3.37293,0,0,0,.36837-.28944q.02631-.03946.15787-.03946a.36641.36641,0,0,1,.22365.07893V8.05012l.01316,3.94682a.521.521,0,0,0,.15787.1184,1.56067,1.56067,0,0,0,.31575.05263q.25.02631.81567.02631h.34206v.60518h-.14472q-.27627-.03948-2.09181-.03947-1.78923,0-2.0655.03947h-.15788v-.60518h.842a3.15954,3.15954,0,0,0,.3289-.01316,1.28816,1.28816,0,0,0,.2105-.03947.78868.78868,0,0,1,.10525-.02631q.01315,0,.07894-.06578t.07893-.05262Z"/>
    </g>
    <path id="MJMAIN-28" class="cls-6" d="M524.55644,14.25978a21.64249,21.64249,0,0,1,.26312-3.44689,24.11409,24.11409,0,0,1,.60518-2.8154,11.018,11.018,0,0,1,.97355-2.31547q.63149-1.13142.99986-1.76291a6.98874,6.98874,0,0,1,1.10511-1.36823q.73674-.73674.8683-.89461a4.74174,4.74174,0,0,1,.6578-.55256h.44731q.36837,0,.36837.23681a2.12594,2.12594,0,0,1-.44731.55256,11.94523,11.94523,0,0,0-1.07879,1.39454,18.20392,18.20392,0,0,0-1.2893,2.26284,14.96973,14.96973,0,0,0-1.10511,3.63108,26.557,26.557,0,0,0-.4473,5.07824,26.144,26.144,0,0,0,.4473,5.05193,17.08865,17.08865,0,0,0,1.0788,3.65739,11.91685,11.91685,0,0,0,1.28929,2.26284q.65781.8683,1.10511,1.39454a5.943,5.943,0,0,1,.44731.55256q0,.2368-.39468.23681h-.421l-.73674-.63149a12.9848,12.9848,0,0,1-3.60476-5.57818A21.51281,21.51281,0,0,1,524.55644,14.25978Z"/>
    <path id="MJMATHI-73" class="cls-6" d="M535.79172,13.23361a3.8992,3.8992,0,0,1,.421-1.71029,4.32872,4.32872,0,0,1,1.47348-1.605,4.20407,4.20407,0,0,1,2.55227-.71043,3.32429,3.32429,0,0,1,2.36809.71043,2.25434,2.25434,0,0,1,.76306,1.57873,1.567,1.567,0,0,1-.44731,1.23667,1.5941,1.5941,0,0,1-.99986.421,1.0509,1.0509,0,0,1-.63149-.2105.85126.85126,0,0,1-.31575-.68411,1.194,1.194,0,0,1,.23681-.73674,2.36367,2.36367,0,0,1,.44731-.47362.63674.63674,0,0,1,.34206-.15787.02326.02326,0,0,0,.02631-.02632q0-.07893-.18419-.2368a1.79729,1.79729,0,0,0-.6578-.28944,4.6554,4.6554,0,0,0-1.02617-.15787,2.22555,2.22555,0,0,0-2.447,2.07866.95119.95119,0,0,0,.49993.92092,5.45665,5.45665,0,0,0,1.44717.44731,5.7662,5.7662,0,0,1,1.36823.39468,2.60043,2.60043,0,0,1,1.7366,2.526,4.00391,4.00391,0,0,1-.28944,1.47348,5.88556,5.88556,0,0,1-.8683,1.47348,3.80632,3.80632,0,0,1-1.65766,1.15773,7.145,7.145,0,0,1-2.47334.44731,4.256,4.256,0,0,1-2.868-.76306,2.43437,2.43437,0,0,1-.86831-1.78922,1.78945,1.78945,0,0,1,.55256-1.47348,1.8168,1.8168,0,0,1,1.15773-.44731,1.26959,1.26959,0,0,1,.73674.23681.97956.97956,0,0,1,.36837.81568,1.57479,1.57479,0,0,1-.47362,1.15773,1.29579,1.29579,0,0,1-.81567.47362.202.202,0,0,1-.07894.02631q-.02631,0-.02631.05263a.56867.56867,0,0,0,.2105.21049,3.67329,3.67329,0,0,0,.81567.34206,5.175,5.175,0,0,0,3.07852-.10525,2.26029,2.26029,0,0,0,.99986-.73674,3.49293,3.49293,0,0,0,.44731-.81567,1.98457,1.98457,0,0,0,.13156-.65781,1.23958,1.23958,0,0,0-.55255-1.10511,2.797,2.797,0,0,0-1.263-.4473,6.51256,6.51256,0,0,1-1.55241-.39468,2.435,2.435,0,0,1-1.23667-.92093A2.64845,2.64845,0,0,1,535.79172,13.23361Z"/>
    <path id="MJMAIN-2C" class="cls-6" d="M546.73757,19.91689v-.6578a1.64544,1.64544,0,0,1,.421-1.13143,1.4382,1.4382,0,0,1,1.13143-.47361,1.71994,1.71994,0,0,1,1.3156.6578,3.63249,3.63249,0,0,1,.60518,2.31547,6.76906,6.76906,0,0,1-.23681,1.78922,8.18078,8.18078,0,0,1-.55255,1.49979,5.7061,5.7061,0,0,1-.68412,1.0788q-.36837.44731-.63149.71043t-.34206.23681q-.10524,0-.342-.23681t-.23681-.34206q0-.10524.28943-.421t.6578-.78937a5.04977,5.04977,0,0,0,.68412-1.3156,7.55771,7.55771,0,0,0,.421-1.92079V20.601l-.02631.02631a1.021,1.021,0,0,1-.13156.05262.66417.66417,0,0,0-.15787.07894.43063.43063,0,0,1-.23681.05262,1.9177,1.9177,0,0,0-.31575.02631,1.56652,1.56652,0,0,1-1.15773-.4473Z"/>
    <path id="MJMATHI-61" class="cls-6" d="M557.28874,16.70681a7.77555,7.77555,0,0,1,1.99972-5.05193,5.8881,5.8881,0,0,1,4.49937-2.42072,2.983,2.983,0,0,1,2.3681,1.2893,1.31656,1.31656,0,0,1,1.21035-.78937.94145.94145,0,0,1,.60518.2105.648.648,0,0,1,.26313.52624q0,.34206-.97355,4.20994t-.99987,4.36782a1.40766,1.40766,0,0,0,.18419.8683.77292.77292,0,0,0,.55255.23681,1.14327,1.14327,0,0,0,.52625-.23681,5.96629,5.96629,0,0,0,1.07879-2.526q.15788-.52623.26313-.55255a.76967.76967,0,0,1,.26312-.02631h.10525q.49992,0,.49993.23681a4.17976,4.17976,0,0,1-.13156.71042,8.25528,8.25528,0,0,1-.52625,1.42086,4.48278,4.48278,0,0,1-.842,1.31561,2.60177,2.60177,0,0,1-.842.55255,2.80525,2.80525,0,0,1-.63149.05263,2.68944,2.68944,0,0,1-1.4998-.39469,2.02,2.02,0,0,1-.78936-.81567l-.15787-.39468q-.02631-.02632-.10525.02631l-.10525.10525a4.61315,4.61315,0,0,1-3.15746,1.47348,3.59093,3.59093,0,0,1-2.55227-1.05249A4.43379,4.43379,0,0,1,557.28874,16.70681Zm8.36726-4.49938a2.38232,2.38232,0,0,0-.13156-.57886,2.50171,2.50171,0,0,0-.60518-.92093,1.682,1.682,0,0,0-1.21036-.52624,2.525,2.525,0,0,0-1.76292.81568,5.50553,5.50553,0,0,0-1.3156,2.13128,21.00641,21.00641,0,0,0-1.0788,4.31519V17.733a1.40277,1.40277,0,0,1-.02631.31575,2.20975,2.20975,0,0,0,.47362,1.63135,1.69457,1.69457,0,0,0,1.13142.47362,2.97115,2.97115,0,0,0,1.97341-.8683,4.42443,4.42443,0,0,0,1.15773-1.34192q.05264-.10525.71043-2.8154T565.656,12.20743Z"/>
    <path id="MJMAIN-29" class="cls-6" d="M571.91828,1.13l.10525-.02631h.57887l.73674.63149a12.98492,12.98492,0,0,1,3.60476,5.57818,21.51286,21.51286,0,0,1,1.13142,6.9464,21.96513,21.96513,0,0,1-.26312,3.44689,22.62174,22.62174,0,0,1-.60518,2.8154,11.85091,11.85091,0,0,1-.97355,2.31547q-.63148,1.15773-.99986,1.76291a8.00452,8.00452,0,0,1-1.07879,1.34192q-.71043.73674-.842.8683t-.60518.49993l-.10525.10525h-.60518a.15461.15461,0,0,1-.13156-.07894.61941.61941,0,0,1-.07894-.23681q.02631-.02631.28944-.34206,4.07838-4.23624,4.07838-12.49826T572.07616,1.76152q-.26313-.31575-.28944-.34206A.30929.30929,0,0,1,571.91828,1.13Z"/>
  </g>
  <g>
    <path id="MJMATHI-56" class="cls-6" d="M2.073,4.84861a1.201,1.201,0,0,1,.3301-.88875h.27933Q3.74892,4.036,5.34867,4.036q2.99635,0,3.5296-.07618H9.1322q.15236.15235.15236.22853t-.05079.45707a1.39885,1.39885,0,0,1-.22853.48247H8.472q-.55864.05078-.76179.05078-.7364.127-.81257.3809,0,.05078.73639,6.37359t.76179,6.3736l1.85367-2.971q1.85369-2.971,3.70735-5.9927T15.8613,6.21982a.75535.75535,0,0,0,.10157-.38089q0-.60944-1.11729-.711-.45707,0-.45707-.27932,0-.02539.05079-.33011a1.36641,1.36641,0,0,1,.15235-.45707.40316.40316,0,0,1,.33011-.10157h.30472q.25392,0,.86335.02539t1.62514.02539q1.75211,0,2.20918-.05078h.17775q.17775.17775.17775.27932a1.55319,1.55319,0,0,1-.22854.81257.72657.72657,0,0,1-.43168.07618q-.3301.0254-.60943.05078a1.888,1.888,0,0,0-.53324.127q-.25393.10156-.40629.17775a1.58973,1.58973,0,0,0-.30471.20314,1.42065,1.42065,0,0,1-.25393.17775.55184.55184,0,0,0-.20314.22853q-.10158.17776-.17775.17775l-4.90082,7.87178q-4.57069,7.3893-4.72306,7.56706-.07618.05077-.17775.127l-.45707.02539H6.69449q-.45707,0-.45707-.17775-.07619-.15235-.99032-8.1257-.96493-8.0749-.99032-8.15109-.127-.27931-1.57435-.27932H2.25075A.35177.35177,0,0,1,2.073,4.84861Z"/>
    <g>
      <path id="MJMATHI-3C0-2" data-name="MJMATHI-3C0" class="cls-6" d="M24.0714,11.03879a.53172.53172,0,0,1-.61039-.59244v-.19748l.23338-.50267a34.78741,34.78741,0,0,0,1.95685-4.9011l.14362-.43086h-.57448a5.98471,5.98471,0,0,0-.96945.05386,1.94209,1.94209,0,0,0-.70016.3411,2.34523,2.34523,0,0,0-.395.32315,4.62724,4.62724,0,0,0-.3411.377,2.21109,2.21109,0,0,0-.16157.21544,1.0241,1.0241,0,0,1-.26929.018q-.3411,0-.34111-.17953a2.16762,2.16762,0,0,1,.34111-.62834,6.10451,6.10451,0,0,1,.9874-1.11307,2.44076,2.44076,0,0,1,1.27464-.68221q.12567-.0359,4.03936-.0359,2.87244,0,2.94425.018a.49014.49014,0,0,1,.359.50268.74978.74978,0,0,1-.57449.754,9.73512,9.73512,0,0,1-1.23873.03591h-1.149l-.05386.30519a13.47523,13.47523,0,0,0-.21543,2.13638,7.82208,7.82208,0,0,0,.16158,1.6696,6.48527,6.48527,0,0,0,.3411,1.149,2.09388,2.09388,0,0,1,.17953.50268.832.832,0,0,1-.25134.57449.84446.84446,0,0,1-.6463.26929.82726.82726,0,0,1-.32315-.05386q-.12567-.05386-.28724-.43087A5.18559,5.18559,0,0,1,27.644,9.459q-.018-.16156-.01795-.78992a11.915,11.915,0,0,1,.16157-1.885q.16158-1.00536.32315-1.65165l.17953-.71811H26.53092l-.01795.07181q0,.05385-.3411,1.41826t-.772,2.89039a13.378,13.378,0,0,1-.55653,1.74141A.75486.75486,0,0,1,24.0714,11.03879Z"/>
      <path id="MJMAIN-32" class="cls-6" d="M33.31886,8.09889a.694.694,0,0,1-.54595-.22854.81088.81088,0,0,1-.20314-.55864,2.11536,2.11536,0,0,1,.67291-1.56166,2.29766,2.29766,0,0,1,1.67592-.66021,2.74556,2.74556,0,0,1,1.92986.711,2.424,2.424,0,0,1,.78717,1.841,2.25157,2.25157,0,0,1-.25392,1.0411,3.593,3.593,0,0,1-.60943.86336q-.3555.36819-1.01571.93953-.45708.39358-1.26965,1.16807l-.74908.711.96492.0127a15.23815,15.23815,0,0,0,2.1203-.06349,3.44187,3.44187,0,0,0,.30472-1.13V11.146h.50785v.03809q-.01269.0381-.16505,1.15538a9.47439,9.47439,0,0,1-.19045,1.16807v.03809H32.56977v-.39359a.324.324,0,0,1,.07618-.19045q.07617-.10157.38089-.44437.36819-.40629.63482-.711.11427-.127.43168-.46977t.43167-.46977q.11427-.127.3682-.419t.3555-.43168q.10156-.13965.292-.38089a2.1671,2.1671,0,0,0,.26662-.40628q.07618-.16506.19045-.3682a1.64121,1.64121,0,0,0,.16505-.40628q.05079-.20314.08888-.3809a2.02158,2.02158,0,0,0,.03808-.419,2.2639,2.2639,0,0,0-.43167-1.38391,1.43976,1.43976,0,0,0-1.23155-.584,1.278,1.278,0,0,0-.7364.21584,1.52942,1.52942,0,0,0-.44437.419.90489.90489,0,0,0-.127.24123q0,.0127.06348.0127a.79593.79593,0,0,1,.46976.17775.67728.67728,0,0,1,.24124.584.7484.7484,0,0,1-.20315.53325A.786.786,0,0,1,33.31886,8.09889Z"/>
    </g>
    <path id="MJMAIN-28-2" data-name="MJMAIN-28" class="cls-6" d="M45.01225,14.955a20.88651,20.88651,0,0,1,.25392-3.32646,23.27334,23.27334,0,0,1,.584-2.717,10.63308,10.63308,0,0,1,.93953-2.23457q.60943-1.0919.96493-1.70132a6.74462,6.74462,0,0,1,1.0665-1.32043q.711-.711.838-.86335a4.57646,4.57646,0,0,1,.63482-.53325h.43168q.3555,0,.3555.22854a2.05179,2.05179,0,0,1-.43168.53324,11.52978,11.52978,0,0,0-1.0411,1.34582A17.56678,17.56678,0,0,0,48.3641,6.54993a14.44551,14.44551,0,0,0-1.0665,3.5042,25.6285,25.6285,0,0,0-.43168,4.90082,25.22993,25.22993,0,0,0,.43168,4.87542A16.49149,16.49149,0,0,0,48.3387,23.36a11.50065,11.50065,0,0,0,1.24425,2.18378q.63483.838,1.0665,1.34582a5.73481,5.73481,0,0,1,.43168.53325q0,.22854-.38089.22853H50.294l-.711-.60942a12.53115,12.53115,0,0,1-3.47881-5.38328A20.76108,20.76108,0,0,1,45.01225,14.955Z"/>
    <path id="MJMATHI-73-2" data-name="MJMATHI-73" class="cls-6" d="M55.855,13.96463a3.76317,3.76317,0,0,1,.40628-1.65054,4.17762,4.17762,0,0,1,1.422-1.549,4.05719,4.05719,0,0,1,2.4631-.6856,3.20819,3.20819,0,0,1,2.28536.6856,2.17557,2.17557,0,0,1,.73639,1.52357,1.5122,1.5122,0,0,1-.43168,1.19346,1.53844,1.53844,0,0,1-.96493.40629,1.01427,1.01427,0,0,1-.60942-.20314.82153.82153,0,0,1-.30472-.66022,1.15229,1.15229,0,0,1,.22854-.711,2.28093,2.28093,0,0,1,.43168-.45707.61447.61447,0,0,1,.3301-.15235.02245.02245,0,0,0,.02539-.0254q0-.07617-.17775-.22853a1.73431,1.73431,0,0,0-.63482-.27932,4.49259,4.49259,0,0,0-.99032-.15236,2.1478,2.1478,0,0,0-2.36153,2.006.918.918,0,0,0,.48247.88875,5.266,5.266,0,0,0,1.3966.43168,5.56454,5.56454,0,0,1,1.32043.38089,2.50957,2.50957,0,0,1,1.67592,2.43771,3.864,3.864,0,0,1-.27932,1.422,5.67987,5.67987,0,0,1-.838,1.422A3.67343,3.67343,0,0,1,59.867,21.1254a6.895,6.895,0,0,1-2.38692.43168,4.10741,4.10741,0,0,1-2.76782-.73639,2.34931,2.34931,0,0,1-.838-1.72671,1.72692,1.72692,0,0,1,.53325-1.422,1.75331,1.75331,0,0,1,1.11728-.43168,1.22518,1.22518,0,0,1,.711.22854.94532.94532,0,0,1,.3555.78717,1.51983,1.51983,0,0,1-.45707,1.11729,1.2506,1.2506,0,0,1-.78718.45707.19486.19486,0,0,1-.07618.02539q-.0254,0-.02539.05079a.54883.54883,0,0,0,.20314.20314,3.54492,3.54492,0,0,0,.78718.3301,4.99435,4.99435,0,0,0,2.971-.10157,2.18146,2.18146,0,0,0,.96493-.711,3.37076,3.37076,0,0,0,.43167-.78717,1.91514,1.91514,0,0,0,.127-.63482,1.19627,1.19627,0,0,0-.53325-1.0665,2.69936,2.69936,0,0,0-1.21886-.43168,6.28421,6.28421,0,0,1-1.49817-.38089,2.34982,2.34982,0,0,1-1.19346-.88875A2.55591,2.55591,0,0,1,55.855,13.96463Z"/>
    <path id="MJMAIN-29-2" data-name="MJMAIN-29" class="cls-6" d="M65.96132,2.28393l.10157-.02539h.55864l.711.60943a12.53117,12.53117,0,0,1,3.47882,5.38327A20.76146,20.76146,0,0,1,71.90324,14.955a21.19907,21.19907,0,0,1-.25393,3.32646,21.83386,21.83386,0,0,1-.584,2.717,11.437,11.437,0,0,1-.93953,2.23456q-.60944,1.11729-.96493,1.70132a7.7243,7.7243,0,0,1-1.0411,1.295q-.68561.711-.81257.838t-.584.48246l-.10157.10157h-.584a.14923.14923,0,0,1-.127-.07617.598.598,0,0,1-.07618-.22854q.0254-.0254.27932-.33011,3.9359-4.08824,3.93589-12.06158T66.11367,2.89336q-.25392-.30471-.27932-.33011A.29847.29847,0,0,1,65.96132,2.28393Z"/>
  </g>
  <g>
    <path id="MJMATHI-3C0-3" data-name="MJMATHI-3C0" class="cls-6" d="M301.06407,26.41689a.91394.91394,0,0,1-1.04915-1.01829v-.33943l.40114-.864a59.793,59.793,0,0,0,3.36345-8.424l.24686-.74058h-.98743a10.28843,10.28843,0,0,0-1.6663.09257,3.33851,3.33851,0,0,0-1.20343.58629,4.0307,4.0307,0,0,0-.67886.55543,7.95009,7.95009,0,0,0-.58629.648,3.8003,3.8003,0,0,0-.27772.37028,1.75891,1.75891,0,0,1-.46286.03086q-.58629,0-.58629-.30857a3.72559,3.72559,0,0,1,.58629-1.08,10.49342,10.49342,0,0,1,1.69715-1.91315,4.19521,4.19521,0,0,1,2.19087-1.17258q.216-.06171,6.9429-.06171,4.93717,0,5.0606.03085a.84247.84247,0,0,1,.61715.864,1.28876,1.28876,0,0,1-.98744,1.296,16.73627,16.73627,0,0,1-2.12915.06171h-1.97487l-.09257.52457a23.161,23.161,0,0,0-.37029,3.672,13.44476,13.44476,0,0,0,.27772,2.86973,11.1495,11.1495,0,0,0,.58628,1.97487,3.59808,3.59808,0,0,1,.30858.864,1.43,1.43,0,0,1-.432.98743,1.45141,1.45141,0,0,1-1.11087.46286,1.4219,1.4219,0,0,1-.55543-.09257q-.216-.09256-.49372-.74057a8.91418,8.91418,0,0,1-.49371-1.85144q-.03087-.27773-.03086-1.35772a20.47876,20.47876,0,0,1,.27771-3.24q.27773-1.728.55544-2.83888l.30857-1.23429h-3.024l-.03086.12343q0,.09257-.58628,2.43773t-1.32687,4.968a22.99591,22.99591,0,0,1-.95658,2.99316A1.29745,1.29745,0,0,1,301.06407,26.41689Z"/>
    <path id="MJMAIN-32-2" data-name="MJMAIN-32" class="cls-6" d="M316.95266,21.36518a1.19242,1.19242,0,0,1-.93809-.39269,1.39337,1.39337,0,0,1-.34906-.95991,3.63486,3.63486,0,0,1,1.15625-2.68339,3.9481,3.9481,0,0,1,2.87973-1.13443,4.71766,4.71766,0,0,1,3.31605,1.2217,4.16511,4.16511,0,0,1,1.3526,3.16334,3.86884,3.86884,0,0,1-.43632,1.78892,6.17358,6.17358,0,0,1-1.04717,1.4835q-.61086.63267-1.74529,1.61439-.78539.67631-2.18162,2.00708l-1.28715,1.22171,1.658.02181a26.18806,26.18806,0,0,0,3.64329-.10908,5.9142,5.9142,0,0,0,.52359-1.94163v-.06545h.87264v.06545q-.02181.06545-.28361,1.98526a16.28485,16.28485,0,0,1-.32724,2.00709v.06545h-8.09378V30.048a.55683.55683,0,0,1,.13089-.32725q.1309-.17452.65449-.76356.63267-.69812,1.0908-1.2217.19635-.21816.74175-.8072t.74175-.8072q.19635-.21816.63267-.71993t.61085-.74175q.17453-.24.50177-.65448a3.72344,3.72344,0,0,0,.45814-.69812q.13089-.2836.32724-.63266a2.81962,2.81962,0,0,0,.28361-.69812q.08727-.34907.15271-.65448a3.47279,3.47279,0,0,0,.06545-.71994,3.88994,3.88994,0,0,0-.74175-2.378,2.47386,2.47386,0,0,0-2.11616-1.00355,2.196,2.196,0,0,0-1.26534.37088,2.628,2.628,0,0,0-.76356.71993,1.55467,1.55467,0,0,0-.21816.41451q0,.02181.10908.02181a1.36766,1.36766,0,0,1,.8072.30543,1.16381,1.16381,0,0,1,.4145,1.00354,1.286,1.286,0,0,1-.34906.91628A1.35062,1.35062,0,0,1,316.95266,21.36518Z"/>
  </g>
  <text class="cls-10" transform="translate(0.55707 155.90097)">Off-policy <tspan class="cls-11" x="69.05566" y="0">v</tspan><tspan class="cls-12" x="76.3457" y="0">alue estimation</tspan></text>
</svg>
