<svg id="Layer_1" data-name="Layer 1" xmlns="http://www.w3.org/2000/svg" viewBox="0 0 592.74003 162">
  <defs>
    <style>
      .cls-1 {
        fill: #e7ebe8;
      }

      .cls-2 {
        fill: #fff;
      }

      .cls-3 {
        fill: #58595b;
      }

      .cls-4 {
        fill: #b2b3c3;
      }

      .cls-5, .cls-8 {
        fill: #ef4136;
      }

      .cls-5, .cls-7 {
        opacity: 0.5;
      }

      .cls-6 {
        fill: #010101;
      }

      .cls-7, .cls-9 {
        fill: #70a8da;
      }

      .cls-10 {
        font-size: 15.41582px;
        fill: #6d6e71;
        font-family: Roboto-Regular, Roboto;
      }

      .cls-11 {
        letter-spacing: -0.00729em;
      }

      .cls-12 {
        letter-spacing: -0.00006em;
      }
    </style>
  </defs>
  <title>off-policy-value</title>
  <rect class="cls-1" x="304.85822" y="36.36363" width="98.08184" height="98.08184"/>
  <polygon class="cls-2" points="317.767 85.403 327.923 105.793 327.923 65.012 317.767 85.403"/>
  <polygon class="cls-3" points="353.8 121.79 374.191 111.635 333.41 111.635 353.8 121.79"/>
  <polygon class="cls-4" points="390.031 85.425 379.875 65.035 379.875 105.816 390.031 85.425"/>
  <polygon class="cls-4" points="353.8 49.229 333.41 59.385 374.191 59.385 353.8 49.229"/>
  <rect class="cls-1" x="5.82216" y="36.57125" width="98.08184" height="98.08184"/>
  <circle class="cls-2" cx="55.90327" cy="86.83716" r="31.06609"/>
  <circle class="cls-5" cx="55.90059" cy="86.87423" r="31.06609"/>
  <g>
    <path id="MJMAIN-3D" class="cls-6" d="M158.08526,83.932a.8312.8312,0,0,1,.53421-.76316h24.30662a.88736.88736,0,0,1,.57237.76316.86569.86569,0,0,1-.53421.725L170.83,84.69518H158.69578A.75629.75629,0,0,1,158.08526,83.932Zm0,7.40265a.75629.75629,0,0,1,.61052-.76316h24.26847q.53421.38157.53421.76316a.83435.83435,0,0,1-.57237.76315H158.61947A.83118.83118,0,0,1,158.08526,91.33467Z"/>
    <path id="MJSZ2-2211" class="cls-6" d="M223.9459,60.99909q.11446-.07632,23.08556-.07632h22.97109l2.21317,5.15133q2.25132,5.2658,2.404,5.57106h-1.52632l-.26711-.53421a12.89192,12.89192,0,0,0-2.13684-2.97632,16.01642,16.01642,0,0,0-4.23554-2.93817,20.89351,20.89351,0,0,0-5.38027-1.64079,44.3891,44.3891,0,0,0-5.76185-.64869q-2.70921-.11447-6.98291-.15263H231.23407l.30526.41974q17.66713,24.154,17.74345,24.38294a.34394.34394,0,0,1,0,.22895q-.11446.11447-10.0737,11.5237l-10.0737,11.44739q0,.03816,8.05133.03816H242.567q3.39606,0,4.88422.03815,5.18949,0,8.39475-.19079a49.0177,49.0177,0,0,0,6.37238-.80131,17.57293,17.57293,0,0,0,5.38027-1.86974,14.3096,14.3096,0,0,0,3.93027-3.31975,12.09233,12.09233,0,0,0,1.56448-2.74737h1.52632q0,.03816-.26711.80132t-.95395,2.48027q-.68684,1.7171-1.18289,3.20526l-2.21317,5.91449-22.93293.03816q-22.97109,0-23.08557-.07632a.32415.32415,0,0,1-.22894-.34342.58562.58562,0,0,1,.07631-.229l20.3382-23.27636q0-.03815-1.25922-1.7171T238.90382,83.207q-2.74739-3.81579-4.96054-6.79212l-10.15-13.92765-.03815-.57237Q223.75511,61.11357,223.9459,60.99909Z"/>
  </g>
  <path id="MJMAIN-22C5" class="cls-6" d="M443.63191,87.598a2.26072,2.26072,0,0,1,.64868-1.60264,2.16016,2.16016,0,0,1,1.6408-.68684,2.33689,2.33689,0,0,1,1.60263.61053,2.20183,2.20183,0,0,1,.725,1.64079,2.30662,2.30662,0,0,1-.64868,1.64079,2.16013,2.16013,0,0,1-1.6408.68684,2.22376,2.22376,0,0,1-1.64079-.64868A2.35954,2.35954,0,0,1,443.63191,87.598Z"/>
  <rect class="cls-1" x="489.67842" y="36.37762" width="98.08184" height="98.08184"/>
  <polygon class="cls-2" points="574.802 85.462 564.646 65.072 564.646 105.853 574.802 85.462"/>
  <polygon class="cls-2" points="502.54 85.417 512.696 105.807 512.696 65.026 502.54 85.417"/>
  <polygon class="cls-7" points="502.588 85.417 512.743 105.807 512.743 65.026 502.588 85.417"/>
  <polygon class="cls-8" points="538.621 121.804 559.011 111.649 518.23 111.649 538.621 121.804"/>
  <polygon class="cls-5" points="574.851 85.439 564.695 65.049 564.695 105.83 574.851 85.439"/>
  <polygon class="cls-9" points="538.621 49.243 518.23 59.399 559.011 59.399 538.621 49.243"/>
  <g>
    <path id="MJMATHI-51" class="cls-6" d="M498.51915,22.98663q0-.87587.02654-1.32707a2.62184,2.62184,0,0,1,.05308-.50429v-.10616l-.39812.10616a9.65506,9.65506,0,0,1-2.22948.292,6.51335,6.51335,0,0,1-6.68843-5.91873q-.02654-.21232-.02654-1.14128a10.98,10.98,0,0,1,1.274-5.149A14.86522,14.86522,0,0,1,493.954,4.912a10.35236,10.35236,0,0,1,6.6088-2.73377q1.00857,0,1.274.02654a6.3189,6.3189,0,0,1,4.14045,2.28256,7.48319,7.48319,0,0,1,1.59249,4.83054,12.07631,12.07631,0,0,1-3.92813,8.70557,12.7293,12.7293,0,0,1-3.47692,2.41527l-.4512.21233v.1327q0,.02655.1327.71662a2.08876,2.08876,0,0,0,.55737,1.11474,1.65253,1.65253,0,0,0,1.22091.42466,3.09219,3.09219,0,0,0,1.77827-.58391,2.70027,2.70027,0,0,0,1.11474-1.51286q.15924-.37158.345-.37158a.273.273,0,0,1,.29195.23888,3.97,3.97,0,0,1-.26541.95549q-.26541.74314-.74316,1.75173a4.60763,4.60763,0,0,1-1.43324,1.72519,3.622,3.622,0,0,1-2.01714.7697q-2.17639,0-2.17639-2.83993ZM504.80945,8.442a7.40862,7.40862,0,0,0-.39812-2.548,3.48892,3.48892,0,0,0-1.08819-1.619,5.98407,5.98407,0,0,0-1.32707-.79624,3.62282,3.62282,0,0,0-1.4067-.26541,5.79017,5.79017,0,0,0-2.601.66353,9.55582,9.55582,0,0,0-4.35279,4.67129A14.946,14.946,0,0,0,491.99,15.13038a5.48164,5.48164,0,0,0,1.43323,4.167,2.49276,2.49276,0,0,0,.7697.55737v-.21234a2.776,2.776,0,0,1,.87587-1.96406,2.88532,2.88532,0,0,1,2.07022-.92895,2.14657,2.14657,0,0,1,1.14128.292,1.83527,1.83527,0,0,1,.71662.79624,4.37051,4.37051,0,0,1,.3185.84932q.07962.345.15925.71662l.345-.23887a9.82935,9.82935,0,0,0,2.893-3.21151,14.49009,14.49009,0,0,0,1.64557-3.95466A15.5358,15.5358,0,0,0,504.80945,8.442Zm-8.54632,11.94362a5.26816,5.26816,0,0,0,2.38872-.55737l-.02654-.26541q-.10617-1.45977-.982-1.75173a3.24906,3.24906,0,0,0-.50429-.05308h-.15924a.15366.15366,0,0,1-.10617-.02655,1.61655,1.61655,0,0,0-1.0882.53083,1.73935,1.73935,0,0,0-.58391,1.22091Q495.20147,20.38557,496.26313,20.38557Z"/>
    <g>
      <path id="MJMATHI-3C0" class="cls-6" d="M511.40032,10.13468a.55577.55577,0,0,1-.638-.61924V9.309l.24394-.52541a36.36331,36.36331,0,0,0,2.04536-5.12278l.15011-.45036h-.60047a6.256,6.256,0,0,0-1.0133.0563,2.03013,2.03013,0,0,0-.73182.35653,2.45163,2.45163,0,0,0-.41283.33776,4.83873,4.83873,0,0,0-.35653.39406,2.31318,2.31318,0,0,0-.16888.22518,1.06976,1.06976,0,0,1-.28147.01877q-.35654,0-.35653-.18765a2.2655,2.2655,0,0,1,.35653-.65677,6.38126,6.38126,0,0,1,1.03206-1.16341,2.551,2.551,0,0,1,1.3323-.71306q.13135-.03753,4.22207-.03753,3.00235,0,3.07742.01876a.51231.51231,0,0,1,.3753.52541.7837.7837,0,0,1-.60048.78812,10.17657,10.17657,0,0,1-1.29476.03753h-1.201l-.05629.319a14.08444,14.08444,0,0,0-.22518,2.233,8.176,8.176,0,0,0,.16888,1.74512,6.77988,6.77988,0,0,0,.35653,1.201,2.188,2.188,0,0,1,.18765.52541.86959.86959,0,0,1-.26271.60047.8826.8826,0,0,1-.67553.28147.86471.86471,0,0,1-.33776-.05629q-.13135-.0563-.30024-.45035a5.42071,5.42071,0,0,1-.30024-1.12589q-.01877-.16889-.01876-.82565a12.453,12.453,0,0,1,.16888-1.9703q.16888-1.05082.33777-1.72636l.18765-.75059h-1.83895l-.01877.07506q0,.05629-.35653,1.48242t-.80688,3.02112a13.98432,13.98432,0,0,1-.58171,1.82019A.789.789,0,0,1,511.40032,10.13468Z"/>
      <path id="MJMAIN-31" class="cls-6" d="M522.4462,5.08446l-.17251.06636a3.80394,3.80394,0,0,1-.53083.1327,6.11563,6.11563,0,0,1-.7697.0929H520.721V4.766h.25215a4.316,4.316,0,0,0,1.15455-.19906,3.13442,3.13442,0,0,0,.74316-.3185,3.40407,3.40407,0,0,0,.37158-.29195q.02653-.03982.15924-.03982a.36959.36959,0,0,1,.22561.07963V7.9642l.01327,3.98121a.5257.5257,0,0,0,.15924.11944,1.574,1.574,0,0,0,.3185.05308q.25215.02655.82278.02654h.345v.61045h-.146q-.27867-.03981-2.11-.03981-1.8048,0-2.08349.03981h-.15925v-.61045h.84932a3.18632,3.18632,0,0,0,.33177-.01327,1.29924,1.29924,0,0,0,.21233-.03981.79577.79577,0,0,1,.10617-.02654q.01326,0,.07962-.06635t.07962-.05309Z"/>
    </g>
    <path id="MJMAIN-28" class="cls-6" d="M533.28836,14.228a21.83084,21.83084,0,0,1,.26541-3.47692,24.32575,24.32575,0,0,1,.61046-2.83993,11.11314,11.11314,0,0,1,.982-2.33564q.637-1.14127,1.00857-1.77827a7.04959,7.04959,0,0,1,1.11474-1.38015q.74316-.74316.87586-.90241A4.78317,4.78317,0,0,1,538.809.95728h.4512q.37158,0,.37158.23887a2.14471,2.14471,0,0,1-.4512.55737,12.04968,12.04968,0,0,0-1.0882,1.40669,18.36393,18.36393,0,0,0-1.30053,2.28256,15.10023,15.10023,0,0,0-1.11474,3.66271,26.78829,26.78829,0,0,0-.4512,5.12249,26.37174,26.37174,0,0,0,.4512,5.096,17.2381,17.2381,0,0,0,1.0882,3.68925,12.01991,12.01991,0,0,0,1.30053,2.28256q.66354.87586,1.11474,1.40669a5.99682,5.99682,0,0,1,.4512.55737q0,.23888-.39812.23887H538.809l-.74316-.637a13.09791,13.09791,0,0,1-3.63617-5.62677A21.70038,21.70038,0,0,1,533.28836,14.228Z"/>
    <path id="MJMATHI-73" class="cls-6" d="M544.62153,13.19286a3.93336,3.93336,0,0,1,.42466-1.72519,4.36656,4.36656,0,0,1,1.48632-1.619A4.24068,4.24068,0,0,1,549.107,9.132a3.3533,3.3533,0,0,1,2.38872.71661,2.274,2.274,0,0,1,.7697,1.59249,1.58064,1.58064,0,0,1-.4512,1.24744,1.608,1.608,0,0,1-1.00858.42466,1.06009,1.06009,0,0,1-.637-.21233.8587.8587,0,0,1-.3185-.69007,1.20439,1.20439,0,0,1,.23888-.74316,2.38468,2.38468,0,0,1,.4512-.47775.64236.64236,0,0,1,.345-.15925.02346.02346,0,0,0,.02654-.02654q0-.07962-.18579-.23887a1.813,1.813,0,0,0-.66353-.29195,4.69552,4.69552,0,0,0-1.03512-.15925,2.24493,2.24493,0,0,0-2.46835,2.09677.95948.95948,0,0,0,.50429.92894,5.50411,5.50411,0,0,0,1.45978.45121,5.816,5.816,0,0,1,1.38015.39812,2.62308,2.62308,0,0,1,1.75173,2.548,4.03883,4.03883,0,0,1-.292,1.48632,5.93686,5.93686,0,0,1-.87586,1.48632,3.83956,3.83956,0,0,1-1.67211,1.16782,7.20676,7.20676,0,0,1-2.49489.4512,4.29312,4.29312,0,0,1-2.893-.7697,2.45556,2.45556,0,0,1-.87587-1.80481,1.805,1.805,0,0,1,.55737-1.48632,1.83268,1.83268,0,0,1,1.16782-.4512,1.28059,1.28059,0,0,1,.74316.23887.98808.98808,0,0,1,.37158.82278,1.58856,1.58856,0,0,1-.47774,1.16782,1.30713,1.30713,0,0,1-.82279.47775.20374.20374,0,0,1-.07962.02654q-.02653,0-.02654.05308a.57361.57361,0,0,0,.21233.21233,3.70538,3.70538,0,0,0,.82278.345,5.22029,5.22029,0,0,0,3.10534-.10616,2.28014,2.28014,0,0,0,1.00858-.74316,3.52359,3.52359,0,0,0,.4512-.82279,2.00193,2.00193,0,0,0,.13271-.66353,1.25038,1.25038,0,0,0-.55737-1.11474,2.82133,2.82133,0,0,0-1.274-.4512,6.56919,6.56919,0,0,1-1.56594-.39812,2.45615,2.45615,0,0,1-1.24744-.929A2.67153,2.67153,0,0,1,544.62153,13.19286Z"/>
    <path id="MJMAIN-2C" class="cls-6" d="M555.66275,19.93437v-.66354a1.65972,1.65972,0,0,1,.42466-1.14127,1.45068,1.45068,0,0,1,1.14128-.47775,1.735,1.735,0,0,1,1.32707.66353,3.66417,3.66417,0,0,1,.61045,2.33565,6.82831,6.82831,0,0,1-.23887,1.80481,8.25212,8.25212,0,0,1-.55737,1.51286,5.75625,5.75625,0,0,1-.69008,1.0882q-.37158.4512-.637.71661t-.345.23888q-.10617,0-.345-.23888t-.23887-.345q0-.10617.292-.42467t.66353-.79624a5.09353,5.09353,0,0,0,.69008-1.32707,7.62392,7.62392,0,0,0,.42466-1.93752v-.31849l-.02654.02654a1.03013,1.03013,0,0,1-.13271.05308.67024.67024,0,0,0-.15925.07962.4343.4343,0,0,1-.23887.05309,1.93362,1.93362,0,0,0-.3185.02654,1.58015,1.58015,0,0,1-1.16782-.45121Z"/>
    <path id="MJMATHI-61" class="cls-6" d="M566.30584,16.69632a7.84328,7.84328,0,0,1,2.01715-5.09595,5.93939,5.93939,0,0,1,4.53858-2.4418,3.009,3.009,0,0,1,2.38872,1.30053,1.32806,1.32806,0,0,1,1.2209-.79625.9497.9497,0,0,1,.61046.21233.65362.65362,0,0,1,.26541.53083q0,.345-.982,4.24662t-1.00857,4.40587a1.42,1.42,0,0,0,.18578.87587.77966.77966,0,0,0,.55737.23887,1.15322,1.15322,0,0,0,.53083-.23887,6.01842,6.01842,0,0,0,1.0882-2.548q.15924-.53083.26541-.55737a.77621.77621,0,0,1,.26542-.02654h.10616q.50428,0,.50429.23887a4.21589,4.21589,0,0,1-.13271.71662,8.326,8.326,0,0,1-.53083,1.43323,4.52167,4.52167,0,0,1-.84932,1.32707,2.6244,2.6244,0,0,1-.84933.55737,2.82947,2.82947,0,0,1-.637.05308,2.713,2.713,0,0,1-1.51286-.39812,2.03757,2.03757,0,0,1-.79624-.82278l-.15925-.39812q-.02653-.02655-.10616.02654l-.10617.10616a4.65333,4.65333,0,0,1-3.185,1.48632,3.62224,3.62224,0,0,1-2.57452-1.06165A4.47242,4.47242,0,0,1,566.30584,16.69632Zm8.44016-4.53858a2.40272,2.40272,0,0,0-.1327-.58391,2.52366,2.52366,0,0,0-.61046-.92895,1.69653,1.69653,0,0,0-1.2209-.53082,2.547,2.547,0,0,0-1.77827.82278,5.55354,5.55354,0,0,0-1.32707,2.14985,21.18946,21.18946,0,0,0-1.0882,4.35279v.29195a1.41508,1.41508,0,0,1-.02654.3185,2.229,2.229,0,0,0,.47775,1.64557,1.70931,1.70931,0,0,0,1.14128.47774,2.997,2.997,0,0,0,1.9906-.87586,4.463,4.463,0,0,0,1.16782-1.35361q.05309-.10617.71662-2.83993T574.746,12.15774Z"/>
    <path id="MJMAIN-29" class="cls-6" d="M581.06285.98382,581.169.95728h.58391l.74316.637a13.098,13.098,0,0,1,3.63617,5.62678,21.70032,21.70032,0,0,1,1.14128,7.00692,22.15631,22.15631,0,0,1-.26542,3.47692,22.81878,22.81878,0,0,1-.61045,2.83993,11.95368,11.95368,0,0,1-.982,2.33564q-.637,1.16783-1.00857,1.77828a8.07394,8.07394,0,0,1-1.0882,1.35361q-.71661.74316-.84932.87586t-.61046.50429l-.10616.10616h-.61045a.156.156,0,0,1-.13271-.07962.62472.62472,0,0,1-.07962-.23887q.02654-.02655.29195-.345Q585.336,22.562,585.336,14.228T581.2221,1.62081q-.26541-.3185-.29195-.345A.312.312,0,0,1,581.06285.98382Z"/>
  </g>
  <g>
    <path id="MJMATHI-56" class="cls-6" d="M6.25269,4.7348a1.21147,1.21147,0,0,1,.333-.89649h.28176q1.07579.07685,2.68947.07684,3.02247,0,3.56036-.07684h.25614q.15367.15369.15368.23053t-.05123.46105a1.41108,1.41108,0,0,1-.23052.48667h-.5379q-.56351.05122-.76842.05122-.7428.12807-.81965.38422,0,.05123.74281,6.42912t.76842,6.42913l1.86983-2.99684q1.86982-2.99685,3.73965-6.04492T20.16112,6.118a.7618.7618,0,0,0,.10246-.38421q0-.61473-1.127-.71719-.46105,0-.46105-.28176,0-.0256.05123-.333a1.37809,1.37809,0,0,1,.15368-.461.40662.40662,0,0,1,.333-.10246h.30737q.25614,0,.87088.02561t1.6393.02562q1.76736,0,2.22842-.05123h.1793q.17929.17929.1793.28175a1.56666,1.56666,0,0,1-.23053.81965.73288.73288,0,0,1-.43544.07685q-.333.0256-.61474.05122a1.9049,1.9049,0,0,0-.53789.12807q-.25614.10247-.40983.1793a1.60386,1.60386,0,0,0-.30736.20492,1.43268,1.43268,0,0,1-.25614.17929.55681.55681,0,0,0-.20492.23053q-.10245.1793-.1793.1793l-4.94351,7.94036q-4.61052,7.45368-4.76421,7.633-.07685.05124-.1793.12807l-.46105.02562h-.1793q-.46105,0-.46105-.1793-.07685-.15369-.999-8.1965Q8.48111,5.37515,8.4555,5.29831q-.12807-.28174-1.58807-.28175H6.432A.35485.35485,0,0,1,6.25269,4.7348Z"/>
    <g>
      <path id="MJMATHI-3C0-2" data-name="MJMATHI-3C0" class="cls-6" d="M28.44276,10.97892a.53636.53636,0,0,1-.61571-.5976v-.1992l.23542-.50706a35.09,35.09,0,0,0,1.97389-4.94379l.14488-.43462h-.57949a6.03734,6.03734,0,0,0-.9779.05433,1.9589,1.9589,0,0,0-.70625.34407,2.366,2.366,0,0,0-.39841.326,4.66551,4.66551,0,0,0-.34407.3803,2.23085,2.23085,0,0,0-.163.2173,1.03219,1.03219,0,0,1-.27164.01811q-.34407,0-.34407-.18109a2.18649,2.18649,0,0,1,.34407-.63382,6.15786,6.15786,0,0,1,.996-1.12276,2.462,2.462,0,0,1,1.28575-.68815q.12677-.03623,4.07456-.03622,2.89746,0,2.9699.01811a.49442.49442,0,0,1,.36218.50706.75632.75632,0,0,1-.57949.76058,9.82018,9.82018,0,0,1-1.24953.03622h-1.159l-.05433.30785a13.59266,13.59266,0,0,0-.2173,2.155,7.89018,7.89018,0,0,0,.163,1.68415,6.54235,6.54235,0,0,0,.34407,1.159,2.1117,2.1117,0,0,1,.18109.50706.83922.83922,0,0,1-.25353.57949.85177.85177,0,0,1-.65192.27164.8345.8345,0,0,1-.326-.05433q-.12676-.05433-.28975-.43462a5.23144,5.23144,0,0,1-.28974-1.08655q-.01811-.163-.01811-.7968a12.01878,12.01878,0,0,1,.163-1.90146q.163-1.0141.326-1.666l.18109-.72436h-1.7747l-.01811.07243q0,.05433-.34407,1.43063t-.77869,2.91557a13.495,13.495,0,0,1-.56139,1.75658A.76143.76143,0,0,1,28.44276,10.97892Z"/>
      <path id="MJMAIN-32" class="cls-6" d="M37.77078,8.0134a.7.7,0,0,1-.5507-.23053.81794.81794,0,0,1-.20491-.5635,2.13383,2.13383,0,0,1,.67877-1.57527,2.3177,2.3177,0,0,1,1.69053-.666,2.76947,2.76947,0,0,1,1.94667.71719,2.44507,2.44507,0,0,1,.794,1.857A2.27115,2.27115,0,0,1,41.869,8.60252a3.624,3.624,0,0,1-.61473.87088q-.3586.3714-1.02457.94772-.46106.397-1.2807,1.17825l-.75561.71719.97333.01281a15.37288,15.37288,0,0,0,2.13877-.064,3.47144,3.47144,0,0,0,.30737-1.13982v-.03842h.51228v.03842q-.01279.03842-.16649,1.16544a9.5592,9.5592,0,0,1-.1921,1.17824v.03843H37.01517v-.397a.32685.32685,0,0,1,.07684-.19211q.07684-.10245.38421-.44824.3714-.40983.64035-.7172.11528-.12807.43544-.47386t.43544-.47386q.11526-.12807.37141-.42263t.35859-.43544q.10247-.14088.29456-.38421a2.18618,2.18618,0,0,0,.269-.40982q.07684-.1665.19211-.37141a1.65532,1.65532,0,0,0,.16649-.40982q.05122-.20491.08965-.38421a2.03932,2.03932,0,0,0,.03842-.42264,2.2836,2.2836,0,0,0-.43544-1.396,1.45227,1.45227,0,0,0-1.24228-.58912,1.28908,1.28908,0,0,0-.74281.21772,1.5427,1.5427,0,0,0-.44825.42263.91279.91279,0,0,0-.12807.24333q0,.01281.064.01281a.80282.80282,0,0,1,.47386.1793A.68319.68319,0,0,1,38.552,7.245a.7549.7549,0,0,1-.20491.53789A.79287.79287,0,0,1,37.77078,8.0134Z"/>
    </g>
    <path id="MJMAIN-28-2" data-name="MJMAIN-28" class="cls-6" d="M49.56606,14.9292a21.068,21.068,0,0,1,.25614-3.35545,23.475,23.475,0,0,1,.58912-2.7407A10.72546,10.72546,0,0,1,51.359,6.579q.61473-1.10141.97333-1.71614a6.80354,6.80354,0,0,1,1.07579-1.33193q.71719-.7172.84527-.87088a4.61675,4.61675,0,0,1,.64035-.53789h.43544q.35859,0,.35859.23052a2.06954,2.06954,0,0,1-.43543.5379A11.62752,11.62752,0,0,0,54.2022,4.24813a17.7215,17.7215,0,0,0-1.25509,2.20281,14.57205,14.57205,0,0,0-1.07579,3.53474,25.85242,25.85242,0,0,0-.43544,4.94352,25.45018,25.45018,0,0,0,.43544,4.91789,16.63473,16.63473,0,0,0,1.05018,3.56036,11.59967,11.59967,0,0,0,1.25509,2.20281q.64035.84525,1.07579,1.35754a5.784,5.784,0,0,1,.43543.5379q0,.23052-.38421.23052h-.40982l-.71719-.61474a12.6403,12.6403,0,0,1-3.50913-5.43017A20.94211,20.94211,0,0,1,49.56606,14.9292Z"/>
    <path id="MJMATHI-73-2" data-name="MJMATHI-73" class="cls-6" d="M60.50326,13.93025a3.79579,3.79579,0,0,1,.40982-1.66492,4.214,4.214,0,0,1,1.43439-1.56245A4.09252,4.09252,0,0,1,64.832,10.0113a3.2361,3.2361,0,0,1,2.30527.69158,2.19451,2.19451,0,0,1,.7428,1.53684,1.52539,1.52539,0,0,1-.43544,1.20386,1.55176,1.55176,0,0,1-.97333.40982,1.02308,1.02308,0,0,1-.61474-.20491.82871.82871,0,0,1-.30737-.666,1.16237,1.16237,0,0,1,.23053-.7172,2.30127,2.30127,0,0,1,.43544-.46105.61983.61983,0,0,1,.333-.15368.02265.02265,0,0,0,.02562-.02562q0-.07685-.1793-.23052a1.74946,1.74946,0,0,0-.64035-.28176,4.53178,4.53178,0,0,0-.999-.15368,2.16651,2.16651,0,0,0-2.38211,2.02351.926.926,0,0,0,.48667.89649,5.312,5.312,0,0,0,1.40877.43544,5.61269,5.61269,0,0,1,1.33193.38421,2.53142,2.53142,0,0,1,1.69053,2.459,3.89781,3.89781,0,0,1-.28175,1.43438,5.72978,5.72978,0,0,1-.84527,1.43439,3.70542,3.70542,0,0,1-1.61368,1.127,6.95516,6.95516,0,0,1-2.40772.43544,4.14316,4.14316,0,0,1-2.79194-.74281,2.36977,2.36977,0,0,1-.84526-1.74175,1.742,1.742,0,0,1,.5379-1.43439,1.76861,1.76861,0,0,1,1.127-.43544,1.23587,1.23587,0,0,1,.7172.23053.95354.95354,0,0,1,.35859.794,1.533,1.533,0,0,1-.46105,1.127,1.26146,1.26146,0,0,1-.794.46105.1966.1966,0,0,1-.07685.02562q-.0256,0-.02561.05123a.55369.55369,0,0,0,.20491.20491,3.5761,3.5761,0,0,0,.794.333,5.03777,5.03777,0,0,0,2.99684-.10246,2.20048,2.20048,0,0,0,.97334-.71719,3.40037,3.40037,0,0,0,.43543-.794,1.932,1.932,0,0,0,.12807-.64036,1.20669,1.20669,0,0,0-.53789-1.07579,2.72289,2.72289,0,0,0-1.22948-.43544,6.33838,6.33838,0,0,1-1.51122-.38421,2.37034,2.37034,0,0,1-1.20386-.89649A2.57815,2.57815,0,0,1,60.50326,13.93025Z"/>
    <path id="MJMAIN-29-2" data-name="MJMAIN-29" class="cls-6" d="M70.69765,2.14778l.10246-.02561h.5635l.7172.61474a12.64025,12.64025,0,0,1,3.50912,5.43018,20.942,20.942,0,0,1,1.10141,6.76211,21.3831,21.3831,0,0,1-.25614,3.35544,22.02234,22.02234,0,0,1-.58913,2.7407,11.53568,11.53568,0,0,1-.94772,2.254q-.61473,1.127-.97333,1.71614a7.79074,7.79074,0,0,1-1.05018,1.30631q-.69158.7172-.81965.84527t-.58912.48667l-.10246.10245h-.58912a.1505.1505,0,0,1-.12807-.07684.6031.6031,0,0,1-.07684-.23053q.02562-.02561.28175-.333Q74.82152,22.972,74.82151,14.9292T70.85133,2.76252q-.25614-.30736-.28175-.333A.30106.30106,0,0,1,70.69765,2.14778Z"/>
  </g>
  <g>
    <path id="MJMATHI-3C0-3" data-name="MJMATHI-3C0" class="cls-6" d="M307.84877,26.491a.9219.9219,0,0,1-1.05829-1.02716v-.34239l.40464-.87153a60.31484,60.31484,0,0,0,3.39276-8.49745l.249-.747h-.996a10.37633,10.37633,0,0,0-1.68081.09338,3.3674,3.3674,0,0,0-1.21393.59139,4.06645,4.06645,0,0,0-.68477.56027,8.02261,8.02261,0,0,0-.5914.65365,3.83535,3.83535,0,0,0-.28013.37352,1.775,1.775,0,0,1-.4669.03112q-.59139,0-.59139-.31126a3.758,3.758,0,0,1,.59139-1.08941,10.58456,10.58456,0,0,1,1.71194-1.92983,4.23171,4.23171,0,0,1,2.21-1.18279q.21789-.06225,7.00339-.06225,4.98018,0,5.10469.03112a.84981.84981,0,0,1,.62253.87154,1.3,1.3,0,0,1-.996,1.30729,16.87831,16.87831,0,0,1-2.14771.06226H316.4396l-.09338.52914a23.36291,23.36291,0,0,0-.37352,3.704,13.562,13.562,0,0,0,.28014,2.89473,11.24639,11.24639,0,0,0,.5914,1.99208,3.62924,3.62924,0,0,1,.31126.87153,1.44253,1.44253,0,0,1-.43577.996,1.46406,1.46406,0,0,1-1.12054.46689,1.43442,1.43442,0,0,1-.56027-.09338q-.21789-.09337-.498-.747a8.99142,8.99142,0,0,1-.498-1.86757q-.03113-.28014-.03112-1.36955a20.65653,20.65653,0,0,1,.28013-3.26825q.28014-1.74306.56027-2.86361l.31126-1.245h-3.05036l-.03113.1245q0,.09337-.59139,2.459t-1.33843,5.01131a23.19685,23.19685,0,0,1-.96491,3.01924A1.30877,1.30877,0,0,1,307.84877,26.491Z"/>
    <path id="MJMAIN-32-2" data-name="MJMAIN-32" class="cls-6" d="M323.8758,21.39528a1.20279,1.20279,0,0,1-.94627-.39612,1.40551,1.40551,0,0,1-.3521-.96827,3.66649,3.66649,0,0,1,1.16633-2.70676,3.98247,3.98247,0,0,1,2.90482-1.14432,4.75878,4.75878,0,0,1,3.34494,1.23234,4.20146,4.20146,0,0,1,1.36439,3.1909,3.90246,3.90246,0,0,1-.44013,1.80451,6.22685,6.22685,0,0,1-1.0563,1.49642q-.61617.63819-1.76049,1.62846-.79223.6822-2.20062,2.02457L324.602,28.78936l1.67247.022a26.41708,26.41708,0,0,0,3.675-.11,5.96632,5.96632,0,0,0,.52815-1.95856v-.066h.88025v.066q-.022.066-.28609,2.00257a16.42384,16.42384,0,0,1-.33009,2.02457v.066h-8.1643v-.68219a.56161.56161,0,0,1,.132-.3301q.132-.176.66018-.77021.63819-.7042,1.10031-1.23235.19806-.22007.74821-.81423t.74822-.81423q.198-.22007.63818-.72621t.61617-.74821q.17606-.24207.50614-.66018a3.75619,3.75619,0,0,0,.46213-.7042q.132-.28608.3301-.63818a2.84492,2.84492,0,0,0,.28608-.7042q.088-.35209.154-.66019a3.50365,3.50365,0,0,0,.066-.7262,3.92393,3.92393,0,0,0-.74821-2.39868,2.49545,2.49545,0,0,0-2.13461-1.01228,2.21508,2.21508,0,0,0-1.27635.3741,2.65085,2.65085,0,0,0-.77022.72621,1.568,1.568,0,0,0-.22006.41812q0,.022.11.022a1.3796,1.3796,0,0,1,.81423.30809,1.17394,1.17394,0,0,1,.41811,1.01228,1.29719,1.29719,0,0,1-.35209.92426A1.36239,1.36239,0,0,1,323.8758,21.39528Z"/>
  </g>
  <text class="cls-10" transform="translate(4.72431 157.10279)">Off-policy <tspan class="cls-11" x="69.65723" y="0">v</tspan><tspan class="cls-12" x="77.01172" y="0">alue estimation</tspan></text>
</svg>
