<svg id="Layer_1" data-name="Layer 1" xmlns="http://www.w3.org/2000/svg" viewBox="0 0 344 216"><defs><style>.cls-1,.cls-17,.cls-26{font-size:10px;}.cls-1{fill:#2f3030;font-family:MyriadPro-Semibold, Myriad Pro;font-weight:700;}.cls-2{letter-spacing:-0.03em;}.cls-3{letter-spacing:0.02em;}.cls-4{letter-spacing:-0.03em;}.cls-5{letter-spacing:0.01em;}.cls-6{letter-spacing:-0.01em;}.cls-7,.cls-9{fill:#efefef;}.cls-7{stroke:#fff;}.cls-14,.cls-15,.cls-7{stroke-miterlimit:10;}.cls-8{fill:#898888;}.cls-10{fill:#fff;}.cls-11{fill:#4b54a4;}.cls-12{fill:#dbddf0;}.cls-13{fill:#bfbddf;}.cls-14,.cls-15{fill:none;}.cls-14{stroke:#231f20;}.cls-15{stroke:#696868;stroke-width:1.5px;}.cls-16{fill:#696868;}.cls-17{fill:#515151;}.cls-17,.cls-26{font-family:MyriadPro-Regular, Myriad Pro;}.cls-18{letter-spacing:-0.01em;}.cls-19{letter-spacing:0.01em;}.cls-20{letter-spacing:-0.01em;}.cls-21{letter-spacing:-0.01em;}.cls-22{letter-spacing:-0.03em;}.cls-23{letter-spacing:-0.01em;}.cls-24{letter-spacing:0em;}.cls-25{letter-spacing:0.02em;}.cls-26{fill:#f68b1f;}.cls-27{letter-spacing:0.01em;}.cls-28{letter-spacing:-0.01em;}.cls-29{letter-spacing:0em;}.cls-30{letter-spacing:0.02em;}</style></defs><title>old-function-approximation</title><text class="cls-1" transform="translate(27.33 11.43)"><tspan class="cls-2">P</tspan><tspan x="5.34" y="0">oli</tspan><tspan class="cls-3" x="16.11" y="0">c</tspan><tspan x="20.76" y="0">y </tspan><tspan class="cls-4" x="27.83" y="0">F</tspan><tspan x="32.61" y="0">un</tspan><tspan class="cls-5" x="44.02" y="0">c</tspan><tspan x="48.66" y="0">tion</tspan></text><text class="cls-1" transform="translate(126.33 137.43)">Experien<tspan class="cls-6" x="38.1" y="0">c</tspan><tspan x="42.5" y="0">e</tspan></text><text class="cls-1" transform="translate(225.33 11.43)">Experien<tspan class="cls-6" x="38.1" y="0">c</tspan><tspan x="42.5" y="0">e</tspan></text><rect class="cls-7" x="26.09" y="15.33" width="18" height="18"/><rect class="cls-8" x="30.53" y="19.77" width="9.13" height="9.13" transform="translate(27.48 -17.69) rotate(45)"/><rect class="cls-9" x="31.55" y="21.05" width="6.89" height="6.89"/><rect class="cls-7" x="43.33" y="15.33" width="18" height="18"/><rect class="cls-8" x="47.77" y="19.77" width="9.13" height="9.13" transform="translate(32.53 -29.88) rotate(45)"/><rect class="cls-9" x="48.79" y="21.05" width="6.89" height="6.89"/><rect class="cls-7" x="61.33" y="15.33" width="18" height="18"/><rect class="cls-8" x="65.77" y="19.77" width="9.13" height="9.13" transform="translate(37.81 -42.61) rotate(45)"/><rect class="cls-9" x="66.79" y="21.05" width="6.89" height="6.89"/><rect class="cls-7" x="79.33" y="15.33" width="18" height="18"/><rect class="cls-8" x="83.77" y="19.77" width="9.13" height="9.13" transform="translate(43.08 -55.33) rotate(45)"/><rect class="cls-9" x="84.79" y="21.05" width="6.89" height="6.89"/><rect class="cls-7" x="26.09" y="33.33" width="18" height="18"/><rect class="cls-8" x="30.53" y="37.77" width="9.13" height="9.13" transform="translate(40.21 -12.42) rotate(45)"/><rect class="cls-9" x="31.55" y="39.05" width="6.89" height="6.89"/><rect class="cls-7" x="43.33" y="33.33" width="18" height="18"/><rect class="cls-8" x="47.77" y="37.77" width="9.13" height="9.13" transform="translate(45.26 -24.61) rotate(45)"/><rect class="cls-9" x="48.79" y="39.05" width="6.89" height="6.89"/><rect class="cls-7" x="61.33" y="33.33" width="18" height="18"/><rect class="cls-8" x="65.77" y="37.77" width="9.13" height="9.13" transform="translate(50.53 -37.33) rotate(45)"/><rect class="cls-9" x="66.79" y="39.05" width="6.89" height="6.89"/><rect class="cls-7" x="79.33" y="33.33" width="18" height="18"/><rect class="cls-8" x="83.77" y="37.77" width="9.13" height="9.13" transform="translate(55.81 -50.06) rotate(45)"/><rect class="cls-9" x="84.79" y="39.05" width="6.89" height="6.89"/><rect class="cls-7" x="26.09" y="51.33" width="18" height="18"/><rect class="cls-8" x="30.53" y="55.77" width="9.13" height="9.13" transform="translate(52.94 -7.14) rotate(45)"/><rect class="cls-9" x="31.55" y="57.05" width="6.89" height="6.89"/><rect class="cls-7" x="43.33" y="51.33" width="18" height="18"/><rect class="cls-8" x="47.77" y="55.77" width="9.13" height="9.13" transform="translate(57.99 -19.33) rotate(45)"/><rect class="cls-9" x="48.79" y="57.05" width="6.89" height="6.89"/><rect class="cls-7" x="61.33" y="51.33" width="18" height="18"/><rect class="cls-8" x="65.77" y="55.77" width="9.13" height="9.13" transform="translate(63.26 -32.06) rotate(45)"/><rect class="cls-9" x="66.79" y="57.05" width="6.89" height="6.89"/><rect class="cls-7" x="79.33" y="51.33" width="18" height="18"/><rect class="cls-8" x="83.77" y="55.77" width="9.13" height="9.13" transform="translate(68.53 -44.79) rotate(45)"/><rect class="cls-9" x="84.79" y="57.05" width="6.89" height="6.89"/><rect class="cls-7" x="26.09" y="69.33" width="18" height="18"/><rect class="cls-8" x="30.53" y="73.77" width="9.13" height="9.13" transform="translate(65.67 -1.87) rotate(45)"/><rect class="cls-9" x="31.55" y="75.05" width="6.89" height="6.89"/><rect class="cls-7" x="43.33" y="69.33" width="18" height="18"/><rect class="cls-8" x="47.77" y="73.77" width="9.13" height="9.13" transform="translate(70.72 -14.06) rotate(45)"/><rect class="cls-9" x="48.79" y="75.05" width="6.89" height="6.89"/><rect class="cls-7" x="61.33" y="69.33" width="18" height="18"/><rect class="cls-8" x="65.77" y="73.77" width="9.13" height="9.13" transform="translate(75.99 -26.79) rotate(45)"/><rect class="cls-9" x="66.79" y="75.05" width="6.89" height="6.89"/><rect class="cls-7" x="79.33" y="69.33" width="18" height="18"/><rect class="cls-8" x="83.77" y="73.77" width="9.13" height="9.13" transform="translate(81.26 -39.52) rotate(45)"/><rect class="cls-9" x="84.79" y="75.05" width="6.89" height="6.89"/><rect class="cls-7" x="125.09" y="141.33" width="18" height="18"/><rect class="cls-7" x="125.09" y="159.33" width="18" height="18"/><rect class="cls-7" x="125.09" y="177.33" width="18" height="18"/><rect class="cls-7" x="125.09" y="195.33" width="18" height="18"/><rect class="cls-7" x="143.09" y="141.33" width="18" height="18"/><rect class="cls-7" x="143.09" y="159.33" width="18" height="18"/><rect class="cls-7" x="143.09" y="177.33" width="18" height="18"/><rect class="cls-7" x="143.09" y="195.33" width="18" height="18"/><rect class="cls-7" x="161.09" y="141.33" width="18" height="18"/><rect class="cls-7" x="161.09" y="159.33" width="18" height="18"/><rect class="cls-7" x="161.09" y="177.33" width="18" height="18"/><rect class="cls-7" x="161.09" y="195.33" width="18" height="18"/><rect class="cls-7" x="179.09" y="141.33" width="18" height="18"/><rect class="cls-7" x="179.09" y="159.33" width="18" height="18"/><rect class="cls-7" x="179.09" y="177.33" width="18" height="18"/><rect class="cls-7" x="179.09" y="195.33" width="18" height="18"/><circle class="cls-10" cx="134.21" cy="150.54" r="5.83"/><circle class="cls-11" cx="151.76" cy="150.54" r="5.83"/><circle class="cls-11" cx="169.31" cy="150.54" r="5.83"/><circle class="cls-11" cx="186.86" cy="150.54" r="5.83"/><circle class="cls-12" cx="134.21" cy="168.54" r="5.83"/><circle class="cls-11" cx="151.76" cy="168.54" r="5.83"/><circle class="cls-11" cx="169.31" cy="168.54" r="5.83"/><circle class="cls-11" cx="186.86" cy="168.54" r="5.83"/><circle class="cls-12" cx="134.21" cy="186.54" r="5.83"/><circle class="cls-11" cx="151.76" cy="186.54" r="5.83"/><circle class="cls-11" cx="169.31" cy="186.54" r="5.83"/><circle class="cls-11" cx="186.86" cy="186.54" r="5.83"/><circle class="cls-13" cx="134.21" cy="204.54" r="5.83"/><circle class="cls-13" cx="151.76" cy="204.54" r="5.83"/><circle class="cls-13" cx="169.31" cy="204.54" r="5.83"/><circle class="cls-13" cx="186.86" cy="204.54" r="5.83"/><rect class="cls-7" x="225.61" y="15.33" width="18" height="18"/><rect class="cls-7" x="225.61" y="33.33" width="18" height="18"/><rect class="cls-7" x="225.61" y="51.33" width="18" height="18"/><rect class="cls-7" x="225.61" y="69.33" width="18" height="18"/><rect class="cls-7" x="242.85" y="15.33" width="18" height="18"/><rect class="cls-7" x="242.85" y="33.33" width="18" height="18"/><rect class="cls-7" x="242.85" y="51.33" width="18" height="18"/><rect class="cls-7" x="242.85" y="69.33" width="18" height="18"/><rect class="cls-7" x="260.09" y="15.33" width="18" height="18"/><rect class="cls-7" x="260.09" y="33.33" width="18" height="18"/><rect class="cls-7" x="260.09" y="51.33" width="18" height="18"/><rect class="cls-7" x="260.09" y="69.33" width="18" height="18"/><rect class="cls-7" x="277.33" y="15.33" width="18" height="18"/><rect class="cls-7" x="277.33" y="33.33" width="18" height="18"/><rect class="cls-7" x="277.33" y="51.33" width="18" height="18"/><rect class="cls-7" x="277.33" y="69.33" width="18" height="18"/><polyline class="cls-14" points="234.61 24.33 251.85 24.33 251.85 60.33 269.09 60.33 269.09 78.33 287.85 78.33 287.85 60.33 269.09 60.33 269.09 42.33"/><line class="cls-15" x1="115.33" y1="51.33" x2="198.09" y2="51.33"/><path class="cls-16" d="M205.33,51.33A36.6,36.6,0,0,0,195.08,57l2.06-5.71-2.06-5.7A36.32,36.32,0,0,0,205.33,51.33Z"/><line class="cls-15" x1="259.33" y1="105.33" x2="218.97" y2="153.77"/><path class="cls-16" d="M214.33,159.33a36.42,36.42,0,0,0,2.19-11.53l3.06,5.24,5.7,2.07A36.3,36.3,0,0,0,214.33,159.33Z"/><line class="cls-15" x1="106.33" y1="159.33" x2="65.97" y2="110.9"/><path class="cls-16" d="M61.33,105.33a36.32,36.32,0,0,0,11,4.23l-5.7,2.07-3.06,5.24A36.53,36.53,0,0,0,61.33,105.33Z"/><text class="cls-17" transform="translate(7.33 157.43)">e<tspan class="cls-18" x="5.01" y="0">g</tspan><tspan x="10.45" y="0">. epsilon</tspan><tspan class="cls-19" x="45.04" y="0">-</tspan><tspan class="cls-20" x="48.25" y="0">g</tspan><tspan class="cls-21" x="53.78" y="0">r</tspan><tspan x="56.95" y="0">eedy</tspan></text><text class="cls-17" transform="translate(241.33 157.43)"><tspan class="cls-22">V</tspan><tspan x="5.25" y="0">alue </tspan><tspan class="cls-23" x="25.07" y="0">L</tspan><tspan x="29.65" y="0">ea</tspan><tspan class="cls-24" x="39.48" y="0">r</tspan><tspan x="42.79" y="0">ning</tspan></text><text class="cls-17" transform="translate(115.83 46.43)">Running poli<tspan class="cls-25" x="53.47" y="0">c</tspan><tspan x="58.13" y="0">y</tspan></text><text class="cls-26" transform="translate(241.33 175.43)">o<tspan class="cls-27" x="5.49" y="0">f</tspan><tspan class="cls-28" x="8.52" y="0">t</tspan><tspan x="11.77" y="0">en the ha</tspan><tspan class="cls-21" x="50.81" y="0">r</tspan><tspan class="cls-29" x="53.98" y="0">dest pa</tspan><tspan class="cls-30" x="84.53" y="0">r</tspan><tspan x="88.04" y="0">t!</tspan></text></svg>