<svg id="Layer_1" data-name="Layer 1" xmlns="http://www.w3.org/2000/svg" viewBox="0 0 795.97746 143.02764">
  <defs>
    <style>
      .cls-1 {
        font-size: 12px;
        fill: #231f20;
        font-family: MyriadPro-Regular, Myriad Pro;
      }

      .cls-2 {
        fill: #e7ebe8;
      }

      .cls-3 {
        fill: #58595b;
      }

      .cls-4 {
        fill: #fff;
      }

      .cls-5 {
        fill: #b2b3c3;
      }

      .cls-10, .cls-6 {
        fill: #70a8da;
      }

      .cls-6, .cls-9 {
        opacity: 0.5;
      }

      .cls-7 {
        fill: #010101;
      }

      .cls-8, .cls-9 {
        fill: #ef4136;
      }
    </style>
  </defs>
  <title>on-policy-value-notext</title>
  <text class="cls-1" transform="translate(168.98283 120.04636)">263B96</text>
  <rect class="cls-2" x="302.71336" y="61.3672" width="79.83102" height="79.83102"/>
  <polygon class="cls-3" points="313.22 101.281 321.486 117.877 321.486 84.685 313.22 101.281"/>
  <polygon class="cls-4" points="342.549 130.898 359.145 122.632 325.952 122.632 342.549 130.898"/>
  <polygon class="cls-5" points="372.037 101.299 363.771 84.703 363.771 117.896 372.037 101.299"/>
  <polygon class="cls-5" points="342.549 71.839 325.952 80.105 359.145 80.105 342.549 71.839"/>
  <rect class="cls-2" x="713.59483" y="61.53618" width="79.83102" height="79.83102"/>
  <circle class="cls-4" cx="754.35697" cy="102.44873" r="25.28539"/>
  <circle class="cls-6" cx="754.35479" cy="102.47891" r="25.28539"/>
  <g>
    <path id="MJMATHI-56" class="cls-7" d="M713.11165,21.6214a1.20062,1.20062,0,0,1,.33-.88849h.27924q1.06618.07615,2.66547.07616,2.99549,0,3.52858-.07616h.25385q.15231.15231.15232.22847t-.05078.45694a1.39824,1.39824,0,0,1-.22846.48232h-.5331q-.55848.05078-.76156.05077-.73618.12693-.81234.38078,0,.05078.73618,6.37175t.76157,6.37174l1.85313-2.97009q1.85315-2.9701,3.70628-5.991t1.9039-3.12241a.755.755,0,0,0,.10155-.38078q0-.60924-1.117-.71079-.45695,0-.45694-.27924,0-.02538.05077-.33a1.36611,1.36611,0,0,1,.15231-.45694.403.403,0,0,1,.33-.10154h.30463q.25386,0,.8631.02539t1.62467.02538q1.75159,0,2.20853-.05077h.1777q.1777.1777.1777.27924a1.55275,1.55275,0,0,1-.22847.81233.72629.72629,0,0,1-.43155.07616q-.33.02538-.60925.05077a1.88771,1.88771,0,0,0-.5331.12693q-.25384.10153-.40616.1777a1.58932,1.58932,0,0,0-.30463.20308,1.42,1.42,0,0,1-.25385.1777.55176.55176,0,0,0-.20309.22847q-.10153.17769-.17769.1777l-4.89939,7.86948q-4.56939,7.38717-4.7217,7.56486-.07615.05078-.17769.12693l-.45694.02539h-.1777q-.45693,0-.45694-.1777-.07615-.15231-.99-8.12334-.96465-8.07258-.99-8.14873-.12693-.27924-1.5739-.27924h-.43155A.35167.35167,0,0,1,713.11165,21.6214Z"/>
    <g>
      <path id="MJMATHI-3C0" class="cls-7" d="M735.10367,27.80979a.53158.53158,0,0,1-.61022-.59227V27.0201l.23332-.50253a34.77859,34.77859,0,0,0,1.95628-4.89967l.14358-.43074h-.57432a5.98319,5.98319,0,0,0-.96917.05384,1.94154,1.94154,0,0,0-.7.341,2.34451,2.34451,0,0,0-.39485.32306,4.62474,4.62474,0,0,0-.341.3769,2.21227,2.21227,0,0,0-.16153.21537,1.02368,1.02368,0,0,1-.26921.01794q-.341,0-.341-.17947a2.16691,2.16691,0,0,1,.341-.62816,6.10293,6.10293,0,0,1,.98711-1.11275,2.44,2.44,0,0,1,1.27428-.682q.12563-.0359,4.03819-.03589,2.8716,0,2.94339.01795a.49.49,0,0,1,.35895.50253.74957.74957,0,0,1-.57432.75379,9.73316,9.73316,0,0,1-1.23838.0359h-1.14864l-.05384.3051A13.47124,13.47124,0,0,0,739.788,23.628a7.82048,7.82048,0,0,0,.16152,1.66912,6.4852,6.4852,0,0,0,.341,1.14864,2.09257,2.09257,0,0,1,.17947.50253.83176.83176,0,0,1-.25126.57432.8442.8442,0,0,1-.64611.26921.82718.82718,0,0,1-.32306-.05384q-.12563-.05385-.28716-.43074a5.18405,5.18405,0,0,1-.28716-1.07685q-.01794-.16153-.01795-.78969a11.91025,11.91025,0,0,1,.16153-1.88449q.16152-1.00506.32306-1.65117l.17947-.7179h-1.75886l-.01794.07179q0,.05384-.341,1.41785t-.77174,2.88955a13.37623,13.37623,0,0,1-.55637,1.74091A.75464.75464,0,0,1,735.10367,27.80979Z"/>
      <path id="MJMAIN-31" class="cls-7" d="M745.66848,22.97952l-.165.06347a3.63919,3.63919,0,0,1-.50771.12692,5.84978,5.84978,0,0,1-.73618.08885h-.24116V22.6749h.24116a4.128,4.128,0,0,0,1.10427-.19039,2.99776,2.99776,0,0,0,.71079-.30463,3.25366,3.25366,0,0,0,.3554-.27924q.02538-.03807.15231-.03808a.35354.35354,0,0,1,.21578.07616v3.79512l.01269,3.80782a.50255.50255,0,0,0,.15231.11423,1.50462,1.50462,0,0,0,.30463.05077q.24116.0254.787.02539h.33v.58386h-.13962q-.26655-.03807-2.01814-.03807-1.72621,0-1.99276.03807h-.15231v-.58386h.81233a3.04909,3.04909,0,0,0,.31732-.01269,1.24393,1.24393,0,0,0,.20308-.03808.7603.7603,0,0,1,.10154-.02539q.0127,0,.07616-.06346t.07616-.05077Z"/>
    </g>
    <path id="MJMAIN-28" class="cls-7" d="M756.03843,31.72481a20.88066,20.88066,0,0,1,.25385-3.3255,23.26588,23.26588,0,0,1,.58387-2.71624,10.63,10.63,0,0,1,.93926-2.23392q.60925-1.09156.96465-1.70082a6.74229,6.74229,0,0,1,1.06618-1.32q.71081-.71081.83772-.86311a4.57534,4.57534,0,0,1,.63464-.53309h.43155q.3554,0,.3554.22847a2.05132,2.05132,0,0,1-.43155.53309,11.52366,11.52366,0,0,0-1.04081,1.34543,17.56288,17.56288,0,0,0-1.24388,2.18315,14.44176,14.44176,0,0,0-1.06619,3.50319,25.62142,25.62142,0,0,0-.43155,4.89939,25.223,25.223,0,0,0,.43155,4.874,16.48662,16.48662,0,0,0,1.0408,3.52858,11.497,11.497,0,0,0,1.24389,2.18314q.63464.83772,1.06619,1.34543a5.73234,5.73234,0,0,1,.43155.5331q0,.22846-.38078.22847h-.40617l-.71079-.60926A12.5275,12.5275,0,0,1,757.13,38.42656,20.75531,20.75531,0,0,1,756.03843,31.72481Z"/>
    <path id="MJMATHI-73" class="cls-7" d="M766.878,30.73477a3.76194,3.76194,0,0,1,.40617-1.65005,4.17636,4.17636,0,0,1,1.42158-1.54851,4.05608,4.05608,0,0,1,2.46239-.68541,3.20722,3.20722,0,0,1,2.28469.68541,2.175,2.175,0,0,1,.73618,1.52312,1.5118,1.5118,0,0,1-.43155,1.19312,1.53807,1.53807,0,0,1-.96465.40617,1.01395,1.01395,0,0,1-.60925-.20309.82131.82131,0,0,1-.30463-.66,1.15194,1.15194,0,0,1,.22847-.71079,2.28044,2.28044,0,0,1,.43155-.45694.61437.61437,0,0,1,.33-.15231.02244.02244,0,0,0,.02539-.02539q0-.07615-.1777-.22846a1.73364,1.73364,0,0,0-.63463-.27924,4.492,4.492,0,0,0-.99-.15232,2.14716,2.14716,0,0,0-2.36084,2.00545.91769.91769,0,0,0,.48232.88849,5.26476,5.26476,0,0,0,1.3962.43156,5.56249,5.56249,0,0,1,1.32.38078,2.50883,2.50883,0,0,1,1.67544,2.437,3.86294,3.86294,0,0,1-.27924,1.42158,5.67843,5.67843,0,0,1-.83772,1.42159,3.67233,3.67233,0,0,1-1.59928,1.117,6.89294,6.89294,0,0,1-2.38623.43155,4.10613,4.10613,0,0,1-2.767-.73618,2.34858,2.34858,0,0,1-.83772-1.72621A1.72641,1.72641,0,0,1,765.431,34.441a1.75286,1.75286,0,0,1,1.117-.43155,1.22484,1.22484,0,0,1,.71079.22846.94506.94506,0,0,1,.3554.78695,1.51933,1.51933,0,0,1-.45694,1.117,1.25017,1.25017,0,0,1-.78695.45694.19489.19489,0,0,1-.07615.02539q-.02539,0-.02539.05077a.54867.54867,0,0,0,.20308.20308,3.5444,3.5444,0,0,0,.78695.33,4.99288,4.99288,0,0,0,2.9701-.10154,2.18091,2.18091,0,0,0,.96465-.71079,3.37036,3.37036,0,0,0,.43155-.78695,1.91471,1.91471,0,0,0,.12693-.63464,1.19592,1.19592,0,0,0-.5331-1.06619,2.69846,2.69846,0,0,0-1.2185-.43155,6.28276,6.28276,0,0,1-1.49774-.38078,2.34926,2.34926,0,0,1-1.19312-.88849A2.55524,2.55524,0,0,1,766.878,30.73477Z"/>
    <path id="MJMAIN-29" class="cls-7" d="M776.98142,19.05747l.10154-.02538h.55848l.71079.60925a12.52745,12.52745,0,0,1,3.4778,5.38171,20.75506,20.75506,0,0,1,1.09158,6.70176,21.19181,21.19181,0,0,1-.25386,3.32549,21.82446,21.82446,0,0,1-.58386,2.71624,11.43352,11.43352,0,0,1-.93926,2.23392q-.60925,1.117-.96465,1.70082a7.72166,7.72166,0,0,1-1.0408,1.29466q-.68541.71079-.81234.83772t-.58386.48232l-.10154.10155h-.58387a.14916.14916,0,0,1-.12692-.07616.5975.5975,0,0,1-.07616-.22847q.02538-.02538.27924-.33,3.93474-4.087,3.93474-12.05808t-3.93474-12.05809q-.25386-.30462-.27924-.33A.29836.29836,0,0,1,776.98142,19.05747Z"/>
  </g>
  <path id="MJSZ2-2211" class="cls-7" d="M219.04226,4.57167q.11391-.07593,22.971-.07594h22.85711l2.20218,5.12577q2.24014,5.23967,2.392,5.54341h-1.51875l-.26578-.53156a12.82785,12.82785,0,0,0-2.12624-2.96155,15.93714,15.93714,0,0,0-4.21451-2.92358,20.78978,20.78978,0,0,0-5.35358-1.63265,44.16728,44.16728,0,0,0-5.73326-.64547q-2.69577-.11391-6.94826-.15187H226.29427l.30375.41765Q244.17748,30.77,244.25342,30.99782a.3423.3423,0,0,1,0,.22782q-.11391.1139-10.02371,11.46652L224.206,54.08274q0,.038,8.01138.038h5.35357q3.37921,0,4.86.038,5.16372,0,8.35309-.18985a48.7731,48.7731,0,0,0,6.34076-.79734,17.48524,17.48524,0,0,0,5.35357-1.86046,14.23855,14.23855,0,0,0,3.91077-3.30327,12.03225,12.03225,0,0,0,1.55671-2.73374h1.51875q0,.038-.26578.79734t-.94922,2.468q-.68343,1.70859-1.177,3.18937l-2.20218,5.88513-22.81914.038q-22.8571,0-22.971-.07594a.32255.32255,0,0,1-.22781-.34171.58275.58275,0,0,1,.07594-.22782l20.23727-23.16085q0-.038-1.253-1.70859T233.926,26.6694Q231.19221,22.87254,228.99,19.911L218.89039,6.05245l-.038-.56953Q218.85242,4.68558,219.04226,4.57167Z"/>
  <path id="MJMAIN-22C5" class="cls-7" d="M443.29882,30.03859a2.24942,2.24942,0,0,1,.64547-1.59468,2.14942,2.14942,0,0,1,1.63265-.68344,2.32531,2.32531,0,0,1,1.59468.6075,2.19094,2.19094,0,0,1,.7214,1.63265,2.29516,2.29516,0,0,1-.64546,1.63265,2.14942,2.14942,0,0,1-1.63266.68344,2.21276,2.21276,0,0,1-1.63265-.64547A2.34782,2.34782,0,0,1,443.29882,30.03859Z"/>
  <rect class="cls-2" x="492.31343" y="61.37858" width="79.83102" height="79.83102"/>
  <polygon class="cls-4" points="561.597 101.33 553.331 84.733 553.332 117.926 561.597 101.33"/>
  <polygon class="cls-4" points="502.782 101.292 511.048 117.889 511.048 84.696 502.782 101.292"/>
  <polygon class="cls-6" points="502.821 101.292 511.086 117.889 511.086 84.696 502.821 101.292"/>
  <polygon class="cls-8" points="532.149 130.909 548.745 122.643 515.552 122.643 532.149 130.909"/>
  <polygon class="cls-9" points="561.637 101.311 553.371 84.715 553.371 117.907 561.637 101.311"/>
  <polygon class="cls-10" points="532.149 71.85 515.552 80.116 548.745 80.116 532.149 71.85"/>
  <g>
    <path id="MJMATHI-51" class="cls-7" d="M498.57437,39.74784q0-.87152.02641-1.32048a2.60955,2.60955,0,0,1,.05282-.50179v-.10564l-.39614.10564a9.60734,9.60734,0,0,1-2.21842.29051,6.481,6.481,0,0,1-6.65523-5.88936q-.02641-.21128-.02641-1.13562a10.92548,10.92548,0,0,1,1.26766-5.12347,14.79152,14.79152,0,0,1,3.40685-4.30478,10.301,10.301,0,0,1,6.576-2.7202q1.00356,0,1.26766.02641a6.28753,6.28753,0,0,1,4.11991,2.27123,7.446,7.446,0,0,1,1.58458,4.80656,12.01636,12.01636,0,0,1-3.90863,8.66238,12.66585,12.66585,0,0,1-3.45967,2.40328l-.449.21128v.13205q0,.0264.132.71306a2.07823,2.07823,0,0,0,.5546,1.1092,1.64429,1.64429,0,0,0,1.21485.42256,3.07685,3.07685,0,0,0,1.76945-.581,2.68694,2.68694,0,0,0,1.1092-1.50536q.15846-.36973.34333-.36973a.27162.27162,0,0,1,.2905.23769,3.95024,3.95024,0,0,1-.26409.95074q-.2641.73947-.73947,1.743a4.58465,4.58465,0,0,1-1.42613,1.71663,3.60393,3.60393,0,0,1-2.00713.76588q-2.16559,0-2.1656-2.82583Zm6.2591-14.47251a7.37189,7.37189,0,0,0-.39615-2.53532,3.47163,3.47163,0,0,0-1.08279-1.611,5.95476,5.95476,0,0,0-1.32049-.79229,3.6048,3.6048,0,0,0-1.39971-.26409,5.76152,5.76152,0,0,0-2.58815.66024A9.50841,9.50841,0,0,0,493.715,25.381a14.87187,14.87187,0,0,0-1.6374,6.5496,5.45442,5.45442,0,0,0,1.42613,4.14632,2.48024,2.48024,0,0,0,.76588.55461v-.21128a2.76223,2.76223,0,0,1,.87152-1.95432,2.871,2.871,0,0,1,2.06-.92434,2.136,2.136,0,0,1,1.13562.29051,1.8262,1.8262,0,0,1,.71306.79229,4.3482,4.3482,0,0,1,.31691.84511q.07923.34333.15846.71306l.34333-.23768a9.78074,9.78074,0,0,0,2.87865-3.19558,14.41828,14.41828,0,0,0,1.6374-3.935A15.45844,15.45844,0,0,0,504.83347,25.27533Zm-8.50392,11.88436a5.24208,5.24208,0,0,0,2.37687-.5546L498.68,36.341q-.10563-1.45253-.97716-1.743a3.23335,3.23335,0,0,0-.50178-.05282h-.15846a.15293.15293,0,0,1-.10564-.02641,1.60848,1.60848,0,0,0-1.08279.5282,1.73067,1.73067,0,0,0-.581,1.21484Q495.27316,37.15969,496.32955,37.15969Z"/>
    <g>
      <path id="MJMATHI-3C0-2" data-name="MJMATHI-3C0" class="cls-7" d="M511.39163,26.95966a.553.553,0,0,1-.63484-.61616v-.20539l.24273-.5228a36.181,36.181,0,0,0,2.03521-5.09736l.14937-.44812h-.59749a6.22571,6.22571,0,0,0-1.00827.056,2.02024,2.02024,0,0,0-.72819.35476,2.43959,2.43959,0,0,0-.41078.33609,4.81226,4.81226,0,0,0-.35476.39211,2.29847,2.29847,0,0,0-.168.22406,1.06462,1.06462,0,0,1-.28008.01867q-.35476,0-.35476-.18672a2.25424,2.25424,0,0,1,.35476-.6535,6.34938,6.34938,0,0,1,1.02694-1.15765,2.53853,2.53853,0,0,1,1.32569-.70952q.13069-.03734,4.20112-.03734,2.98746,0,3.06215.01867a.50977.50977,0,0,1,.37343.52281.7798.7798,0,0,1-.59749.7842,10.12475,10.12475,0,0,1-1.28835.03735h-1.195l-.056.31742a14.01491,14.01491,0,0,0-.22406,2.22192,8.13544,8.13544,0,0,0,.168,1.73646,6.74613,6.74613,0,0,0,.35476,1.195,2.17727,2.17727,0,0,1,.18672.52281.86532.86532,0,0,1-.26141.59749.8782.8782,0,0,1-.67217.28007.8605.8605,0,0,1-.33609-.056q-.13071-.056-.29875-.44812a5.394,5.394,0,0,1-.29875-1.1203q-.01866-.168-.01867-.82155a12.39136,12.39136,0,0,1,.168-1.96052q.168-1.04562.33609-1.7178l.18671-.74686h-1.82982l-.01867.07468q0,.056-.35476,1.47506t-.80288,3.00614a13.91569,13.91569,0,0,1-.57882,1.81115A.78509.78509,0,0,1,511.39163,26.95966Z"/>
      <path id="MJMAIN-31-2" data-name="MJMAIN-31" class="cls-7" d="M522.3827,21.93451l-.17166.066a3.78327,3.78327,0,0,1-.5282.132,6.08649,6.08649,0,0,1-.76588.09244h-.25089v-.60743h.25089a4.2939,4.2939,0,0,0,1.14882-.19807,3.11887,3.11887,0,0,0,.73948-.31691,3.38655,3.38655,0,0,0,.36973-.29051q.02642-.03962.15846-.03962a.36776.36776,0,0,1,.22448.07923V24.8l.01321,3.96145a.52292.52292,0,0,0,.15845.11885,1.56681,1.56681,0,0,0,.31692.05282q.25089.0264.8187.02641h.34333v.60742h-.14526q-.27729-.03961-2.09957-.03962-1.79586,0-2.07316.03962h-.15845v-.60742h.84511a3.172,3.172,0,0,0,.33012-.01321,1.29321,1.29321,0,0,0,.21127-.03961.79114.79114,0,0,1,.10564-.02641q.01322,0,.07923-.066t.07923-.05282Z"/>
    </g>
    <path id="MJMAIN-28-2" data-name="MJMAIN-28" class="cls-7" d="M533.17106,31.03265a21.72275,21.72275,0,0,1,.26409-3.45967,24.20651,24.20651,0,0,1,.60742-2.82584,11.05938,11.05938,0,0,1,.97716-2.32405q.63384-1.13562,1.00357-1.76945a7.01468,7.01468,0,0,1,1.10921-1.3733q.73947-.73947.87152-.89793a4.75939,4.75939,0,0,1,.66024-.55461h.449q.36973,0,.36974.23769a2.13407,2.13407,0,0,1-.449.55461,11.98855,11.98855,0,0,0-1.08279,1.39971,18.27009,18.27009,0,0,0-1.29408,2.27123,15.02483,15.02483,0,0,0-1.1092,3.64454,26.655,26.655,0,0,0-.449,5.09707,26.24045,26.24045,0,0,0,.449,5.07065,17.15212,17.15212,0,0,0,1.08279,3.671,11.961,11.961,0,0,0,1.29408,2.27123q.66024.87152,1.1092,1.39971a5.96537,5.96537,0,0,1,.449.55461q0,.23769-.39615.23769h-.42255l-.73947-.63384a13.033,13.033,0,0,1-3.61813-5.59885A21.5925,21.5925,0,0,1,533.17106,31.03265Z"/>
    <path id="MJMATHI-73-2" data-name="MJMATHI-73" class="cls-7" d="M544.448,30.00267a3.91377,3.91377,0,0,1,.42255-1.71663,4.34493,4.34493,0,0,1,1.47895-1.611,4.21963,4.21963,0,0,1,2.56173-.71306,3.33662,3.33662,0,0,1,2.37688.71306,2.2627,2.2627,0,0,1,.76588,1.58458,1.57277,1.57277,0,0,1-.449,1.24125,1.6,1.6,0,0,1-1.00357.42256,1.05488,1.05488,0,0,1-.63383-.21128.8544.8544,0,0,1-.31691-.68665,1.19841,1.19841,0,0,1,.23768-.73947,2.37261,2.37261,0,0,1,.449-.47538.63916.63916,0,0,1,.34332-.15845.02334.02334,0,0,0,.02641-.02641q0-.07923-.18486-.23769a1.80408,1.80408,0,0,0-.66025-.29051,4.67317,4.67317,0,0,0-1.03-.15846,2.23381,2.23381,0,0,0-2.4561,2.08637.95474.95474,0,0,0,.50178.92434,5.47713,5.47713,0,0,0,1.45253.449,5.78785,5.78785,0,0,1,1.37331.39615,2.61005,2.61005,0,0,1,1.743,2.53533,4.01883,4.01883,0,0,1-.2905,1.47894,5.90754,5.90754,0,0,1-.87152,1.47894,3.82057,3.82057,0,0,1-1.66381,1.162,7.17114,7.17114,0,0,1-2.48251.449,4.27185,4.27185,0,0,1-2.87866-.76588,2.44342,2.44342,0,0,1-.87152-1.79586,1.79608,1.79608,0,0,1,.55461-1.47894,1.82353,1.82353,0,0,1,1.162-.449,1.2743,1.2743,0,0,1,.73947.23768.9832.9832,0,0,1,.36974.8187,1.5807,1.5807,0,0,1-.47537,1.162,1.30063,1.30063,0,0,1-.8187.47537.20271.20271,0,0,1-.07923.02641q-.02641,0-.02641.05282a.57072.57072,0,0,0,.21127.21128,3.68784,3.68784,0,0,0,.8187.34333,5.19452,5.19452,0,0,0,3.08994-.10564,2.26878,2.26878,0,0,0,1.00356-.73947,3.50584,3.50584,0,0,0,.449-.8187,1.992,1.992,0,0,0,.132-.66025,1.24416,1.24416,0,0,0-.55461-1.1092,2.80737,2.80737,0,0,0-1.26766-.449,6.536,6.536,0,0,1-1.55817-.39614,2.444,2.444,0,0,1-1.24126-.92434A2.65831,2.65831,0,0,1,544.448,30.00267Z"/>
    <path id="MJMAIN-2C" class="cls-7" d="M555.43442,36.71073v-.66025a1.6515,1.6515,0,0,1,.42255-1.13561,1.44348,1.44348,0,0,1,1.13562-.47538,1.72633,1.72633,0,0,1,1.32048.66025,3.64592,3.64592,0,0,1,.60742,2.324,6.795,6.795,0,0,1-.23768,1.79586,8.21114,8.21114,0,0,1-.55461,1.50535,5.72683,5.72683,0,0,1-.68665,1.08279q-.36973.449-.63383.71307t-.34333.23768q-.10563,0-.34332-.23768t-.23769-.34333q0-.10564.29051-.42255t.66024-.7923a5.06837,5.06837,0,0,0,.68665-1.32048,7.5861,7.5861,0,0,0,.42256-1.92791v-.31691l-.02641.02641a1.02654,1.02654,0,0,1-.132.05282.66608.66608,0,0,0-.15846.07923.43222.43222,0,0,1-.23769.05282,1.92406,1.92406,0,0,0-.31691.02641,1.57234,1.57234,0,0,1-1.162-.449Z"/>
    <path id="MJMATHI-61" class="cls-7" d="M566.0247,33.48875a7.80434,7.80434,0,0,1,2.00713-5.07066,5.90991,5.90991,0,0,1,4.51606-2.42969,2.994,2.994,0,0,1,2.37687,1.29407,1.32146,1.32146,0,0,1,1.21485-.79229.945.945,0,0,1,.60742.21128.65035.65035,0,0,1,.26409.52819q0,.34332-.97715,4.22555t-1.00357,4.384a1.41287,1.41287,0,0,0,.18487.87152.77576.77576,0,0,0,.5546.23768,1.1474,1.1474,0,0,0,.52819-.23768,5.98843,5.98843,0,0,0,1.0828-2.53533q.15846-.5282.2641-.55461a.77259.77259,0,0,1,.26409-.02641h.10564q.50178,0,.50179.23769a4.19477,4.19477,0,0,1-.13205.71306,8.285,8.285,0,0,1-.5282,1.42613,4.49916,4.49916,0,0,1-.84511,1.32048,2.61129,2.61129,0,0,1-.84511.5546,2.815,2.815,0,0,1-.63383.05282,2.69949,2.69949,0,0,1-1.50535-.39614,2.02757,2.02757,0,0,1-.79229-.8187l-.15846-.39615q-.0264-.02641-.10564.02641l-.10564.10564a4.63024,4.63024,0,0,1-3.16916,1.47894,3.60429,3.60429,0,0,1-2.56174-1.05639A4.45019,4.45019,0,0,1,566.0247,33.48875Zm8.39828-4.51606a2.39086,2.39086,0,0,0-.13205-.581,2.51086,2.51086,0,0,0-.60742-.92434,1.6882,1.6882,0,0,0-1.21485-.5282,2.53437,2.53437,0,0,0-1.76945.8187,5.52591,5.52591,0,0,0-1.32048,2.13919,21.084,21.084,0,0,0-1.0828,4.33119v.2905a1.40764,1.40764,0,0,1-.02641.31692,2.218,2.218,0,0,0,.47537,1.6374,1.70085,1.70085,0,0,0,1.13562.47537,2.98214,2.98214,0,0,0,1.98073-.87152,4.44061,4.44061,0,0,0,1.162-1.34689q.05283-.10564.71306-2.82584T574.423,28.97269Z"/>
    <path id="MJMAIN-29-2" data-name="MJMAIN-29" class="cls-7" d="M580.70848,17.85421l.10564-.02641h.581l.73947.63384a13.033,13.033,0,0,1,3.61813,5.59885,21.59252,21.59252,0,0,1,1.13562,6.97216,22.04773,22.04773,0,0,1-.2641,3.45966,22.70828,22.70828,0,0,1-.60742,2.82584,11.8955,11.8955,0,0,1-.97716,2.324q-.63384,1.162-1.00357,1.76945a8.03336,8.03336,0,0,1-1.0828,1.34689q-.71306.73947-.84511.87152t-.60742.50179l-.10564.10564h-.60742a.15519.15519,0,0,1-.132-.07923.62184.62184,0,0,1-.07923-.23769q.02641-.02642.29051-.34333,4.0935-4.252,4.0935-12.54459t-4.0935-12.5446q-.2641-.31692-.29051-.34333A.31042.31042,0,0,1,580.70848,17.85421Z"/>
  </g>
  <g>
    <path id="MJMATHI-3C0-3" data-name="MJMATHI-3C0" class="cls-7" d="M303.42448,38.46583a.86781.86781,0,0,1-.9962-.9669v-.3223l.3809-.8204a56.77611,56.77611,0,0,0,3.1937-7.9989l.2344-.7032h-.9376a9.76845,9.76845,0,0,0-1.5822.0879,3.16983,3.16983,0,0,0-1.1427.5567,3.82764,3.82764,0,0,0-.6446.5274,7.54927,7.54927,0,0,0-.5567.6153,3.61022,3.61022,0,0,0-.2637.3516,1.67031,1.67031,0,0,1-.4395.0293q-.55671,0-.5567-.293a3.53737,3.53737,0,0,1,.5567-1.0255,9.96362,9.96362,0,0,1,1.6115-1.8166,3.98344,3.98344,0,0,1,2.0803-1.1134q.2051-.05859,6.5925-.0586,4.688,0,4.8052.0293a.8.8,0,0,1,.586.8204,1.22371,1.22371,0,0,1-.9376,1.2306,15.88982,15.88982,0,0,1-2.0217.0586h-1.8752l-.0879.4981a21.99218,21.99218,0,0,0-.3516,3.4867,12.76649,12.76649,0,0,0,.2637,2.7249,10.58554,10.58554,0,0,0,.5567,1.8752,3.417,3.417,0,0,1,.293.8204,1.35789,1.35789,0,0,1-.4102.9376,1.37818,1.37818,0,0,1-1.0548.4395,1.35023,1.35023,0,0,1-.5274-.0879q-.20511-.0879-.4688-.7032a8.4637,8.4637,0,0,1-.4688-1.758q-.02931-.2637-.0293-1.2892a19.445,19.445,0,0,1,.2637-3.0765q.2637-1.64079.5274-2.6956l.293-1.172h-2.8714l-.0293.1172q0,.0879-.5567,2.3147t-1.2599,4.7173a21.835,21.835,0,0,1-.9083,2.8421A1.232,1.232,0,0,1,303.42448,38.46583Z"/>
    <path id="MJMAIN-31-3" data-name="MJMAIN-31" class="cls-7" d="M320.66556,30.58252l-.26929.10358a5.93735,5.93735,0,0,1-.82861.20715,9.54878,9.54878,0,0,1-1.20147.145h-.39359v-.95289h.39359a6.73654,6.73654,0,0,0,1.80221-.31073,4.89213,4.89213,0,0,0,1.16-.49716,5.31042,5.31042,0,0,0,.58-.45573q.04143-.06214.24858-.06215a.577.577,0,0,1,.35216.12429V35.0777l.02071,6.21453a.82029.82029,0,0,0,.24858.18643,2.45655,2.45655,0,0,0,.49717.08286q.39358.04143,1.28433.04143h.53859v.9529h-.22786q-.435-.06214-3.2937-.06215-2.81725,0-3.25227.06215h-.24858V41.603h1.32576a4.97541,4.97541,0,0,0,.51788-.02071,2.02837,2.02837,0,0,0,.33144-.06215,1.24139,1.24139,0,0,1,.16572-.04143q.02071,0,.12429-.10357t.12429-.08286Z"/>
    <path id="MJMAIN-28-3" data-name="MJMAIN-28" class="cls-7" d="M332.31428,30.81853a24.09879,24.09879,0,0,1,.293-3.8383,26.85168,26.85168,0,0,1,.6739-3.1351,12.269,12.269,0,0,1,1.0841-2.5784q.7032-1.25989,1.1134-1.9631a7.78191,7.78191,0,0,1,1.2306-1.5236q.8204-.8204.9669-.9962a5.2799,5.2799,0,0,1,.7325-.6153h.4981q.41019,0,.4102.2637a2.36768,2.36768,0,0,1-.4981.6153,13.30243,13.30243,0,0,0-1.2013,1.5529,20.271,20.271,0,0,0-1.4357,2.5198,16.66838,16.66838,0,0,0-1.2306,4.0434,29.57206,29.57206,0,0,0-.4981,5.6549,29.112,29.112,0,0,0,.4981,5.6256,19.02842,19.02842,0,0,0,1.2013,4.0727,13.26925,13.26925,0,0,0,1.4357,2.5198q.7325.9669,1.2306,1.5529a6.62108,6.62108,0,0,1,.4981.6153q0,.2637-.4395.2637h-.4688l-.8204-.7032a14.45915,14.45915,0,0,1-4.0141-6.2116A23.9555,23.9555,0,0,1,332.31428,30.81853Z"/>
    <path id="MJMATHI-73-3" data-name="MJMATHI-73" class="cls-7" d="M344.79608,29.67583a4.342,4.342,0,0,1,.4688-1.9045,4.82031,4.82031,0,0,1,1.6408-1.7873,4.68153,4.68153,0,0,1,2.8421-.7911,3.70183,3.70183,0,0,1,2.637.7911,2.51036,2.51036,0,0,1,.8497,1.758,1.74494,1.74494,0,0,1-.4981,1.3771,1.77512,1.77512,0,0,1-1.1134.4688,1.17026,1.17026,0,0,1-.7032-.2344.94792.94792,0,0,1-.3516-.7618,1.32958,1.32958,0,0,1,.2637-.8204,2.632,2.632,0,0,1,.4981-.5274.709.709,0,0,1,.3809-.1758.0259.0259,0,0,0,.0293-.0293q0-.0879-.2051-.2637a2.00146,2.00146,0,0,0-.7325-.3223,5.1851,5.1851,0,0,0-1.1427-.1758,2.47828,2.47828,0,0,0-2.7249,2.3147,1.05919,1.05919,0,0,0,.5567,1.0255,6.07617,6.07617,0,0,0,1.6115.4981,6.42149,6.42149,0,0,1,1.5236.4395,2.89572,2.89572,0,0,1,1.9338,2.8128,4.45875,4.45875,0,0,1-.3223,1.6408,6.55407,6.55407,0,0,1-.9669,1.6408,4.23861,4.23861,0,0,1-1.8459,1.2892,7.95582,7.95582,0,0,1-2.7542.4981,4.73933,4.73933,0,0,1-3.1937-.8497,2.71074,2.71074,0,0,1-.9669-1.9924,1.99266,1.99266,0,0,1,.6153-1.6408,2.02317,2.02317,0,0,1,1.2892-.4981,1.41374,1.41374,0,0,1,.8204.2637,1.09083,1.09083,0,0,1,.4102.9083,1.75365,1.75365,0,0,1-.5274,1.2892,1.443,1.443,0,0,1-.9083.5274.2248.2248,0,0,1-.0879.0293q-.02931,0-.0293.0586a.63313.63313,0,0,0,.2344.2344,4.09011,4.09011,0,0,0,.9083.3809,5.76282,5.76282,0,0,0,3.4281-.1172,2.51708,2.51708,0,0,0,1.1134-.8204,3.88959,3.88959,0,0,0,.4981-.9083,2.21012,2.21012,0,0,0,.1465-.7325,1.38035,1.38035,0,0,0-.6153-1.2306,3.1147,3.1147,0,0,0-1.4064-.4981,7.25136,7.25136,0,0,1-1.7287-.4395,2.71147,2.71147,0,0,1-1.3771-1.0255A2.94921,2.94921,0,0,1,344.79608,29.67583Z"/>
    <path id="MJMAIN-2C-2" data-name="MJMAIN-2C" class="cls-7" d="M357.01418,37.118v-.7325a1.83223,1.83223,0,0,1,.4688-1.2599,1.60147,1.60147,0,0,1,1.2599-.5274,1.91532,1.91532,0,0,1,1.465.7325,4.04506,4.04506,0,0,1,.6739,2.5784,7.53812,7.53812,0,0,1-.2637,1.9924,9.10963,9.10963,0,0,1-.6153,1.6701,6.35434,6.35434,0,0,1-.7618,1.2013q-.4102.4981-.7032.7911t-.3809.2637q-.11721,0-.3809-.2637t-.2637-.3809q0-.1172.3223-.4688t.7325-.879a5.62332,5.62332,0,0,0,.7618-1.465,8.41645,8.41645,0,0,0,.4688-2.1389v-.3516l-.0293.0293a1.13557,1.13557,0,0,1-.1465.0586.74.74,0,0,0-.1758.0879.47946.47946,0,0,1-.2637.0586,2.1356,2.1356,0,0,0-.3516.0293,1.74439,1.74439,0,0,1-1.2892-.4981Z"/>
    <path id="MJMATHI-61-2" data-name="MJMATHI-61" class="cls-7" d="M368.73418,33.54343a8.65849,8.65849,0,0,1,2.2268-5.6256,6.55674,6.55674,0,0,1,5.0103-2.6956,3.32169,3.32169,0,0,1,2.637,1.4357,1.46608,1.46608,0,0,1,1.3478-.879,1.04841,1.04841,0,0,1,.6739.2344.72155.72155,0,0,1,.293.586q0,.38091-1.0841,4.688t-1.1134,4.8638a1.56743,1.56743,0,0,0,.2051.9669.86066.86066,0,0,0,.6153.2637,1.273,1.273,0,0,0,.586-.2637,6.64382,6.64382,0,0,0,1.2013-2.8128q.1758-.586.293-.6153a.85707.85707,0,0,1,.293-.0293h.1172q.55669,0,.5567.2637a4.65436,4.65436,0,0,1-.1465.7911,9.19231,9.19231,0,0,1-.586,1.5822,4.99174,4.99174,0,0,1-.9376,1.465,2.89706,2.89706,0,0,1-.9376.6153,3.12353,3.12353,0,0,1-.7032.0586,2.99484,2.99484,0,0,1-1.6701-.4395,2.24932,2.24932,0,0,1-.879-.9083l-.1758-.4395q-.02931-.0293-.1172.0293l-.1172.1172a5.137,5.137,0,0,1-3.516,1.6408,3.99868,3.99868,0,0,1-2.8421-1.172A4.93725,4.93725,0,0,1,368.73418,33.54343Zm9.3174-5.0103a2.65283,2.65283,0,0,0-.1465-.6446,2.78581,2.78581,0,0,0-.6739-1.0255,1.873,1.873,0,0,0-1.3478-.586,2.81173,2.81173,0,0,0-1.9631.9083,6.13082,6.13082,0,0,0-1.465,2.3733,23.39146,23.39146,0,0,0-1.2013,4.8052v.3223a1.562,1.562,0,0,1-.0293.3516,2.4607,2.4607,0,0,0,.5274,1.8166,1.887,1.887,0,0,0,1.2599.5274,3.30857,3.30857,0,0,0,2.1975-.9669,4.927,4.927,0,0,0,1.2892-1.4943q.05859-.1172.7911-3.1351T378.05158,28.53313Z"/>
    <path id="MJMAIN-29-3" data-name="MJMAIN-29" class="cls-7" d="M385.05428,16.19783l.1172-.0293h.6446l.8204.7032a14.45945,14.45945,0,0,1,4.0141,6.2116,23.95586,23.95586,0,0,1,1.2599,7.7352,24.46054,24.46054,0,0,1-.293,3.8383,25.19336,25.19336,0,0,1-.6739,3.1351,13.19678,13.19678,0,0,1-1.0841,2.5784q-.7032,1.2892-1.1134,1.9631a8.91286,8.91286,0,0,1-1.2013,1.4943q-.7911.82041-.9376.9669t-.6739.5567l-.1172.1172h-.6739a.17217.17217,0,0,1-.1465-.0879.68964.68964,0,0,1-.0879-.2637q.02929-.0293.3223-.3809,4.54149-4.71729,4.5415-13.9175t-4.5415-13.9175q-.293-.3516-.3223-.3809A.34438.34438,0,0,1,385.05428,16.19783Z"/>
  </g>
  <path id="MJMAIN-3D" class="cls-7" d="M639.68781,26.35924a.82708.82708,0,0,1,.53156-.75937h24.186a.883.883,0,0,1,.56953.75937.86141.86141,0,0,1-.53156.72141l-12.074.038h-12.074A.75255.75255,0,0,1,639.68781,26.35924Zm0,7.36591a.75254.75254,0,0,1,.6075-.75937h24.148q.53156.37969.53156.75937a.83023.83023,0,0,1-.56953.75938h-24.186A.82708.82708,0,0,1,639.68781,33.72515Z"/>
</svg>
