<svg id="Layer_1" data-name="Layer 1" xmlns="http://www.w3.org/2000/svg" viewBox="0 0 590.78341 162">
  <defs>
    <style>
      .cls-1 {
        fill: #e7ebe8;
      }

      .cls-2 {
        fill: #58595b;
      }

      .cls-3 {
        fill: #fff;
      }

      .cls-4 {
        fill: #b2b3c3;
      }

      .cls-5 {
        fill: #010101;
      }

      .cls-6, .cls-9 {
        fill: #70a8da;
      }

      .cls-6, .cls-8 {
        opacity: 0.5;
      }

      .cls-7, .cls-8 {
        fill: #ef4136;
      }

      .cls-10 {
        font-size: 15.43483px;
        fill: #6d6e71;
        font-family: Roboto-Regular, Roboto;
      }

      .cls-11 {
        letter-spacing: -0.00734em;
      }
    </style>
  </defs>
  <title>on-policy-value</title>
  <rect class="cls-1" x="304.11216" y="36.61482" width="98.20283" height="98.20283"/>
  <polygon class="cls-2" points="317.037 85.714 327.205 106.13 327.205 65.299 317.037 85.714"/>
  <polygon class="cls-3" points="353.115 122.147 373.53 111.979 332.699 111.979 353.115 122.147"/>
  <polygon class="cls-4" points="389.39 85.737 379.222 65.321 379.222 106.152 389.39 85.737"/>
  <polygon class="cls-4" points="353.115 49.496 332.699 59.664 373.53 59.664 353.115 49.496"/>
  <g>
    <path id="MJMATHI-3C0" class="cls-5" d="M307.62067,26.52209a.92416.92416,0,0,1-1.06088-1.02968v-.34323l.40563-.87366a60.46175,60.46175,0,0,0,3.40106-8.51825l.24962-.74886h-.99847a10.402,10.402,0,0,0-1.68493.09361,3.37569,3.37569,0,0,0-1.2169.59284,4.07656,4.07656,0,0,0-.68645.56164,8.04051,8.04051,0,0,0-.59284.65525,3.846,3.846,0,0,0-.28083.37443,1.7789,1.7789,0,0,1-.468.03121q-.59285,0-.59285-.312a3.7672,3.7672,0,0,1,.59285-1.09208,10.6101,10.6101,0,0,1,1.71613-1.93455,4.24209,4.24209,0,0,1,2.21537-1.18569q.21842-.0624,7.02054-.06241,4.99238,0,5.11719.03121a.85187.85187,0,0,1,.624.87366,1.30316,1.30316,0,0,1-.99848,1.3105,16.92028,16.92028,0,0,1-2.153.06241h-1.997l-.09361.53044a23.42089,23.42089,0,0,0-.37442,3.71308,13.59518,13.59518,0,0,0,.28082,2.90183,11.27409,11.27409,0,0,0,.59284,1.997,3.63846,3.63846,0,0,1,.312.87366,1.446,1.446,0,0,1-.43684.99848,1.46762,1.46762,0,0,1-1.12328.468,1.43806,1.43806,0,0,1-.56165-.09361q-.21841-.0936-.49923-.74886a9.01294,9.01294,0,0,1-.49924-1.87214q-.0312-.28082-.0312-1.37291a20.70683,20.70683,0,0,1,.28082-3.27625q.28081-1.74733.56164-2.87062l.312-1.24809H311.8954l-.0312.12481q0,.0936-.59285,2.465t-1.3417,5.02358a23.253,23.253,0,0,1-.96727,3.02663A1.312,1.312,0,0,1,307.62067,26.52209Z"/>
    <path id="MJMAIN-31" class="cls-5" d="M325.98119,18.12693l-.28678.1103a6.32284,6.32284,0,0,1-.88241.2206,10.16686,10.16686,0,0,1-1.27948.15442h-.41914V17.59749h.41914a7.17375,7.17375,0,0,0,1.91923-.3309,5.21012,5.21012,0,0,0,1.23536-.52944,5.65492,5.65492,0,0,0,.61768-.48533q.04413-.06618.26472-.06618a.61441.61441,0,0,1,.375.13236v6.596l.02206,6.618a.87379.87379,0,0,0,.26473.19854,2.6167,2.6167,0,0,0,.52944.08824q.41914.04411,1.36772.04412h.57357v1.01476h-.24267q-.46326-.06618-3.50755-.06618-3.00016,0-3.46343.06618h-.26472V29.8629h1.41184a5.29989,5.29989,0,0,0,.5515-.02206,2.161,2.161,0,0,0,.353-.06618,1.32039,1.32039,0,0,1,.17648-.04412q.022,0,.13236-.1103t.13236-.08824Z"/>
  </g>
  <rect class="cls-1" x="4.70722" y="36.82269" width="98.20283" height="98.20283"/>
  <circle class="cls-3" cx="54.85011" cy="87.1506" r="31.10442"/>
  <circle class="cls-6" cx="54.84742" cy="87.18772" r="31.10442"/>
  <g>
    <path id="MJMATHI-56" class="cls-5" d="M5.15105,4.982a1.2081,1.2081,0,0,1,.33207-.894h.281q1.07283.07664,2.68207.07663,3.01415,0,3.55055-.07663h.25544q.15325.15327.15326.22989t-.05109.45979a1.40716,1.40716,0,0,1-.22989.48532H11.588q-.56194.05109-.7663.05109-.74076.12771-.81739.38315,0,.05109.74076,6.41142t.7663,6.41142l1.86468-2.98859q1.86468-2.98859,3.72935-6.02826t1.91576-3.14186a.75973.75973,0,0,0,.10218-.38315q0-.613-1.12392-.71522-.45978,0-.45978-.281,0-.02555.05109-.33206a1.37441,1.37441,0,0,1,.15326-.45978.4055.4055,0,0,1,.33206-.10218h.30653q.25543,0,.86848.02555t1.63478.02554q1.7625,0,2.22229-.05109h.1788q.1788.17882.1788.281a1.56241,1.56241,0,0,1-.22989.81739.73086.73086,0,0,1-.43424.07663q-.33206.02555-.613.05109a1.89923,1.89923,0,0,0-.53641.12772q-.25543.10217-.4087.1788a1.59972,1.59972,0,0,0-.30652.20435,1.42853,1.42853,0,0,1-.25544.1788.55526.55526,0,0,0-.20435.2299q-.10216.1788-.1788.1788l-4.9299,7.91849q-4.59783,7.43316-4.75109,7.612-.07664.05109-.1788.12772l-.45979.02554H9.8q-.45978,0-.45978-.1788-.07663-.15325-.9962-8.17392Q7.37334,5.62059,7.34779,5.544q-.12771-.281-1.5837-.281H5.32986A.35384.35384,0,0,1,5.15105,4.982Z"/>
    <g>
      <path id="MJMATHI-3C0-2" data-name="MJMATHI-3C0" class="cls-5" d="M27.28,11.20892a.53488.53488,0,0,1-.614-.596v-.19865l.23477-.50566a34.99552,34.99552,0,0,0,1.96846-4.93018l.14447-.43342H28.4358a6.022,6.022,0,0,0-.9752.05417,1.95383,1.95383,0,0,0-.70432.34313,2.35935,2.35935,0,0,0-.3973.32507,4.65315,4.65315,0,0,0-.34312.37924,2.22544,2.22544,0,0,0-.16254.21671,1.02963,1.02963,0,0,1-.27089.01806q-.34312,0-.34312-.18059a2.18018,2.18018,0,0,1,.34312-.63207,6.14123,6.14123,0,0,1,.99326-1.11968,2.45526,2.45526,0,0,1,1.28221-.68625q.12642-.03612,4.06333-.03612,2.88948,0,2.96172.01806a.49305.49305,0,0,1,.36119.50566.75426.75426,0,0,1-.5779.75849,9.79391,9.79391,0,0,1-1.24609.03612H32.26436l-.05418.307a13.55557,13.55557,0,0,0-.21671,2.14906A7.86916,7.86916,0,0,0,32.156,8.68063a6.52488,6.52488,0,0,0,.34313,1.15579,2.106,2.106,0,0,1,.18059.50566.83692.83692,0,0,1-.25283.5779.84943.84943,0,0,1-.65013.27088.83223.83223,0,0,1-.32507-.05417q-.1264-.05418-.28895-.43343a5.21675,5.21675,0,0,1-.28894-1.08355q-.01806-.16254-.01806-.79461a11.98447,11.98447,0,0,1,.16253-1.89622q.16254-1.01132.32507-1.66145l.18059-.72237H29.75412l-.01806.07223q0,.05418-.34312,1.42669t-.77655,2.90754a13.4574,13.4574,0,0,1-.55984,1.75174A.75933.75933,0,0,1,27.28,11.20892Z"/>
      <path id="MJMAIN-31-2" data-name="MJMAIN-31" class="cls-5" d="M37.9106,6.34858l-.166.06386a3.66024,3.66024,0,0,1-.51087.12772,5.88758,5.88758,0,0,1-.74076.0894h-.24266v-.5875h.24266a4.15341,4.15341,0,0,0,1.11115-.19158,3.01608,3.01608,0,0,0,.71521-.30652,3.273,3.273,0,0,0,.35761-.281q.02554-.03831.15326-.03831a.35569.35569,0,0,1,.21712.07663V9.12005l.01278,3.83153a.50549.50549,0,0,0,.15326.11494,1.51436,1.51436,0,0,0,.30652.05109q.24265.02554.79185.02554h.33206v.58751h-.14049q-.2682-.03833-2.03071-.03832-1.737,0-2.00516.03832h-.15326v-.58751h.81739a3.06583,3.06583,0,0,0,.31929-.01277,1.24985,1.24985,0,0,0,.20435-.03831.76549.76549,0,0,1,.10218-.02555q.01277,0,.07663-.06385t.07663-.05109Z"/>
    </g>
    <path id="MJMAIN-28" class="cls-5" d="M48.34512,15.14832a21.00981,21.00981,0,0,1,.25544-3.3462,23.40959,23.40959,0,0,1,.5875-2.73315,10.69521,10.69521,0,0,1,.94511-2.24783q.613-1.09837.97065-1.71142a6.78408,6.78408,0,0,1,1.07283-1.32826q.71522-.71521.84293-.86848a4.60393,4.60393,0,0,1,.63859-.53641h.43424q.35762,0,.35761.22989a2.064,2.064,0,0,1-.43424.53641,11.597,11.597,0,0,0-1.04729,1.35381,17.67317,17.67317,0,0,0-1.25163,2.19674,14.532,14.532,0,0,0-1.07282,3.525,25.78046,25.78046,0,0,0-.43424,4.9299,25.37938,25.37938,0,0,0,.43424,4.90435,16.58891,16.58891,0,0,0,1.04728,3.55055A11.5686,11.5686,0,0,0,52.943,25.8q.63859.84294,1.07283,1.35381a5.77088,5.77088,0,0,1,.43424.53641q0,.22989-.38315.22989h-.4087l-.71522-.613a12.60554,12.60554,0,0,1-3.49946-5.41522A20.88439,20.88439,0,0,1,48.34512,15.14832Z"/>
    <path id="MJMATHI-73" class="cls-5" d="M59.2522,14.15212a3.78537,3.78537,0,0,1,.40869-1.66032,4.20238,4.20238,0,0,1,1.43044-1.55816,4.0813,4.0813,0,0,1,2.47772-.68967,3.22725,3.22725,0,0,1,2.29892.68967,2.18848,2.18848,0,0,1,.74076,1.53261,1.52124,1.52124,0,0,1-.43424,1.20055,1.5476,1.5476,0,0,1-.97066.40869,1.02022,1.02022,0,0,1-.613-.20435.82639.82639,0,0,1-.30652-.66413,1.15909,1.15909,0,0,1,.22989-.71521,2.29488,2.29488,0,0,1,.43424-.45979.61819.61819,0,0,1,.33206-.15326.02258.02258,0,0,0,.02555-.02554q0-.07663-.17881-.22989a1.74451,1.74451,0,0,0-.63858-.281,4.5195,4.5195,0,0,0-.9962-.15326A2.16054,2.16054,0,0,0,61.11687,13.207a.92343.92343,0,0,0,.48533.894,5.29779,5.29779,0,0,0,1.40489.43424,5.59762,5.59762,0,0,1,1.32827.38315,2.52446,2.52446,0,0,1,1.68587,2.45218,3.887,3.887,0,0,1-.281,1.43043,5.71377,5.71377,0,0,1-.84294,1.43044,3.69517,3.69517,0,0,1-1.60924,1.12391,6.93586,6.93586,0,0,1-2.40109.43424,4.13176,4.13176,0,0,1-2.78424-.74076,2.36324,2.36324,0,0,1-.84294-1.737,1.73716,1.73716,0,0,1,.53642-1.43043,1.7637,1.7637,0,0,1,1.12391-.43424,1.23248,1.23248,0,0,1,.71522.22989.95094.95094,0,0,1,.35761.79185,1.52882,1.52882,0,0,1-.45978,1.12391,1.258,1.258,0,0,1-.79185.45978.19607.19607,0,0,1-.07663.02555q-.02555,0-.02555.05108a.55206.55206,0,0,0,.20435.20435,3.56568,3.56568,0,0,0,.79185.33207,5.024,5.024,0,0,0,2.98859-.10218,2.19439,2.19439,0,0,0,.97065-.71521,3.391,3.391,0,0,0,.43424-.79185,1.92656,1.92656,0,0,0,.12772-.63859,1.20338,1.20338,0,0,0-.53641-1.07283,2.71543,2.71543,0,0,0-1.22609-.43424,6.32138,6.32138,0,0,1-1.50707-.38315,2.36387,2.36387,0,0,1-1.20054-.894A2.5711,2.5711,0,0,1,59.2522,14.15212Z"/>
    <path id="MJMAIN-29" class="cls-5" d="M69.41851,2.40211l.10218-.02554h.56195l.71522.613a12.60544,12.60544,0,0,1,3.49946,5.41522,20.88439,20.88439,0,0,1,1.09837,6.74349,21.32425,21.32425,0,0,1-.25543,3.3462,21.96285,21.96285,0,0,1-.5875,2.73315,11.505,11.505,0,0,1-.94511,2.24783q-.61305,1.12392-.97066,1.71142a7.77025,7.77025,0,0,1-1.04728,1.30272q-.68967.71521-.81739.84293t-.5875.48533l-.10218.10217h-.5875a.15008.15008,0,0,1-.12771-.07663.601.601,0,0,1-.07663-.22989q.02553-.02554.281-.33206Q73.531,23.169,73.531,15.14832T69.57177,3.01515q-.25543-.30651-.281-.33206A.30024.30024,0,0,1,69.41851,2.40211Z"/>
  </g>
  <g>
    <path id="MJMAIN-3D" class="cls-5" d="M157.15814,84.24188a.83222.83222,0,0,1,.53487-.7641h24.33661a.88844.88844,0,0,1,.57307.7641.86677.86677,0,0,1-.53487.7259l-12.1492.0382h-12.1492A.75723.75723,0,0,1,157.15814,84.24188Zm0,7.41178a.75723.75723,0,0,1,.61128-.7641h24.2984q.53487.38205.53487.7641a.83538.83538,0,0,1-.57307.7641H157.693A.83222.83222,0,0,1,157.15814,91.65366Z"/>
    <path id="MJSZ2-2211" class="cls-5" d="M223.1,61.28066q.11462-.07641,23.114-.07641H269.2135l2.21589,5.15768q2.2541,5.27229,2.40692,5.57793H272.3081l-.26743-.53487a12.90793,12.90793,0,0,0-2.13948-2.98,16.03637,16.03637,0,0,0-4.24076-2.94179,20.91941,20.91941,0,0,0-5.38691-1.64281,44.443,44.443,0,0,0-5.769-.64949q-2.71255-.11462-6.99152-.15282H230.39719l.30564.42026q17.68893,24.18378,17.76533,24.413a.34425.34425,0,0,1,0,.22923q-.11462.11462-10.08612,11.53792L228.29591,111.1q0,.03821,8.06126.0382h5.38691q3.40024,0,4.89024.03821,5.1959,0,8.40511-.191a49.07735,49.07735,0,0,0,6.38024-.8023,17.5945,17.5945,0,0,0,5.38691-1.87205,14.327,14.327,0,0,0,3.93512-3.32384,12.10712,12.10712,0,0,0,1.5664-2.75076h1.52821q0,.0382-.26744.80231t-.95513,2.48333q-.68769,1.71922-1.18435,3.20922l-2.21589,5.92178-22.96123.0382q-22.99943,0-23.114-.07641a.32455.32455,0,0,1-.22923-.34384.58645.58645,0,0,1,.07641-.22923l20.36328-23.30507q0-.03821-1.26077-1.71923T238.0764,83.516q-2.75078-3.8205-4.96666-6.8005L222.9472,62.77066l-.0382-.57308Q222.909,61.39528,223.1,61.28066Z"/>
  </g>
  <path id="MJMAIN-22C5" class="cls-5" d="M443.057,87.91238a2.26347,2.26347,0,0,1,.64949-1.60461,2.16279,2.16279,0,0,1,1.64281-.68769,2.33977,2.33977,0,0,1,1.60461.61128,2.20455,2.20455,0,0,1,.7259,1.64282,2.30945,2.30945,0,0,1-.64949,1.64281,2.16279,2.16279,0,0,1-1.64281.68769,2.22652,2.22652,0,0,1-1.64282-.64948A2.36246,2.36246,0,0,1,443.057,87.91238Z"/>
  <rect class="cls-1" x="489.16035" y="36.62882" width="98.20283" height="98.20283"/>
  <polygon class="cls-3" points="574.389 85.774 564.221 65.358 564.221 106.19 574.389 85.774"/>
  <polygon class="cls-3" points="502.038 85.728 512.206 106.144 512.206 65.313 502.038 85.728"/>
  <polygon class="cls-6" points="502.085 85.728 512.254 106.144 512.254 65.313 502.085 85.728"/>
  <polygon class="cls-7" points="538.163 122.161 558.579 111.993 517.747 111.993 538.163 122.161"/>
  <polygon class="cls-8" points="574.438 85.751 564.27 65.335 564.27 106.166 574.438 85.751"/>
  <polygon class="cls-9" points="538.163 49.51 517.747 59.678 558.579 59.678 538.163 49.51"/>
  <g>
    <path id="MJMATHI-51" class="cls-5" d="M498.012,23.22131q0-.87695.02657-1.32871a2.62462,2.62462,0,0,1,.05315-.5049v-.1063l-.39861.1063a9.66743,9.66743,0,0,1-2.23223.29231,6.52138,6.52138,0,0,1-6.69668-5.926q-.02658-.2126-.02657-1.14269a10.99358,10.99358,0,0,1,1.27555-5.15538,14.88375,14.88375,0,0,1,3.42807-4.33158,10.36508,10.36508,0,0,1,6.61695-2.73713q1.00983,0,1.27556.02657a6.32671,6.32671,0,0,1,4.14557,2.28538,7.4924,7.4924,0,0,1,1.59444,4.83649,12.0912,12.0912,0,0,1-3.933,8.71631,12.74464,12.74464,0,0,1-3.48121,2.41824l-.45176.2126v.13287q0,.02657.13287.7175a2.09114,2.09114,0,0,0,.55806,1.11611,1.65456,1.65456,0,0,0,1.22241.42519,3.096,3.096,0,0,0,1.78047-.58463,2.70366,2.70366,0,0,0,1.11611-1.51473q.15945-.372.34546-.372a.27332.27332,0,0,1,.29232.23916,3.97476,3.97476,0,0,1-.26574.95667q-.26576.74408-.74408,1.75389a4.61325,4.61325,0,0,1-1.435,1.72732,3.62641,3.62641,0,0,1-2.01964.77065q-2.17907,0-2.17907-2.84343ZM504.31,8.65869a7.418,7.418,0,0,0-.39861-2.55112,3.49325,3.49325,0,0,0-1.08954-1.621,5.99125,5.99125,0,0,0-1.3287-.79722,3.62726,3.62726,0,0,0-1.40843-.26574,5.79745,5.79745,0,0,0-2.60427.66435,9.56756,9.56756,0,0,0-4.35815,4.677,14.9644,14.9644,0,0,0-1.6476,6.59038,5.48844,5.48844,0,0,0,1.435,4.17214,2.49576,2.49576,0,0,0,.77065.55805V19.873a2.77944,2.77944,0,0,1,.877-1.96648,2.88886,2.88886,0,0,1,2.07278-.9301,2.14926,2.14926,0,0,1,1.14269.29232,1.83747,1.83747,0,0,1,.7175.79722,4.37526,4.37526,0,0,1,.31889.85037q.07972.34546.15944.7175l.34547-.23916a9.84163,9.84163,0,0,0,2.89658-3.21547,14.50822,14.50822,0,0,0,1.64759-3.95955A15.55437,15.55437,0,0,0,504.31,8.65869Zm-8.55686,11.95836a5.27465,5.27465,0,0,0,2.39167-.55806l-.02658-.26574q-.10629-1.46158-.98324-1.75389a3.25237,3.25237,0,0,0-.50491-.05315h-.15944a.15388.15388,0,0,1-.1063-.02658,1.6185,1.6185,0,0,0-1.08954.53149,1.74145,1.74145,0,0,0-.58463,1.22241Q494.69021,20.617,495.75318,20.61705Z"/>
    <g>
      <path id="MJMATHI-3C0-3" data-name="MJMATHI-3C0" class="cls-5" d="M510.909,10.35351a.55646.55646,0,0,1-.63879-.62V9.52684l.24424-.52606a36.40535,36.40535,0,0,0,2.04788-5.1291l.15031-.45091h-.60122a6.26448,6.26448,0,0,0-1.01454.05636,2.0327,2.0327,0,0,0-.73273.357,2.45437,2.45437,0,0,0-.41334.33819,4.84328,4.84328,0,0,0-.357.39454,2.31659,2.31659,0,0,0-.16909.22546,1.07144,1.07144,0,0,1-.28182.01879q-.357,0-.357-.18788a2.26819,2.26819,0,0,1,.357-.65758,6.38886,6.38886,0,0,1,1.03334-1.16485,2.55434,2.55434,0,0,1,1.33394-.71394q.13152-.03757,4.22728-.03758,3.00606,0,3.08122.01879a.51294.51294,0,0,1,.37575.52606.78466.78466,0,0,1-.60121.78909,10.18671,10.18671,0,0,1-1.29636.03758H516.0945l-.05636.31939a14.10128,14.10128,0,0,0-.22546,2.23577,8.186,8.186,0,0,0,.16909,1.74727,6.78862,6.78862,0,0,0,.357,1.20243,2.19093,2.19093,0,0,1,.18788.52606.87071.87071,0,0,1-.263.60121.88371.88371,0,0,1-.67636.28182.866.866,0,0,1-.33819-.05636q-.1315-.05637-.3006-.45091a5.42725,5.42725,0,0,1-.30061-1.12728q-.01878-.16909-.01879-.82667a12.46957,12.46957,0,0,1,.16909-1.97273q.16909-1.05211.33819-1.72848l.18788-.75152H513.483l-.01879.07515q0,.05637-.357,1.48425T512.29934,8.005a14.00194,14.00194,0,0,1-.58242,1.82243A.79.79,0,0,1,510.909,10.35351Z"/>
      <path id="MJMAIN-31-3" data-name="MJMAIN-31" class="cls-5" d="M521.96855,5.29706l-.17273.06644a3.80842,3.80842,0,0,1-.53148.13287,6.12572,6.12572,0,0,1-.77065.093h-.25246V4.97817h.25246a4.32089,4.32089,0,0,0,1.156-.1993,3.13812,3.13812,0,0,0,.74408-.31889,3.40631,3.40631,0,0,0,.372-.29232q.02658-.03985.15945-.03986a.37014.37014,0,0,1,.22588.07972V8.18036l.01329,3.98611a.52614.52614,0,0,0,.15944.11959,1.57644,1.57644,0,0,0,.31889.05315q.25245.02657.8238.02657h.34546V12.977h-.14616q-.279-.03987-2.11264-.03987-1.807,0-2.08607.03987h-.15944v-.61121h.85037a3.19056,3.19056,0,0,0,.33218-.01329,1.29988,1.29988,0,0,0,.21259-.03986.797.797,0,0,1,.1063-.02657q.01327,0,.07972-.06644t.07972-.05315Z"/>
    </g>
    <path id="MJMAIN-28-2" data-name="MJMAIN-28" class="cls-5" d="M532.82408,14.45185a21.8576,21.8576,0,0,1,.26574-3.48121,24.35441,24.35441,0,0,1,.61121-2.84343,11.12753,11.12753,0,0,1,.98324-2.33853q.63779-1.14269,1.00982-1.78046a7.05788,7.05788,0,0,1,1.11611-1.38186q.74407-.74407.87695-.90352a4.78977,4.78977,0,0,1,.66435-.558h.45176q.372,0,.372.23916a2.14729,2.14729,0,0,1-.45176.55806A12.06362,12.06362,0,0,0,537.634,3.37044a18.38542,18.38542,0,0,0-1.30214,2.28537A15.11816,15.11816,0,0,0,535.21575,9.323a26.82138,26.82138,0,0,0-.45176,5.12881,26.40425,26.40425,0,0,0,.45176,5.10223,17.25849,17.25849,0,0,0,1.08954,3.69381,12.03553,12.03553,0,0,0,1.30213,2.28537q.66435.87694,1.11612,1.40843a6.00232,6.00232,0,0,1,.45176.55806q0,.23916-.39862.23916h-.42518l-.74408-.63778a13.11406,13.11406,0,0,1-3.64065-5.63371A21.72709,21.72709,0,0,1,532.82408,14.45185Z"/>
    <path id="MJMATHI-73-2" data-name="MJMATHI-73" class="cls-5" d="M544.17123,13.41546a3.93807,3.93807,0,0,1,.42519-1.72732,4.37194,4.37194,0,0,1,1.48815-1.621,4.24592,4.24592,0,0,1,2.57769-.7175,3.35738,3.35738,0,0,1,2.39167.7175,2.27679,2.27679,0,0,1,.77065,1.59445,1.5826,1.5826,0,0,1-.45176,1.249,1.61,1.61,0,0,1-1.00982.42519,1.06144,1.06144,0,0,1-.63778-.2126.85977.85977,0,0,1-.31889-.69092,1.20591,1.20591,0,0,1,.23917-.74408,2.38724,2.38724,0,0,1,.45176-.47833.64308.64308,0,0,1,.34547-.15945.02349.02349,0,0,0,.02657-.02657q0-.07973-.186-.23917a1.8152,1.8152,0,0,0-.66435-.29232,4.70233,4.70233,0,0,0-1.03639-.15944,2.24773,2.24773,0,0,0-2.4714,2.09936.96068.96068,0,0,0,.50491.93009,5.51127,5.51127,0,0,0,1.46158.45176,5.82306,5.82306,0,0,1,1.38185.39861,2.62633,2.62633,0,0,1,1.7539,2.55112,4.04379,4.04379,0,0,1-.29232,1.48815,5.94422,5.94422,0,0,1-.87695,1.48815,3.84428,3.84428,0,0,1-1.67417,1.16926,7.2156,7.2156,0,0,1-2.498.45176,4.29842,4.29842,0,0,1-2.89658-.77065,2.45857,2.45857,0,0,1-.877-1.807,1.80726,1.80726,0,0,1,.55806-1.48815,1.83492,1.83492,0,0,1,1.16926-.45176,1.28216,1.28216,0,0,1,.74407.23917.98929.98929,0,0,1,.372.8238,1.59051,1.59051,0,0,1-.47833,1.16926,1.30873,1.30873,0,0,1-.8238.47833.20394.20394,0,0,1-.07972.02658q-.02658,0-.02658.05314a.57434.57434,0,0,0,.2126.2126,3.7102,3.7102,0,0,0,.82379.34546,5.22665,5.22665,0,0,0,3.10918-.1063,2.28291,2.28291,0,0,0,1.00981-.74407,3.52737,3.52737,0,0,0,.45176-.8238,2.00439,2.00439,0,0,0,.13287-.66435,1.25193,1.25193,0,0,0-.558-1.11612,2.825,2.825,0,0,0-1.27556-.45176,6.576,6.576,0,0,1-1.56787-.39861,2.45921,2.45921,0,0,1-1.249-.93009A2.67489,2.67489,0,0,1,544.17123,13.41546Z"/>
    <path id="MJMAIN-2C" class="cls-5" d="M555.22607,20.16529v-.66436a1.66181,1.66181,0,0,1,.42518-1.14268,1.4525,1.4525,0,0,1,1.14269-.47834,1.73712,1.73712,0,0,1,1.32871.66435,3.66868,3.66868,0,0,1,.6112,2.33853,6.837,6.837,0,0,1-.23916,1.807,8.26252,8.26252,0,0,1-.55806,1.51472,5.76245,5.76245,0,0,1-.69093,1.08954q-.372.45177-.63778.7175t-.34546.23917q-.10631,0-.34546-.23917t-.23917-.34546q0-.10629.29231-.42519t.66436-.79722a5.10005,5.10005,0,0,0,.69092-1.32871,7.63272,7.63272,0,0,0,.42519-1.93991v-.31889l-.02657.02658a1.03343,1.03343,0,0,1-.13287.05315.6706.6706,0,0,0-.15945.07972.4349.4349,0,0,1-.23917.05315,1.93625,1.93625,0,0,0-.31889.02657,1.58215,1.58215,0,0,1-1.16926-.45176Z"/>
    <path id="MJMATHI-61" class="cls-5" d="M565.88229,16.92324a7.85294,7.85294,0,0,1,2.01964-5.10223,5.94674,5.94674,0,0,1,4.54417-2.44482,3.01266,3.01266,0,0,1,2.39167,1.30213,1.32969,1.32969,0,0,1,1.22241-.79722.95082.95082,0,0,1,.61121.21259.65441.65441,0,0,1,.26574.53149q0,.34545-.98324,4.25186t-1.00982,4.4113a1.42172,1.42172,0,0,0,.186.87695.78058.78058,0,0,0,.558.23916,1.15455,1.15455,0,0,0,.53149-.23916,6.02606,6.02606,0,0,0,1.08954-2.55112q.15944-.53148.26574-.55806a.77747.77747,0,0,1,.26574-.02657h.1063q.5049,0,.5049.23917a4.22086,4.22086,0,0,1-.13287.7175,8.33679,8.33679,0,0,1-.53148,1.435,4.52747,4.52747,0,0,1-.85037,1.32871,2.62753,2.62753,0,0,1-.85037.55805,2.83266,2.83266,0,0,1-.63778.05315,2.71626,2.71626,0,0,1-1.51473-.39861,2.04009,2.04009,0,0,1-.79722-.8238l-.15945-.39861q-.02656-.02658-.10629.02657l-.1063.1063a4.65908,4.65908,0,0,1-3.18889,1.48815,3.6267,3.6267,0,0,1-2.57769-1.063A4.47794,4.47794,0,0,1,565.88229,16.92324Zm8.45057-4.54417a2.40557,2.40557,0,0,0-.13287-.58463,2.52652,2.52652,0,0,0-.6112-.9301,1.6987,1.6987,0,0,0-1.22241-.53148,2.55017,2.55017,0,0,0-1.78047.8238,5.56047,5.56047,0,0,0-1.3287,2.1525,21.21487,21.21487,0,0,0-1.08954,4.35816v.29231a1.41621,1.41621,0,0,1-.02658.31889,2.23177,2.23177,0,0,0,.47834,1.6476,1.71142,1.71142,0,0,0,1.14268.47833,3.00071,3.00071,0,0,0,1.99306-.87694,4.46858,4.46858,0,0,0,1.16927-1.35528q.05315-.1063.7175-2.84343T574.33286,12.37907Z"/>
    <path id="MJMAIN-29-2" data-name="MJMAIN-29" class="cls-5" d="M580.65751,1.19136l.10629-.02657h.58463l.74408.63778a13.11406,13.11406,0,0,1,3.64065,5.63371,21.72682,21.72682,0,0,1,1.14269,7.01557,22.18466,22.18466,0,0,1-.26574,3.48121,22.84991,22.84991,0,0,1-.6112,2.84343,11.96847,11.96847,0,0,1-.98325,2.33852q-.63777,1.16926-1.00981,1.78047a8.08421,8.08421,0,0,1-1.08954,1.35528q-.71751.74408-.85038.877t-.6112.50491l-.1063.10629h-.6112a.15615.15615,0,0,1-.13287-.07972.62553.62553,0,0,1-.07972-.23917q.02657-.02657.29231-.34546,4.119-4.27843,4.119-12.62271T580.817,1.82914q-.26574-.31889-.29231-.34546A.31235.31235,0,0,1,580.65751,1.19136Z"/>
  </g>
  <text class="cls-10" transform="translate(3.22375 157.30437)">On-policy <tspan class="cls-11" x="67.54199" y="0">v</tspan><tspan x="74.90527" y="0">alue estimation</tspan></text>
</svg>
