<svg id="Layer_1" data-name="Layer 1" xmlns="http://www.w3.org/2000/svg" viewBox="0 0 580 160.75424">
  <defs>
    <style>
      .cls-1 {
        fill: #e7ebe8;
      }

      .cls-2 {
        fill: #58595b;
      }

      .cls-3 {
        fill: #fff;
      }

      .cls-4 {
        fill: #b2b3c3;
      }

      .cls-5, .cls-9 {
        fill: #70a8da;
      }

      .cls-5, .cls-8 {
        opacity: 0.5;
      }

      .cls-6 {
        fill: #010101;
      }

      .cls-7, .cls-8 {
        fill: #ef4136;
      }

      .cls-10 {
        font-size: 15.2726px;
        fill: #6d6e71;
        font-family: Roboto-Regular, Roboto;
      }

      .cls-11 {
        letter-spacing: -0.00729em;
      }
    </style>
  </defs>
  <title>on-policy-value</title>
  <rect class="cls-1" x="297.99889" y="36.46188" width="97.17066" height="97.17066"/>
  <polygon class="cls-2" points="310.788 85.045 320.849 105.246 320.849 64.844 310.788 85.045"/>
  <polygon class="cls-3" points="346.486 121.095 366.687 111.034 326.285 111.034 346.486 121.095"/>
  <polygon class="cls-4" points="382.38 85.068 372.319 64.867 372.319 105.269 382.38 85.068"/>
  <polygon class="cls-4" points="346.486 49.208 326.285 59.269 366.687 59.269 346.486 49.208"/>
  <rect class="cls-1" x="1.7409" y="36.66756" width="97.17066" height="97.17066"/>
  <circle class="cls-3" cx="51.35675" cy="86.4665" r="30.77749"/>
  <circle class="cls-5" cx="51.35409" cy="86.50323" r="30.77749"/>
  <g>
    <path id="MJMATHI-56" class="cls-6" d="M2.18006,5.16155a1.19542,1.19542,0,0,1,.32858-.88463h.278q1.06157.07583,2.65388.07583,2.98245,0,3.51323-.07583h.25275q.15165.15165.15165.22748t-.05055.45495a1.3922,1.3922,0,0,1-.22747.48022H8.54937q-.556.05055-.75825.05055-.733.12638-.8088.37913,0,.05055.733,6.344t.75825,6.344l1.84507-2.95717q1.84508-2.95719,3.69016-5.96491T15.9044,6.5264a.75177.75177,0,0,0,.1011-.37912q0-.60662-1.1121-.70771-.455,0-.455-.278,0-.02527.05055-.32858a1.36007,1.36007,0,0,1,.15165-.455.40127.40127,0,0,1,.32858-.1011h.3033q.25275,0,.85935.02528t1.6176.02527q1.744,0,2.19893-.05055h.17692q.17692.17693.17693.278a1.546,1.546,0,0,1-.22748.8088.72321.72321,0,0,1-.42967.07582q-.32857.02529-.6066.05055a1.87978,1.87978,0,0,0-.53078.12638q-.25275.1011-.4044.17693a1.58253,1.58253,0,0,0-.3033.2022,1.41411,1.41411,0,0,1-.25275.17692.54938.54938,0,0,0-.2022.22748q-.1011.17692-.17692.17692l-4.87808,7.83526q-4.54951,7.355-4.70116,7.532-.07583.05055-.17693.12637l-.455.02528H6.78012q-.455,0-.455-.17693-.07583-.15165-.98573-8.088Q4.379,5.79343,4.35372,5.7176q-.12638-.278-1.56706-.278H2.357A.35013.35013,0,0,1,2.18006,5.16155Z"/>
    <g>
      <path id="MJMATHI-3C0" class="cls-6" d="M24.07643,11.323a.52926.52926,0,0,1-.60756-.58969v-.19657l.2323-.50034a34.62675,34.62675,0,0,0,1.94777-4.87836l.14295-.42887h-.57182a5.95747,5.95747,0,0,0-.96495.05361,1.93339,1.93339,0,0,0-.69691.33952,2.3343,2.3343,0,0,0-.39312.32165,4.60372,4.60372,0,0,0-.33952.37526,2.20123,2.20123,0,0,0-.16083.21443,1.01851,1.01851,0,0,1-.268.01787q-.33952,0-.33952-.17869a2.15725,2.15725,0,0,1,.33952-.62543,6.07651,6.07651,0,0,1,.98282-1.10791,2.42953,2.42953,0,0,1,1.26873-.679q.12508-.03573,4.02062-.03573,2.85912,0,2.93059.01786a.48788.48788,0,0,1,.35739.50035.74633.74633,0,0,1-.57182.75052,9.69378,9.69378,0,0,1-1.233.03573H29.00839l-.0536.30379a13.412,13.412,0,0,0-.21444,2.12646,7.78586,7.78586,0,0,0,.16083,1.66186,6.45582,6.45582,0,0,0,.33952,1.14364,2.08357,2.08357,0,0,1,.17869.50035.82814.82814,0,0,1-.25017.57182.84054.84054,0,0,1-.6433.268.82347.82347,0,0,1-.32165-.05361q-.12509-.05361-.28591-.42886a5.162,5.162,0,0,1-.28591-1.07217q-.01788-.16083-.01787-.78626A11.85986,11.85986,0,0,1,27.7754,7.088q.16083-1.00068.32165-1.644l.1787-.71478H26.52454l-.01787.07148q0,.05361-.33952,1.41169t-.76838,2.877a13.31823,13.31823,0,0,1-.554,1.73334A.75136.75136,0,0,1,24.07643,11.323Z"/>
      <path id="MJMAIN-31" class="cls-6" d="M34.59529,6.51376,34.431,6.577a3.62193,3.62193,0,0,1-.5055.12638,5.82638,5.82638,0,0,1-.733.08846h-.24011V6.21046h.24011A4.10953,4.10953,0,0,0,34.292,6.0209a2.98487,2.98487,0,0,0,.7077-.3033,3.23849,3.23849,0,0,0,.35385-.278q.02528-.03791.15165-.03791a.352.352,0,0,1,.21484.07583V9.2561l.01263,3.79126a.50067.50067,0,0,0,.15165.11374,1.4988,1.4988,0,0,0,.3033.05055q.24012.02527.78353.02527h.32857v.58133h-.139q-.26538-.03792-2.00936-.03792-1.7187,0-1.98409.03792H33.0156v-.58133h.8088a3.03369,3.03369,0,0,0,.31594-.01264,1.23714,1.23714,0,0,0,.2022-.03791.75645.75645,0,0,1,.1011-.02527q.01263,0,.07582-.06319t.07583-.05055Z"/>
    </g>
    <path id="MJMAIN-28" class="cls-6" d="M44.92013,15.221a20.789,20.789,0,0,1,.25276-3.311,23.16472,23.16472,0,0,1,.58132-2.70443,10.58363,10.58363,0,0,1,.93518-2.2242q.6066-1.08683.96045-1.69343a6.71315,6.71315,0,0,1,1.06155-1.3143q.7077-.7077.83407-.85935a4.556,4.556,0,0,1,.63188-.53077H50.607q.35385,0,.35385.22747a2.04234,2.04234,0,0,1-.42968.53078,11.47578,11.47578,0,0,0-1.03628,1.33957A17.48668,17.48668,0,0,0,48.25644,6.855a14.37913,14.37913,0,0,0-1.06155,3.488,25.50993,25.50993,0,0,0-.42968,4.87808,25.11334,25.11334,0,0,0,.42968,4.85281A16.41491,16.41491,0,0,0,48.23116,23.587a11.44662,11.44662,0,0,0,1.23848,2.17366q.63188.83407,1.06155,1.33957a5.70964,5.70964,0,0,1,.42968.53078q0,.22748-.37913.22747h-.4044l-.7077-.6066a12.473,12.473,0,0,1-3.46268-5.3583A20.665,20.665,0,0,1,44.92013,15.221Z"/>
    <path id="MJMATHI-73" class="cls-6" d="M55.71257,14.23528a3.74557,3.74557,0,0,1,.4044-1.64287,4.15818,4.15818,0,0,1,1.4154-1.54178,4.03847,4.03847,0,0,1,2.45168-.68243,3.19329,3.19329,0,0,1,2.27475.68243,2.16548,2.16548,0,0,1,.733,1.5165,1.50524,1.50524,0,0,1-.42968,1.18793,1.53128,1.53128,0,0,1-.96045.4044,1.00954,1.00954,0,0,1-.6066-.2022.81772.81772,0,0,1-.3033-.65715,1.14693,1.14693,0,0,1,.22748-.7077,2.27055,2.27055,0,0,1,.42967-.45495.61168.61168,0,0,1,.32858-.15165.02234.02234,0,0,0,.02527-.02528q0-.07583-.17692-.22747a1.72644,1.72644,0,0,0-.63188-.278,4.47209,4.47209,0,0,0-.98572-.15165,2.13782,2.13782,0,0,0-2.35058,1.99673.9137.9137,0,0,0,.48022.88462,5.24186,5.24186,0,0,0,1.39013.42968,5.53876,5.53876,0,0,1,1.3143.37912,2.498,2.498,0,0,1,1.66815,2.42641,3.84616,3.84616,0,0,1-.278,1.4154,5.65373,5.65373,0,0,1-.83408,1.4154,3.65633,3.65633,0,0,1-1.59232,1.1121,6.86317,6.86317,0,0,1-2.37586.42968,4.0883,4.0883,0,0,1-2.755-.733,2.33836,2.33836,0,0,1-.83408-1.7187,1.71892,1.71892,0,0,1,.53077-1.4154,1.74527,1.74527,0,0,1,1.11211-.42968,1.21953,1.21953,0,0,1,.7077.22748.94094.94094,0,0,1,.35385.78352,1.51275,1.51275,0,0,1-.45495,1.1121,1.24475,1.24475,0,0,1-.78353.455.19394.19394,0,0,1-.07582.02527q-.02528,0-.02528.05055a.54627.54627,0,0,0,.2022.2022,3.52874,3.52874,0,0,0,.78353.32858,4.97126,4.97126,0,0,0,2.95717-.1011,2.17131,2.17131,0,0,0,.96046-.7077,3.35552,3.35552,0,0,0,.42967-.78353,1.90645,1.90645,0,0,0,.12638-.63188,1.19073,1.19073,0,0,0-.53078-1.06155,2.68676,2.68676,0,0,0-1.2132-.42967,6.25535,6.25535,0,0,1-1.49123-.37913,2.339,2.339,0,0,1-1.18792-.88462A2.54414,2.54414,0,0,1,55.71257,14.23528Z"/>
    <path id="MJMAIN-29" class="cls-6" d="M65.772,2.60877l.1011-.02527h.556l.7077.6066a12.47292,12.47292,0,0,1,3.46268,5.3583A20.66493,20.66493,0,0,1,71.68639,15.221a21.10009,21.10009,0,0,1-.25275,3.311,21.73118,21.73118,0,0,1-.58133,2.70443,11.38375,11.38375,0,0,1-.93517,2.2242q-.6066,1.1121-.96045,1.69343a7.68861,7.68861,0,0,1-1.03628,1.289q-.68243.7077-.8088.83408t-.58133.48022l-.1011.1011h-.58132a.14853.14853,0,0,1-.12638-.07582.595.595,0,0,1-.07582-.22748q.02527-.02527.278-.32857,3.91763-4.06929,3.91763-12.00564T65.92368,3.21537q-.25275-.3033-.278-.32857A.29707.29707,0,0,1,65.772,2.60877Z"/>
  </g>
  <g>
    <path id="MJMAIN-3D" class="cls-6" d="M152.58946,81.60937a.82347.82347,0,0,1,.52925-.75607h24.08081a.87912.87912,0,0,1,.567.75607.85766.85766,0,0,1-.52925.71827l-12.0215.0378H153.19431A.74927.74927,0,0,1,152.58946,81.60937Zm0,7.33388a.74927.74927,0,0,1,.60485-.75607h24.043q.52924.378.52925.75607a.82662.82662,0,0,1-.567.75607H153.11871A.82347.82347,0,0,1,152.58946,88.94325Z"/>
    <path id="MJSZ2-2211" class="cls-6" d="M217.83825,58.88949q.1134-.07561,22.8711-.07561H263.467l2.1926,5.10347q2.23039,5.21688,2.38162,5.51931h-1.51214l-.26463-.52925a12.77209,12.77209,0,0,0-2.117-2.94867,15.86784,15.86784,0,0,0-4.19619-2.91087,20.69924,20.69924,0,0,0-5.33029-1.62555,43.97667,43.97667,0,0,0-5.70832-.64266q-2.684-.1134-6.918-.15121h-16.936l.30243.41584q17.503,23.92959,17.57861,24.15641a.34079.34079,0,0,1,0,.22682q-.11342.11341-9.98012,11.41665l-9.98011,11.341q0,.03782,7.97653.03781h5.33029q3.36451,0,4.83884.0378,5.14128,0,8.31677-.189a48.56076,48.56076,0,0,0,6.31318-.79387,17.40961,17.40961,0,0,0,5.33029-1.85237,14.17669,14.17669,0,0,0,3.89375-3.2889,11.97986,11.97986,0,0,0,1.54995-2.72185h1.51214q0,.0378-.26463.79387t-.94509,2.45723q-.68046,1.70115-1.1719,3.17549l-2.1926,5.85954-22.71989.0378q-22.75769,0-22.8711-.07561a.32114.32114,0,0,1-.22682-.34023.58024.58024,0,0,1,.07561-.22682L237.87409,88.036q0-.0378-1.24752-1.70115t-3.96936-5.4437q-2.72186-3.78034-4.91445-6.729L217.687,60.36382l-.0378-.567Q217.64923,59.00289,217.83825,58.88949Z"/>
  </g>
  <path id="MJMAIN-22C5" class="cls-6" d="M435.48336,87.22027a2.23967,2.23967,0,0,1,.64266-1.58774,2.14,2.14,0,0,1,1.62555-.68047,2.31516,2.31516,0,0,1,1.58774.60486,2.18145,2.18145,0,0,1,.71827,1.62555,2.28518,2.28518,0,0,1-.64266,1.62555,2.14007,2.14007,0,0,1-1.62555.68046,2.20311,2.20311,0,0,1-1.62555-.64266A2.33761,2.33761,0,0,1,435.48336,87.22027Z"/>
  <rect class="cls-1" x="481.1021" y="36.47573" width="97.17066" height="97.17066"/>
  <polygon class="cls-3" points="565.435 85.104 555.374 64.903 555.374 105.305 565.435 85.104"/>
  <polygon class="cls-3" points="493.844 85.059 503.906 105.26 503.906 64.858 493.844 85.059"/>
  <polygon class="cls-5" points="493.891 85.059 503.953 105.26 503.953 64.858 493.891 85.059"/>
  <polygon class="cls-7" points="529.59 121.109 549.791 111.047 509.389 111.047 529.59 121.109"/>
  <polygon class="cls-8" points="565.483 85.081 555.422 64.88 555.422 105.282 565.483 85.081"/>
  <polygon class="cls-9" points="529.59 49.222 509.389 59.283 549.791 59.283 529.59 49.222"/>
  <g>
    <path id="MJMATHI-51" class="cls-6" d="M489.86069,23.20915q0-.86774.02629-1.31474a2.59718,2.59718,0,0,1,.05259-.4996v-.10518l-.39442.10518a9.56587,9.56587,0,0,1-2.20876.28924,6.45285,6.45285,0,0,1-6.6263-5.86374q-.02629-.21036-.02629-1.13068A10.878,10.878,0,0,1,481.946,9.58844a14.72722,14.72722,0,0,1,3.392-4.28606A10.25616,10.25616,0,0,1,491.88539,2.594q.9992,0,1.26215.0263a6.26017,6.26017,0,0,1,4.102,2.26135,7.41368,7.41368,0,0,1,1.57769,4.78566,11.96411,11.96411,0,0,1-3.89163,8.6247,12.61122,12.61122,0,0,1-3.44462,2.39283l-.447.21035v.13148q0,.0263.13148.71a2.0692,2.0692,0,0,0,.55219,1.10438,1.63715,1.63715,0,0,0,1.20956.42072,3.06339,3.06339,0,0,0,1.76175-.57849,2.67524,2.67524,0,0,0,1.10439-1.4988q.15775-.36813.34183-.36813a.27044.27044,0,0,1,.28924.23665,3.933,3.933,0,0,1-.26295.94662q-.26295.73625-.73625,1.73545a4.56487,4.56487,0,0,1-1.41992,1.70917,3.58841,3.58841,0,0,1-1.99841.76255q-2.15618,0-2.15617-2.81355Zm6.23187-14.40956a7.34014,7.34014,0,0,0-.39442-2.5243,3.45652,3.45652,0,0,0-1.07809-1.604,5.92866,5.92866,0,0,0-1.31474-.78884,3.58908,3.58908,0,0,0-1.39363-.26295,5.73656,5.73656,0,0,0-2.57689.65737,9.46708,9.46708,0,0,0-4.31235,4.62789,14.8072,14.8072,0,0,0-1.63028,6.52111,5.43072,5.43072,0,0,0,1.41992,4.12829,2.46957,2.46957,0,0,0,.76255.55219V19.896a2.75025,2.75025,0,0,1,.86773-1.94581,2.85848,2.85848,0,0,1,2.051-.92032,2.12664,2.12664,0,0,1,1.13067.28924,1.81818,1.81818,0,0,1,.71.78884,4.32945,4.32945,0,0,1,.31554.84144q.07888.34183.15777.71l.34183-.23665a9.73819,9.73819,0,0,0,2.86614-3.18168,14.3559,14.3559,0,0,0,1.63028-3.91792A15.39182,15.39182,0,0,0,496.09256,8.79959Zm-8.46693,11.83267a5.2193,5.2193,0,0,0,2.36653-.55219l-.02629-.26295q-.10518-1.44623-.97291-1.73546a3.21907,3.21907,0,0,0-.4996-.05259h-.15777a.15228.15228,0,0,1-.10518-.02629,1.60149,1.60149,0,0,0-1.07809.52589,1.72315,1.72315,0,0,0-.57848,1.20956Q486.57384,20.63226,487.62563,20.63226Z"/>
    <g>
      <path id="MJMATHI-3C0-2" data-name="MJMATHI-3C0" class="cls-6" d="M502.62219,10.47659a.55061.55061,0,0,1-.63207-.61348V9.65862l.24167-.52054a36.02354,36.02354,0,0,0,2.02636-5.07518l.14872-.44618H503.812a6.19768,6.19768,0,0,0-1.00388.05578,2.01129,2.01129,0,0,0-.725.35321,2.42866,2.42866,0,0,0-.409.33463,4.79164,4.79164,0,0,0-.35322.3904,2.28894,2.28894,0,0,0-.16731.22309,1.06019,1.06019,0,0,1-.27886.01859q-.35322,0-.35322-.18591a2.24446,2.24446,0,0,1,.35322-.65066,6.32131,6.32131,0,0,1,1.02248-1.15261,2.52743,2.52743,0,0,1,1.31992-.70644q.13013-.03717,4.18284-.03718,2.97447,0,3.04883.01859a.50755.50755,0,0,1,.37181.52054.77642.77642,0,0,1-.59489.78079,10.08179,10.08179,0,0,1-1.28274.03718h-1.18979l-.05577.316A13.954,13.954,0,0,0,507.4743,6.145a8.10032,8.10032,0,0,0,.16731,1.72891,6.71624,6.71624,0,0,0,.35322,1.18979,2.16824,2.16824,0,0,1,.1859.52053.86155.86155,0,0,1-.26026.5949.87446.87446,0,0,1-.66926.27885.85676.85676,0,0,1-.33463-.05577q-.13012-.05577-.29744-.44617a5.36924,5.36924,0,0,1-.29745-1.11542q-.0186-.16733-.01859-.818a12.3378,12.3378,0,0,1,.16731-1.952q.16731-1.04106.33463-1.71032l.1859-.74362h-1.82186l-.01859.07437q0,.05577-.35322,1.46864t-.79939,2.99306a13.8517,13.8517,0,0,1-.5763,1.80327A.78168.78168,0,0,1,502.62219,10.47659Z"/>
      <path id="MJMAIN-31-2" data-name="MJMAIN-31" class="cls-6" d="M513.56546,5.4733l-.17091.06573a3.7681,3.7681,0,0,1-.5259.13148,6.0613,6.0613,0,0,1-.76255.092h-.2498V5.15776h.2498a4.27563,4.27563,0,0,0,1.14382-.19721,3.10531,3.10531,0,0,0,.73626-.31554,3.37044,3.37044,0,0,0,.36813-.28924q.0263-.03945.15777-.03945a.36618.36618,0,0,1,.2235.07889V8.32628l.01315,3.94423a.52057.52057,0,0,0,.15777.11832,1.559,1.559,0,0,0,.31554.05259q.24979.02629.81513.0263h.34184v.60478h-.14462q-.2761-.03945-2.09044-.03944-1.788,0-2.06414.03944H511.922v-.60478h.84143a3.159,3.159,0,0,0,.32869-.01315,1.28781,1.28781,0,0,0,.21035-.03944.78877.78877,0,0,1,.10518-.0263q.01316,0,.07889-.06573t.07888-.05259Z"/>
    </g>
    <path id="MJMAIN-28-2" data-name="MJMAIN-28" class="cls-6" d="M524.30689,14.53186a21.62758,21.62758,0,0,1,.263-3.44462,24.09958,24.09958,0,0,1,.60478-2.81355,11.01076,11.01076,0,0,1,.97291-2.31394q.63108-1.13067.9992-1.76175a6.984,6.984,0,0,1,1.10439-1.36733q.73624-.73626.86772-.894a4.74029,4.74029,0,0,1,.65737-.55219h.447q.36812,0,.36812.23666a2.12463,2.12463,0,0,1-.447.55219,11.93848,11.93848,0,0,0-1.07809,1.39362,18.1933,18.1933,0,0,0-1.28844,2.26136A14.95872,14.95872,0,0,0,526.67343,9.457a26.539,26.539,0,0,0-.447,5.0749,26.1262,26.1262,0,0,0,.447,5.0486,17.07718,17.07718,0,0,0,1.07808,3.655A11.90867,11.90867,0,0,0,529.04,25.4968q.65738.86772,1.10438,1.39362a5.93949,5.93949,0,0,1,.447.55219q0,.23666-.39442.23666h-.42072l-.73625-.63108a12.97633,12.97633,0,0,1-3.60239-5.5745A21.49878,21.49878,0,0,1,524.30689,14.53186Z"/>
    <path id="MJMATHI-73-2" data-name="MJMATHI-73" class="cls-6" d="M535.53478,13.50636a3.89672,3.89672,0,0,1,.42072-1.70916,4.32575,4.32575,0,0,1,1.47251-1.604,4.20128,4.20128,0,0,1,2.55059-.71,3.32214,3.32214,0,0,1,2.36654.71,2.2528,2.2528,0,0,1,.76254,1.57768,1.566,1.566,0,0,1-.447,1.23586,1.59305,1.59305,0,0,1-.9992.42072,1.05028,1.05028,0,0,1-.63108-.21036.85075.85075,0,0,1-.31553-.68367,1.1932,1.1932,0,0,1,.23665-.73625,2.36218,2.36218,0,0,1,.447-.47331.63634.63634,0,0,1,.34183-.15777.02324.02324,0,0,0,.0263-.02629q0-.07888-.18406-.23665a1.79613,1.79613,0,0,0-.65737-.28925,4.65266,4.65266,0,0,0-1.0255-.15777,2.2241,2.2241,0,0,0-2.44542,2.07729.95057.95057,0,0,0,.4996.92032,5.453,5.453,0,0,0,1.44622.447,5.76223,5.76223,0,0,1,1.36733.39443,2.5987,2.5987,0,0,1,1.73545,2.5243,4.00132,4.00132,0,0,1-.28924,1.47251,5.882,5.882,0,0,1-.86773,1.47251,3.80391,3.80391,0,0,1-1.65657,1.157,7.14,7.14,0,0,1-2.47171.447,4.25328,4.25328,0,0,1-2.86614-.76255,2.43275,2.43275,0,0,1-.86773-1.788,1.78831,1.78831,0,0,1,.55219-1.47251,1.8157,1.8157,0,0,1,1.157-.447,1.26873,1.26873,0,0,1,.73625.23666.97892.97892,0,0,1,.36813.81514,1.5738,1.5738,0,0,1-.47331,1.157,1.295,1.295,0,0,1-.81514.4733.20183.20183,0,0,1-.07888.0263q-.0263,0-.0263.05259a.56832.56832,0,0,0,.21036.21036,3.67113,3.67113,0,0,0,.81514.34183,5.17181,5.17181,0,0,0,3.07649-.10518,2.259,2.259,0,0,0,.99921-.73625,3.49088,3.49088,0,0,0,.447-.81514,1.98334,1.98334,0,0,0,.13147-.65737,1.23877,1.23877,0,0,0-.55219-1.10439,2.79526,2.79526,0,0,0-1.26215-.447,6.50748,6.50748,0,0,1-1.55139-.39442,2.43339,2.43339,0,0,1-1.23586-.92032A2.64673,2.64673,0,0,1,535.53478,13.50636Z"/>
    <path id="MJMAIN-2C" class="cls-6" d="M546.47342,20.18524v-.65737a1.64432,1.64432,0,0,1,.42072-1.13067,1.43721,1.43721,0,0,1,1.13067-.47331,1.71885,1.71885,0,0,1,1.31475.65737,3.63015,3.63015,0,0,1,.60478,2.31394,6.7649,6.7649,0,0,1-.23666,1.78805,8.1753,8.1753,0,0,1-.55219,1.49881,5.70288,5.70288,0,0,1-.68366,1.07808q-.36813.447-.63108.71t-.34183.23666q-.10518,0-.34183-.23666t-.23666-.34183q0-.10518.28925-.42072t.65737-.78884a5.04669,5.04669,0,0,0,.68366-1.31474,7.55306,7.55306,0,0,0,.42072-1.91952v-.31554l-.0263.02629a1.02013,1.02013,0,0,1-.13147.05259.66371.66371,0,0,0-.15777.07889.43029.43029,0,0,1-.23665.05259,1.91624,1.91624,0,0,0-.31554.02629,1.56548,1.56548,0,0,1-1.157-.447Z"/>
    <path id="MJMATHI-61" class="cls-6" d="M557.01764,16.97728a7.77045,7.77045,0,0,1,1.99841-5.04861,5.88421,5.88421,0,0,1,4.49641-2.41912A2.981,2.981,0,0,1,565.879,10.798a1.31572,1.31572,0,0,1,1.20956-.78885.94084.94084,0,0,1,.60479.21036.64755.64755,0,0,1,.26294.5259q0,.34182-.9729,4.20717t-.99921,4.36494a1.40668,1.40668,0,0,0,.18407.86772.7724.7724,0,0,0,.55219.23666,1.1425,1.1425,0,0,0,.52589-.23666,5.96236,5.96236,0,0,0,1.07809-2.5243q.15777-.52588.263-.55219a.76917.76917,0,0,1,.263-.02629h.10518q.49959,0,.4996.23665a4.17655,4.17655,0,0,1-.13148.71,8.24907,8.24907,0,0,1-.52589,1.41992,4.47968,4.47968,0,0,1-.84144,1.31474,2.59987,2.59987,0,0,1-.84143.55219,2.80333,2.80333,0,0,1-.63108.05259,2.68768,2.68768,0,0,1-1.4988-.39442,2.0186,2.0186,0,0,1-.78884-.81514l-.15777-.39442q-.02629-.0263-.10518.02629l-.10518.10518a4.61014,4.61014,0,0,1-3.15538,1.47251,3.58863,3.58863,0,0,1-2.5506-1.05179A4.43089,4.43089,0,0,1,557.01764,16.97728Zm8.36175-4.49642a2.38036,2.38036,0,0,0-.13147-.57848,2.50008,2.50008,0,0,0-.60478-.92032,1.68082,1.68082,0,0,0-1.20956-.5259,2.52338,2.52338,0,0,0-1.76176.81514,5.5021,5.5021,0,0,0-1.31474,2.12988,20.99284,20.99284,0,0,0-1.07809,4.31235v.28925a1.40168,1.40168,0,0,1-.02629.31553,2.20831,2.20831,0,0,0,.47331,1.63028,1.69344,1.69344,0,0,0,1.13067.47331,2.96916,2.96916,0,0,0,1.97211-.86773,4.42155,4.42155,0,0,0,1.157-1.341q.05259-.10518.71-2.81354T565.37939,12.48086Z"/>
    <path id="MJMAIN-29-2" data-name="MJMAIN-29" class="cls-6" d="M571.63756,1.41075l.10518-.0263h.57848l.73626.63108A12.97627,12.97627,0,0,1,576.65987,7.59a21.49878,21.49878,0,0,1,1.13067,6.94183,21.95244,21.95244,0,0,1-.26294,3.44462,22.60817,22.60817,0,0,1-.60479,2.81355,11.8432,11.8432,0,0,1-.9729,2.31394q-.63108,1.157-.99921,1.76175a7.99865,7.99865,0,0,1-1.07808,1.341q-.71.73625-.84144.86773t-.60478.4996l-.10518.10518h-.60478a.15452.15452,0,0,1-.13147-.07889.619.619,0,0,1-.07889-.23665q.0263-.0263.28925-.34183,4.07569-4.23346,4.07569-12.49t-4.07569-12.49q-.26295-.31553-.28925-.34183A.309.309,0,0,1,571.63756,1.41075Z"/>
  </g>
  <text class="cls-10" transform="translate(0.27321 155.88311)">On-policy <tspan class="cls-11" x="66.83203" y="0">v</tspan><tspan x="74.11816" y="0">alue estimation</tspan></text>
  <g>
    <path id="MJMATHI-3C0-3" data-name="MJMATHI-3C0" class="cls-6" d="M302.49433,25.75185a.86781.86781,0,0,1-.9962-.9669v-.3223l.3809-.8204a56.77611,56.77611,0,0,0,3.1937-7.9989l.2344-.7032h-.9376a9.76845,9.76845,0,0,0-1.5822.0879,3.16983,3.16983,0,0,0-1.1427.5567,3.82764,3.82764,0,0,0-.6446.5274,7.54927,7.54927,0,0,0-.5567.6153,3.61022,3.61022,0,0,0-.2637.3516,1.67031,1.67031,0,0,1-.4395.0293q-.55671,0-.5567-.293a3.53737,3.53737,0,0,1,.5567-1.0255,9.96362,9.96362,0,0,1,1.6115-1.8166,3.98344,3.98344,0,0,1,2.0803-1.1134q.20509-.05859,6.5925-.0586,4.688,0,4.8052.0293a.8.8,0,0,1,.586.8204,1.22371,1.22371,0,0,1-.9376,1.2306,15.88982,15.88982,0,0,1-2.0217.0586h-1.8752l-.0879.4981a21.99218,21.99218,0,0,0-.3516,3.4867,12.76649,12.76649,0,0,0,.2637,2.7249,10.58554,10.58554,0,0,0,.5567,1.8752,3.417,3.417,0,0,1,.293.8204,1.35789,1.35789,0,0,1-.4102.9376,1.37818,1.37818,0,0,1-1.0548.4395,1.35023,1.35023,0,0,1-.5274-.0879q-.20511-.0879-.4688-.7032a8.4637,8.4637,0,0,1-.4688-1.758q-.02931-.2637-.0293-1.2892a19.445,19.445,0,0,1,.2637-3.0765q.2637-1.64079.5274-2.6956l.293-1.172h-2.8714l-.0293.1172q0,.0879-.5567,2.3147t-1.2599,4.7173a21.835,21.835,0,0,1-.9083,2.8421A1.232,1.232,0,0,1,302.49433,25.75185Z"/>
    <path id="MJMAIN-31-3" data-name="MJMAIN-31" class="cls-6" d="M319.73541,17.86854l-.26929.10358a5.93735,5.93735,0,0,1-.82861.20715,9.54878,9.54878,0,0,1-1.20147.145h-.39359v-.95289h.39359a6.73654,6.73654,0,0,0,1.80221-.31073,4.89213,4.89213,0,0,0,1.16005-.49716,5.31042,5.31042,0,0,0,.58-.45573q.04143-.06214.24858-.06215a.577.577,0,0,1,.35216.12429v6.19382l.02071,6.21453a.82029.82029,0,0,0,.24858.18643,2.4567,2.4567,0,0,0,.49717.08286q.39358.04143,1.28433.04143h.53859v.9529h-.22786q-.435-.06215-3.2937-.06215-2.81726,0-3.25227.06215H317.146V28.889h1.32576a4.97541,4.97541,0,0,0,.51788-.02071,2.02837,2.02837,0,0,0,.33144-.06215,1.24139,1.24139,0,0,1,.16572-.04143q.02071,0,.12429-.10357t.12429-.08286Z"/>
    <path id="MJMAIN-28-3" data-name="MJMAIN-28" class="cls-6" d="M331.38413,18.10455a24.09879,24.09879,0,0,1,.293-3.8383,26.85168,26.85168,0,0,1,.6739-3.1351,12.269,12.269,0,0,1,1.0841-2.5784q.7032-1.2599,1.1134-1.9631a7.78191,7.78191,0,0,1,1.2306-1.5236q.82039-.82039.9669-.9962a5.2799,5.2799,0,0,1,.7325-.6153h.4981q.41019,0,.4102.2637a2.36768,2.36768,0,0,1-.4981.6153,13.30243,13.30243,0,0,0-1.2013,1.5529,20.271,20.271,0,0,0-1.4357,2.5198,16.66838,16.66838,0,0,0-1.2306,4.0434,29.57206,29.57206,0,0,0-.4981,5.6549,29.112,29.112,0,0,0,.4981,5.6256,19.02842,19.02842,0,0,0,1.2013,4.0727,13.26925,13.26925,0,0,0,1.4357,2.5198q.73249.9669,1.2306,1.5529a6.62108,6.62108,0,0,1,.4981.6153q0,.2637-.4395.2637h-.4688l-.8204-.7032a14.45915,14.45915,0,0,1-4.0141-6.2116A23.9555,23.9555,0,0,1,331.38413,18.10455Z"/>
    <path id="MJMATHI-73-3" data-name="MJMATHI-73" class="cls-6" d="M343.86593,16.96185a4.342,4.342,0,0,1,.4688-1.9045,4.82031,4.82031,0,0,1,1.6408-1.7873,4.68153,4.68153,0,0,1,2.8421-.7911,3.70183,3.70183,0,0,1,2.637.7911,2.51036,2.51036,0,0,1,.8497,1.758,1.74494,1.74494,0,0,1-.4981,1.3771,1.77512,1.77512,0,0,1-1.1134.4688,1.17026,1.17026,0,0,1-.7032-.2344.94792.94792,0,0,1-.3516-.7618,1.32958,1.32958,0,0,1,.2637-.8204,2.632,2.632,0,0,1,.4981-.5274.709.709,0,0,1,.3809-.1758.0259.0259,0,0,0,.0293-.0293q0-.0879-.2051-.2637a2.00146,2.00146,0,0,0-.7325-.3223,5.1851,5.1851,0,0,0-1.1427-.1758,2.47828,2.47828,0,0,0-2.7249,2.3147,1.05919,1.05919,0,0,0,.5567,1.0255,6.07617,6.07617,0,0,0,1.6115.4981,6.42149,6.42149,0,0,1,1.5236.4395,2.89572,2.89572,0,0,1,1.9338,2.8128,4.45875,4.45875,0,0,1-.3223,1.6408,6.55407,6.55407,0,0,1-.9669,1.6408,4.23861,4.23861,0,0,1-1.8459,1.2892,7.95582,7.95582,0,0,1-2.7542.4981,4.73933,4.73933,0,0,1-3.1937-.8497,2.71074,2.71074,0,0,1-.9669-1.9924,1.99266,1.99266,0,0,1,.6153-1.6408,2.02317,2.02317,0,0,1,1.2892-.4981,1.41374,1.41374,0,0,1,.8204.2637,1.09083,1.09083,0,0,1,.4102.9083,1.75365,1.75365,0,0,1-.5274,1.2892,1.443,1.443,0,0,1-.9083.5274.2248.2248,0,0,1-.0879.0293q-.02931,0-.0293.0586a.63313.63313,0,0,0,.2344.2344,4.09011,4.09011,0,0,0,.9083.3809,5.76282,5.76282,0,0,0,3.4281-.1172,2.51708,2.51708,0,0,0,1.1134-.8204,3.88959,3.88959,0,0,0,.4981-.9083,2.21012,2.21012,0,0,0,.1465-.7325,1.38035,1.38035,0,0,0-.6153-1.2306,3.1147,3.1147,0,0,0-1.4064-.4981,7.25136,7.25136,0,0,1-1.7287-.4395,2.71147,2.71147,0,0,1-1.3771-1.0255A2.94921,2.94921,0,0,1,343.86593,16.96185Z"/>
    <path id="MJMAIN-2C-2" data-name="MJMAIN-2C" class="cls-6" d="M356.084,24.40405v-.7325a1.83223,1.83223,0,0,1,.4688-1.2599,1.60147,1.60147,0,0,1,1.2599-.5274,1.91532,1.91532,0,0,1,1.465.7325,4.04506,4.04506,0,0,1,.6739,2.5784,7.53812,7.53812,0,0,1-.2637,1.9924,9.10963,9.10963,0,0,1-.6153,1.6701,6.35434,6.35434,0,0,1-.7618,1.2013q-.41021.49811-.7032.7911t-.3809.2637q-.11721,0-.3809-.2637t-.2637-.3809q0-.11719.3223-.4688t.7325-.879a5.62332,5.62332,0,0,0,.7618-1.465,8.41645,8.41645,0,0,0,.4688-2.1389v-.3516l-.0293.0293a1.13557,1.13557,0,0,1-.1465.0586.74.74,0,0,0-.1758.0879.47946.47946,0,0,1-.2637.0586,2.1356,2.1356,0,0,0-.3516.0293,1.74439,1.74439,0,0,1-1.2892-.4981Z"/>
    <path id="MJMATHI-61-2" data-name="MJMATHI-61" class="cls-6" d="M367.804,20.82945a8.65849,8.65849,0,0,1,2.2268-5.6256,6.55674,6.55674,0,0,1,5.0103-2.6956,3.32169,3.32169,0,0,1,2.637,1.4357,1.46608,1.46608,0,0,1,1.3478-.879,1.04841,1.04841,0,0,1,.6739.2344.72155.72155,0,0,1,.293.586q0,.38091-1.0841,4.688t-1.1134,4.8638a1.56743,1.56743,0,0,0,.2051.9669.86066.86066,0,0,0,.6153.2637,1.273,1.273,0,0,0,.586-.2637,6.64382,6.64382,0,0,0,1.2013-2.8128q.1758-.586.293-.6153a.85707.85707,0,0,1,.293-.0293h.1172q.55669,0,.5567.2637a4.65436,4.65436,0,0,1-.1465.7911,9.19231,9.19231,0,0,1-.586,1.5822,4.99174,4.99174,0,0,1-.9376,1.465,2.89706,2.89706,0,0,1-.9376.6153,3.12353,3.12353,0,0,1-.7032.0586,2.99484,2.99484,0,0,1-1.6701-.4395,2.24932,2.24932,0,0,1-.879-.9083l-.1758-.4395q-.02931-.0293-.1172.0293l-.1172.1172a5.137,5.137,0,0,1-3.516,1.6408,3.99868,3.99868,0,0,1-2.8421-1.172A4.93725,4.93725,0,0,1,367.804,20.82945Zm9.3174-5.0103a2.65283,2.65283,0,0,0-.1465-.6446,2.78581,2.78581,0,0,0-.6739-1.0255,1.873,1.873,0,0,0-1.3478-.586,2.81173,2.81173,0,0,0-1.9631.9083,6.13082,6.13082,0,0,0-1.465,2.3733,23.39146,23.39146,0,0,0-1.2013,4.8052v.3223a1.562,1.562,0,0,1-.0293.3516,2.4607,2.4607,0,0,0,.5274,1.8166,1.887,1.887,0,0,0,1.2599.5274,3.30857,3.30857,0,0,0,2.1975-.9669,4.927,4.927,0,0,0,1.2892-1.4943q.05859-.1172.7911-3.1351T377.12143,15.81915Z"/>
    <path id="MJMAIN-29-3" data-name="MJMAIN-29" class="cls-6" d="M384.12413,3.48385l.1172-.0293h.6446l.8204.7032a14.45945,14.45945,0,0,1,4.0141,6.2116,23.95586,23.95586,0,0,1,1.2599,7.7352,24.46054,24.46054,0,0,1-.293,3.8383,25.19336,25.19336,0,0,1-.6739,3.1351,13.19678,13.19678,0,0,1-1.0841,2.5784q-.7032,1.28921-1.1134,1.9631a8.91286,8.91286,0,0,1-1.2013,1.4943q-.7911.82041-.9376.9669t-.6739.5567l-.1172.1172h-.6739a.17217.17217,0,0,1-.1465-.0879.68964.68964,0,0,1-.0879-.2637q.0293-.02929.3223-.3809,4.54149-4.71729,4.5415-13.9175t-4.5415-13.9175q-.293-.3516-.3223-.3809A.34438.34438,0,0,1,384.12413,3.48385Z"/>
  </g>
</svg>
