<svg id="Layer_1" data-name="Layer 1" xmlns="http://www.w3.org/2000/svg" viewBox="0 0 795.97746 143.02764">
  <defs>
    <style>
      .cls-1 {
        fill: #e7ebe8;
      }

      .cls-2 {
        fill: #58595b;
      }

      .cls-3 {
        fill: #fff;
      }

      .cls-4 {
        fill: #b2b3c3;
      }

      .cls-5, .cls-9 {
        fill: #70a8da;
      }

      .cls-5, .cls-8 {
        opacity: 0.5;
      }

      .cls-6 {
        fill: #010101;
      }

      .cls-7, .cls-8 {
        fill: #ef4136;
      }

      .cls-10 {
        font-size: 15.2726px;
        font-family: ArialMT, Arial;
      }

      .cls-10, .cls-11 {
        fill: #6d6e71;
      }
    </style>
  </defs>
  <title>on-policy-value</title>
  <rect class="cls-1" x="302.69082" y="60.3672" width="79.83102" height="79.83102"/>
  <polygon class="cls-2" points="313.198 100.281 321.464 116.877 321.464 83.685 313.198 100.281"/>
  <polygon class="cls-3" points="342.526 129.898 359.122 121.632 325.93 121.632 342.526 129.898"/>
  <polygon class="cls-4" points="372.015 100.299 363.749 83.703 363.749 116.896 372.015 100.299"/>
  <polygon class="cls-4" points="342.526 70.839 325.93 79.105 359.122 79.105 342.526 70.839"/>
  <rect class="cls-1" x="713.57229" y="60.53618" width="79.83102" height="79.83102"/>
  <circle class="cls-3" cx="754.33443" cy="101.44873" r="25.28539"/>
  <circle class="cls-5" cx="754.33225" cy="101.47891" r="25.28539"/>
  <g>
    <path id="MJMATHI-56" class="cls-6" d="M713.08911,20.6214a1.20062,1.20062,0,0,1,.33-.88849h.27924q1.06619.07615,2.66547.07616,2.99548,0,3.52858-.07616h.25385q.15231.15231.15232.22847t-.05078.45694a1.39824,1.39824,0,0,1-.22846.48232h-.5331q-.55848.05078-.76156.05077-.73619.12693-.81234.38078,0,.05078.73618,6.37175t.76157,6.37174l1.85313-2.97009q1.85314-2.9701,3.70628-5.991t1.9039-3.12241a.755.755,0,0,0,.10155-.38078q0-.60924-1.117-.71079-.45694,0-.45694-.27924,0-.02538.05077-.33a1.36611,1.36611,0,0,1,.15231-.45694.403.403,0,0,1,.33-.10154h.30463q.25384,0,.8631.02539t1.62467.02538q1.7516,0,2.20853-.05077h.1777q.17771.1777.1777.27924a1.55275,1.55275,0,0,1-.22847.81233.72629.72629,0,0,1-.43155.07616q-.33.02538-.60925.05077a1.88771,1.88771,0,0,0-.5331.12693q-.25385.10153-.40616.1777a1.58932,1.58932,0,0,0-.30463.20308,1.42,1.42,0,0,1-.25385.1777.55176.55176,0,0,0-.20309.22847q-.10153.17769-.17769.1777l-4.89939,7.86948q-4.56939,7.38717-4.7217,7.56486-.07615.05078-.17769.12693l-.45694.02539h-.1777q-.45693,0-.45694-.1777-.07616-.15231-.99-8.12334-.96465-8.07258-.99-8.14873-.12693-.27924-1.5739-.27924h-.43155A.35167.35167,0,0,1,713.08911,20.6214Z"/>
    <g>
      <path id="MJMATHI-3C0" class="cls-6" d="M735.08113,26.80979a.53158.53158,0,0,1-.61022-.59227V26.0201l.23332-.50253a34.77859,34.77859,0,0,0,1.95628-4.89967l.14358-.43074h-.57432a5.98319,5.98319,0,0,0-.96917.05384,1.94154,1.94154,0,0,0-.69995.341,2.34451,2.34451,0,0,0-.39485.32306,4.62474,4.62474,0,0,0-.341.3769,2.21227,2.21227,0,0,0-.16153.21537,1.02368,1.02368,0,0,1-.26921.01794q-.341,0-.341-.17947a2.16691,2.16691,0,0,1,.341-.62816,6.10293,6.10293,0,0,1,.98711-1.11275,2.44,2.44,0,0,1,1.27428-.682q.12563-.0359,4.03819-.03589,2.8716,0,2.94339.01795a.49.49,0,0,1,.359.50253.74957.74957,0,0,1-.57432.75379,9.73316,9.73316,0,0,1-1.23838.0359h-1.14864l-.05384.3051a13.47124,13.47124,0,0,0-.21537,2.13576,7.82048,7.82048,0,0,0,.16152,1.66912,6.4852,6.4852,0,0,0,.341,1.14864,2.09257,2.09257,0,0,1,.17947.50253.83176.83176,0,0,1-.25126.57432.84424.84424,0,0,1-.64612.26921.82716.82716,0,0,1-.32305-.05384q-.12563-.05385-.28716-.43074a5.18405,5.18405,0,0,1-.28716-1.07685q-.018-.16153-.018-.78969a11.91025,11.91025,0,0,1,.16153-1.88449q.16152-1.00506.32305-1.65117l.17948-.7179h-1.75886l-.01794.07179q0,.05384-.341,1.41785t-.77174,2.88955a13.37623,13.37623,0,0,1-.55637,1.74091A.75464.75464,0,0,1,735.08113,26.80979Z"/>
      <path id="MJMAIN-31" class="cls-6" d="M745.64594,21.97952l-.165.06347a3.63919,3.63919,0,0,1-.50771.12692,5.84978,5.84978,0,0,1-.73618.08885h-.24116V21.6749h.24116a4.128,4.128,0,0,0,1.10427-.19039,2.99776,2.99776,0,0,0,.71079-.30463,3.25366,3.25366,0,0,0,.3554-.27924q.02538-.03807.15231-.03808a.35354.35354,0,0,1,.21578.07616v3.79512l.01269,3.80782a.50255.50255,0,0,0,.15231.11423,1.50447,1.50447,0,0,0,.30463.05077q.24115.0254.78695.02539h.33v.58386h-.13962q-.26655-.03807-2.01814-.03807-1.72621,0-1.99276.03807h-.15231v-.58386h.81233a3.04909,3.04909,0,0,0,.31732-.01269,1.24414,1.24414,0,0,0,.20308-.03808.7599.7599,0,0,1,.10154-.02539q.0127,0,.07616-.06346t.07616-.05077Z"/>
    </g>
    <path id="MJMAIN-28" class="cls-6" d="M756.01589,30.72481a20.88066,20.88066,0,0,1,.25385-3.3255,23.26588,23.26588,0,0,1,.58387-2.71624,10.63,10.63,0,0,1,.93926-2.23392q.60925-1.09156.96465-1.70082a6.74229,6.74229,0,0,1,1.06618-1.32q.7108-.71081.83772-.86311a4.57534,4.57534,0,0,1,.63464-.53309h.43155q.3554,0,.3554.22847a2.05132,2.05132,0,0,1-.43155.53309,11.52366,11.52366,0,0,0-1.04081,1.34543,17.56288,17.56288,0,0,0-1.24388,2.18315,14.44176,14.44176,0,0,0-1.06619,3.50319,25.62142,25.62142,0,0,0-.43155,4.89939,25.223,25.223,0,0,0,.43155,4.874,16.48662,16.48662,0,0,0,1.0408,3.52858,11.497,11.497,0,0,0,1.24389,2.18314q.63464.83772,1.06619,1.34543a5.73234,5.73234,0,0,1,.43155.5331q0,.22846-.38078.22847h-.40617l-.71079-.60926a12.5275,12.5275,0,0,1-3.47781-5.38171A20.75531,20.75531,0,0,1,756.01589,30.72481Z"/>
    <path id="MJMATHI-73" class="cls-6" d="M766.85547,29.73477a3.76194,3.76194,0,0,1,.40617-1.65005,4.17636,4.17636,0,0,1,1.42158-1.54851,4.05608,4.05608,0,0,1,2.46239-.68541,3.20722,3.20722,0,0,1,2.28469.68541,2.175,2.175,0,0,1,.73618,1.52312,1.5118,1.5118,0,0,1-.43155,1.19312,1.53807,1.53807,0,0,1-.96465.40617,1.01395,1.01395,0,0,1-.60925-.20309.82131.82131,0,0,1-.30463-.66,1.15194,1.15194,0,0,1,.22847-.71079,2.28044,2.28044,0,0,1,.43155-.45694.61437.61437,0,0,1,.33-.15231.02244.02244,0,0,0,.02539-.02539q0-.07615-.1777-.22846a1.73364,1.73364,0,0,0-.63463-.27924,4.492,4.492,0,0,0-.99-.15232,2.14716,2.14716,0,0,0-2.36084,2.00545.91769.91769,0,0,0,.48232.88849,5.26476,5.26476,0,0,0,1.3962.43156,5.56249,5.56249,0,0,1,1.32.38078,2.50883,2.50883,0,0,1,1.67544,2.437,3.86294,3.86294,0,0,1-.27924,1.42158,5.67843,5.67843,0,0,1-.83772,1.42159,3.67233,3.67233,0,0,1-1.59928,1.117,6.89294,6.89294,0,0,1-2.38623.43155,4.10613,4.10613,0,0,1-2.767-.73618,2.34858,2.34858,0,0,1-.83772-1.72621,1.72641,1.72641,0,0,1,.53309-1.42158,1.75286,1.75286,0,0,1,1.117-.43155,1.22484,1.22484,0,0,1,.71079.22846.94509.94509,0,0,1,.3554.78695,1.51933,1.51933,0,0,1-.45694,1.117,1.25017,1.25017,0,0,1-.787.45694.19493.19493,0,0,1-.07615.02539q-.0254,0-.02539.05077a.54867.54867,0,0,0,.20308.20308,3.5444,3.5444,0,0,0,.787.33,4.99288,4.99288,0,0,0,2.9701-.10154,2.18091,2.18091,0,0,0,.96465-.71079,3.37036,3.37036,0,0,0,.43155-.78695,1.91471,1.91471,0,0,0,.12693-.63464,1.19592,1.19592,0,0,0-.5331-1.06619,2.6985,2.6985,0,0,0-1.2185-.43155,6.28264,6.28264,0,0,1-1.49774-.38078,2.34926,2.34926,0,0,1-1.19312-.88849A2.55524,2.55524,0,0,1,766.85547,29.73477Z"/>
    <path id="MJMAIN-29" class="cls-6" d="M776.95888,18.05747l.10154-.02538h.55848l.71079.60925a12.52745,12.52745,0,0,1,3.4778,5.38171,20.75506,20.75506,0,0,1,1.09158,6.70176,21.19181,21.19181,0,0,1-.25386,3.32549,21.82446,21.82446,0,0,1-.58386,2.71624,11.43413,11.43413,0,0,1-.93926,2.23392q-.60925,1.117-.96465,1.70082a7.72166,7.72166,0,0,1-1.0408,1.29466q-.68541.71079-.81234.83772t-.58386.48232l-.10154.10155H777.035a.14919.14919,0,0,1-.12693-.07616.59768.59768,0,0,1-.07615-.22847q.02538-.02538.27924-.33,3.93474-4.087,3.93474-12.05808t-3.93474-12.05809q-.25386-.30462-.27924-.33A.29836.29836,0,0,1,776.95888,18.05747Z"/>
  </g>
  <path id="MJSZ2-2211" class="cls-6" d="M219.01972,3.57167q.11391-.07593,22.971-.07594h22.85711L267.05,8.6215q2.24014,5.23967,2.392,5.54341h-1.51875l-.26578-.53156a12.82785,12.82785,0,0,0-2.12624-2.96155,15.93714,15.93714,0,0,0-4.21451-2.92358,20.78978,20.78978,0,0,0-5.35358-1.63265,44.16728,44.16728,0,0,0-5.73326-.64547q-2.69577-.11391-6.94826-.15187H226.27173l.30375.41765Q244.15494,29.77,244.23088,29.99782a.3423.3423,0,0,1,0,.22782q-.11391.1139-10.02371,11.46652L224.18345,53.08274q0,.038,8.01138.038h5.35357q3.37922,0,4.86.038,5.16372,0,8.35309-.18985a48.7731,48.7731,0,0,0,6.34076-.79734,17.48524,17.48524,0,0,0,5.35357-1.86046,14.23855,14.23855,0,0,0,3.91077-3.30327,12.03225,12.03225,0,0,0,1.55671-2.73374H269.442q0,.038-.26578.79734t-.94922,2.468q-.68343,1.70859-1.177,3.18937l-2.20218,5.88513-22.81914.038q-22.8571,0-22.971-.07594a.32255.32255,0,0,1-.22781-.34171.58275.58275,0,0,1,.07594-.22782l20.23727-23.16085q0-.038-1.253-1.70859t-3.9867-5.46748q-2.73375-3.79686-4.93592-6.75841L218.86785,5.05245l-.038-.56953Q218.82988,3.68558,219.01972,3.57167Z"/>
  <path id="MJMAIN-22C5" class="cls-6" d="M443.27628,29.03859a2.24942,2.24942,0,0,1,.64547-1.59468,2.14942,2.14942,0,0,1,1.63265-.68344,2.32531,2.32531,0,0,1,1.59468.6075,2.19094,2.19094,0,0,1,.7214,1.63265,2.29513,2.29513,0,0,1-.64547,1.63265,2.14938,2.14938,0,0,1-1.63265.68344,2.21276,2.21276,0,0,1-1.63265-.64547A2.34782,2.34782,0,0,1,443.27628,29.03859Z"/>
  <rect class="cls-1" x="492.29089" y="60.37858" width="79.83102" height="79.83102"/>
  <polygon class="cls-3" points="561.575 100.33 553.309 83.733 553.309 116.926 561.575 100.33"/>
  <polygon class="cls-3" points="502.759 100.292 511.025 116.889 511.025 83.696 502.759 100.292"/>
  <polygon class="cls-5" points="502.798 100.292 511.064 116.889 511.064 83.696 502.798 100.292"/>
  <polygon class="cls-7" points="532.126 129.909 548.722 121.643 515.53 121.643 532.126 129.909"/>
  <polygon class="cls-8" points="561.615 100.311 553.349 83.715 553.349 116.907 561.615 100.311"/>
  <polygon class="cls-9" points="532.126 70.85 515.53 79.116 548.722 79.116 532.126 70.85"/>
  <g>
    <path id="MJMATHI-51" class="cls-6" d="M498.55183,38.74784q0-.87152.02641-1.32048a2.60955,2.60955,0,0,1,.05282-.50179v-.10564l-.39614.10564a9.60734,9.60734,0,0,1-2.21842.29051,6.481,6.481,0,0,1-6.65524-5.88936q-.0264-.21128-.0264-1.13562a10.92548,10.92548,0,0,1,1.26766-5.12347,14.79152,14.79152,0,0,1,3.40685-4.30478,10.301,10.301,0,0,1,6.576-2.7202q1.00356,0,1.26766.02641a6.28753,6.28753,0,0,1,4.11991,2.27123,7.446,7.446,0,0,1,1.58458,4.80656,12.01636,12.01636,0,0,1-3.90863,8.66238,12.66585,12.66585,0,0,1-3.45967,2.40328l-.449.21128v.13205q0,.0264.132.71306a2.07823,2.07823,0,0,0,.5546,1.1092,1.64429,1.64429,0,0,0,1.21485.42256,3.0768,3.0768,0,0,0,1.76944-.581,2.68691,2.68691,0,0,0,1.10921-1.50536q.15846-.36973.34333-.36973a.27162.27162,0,0,1,.2905.23769,3.95024,3.95024,0,0,1-.26409.95074q-.2641.73947-.73947,1.743a4.58465,4.58465,0,0,1-1.42613,1.71663,3.60393,3.60393,0,0,1-2.00713.76588q-2.16559,0-2.1656-2.82583Zm6.2591-14.47251a7.37189,7.37189,0,0,0-.39615-2.53532,3.47163,3.47163,0,0,0-1.08279-1.611,5.95476,5.95476,0,0,0-1.32049-.79229,3.6048,3.6048,0,0,0-1.39971-.26409,5.76152,5.76152,0,0,0-2.58815.66024,9.50841,9.50841,0,0,0-4.33119,4.6481,14.87187,14.87187,0,0,0-1.6374,6.5496,5.45442,5.45442,0,0,0,1.42613,4.14632,2.48024,2.48024,0,0,0,.76588.55461v-.21128a2.76223,2.76223,0,0,1,.87152-1.95432,2.871,2.871,0,0,1,2.06-.92434,2.136,2.136,0,0,1,1.13562.29051,1.8262,1.8262,0,0,1,.71306.79229,4.3482,4.3482,0,0,1,.31691.84511q.07923.34333.15846.71306l.34333-.23768a9.78074,9.78074,0,0,0,2.87865-3.19558,14.41828,14.41828,0,0,0,1.6374-3.935A15.45844,15.45844,0,0,0,504.81093,24.27533ZM496.307,36.15969a5.24208,5.24208,0,0,0,2.37687-.5546l-.02641-.2641q-.10563-1.45253-.97716-1.743a3.23335,3.23335,0,0,0-.50178-.05282h-.15846a.15293.15293,0,0,1-.10564-.02641,1.60848,1.60848,0,0,0-1.08279.5282,1.73067,1.73067,0,0,0-.581,1.21484Q495.25062,36.15969,496.307,36.15969Z"/>
    <g>
      <path id="MJMATHI-3C0-2" data-name="MJMATHI-3C0" class="cls-6" d="M511.36909,25.95966a.553.553,0,0,1-.63484-.61616v-.20539l.24273-.5228a36.181,36.181,0,0,0,2.03521-5.09736l.14937-.44812h-.59749a6.22571,6.22571,0,0,0-1.00827.056,2.02024,2.02024,0,0,0-.72819.35476,2.43959,2.43959,0,0,0-.41078.33609,4.81226,4.81226,0,0,0-.35476.39211,2.29847,2.29847,0,0,0-.168.22406,1.06462,1.06462,0,0,1-.28008.01867q-.35476,0-.35476-.18672a2.25424,2.25424,0,0,1,.35476-.6535,6.34938,6.34938,0,0,1,1.02694-1.15765,2.53853,2.53853,0,0,1,1.32569-.70952q.1307-.03734,4.20112-.03734,2.98746,0,3.06215.01867a.50977.50977,0,0,1,.37343.52281.7798.7798,0,0,1-.59749.7842,10.12475,10.12475,0,0,1-1.28835.03735h-1.195l-.056.31742a14.01491,14.01491,0,0,0-.22406,2.22192,8.13544,8.13544,0,0,0,.168,1.73646,6.74613,6.74613,0,0,0,.35476,1.195,2.17727,2.17727,0,0,1,.18672.52281.86532.86532,0,0,1-.26141.59749.8782.8782,0,0,1-.67217.28007.8605.8605,0,0,1-.33609-.056q-.13071-.056-.29875-.44812a5.394,5.394,0,0,1-.29875-1.1203q-.01866-.168-.01867-.82155a12.39136,12.39136,0,0,1,.168-1.96052q.168-1.04562.33609-1.7178l.18671-.74686H513.9271l-.01867.07468q0,.056-.35476,1.47506t-.80288,3.00614a13.91569,13.91569,0,0,1-.57882,1.81115A.78509.78509,0,0,1,511.36909,25.95966Z"/>
      <path id="MJMAIN-31-2" data-name="MJMAIN-31" class="cls-6" d="M522.36016,20.93451l-.17166.066a3.78327,3.78327,0,0,1-.5282.132,6.08649,6.08649,0,0,1-.76588.09244h-.25089v-.60743h.25089a4.294,4.294,0,0,0,1.14882-.19807,3.11887,3.11887,0,0,0,.73948-.31691,3.38655,3.38655,0,0,0,.36973-.29051q.02642-.03962.15846-.03962a.36776.36776,0,0,1,.22448.07923V23.8l.01321,3.96145a.52292.52292,0,0,0,.15845.11885,1.56681,1.56681,0,0,0,.31692.05282q.25089.0264.8187.02641h.34333v.60742h-.14526q-.27729-.03961-2.09957-.03962-1.79586,0-2.07316.03962h-.15845v-.60742h.84511a3.172,3.172,0,0,0,.33012-.01321,1.29321,1.29321,0,0,0,.21127-.03961.79114.79114,0,0,1,.10564-.02641q.01322,0,.07923-.066t.07923-.05282Z"/>
    </g>
    <path id="MJMAIN-28-2" data-name="MJMAIN-28" class="cls-6" d="M533.14852,30.03265a21.72275,21.72275,0,0,1,.26409-3.45967,24.20651,24.20651,0,0,1,.60742-2.82584,11.05938,11.05938,0,0,1,.97716-2.32405q.63384-1.13562,1.00357-1.76945a7.01468,7.01468,0,0,1,1.10921-1.3733q.73947-.73947.87152-.89793a4.75939,4.75939,0,0,1,.66024-.55461h.449q.36973,0,.36974.23769a2.13407,2.13407,0,0,1-.449.55461,11.98855,11.98855,0,0,0-1.08279,1.39971,18.27009,18.27009,0,0,0-1.29408,2.27123,15.02483,15.02483,0,0,0-1.1092,3.64454,26.655,26.655,0,0,0-.449,5.09707,26.24045,26.24045,0,0,0,.449,5.07065,17.15212,17.15212,0,0,0,1.08279,3.671,11.961,11.961,0,0,0,1.29408,2.27123q.66024.87152,1.1092,1.39971a5.96537,5.96537,0,0,1,.449.55461q0,.23769-.39615.23769h-.42255l-.73947-.63384a13.033,13.033,0,0,1-3.61813-5.59885A21.5925,21.5925,0,0,1,533.14852,30.03265Z"/>
    <path id="MJMATHI-73-2" data-name="MJMATHI-73" class="cls-6" d="M544.42545,29.00267A3.91377,3.91377,0,0,1,544.848,27.286a4.34493,4.34493,0,0,1,1.479-1.611,4.21963,4.21963,0,0,1,2.56173-.71306,3.33664,3.33664,0,0,1,2.37688.71306,2.2627,2.2627,0,0,1,.76588,1.58458,1.57277,1.57277,0,0,1-.449,1.24125,1.6,1.6,0,0,1-1.00357.42256,1.05488,1.05488,0,0,1-.63383-.21128.8544.8544,0,0,1-.31691-.68665,1.19841,1.19841,0,0,1,.23768-.73947,2.37261,2.37261,0,0,1,.449-.47538.63916.63916,0,0,1,.34332-.15845.02334.02334,0,0,0,.02641-.02641q0-.07923-.18486-.23769a1.80408,1.80408,0,0,0-.66025-.29051,4.67317,4.67317,0,0,0-1.03-.15846,2.23381,2.23381,0,0,0-2.4561,2.08637.95474.95474,0,0,0,.50178.92434,5.47713,5.47713,0,0,0,1.45253.449,5.78785,5.78785,0,0,1,1.37331.39615,2.61005,2.61005,0,0,1,1.743,2.53533,4.01883,4.01883,0,0,1-.2905,1.47894,5.90754,5.90754,0,0,1-.87152,1.47894,3.82057,3.82057,0,0,1-1.66381,1.162,7.17114,7.17114,0,0,1-2.48251.449,4.27185,4.27185,0,0,1-2.87866-.76588,2.44342,2.44342,0,0,1-.87152-1.79586,1.79608,1.79608,0,0,1,.55461-1.47894,1.82353,1.82353,0,0,1,1.162-.449,1.2743,1.2743,0,0,1,.73947.23768.9832.9832,0,0,1,.36974.8187,1.5807,1.5807,0,0,1-.47537,1.162,1.30063,1.30063,0,0,1-.81871.47537.20262.20262,0,0,1-.07922.02641q-.02641,0-.02641.05282a.57072.57072,0,0,0,.21127.21128,3.68784,3.68784,0,0,0,.8187.34333,5.19452,5.19452,0,0,0,3.08994-.10564,2.26878,2.26878,0,0,0,1.00356-.73947,3.50584,3.50584,0,0,0,.449-.8187,1.992,1.992,0,0,0,.13205-.66025,1.24416,1.24416,0,0,0-.55461-1.1092,2.80737,2.80737,0,0,0-1.26766-.449,6.536,6.536,0,0,1-1.55817-.39614,2.444,2.444,0,0,1-1.24126-.92434A2.65831,2.65831,0,0,1,544.42545,29.00267Z"/>
    <path id="MJMAIN-2C" class="cls-6" d="M555.41188,35.71073v-.66025a1.6515,1.6515,0,0,1,.42255-1.13561,1.44348,1.44348,0,0,1,1.13562-.47538,1.72633,1.72633,0,0,1,1.32048.66025,3.64592,3.64592,0,0,1,.60742,2.324,6.795,6.795,0,0,1-.23768,1.79586,8.21114,8.21114,0,0,1-.55461,1.50535,5.72683,5.72683,0,0,1-.68665,1.08279q-.36973.449-.63383.71307t-.34333.23768q-.10563,0-.34332-.23768t-.23769-.34333q0-.10564.29051-.42255t.66024-.7923a5.06837,5.06837,0,0,0,.68665-1.32048,7.5861,7.5861,0,0,0,.42256-1.92791v-.31691l-.02641.02641a1.02654,1.02654,0,0,1-.13205.05282.66608.66608,0,0,0-.15846.07923.43222.43222,0,0,1-.23769.05282,1.92406,1.92406,0,0,0-.31691.02641,1.57234,1.57234,0,0,1-1.162-.449Z"/>
    <path id="MJMATHI-61" class="cls-6" d="M566.00216,32.48875a7.80434,7.80434,0,0,1,2.00713-5.07066,5.90991,5.90991,0,0,1,4.51606-2.42969,2.994,2.994,0,0,1,2.37687,1.29407,1.32146,1.32146,0,0,1,1.21485-.79229.945.945,0,0,1,.60742.21128.65035.65035,0,0,1,.26409.52819q0,.34332-.97715,4.22555t-1.00357,4.384a1.41287,1.41287,0,0,0,.18487.87152.77576.77576,0,0,0,.5546.23768,1.1474,1.1474,0,0,0,.52819-.23768,5.98843,5.98843,0,0,0,1.0828-2.53533q.15846-.5282.2641-.55461a.77259.77259,0,0,1,.26409-.02641h.10564q.50178,0,.50179.23769a4.19477,4.19477,0,0,1-.132.71306,8.285,8.285,0,0,1-.5282,1.42613,4.49916,4.49916,0,0,1-.84511,1.32048,2.61129,2.61129,0,0,1-.84511.5546,2.815,2.815,0,0,1-.63383.05282,2.69949,2.69949,0,0,1-1.50535-.39614,2.02757,2.02757,0,0,1-.79229-.8187l-.15846-.39615q-.0264-.02641-.10564.02641l-.10564.10564a4.63024,4.63024,0,0,1-3.16916,1.47894,3.60429,3.60429,0,0,1-2.56174-1.05639A4.45019,4.45019,0,0,1,566.00216,32.48875Zm8.39828-4.51606a2.39086,2.39086,0,0,0-.13205-.581,2.5109,2.5109,0,0,0-.60743-.92434,1.68816,1.68816,0,0,0-1.21484-.5282,2.53437,2.53437,0,0,0-1.76945.8187,5.52591,5.52591,0,0,0-1.32048,2.13919,21.084,21.084,0,0,0-1.0828,4.33119v.2905a1.40764,1.40764,0,0,1-.02641.31692,2.218,2.218,0,0,0,.47537,1.6374,1.70085,1.70085,0,0,0,1.13562.47537,2.98214,2.98214,0,0,0,1.98073-.87152,4.44061,4.44061,0,0,0,1.162-1.34689q.05283-.10564.71306-2.82584T574.40044,27.97269Z"/>
    <path id="MJMAIN-29-2" data-name="MJMAIN-29" class="cls-6" d="M580.68594,16.85421l.10564-.02641h.581l.73947.63384a13.033,13.033,0,0,1,3.61813,5.59885,21.59252,21.59252,0,0,1,1.13562,6.97216,22.04773,22.04773,0,0,1-.2641,3.45966,22.70828,22.70828,0,0,1-.60742,2.82584,11.8955,11.8955,0,0,1-.97716,2.324q-.63384,1.162-1.00357,1.76945a8.03336,8.03336,0,0,1-1.0828,1.34689q-.71305.73947-.84511.87152t-.60742.50179l-.10564.10564h-.60742a.15519.15519,0,0,1-.13205-.07923.62184.62184,0,0,1-.07923-.23769q.02641-.02642.29051-.34333,4.0935-4.252,4.0935-12.54459t-4.0935-12.5446q-.2641-.31692-.29051-.34333A.31042.31042,0,0,1,580.68594,16.85421Z"/>
  </g>
  <g>
    <path id="MJMATHI-3C0-3" data-name="MJMATHI-3C0" class="cls-6" d="M303.40194,37.46583a.86781.86781,0,0,1-.9962-.9669v-.3223l.3809-.8204a56.77611,56.77611,0,0,0,3.1937-7.9989l.2344-.7032h-.9376a9.76845,9.76845,0,0,0-1.5822.0879,3.16983,3.16983,0,0,0-1.1427.5567,3.82764,3.82764,0,0,0-.6446.5274,7.54927,7.54927,0,0,0-.5567.6153,3.61022,3.61022,0,0,0-.2637.3516,1.67031,1.67031,0,0,1-.4395.0293q-.55671,0-.5567-.293a3.53737,3.53737,0,0,1,.5567-1.0255,9.96362,9.96362,0,0,1,1.6115-1.8166,3.98344,3.98344,0,0,1,2.0803-1.1134q.20509-.05859,6.5925-.0586,4.688,0,4.8052.0293a.8.8,0,0,1,.586.8204,1.22371,1.22371,0,0,1-.9376,1.2306,15.88982,15.88982,0,0,1-2.0217.0586h-1.8752l-.0879.4981a21.99218,21.99218,0,0,0-.3516,3.4867,12.76649,12.76649,0,0,0,.2637,2.7249,10.58554,10.58554,0,0,0,.5567,1.8752,3.417,3.417,0,0,1,.293.8204,1.35789,1.35789,0,0,1-.4102.9376,1.37818,1.37818,0,0,1-1.0548.4395,1.35023,1.35023,0,0,1-.5274-.0879q-.20511-.0879-.4688-.7032a8.4637,8.4637,0,0,1-.4688-1.758q-.02931-.2637-.0293-1.2892a19.445,19.445,0,0,1,.2637-3.0765q.2637-1.64079.5274-2.6956l.293-1.172H307.416l-.0293.1172q0,.0879-.5567,2.3147t-1.2599,4.7173a21.835,21.835,0,0,1-.9083,2.8421A1.232,1.232,0,0,1,303.40194,37.46583Z"/>
    <path id="MJMAIN-31-3" data-name="MJMAIN-31" class="cls-6" d="M320.643,29.58252l-.26929.10358a5.93735,5.93735,0,0,1-.82861.20715,9.54878,9.54878,0,0,1-1.20147.145h-.39359v-.95289h.39359a6.73654,6.73654,0,0,0,1.80221-.31073,4.89232,4.89232,0,0,0,1.16-.49716,5.31042,5.31042,0,0,0,.58-.45573q.04143-.06214.24858-.06215a.577.577,0,0,1,.35216.12429V34.0777l.02071,6.21453a.82029.82029,0,0,0,.24858.18643,2.45655,2.45655,0,0,0,.49717.08286q.39358.04143,1.28433.04143h.53859v.9529h-.22786q-.435-.06214-3.2937-.06215-2.81726,0-3.25227.06215h-.24858V40.603h1.32576a4.97541,4.97541,0,0,0,.51788-.02071,2.02837,2.02837,0,0,0,.33144-.06215,1.24139,1.24139,0,0,1,.16572-.04143q.02072,0,.12429-.10357t.12429-.08286Z"/>
    <path id="MJMAIN-28-3" data-name="MJMAIN-28" class="cls-6" d="M332.29174,29.81853a24.09879,24.09879,0,0,1,.293-3.8383,26.85168,26.85168,0,0,1,.6739-3.1351,12.269,12.269,0,0,1,1.0841-2.5784q.7032-1.25989,1.1134-1.9631a7.78191,7.78191,0,0,1,1.2306-1.5236q.8204-.82039.9669-.9962a5.2799,5.2799,0,0,1,.7325-.6153h.4981q.41019,0,.4102.2637a2.36768,2.36768,0,0,1-.4981.6153,13.30243,13.30243,0,0,0-1.2013,1.5529,20.271,20.271,0,0,0-1.4357,2.5198,16.66838,16.66838,0,0,0-1.2306,4.0434,29.57206,29.57206,0,0,0-.4981,5.6549,29.112,29.112,0,0,0,.4981,5.6256,19.02842,19.02842,0,0,0,1.2013,4.0727,13.26925,13.26925,0,0,0,1.4357,2.5198q.7325.9669,1.2306,1.5529a6.62108,6.62108,0,0,1,.4981.6153q0,.2637-.4395.2637h-.4688l-.8204-.7032a14.45915,14.45915,0,0,1-4.0141-6.2116A23.9555,23.9555,0,0,1,332.29174,29.81853Z"/>
    <path id="MJMATHI-73-3" data-name="MJMATHI-73" class="cls-6" d="M344.77354,28.67583a4.342,4.342,0,0,1,.4688-1.9045,4.82031,4.82031,0,0,1,1.6408-1.7873,4.68153,4.68153,0,0,1,2.8421-.7911,3.70183,3.70183,0,0,1,2.637.7911,2.51036,2.51036,0,0,1,.8497,1.758,1.74494,1.74494,0,0,1-.4981,1.3771,1.77512,1.77512,0,0,1-1.1134.4688,1.17026,1.17026,0,0,1-.7032-.2344.94792.94792,0,0,1-.3516-.7618,1.32958,1.32958,0,0,1,.2637-.8204,2.632,2.632,0,0,1,.4981-.5274.709.709,0,0,1,.3809-.1758.0259.0259,0,0,0,.0293-.0293q0-.0879-.2051-.2637a2.00146,2.00146,0,0,0-.7325-.3223,5.1851,5.1851,0,0,0-1.1427-.1758,2.47828,2.47828,0,0,0-2.7249,2.3147,1.05919,1.05919,0,0,0,.5567,1.0255,6.07617,6.07617,0,0,0,1.6115.4981,6.42149,6.42149,0,0,1,1.5236.4395,2.89572,2.89572,0,0,1,1.9338,2.8128,4.45875,4.45875,0,0,1-.3223,1.6408,6.55407,6.55407,0,0,1-.9669,1.6408,4.23861,4.23861,0,0,1-1.8459,1.2892,7.95582,7.95582,0,0,1-2.7542.4981,4.73933,4.73933,0,0,1-3.1937-.8497,2.71074,2.71074,0,0,1-.9669-1.9924,1.99266,1.99266,0,0,1,.6153-1.6408,2.02317,2.02317,0,0,1,1.2892-.4981,1.41374,1.41374,0,0,1,.8204.2637,1.09083,1.09083,0,0,1,.4102.9083,1.75365,1.75365,0,0,1-.5274,1.2892,1.443,1.443,0,0,1-.9083.5274.2248.2248,0,0,1-.0879.0293q-.02931,0-.0293.0586a.63313.63313,0,0,0,.2344.2344,4.09011,4.09011,0,0,0,.9083.3809,5.76282,5.76282,0,0,0,3.4281-.1172,2.51708,2.51708,0,0,0,1.1134-.8204,3.88959,3.88959,0,0,0,.4981-.9083,2.21012,2.21012,0,0,0,.1465-.7325,1.38035,1.38035,0,0,0-.6153-1.2306,3.1147,3.1147,0,0,0-1.4064-.4981,7.25136,7.25136,0,0,1-1.7287-.4395,2.71147,2.71147,0,0,1-1.3771-1.0255A2.94921,2.94921,0,0,1,344.77354,28.67583Z"/>
    <path id="MJMAIN-2C-2" data-name="MJMAIN-2C" class="cls-6" d="M356.99164,36.118v-.7325a1.83223,1.83223,0,0,1,.4688-1.2599,1.60147,1.60147,0,0,1,1.2599-.5274,1.91532,1.91532,0,0,1,1.465.7325,4.04506,4.04506,0,0,1,.6739,2.5784,7.53812,7.53812,0,0,1-.2637,1.9924,9.10963,9.10963,0,0,1-.6153,1.6701,6.35434,6.35434,0,0,1-.7618,1.2013q-.4102.4981-.7032.7911t-.3809.2637q-.11721,0-.3809-.2637t-.2637-.3809q0-.1172.3223-.4688t.7325-.879a5.62332,5.62332,0,0,0,.7618-1.465,8.41645,8.41645,0,0,0,.4688-2.1389v-.3516l-.0293.0293a1.13557,1.13557,0,0,1-.1465.0586.74.74,0,0,0-.1758.0879.47946.47946,0,0,1-.2637.0586,2.1356,2.1356,0,0,0-.3516.0293,1.74439,1.74439,0,0,1-1.2892-.4981Z"/>
    <path id="MJMATHI-61-2" data-name="MJMATHI-61" class="cls-6" d="M368.71164,32.54343a8.65849,8.65849,0,0,1,2.2268-5.6256,6.55674,6.55674,0,0,1,5.0103-2.6956,3.32169,3.32169,0,0,1,2.637,1.4357,1.46608,1.46608,0,0,1,1.3478-.879,1.04841,1.04841,0,0,1,.6739.2344.72155.72155,0,0,1,.293.586q0,.38091-1.0841,4.688t-1.1134,4.8638a1.56743,1.56743,0,0,0,.2051.9669.86066.86066,0,0,0,.6153.2637,1.273,1.273,0,0,0,.586-.2637,6.64382,6.64382,0,0,0,1.2013-2.8128q.1758-.586.293-.6153a.85707.85707,0,0,1,.293-.0293h.1172q.55669,0,.5567.2637a4.65436,4.65436,0,0,1-.1465.7911,9.19231,9.19231,0,0,1-.586,1.5822,4.99174,4.99174,0,0,1-.9376,1.465,2.89706,2.89706,0,0,1-.9376.6153,3.12353,3.12353,0,0,1-.7032.0586,2.99484,2.99484,0,0,1-1.6701-.4395,2.24932,2.24932,0,0,1-.879-.9083l-.1758-.4395q-.02931-.0293-.1172.0293l-.1172.1172a5.137,5.137,0,0,1-3.516,1.6408,3.99868,3.99868,0,0,1-2.8421-1.172A4.93725,4.93725,0,0,1,368.71164,32.54343Zm9.3174-5.0103a2.65283,2.65283,0,0,0-.1465-.6446,2.78581,2.78581,0,0,0-.6739-1.0255,1.873,1.873,0,0,0-1.3478-.586,2.81173,2.81173,0,0,0-1.9631.9083,6.13082,6.13082,0,0,0-1.465,2.3733,23.39146,23.39146,0,0,0-1.2013,4.8052v.3223a1.562,1.562,0,0,1-.0293.3516,2.4607,2.4607,0,0,0,.5274,1.8166,1.887,1.887,0,0,0,1.2599.5274,3.30857,3.30857,0,0,0,2.1975-.9669,4.927,4.927,0,0,0,1.2892-1.4943q.05859-.1172.7911-3.1351T378.029,27.53313Z"/>
    <path id="MJMAIN-29-3" data-name="MJMAIN-29" class="cls-6" d="M385.03174,15.19783l.1172-.0293h.6446l.8204.7032a14.45945,14.45945,0,0,1,4.0141,6.2116,23.95586,23.95586,0,0,1,1.2599,7.7352,24.46054,24.46054,0,0,1-.293,3.8383,25.19336,25.19336,0,0,1-.6739,3.1351,13.19678,13.19678,0,0,1-1.0841,2.5784q-.7032,1.2892-1.1134,1.9631a8.91286,8.91286,0,0,1-1.2013,1.4943q-.7911.82041-.9376.9669t-.6739.5567l-.1172.1172h-.6739a.17217.17217,0,0,1-.1465-.0879.68964.68964,0,0,1-.0879-.2637q.02929-.0293.3223-.3809,4.54149-4.71729,4.5415-13.9175t-4.5415-13.9175q-.293-.3516-.3223-.3809A.34438.34438,0,0,1,385.03174,15.19783Z"/>
  </g>
  <path id="MJMAIN-3D" class="cls-6" d="M639.66527,25.35924a.82708.82708,0,0,1,.53156-.75937h24.186a.883.883,0,0,1,.56953.75937.86141.86141,0,0,1-.53156.72141l-12.074.038h-12.074A.75255.75255,0,0,1,639.66527,25.35924Zm0,7.36591a.75254.75254,0,0,1,.6075-.75937h24.148q.53156.3797.53156.75937a.83023.83023,0,0,1-.56953.75938h-24.186A.82708.82708,0,0,1,639.66527,32.72515Z"/>
  <text class="cls-10" transform="translate(4.08708 15.05398)">On-policy value estimation<tspan x="0" y="18.32715" xml:space="preserve">weights    -values by the</tspan><tspan x="0" y="36.6543" xml:space="preserve">current policy to find            .</tspan></text>
  <path id="MJMATHI-51-2" data-name="MJMATHI-51" class="cls-11" d="M65.81943,34.61976q0-.47124.01428-.714a1.41053,1.41053,0,0,1,.02856-.27133v-.05712l-.2142.05712a5.19489,5.19489,0,0,1-1.19954.15708,3.50441,3.50441,0,0,1-3.5986-3.18447q-.01428-.11424-.01428-.61405a5.90756,5.90756,0,0,1,.68545-2.77035A7.998,7.998,0,0,1,63.36324,24.895,5.56993,5.56993,0,0,1,66.919,23.42411q.54266,0,.68545.01428a3.39978,3.39978,0,0,1,2.2277,1.2281,4.02619,4.02619,0,0,1,.85681,2.599,6.49742,6.49742,0,0,1-2.11346,4.68389,6.84883,6.84883,0,0,1-1.8707,1.2995l-.24276.11424v.0714q0,.01428.0714.38556a1.12374,1.12374,0,0,0,.29988.59977.88911.88911,0,0,0,.65689.22848,1.6637,1.6637,0,0,0,.95677-.31416,1.45293,1.45293,0,0,0,.59977-.814q.08568-.19992.18564-.19992a.14687.14687,0,0,1,.15708.12852,2.136,2.136,0,0,1-.1428.51409q-.1428.39984-.39985.94249a2.47906,2.47906,0,0,1-.77113.92821,1.94873,1.94873,0,0,1-1.08529.41412q-1.171,0-1.171-1.528Zm3.3844-7.82553a3.98619,3.98619,0,0,0-.2142-1.37089,1.87721,1.87721,0,0,0-.58549-.87109,3.21926,3.21926,0,0,0-.714-.42841,1.94918,1.94918,0,0,0-.75685-.1428,3.11535,3.11535,0,0,0-1.39945.357,5.14138,5.14138,0,0,0-2.34195,2.51331,8.04145,8.04145,0,0,0-.88537,3.54148,2.94929,2.94929,0,0,0,.77113,2.242,1.34118,1.34118,0,0,0,.41412.29988v-.11424a1.49357,1.49357,0,0,1,.47125-1.05673,1.55238,1.55238,0,0,1,1.11385-.49981,1.155,1.155,0,0,1,.61405.15709.98742.98742,0,0,1,.38556.4284,2.35124,2.35124,0,0,1,.17136.457q.04284.18564.08568.38556l.18565-.12852a5.28861,5.28861,0,0,0,1.55653-1.7279,7.79617,7.79617,0,0,0,.88537-2.12774A8.35832,8.35832,0,0,0,69.20383,26.79423Zm-4.59822,6.42608a2.83438,2.83438,0,0,0,1.28522-.29989l-.01428-.1428q-.05712-.7854-.52837-.94249a1.74821,1.74821,0,0,0-.27132-.02856h-.08568a.08269.08269,0,0,1-.05712-.01428.86976.86976,0,0,0-.58549.2856.93584.93584,0,0,0-.31416.65689Q64.03441,33.22032,64.60561,33.22031Z"/>
  <g>
    <path id="MJMATHI-56-2" data-name="MJMATHI-56" class="cls-11" d="M146.40129,41.527a.70269.70269,0,0,1,.19314-.52h.16343q.624.04456,1.56.04457,1.75315,0,2.06517-.04457h.14857q.08915.08914.08914.13371t-.02971.26743a.81841.81841,0,0,1-.13372.28229h-.312q-.32686.02971-.44572.02972-.43086.07428-.47543.22286,0,.02972.43086,3.72918t.44572,3.72919l1.08458-1.7383q1.08459-1.73832,2.16917-3.50633t1.1143-1.82745a.44193.44193,0,0,0,.05943-.22286q0-.35658-.65372-.416-.26743,0-.26744-.16343,0-.01485.02972-.19314a.79949.79949,0,0,1,.08914-.26743.23589.23589,0,0,1,.19315-.05943h.17829q.14857,0,.50514.01485t.95087.01486q1.02516,0,1.29259-.02971h.104q.104.104.104.16343a.90879.90879,0,0,1-.13371.47543.42512.42512,0,0,1-.25258.04457q-.19314.01487-.35657.02972a1.10457,1.10457,0,0,0-.312.07428q-.14858.05943-.23771.104a.93019.93019,0,0,0-.17829.11885.83085.83085,0,0,1-.14858.104.32292.32292,0,0,0-.11885.13371q-.05943.104-.104.104l-2.86746,4.60577q-2.67432,4.32348-2.76346,4.42748-.04457.02971-.104.07429l-.26743.01486h-.104q-.26744,0-.26743-.104-.04458-.08915-.57944-4.75435-.56459-4.72462-.57944-4.7692-.07428-.16343-.92115-.16343h-.25257A.2058.2058,0,0,1,146.40129,41.527Z"/>
    <g>
      <path id="MJMATHI-3C0-4" data-name="MJMATHI-3C0" class="cls-11" d="M159.27254,45.14885a.31111.31111,0,0,1-.35714-.34664v-.11555l.13655-.29411a20.35355,20.35355,0,0,0,1.14495-2.86763l.084-.2521h-.33613a3.50156,3.50156,0,0,0-.56722.03152,1.13622,1.13622,0,0,0-.40966.19957,1.37222,1.37222,0,0,0-.23109.18908,2.706,2.706,0,0,0-.19958.22059,1.29443,1.29443,0,0,0-.09454.126.59841.59841,0,0,1-.15756.01051q-.19957,0-.19958-.105a1.26825,1.26825,0,0,1,.19958-.36765,3.57181,3.57181,0,0,1,.57773-.65125,1.428,1.428,0,0,1,.74579-.39916q.07353-.021,2.36343-.021,1.68066,0,1.72267.01051a.28677.28677,0,0,1,.21009.29411.43872.43872,0,0,1-.33614.44118,5.69889,5.69889,0,0,1-.72478.021h-.67226l-.03152.17857a7.88471,7.88471,0,0,0-.12605,1.25,4.57714,4.57714,0,0,0,.09454.97689,3.79538,3.79538,0,0,0,.19958.67226,1.22474,1.22474,0,0,1,.105.29412.4868.4868,0,0,1-.14706.33613.49409.49409,0,0,1-.37815.15756.484.484,0,0,1-.18907-.03151q-.07353-.03152-.16807-.2521a3.03476,3.03476,0,0,1-.16806-.63025q-.01051-.09453-.01051-.46218a6.9716,6.9716,0,0,1,.09454-1.10293q.09454-.58824.18907-.96638l.105-.42017H160.7116l-.0105.042q0,.03152-.19958.82983t-.45168,1.69116a7.82652,7.82652,0,0,1-.32563,1.0189A.44167.44167,0,0,1,159.27254,45.14885Z"/>
      <path id="MJMAIN-31-4" data-name="MJMAIN-31" class="cls-11" d="M165.4558,42.32184l-.09658.03714a2.1289,2.1289,0,0,1-.29714.07429,3.424,3.424,0,0,1-.43087.052h-.14114v-.34172h.14114a2.4157,2.4157,0,0,0,.6463-.11143,1.754,1.754,0,0,0,.416-.17829,1.90327,1.90327,0,0,0,.208-.16343q.01485-.02227.08914-.02228a.20688.20688,0,0,1,.12629.04457v2.22117l.00743,2.2286a.2941.2941,0,0,0,.08914.06685.88075.88075,0,0,0,.17829.02972q.14113.01485.46057.01486h.19315v.34171h-.08172q-.156-.02228-1.18115-.02228-1.0103,0-1.1663.02228h-.08915v-.34171h.47544a1.78455,1.78455,0,0,0,.18571-.00743.72629.72629,0,0,0,.11886-.02229.44653.44653,0,0,1,.05943-.01486q.00743,0,.04457-.03714t.04458-.02971Z"/>
    </g>
    <path id="MJMAIN-28-4" data-name="MJMAIN-28" class="cls-11" d="M171.525,47.44019a12.22129,12.22129,0,0,1,.14857-1.94631,13.61748,13.61748,0,0,1,.34172-1.58974,6.222,6.222,0,0,1,.54972-1.30744q.35658-.63887.56458-.99544a3.94614,3.94614,0,0,1,.624-.77258q.416-.416.49029-.50515a2.67753,2.67753,0,0,1,.37143-.312h.25258q.208,0,.208.13371a1.20041,1.20041,0,0,1-.25257.312,6.74287,6.74287,0,0,0-.60915.78743,10.27825,10.27825,0,0,0-.728,1.27773,8.452,8.452,0,0,0-.624,2.05031,14.99571,14.99571,0,0,0-.25258,2.86747,14.76241,14.76241,0,0,0,.25258,2.8526,9.64885,9.64885,0,0,0,.60915,2.06517,6.729,6.729,0,0,0,.728,1.27773q.37143.49029.624.78744a3.35436,3.35436,0,0,1,.25257.312q0,.13371-.22286.13371h-.23772l-.416-.35657a7.332,7.332,0,0,1-2.03545-3.14975A12.14738,12.14738,0,0,1,171.525,47.44019Z"/>
    <path id="MJMATHI-73-4" data-name="MJMATHI-73" class="cls-11" d="M177.86909,46.86075a2.20176,2.20176,0,0,1,.23771-.96573,2.44429,2.44429,0,0,1,.832-.90629,2.37389,2.37389,0,0,1,1.44116-.40115,1.8771,1.8771,0,0,1,1.33716.40115,1.27289,1.27289,0,0,1,.43086.89144.88481.88481,0,0,1-.25257.69829.90018.90018,0,0,1-.56458.23772.59341.59341,0,0,1-.35657-.11886.48065.48065,0,0,1-.17829-.38629.67423.67423,0,0,1,.13371-.416,1.33508,1.33508,0,0,1,.25258-.26743.35954.35954,0,0,1,.19314-.08914.01313.01313,0,0,0,.01486-.01486q0-.04457-.104-.13371a1.01484,1.01484,0,0,0-.37143-.16343,2.62889,2.62889,0,0,0-.57944-.08915,1.25668,1.25668,0,0,0-1.38173,1.17373.53712.53712,0,0,0,.28229.52,3.08149,3.08149,0,0,0,.81715.25257,3.25552,3.25552,0,0,1,.77258.22286,1.46836,1.46836,0,0,1,.98059,1.4263,2.26072,2.26072,0,0,1-.16344.832,3.323,3.323,0,0,1-.49029.832,2.14915,2.14915,0,0,1-.936.65372,4.03438,4.03438,0,0,1-1.39659.25258,2.4032,2.4032,0,0,1-1.61944-.43086,1.3746,1.3746,0,0,1-.4903-1.0103,1.01043,1.01043,0,0,1,.312-.832,1.0259,1.0259,0,0,1,.65372-.25258.71694.71694,0,0,1,.416.13372.55314.55314,0,0,1,.208.46058.88928.88928,0,0,1-.26743.65372.73171.73171,0,0,1-.46058.26743.114.114,0,0,1-.04457.01486q-.01486,0-.01486.02971a.321.321,0,0,0,.11886.11886,2.07388,2.07388,0,0,0,.46058.19315,2.92218,2.92218,0,0,0,1.7383-.05943,1.27637,1.27637,0,0,0,.56458-.416,1.97218,1.97218,0,0,0,.25257-.46057,1.12052,1.12052,0,0,0,.07429-.37144.69993.69993,0,0,0-.312-.624,1.57943,1.57943,0,0,0-.71315-.25258,3.67674,3.67674,0,0,1-.87659-.22286,1.37491,1.37491,0,0,1-.69829-.52A1.49549,1.49549,0,0,1,177.86909,46.86075Z"/>
    <path id="MJMAIN-29-4" data-name="MJMAIN-29" class="cls-11" d="M183.7823,40.02638l.05943-.01485h.32686l.416.35657a7.332,7.332,0,0,1,2.03546,3.14975,12.14739,12.14739,0,0,1,.63886,3.92234,12.40285,12.40285,0,0,1-.14857,1.9463,12.77522,12.77522,0,0,1-.34172,1.58974,6.69126,6.69126,0,0,1-.54972,1.30744q-.35658.65373-.56458.99544a4.52,4.52,0,0,1-.60915.75773q-.40115.416-.47543.49029t-.34172.28229l-.05943.05942h-.34172a.0873.0873,0,0,1-.07429-.04457.34978.34978,0,0,1-.04457-.13371q.01486-.01486.16343-.19315,2.30289-2.392,2.30289-7.05722T183.87144,40.383q-.14857-.17829-.16343-.19315A.17463.17463,0,0,1,183.7823,40.02638Z"/>
  </g>
</svg>
