<svg id="Layer_1" data-name="Layer 1" xmlns="http://www.w3.org/2000/svg" viewBox="0 0 137.29 136.36"><defs><style>.cls-1{fill:#e7ebe8;}.cls-2{fill:#cac9cc;}.cls-3,.cls-4,.cls-5{fill:none;stroke-miterlimit:10;stroke-width:4px;}.cls-3{stroke:#2c3592;}.cls-4{stroke:#ef937b;}.cls-5{stroke:#aa1e22;}.cls-6{fill:#2c3592;}.cls-7{fill:#70a8da;}.cls-8{fill:#ef937b;}.cls-9{fill:#aa1e22;}.cls-10{font-size:11px;fill:#d1d3d4;font-family:MyriadPro-Semibold, Myriad Pro;font-weight:700;}.cls-11{fill:#ef4136;}</style></defs><title>paths-separate-mc</title><rect class="cls-1" x="2.04" y="1.61" width="25.45" height="25.45"/><rect class="cls-1" x="28.98" y="1.64" width="25.45" height="25.45"/><rect class="cls-1" x="55.82" y="1.65" width="25.45" height="25.45"/><rect class="cls-1" x="2.04" y="28.56" width="25.45" height="25.45"/><rect class="cls-1" x="28.98" y="28.58" width="25.45" height="25.45"/><rect class="cls-1" x="55.82" y="28.59" width="25.45" height="25.45"/><rect class="cls-1" x="82.72" y="28.6" width="25.45" height="25.45"/><rect class="cls-1" x="2.04" y="55.39" width="25.45" height="25.45"/><rect class="cls-1" x="28.98" y="55.41" width="25.45" height="25.45"/><rect class="cls-1" x="55.82" y="55.42" width="25.45" height="25.45"/><rect class="cls-1" x="82.72" y="55.43" width="25.45" height="25.45"/><rect class="cls-1" x="2.04" y="82.33" width="25.45" height="25.45"/><rect class="cls-1" x="28.98" y="82.36" width="25.45" height="25.45"/><rect class="cls-1" x="55.82" y="82.36" width="25.45" height="25.45"/><rect class="cls-1" x="82.72" y="82.37" width="25.45" height="25.45"/><rect class="cls-1" x="2.04" y="109.25" width="25.45" height="25.45"/><rect class="cls-1" x="28.98" y="109.28" width="25.45" height="25.45"/><rect class="cls-1" x="55.82" y="109.28" width="25.45" height="25.45"/><rect class="cls-1" x="82.72" y="109.29" width="25.45" height="25.45"/><circle class="cls-2" cx="14.77" cy="14.34" r="8.06"/><circle class="cls-2" cx="41.71" cy="14.38" r="8.06"/><circle class="cls-2" cx="14.61" cy="41.31" r="8.06"/><circle class="cls-2" cx="95.42" cy="68.41" r="8.06"/><circle class="cls-2" cx="14.61" cy="95.15" r="8.06"/><line class="cls-3" x1="14.61" y1="68.43" x2="41.55" y2="68.47"/><line class="cls-3" x1="41.55" y1="41.34" x2="41.55" y2="68.47"/><line class="cls-3" x1="68.81" y1="41.34" x2="41.55" y2="41.34"/><line class="cls-3" x1="68.97" y1="14.38" x2="68.81" y2="41.34"/><line class="cls-3" x1="95.45" y1="14.34" x2="68.97" y2="14.38"/><line class="cls-4" x1="41.71" y1="95.06" x2="68.54" y2="95.13"/><line class="cls-4" x1="68.54" y1="68.11" x2="68.54" y2="95.13"/><line class="cls-4" x1="68.81" y1="41.34" x2="68.54" y2="68.11"/><line class="cls-4" x1="95.45" y1="41.28" x2="68.81" y2="41.34"/><line class="cls-4" x1="122.74" y1="41.34" x2="95.42" y2="41.28"/><line class="cls-5" x1="14.61" y1="122.28" x2="41.71" y2="122.28"/><line class="cls-5" x1="68.81" y1="122.31" x2="41.71" y2="122.31"/><line class="cls-5" x1="122.74" y1="122.02" x2="95.42" y2="122.02"/><circle class="cls-6" cx="68.97" cy="14.38" r="8.06"/><circle class="cls-6" cx="41.55" cy="41.34" r="8.06"/><circle class="cls-7" cx="68.81" cy="41.34" r="8.06"/><circle class="cls-8" cx="95.42" cy="41.28" r="8.06"/><circle class="cls-6" cx="14.61" cy="68.43" r="8.06"/><circle class="cls-6" cx="41.55" cy="68.47" r="8.06"/><circle class="cls-8" cx="68.81" cy="68.47" r="8.06"/><circle class="cls-8" cx="41.55" cy="95.06" r="8.06"/><circle class="cls-9" cx="14.61" cy="122.28" r="8.06"/><circle class="cls-9" cx="41.55" cy="122.85" r="8.06"/><rect class="cls-9" x="110.24" y="2.58" width="25.01" height="131.73"/><text class="cls-10" transform="translate(113.83 49.3)">-1</text><text class="cls-10" transform="translate(112.28 125.48)">+2</text><line class="cls-5" x1="68.81" y1="122.31" x2="68.81" y2="95.19"/><line class="cls-5" x1="95.42" y1="95.13" x2="68.81" y2="95.19"/><line class="cls-5" x1="95.42" y1="122.25" x2="95.42" y2="95.13"/><circle class="cls-9" cx="95.42" cy="95.13" r="8.06"/><circle class="cls-11" cx="68.81" cy="95.19" r="8.06"/><circle class="cls-9" cx="68.81" cy="122.31" r="8.06"/><circle class="cls-9" cx="95.42" cy="122.25" r="8.06"/><rect class="cls-6" x="84.54" y="3.39" width="21.75" height="21.75"/><text class="cls-10" transform="translate(87.41 16.74)">+2</text></svg>