<svg id="Layer_1" data-name="Layer 1" xmlns="http://www.w3.org/2000/svg" viewBox="0 0 137.29 136.36"><defs><style>.cls-1{fill:#e7ebe8;}.cls-2{fill:#cac9cc;}.cls-3,.cls-4,.cls-5,.cls-6,.cls-7{fill:none;stroke-miterlimit:10;stroke-width:4px;}.cls-3{stroke:#70a8da;}.cls-4{stroke:#2c3592;}.cls-5{stroke:#ef4136;}.cls-6{stroke:#ef937b;}.cls-7{stroke:#aa1e22;}.cls-8{fill:#aa1e22;}.cls-9{font-size:11px;fill:#d1d3d4;font-family:MyriadPro-Semibold, Myriad Pro;font-weight:700;}.cls-10{fill:#2c3592;}</style></defs><title>paths-merged</title><rect class="cls-1" x="2.04" y="1.93" width="25.45" height="25.45"/><rect class="cls-1" x="28.98" y="1.96" width="25.45" height="25.45"/><rect class="cls-1" x="55.82" y="1.97" width="25.45" height="25.45"/><rect class="cls-1" x="2.04" y="28.88" width="25.45" height="25.45"/><rect class="cls-1" x="28.98" y="28.9" width="25.45" height="25.45"/><rect class="cls-1" x="55.82" y="28.91" width="25.45" height="25.45"/><rect class="cls-1" x="82.72" y="28.92" width="25.45" height="25.45"/><rect class="cls-1" x="2.04" y="55.71" width="25.45" height="25.45"/><rect class="cls-1" x="28.98" y="55.73" width="25.45" height="25.45"/><rect class="cls-1" x="55.82" y="55.74" width="25.45" height="25.45"/><rect class="cls-1" x="82.72" y="55.75" width="25.45" height="25.45"/><rect class="cls-1" x="2.04" y="82.65" width="25.45" height="25.45"/><rect class="cls-1" x="28.98" y="82.68" width="25.45" height="25.45"/><rect class="cls-1" x="55.82" y="82.68" width="25.45" height="25.45"/><rect class="cls-1" x="82.72" y="82.69" width="25.45" height="25.45"/><rect class="cls-1" x="2.04" y="109.57" width="25.45" height="25.45"/><rect class="cls-1" x="28.98" y="109.6" width="25.45" height="25.45"/><rect class="cls-1" x="55.82" y="109.6" width="25.45" height="25.45"/><rect class="cls-1" x="82.72" y="109.61" width="25.45" height="25.45"/><circle class="cls-2" cx="14.77" cy="14.66" r="8.06"/><circle class="cls-2" cx="41.71" cy="14.7" r="8.06"/><circle class="cls-2" cx="14.61" cy="41.63" r="8.06"/><circle class="cls-2" cx="95.42" cy="68.73" r="8.06"/><circle class="cls-2" cx="14.61" cy="95.47" r="8.06"/><line class="cls-3" x1="14.61" y1="68.75" x2="41.55" y2="68.79"/><line class="cls-3" x1="41.55" y1="41.66" x2="41.55" y2="68.79"/><line class="cls-3" x1="68.81" y1="41.66" x2="41.55" y2="41.66"/><line class="cls-4" x1="68.97" y1="14.7" x2="68.81" y2="41.66"/><line class="cls-4" x1="95.45" y1="14.66" x2="68.97" y2="14.7"/><line class="cls-5" x1="41.71" y1="95.38" x2="68.54" y2="95.45"/><line class="cls-3" x1="68.54" y1="68.43" x2="68.54" y2="95.45"/><line class="cls-3" x1="68.81" y1="41.66" x2="68.54" y2="68.43"/><line class="cls-6" x1="95.45" y1="41.6" x2="68.81" y2="41.66"/><line class="cls-6" x1="122.74" y1="41.66" x2="95.42" y2="41.6"/><line class="cls-5" x1="14.61" y1="122.6" x2="41.71" y2="122.6"/><line class="cls-5" x1="68.81" y1="122.63" x2="41.71" y2="122.63"/><line class="cls-7" x1="122.74" y1="122.34" x2="95.42" y2="122.34"/><circle class="cls-2" cx="68.97" cy="14.7" r="8.06"/><circle class="cls-2" cx="41.55" cy="41.66" r="8.06"/><circle class="cls-2" cx="68.81" cy="41.66" r="8.06"/><circle class="cls-2" cx="95.42" cy="41.6" r="8.06"/><circle class="cls-2" cx="14.61" cy="68.75" r="8.06"/><circle class="cls-2" cx="41.55" cy="68.79" r="8.06"/><circle class="cls-2" cx="68.81" cy="68.79" r="8.06"/><circle class="cls-2" cx="41.55" cy="95.38" r="8.06"/><circle class="cls-2" cx="14.61" cy="122.6" r="8.06"/><circle class="cls-2" cx="41.55" cy="123.17" r="8.06"/><rect class="cls-8" x="110.24" y="2.9" width="25.01" height="131.73"/><text class="cls-9" transform="translate(113.83 49.62)">-1</text><text class="cls-9" transform="translate(112.28 125.8)">+2</text><line class="cls-5" x1="68.81" y1="122.63" x2="68.81" y2="95.51"/><line class="cls-7" x1="95.42" y1="95.45" x2="68.81" y2="95.51"/><line class="cls-7" x1="95.42" y1="122.57" x2="95.42" y2="95.45"/><circle class="cls-2" cx="95.42" cy="95.45" r="8.06"/><circle class="cls-2" cx="68.81" cy="95.51" r="8.06"/><circle class="cls-2" cx="68.81" cy="122.63" r="8.06"/><circle class="cls-2" cx="95.42" cy="122.57" r="8.06"/><rect class="cls-10" x="84.54" y="3.71" width="21.75" height="21.75"/><text class="cls-9" transform="translate(87.41 17.06)">+2</text></svg>