<svg id="Layer_1" data-name="Layer 1" xmlns="http://www.w3.org/2000/svg" viewBox="0 0 137.29 136.36"><defs><style>.cls-1{fill:#e7ebe8;}.cls-2{fill:#cac9cc;}.cls-3,.cls-4,.cls-5{fill:none;stroke-miterlimit:10;stroke-width:4px;}.cls-3{stroke:#2c3592;}.cls-4{stroke:#ef937b;}.cls-5{stroke:#aa1e22;}.cls-6{fill:#aa1e22;}.cls-7{font-size:11px;fill:#d1d3d4;font-family:MyriadPro-Semibold, Myriad Pro;font-weight:700;}.cls-8{fill:#2c3592;}</style></defs><title>paths-separate</title><rect class="cls-1" x="1.61" y="1.38" width="25.45" height="25.45"/><rect class="cls-1" x="28.54" y="1.41" width="25.45" height="25.45"/><rect class="cls-1" x="55.38" y="1.41" width="25.45" height="25.45"/><rect class="cls-1" x="1.61" y="28.32" width="25.45" height="25.45"/><rect class="cls-1" x="28.54" y="28.35" width="25.45" height="25.45"/><rect class="cls-1" x="55.38" y="28.36" width="25.45" height="25.45"/><rect class="cls-1" x="82.28" y="28.37" width="25.45" height="25.45"/><rect class="cls-1" x="1.61" y="55.15" width="25.45" height="25.45"/><rect class="cls-1" x="28.54" y="55.18" width="25.45" height="25.45"/><rect class="cls-1" x="55.38" y="55.19" width="25.45" height="25.45"/><rect class="cls-1" x="82.28" y="55.2" width="25.45" height="25.45"/><rect class="cls-1" x="1.61" y="82.1" width="25.45" height="25.45"/><rect class="cls-1" x="28.54" y="82.13" width="25.45" height="25.45"/><rect class="cls-1" x="55.38" y="82.13" width="25.45" height="25.45"/><rect class="cls-1" x="82.28" y="82.14" width="25.45" height="25.45"/><rect class="cls-1" x="1.61" y="109.02" width="25.45" height="25.45"/><rect class="cls-1" x="28.54" y="109.05" width="25.45" height="25.45"/><rect class="cls-1" x="55.38" y="109.05" width="25.45" height="25.45"/><rect class="cls-1" x="82.28" y="109.06" width="25.45" height="25.45"/><circle class="cls-2" cx="14.33" cy="14.1" r="8.06"/><circle class="cls-2" cx="41.27" cy="14.14" r="8.06"/><circle class="cls-2" cx="14.17" cy="41.07" r="8.06"/><circle class="cls-2" cx="94.98" cy="68.18" r="8.06"/><circle class="cls-2" cx="14.17" cy="94.92" r="8.06"/><line class="cls-3" x1="14.17" y1="68.2" x2="41.11" y2="68.24"/><line class="cls-3" x1="41.11" y1="41.11" x2="41.11" y2="68.24"/><line class="cls-3" x1="68.37" y1="41.11" x2="41.11" y2="41.11"/><line class="cls-3" x1="68.53" y1="14.14" x2="68.37" y2="41.11"/><line class="cls-3" x1="95.01" y1="14.1" x2="68.53" y2="14.14"/><line class="cls-4" x1="41.27" y1="94.82" x2="68.1" y2="94.89"/><line class="cls-4" x1="68.1" y1="67.88" x2="68.1" y2="94.89"/><line class="cls-4" x1="68.37" y1="41.11" x2="68.1" y2="67.88"/><line class="cls-4" x1="95.01" y1="41.05" x2="68.37" y2="41.11"/><line class="cls-4" x1="122.3" y1="41.11" x2="94.98" y2="41.05"/><line class="cls-5" x1="14.17" y1="122.04" x2="41.27" y2="122.04"/><line class="cls-5" x1="68.37" y1="122.08" x2="41.27" y2="122.08"/><line class="cls-5" x1="122.3" y1="121.79" x2="94.98" y2="121.79"/><circle class="cls-2" cx="68.53" cy="14.14" r="8.06"/><circle class="cls-2" cx="41.11" cy="41.11" r="8.06"/><circle class="cls-2" cx="68.37" cy="41.11" r="8.06"/><circle class="cls-2" cx="94.98" cy="41.05" r="8.06"/><circle class="cls-2" cx="14.17" cy="68.2" r="8.06"/><circle class="cls-2" cx="41.11" cy="68.24" r="8.06"/><circle class="cls-2" cx="68.37" cy="68.24" r="8.06"/><circle class="cls-2" cx="41.11" cy="94.82" r="8.06"/><circle class="cls-2" cx="14.17" cy="122.04" r="8.06"/><circle class="cls-2" cx="41.11" cy="122.61" r="8.06"/><rect class="cls-6" x="109.8" y="2.34" width="25.01" height="131.73"/><text class="cls-7" transform="translate(113.39 49.07)">-1</text><text class="cls-7" transform="translate(111.84 125.24)">+2</text><line class="cls-5" x1="68.37" y1="122.08" x2="68.37" y2="94.95"/><line class="cls-5" x1="94.98" y1="94.89" x2="68.37" y2="94.95"/><line class="cls-5" x1="94.98" y1="122.02" x2="94.98" y2="94.89"/><circle class="cls-2" cx="94.98" cy="94.89" r="8.06"/><circle class="cls-2" cx="68.37" cy="94.95" r="8.06"/><circle class="cls-2" cx="68.37" cy="122.08" r="8.06"/><circle class="cls-2" cx="94.98" cy="122.02" r="8.06"/><rect class="cls-8" x="84.1" y="3.16" width="21.75" height="21.75"/><text class="cls-7" transform="translate(86.97 16.51)">+2</text></svg>