<svg id="Layer_1" data-name="Layer 1" xmlns="http://www.w3.org/2000/svg" viewBox="0 0 64.1437 63.85513">
  <defs>
    <style>
      .cls-1 {
        fill: #2c3592;
      }

      .cls-2 {
        fill: #e7ebe8;
      }

      .cls-3 {
        fill: #cac9cc;
      }

      .cls-4 {
        fill: #aa1e22;
      }

      .cls-5, .cls-6 {
        fill: none;
        stroke-linecap: round;
        stroke-linejoin: round;
      }

      .cls-5 {
        stroke: #aa1e22;
      }

      .cls-6 {
        stroke: #2c3592;
      }

      .cls-7 {
        font-size: 2.51559px;
        fill: #d1d3d4;
        font-family: MyriadPro-Semibold, Myriad Pro;
        font-weight: 700;
      }
    </style>
  </defs>
  <title>path-thumbnail</title>
  <rect class="cls-1" x="18.88529" y="0.43441" width="4.97511" height="4.97511"/>
  <rect class="cls-2" x="0.01309" y="0.00569" width="5.82007" height="5.82007"/>
  <rect class="cls-2" x="6.17389" y="0.01193" width="5.82007" height="5.82007"/>
  <rect class="cls-2" x="12.31007" y="0.01315" width="5.82007" height="5.82007"/>
  <rect class="cls-2" x="0.01309" y="6.16767" width="5.82007" height="5.82007"/>
  <rect class="cls-2" x="6.17389" y="6.17391" width="5.82007" height="5.82007"/>
  <rect class="cls-2" x="12.31007" y="6.17513" width="5.82007" height="5.82007"/>
  <rect class="cls-2" x="18.46281" y="6.17757" width="5.82007" height="5.82007"/>
  <rect class="cls-2" x="0.01309" y="12.30316" width="5.82007" height="5.82007"/>
  <rect class="cls-2" x="6.17389" y="12.3094" width="5.82007" height="5.82007"/>
  <rect class="cls-2" x="12.31007" y="12.31062" width="5.82007" height="5.82007"/>
  <rect class="cls-2" x="18.46281" y="12.31306" width="5.82007" height="5.82007"/>
  <rect class="cls-2" x="0.01309" y="18.46514" width="5.82007" height="5.82007"/>
  <rect class="cls-2" x="6.17389" y="18.47138" width="5.82007" height="5.82007"/>
  <rect class="cls-2" x="12.31007" y="18.4726" width="5.82007" height="5.82007"/>
  <rect class="cls-2" x="18.46281" y="18.47504" width="5.82007" height="5.82007"/>
  <rect class="cls-2" x="0.01309" y="24.62157" width="5.82007" height="5.82007"/>
  <rect class="cls-2" x="6.17389" y="24.62781" width="5.82007" height="5.82007"/>
  <rect class="cls-2" x="12.31007" y="24.62902" width="5.82007" height="5.82007"/>
  <rect class="cls-2" x="18.46281" y="24.63146" width="5.82007" height="5.82007"/>
  <circle class="cls-3" cx="2.92313" cy="2.91573" r="1.84343"/>
  <circle class="cls-3" cx="9.08392" cy="2.92441" r="1.84343"/>
  <circle class="cls-3" cx="2.88618" cy="9.08326" r="1.84343"/>
  <circle class="cls-3" cx="21.36699" cy="15.28131" r="1.84343"/>
  <circle class="cls-3" cx="2.88618" cy="21.39656" r="1.84343"/>
  <circle class="cls-3" cx="9.04697" cy="21.37518" r="1.84343"/>
  <circle class="cls-3" cx="21.36699" cy="21.39101" r="1.84343"/>
  <circle class="cls-3" cx="2.88618" cy="27.60017" r="1.84343"/>
  <circle class="cls-3" cx="9.04697" cy="27.73049" r="1.84343"/>
  <circle class="cls-3" cx="21.36699" cy="27.59461" r="1.84343"/>
  <rect class="cls-4" x="24.75586" y="0.22613" width="5.71989" height="30.1246"/>
  <circle class="cls-3" cx="15.31862" cy="2.92441" r="1.84343"/>
  <circle class="cls-3" cx="9.04697" cy="9.09194" r="1.84343"/>
  <circle class="cls-3" cx="15.28167" cy="9.09194" r="1.84343"/>
  <circle class="cls-3" cx="21.36699" cy="9.07771" r="1.84343"/>
  <circle class="cls-3" cx="2.88618" cy="15.28687" r="1.84343"/>
  <circle class="cls-3" cx="9.04697" cy="15.29555" r="1.84343"/>
  <circle class="cls-3" cx="15.28167" cy="15.29555" r="1.84343"/>
  <circle class="cls-3" cx="15.28167" cy="21.40524" r="1.84343"/>
  <circle class="cls-3" cx="15.28167" cy="27.60885" r="1.84343"/>
  <rect class="cls-1" x="18.88143" y="33.79403" width="4.97511" height="4.97511"/>
  <rect class="cls-2" x="0.00923" y="33.36531" width="5.82007" height="5.82007"/>
  <rect class="cls-2" x="6.17003" y="33.37155" width="5.82007" height="5.82007"/>
  <rect class="cls-2" x="12.30621" y="33.37277" width="5.82007" height="5.82007"/>
  <rect class="cls-2" x="0.00923" y="39.52729" width="5.82007" height="5.82007"/>
  <rect class="cls-2" x="6.17003" y="39.53353" width="5.82007" height="5.82007"/>
  <rect class="cls-2" x="12.30621" y="39.53475" width="5.82007" height="5.82007"/>
  <rect class="cls-2" x="18.45895" y="39.53718" width="5.82007" height="5.82007"/>
  <rect class="cls-2" x="0.00923" y="45.66278" width="5.82007" height="5.82007"/>
  <rect class="cls-2" x="6.17003" y="45.66902" width="5.82007" height="5.82007"/>
  <rect class="cls-2" x="12.30621" y="45.67024" width="5.82007" height="5.82007"/>
  <rect class="cls-2" x="18.45895" y="45.67268" width="5.82007" height="5.82007"/>
  <rect class="cls-2" x="0.00923" y="51.82476" width="5.82007" height="5.82007"/>
  <rect class="cls-2" x="6.17003" y="51.831" width="5.82007" height="5.82007"/>
  <rect class="cls-2" x="12.30621" y="51.83222" width="5.82007" height="5.82007"/>
  <rect class="cls-2" x="18.45895" y="51.83466" width="5.82007" height="5.82007"/>
  <rect class="cls-2" x="0.00923" y="57.98118" width="5.82007" height="5.82007"/>
  <rect class="cls-2" x="6.17003" y="57.98742" width="5.82007" height="5.82007"/>
  <rect class="cls-2" x="12.30621" y="57.98864" width="5.82007" height="5.82007"/>
  <rect class="cls-2" x="18.45895" y="57.99108" width="5.82007" height="5.82007"/>
  <circle class="cls-3" cx="2.91927" cy="36.27535" r="1.84343"/>
  <circle class="cls-3" cx="9.08006" cy="36.28402" r="1.84343"/>
  <circle class="cls-3" cx="2.88232" cy="42.44288" r="1.84343"/>
  <circle class="cls-3" cx="21.36313" cy="48.64093" r="1.84343"/>
  <circle class="cls-3" cx="2.88232" cy="54.75618" r="1.84343"/>
  <circle class="cls-3" cx="9.04311" cy="54.7348" r="1.84343"/>
  <circle class="cls-3" cx="21.36313" cy="54.75062" r="1.84343"/>
  <circle class="cls-3" cx="2.88232" cy="60.95979" r="1.84343"/>
  <circle class="cls-3" cx="9.04311" cy="61.0901" r="1.84343"/>
  <circle class="cls-3" cx="21.36313" cy="60.95423" r="1.84343"/>
  <rect class="cls-4" x="24.752" y="33.58575" width="5.71989" height="30.1246"/>
  <circle class="cls-3" cx="15.31476" cy="36.28402" r="1.84343"/>
  <circle class="cls-3" cx="9.04311" cy="42.45156" r="1.84343"/>
  <circle class="cls-3" cx="15.27781" cy="42.45156" r="1.84343"/>
  <circle class="cls-3" cx="21.36313" cy="42.43732" r="1.84343"/>
  <circle class="cls-3" cx="2.88232" cy="48.64649" r="1.84343"/>
  <circle class="cls-3" cx="9.04311" cy="48.65517" r="1.84343"/>
  <circle class="cls-3" cx="15.27781" cy="48.65517" r="1.84343"/>
  <circle class="cls-3" cx="15.27781" cy="54.76486" r="1.84343"/>
  <circle class="cls-3" cx="15.27781" cy="60.96847" r="1.84343"/>
  <rect class="cls-1" x="52.54672" y="0.47519" width="4.97511" height="4.97511"/>
  <rect class="cls-2" x="33.67452" y="0.04647" width="5.82007" height="5.82007"/>
  <rect class="cls-2" x="39.83532" y="0.05271" width="5.82007" height="5.82007"/>
  <rect class="cls-2" x="45.9715" y="0.05393" width="5.82007" height="5.82007"/>
  <rect class="cls-2" x="33.67452" y="6.20845" width="5.82007" height="5.82007"/>
  <rect class="cls-2" x="39.83532" y="6.21469" width="5.82007" height="5.82007"/>
  <rect class="cls-2" x="45.9715" y="6.2159" width="5.82007" height="5.82007"/>
  <rect class="cls-2" x="52.12424" y="6.21834" width="5.82007" height="5.82007"/>
  <rect class="cls-2" x="33.67452" y="12.34394" width="5.82007" height="5.82007"/>
  <rect class="cls-2" x="39.83532" y="12.35018" width="5.82007" height="5.82007"/>
  <rect class="cls-2" x="45.9715" y="12.3514" width="5.82007" height="5.82007"/>
  <rect class="cls-2" x="52.12424" y="12.35383" width="5.82007" height="5.82007"/>
  <rect class="cls-2" x="33.67452" y="18.50592" width="5.82007" height="5.82007"/>
  <rect class="cls-2" x="39.83532" y="18.51216" width="5.82007" height="5.82007"/>
  <rect class="cls-2" x="45.9715" y="18.51338" width="5.82007" height="5.82007"/>
  <rect class="cls-2" x="52.12424" y="18.51581" width="5.82007" height="5.82007"/>
  <rect class="cls-2" x="33.67452" y="24.66234" width="5.82007" height="5.82007"/>
  <rect class="cls-2" x="39.83532" y="24.66858" width="5.82007" height="5.82007"/>
  <rect class="cls-2" x="45.9715" y="24.6698" width="5.82007" height="5.82007"/>
  <rect class="cls-2" x="52.12424" y="24.67224" width="5.82007" height="5.82007"/>
  <circle class="cls-3" cx="36.58456" cy="2.9565" r="1.84343"/>
  <circle class="cls-3" cx="42.74535" cy="2.96518" r="1.84343"/>
  <circle class="cls-3" cx="36.54761" cy="9.12404" r="1.84343"/>
  <circle class="cls-3" cx="55.02842" cy="15.32209" r="1.84343"/>
  <circle class="cls-3" cx="36.54761" cy="21.43734" r="1.84343"/>
  <circle class="cls-3" cx="42.7084" cy="21.41595" r="1.84343"/>
  <circle class="cls-3" cx="55.02842" cy="21.43178" r="1.84343"/>
  <circle class="cls-3" cx="36.54761" cy="27.64094" r="1.84343"/>
  <circle class="cls-3" cx="42.7084" cy="27.77126" r="1.84343"/>
  <circle class="cls-3" cx="55.02842" cy="27.63539" r="1.84343"/>
  <rect class="cls-4" x="58.41729" y="0.2669" width="5.71989" height="30.1246"/>
  <circle class="cls-3" cx="48.98005" cy="2.96518" r="1.84343"/>
  <circle class="cls-3" cx="42.7084" cy="9.13272" r="1.84343"/>
  <circle class="cls-3" cx="48.9431" cy="9.13272" r="1.84343"/>
  <circle class="cls-3" cx="55.02842" cy="9.11848" r="1.84343"/>
  <circle class="cls-3" cx="36.54761" cy="15.32764" r="1.84343"/>
  <circle class="cls-3" cx="42.7084" cy="15.33632" r="1.84343"/>
  <circle class="cls-3" cx="48.9431" cy="15.33632" r="1.84343"/>
  <circle class="cls-3" cx="48.9431" cy="21.44602" r="1.84343"/>
  <circle class="cls-3" cx="48.9431" cy="27.64962" r="1.84343"/>
  <rect class="cls-1" x="52.55565" y="33.82695" width="4.97511" height="4.97511"/>
  <rect class="cls-2" x="33.68345" y="33.39823" width="5.82007" height="5.82007"/>
  <rect class="cls-2" x="39.84425" y="33.40447" width="5.82007" height="5.82007"/>
  <rect class="cls-2" x="45.98043" y="33.40569" width="5.82007" height="5.82007"/>
  <rect class="cls-2" x="33.68345" y="39.56021" width="5.82007" height="5.82007"/>
  <rect class="cls-2" x="39.84425" y="39.56645" width="5.82007" height="5.82007"/>
  <rect class="cls-2" x="45.98043" y="39.56767" width="5.82007" height="5.82007"/>
  <rect class="cls-2" x="52.13317" y="39.57011" width="5.82007" height="5.82007"/>
  <rect class="cls-2" x="33.68345" y="45.6957" width="5.82007" height="5.82007"/>
  <rect class="cls-2" x="39.84425" y="45.70194" width="5.82007" height="5.82007"/>
  <rect class="cls-2" x="45.98043" y="45.70316" width="5.82007" height="5.82007"/>
  <rect class="cls-2" x="52.13317" y="45.7056" width="5.82007" height="5.82007"/>
  <rect class="cls-2" x="33.68345" y="51.85768" width="5.82007" height="5.82007"/>
  <rect class="cls-2" x="39.84425" y="51.86392" width="5.82007" height="5.82007"/>
  <rect class="cls-2" x="45.98043" y="51.86514" width="5.82007" height="5.82007"/>
  <rect class="cls-2" x="52.13317" y="51.86758" width="5.82007" height="5.82007"/>
  <rect class="cls-2" x="33.68345" y="58.01411" width="5.82007" height="5.82007"/>
  <rect class="cls-2" x="39.84425" y="58.02035" width="5.82007" height="5.82007"/>
  <rect class="cls-2" x="45.98043" y="58.02156" width="5.82007" height="5.82007"/>
  <rect class="cls-2" x="52.13317" y="58.024" width="5.82007" height="5.82007"/>
  <circle class="cls-3" cx="36.59349" cy="36.30827" r="1.84343"/>
  <circle class="cls-3" cx="42.75428" cy="36.31695" r="1.84343"/>
  <circle class="cls-3" cx="36.55654" cy="42.4758" r="1.84343"/>
  <circle class="cls-3" cx="55.03735" cy="48.67385" r="1.84343"/>
  <circle class="cls-3" cx="36.55654" cy="54.7891" r="1.84343"/>
  <circle class="cls-3" cx="42.71733" cy="54.76772" r="1.84343"/>
  <circle class="cls-3" cx="55.03735" cy="54.78355" r="1.84343"/>
  <circle class="cls-3" cx="36.55654" cy="60.99271" r="1.84343"/>
  <circle class="cls-3" cx="42.71733" cy="61.12303" r="1.84343"/>
  <circle class="cls-3" cx="55.03735" cy="60.98715" r="1.84343"/>
  <rect class="cls-4" x="58.42622" y="33.61867" width="5.71989" height="30.1246"/>
  <circle class="cls-3" cx="48.98898" cy="36.31695" r="1.84343"/>
  <circle class="cls-3" cx="42.71733" cy="42.48448" r="1.84343"/>
  <circle class="cls-3" cx="48.95203" cy="42.48448" r="1.84343"/>
  <circle class="cls-3" cx="55.03735" cy="42.47025" r="1.84343"/>
  <circle class="cls-3" cx="36.55654" cy="48.67941" r="1.84343"/>
  <circle class="cls-3" cx="42.71733" cy="48.68809" r="1.84343"/>
  <circle class="cls-3" cx="48.95203" cy="48.68809" r="1.84343"/>
  <circle class="cls-3" cx="48.95203" cy="54.79778" r="1.84343"/>
  <circle class="cls-3" cx="48.95203" cy="61.00139" r="1.84343"/>
  <line class="cls-5" x1="15.21624" y1="60.89868" x2="15.21624" y2="54.74226"/>
  <line class="cls-5" x1="15.21624" y1="48.58028" x2="15.21624" y2="54.74226"/>
  <line class="cls-5" x1="15.21624" y1="42.44478" x2="15.21624" y2="48.58028"/>
  <line class="cls-5" x1="21.36899" y1="42.44722" x2="15.21624" y2="42.44478"/>
  <line class="cls-5" x1="25.86917" y1="42.46234" x2="21.36899" y2="42.44722"/>
  <line class="cls-6" x1="2.92313" y1="15.2132" x2="9.08392" y2="15.2132"/>
  <line class="cls-6" x1="9.08392" y1="9.08395" x2="9.08392" y2="15.21944"/>
  <line class="cls-6" x1="15.2201" y1="9.08517" x2="9.08392" y2="9.08395"/>
  <line class="cls-6" x1="15.2201" y1="2.92319" x2="15.2201" y2="9.08517"/>
  <line class="cls-6" x1="19.78886" y1="2.94344" x2="15.2201" y2="2.92319"/>
  <line class="cls-6" x1="48.88153" y1="2.96396" x2="48.88153" y2="9.12594"/>
  <line class="cls-6" x1="53.45029" y1="2.98422" x2="48.88153" y2="2.96396"/>
  <line class="cls-6" x1="48.88153" y1="27.57984" x2="48.88153" y2="21.42341"/>
  <line class="cls-6" x1="48.88153" y1="15.26143" x2="48.88153" y2="21.42341"/>
  <line class="cls-6" x1="48.88153" y1="9.12594" x2="48.88153" y2="15.26143"/>
  <line class="cls-5" x1="36.59349" y1="48.60574" x2="42.75428" y2="48.60574"/>
  <line class="cls-5" x1="42.75428" y1="42.47649" x2="42.75428" y2="48.61198"/>
  <line class="cls-5" x1="48.89046" y1="42.47771" x2="42.75428" y2="42.47649"/>
  <line class="cls-5" x1="55.04321" y1="42.48014" x2="48.89046" y2="42.47771"/>
  <line class="cls-5" x1="59.54339" y1="42.49526" x2="55.04321" y2="42.48014"/>
  <text class="cls-7" transform="translate(19.53528 3.465)">+2</text>
  <text class="cls-7" transform="translate(25.72278 43.30485)">-1</text>
  <text class="cls-7" transform="translate(53.19722 3.50566)">+2</text>
  <text class="cls-7" transform="translate(59.39839 43.3382)">-1</text>
</svg>
