<svg id="Layer_1" data-name="Layer 1" xmlns="http://www.w3.org/2000/svg" viewBox="0 0 64.14 63.86"><defs><style>.cls-1{fill:#2c3592;}.cls-2{fill:#e7ebe8;}.cls-3{fill:#cac9cc;}.cls-4{fill:#aa1e22;}.cls-5,.cls-7{fill:none;stroke-linecap:round;stroke-linejoin:round;}.cls-5{stroke:#2c3592;}.cls-6{font-size:2.52px;fill:#d1d3d4;font-family:MyriadPro-Semibold, Myriad Pro;font-weight:700;}.cls-7{stroke:#aa1e22;}</style></defs><title>path-thumbnail</title><rect class="cls-1" x="18.89" y="0.43" width="4.98" height="4.98"/><rect class="cls-2" x="0.01" y="0.01" width="5.82" height="5.82"/><rect class="cls-2" x="6.17" y="0.01" width="5.82" height="5.82"/><rect class="cls-2" x="12.31" y="0.01" width="5.82" height="5.82"/><rect class="cls-2" x="0.01" y="6.17" width="5.82" height="5.82"/><rect class="cls-2" x="6.17" y="6.17" width="5.82" height="5.82"/><rect class="cls-2" x="12.31" y="6.18" width="5.82" height="5.82"/><rect class="cls-2" x="18.46" y="6.18" width="5.82" height="5.82"/><rect class="cls-2" x="0.01" y="12.3" width="5.82" height="5.82"/><rect class="cls-2" x="6.17" y="12.31" width="5.82" height="5.82"/><rect class="cls-2" x="12.31" y="12.31" width="5.82" height="5.82"/><rect class="cls-2" x="18.46" y="12.31" width="5.82" height="5.82"/><rect class="cls-2" x="0.01" y="18.47" width="5.82" height="5.82"/><rect class="cls-2" x="6.17" y="18.47" width="5.82" height="5.82"/><rect class="cls-2" x="12.31" y="18.47" width="5.82" height="5.82"/><rect class="cls-2" x="18.46" y="18.48" width="5.82" height="5.82"/><rect class="cls-2" x="0.01" y="24.62" width="5.82" height="5.82"/><rect class="cls-2" x="6.17" y="24.63" width="5.82" height="5.82"/><rect class="cls-2" x="12.31" y="24.63" width="5.82" height="5.82"/><rect class="cls-2" x="18.46" y="24.63" width="5.82" height="5.82"/><circle class="cls-3" cx="2.92" cy="2.92" r="1.84"/><circle class="cls-3" cx="9.08" cy="2.92" r="1.84"/><circle class="cls-3" cx="2.89" cy="9.08" r="1.84"/><circle class="cls-3" cx="21.37" cy="15.28" r="1.84"/><circle class="cls-3" cx="2.89" cy="21.4" r="1.84"/><circle class="cls-3" cx="9.05" cy="21.38" r="1.84"/><circle class="cls-3" cx="21.37" cy="21.39" r="1.84"/><circle class="cls-3" cx="2.89" cy="27.6" r="1.84"/><circle class="cls-3" cx="9.05" cy="27.73" r="1.84"/><circle class="cls-3" cx="21.37" cy="27.59" r="1.84"/><rect class="cls-4" x="24.76" y="0.23" width="5.72" height="30.12"/><line class="cls-5" x1="2.92" y1="15.21" x2="9.08" y2="15.21"/><line class="cls-5" x1="9.08" y1="9.08" x2="9.08" y2="15.22"/><line class="cls-5" x1="15.22" y1="9.09" x2="9.08" y2="9.08"/><line class="cls-5" x1="15.22" y1="2.92" x2="15.22" y2="9.09"/><line class="cls-5" x1="19.79" y1="2.94" x2="15.22" y2="2.92"/><text class="cls-6" transform="translate(19.54 3.47)">+2</text><circle class="cls-3" cx="15.32" cy="2.92" r="1.84"/><circle class="cls-3" cx="9.05" cy="9.09" r="1.84"/><circle class="cls-3" cx="15.28" cy="9.09" r="1.84"/><circle class="cls-3" cx="21.37" cy="9.08" r="1.84"/><circle class="cls-3" cx="2.89" cy="15.29" r="1.84"/><circle class="cls-3" cx="9.05" cy="15.3" r="1.84"/><circle class="cls-3" cx="15.28" cy="15.3" r="1.84"/><circle class="cls-3" cx="15.28" cy="21.41" r="1.84"/><circle class="cls-3" cx="15.28" cy="27.61" r="1.84"/><rect class="cls-1" x="18.88" y="33.79" width="4.98" height="4.98"/><rect class="cls-2" x="0.01" y="33.37" width="5.82" height="5.82"/><rect class="cls-2" x="6.17" y="33.37" width="5.82" height="5.82"/><rect class="cls-2" x="12.31" y="33.37" width="5.82" height="5.82"/><rect class="cls-2" x="0.01" y="39.53" width="5.82" height="5.82"/><rect class="cls-2" x="6.17" y="39.53" width="5.82" height="5.82"/><rect class="cls-2" x="12.31" y="39.53" width="5.82" height="5.82"/><rect class="cls-2" x="18.46" y="39.54" width="5.82" height="5.82"/><rect class="cls-2" x="0.01" y="45.66" width="5.82" height="5.82"/><rect class="cls-2" x="6.17" y="45.67" width="5.82" height="5.82"/><rect class="cls-2" x="12.31" y="45.67" width="5.82" height="5.82"/><rect class="cls-2" x="18.46" y="45.67" width="5.82" height="5.82"/><rect class="cls-2" x="0.01" y="51.82" width="5.82" height="5.82"/><rect class="cls-2" x="6.17" y="51.83" width="5.82" height="5.82"/><rect class="cls-2" x="12.31" y="51.83" width="5.82" height="5.82"/><rect class="cls-2" x="18.46" y="51.83" width="5.82" height="5.82"/><rect class="cls-2" x="0.01" y="57.98" width="5.82" height="5.82"/><rect class="cls-2" x="6.17" y="57.99" width="5.82" height="5.82"/><rect class="cls-2" x="12.31" y="57.99" width="5.82" height="5.82"/><rect class="cls-2" x="18.46" y="57.99" width="5.82" height="5.82"/><circle class="cls-3" cx="2.92" cy="36.28" r="1.84"/><circle class="cls-3" cx="9.08" cy="36.28" r="1.84"/><circle class="cls-3" cx="2.88" cy="42.44" r="1.84"/><circle class="cls-3" cx="21.36" cy="48.64" r="1.84"/><circle class="cls-3" cx="2.88" cy="54.76" r="1.84"/><circle class="cls-3" cx="9.04" cy="54.73" r="1.84"/><circle class="cls-3" cx="21.36" cy="54.75" r="1.84"/><circle class="cls-3" cx="2.88" cy="60.96" r="1.84"/><circle class="cls-3" cx="9.04" cy="61.09" r="1.84"/><circle class="cls-3" cx="21.36" cy="60.95" r="1.84"/><rect class="cls-4" x="24.75" y="33.59" width="5.72" height="30.12"/><line class="cls-7" x1="15.22" y1="60.9" x2="15.22" y2="54.74"/><line class="cls-7" x1="15.22" y1="48.58" x2="15.22" y2="54.74"/><line class="cls-7" x1="15.22" y1="42.44" x2="15.22" y2="48.58"/><line class="cls-7" x1="21.37" y1="42.45" x2="15.22" y2="42.44"/><line class="cls-7" x1="25.87" y1="42.46" x2="21.37" y2="42.45"/><text class="cls-6" transform="translate(25.72 43.3)">-1</text><circle class="cls-3" cx="15.31" cy="36.28" r="1.84"/><circle class="cls-3" cx="9.04" cy="42.45" r="1.84"/><circle class="cls-3" cx="15.28" cy="42.45" r="1.84"/><circle class="cls-3" cx="21.36" cy="42.44" r="1.84"/><circle class="cls-3" cx="2.88" cy="48.65" r="1.84"/><circle class="cls-3" cx="9.04" cy="48.66" r="1.84"/><circle class="cls-3" cx="15.28" cy="48.66" r="1.84"/><circle class="cls-3" cx="15.28" cy="54.76" r="1.84"/><circle class="cls-3" cx="15.28" cy="60.97" r="1.84"/><rect class="cls-1" x="52.55" y="0.48" width="4.98" height="4.98"/><rect class="cls-2" x="33.67" y="0.05" width="5.82" height="5.82"/><rect class="cls-2" x="39.84" y="0.05" width="5.82" height="5.82"/><rect class="cls-2" x="45.97" y="0.05" width="5.82" height="5.82"/><rect class="cls-2" x="33.67" y="6.21" width="5.82" height="5.82"/><rect class="cls-2" x="39.84" y="6.21" width="5.82" height="5.82"/><rect class="cls-2" x="45.97" y="6.22" width="5.82" height="5.82"/><rect class="cls-2" x="52.12" y="6.22" width="5.82" height="5.82"/><rect class="cls-2" x="33.67" y="12.34" width="5.82" height="5.82"/><rect class="cls-2" x="39.84" y="12.35" width="5.82" height="5.82"/><rect class="cls-2" x="45.97" y="12.35" width="5.82" height="5.82"/><rect class="cls-2" x="52.12" y="12.35" width="5.82" height="5.82"/><rect class="cls-2" x="33.67" y="18.51" width="5.82" height="5.82"/><rect class="cls-2" x="39.84" y="18.51" width="5.82" height="5.82"/><rect class="cls-2" x="45.97" y="18.51" width="5.82" height="5.82"/><rect class="cls-2" x="52.12" y="18.52" width="5.82" height="5.82"/><rect class="cls-2" x="33.67" y="24.66" width="5.82" height="5.82"/><rect class="cls-2" x="39.84" y="24.67" width="5.82" height="5.82"/><rect class="cls-2" x="45.97" y="24.67" width="5.82" height="5.82"/><rect class="cls-2" x="52.12" y="24.67" width="5.82" height="5.82"/><circle class="cls-3" cx="36.58" cy="2.96" r="1.84"/><circle class="cls-3" cx="42.75" cy="2.97" r="1.84"/><circle class="cls-3" cx="36.55" cy="9.12" r="1.84"/><circle class="cls-3" cx="55.03" cy="15.32" r="1.84"/><circle class="cls-3" cx="36.55" cy="21.44" r="1.84"/><circle class="cls-3" cx="42.71" cy="21.42" r="1.84"/><circle class="cls-3" cx="55.03" cy="21.43" r="1.84"/><circle class="cls-3" cx="36.55" cy="27.64" r="1.84"/><circle class="cls-3" cx="42.71" cy="27.77" r="1.84"/><circle class="cls-3" cx="55.03" cy="27.64" r="1.84"/><rect class="cls-4" x="58.42" y="0.27" width="5.72" height="30.12"/><line class="cls-5" x1="48.88" y1="2.96" x2="48.88" y2="9.13"/><line class="cls-5" x1="53.45" y1="2.98" x2="48.88" y2="2.96"/><line class="cls-5" x1="48.88" y1="27.58" x2="48.88" y2="21.42"/><line class="cls-5" x1="48.88" y1="15.26" x2="48.88" y2="21.42"/><line class="cls-5" x1="48.88" y1="9.13" x2="48.88" y2="15.26"/><text class="cls-6" transform="translate(53.2 3.51)">+2</text><circle class="cls-3" cx="48.98" cy="2.97" r="1.84"/><circle class="cls-3" cx="42.71" cy="9.13" r="1.84"/><circle class="cls-3" cx="48.94" cy="9.13" r="1.84"/><circle class="cls-3" cx="55.03" cy="9.12" r="1.84"/><circle class="cls-3" cx="36.55" cy="15.33" r="1.84"/><circle class="cls-3" cx="42.71" cy="15.34" r="1.84"/><circle class="cls-3" cx="48.94" cy="15.34" r="1.84"/><circle class="cls-3" cx="48.94" cy="21.45" r="1.84"/><circle class="cls-3" cx="48.94" cy="27.65" r="1.84"/><rect class="cls-1" x="52.56" y="33.83" width="4.98" height="4.98"/><rect class="cls-2" x="33.68" y="33.4" width="5.82" height="5.82"/><rect class="cls-2" x="39.84" y="33.4" width="5.82" height="5.82"/><rect class="cls-2" x="45.98" y="33.41" width="5.82" height="5.82"/><rect class="cls-2" x="33.68" y="39.56" width="5.82" height="5.82"/><rect class="cls-2" x="39.84" y="39.57" width="5.82" height="5.82"/><rect class="cls-2" x="45.98" y="39.57" width="5.82" height="5.82"/><rect class="cls-2" x="52.13" y="39.57" width="5.82" height="5.82"/><rect class="cls-2" x="33.68" y="45.7" width="5.82" height="5.82"/><rect class="cls-2" x="39.84" y="45.7" width="5.82" height="5.82"/><rect class="cls-2" x="45.98" y="45.7" width="5.82" height="5.82"/><rect class="cls-2" x="52.13" y="45.71" width="5.82" height="5.82"/><rect class="cls-2" x="33.68" y="51.86" width="5.82" height="5.82"/><rect class="cls-2" x="39.84" y="51.86" width="5.82" height="5.82"/><rect class="cls-2" x="45.98" y="51.87" width="5.82" height="5.82"/><rect class="cls-2" x="52.13" y="51.87" width="5.82" height="5.82"/><rect class="cls-2" x="33.68" y="58.01" width="5.82" height="5.82"/><rect class="cls-2" x="39.84" y="58.02" width="5.82" height="5.82"/><rect class="cls-2" x="45.98" y="58.02" width="5.82" height="5.82"/><rect class="cls-2" x="52.13" y="58.02" width="5.82" height="5.82"/><circle class="cls-3" cx="36.59" cy="36.31" r="1.84"/><circle class="cls-3" cx="42.75" cy="36.32" r="1.84"/><circle class="cls-3" cx="36.56" cy="42.48" r="1.84"/><circle class="cls-3" cx="55.04" cy="48.67" r="1.84"/><circle class="cls-3" cx="36.56" cy="54.79" r="1.84"/><circle class="cls-3" cx="42.72" cy="54.77" r="1.84"/><circle class="cls-3" cx="55.04" cy="54.78" r="1.84"/><circle class="cls-3" cx="36.56" cy="60.99" r="1.84"/><circle class="cls-3" cx="42.72" cy="61.12" r="1.84"/><circle class="cls-3" cx="55.04" cy="60.99" r="1.84"/><rect class="cls-4" x="58.43" y="33.62" width="5.72" height="30.12"/><line class="cls-7" x1="36.59" y1="48.61" x2="42.75" y2="48.61"/><line class="cls-7" x1="42.75" y1="42.48" x2="42.75" y2="48.61"/><line class="cls-7" x1="48.89" y1="42.48" x2="42.75" y2="42.48"/><line class="cls-7" x1="55.04" y1="42.48" x2="48.89" y2="42.48"/><line class="cls-7" x1="59.54" y1="42.5" x2="55.04" y2="42.48"/><text class="cls-6" transform="translate(59.4 43.34)">-1</text><circle class="cls-3" cx="48.99" cy="36.32" r="1.84"/><circle class="cls-3" cx="42.72" cy="42.48" r="1.84"/><circle class="cls-3" cx="48.95" cy="42.48" r="1.84"/><circle class="cls-3" cx="55.04" cy="42.47" r="1.84"/><circle class="cls-3" cx="36.56" cy="48.68" r="1.84"/><circle class="cls-3" cx="42.72" cy="48.69" r="1.84"/><circle class="cls-3" cx="48.95" cy="48.69" r="1.84"/><circle class="cls-3" cx="48.95" cy="54.8" r="1.84"/><circle class="cls-3" cx="48.95" cy="61" r="1.84"/></svg>