<svg id="Layer_1" data-name="Layer 1" xmlns="http://www.w3.org/2000/svg" viewBox="0 0 137.29 136.36"><defs><style>.cls-1{fill:#e7ebe8;}.cls-2{fill:#cac9cc;}.cls-3,.cls-4,.cls-5,.cls-6,.cls-7{fill:none;stroke-miterlimit:10;stroke-width:4px;}.cls-3{stroke:#70a8da;}.cls-4{stroke:#2c3592;}.cls-5{stroke:#ef4136;}.cls-6{stroke:#ef937b;}.cls-7{stroke:#aa1e22;}.cls-8{fill:#2c3592;}.cls-9{fill:#70a8da;}.cls-10{fill:#ef937b;}.cls-11{fill:#ef4136;}.cls-12{fill:#aa1e22;}.cls-13{font-size:11px;fill:#d1d3d4;font-family:MyriadPro-Semibold, Myriad Pro;font-weight:700;}</style></defs><title>paths-merged-td</title><rect class="cls-1" x="2.21" y="1.55" width="25.45" height="25.45"/><rect class="cls-1" x="29.15" y="1.57" width="25.45" height="25.45"/><rect class="cls-1" x="55.98" y="1.58" width="25.45" height="25.45"/><rect class="cls-1" x="2.21" y="28.49" width="25.45" height="25.45"/><rect class="cls-1" x="29.15" y="28.52" width="25.45" height="25.45"/><rect class="cls-1" x="55.98" y="28.52" width="25.45" height="25.45"/><rect class="cls-1" x="82.88" y="28.53" width="25.45" height="25.45"/><rect class="cls-1" x="2.21" y="55.32" width="25.45" height="25.45"/><rect class="cls-1" x="29.15" y="55.35" width="25.45" height="25.45"/><rect class="cls-1" x="55.98" y="55.35" width="25.45" height="25.45"/><rect class="cls-1" x="82.88" y="55.36" width="25.45" height="25.45"/><rect class="cls-1" x="2.21" y="82.26" width="25.45" height="25.45"/><rect class="cls-1" x="29.15" y="82.29" width="25.45" height="25.45"/><rect class="cls-1" x="55.98" y="82.3" width="25.45" height="25.45"/><rect class="cls-1" x="82.88" y="82.31" width="25.45" height="25.45"/><rect class="cls-1" x="2.21" y="109.18" width="25.45" height="25.45"/><rect class="cls-1" x="29.15" y="109.21" width="25.45" height="25.45"/><rect class="cls-1" x="55.98" y="109.22" width="25.45" height="25.45"/><rect class="cls-1" x="82.88" y="109.23" width="25.45" height="25.45"/><circle class="cls-2" cx="14.93" cy="14.27" r="8.06"/><circle class="cls-2" cx="41.87" cy="14.31" r="8.06"/><circle class="cls-2" cx="14.77" cy="41.24" r="8.06"/><circle class="cls-2" cx="95.58" cy="68.34" r="8.06"/><circle class="cls-2" cx="14.77" cy="95.08" r="8.06"/><line class="cls-3" x1="14.77" y1="68.37" x2="41.71" y2="68.4"/><line class="cls-3" x1="41.71" y1="41.28" x2="41.71" y2="68.4"/><line class="cls-3" x1="68.97" y1="41.28" x2="41.71" y2="41.28"/><line class="cls-4" x1="69.13" y1="14.31" x2="68.97" y2="41.28"/><line class="cls-4" x1="95.61" y1="14.27" x2="69.13" y2="14.31"/><line class="cls-5" x1="41.87" y1="94.99" x2="68.7" y2="95.06"/><line class="cls-3" x1="68.7" y1="68.04" x2="68.7" y2="95.06"/><line class="cls-3" x1="68.97" y1="41.28" x2="68.7" y2="68.04"/><line class="cls-6" x1="95.61" y1="41.21" x2="68.97" y2="41.28"/><line class="cls-6" x1="122.91" y1="41.28" x2="95.58" y2="41.21"/><line class="cls-5" x1="14.77" y1="122.21" x2="41.87" y2="122.21"/><line class="cls-5" x1="68.97" y1="122.25" x2="41.87" y2="122.25"/><line class="cls-7" x1="122.91" y1="121.95" x2="95.58" y2="121.95"/><circle class="cls-8" cx="69.13" cy="14.31" r="8.06"/><circle class="cls-9" cx="41.71" cy="41.28" r="8.06"/><circle class="cls-9" cx="68.97" cy="41.28" r="8.06"/><circle class="cls-10" cx="95.58" cy="41.21" r="8.06"/><circle class="cls-9" cx="14.77" cy="68.37" r="8.06"/><circle class="cls-9" cx="41.71" cy="68.4" r="8.06"/><circle class="cls-9" cx="68.97" cy="68.4" r="8.06"/><circle class="cls-11" cx="41.71" cy="94.99" r="8.06"/><circle class="cls-11" cx="14.77" cy="122.21" r="8.06"/><circle class="cls-11" cx="41.71" cy="122.78" r="8.06"/><rect class="cls-12" x="110.4" y="2.51" width="25.01" height="131.73"/><text class="cls-13" transform="translate(113.99 49.24)">-1</text><text class="cls-13" transform="translate(112.44 125.41)">+2</text><line class="cls-5" x1="68.97" y1="122.25" x2="68.97" y2="95.12"/><line class="cls-7" x1="95.58" y1="95.06" x2="68.97" y2="95.12"/><line class="cls-7" x1="95.58" y1="122.18" x2="95.58" y2="95.06"/><circle class="cls-12" cx="95.58" cy="95.06" r="8.06"/><circle class="cls-11" cx="68.97" cy="95.12" r="8.06"/><circle class="cls-11" cx="68.97" cy="122.25" r="8.06"/><circle class="cls-12" cx="95.58" cy="122.18" r="8.06"/><rect class="cls-8" x="84.71" y="3.33" width="21.75" height="21.75"/><text class="cls-13" transform="translate(87.57 16.67)">+2</text></svg>