<svg id="Layer_1" data-name="Layer 1" xmlns="http://www.w3.org/2000/svg" viewBox="0 0 65.51 65.08"><defs><style>.cls-1{fill:#2c3592;}.cls-2{fill:#e7ebe8;}.cls-3{fill:#cac9cc;}.cls-4{fill:#aa1e22;}.cls-5,.cls-7{fill:none;stroke-linecap:round;stroke-linejoin:round;}.cls-5{stroke:#2c3592;}.cls-6{font-size:2.52px;fill:#d1d3d4;font-family:MyriadPro-Semibold, Myriad Pro;font-weight:700;}.cls-7{stroke:#aa1e22;}</style></defs><title>path-thumbnail</title><rect class="cls-1" x="19.51" y="1.11" width="4.98" height="4.98"/><rect class="cls-2" x="0.64" y="0.68" width="5.82" height="5.82"/><rect class="cls-2" x="6.8" y="0.68" width="5.82" height="5.82"/><rect class="cls-2" x="12.93" y="0.68" width="5.82" height="5.82"/><rect class="cls-2" x="0.64" y="6.84" width="5.82" height="5.82"/><rect class="cls-2" x="6.8" y="6.85" width="5.82" height="5.82"/><rect class="cls-2" x="12.93" y="6.85" width="5.82" height="5.82"/><rect class="cls-2" x="19.09" y="6.85" width="5.82" height="5.82"/><rect class="cls-2" x="0.64" y="12.97" width="5.82" height="5.82"/><rect class="cls-2" x="6.8" y="12.98" width="5.82" height="5.82"/><rect class="cls-2" x="12.93" y="12.98" width="5.82" height="5.82"/><rect class="cls-2" x="19.09" y="12.98" width="5.82" height="5.82"/><rect class="cls-2" x="0.64" y="19.14" width="5.82" height="5.82"/><rect class="cls-2" x="6.8" y="19.14" width="5.82" height="5.82"/><rect class="cls-2" x="12.93" y="19.14" width="5.82" height="5.82"/><rect class="cls-2" x="19.09" y="19.15" width="5.82" height="5.82"/><rect class="cls-2" x="0.64" y="25.29" width="5.82" height="5.82"/><rect class="cls-2" x="6.8" y="25.3" width="5.82" height="5.82"/><rect class="cls-2" x="12.93" y="25.3" width="5.82" height="5.82"/><rect class="cls-2" x="19.09" y="25.3" width="5.82" height="5.82"/><circle class="cls-3" cx="3.55" cy="3.59" r="1.84"/><circle class="cls-3" cx="9.71" cy="3.6" r="1.84"/><circle class="cls-3" cx="3.51" cy="9.75" r="1.84"/><circle class="cls-3" cx="21.99" cy="15.95" r="1.84"/><circle class="cls-3" cx="3.51" cy="22.07" r="1.84"/><circle class="cls-3" cx="9.67" cy="22.05" r="1.84"/><circle class="cls-3" cx="21.99" cy="22.06" r="1.84"/><circle class="cls-3" cx="3.51" cy="28.27" r="1.84"/><circle class="cls-3" cx="9.67" cy="28.4" r="1.84"/><circle class="cls-3" cx="21.99" cy="28.27" r="1.84"/><rect class="cls-4" x="25.38" y="0.9" width="5.72" height="30.12"/><line class="cls-5" x1="3.55" y1="15.88" x2="9.71" y2="15.88"/><line class="cls-5" x1="9.71" y1="9.76" x2="9.71" y2="15.89"/><line class="cls-5" x1="15.84" y1="9.76" x2="9.71" y2="9.76"/><line class="cls-5" x1="15.84" y1="3.59" x2="15.84" y2="9.76"/><line class="cls-5" x1="20.41" y1="3.61" x2="15.84" y2="3.59"/><text class="cls-6" transform="translate(20.16 4.14)">+2</text><circle class="cls-3" cx="15.94" cy="3.6" r="1.84"/><circle class="cls-3" cx="9.67" cy="9.76" r="1.84"/><circle class="cls-3" cx="15.91" cy="9.76" r="1.84"/><circle class="cls-3" cx="21.99" cy="9.75" r="1.84"/><circle class="cls-3" cx="3.51" cy="15.96" r="1.84"/><circle class="cls-3" cx="9.67" cy="15.97" r="1.84"/><circle class="cls-3" cx="15.91" cy="15.97" r="1.84"/><circle class="cls-3" cx="15.91" cy="22.08" r="1.84"/><circle class="cls-3" cx="15.91" cy="28.28" r="1.84"/><rect class="cls-1" x="19.51" y="34.47" width="4.98" height="4.98"/><rect class="cls-2" x="0.63" y="34.04" width="5.82" height="5.82"/><rect class="cls-2" x="6.79" y="34.04" width="5.82" height="5.82"/><rect class="cls-2" x="12.93" y="34.04" width="5.82" height="5.82"/><rect class="cls-2" x="0.63" y="40.2" width="5.82" height="5.82"/><rect class="cls-2" x="6.79" y="40.2" width="5.82" height="5.82"/><rect class="cls-2" x="12.93" y="40.21" width="5.82" height="5.82"/><rect class="cls-2" x="19.08" y="40.21" width="5.82" height="5.82"/><rect class="cls-2" x="0.63" y="46.33" width="5.82" height="5.82"/><rect class="cls-2" x="6.79" y="46.34" width="5.82" height="5.82"/><rect class="cls-2" x="12.93" y="46.34" width="5.82" height="5.82"/><rect class="cls-2" x="19.08" y="46.34" width="5.82" height="5.82"/><rect class="cls-2" x="0.63" y="52.5" width="5.82" height="5.82"/><rect class="cls-2" x="6.79" y="52.5" width="5.82" height="5.82"/><rect class="cls-2" x="12.93" y="52.5" width="5.82" height="5.82"/><rect class="cls-2" x="19.08" y="52.51" width="5.82" height="5.82"/><rect class="cls-2" x="0.63" y="58.65" width="5.82" height="5.82"/><rect class="cls-2" x="6.79" y="58.66" width="5.82" height="5.82"/><rect class="cls-2" x="12.93" y="58.66" width="5.82" height="5.82"/><rect class="cls-2" x="19.08" y="58.66" width="5.82" height="5.82"/><circle class="cls-3" cx="3.54" cy="36.95" r="1.84"/><circle class="cls-3" cx="9.7" cy="36.96" r="1.84"/><circle class="cls-3" cx="3.51" cy="43.11" r="1.84"/><circle class="cls-3" cx="21.99" cy="49.31" r="1.84"/><circle class="cls-3" cx="3.51" cy="55.43" r="1.84"/><circle class="cls-3" cx="9.67" cy="55.41" r="1.84"/><circle class="cls-3" cx="21.99" cy="55.42" r="1.84"/><circle class="cls-3" cx="3.51" cy="61.63" r="1.84"/><circle class="cls-3" cx="9.67" cy="61.76" r="1.84"/><circle class="cls-3" cx="21.99" cy="61.63" r="1.84"/><rect class="cls-4" x="25.38" y="34.26" width="5.72" height="30.12"/><line class="cls-7" x1="15.84" y1="61.57" x2="15.84" y2="55.41"/><line class="cls-7" x1="15.84" y1="49.25" x2="15.84" y2="55.41"/><line class="cls-7" x1="15.84" y1="43.12" x2="15.84" y2="49.25"/><line class="cls-7" x1="21.99" y1="43.12" x2="15.84" y2="43.12"/><line class="cls-7" x1="26.49" y1="43.13" x2="21.99" y2="43.12"/><text class="cls-6" transform="translate(26.35 43.98)">-1</text><circle class="cls-3" cx="15.94" cy="36.96" r="1.84"/><circle class="cls-3" cx="9.67" cy="43.12" r="1.84"/><circle class="cls-3" cx="15.9" cy="43.12" r="1.84"/><circle class="cls-3" cx="21.99" cy="43.11" r="1.84"/><circle class="cls-3" cx="3.51" cy="49.32" r="1.84"/><circle class="cls-3" cx="9.67" cy="49.33" r="1.84"/><circle class="cls-3" cx="15.9" cy="49.33" r="1.84"/><circle class="cls-3" cx="15.9" cy="55.44" r="1.84"/><circle class="cls-3" cx="15.9" cy="61.64" r="1.84"/><rect class="cls-1" x="53.17" y="1.15" width="4.98" height="4.98"/><rect class="cls-2" x="34.3" y="0.72" width="5.82" height="5.82"/><rect class="cls-2" x="40.46" y="0.72" width="5.82" height="5.82"/><rect class="cls-2" x="46.6" y="0.73" width="5.82" height="5.82"/><rect class="cls-2" x="34.3" y="6.88" width="5.82" height="5.82"/><rect class="cls-2" x="40.46" y="6.89" width="5.82" height="5.82"/><rect class="cls-2" x="46.6" y="6.89" width="5.82" height="5.82"/><rect class="cls-2" x="52.75" y="6.89" width="5.82" height="5.82"/><rect class="cls-2" x="34.3" y="13.02" width="5.82" height="5.82"/><rect class="cls-2" x="40.46" y="13.02" width="5.82" height="5.82"/><rect class="cls-2" x="46.6" y="13.02" width="5.82" height="5.82"/><rect class="cls-2" x="52.75" y="13.03" width="5.82" height="5.82"/><rect class="cls-2" x="34.3" y="19.18" width="5.82" height="5.82"/><rect class="cls-2" x="40.46" y="19.18" width="5.82" height="5.82"/><rect class="cls-2" x="46.6" y="19.18" width="5.82" height="5.82"/><rect class="cls-2" x="52.75" y="19.19" width="5.82" height="5.82"/><rect class="cls-2" x="34.3" y="25.33" width="5.82" height="5.82"/><rect class="cls-2" x="40.46" y="25.34" width="5.82" height="5.82"/><rect class="cls-2" x="46.6" y="25.34" width="5.82" height="5.82"/><rect class="cls-2" x="52.75" y="25.34" width="5.82" height="5.82"/><circle class="cls-3" cx="37.21" cy="3.63" r="1.84"/><circle class="cls-3" cx="43.37" cy="3.64" r="1.84"/><circle class="cls-3" cx="37.17" cy="9.8" r="1.84"/><circle class="cls-3" cx="55.65" cy="15.99" r="1.84"/><circle class="cls-3" cx="37.17" cy="22.11" r="1.84"/><circle class="cls-3" cx="43.33" cy="22.09" r="1.84"/><circle class="cls-3" cx="55.65" cy="22.1" r="1.84"/><circle class="cls-3" cx="37.17" cy="28.31" r="1.84"/><circle class="cls-3" cx="43.33" cy="28.44" r="1.84"/><circle class="cls-3" cx="55.65" cy="28.31" r="1.84"/><rect class="cls-4" x="59.04" y="0.94" width="5.72" height="30.12"/><line class="cls-5" x1="49.51" y1="3.64" x2="49.51" y2="9.8"/><line class="cls-5" x1="54.07" y1="3.66" x2="49.51" y2="3.64"/><line class="cls-5" x1="49.51" y1="28.25" x2="49.51" y2="22.09"/><line class="cls-5" x1="49.51" y1="15.93" x2="49.51" y2="22.09"/><line class="cls-5" x1="49.51" y1="9.8" x2="49.51" y2="15.93"/><text class="cls-6" transform="translate(53.82 4.18)">+2</text><circle class="cls-3" cx="49.6" cy="3.64" r="1.84"/><circle class="cls-3" cx="43.33" cy="9.8" r="1.84"/><circle class="cls-3" cx="49.57" cy="9.8" r="1.84"/><circle class="cls-3" cx="55.65" cy="9.79" r="1.84"/><circle class="cls-3" cx="37.17" cy="16" r="1.84"/><circle class="cls-3" cx="43.33" cy="16.01" r="1.84"/><circle class="cls-3" cx="49.57" cy="16.01" r="1.84"/><circle class="cls-3" cx="49.57" cy="22.12" r="1.84"/><circle class="cls-3" cx="49.57" cy="28.32" r="1.84"/><rect class="cls-1" x="53.18" y="34.5" width="4.98" height="4.98"/><rect class="cls-2" x="34.31" y="34.07" width="5.82" height="5.82"/><rect class="cls-2" x="40.47" y="34.08" width="5.82" height="5.82"/><rect class="cls-2" x="46.6" y="34.08" width="5.82" height="5.82"/><rect class="cls-2" x="34.31" y="40.23" width="5.82" height="5.82"/><rect class="cls-2" x="40.47" y="40.24" width="5.82" height="5.82"/><rect class="cls-2" x="46.6" y="40.24" width="5.82" height="5.82"/><rect class="cls-2" x="52.76" y="40.24" width="5.82" height="5.82"/><rect class="cls-2" x="34.31" y="46.37" width="5.82" height="5.82"/><rect class="cls-2" x="40.47" y="46.37" width="5.82" height="5.82"/><rect class="cls-2" x="46.6" y="46.37" width="5.82" height="5.82"/><rect class="cls-2" x="52.76" y="46.38" width="5.82" height="5.82"/><rect class="cls-2" x="34.31" y="52.53" width="5.82" height="5.82"/><rect class="cls-2" x="40.47" y="52.54" width="5.82" height="5.82"/><rect class="cls-2" x="46.6" y="52.54" width="5.82" height="5.82"/><rect class="cls-2" x="52.76" y="52.54" width="5.82" height="5.82"/><rect class="cls-2" x="34.31" y="58.69" width="5.82" height="5.82"/><rect class="cls-2" x="40.47" y="58.69" width="5.82" height="5.82"/><rect class="cls-2" x="46.6" y="58.69" width="5.82" height="5.82"/><rect class="cls-2" x="52.76" y="58.7" width="5.82" height="5.82"/><circle class="cls-3" cx="37.22" cy="36.98" r="1.84"/><circle class="cls-3" cx="43.38" cy="36.99" r="1.84"/><circle class="cls-3" cx="37.18" cy="43.15" r="1.84"/><circle class="cls-3" cx="55.66" cy="49.35" r="1.84"/><circle class="cls-3" cx="37.18" cy="55.46" r="1.84"/><circle class="cls-3" cx="43.34" cy="55.44" r="1.84"/><circle class="cls-3" cx="55.66" cy="55.45" r="1.84"/><circle class="cls-3" cx="37.18" cy="61.66" r="1.84"/><circle class="cls-3" cx="43.34" cy="61.79" r="1.84"/><circle class="cls-3" cx="55.66" cy="61.66" r="1.84"/><rect class="cls-4" x="59.05" y="34.29" width="5.72" height="30.12"/><line class="cls-7" x1="37.22" y1="49.28" x2="43.38" y2="49.28"/><line class="cls-7" x1="43.38" y1="43.15" x2="43.38" y2="49.28"/><line class="cls-7" x1="49.51" y1="43.15" x2="43.38" y2="43.15"/><line class="cls-7" x1="55.67" y1="43.15" x2="49.51" y2="43.15"/><line class="cls-7" x1="60.17" y1="43.17" x2="55.67" y2="43.15"/><text class="cls-6" transform="translate(60.02 44.01)">-1</text><circle class="cls-3" cx="49.61" cy="36.99" r="1.84"/><circle class="cls-3" cx="43.34" cy="43.16" r="1.84"/><circle class="cls-3" cx="49.58" cy="43.16" r="1.84"/><circle class="cls-3" cx="55.66" cy="43.14" r="1.84"/><circle class="cls-3" cx="37.18" cy="49.35" r="1.84"/><circle class="cls-3" cx="43.34" cy="49.36" r="1.84"/><circle class="cls-3" cx="49.58" cy="49.36" r="1.84"/><circle class="cls-3" cx="49.58" cy="55.47" r="1.84"/><circle class="cls-3" cx="49.58" cy="61.67" r="1.84"/></svg>