<svg id="Layer_1" data-name="Layer 1" xmlns="http://www.w3.org/2000/svg" viewBox="0 0 160.60964 161.04068">
  <defs>
    <style>
      .cls-1 {
        fill: #263b96;
      }

      .cls-2 {
        fill: #e7ebe8;
      }

      .cls-3 {
        fill: #cac9cc;
      }

      .cls-4 {
        fill: #bb7566;
      }

      .cls-5, .cls-6 {
        fill: none;
        stroke-linecap: round;
        stroke-linejoin: round;
        stroke-width: 4px;
      }

      .cls-5 {
        stroke: #263b96;
      }

      .cls-6 {
        stroke: #bb7566;
      }

      .cls-7 {
        font-size: 6.10178px;
        fill: #d1d3d4;
        font-family: Arial-BoldMT, Arial;
        font-weight: 700;
      }
    </style>
  </defs>
  <title>path-thumbnails</title>
  <rect class="cls-1" x="45.7762" y="1.0399" width="12.06758" height="12.06758"/>
  <rect class="cls-2" width="14.11711" height="14.11711"/>
  <rect class="cls-2" x="14.94356" y="0.01514" width="14.11711" height="14.11711"/>
  <rect class="cls-2" x="29.82741" y="0.01809" width="14.11711" height="14.11711"/>
  <rect class="cls-2" y="14.94643" width="14.11711" height="14.11711"/>
  <rect class="cls-2" x="14.94356" y="14.96157" width="14.11711" height="14.11711"/>
  <rect class="cls-2" x="29.82741" y="14.96452" width="14.11711" height="14.11711"/>
  <rect class="cls-2" x="44.75144" y="14.97044" width="14.11711" height="14.11711"/>
  <rect class="cls-2" y="29.82863" width="14.11711" height="14.11711"/>
  <rect class="cls-2" x="14.94356" y="29.84376" width="14.11711" height="14.11711"/>
  <rect class="cls-2" x="29.82741" y="29.84672" width="14.11711" height="14.11711"/>
  <rect class="cls-2" x="44.75144" y="29.85263" width="14.11711" height="14.11711"/>
  <rect class="cls-2" y="44.77506" width="14.11711" height="14.11711"/>
  <rect class="cls-2" x="14.94356" y="44.79019" width="14.11711" height="14.11711"/>
  <rect class="cls-2" x="29.82741" y="44.79315" width="14.11711" height="14.11711"/>
  <rect class="cls-2" x="44.75144" y="44.79906" width="14.11711" height="14.11711"/>
  <rect class="cls-2" y="59.70802" width="14.11711" height="14.11711"/>
  <rect class="cls-2" x="14.94356" y="59.72315" width="14.11711" height="14.11711"/>
  <rect class="cls-2" x="29.82742" y="59.7261" width="14.11711" height="14.1171"/>
  <rect class="cls-2" x="44.75144" y="59.73202" width="14.11711" height="14.11711"/>
  <circle class="cls-3" cx="7.05855" cy="7.05855" r="4.4714"/>
  <circle class="cls-3" cx="22.00211" cy="7.07961" r="4.4714"/>
  <circle class="cls-3" cx="51.79578" cy="37.05239" r="4.4714"/>
  <circle class="cls-3" cx="6.96892" cy="51.88548" r="4.4714"/>
  <circle class="cls-3" cx="21.91247" cy="51.83361" r="4.4714"/>
  <circle class="cls-3" cx="51.79578" cy="51.872" r="4.4714"/>
  <circle class="cls-3" cx="6.96892" cy="66.93288" r="4.4714"/>
  <circle class="cls-3" cx="21.91247" cy="67.24898" r="4.4714"/>
  <circle class="cls-3" cx="51.79578" cy="66.91941" r="4.4714"/>
  <rect class="cls-4" x="60.0158" y="0.53469" width="13.87412" height="73.06993"/>
  <circle class="cls-3" cx="37.12493" cy="7.07961" r="4.4714"/>
  <circle class="cls-3" cx="21.91247" cy="22.03952" r="4.4714"/>
  <circle class="cls-3" cx="37.0353" cy="22.03952" r="4.4714"/>
  <circle class="cls-3" cx="51.79578" cy="22.00499" r="4.4714"/>
  <circle class="cls-3" cx="6.96892" cy="37.06587" r="4.4714"/>
  <circle class="cls-3" cx="21.91247" cy="37.08692" r="4.4714"/>
  <circle class="cls-3" cx="37.0353" cy="37.08692" r="4.4714"/>
  <circle class="cls-3" cx="37.0353" cy="51.90653" r="4.4714"/>
  <circle class="cls-3" cx="37.0353" cy="66.95394" r="4.47141"/>
  <path class="cls-5" d="M46.46927,7.07583H41.56611a4.45283,4.45283,0,0,0-4.4554,4.45539l-.09141,6.0529a4.45284,4.45284,0,0,1-4.4554,4.4554l-6.16119-.01778a4.45284,4.45284,0,0,0-4.4554,4.4554l.01136,6.22052a4.45284,4.45284,0,0,1-4.4554,4.4554H6.96892"/>
  <circle class="cls-3" cx="6.95141" cy="21.88931" r="4.4714"/>
  <rect class="cls-1" x="45.79453" y="87.67725" width="12.06758" height="12.06758"/>
  <rect class="cls-2" x="0.01832" y="86.63735" width="14.11711" height="14.11711"/>
  <rect class="cls-2" x="14.96188" y="86.65248" width="14.11711" height="14.11711"/>
  <rect class="cls-2" x="29.84574" y="86.65544" width="14.11711" height="14.11711"/>
  <rect class="cls-2" x="0.01832" y="101.58378" width="14.11711" height="14.11711"/>
  <rect class="cls-2" x="14.96188" y="101.59892" width="14.11711" height="14.11711"/>
  <rect class="cls-2" x="29.84574" y="101.60187" width="14.11711" height="14.11711"/>
  <rect class="cls-2" x="44.76976" y="101.60778" width="14.11711" height="14.11711"/>
  <rect class="cls-2" x="0.01832" y="116.46597" width="14.11711" height="14.11711"/>
  <rect class="cls-2" x="14.96188" y="116.48111" width="14.11711" height="14.11711"/>
  <rect class="cls-2" x="29.84574" y="116.48406" width="14.11711" height="14.11711"/>
  <rect class="cls-2" x="44.76976" y="116.48997" width="14.11711" height="14.11711"/>
  <rect class="cls-2" x="0.01832" y="131.41241" width="14.11711" height="14.11711"/>
  <rect class="cls-2" x="14.96188" y="131.42754" width="14.11711" height="14.11711"/>
  <rect class="cls-2" x="29.84574" y="131.4305" width="14.11711" height="14.11711"/>
  <rect class="cls-2" x="44.76976" y="131.43641" width="14.11711" height="14.11711"/>
  <rect class="cls-2" x="0.01832" y="146.34536" width="14.11711" height="14.11711"/>
  <rect class="cls-2" x="14.96188" y="146.3605" width="14.11711" height="14.11711"/>
  <rect class="cls-2" x="29.84574" y="146.36345" width="14.11711" height="14.1171"/>
  <rect class="cls-2" x="44.76976" y="146.36936" width="14.11711" height="14.11711"/>
  <circle class="cls-3" cx="7.07688" cy="93.6959" r="4.4714"/>
  <circle class="cls-3" cx="22.02043" cy="93.71695" r="4.4714"/>
  <circle class="cls-3" cx="51.81411" cy="123.68974" r="4.4714"/>
  <circle class="cls-3" cx="6.98724" cy="138.52283" r="4.4714"/>
  <circle class="cls-3" cx="21.9308" cy="138.47096" r="4.4714"/>
  <circle class="cls-3" cx="51.81411" cy="138.50935" r="4.4714"/>
  <circle class="cls-3" cx="6.98724" cy="153.57023" r="4.4714"/>
  <circle class="cls-3" cx="21.9308" cy="153.88633" r="4.4714"/>
  <circle class="cls-3" cx="51.81411" cy="153.55676" r="4.4714"/>
  <rect class="cls-4" x="60.03412" y="87.17204" width="13.87412" height="73.06993"/>
  <circle class="cls-3" cx="37.14326" cy="93.71695" r="4.4714"/>
  <circle class="cls-3" cx="21.9308" cy="108.67686" r="4.4714"/>
  <circle class="cls-3" cx="37.05362" cy="108.67686" r="4.4714"/>
  <circle class="cls-3" cx="51.81411" cy="108.64234" r="4.4714"/>
  <circle class="cls-3" cx="6.98724" cy="123.70322" r="4.4714"/>
  <circle class="cls-3" cx="21.9308" cy="123.72427" r="4.4714"/>
  <circle class="cls-3" cx="37.05362" cy="123.72427" r="4.4714"/>
  <circle class="cls-3" cx="37.05362" cy="138.54388" r="4.4714"/>
  <circle class="cls-3" cx="37.05362" cy="153.59128" r="4.47141"/>
  <path class="cls-6" d="M37.01608,153.98571V113.15458a4.49864,4.49864,0,0,1,4.50123-4.50123H60.94678"/>
  <circle class="cls-3" cx="6.96973" cy="108.52666" r="4.4714"/>
  <rect class="cls-1" x="132.49593" y="88.21668" width="12.06758" height="12.06758"/>
  <rect class="cls-2" x="86.71973" y="87.17678" width="14.11711" height="14.11711"/>
  <rect class="cls-2" x="101.66328" y="87.19192" width="14.11711" height="14.11711"/>
  <rect class="cls-2" x="116.54714" y="87.19487" width="14.11711" height="14.11711"/>
  <rect class="cls-2" x="86.71973" y="102.12321" width="14.11711" height="14.11711"/>
  <rect class="cls-2" x="101.66328" y="102.13835" width="14.11711" height="14.11711"/>
  <rect class="cls-2" x="116.54714" y="102.1413" width="14.11711" height="14.11711"/>
  <rect class="cls-2" x="131.47117" y="102.14722" width="14.11711" height="14.11711"/>
  <rect class="cls-2" x="86.71973" y="117.00541" width="14.11711" height="14.11711"/>
  <rect class="cls-2" x="101.66328" y="117.02054" width="14.11711" height="14.11711"/>
  <rect class="cls-2" x="116.54714" y="117.0235" width="14.11711" height="14.11711"/>
  <rect class="cls-2" x="131.47117" y="117.02941" width="14.11711" height="14.11711"/>
  <rect class="cls-2" x="86.71973" y="131.95184" width="14.11711" height="14.11711"/>
  <rect class="cls-2" x="101.66328" y="131.96698" width="14.11711" height="14.11711"/>
  <rect class="cls-2" x="116.54714" y="131.96993" width="14.11711" height="14.11711"/>
  <rect class="cls-2" x="131.47117" y="131.97584" width="14.11711" height="14.11711"/>
  <rect class="cls-2" x="86.71973" y="146.8848" width="14.11711" height="14.11711"/>
  <rect class="cls-2" x="101.66328" y="146.89993" width="14.11711" height="14.11711"/>
  <rect class="cls-2" x="116.54714" y="146.90289" width="14.11711" height="14.1171"/>
  <rect class="cls-2" x="131.47117" y="146.9088" width="14.11711" height="14.11711"/>
  <circle class="cls-3" cx="93.77828" cy="94.23533" r="4.4714"/>
  <circle class="cls-3" cx="108.72184" cy="94.25639" r="4.4714"/>
  <circle class="cls-3" cx="138.51551" cy="124.22917" r="4.4714"/>
  <circle class="cls-3" cx="93.68865" cy="139.06226" r="4.4714"/>
  <circle class="cls-3" cx="108.6322" cy="139.01039" r="4.4714"/>
  <circle class="cls-3" cx="138.51551" cy="139.04878" r="4.4714"/>
  <circle class="cls-3" cx="93.68865" cy="154.10967" r="4.4714"/>
  <circle class="cls-3" cx="108.6322" cy="154.42576" r="4.4714"/>
  <circle class="cls-3" cx="138.51551" cy="154.09619" r="4.4714"/>
  <rect class="cls-4" x="146.73552" y="87.71147" width="13.87412" height="73.06993"/>
  <circle class="cls-3" cx="123.84466" cy="94.25639" r="4.4714"/>
  <circle class="cls-3" cx="108.6322" cy="109.2163" r="4.4714"/>
  <circle class="cls-3" cx="123.75503" cy="109.2163" r="4.4714"/>
  <circle class="cls-3" cx="138.51551" cy="109.18177" r="4.4714"/>
  <circle class="cls-3" cx="93.68865" cy="124.24265" r="4.4714"/>
  <circle class="cls-3" cx="108.6322" cy="124.2637" r="4.4714"/>
  <circle class="cls-3" cx="123.75503" cy="124.2637" r="4.4714"/>
  <circle class="cls-3" cx="123.75503" cy="139.08331" r="4.4714"/>
  <circle class="cls-3" cx="123.75503" cy="154.13072" r="4.47141"/>
  <path class="cls-5" d="M123.71748,154.52514V113.694l.02154-8.93311.09142-6.05289a4.45283,4.45283,0,0,1,4.4554-4.4554H133.189"/>
  <circle class="cls-3" cx="93.67113" cy="109.06609" r="4.4714"/>
  <rect class="cls-1" x="132.52052" y="1.53191" width="12.06758" height="12.06758"/>
  <rect class="cls-2" x="86.74432" y="0.49201" width="14.11711" height="14.11711"/>
  <rect class="cls-2" x="101.68787" y="0.50714" width="14.11711" height="14.11711"/>
  <rect class="cls-2" x="116.57173" y="0.5101" width="14.11711" height="14.11711"/>
  <rect class="cls-2" x="86.74432" y="15.43844" width="14.11711" height="14.11711"/>
  <rect class="cls-2" x="101.68787" y="15.45358" width="14.11711" height="14.11711"/>
  <rect class="cls-2" x="116.57173" y="15.45653" width="14.11711" height="14.11711"/>
  <rect class="cls-2" x="131.49576" y="15.46244" width="14.11711" height="14.11711"/>
  <rect class="cls-2" x="86.74432" y="30.32063" width="14.11711" height="14.11711"/>
  <rect class="cls-2" x="101.68787" y="30.33577" width="14.11711" height="14.11711"/>
  <rect class="cls-2" x="116.57173" y="30.33872" width="14.11711" height="14.11711"/>
  <rect class="cls-2" x="131.49576" y="30.34464" width="14.11711" height="14.11711"/>
  <rect class="cls-2" x="86.74432" y="45.26707" width="14.11711" height="14.11711"/>
  <rect class="cls-2" x="101.68787" y="45.2822" width="14.11711" height="14.11711"/>
  <rect class="cls-2" x="116.57173" y="45.28516" width="14.11711" height="14.11711"/>
  <rect class="cls-2" x="131.49576" y="45.29107" width="14.11711" height="14.11711"/>
  <rect class="cls-2" x="86.74432" y="60.20002" width="14.11711" height="14.11711"/>
  <rect class="cls-2" x="101.68787" y="60.21516" width="14.11711" height="14.11711"/>
  <rect class="cls-2" x="116.57173" y="60.21811" width="14.11711" height="14.1171"/>
  <rect class="cls-2" x="131.49576" y="60.22403" width="14.11711" height="14.11711"/>
  <circle class="cls-3" cx="93.80287" cy="7.55056" r="4.4714"/>
  <circle class="cls-3" cx="108.74643" cy="7.57161" r="4.4714"/>
  <circle class="cls-3" cx="138.5401" cy="37.5444" r="4.4714"/>
  <circle class="cls-3" cx="93.71324" cy="52.37749" r="4.4714"/>
  <circle class="cls-3" cx="108.65679" cy="52.32562" r="4.4714"/>
  <circle class="cls-3" cx="138.5401" cy="52.36401" r="4.4714"/>
  <circle class="cls-3" cx="93.71324" cy="67.42489" r="4.4714"/>
  <circle class="cls-3" cx="108.65679" cy="67.74099" r="4.4714"/>
  <circle class="cls-3" cx="138.5401" cy="67.41142" r="4.4714"/>
  <rect class="cls-4" x="146.76011" y="1.0267" width="13.87412" height="73.06993"/>
  <circle class="cls-3" cx="123.86925" cy="7.57161" r="4.4714"/>
  <circle class="cls-3" cx="108.65679" cy="22.53152" r="4.4714"/>
  <circle class="cls-3" cx="123.77962" cy="22.53152" r="4.4714"/>
  <circle class="cls-3" cx="138.5401" cy="22.497" r="4.4714"/>
  <circle class="cls-3" cx="93.71324" cy="37.55788" r="4.4714"/>
  <circle class="cls-3" cx="108.65679" cy="37.57893" r="4.4714"/>
  <circle class="cls-3" cx="123.77962" cy="37.57893" r="4.4714"/>
  <circle class="cls-3" cx="123.77962" cy="52.39854" r="4.4714"/>
  <circle class="cls-3" cx="123.77962" cy="67.44594" r="4.47141"/>
  <path class="cls-6" d="M93.71324,37.64507h10.53435a4.45284,4.45284,0,0,0,4.4554-4.4554l-.01136-6.22052a4.45284,4.45284,0,0,1,4.4554-4.4554l6.16118.01777,8.9351-.02351h19.42946"/>
  <circle class="cls-3" cx="93.69572" cy="22.38132" r="4.4714"/>
  <text class="cls-7" transform="translate(47.32765 8.39037)">+2</text>
  <text class="cls-7" transform="translate(62.47706 110.95336)">-1</text>
  <text class="cls-7" transform="translate(149.20362 24.80785)">-1</text>
  <text class="cls-7" transform="translate(134.04737 95.56713)">+2</text>
</svg>
