<svg id="Layer_1" data-name="Layer 1" xmlns="http://www.w3.org/2000/svg" viewBox="0 0 305.95 229.27"><defs><style>.cls-1{fill:#aa1e22;}.cls-2{fill:#2c3592;}.cls-3{fill:#e7ebe8;}.cls-4{fill:#efedf6;}.cls-5{fill:#231f20;}.cls-6{font-size:11px;fill:#58595b;font-family:MyriadPro-Semibold, Myriad Pro;font-weight:700;}.cls-7{letter-spacing:-0.03em;}.cls-8{letter-spacing:0.02em;}.cls-9{letter-spacing:-0.03em;}.cls-10{letter-spacing:0.01em;}.cls-11{fill:#cac9cc;}.cls-12,.cls-30{fill:none;stroke-miterlimit:10;stroke-width:2px;}.cls-12{stroke:#231f20;}.cls-13{letter-spacing:-0.01em;}.cls-14{fill:#7272af;}.cls-15{fill:#4e4ea1;}.cls-16{fill:#d0d0e3;}.cls-17{fill:#9999c1;}.cls-18{fill:#b9b9d5;}.cls-19{fill:#d3d3e5;}.cls-20{fill:#d9a0a7;}.cls-21{fill:#c15d65;}.cls-22{letter-spacing:-0.04em;}.cls-23{letter-spacing:0.02em;}.cls-24{font-size:9.98px;}.cls-24,.cls-38{fill:#515151;}.cls-24,.cls-32,.cls-38{font-family:MyriadPro-Regular, Myriad Pro;}.cls-25{letter-spacing:0.02em;}.cls-26{letter-spacing:-0.02em;}.cls-27{letter-spacing:0.02em;}.cls-28{letter-spacing:0em;}.cls-29{letter-spacing:-0.01em;}.cls-30{stroke:#696868;}.cls-31{fill:#696868;}.cls-32{font-size:8px;fill:#f15a29;}.cls-33{letter-spacing:0.01em;}.cls-34{letter-spacing:-0.01em;}.cls-35{letter-spacing:-0.01em;}.cls-36{letter-spacing:0.02em;}.cls-37{letter-spacing:0em;}.cls-38{font-size:9.98px;}.cls-39{letter-spacing:-0.03em;}.cls-40{letter-spacing:0em;}</style></defs><title>policy-value-iteration-2</title><rect class="cls-1" x="69.07" y="13.84" width="15.54" height="81.85"/><rect class="cls-2" x="53.12" y="14.41" width="13.52" height="13.52"/><rect class="cls-3" x="1.84" y="13.25" width="15.81" height="15.81"/><polygon class="cls-4" points="9.73 27.02 13.02 25.38 6.45 25.38 9.73 27.02"/><polygon class="cls-5" points="15.58 21.16 13.94 17.87 13.94 24.44 15.58 21.16"/><rect class="cls-3" x="18.58" y="13.26" width="15.81" height="15.81"/><polygon class="cls-4" points="20.66 21.17 22.3 24.46 22.3 17.88 20.66 21.17"/><polygon class="cls-4" points="26.48 27.04 29.76 25.4 23.19 25.4 26.48 27.04"/><polygon class="cls-5" points="32.32 21.17 30.68 17.89 30.68 24.46 32.32 21.17"/><rect class="cls-3" x="35.26" y="13.27" width="15.81" height="15.81"/><polygon class="cls-4" points="37.34 21.17 38.98 24.46 38.98 17.88 37.34 21.17"/><polygon class="cls-4" points="43.15 27.04 46.44 25.4 39.86 25.4 43.15 27.04"/><polygon class="cls-5" points="48.99 21.18 47.35 17.89 47.35 24.46 48.99 21.18"/><rect class="cls-3" x="1.84" y="29.99" width="15.81" height="15.81"/><polygon class="cls-4" points="9.73 43.76 13.02 42.13 6.45 42.13 9.73 43.76"/><polygon class="cls-4" points="15.58 37.9 13.94 34.61 13.94 41.19 15.58 37.9"/><polygon class="cls-5" points="9.73 32.06 6.45 33.7 13.02 33.7 9.73 32.06"/><rect class="cls-3" x="18.58" y="30.01" width="15.81" height="15.81"/><polygon class="cls-4" points="20.66 37.91 22.3 41.2 22.3 34.62 20.66 37.91"/><polygon class="cls-4" points="26.48 43.78 29.76 42.14 23.19 42.14 26.48 43.78"/><polygon class="cls-4" points="32.32 37.92 30.68 34.63 30.68 41.2 32.32 37.92"/><polygon class="cls-5" points="26.48 32.08 23.19 33.72 29.76 33.72 26.48 32.08"/><rect class="cls-3" x="35.26" y="30.01" width="15.81" height="15.81"/><polygon class="cls-4" points="37.34 37.91 38.98 41.2 38.98 34.63 37.34 37.91"/><polygon class="cls-4" points="43.15 43.78 46.44 42.15 39.86 42.15 43.15 43.78"/><polygon class="cls-4" points="48.99 37.92 47.35 34.63 47.35 41.21 48.99 37.92"/><polygon class="cls-5" points="43.15 32.08 39.86 33.72 46.44 33.72 43.15 32.08"/><rect class="cls-3" x="51.98" y="30.02" width="15.81" height="15.81"/><polygon class="cls-4" points="54.06 37.92 55.69 41.21 55.69 34.63 54.06 37.92"/><polygon class="cls-4" points="59.87 43.79 63.15 42.15 56.58 42.15 59.87 43.79"/><polygon class="cls-4" points="65.71 37.93 64.07 34.64 64.07 41.21 65.71 37.93"/><polygon class="cls-5" points="59.87 32.09 56.58 33.73 63.15 33.73 59.87 32.09"/><rect class="cls-3" x="1.84" y="46.66" width="15.81" height="15.81"/><polygon class="cls-4" points="9.73 60.43 13.02 58.8 6.45 58.8 9.73 60.43"/><polygon class="cls-4" points="15.58 54.57 13.94 51.28 13.94 57.86 15.58 54.57"/><polygon class="cls-5" points="9.73 48.73 6.45 50.37 13.02 50.37 9.73 48.73"/><rect class="cls-3" x="18.58" y="46.68" width="15.81" height="15.81"/><polygon class="cls-4" points="20.66 54.58 22.3 57.87 22.3 51.3 20.66 54.58"/><polygon class="cls-4" points="26.48 60.45 29.76 58.81 23.19 58.81 26.48 60.45"/><polygon class="cls-4" points="32.32 54.59 30.68 51.3 30.68 57.88 32.32 54.59"/><polygon class="cls-5" points="26.48 48.75 23.19 50.39 29.76 50.39 26.48 48.75"/><rect class="cls-3" x="35.26" y="46.68" width="15.81" height="15.81"/><polygon class="cls-4" points="37.34 54.59 38.98 57.87 38.98 51.3 37.34 54.59"/><polygon class="cls-4" points="43.15 60.45 46.44 58.82 39.86 58.82 43.15 60.45"/><polygon class="cls-4" points="48.99 54.59 47.35 51.3 47.35 57.88 48.99 54.59"/><polygon class="cls-5" points="43.15 48.75 39.86 50.39 46.44 50.39 43.15 48.75"/><rect class="cls-3" x="51.98" y="46.69" width="15.81" height="15.81"/><polygon class="cls-4" points="54.06 54.59 55.69 57.88 55.69 51.31 54.06 54.59"/><polygon class="cls-4" points="59.87 60.46 63.15 58.82 56.58 58.82 59.87 60.46"/><polygon class="cls-4" points="65.71 54.6 64.07 51.31 64.07 57.88 65.71 54.6"/><polygon class="cls-5" points="59.87 48.76 56.58 50.4 63.15 50.4 59.87 48.76"/><rect class="cls-3" x="1.84" y="63.4" width="15.81" height="15.81"/><polygon class="cls-4" points="9.73 77.18 13.02 75.54 6.45 75.54 9.73 77.18"/><polygon class="cls-4" points="15.58 71.31 13.94 68.03 13.94 74.6 15.58 71.31"/><polygon class="cls-5" points="9.73 65.48 6.45 67.11 13.02 67.11 9.73 65.48"/><rect class="cls-3" x="18.58" y="63.42" width="15.81" height="15.81"/><polygon class="cls-5" points="20.66 71.33 22.3 74.61 22.3 68.04 20.66 71.33"/><polygon class="cls-4" points="26.48 77.19 29.76 75.56 23.19 75.56 26.48 77.19"/><polygon class="cls-4" points="32.32 71.33 30.68 68.04 30.68 74.62 32.32 71.33"/><polygon class="cls-4" points="26.48 65.49 23.19 67.13 29.76 67.13 26.48 65.49"/><rect class="cls-3" x="35.26" y="63.42" width="15.81" height="15.81"/><polygon class="cls-5" points="37.34 71.33 38.98 74.62 38.98 68.04 37.34 71.33"/><polygon class="cls-4" points="43.15 77.2 46.44 75.56 39.86 75.56 43.15 77.2"/><polygon class="cls-4" points="48.99 71.33 47.35 68.05 47.35 74.62 48.99 71.33"/><polygon class="cls-4" points="43.15 65.5 39.86 67.14 46.44 67.14 43.15 65.5"/><rect class="cls-3" x="51.98" y="63.43" width="15.81" height="15.81"/><polygon class="cls-5" points="54.06 71.34 55.69 74.62 55.69 68.05 54.06 71.34"/><polygon class="cls-4" points="59.87 77.2 63.15 75.57 56.58 75.57 59.87 77.2"/><polygon class="cls-4" points="65.71 71.34 64.07 68.05 64.07 74.63 65.71 71.34"/><polygon class="cls-4" points="59.87 65.5 56.58 67.14 63.15 67.14 59.87 65.5"/><rect class="cls-3" x="1.84" y="80.13" width="15.81" height="15.81"/><polygon class="cls-4" points="15.58 88.04 13.94 84.75 13.94 91.33 15.58 88.04"/><polygon class="cls-5" points="9.73 82.21 6.45 83.84 13.02 83.84 9.73 82.21"/><rect class="cls-3" x="18.58" y="80.15" width="15.81" height="15.81"/><polygon class="cls-5" points="20.66 88.06 22.3 91.34 22.3 84.77 20.66 88.06"/><polygon class="cls-4" points="32.32 88.06 30.68 84.77 30.68 91.35 32.32 88.06"/><polygon class="cls-4" points="26.48 82.22 23.19 83.86 29.76 83.86 26.48 82.22"/><rect class="cls-3" x="35.26" y="80.15" width="15.81" height="15.81"/><polygon class="cls-5" points="37.34 88.06 38.98 91.35 38.98 84.77 37.34 88.06"/><polygon class="cls-4" points="48.99 88.06 47.35 84.77 47.35 91.35 48.99 88.06"/><polygon class="cls-4" points="43.15 82.23 39.86 83.86 46.44 83.86 43.15 82.23"/><rect class="cls-3" x="51.98" y="80.16" width="15.81" height="15.81"/><polygon class="cls-5" points="54.06 88.06 55.69 91.35 55.69 84.78 54.06 88.06"/><polygon class="cls-4" points="65.71 88.07 64.07 84.78 64.07 91.36 65.71 88.07"/><polygon class="cls-4" points="59.87 82.23 56.58 83.87 63.15 83.87 59.87 82.23"/><text class="cls-6" transform="translate(6.82 9.81)"><tspan class="cls-7">P</tspan><tspan x="5.87" y="0">oli</tspan><tspan class="cls-8" x="17.72" y="0">c</tspan><tspan x="22.84" y="0">y </tspan><tspan class="cls-9" x="30.61" y="0">F</tspan><tspan x="35.87" y="0">un</tspan><tspan class="cls-10" x="48.42" y="0">c</tspan><tspan x="53.52" y="0">tion</tspan></text><rect class="cls-3" x="204.35" y="15.82" width="15.88" height="15.88"/><rect class="cls-3" x="221.15" y="15.84" width="15.88" height="15.88"/><rect class="cls-3" x="237.89" y="15.84" width="15.88" height="15.88"/><rect class="cls-3" x="204.35" y="32.63" width="15.88" height="15.88"/><rect class="cls-3" x="221.15" y="32.65" width="15.88" height="15.88"/><rect class="cls-3" x="237.89" y="32.65" width="15.88" height="15.88"/><rect class="cls-3" x="254.67" y="32.66" width="15.88" height="15.88"/><rect class="cls-3" x="204.35" y="49.37" width="15.88" height="15.88"/><rect class="cls-3" x="221.15" y="49.38" width="15.88" height="15.88"/><rect class="cls-3" x="237.89" y="49.39" width="15.88" height="15.88"/><rect class="cls-3" x="254.67" y="49.39" width="15.88" height="15.88"/><rect class="cls-3" x="204.35" y="66.18" width="15.88" height="15.88"/><rect class="cls-3" x="221.15" y="66.19" width="15.88" height="15.88"/><rect class="cls-3" x="237.89" y="66.2" width="15.88" height="15.88"/><rect class="cls-3" x="254.67" y="66.2" width="15.88" height="15.88"/><rect class="cls-3" x="204.35" y="82.97" width="15.88" height="15.88"/><rect class="cls-3" x="221.15" y="82.99" width="15.88" height="15.88"/><rect class="cls-3" x="237.89" y="82.99" width="15.88" height="15.88"/><rect class="cls-3" x="254.67" y="83" width="15.88" height="15.88"/><circle class="cls-11" cx="212.28" cy="23.76" r="5.03"/><circle class="cls-11" cx="229.09" cy="23.78" r="5.03"/><circle class="cls-11" cx="246.1" cy="23.78" r="5.03"/><circle class="cls-11" cx="212.18" cy="40.58" r="5.03"/><circle class="cls-11" cx="228.99" cy="40.61" r="5.03"/><circle class="cls-11" cx="246" cy="40.61" r="5.03"/><circle class="cls-11" cx="262.6" cy="40.57" r="5.03"/><circle class="cls-11" cx="212.18" cy="57.51" r="5.03"/><circle class="cls-11" cx="228.99" cy="57.53" r="5.03"/><circle class="cls-11" cx="246" cy="57.53" r="5.03"/><circle class="cls-11" cx="262.6" cy="57.49" r="5.03"/><circle class="cls-11" cx="212.18" cy="74.17" r="5.03"/><circle class="cls-11" cx="228.99" cy="74.11" r="5.03"/><circle class="cls-11" cx="246" cy="74.2" r="5.03"/><circle class="cls-11" cx="262.6" cy="74.16" r="5.03"/><circle class="cls-11" cx="212.18" cy="91.09" r="5.03"/><circle class="cls-11" cx="228.99" cy="91.45" r="5.03"/><circle class="cls-11" cx="246" cy="91.12" r="5.03"/><circle class="cls-11" cx="262.6" cy="91.08" r="5.03"/><polyline class="cls-12" points="212.18 57.51 246 57.51 246 74.19 228.99 74.11 228.99 40.61 246 40.61 246.1 23.78 262.61 23.78"/><line class="cls-12" x1="228.99" y1="91.45" x2="279.64" y2="91.45"/><rect class="cls-1" x="271.84" y="16.42" width="15.6" height="82.17"/><rect class="cls-2" x="255.83" y="16.99" width="13.57" height="13.57"/><text class="cls-6" transform="translate(219.68 12.38)">Experien<tspan class="cls-13" x="41.91" y="0">c</tspan><tspan x="46.75" y="0">e</tspan></text><rect class="cls-1" x="171.53" y="146.4" width="15.6" height="82.17"/><rect class="cls-2" x="155.51" y="146.97" width="13.57" height="13.57"/><rect class="cls-3" x="104.03" y="145.8" width="15.88" height="15.88"/><rect class="cls-3" x="120.84" y="145.82" width="15.88" height="15.88"/><rect class="cls-3" x="137.58" y="145.82" width="15.88" height="15.88"/><rect class="cls-3" x="104.03" y="162.61" width="15.88" height="15.88"/><rect class="cls-3" x="120.84" y="162.63" width="15.88" height="15.88"/><rect class="cls-3" x="137.58" y="162.63" width="15.88" height="15.88"/><rect class="cls-3" x="154.36" y="162.64" width="15.88" height="15.88"/><rect class="cls-3" x="104.03" y="179.35" width="15.88" height="15.88"/><rect class="cls-3" x="120.84" y="179.36" width="15.88" height="15.88"/><rect class="cls-3" x="137.58" y="179.37" width="15.88" height="15.88"/><rect class="cls-3" x="154.36" y="179.37" width="15.88" height="15.88"/><rect class="cls-3" x="104.03" y="196.16" width="15.88" height="15.88"/><rect class="cls-3" x="120.84" y="196.17" width="15.88" height="15.88"/><rect class="cls-3" x="137.58" y="196.18" width="15.88" height="15.88"/><rect class="cls-3" x="154.36" y="196.18" width="15.88" height="15.88"/><rect class="cls-3" x="104.03" y="212.95" width="15.88" height="15.88"/><rect class="cls-3" x="120.84" y="212.97" width="15.88" height="15.88"/><rect class="cls-3" x="137.58" y="212.97" width="15.88" height="15.88"/><rect class="cls-3" x="154.36" y="212.98" width="15.88" height="15.88"/><circle class="cls-11" cx="111.97" cy="153.74" r="5.03"/><circle class="cls-11" cx="128.78" cy="153.76" r="5.03"/><circle class="cls-2" cx="145.78" cy="153.76" r="5.03"/><circle class="cls-11" cx="111.87" cy="170.56" r="5.03"/><circle class="cls-14" cx="128.67" cy="170.59" r="5.03"/><circle class="cls-15" cx="145.68" cy="170.59" r="5.03"/><circle class="cls-11" cx="162.28" cy="170.55" r="5.03"/><circle class="cls-16" cx="111.87" cy="187.49" r="5.03"/><circle class="cls-17" cx="128.67" cy="187.51" r="5.03"/><circle class="cls-18" cx="145.68" cy="187.51" r="5.03"/><circle class="cls-11" cx="162.28" cy="187.47" r="5.03"/><circle class="cls-11" cx="111.87" cy="204.15" r="5.03"/><circle class="cls-16" cx="128.67" cy="204.09" r="5.03"/><circle class="cls-19" cx="145.68" cy="204.18" r="5.03"/><circle class="cls-11" cx="162.28" cy="204.14" r="5.03"/><circle class="cls-11" cx="111.87" cy="221.08" r="5.03"/><circle class="cls-20" cx="128.67" cy="221.43" r="5.03"/><circle class="cls-21" cx="145.68" cy="221.1" r="5.03"/><circle class="cls-1" cx="162.28" cy="221.06" r="5.03"/><text class="cls-6" transform="translate(110.13 142.18)"><tspan class="cls-22">V</tspan><tspan x="6.19" y="0">alue </tspan><tspan class="cls-9" x="28.82" y="0">F</tspan><tspan x="34.08" y="0">un</tspan><tspan class="cls-23" x="46.63" y="0">c</tspan><tspan x="51.73" y="0">tion</tspan></text><text class="cls-24" transform="translate(109.39 48.05)">Running poli<tspan class="cls-25" x="53.37" y="0">c</tspan><tspan x="58.02" y="0">y</tspan></text><text class="cls-24" transform="translate(12.57 155.51)"><tspan class="cls-26">P</tspan><tspan x="5.06" y="0">oli</tspan><tspan class="cls-27" x="15.23" y="0">c</tspan><tspan x="19.88" y="0">y upd</tspan><tspan class="cls-28" x="43.51" y="0">a</tspan><tspan class="cls-29" x="48.28" y="0">t</tspan><tspan x="51.52" y="0">e</tspan></text><line class="cls-30" x1="100.98" y1="56.74" x2="179.04" y2="57.12"/><path class="cls-31" d="M188.7,57.17c-4.55,1.66-10.2,4.51-13.71,7.54l2.79-7.59-2.72-7.63C178.54,52.56,184.16,55.46,188.7,57.17Z"/><line class="cls-30" x1="251.13" y1="114.74" x2="209.11" y2="151.59"/><path class="cls-31" d="M201.85,158c2.3-4.26,4.64-10.14,5.26-14.74l2.95,7.54,7.09,3.9C212.51,154.68,206.37,156.23,201.85,158Z"/><line class="cls-30" x1="85.81" y1="157.96" x2="43.79" y2="121.11"/><path class="cls-31" d="M36.53,114.74c4.53,1.73,10.67,3.29,15.3,3.3L44.75,122l-3,7.53C41.18,124.89,38.84,119,36.53,114.74Z"/><text class="cls-32" transform="translate(224.97 160.33)">o<tspan class="cls-33" x="4.39" y="0">f</tspan><tspan class="cls-34" x="6.82" y="0">t</tspan><tspan x="9.42" y="0">en the ha</tspan><tspan class="cls-35" x="40.65" y="0">r</tspan><tspan x="43.18" y="0">dest pa</tspan><tspan class="cls-36" x="67.62" y="0">r</tspan><tspan class="cls-37" x="70.43" y="0">t!</tspan></text><text class="cls-38" transform="translate(233.06 150.06)"><tspan class="cls-39">V</tspan><tspan x="5.24" y="0">alue lea</tspan><tspan class="cls-40" x="37.19" y="0">r</tspan><tspan x="40.49" y="0">ning</tspan></text></svg>