<svg id="Layer_1" data-name="Layer 1" xmlns="http://www.w3.org/2000/svg" viewBox="0 0 295.52 223.05"><defs><style>.cls-1,.cls-14{fill:none;}.cls-1,.cls-26{stroke:#6a6868;}.cls-1,.cls-14,.cls-2,.cls-26{stroke-miterlimit:10;}.cls-1{stroke-width:3px;}.cls-2{fill:#fff;stroke:#fff;stroke-width:12px;}.cls-3{fill:#aa1e22;}.cls-4{fill:#2c3592;}.cls-5{fill:#e7ebe8;}.cls-6{fill:#efedf6;}.cls-7{fill:#231f20;}.cls-8{font-size:11.39px;fill:#58595b;font-family:MyriadPro-Semibold, Myriad Pro;font-weight:700;}.cls-9{letter-spacing:-0.02em;}.cls-10{letter-spacing:0.02em;}.cls-11{letter-spacing:-0.03em;}.cls-12{letter-spacing:0.02em;}.cls-13{fill:#cac9cc;}.cls-14{stroke:#231f20;stroke-width:2px;}.cls-15{letter-spacing:-0.01em;}.cls-16{fill:#7272af;}.cls-17{fill:#4e4ea1;}.cls-18{fill:#d0d0e3;}.cls-19{fill:#9999c1;}.cls-20{fill:#b9b9d5;}.cls-21{fill:#d3d3e5;}.cls-22{fill:#d9a0a7;}.cls-23{fill:#c15d65;}.cls-24{letter-spacing:-0.04em;}.cls-25{letter-spacing:0.01em;}.cls-26{fill:#6c6868;}.cls-27{font-size:8.68px;fill:#515151;}.cls-27,.cls-32{font-family:MyriadPro-Regular, Myriad Pro;}.cls-28{letter-spacing:0.02em;}.cls-29{letter-spacing:-0.02em;}.cls-30{letter-spacing:0em;}.cls-31{letter-spacing:-0.01em;}.cls-32{font-size:7px;fill:#f15a29;}.cls-33{letter-spacing:0.01em;}.cls-34{letter-spacing:-0.01em;}.cls-35{letter-spacing:-0.01em;}.cls-36{letter-spacing:0.02em;}.cls-37{letter-spacing:-0.03em;}.cls-38{letter-spacing:0em;}</style></defs><title>policy-value-iteration</title><circle class="cls-1" cx="145.13" cy="105.97" r="92.75"/><rect class="cls-2" x="38.9" y="29.87" width="99.12" height="99.12"/><rect class="cls-3" x="111.63" y="49.1" width="13.51" height="71.16"/><rect class="cls-4" x="97.76" y="49.59" width="11.75" height="11.75"/><rect class="cls-5" x="53.18" y="48.58" width="13.75" height="13.75"/><polygon class="cls-6" points="60.04 60.55 62.9 59.13 57.18 59.13 60.04 60.55"/><polygon class="cls-7" points="65.12 55.45 63.69 52.59 63.69 58.31 65.12 55.45"/><rect class="cls-5" x="67.73" y="48.59" width="13.75" height="13.75"/><polygon class="cls-6" points="69.54 55.46 70.96 58.32 70.96 52.61 69.54 55.46"/><polygon class="cls-6" points="74.59 60.56 77.45 59.14 71.73 59.14 74.59 60.56"/><polygon class="cls-7" points="79.67 55.47 78.25 52.61 78.25 58.33 79.67 55.47"/><rect class="cls-5" x="82.23" y="48.59" width="13.75" height="13.75"/><polygon class="cls-6" points="84.04 55.47 85.46 58.33 85.46 52.61 84.04 55.47"/><polygon class="cls-6" points="89.09 60.57 91.94 59.14 86.23 59.14 89.09 60.57"/><polygon class="cls-7" points="94.17 55.47 92.74 52.61 92.74 58.33 94.17 55.47"/><rect class="cls-5" x="53.18" y="63.13" width="13.75" height="13.75"/><polygon class="cls-6" points="60.04 75.11 62.9 73.68 57.18 73.68 60.04 75.11"/><polygon class="cls-6" points="65.12 70.01 63.69 67.15 63.69 72.87 65.12 70.01"/><polygon class="cls-7" points="60.04 64.94 57.18 66.36 62.9 66.36 60.04 64.94"/><rect class="cls-5" x="67.73" y="63.15" width="13.75" height="13.75"/><polygon class="cls-6" points="69.54 70.02 70.96 72.88 70.96 67.16 69.54 70.02"/><polygon class="cls-6" points="74.59 75.12 77.45 73.7 71.73 73.7 74.59 75.12"/><polygon class="cls-6" points="79.67 70.02 78.25 67.17 78.25 72.88 79.67 70.02"/><polygon class="cls-7" points="74.59 64.95 71.73 66.37 77.45 66.37 74.59 64.95"/><rect class="cls-5" x="82.23" y="63.15" width="13.75" height="13.75"/><polygon class="cls-6" points="84.04 70.02 85.46 72.88 85.46 67.17 84.04 70.02"/><polygon class="cls-6" points="89.09 75.12 91.94 73.7 86.23 73.7 89.09 75.12"/><polygon class="cls-6" points="94.17 70.03 92.74 67.17 92.74 72.88 94.17 70.03"/><polygon class="cls-7" points="89.09 64.95 86.23 66.38 91.94 66.38 89.09 64.95"/><rect class="cls-5" x="96.76" y="63.15" width="13.75" height="13.75"/><polygon class="cls-6" points="98.57 70.03 99.99 72.89 99.99 67.17 98.57 70.03"/><polygon class="cls-6" points="103.62 75.13 106.48 73.7 100.76 73.7 103.62 75.13"/><polygon class="cls-6" points="108.7 70.03 107.28 67.17 107.28 72.89 108.7 70.03"/><polygon class="cls-7" points="103.62 64.96 100.76 66.38 106.48 66.38 103.62 64.96"/><rect class="cls-5" x="53.18" y="77.62" width="13.75" height="13.75"/><polygon class="cls-6" points="60.04 89.6 62.9 88.17 57.18 88.17 60.04 89.6"/><polygon class="cls-6" points="65.12 84.5 63.69 81.64 63.69 87.36 65.12 84.5"/><polygon class="cls-7" points="60.04 79.43 57.18 80.85 62.9 80.85 60.04 79.43"/><rect class="cls-5" x="67.73" y="77.64" width="13.75" height="13.75"/><polygon class="cls-6" points="69.54 84.51 70.96 87.37 70.96 81.66 69.54 84.51"/><polygon class="cls-6" points="74.59 89.61 77.45 88.19 71.73 88.19 74.59 89.61"/><polygon class="cls-6" points="79.67 84.52 78.25 81.66 78.25 87.37 79.67 84.52"/><polygon class="cls-7" points="74.59 79.44 71.73 80.87 77.45 80.87 74.59 79.44"/><rect class="cls-5" x="82.23" y="77.64" width="13.75" height="13.75"/><polygon class="cls-6" points="84.04 84.52 85.46 87.37 85.46 81.66 84.04 84.52"/><polygon class="cls-6" points="89.09 89.62 91.94 88.19 86.23 88.19 89.09 89.62"/><polygon class="cls-6" points="94.17 84.52 92.74 81.66 92.74 87.38 94.17 84.52"/><polygon class="cls-7" points="89.09 79.45 86.23 80.87 91.94 80.87 89.09 79.45"/><rect class="cls-5" x="96.76" y="77.65" width="13.75" height="13.75"/><polygon class="cls-6" points="98.57 84.52 99.99 87.38 99.99 81.66 98.57 84.52"/><polygon class="cls-6" points="103.62 89.62 106.48 88.2 100.76 88.2 103.62 89.62"/><polygon class="cls-6" points="108.7 84.53 107.28 81.67 107.28 87.38 108.7 84.53"/><polygon class="cls-7" points="103.62 79.45 100.76 80.88 106.48 80.88 103.62 79.45"/><rect class="cls-5" x="53.18" y="92.18" width="13.75" height="13.75"/><polygon class="cls-6" points="60.04 104.16 62.9 102.73 57.18 102.73 60.04 104.16"/><polygon class="cls-6" points="65.12 99.06 63.69 96.2 63.69 101.92 65.12 99.06"/><polygon class="cls-7" points="60.04 93.98 57.18 95.41 62.9 95.41 60.04 93.98"/><rect class="cls-5" x="67.73" y="92.2" width="13.75" height="13.75"/><polygon class="cls-7" points="69.54 99.07 70.96 101.93 70.96 96.21 69.54 99.07"/><polygon class="cls-6" points="74.59 104.17 77.45 102.75 71.73 102.75 74.59 104.17"/><polygon class="cls-6" points="79.67 99.07 78.25 96.21 78.25 101.93 79.67 99.07"/><polygon class="cls-6" points="74.59 94 71.73 95.42 77.45 95.42 74.59 94"/><rect class="cls-5" x="82.23" y="92.2" width="13.75" height="13.75"/><polygon class="cls-7" points="84.04 99.07 85.46 101.93 85.46 96.21 84.04 99.07"/><polygon class="cls-6" points="89.09 104.17 91.94 102.75 86.23 102.75 89.09 104.17"/><polygon class="cls-6" points="94.17 99.08 92.74 96.22 92.74 101.93 94.17 99.08"/><polygon class="cls-6" points="89.09 94 86.23 95.42 91.94 95.42 89.09 94"/><rect class="cls-5" x="96.76" y="92.2" width="13.75" height="13.75"/><polygon class="cls-7" points="98.57 99.08 99.99 101.94 99.99 96.22 98.57 99.08"/><polygon class="cls-6" points="103.62 104.18 106.48 102.75 100.76 102.75 103.62 104.18"/><polygon class="cls-6" points="108.7 99.08 107.28 96.22 107.28 101.94 108.7 99.08"/><polygon class="cls-6" points="103.62 94.01 100.76 95.43 106.48 95.43 103.62 94.01"/><rect class="cls-5" x="53.18" y="106.72" width="13.75" height="13.75"/><polygon class="cls-6" points="65.12 113.6 63.69 110.74 63.69 116.46 65.12 113.6"/><polygon class="cls-7" points="60.04 108.53 57.18 109.95 62.9 109.95 60.04 108.53"/><rect class="cls-5" x="67.73" y="106.74" width="13.75" height="13.75"/><polygon class="cls-7" points="69.54 113.61 70.96 116.47 70.96 110.75 69.54 113.61"/><polygon class="cls-6" points="79.67 113.61 78.25 110.76 78.25 116.47 79.67 113.61"/><polygon class="cls-6" points="74.59 108.54 71.73 109.97 77.45 109.97 74.59 108.54"/><rect class="cls-5" x="82.23" y="106.74" width="13.75" height="13.75"/><polygon class="cls-7" points="84.04 113.61 85.46 116.47 85.46 110.76 84.04 113.61"/><polygon class="cls-6" points="94.17 113.62 92.74 110.76 92.74 116.48 94.17 113.62"/><polygon class="cls-6" points="89.09 108.54 86.23 109.97 91.94 109.97 89.09 108.54"/><rect class="cls-5" x="96.76" y="106.75" width="13.75" height="13.75"/><polygon class="cls-7" points="98.57 113.62 99.99 116.48 99.99 110.76 98.57 113.62"/><polygon class="cls-6" points="108.7 113.62 107.28 110.77 107.28 116.48 108.7 113.62"/><polygon class="cls-6" points="103.62 108.55 100.76 109.97 106.48 109.97 103.62 108.55"/><text class="cls-8" transform="translate(51.47 45.15)"><tspan class="cls-9">P</tspan><tspan x="6.08" y="0">oli</tspan><tspan class="cls-10" x="18.35" y="0">c</tspan><tspan x="23.64" y="0">y </tspan><tspan class="cls-11" x="31.69" y="0">F</tspan><tspan x="37.14" y="0">un</tspan><tspan class="cls-12" x="50.13" y="0">c</tspan><tspan x="55.42" y="0">tion</tspan></text><rect class="cls-2" x="147.77" y="29.58" width="99.12" height="99.12"/><rect class="cls-5" x="161.85" y="48.29" width="13.8" height="13.8"/><rect class="cls-5" x="176.46" y="48.3" width="13.8" height="13.8"/><rect class="cls-5" x="191.01" y="48.3" width="13.8" height="13.8"/><rect class="cls-5" x="161.85" y="62.9" width="13.8" height="13.8"/><rect class="cls-5" x="176.46" y="62.91" width="13.8" height="13.8"/><rect class="cls-5" x="191.01" y="62.92" width="13.8" height="13.8"/><rect class="cls-5" x="205.6" y="62.92" width="13.8" height="13.8"/><rect class="cls-5" x="161.85" y="77.45" width="13.8" height="13.8"/><rect class="cls-5" x="176.46" y="77.46" width="13.8" height="13.8"/><rect class="cls-5" x="191.01" y="77.47" width="13.8" height="13.8"/><rect class="cls-5" x="205.6" y="77.47" width="13.8" height="13.8"/><rect class="cls-5" x="161.85" y="92.06" width="13.8" height="13.8"/><rect class="cls-5" x="176.46" y="92.08" width="13.8" height="13.8"/><rect class="cls-5" x="191.01" y="92.08" width="13.8" height="13.8"/><rect class="cls-5" x="205.6" y="92.09" width="13.8" height="13.8"/><rect class="cls-5" x="161.85" y="106.66" width="13.8" height="13.8"/><rect class="cls-5" x="176.46" y="106.68" width="13.8" height="13.8"/><rect class="cls-5" x="191.01" y="106.68" width="13.8" height="13.8"/><rect class="cls-5" x="205.6" y="106.68" width="13.8" height="13.8"/><circle class="cls-13" cx="168.75" cy="55.19" r="4.37"/><circle class="cls-13" cx="183.36" cy="55.21" r="4.37"/><circle class="cls-13" cx="198.15" cy="55.21" r="4.37"/><circle class="cls-13" cx="168.66" cy="69.81" r="4.37"/><circle class="cls-13" cx="183.27" cy="69.83" r="4.37"/><circle class="cls-13" cx="198.06" cy="69.83" r="4.37"/><circle class="cls-13" cx="212.49" cy="69.8" r="4.37"/><circle class="cls-13" cx="168.66" cy="84.52" r="4.37"/><circle class="cls-13" cx="183.27" cy="84.55" r="4.37"/><circle class="cls-13" cx="198.06" cy="84.55" r="4.37"/><circle class="cls-13" cx="212.49" cy="84.51" r="4.37"/><circle class="cls-13" cx="168.66" cy="99.01" r="4.37"/><circle class="cls-13" cx="183.27" cy="98.96" r="4.37"/><circle class="cls-13" cx="198.06" cy="99.03" r="4.37"/><circle class="cls-13" cx="212.49" cy="99" r="4.37"/><circle class="cls-13" cx="168.66" cy="113.72" r="4.37"/><circle class="cls-13" cx="183.27" cy="114.03" r="4.37"/><circle class="cls-13" cx="198.06" cy="113.75" r="4.37"/><circle class="cls-13" cx="212.49" cy="113.71" r="4.37"/><polyline class="cls-14" points="168.66 84.53 198.06 84.53 198.06 99.03 183.27 98.96 183.27 69.83 198.06 69.83 198.15 55.21 212.5 55.2"/><line class="cls-14" x1="183.27" y1="114.03" x2="227.31" y2="114.03"/><rect class="cls-3" x="220.53" y="48.81" width="13.56" height="71.44"/><rect class="cls-4" x="206.6" y="49.3" width="11.8" height="11.8"/><text class="cls-8" transform="translate(170.83 44.86)">Experien<tspan class="cls-15" x="43.39" y="0">c</tspan><tspan x="48.4" y="0">e</tspan></text><rect class="cls-2" x="94.67" y="132.22" width="99.12" height="99.12"/><rect class="cls-3" x="167.43" y="151.61" width="13.56" height="71.44"/><rect class="cls-4" x="153.51" y="152.1" width="11.8" height="11.8"/><rect class="cls-5" x="108.76" y="151.08" width="13.8" height="13.8"/><rect class="cls-5" x="123.37" y="151.1" width="13.8" height="13.8"/><rect class="cls-5" x="137.92" y="151.1" width="13.8" height="13.8"/><rect class="cls-5" x="108.76" y="165.7" width="13.8" height="13.8"/><rect class="cls-5" x="123.37" y="165.71" width="13.8" height="13.8"/><rect class="cls-5" x="137.92" y="165.71" width="13.8" height="13.8"/><rect class="cls-5" x="152.51" y="165.72" width="13.8" height="13.8"/><rect class="cls-5" x="108.76" y="180.25" width="13.8" height="13.8"/><rect class="cls-5" x="123.37" y="180.26" width="13.8" height="13.8"/><rect class="cls-5" x="137.92" y="180.26" width="13.8" height="13.8"/><rect class="cls-5" x="152.51" y="180.27" width="13.8" height="13.8"/><rect class="cls-5" x="108.76" y="194.86" width="13.8" height="13.8"/><rect class="cls-5" x="123.37" y="194.87" width="13.8" height="13.8"/><rect class="cls-5" x="137.92" y="194.88" width="13.8" height="13.8"/><rect class="cls-5" x="152.51" y="194.88" width="13.8" height="13.8"/><rect class="cls-5" x="108.76" y="209.46" width="13.8" height="13.8"/><rect class="cls-5" x="123.37" y="209.47" width="13.8" height="13.8"/><rect class="cls-5" x="137.92" y="209.48" width="13.8" height="13.8"/><rect class="cls-5" x="152.51" y="209.48" width="13.8" height="13.8"/><circle class="cls-13" cx="115.66" cy="157.99" r="4.37"/><circle class="cls-13" cx="130.27" cy="158.01" r="4.37"/><circle class="cls-4" cx="145.05" cy="158.01" r="4.37"/><circle class="cls-13" cx="115.57" cy="172.61" r="4.37"/><circle class="cls-16" cx="130.18" cy="172.63" r="4.37"/><circle class="cls-17" cx="144.96" cy="172.63" r="4.37"/><circle class="cls-13" cx="159.39" cy="172.6" r="4.37"/><circle class="cls-18" cx="115.57" cy="187.32" r="4.37"/><circle class="cls-19" cx="130.18" cy="187.34" r="4.37"/><circle class="cls-20" cx="144.96" cy="187.34" r="4.37"/><circle class="cls-13" cx="159.39" cy="187.31" r="4.37"/><circle class="cls-13" cx="115.57" cy="201.81" r="4.37"/><circle class="cls-18" cx="130.18" cy="201.76" r="4.37"/><circle class="cls-21" cx="144.96" cy="201.83" r="4.37"/><circle class="cls-13" cx="159.39" cy="201.8" r="4.37"/><circle class="cls-13" cx="115.57" cy="216.52" r="4.37"/><circle class="cls-22" cx="130.18" cy="216.83" r="4.37"/><circle class="cls-23" cx="144.96" cy="216.54" r="4.37"/><circle class="cls-3" cx="159.39" cy="216.51" r="4.37"/><text class="cls-8" transform="translate(108.17 147.5)"><tspan class="cls-24">V</tspan><tspan x="6.41" y="0">alue </tspan><tspan class="cls-11" x="29.84" y="0">F</tspan><tspan x="35.28" y="0">un</tspan><tspan class="cls-25" x="48.28" y="0">c</tspan><tspan x="53.56" y="0">tion</tspan></text><polygon class="cls-26" points="194.51 183.6 205.57 182.39 201.09 174.63 194.51 183.6"/><polygon class="cls-26" points="55.4 128.99 53.86 140 62.49 137.56 55.4 128.99"/><polygon class="cls-26" points="193.69 27.22 187.11 18.25 182.63 26.01 193.69 27.22"/><text class="cls-27" transform="translate(117.87 6.16)">Running poli<tspan class="cls-28" x="46.4" y="0">c</tspan><tspan x="50.44" y="0">y</tspan></text><text class="cls-27" transform="translate(-0.67 159.21)"><tspan class="cls-29">P</tspan><tspan x="4.4" y="0">oli</tspan><tspan class="cls-28" x="13.24" y="0">c</tspan><tspan x="17.29" y="0">y upd</tspan><tspan class="cls-30" x="37.82" y="0">a</tspan><tspan class="cls-31" x="41.97" y="0">t</tspan><tspan x="44.79" y="0">e</tspan></text><text class="cls-32" transform="translate(228.8 167.73)">o<tspan class="cls-33" x="3.84" y="0">f</tspan><tspan class="cls-34" x="5.96" y="0">t</tspan><tspan x="8.24" y="0">en the ha</tspan><tspan class="cls-35" x="35.57" y="0">r</tspan><tspan x="37.79" y="0">dest pa</tspan><tspan class="cls-36" x="59.17" y="0">r</tspan><tspan x="61.63" y="0">t!</tspan></text><text class="cls-27" transform="translate(236.09 157.25)"><tspan class="cls-37">V</tspan><tspan x="4.56" y="0">alue lea</tspan><tspan class="cls-38" x="32.33" y="0">r</tspan><tspan x="35.2" y="0">ning</tspan></text></svg>