<svg id="Layer_1" data-name="Layer 1" xmlns="http://www.w3.org/2000/svg" viewBox="0 0 303.1 225.39"><defs><style>.cls-1,.cls-10{fill:none;}.cls-1,.cls-24{stroke:#6a6868;}.cls-1,.cls-2,.cls-24{stroke-miterlimit:10;}.cls-1{stroke-width:3px;}.cls-2{fill:#fff;stroke:#fff;stroke-width:12px;}.cls-3{font-size:11.39px;fill:#58595b;font-family:MyriadPro-Semibold, Myriad Pro;font-weight:700;}.cls-4{letter-spacing:-0.02em;}.cls-5{letter-spacing:0.02em;}.cls-6{letter-spacing:-0.03em;}.cls-7{letter-spacing:0.02em;}.cls-8{fill:#e7ebe8;}.cls-9{fill:#cac9cc;}.cls-10{stroke:#58595b;stroke-linecap:round;stroke-linejoin:round;stroke-width:2px;}.cls-11{fill:#aa1e22;}.cls-12{fill:#2c3592;}.cls-13{letter-spacing:-0.01em;}.cls-14{fill:#7272af;}.cls-15{fill:#4e4ea1;}.cls-16{fill:#d0d0e3;}.cls-17{fill:#9999c1;}.cls-18{fill:#b9b9d5;}.cls-19{fill:#d3d3e5;}.cls-20{fill:#d9a0a7;}.cls-21{fill:#c15d65;}.cls-22{letter-spacing:-0.04em;}.cls-23{letter-spacing:0.01em;}.cls-24{fill:#6c6868;}.cls-25{font-size:8.68px;}.cls-25,.cls-35{fill:#515151;}.cls-25,.cls-30,.cls-35{font-family:MyriadPro-Regular, Myriad Pro;}.cls-26{letter-spacing:0.02em;}.cls-27{letter-spacing:-0.02em;}.cls-28{letter-spacing:0em;}.cls-29{letter-spacing:-0.01em;}.cls-30{font-size:7px;fill:#f15a29;}.cls-31{letter-spacing:0.01em;}.cls-32{letter-spacing:-0.01em;}.cls-33{letter-spacing:-0.01em;}.cls-34{letter-spacing:0.02em;}.cls-35{font-size:8px;}.cls-36{letter-spacing:-0.03em;}.cls-37{letter-spacing:0em;}.cls-38{letter-spacing:0em;}.cls-39{fill:#777787;}.cls-40{fill:#efedf6;}.cls-41{fill:#9b9dad;}.cls-42{fill:#b2b3c3;}</style></defs><title>policy-value-iteration</title><circle class="cls-1" cx="149.14" cy="107.34" r="92.75"/><rect class="cls-2" x="42.91" y="31.24" width="99.12" height="99.12"/><text class="cls-3" transform="translate(55.48 46.52)"><tspan class="cls-4">P</tspan><tspan x="6.08" y="0">oli</tspan><tspan class="cls-5" x="18.35" y="0">c</tspan><tspan x="23.64" y="0">y </tspan><tspan class="cls-6" x="31.69" y="0">F</tspan><tspan x="37.14" y="0">un</tspan><tspan class="cls-7" x="50.13" y="0">c</tspan><tspan x="55.42" y="0">tion</tspan></text><rect class="cls-2" x="151.78" y="30.95" width="99.12" height="99.12"/><rect class="cls-8" x="165.86" y="49.66" width="13.8" height="13.8"/><rect class="cls-8" x="180.47" y="49.67" width="13.8" height="13.8"/><rect class="cls-8" x="195.02" y="49.68" width="13.8" height="13.8"/><rect class="cls-8" x="165.86" y="64.27" width="13.8" height="13.8"/><rect class="cls-8" x="180.47" y="64.29" width="13.8" height="13.8"/><rect class="cls-8" x="195.02" y="64.29" width="13.8" height="13.8"/><rect class="cls-8" x="209.61" y="64.3" width="13.8" height="13.8"/><rect class="cls-8" x="165.86" y="78.82" width="13.8" height="13.8"/><rect class="cls-8" x="180.47" y="78.84" width="13.8" height="13.8"/><rect class="cls-8" x="195.02" y="78.84" width="13.8" height="13.8"/><rect class="cls-8" x="209.61" y="78.85" width="13.8" height="13.8"/><rect class="cls-8" x="165.86" y="93.43" width="13.8" height="13.8"/><rect class="cls-8" x="180.47" y="93.45" width="13.8" height="13.8"/><rect class="cls-8" x="195.02" y="93.45" width="13.8" height="13.8"/><rect class="cls-8" x="209.61" y="93.46" width="13.8" height="13.8"/><rect class="cls-8" x="165.86" y="108.03" width="13.8" height="13.8"/><rect class="cls-8" x="180.47" y="108.05" width="13.8" height="13.8"/><rect class="cls-8" x="195.02" y="108.05" width="13.8" height="13.8"/><rect class="cls-8" x="209.61" y="108.06" width="13.8" height="13.8"/><circle class="cls-9" cx="172.76" cy="56.56" r="4.37"/><circle class="cls-9" cx="187.37" cy="56.58" r="4.37"/><circle class="cls-9" cx="202.16" cy="56.58" r="4.37"/><circle class="cls-9" cx="172.67" cy="71.19" r="4.37"/><circle class="cls-9" cx="187.28" cy="71.21" r="4.37"/><circle class="cls-9" cx="202.07" cy="71.21" r="4.37"/><circle class="cls-9" cx="216.5" cy="71.17" r="4.37"/><circle class="cls-9" cx="172.67" cy="85.9" r="4.37"/><circle class="cls-9" cx="187.28" cy="85.92" r="4.37"/><circle class="cls-9" cx="202.07" cy="85.92" r="4.37"/><circle class="cls-9" cx="216.5" cy="85.88" r="4.37"/><circle class="cls-9" cx="172.67" cy="100.39" r="4.37"/><circle class="cls-9" cx="187.28" cy="100.34" r="4.37"/><circle class="cls-9" cx="202.07" cy="100.41" r="4.37"/><circle class="cls-9" cx="216.5" cy="100.37" r="4.37"/><circle class="cls-9" cx="172.67" cy="115.1" r="4.37"/><circle class="cls-9" cx="187.28" cy="115.41" r="4.37"/><circle class="cls-9" cx="202.07" cy="115.12" r="4.37"/><circle class="cls-9" cx="216.5" cy="115.08" r="4.37"/><polyline class="cls-10" points="172.68 85.9 202.07 85.9 202.07 100.41 187.28 100.33 187.28 71.21 202.07 71.21 202.16 56.58 216.51 56.58"/><line class="cls-10" x1="187.28" y1="115.41" x2="231.32" y2="115.41"/><rect class="cls-11" x="224.54" y="50.18" width="13.56" height="71.44"/><rect class="cls-12" x="210.62" y="50.68" width="11.8" height="11.8"/><text class="cls-3" transform="translate(174.84 46.23)">Experien<tspan class="cls-13" x="43.39" y="0">c</tspan><tspan x="48.4" y="0">e</tspan></text><rect class="cls-2" x="98.68" y="133.59" width="99.12" height="99.12"/><rect class="cls-11" x="171.44" y="152.98" width="13.56" height="71.44"/><rect class="cls-12" x="157.52" y="153.47" width="11.8" height="11.8"/><rect class="cls-8" x="112.77" y="152.46" width="13.8" height="13.8"/><rect class="cls-8" x="127.38" y="152.47" width="13.8" height="13.8"/><rect class="cls-8" x="141.93" y="152.48" width="13.8" height="13.8"/><rect class="cls-8" x="112.77" y="167.07" width="13.8" height="13.8"/><rect class="cls-8" x="127.38" y="167.08" width="13.8" height="13.8"/><rect class="cls-8" x="141.93" y="167.09" width="13.8" height="13.8"/><rect class="cls-8" x="156.52" y="167.09" width="13.8" height="13.8"/><rect class="cls-8" x="112.77" y="181.62" width="13.8" height="13.8"/><rect class="cls-8" x="127.38" y="181.63" width="13.8" height="13.8"/><rect class="cls-8" x="141.93" y="181.64" width="13.8" height="13.8"/><rect class="cls-8" x="156.52" y="181.64" width="13.8" height="13.8"/><rect class="cls-8" x="112.77" y="196.23" width="13.8" height="13.8"/><rect class="cls-8" x="127.38" y="196.25" width="13.8" height="13.8"/><rect class="cls-8" x="141.93" y="196.25" width="13.8" height="13.8"/><rect class="cls-8" x="156.52" y="196.26" width="13.8" height="13.8"/><rect class="cls-8" x="112.77" y="210.83" width="13.8" height="13.8"/><rect class="cls-8" x="127.38" y="210.85" width="13.8" height="13.8"/><rect class="cls-8" x="141.93" y="210.85" width="13.8" height="13.8"/><rect class="cls-8" x="156.52" y="210.86" width="13.8" height="13.8"/><circle class="cls-9" cx="119.67" cy="159.36" r="4.37"/><circle class="cls-9" cx="134.28" cy="159.38" r="4.37"/><circle class="cls-12" cx="149.06" cy="159.38" r="4.37"/><circle class="cls-9" cx="119.58" cy="173.98" r="4.37"/><circle class="cls-14" cx="134.19" cy="174" r="4.37"/><circle class="cls-15" cx="148.97" cy="174" r="4.37"/><circle class="cls-9" cx="163.4" cy="173.97" r="4.37"/><circle class="cls-16" cx="119.58" cy="188.7" r="4.37"/><circle class="cls-17" cx="134.19" cy="188.72" r="4.37"/><circle class="cls-18" cx="148.97" cy="188.72" r="4.37"/><circle class="cls-9" cx="163.4" cy="188.68" r="4.37"/><circle class="cls-9" cx="119.58" cy="203.18" r="4.37"/><circle class="cls-16" cx="134.19" cy="203.13" r="4.37"/><circle class="cls-19" cx="148.97" cy="203.2" r="4.37"/><circle class="cls-9" cx="163.4" cy="203.17" r="4.37"/><circle class="cls-9" cx="119.58" cy="217.9" r="4.37"/><circle class="cls-20" cx="134.19" cy="218.2" r="4.37"/><circle class="cls-21" cx="148.97" cy="217.92" r="4.37"/><circle class="cls-11" cx="163.4" cy="217.88" r="4.37"/><text class="cls-3" transform="translate(112.18 148.87)"><tspan class="cls-22">V</tspan><tspan x="6.41" y="0">alue </tspan><tspan class="cls-6" x="29.84" y="0">F</tspan><tspan x="35.28" y="0">un</tspan><tspan class="cls-23" x="48.28" y="0">c</tspan><tspan x="53.56" y="0">tion</tspan></text><polygon class="cls-24" points="198.52 184.97 209.58 183.76 205.1 176 198.52 184.97"/><polygon class="cls-24" points="59.41 130.36 57.88 141.38 66.5 138.93 59.41 130.36"/><polygon class="cls-24" points="197.7 28.59 191.12 19.62 186.64 27.38 197.7 28.59"/><text class="cls-25" transform="translate(121.88 7.53)">Running poli<tspan class="cls-26" x="46.4" y="0">c</tspan><tspan x="50.44" y="0">y</tspan></text><text class="cls-25" transform="translate(3.34 160.59)"><tspan class="cls-27">P</tspan><tspan x="4.4" y="0">oli</tspan><tspan class="cls-26" x="13.24" y="0">c</tspan><tspan x="17.29" y="0">y upd</tspan><tspan class="cls-28" x="37.82" y="0">a</tspan><tspan class="cls-29" x="41.97" y="0">t</tspan><tspan x="44.79" y="0">e</tspan></text><text class="cls-30" transform="translate(232.81 169.1)">o<tspan class="cls-31" x="3.84" y="0">f</tspan><tspan class="cls-32" x="5.96" y="0">t</tspan><tspan x="8.24" y="0">en the ha</tspan><tspan class="cls-33" x="35.57" y="0">r</tspan><tspan x="37.79" y="0">dest pa</tspan><tspan class="cls-34" x="59.17" y="0">r</tspan><tspan x="61.63" y="0">t!</tspan></text><text class="cls-35" transform="translate(242.12 158.14)"><tspan class="cls-36">V</tspan><tspan x="4.2" y="0">alue lea</tspan><tspan class="cls-37" x="29.81" y="0">r</tspan><tspan class="cls-38" x="32.46" y="0">ning</tspan></text><rect class="cls-11" x="114.88" y="50.6" width="13.48" height="70.99"/><rect class="cls-12" x="101.05" y="51.09" width="11.72" height="11.72"/><rect class="cls-8" x="56.57" y="50.08" width="13.72" height="13.72"/><polygon class="cls-39" points="63.42 62.03 66.27 60.61 60.57 60.61 63.42 62.03"/><polygon class="cls-39" points="68.48 56.94 67.06 54.09 67.06 59.79 68.48 56.94"/><rect class="cls-8" x="71.09" y="50.1" width="13.72" height="13.72"/><polygon class="cls-40" points="72.9 56.95 74.32 59.81 74.32 54.1 72.9 56.95"/><polygon class="cls-41" points="77.94 62.04 80.79 60.62 75.08 60.62 77.94 62.04"/><polygon class="cls-41" points="83 56.96 81.58 54.11 81.58 59.81 83 56.96"/><rect class="cls-8" x="85.55" y="50.1" width="13.72" height="13.72"/><polygon class="cls-41" points="87.36 56.96 88.78 59.81 88.78 54.11 87.36 56.96"/><polygon class="cls-41" points="92.4 62.05 95.25 60.63 89.55 60.63 92.4 62.05"/><polygon class="cls-41" points="97.46 56.96 96.04 54.11 96.04 59.81 97.46 56.96"/><rect class="cls-8" x="56.57" y="64.6" width="13.72" height="13.72"/><polygon class="cls-41" points="63.42 76.55 66.27 75.13 60.57 75.13 63.42 76.55"/><polygon class="cls-41" points="68.48 71.46 67.06 68.61 67.06 74.31 68.48 71.46"/><polygon class="cls-41" points="63.42 66.4 60.57 67.82 66.27 67.82 63.42 66.4"/><rect class="cls-8" x="71.09" y="64.62" width="13.72" height="13.72"/><polygon class="cls-42" points="72.9 71.48 74.32 74.33 74.32 68.62 72.9 71.48"/><polygon class="cls-42" points="77.94 76.56 80.79 75.14 75.08 75.14 77.94 76.56"/><polygon class="cls-42" points="83 71.48 81.58 68.63 81.58 74.33 83 71.48"/><polygon class="cls-42" points="77.94 66.42 75.08 67.84 80.79 67.84 77.94 66.42"/><rect class="cls-8" x="85.55" y="64.62" width="13.72" height="13.72"/><polygon class="cls-42" points="87.36 71.48 88.78 74.33 88.78 68.63 87.36 71.48"/><polygon class="cls-42" points="92.4 76.57 95.25 75.15 89.55 75.15 92.4 76.57"/><polygon class="cls-42" points="97.46 71.48 96.04 68.63 96.04 74.33 97.46 71.48"/><polygon class="cls-42" points="92.4 66.42 89.55 67.84 95.25 67.84 92.4 66.42"/><rect class="cls-8" x="100.05" y="64.63" width="13.72" height="13.72"/><polygon class="cls-42" points="101.86 71.48 103.28 74.34 103.28 68.63 101.86 71.48"/><polygon class="cls-42" points="106.9 76.57 109.75 75.15 104.05 75.15 106.9 76.57"/><polygon class="cls-42" points="111.96 71.49 110.54 68.64 110.54 74.34 111.96 71.49"/><polygon class="cls-42" points="106.9 66.43 104.05 67.85 109.75 67.85 106.9 66.43"/><rect class="cls-8" x="56.57" y="79.06" width="13.72" height="13.72"/><polygon class="cls-41" points="63.42 91.01 66.27 89.59 60.57 89.59 63.42 91.01"/><polygon class="cls-41" points="68.48 85.92 67.06 83.07 67.06 88.77 68.48 85.92"/><polygon class="cls-41" points="63.42 80.86 60.57 82.28 66.27 82.28 63.42 80.86"/><rect class="cls-8" x="71.09" y="79.08" width="13.72" height="13.72"/><polygon class="cls-42" points="72.9 85.93 74.32 88.79 74.32 83.08 72.9 85.93"/><polygon class="cls-42" points="77.94 91.02 80.79 89.6 75.08 89.6 77.94 91.02"/><polygon class="cls-42" points="83 85.94 81.58 83.09 81.58 88.79 83 85.94"/><polygon class="cls-42" points="77.94 80.88 75.08 82.3 80.79 82.3 77.94 80.88"/><rect class="cls-8" x="85.55" y="79.08" width="13.72" height="13.72"/><polygon class="cls-42" points="87.36 85.94 88.78 88.79 88.78 83.09 87.36 85.94"/><polygon class="cls-42" points="92.4 91.03 95.25 89.61 89.55 89.61 92.4 91.03"/><polygon class="cls-42" points="97.46 85.94 96.04 83.09 96.04 88.79 97.46 85.94"/><polygon class="cls-42" points="92.4 80.88 89.55 82.3 95.25 82.3 92.4 80.88"/><rect class="cls-8" x="100.05" y="79.09" width="13.72" height="13.72"/><polygon class="cls-42" points="101.86 85.94 103.28 88.79 103.28 83.09 101.86 85.94"/><polygon class="cls-42" points="106.9 91.03 109.75 89.61 104.05 89.61 106.9 91.03"/><polygon class="cls-42" points="111.96 85.95 110.54 83.09 110.54 88.8 111.96 85.95"/><polygon class="cls-42" points="106.9 80.89 104.05 82.31 109.75 82.31 106.9 80.89"/><rect class="cls-8" x="56.57" y="93.58" width="13.72" height="13.72"/><polygon class="cls-41" points="63.42 105.53 66.27 104.11 60.57 104.11 63.42 105.53"/><polygon class="cls-41" points="68.48 100.44 67.06 97.59 67.06 103.3 68.48 100.44"/><polygon class="cls-41" points="63.42 95.38 60.57 96.8 66.27 96.8 63.42 95.38"/><rect class="cls-8" x="71.09" y="93.6" width="13.72" height="13.72"/><polygon class="cls-42" points="72.9 100.46 74.32 103.31 74.32 97.6 72.9 100.46"/><polygon class="cls-42" points="77.94 105.54 80.79 104.12 75.08 104.12 77.94 105.54"/><polygon class="cls-42" points="83 100.46 81.58 97.61 81.58 103.31 83 100.46"/><polygon class="cls-42" points="77.94 95.4 75.08 96.82 80.79 96.82 77.94 95.4"/><rect class="cls-8" x="85.55" y="93.6" width="13.72" height="13.72"/><polygon class="cls-42" points="87.36 100.46 88.78 103.31 88.78 97.61 87.36 100.46"/><polygon class="cls-42" points="92.4 105.55 95.25 104.13 89.55 104.13 92.4 105.55"/><polygon class="cls-42" points="97.46 100.46 96.04 97.61 96.04 103.31 97.46 100.46"/><polygon class="cls-42" points="92.4 95.4 89.55 96.82 95.25 96.82 92.4 95.4"/><rect class="cls-8" x="100.05" y="93.61" width="13.72" height="13.72"/><polygon class="cls-42" points="101.86 100.46 103.28 103.31 103.28 97.61 101.86 100.46"/><polygon class="cls-42" points="106.9 105.55 109.75 104.13 104.05 104.13 106.9 105.55"/><polygon class="cls-42" points="111.96 100.47 110.54 97.62 110.54 103.32 111.96 100.47"/><polygon class="cls-42" points="106.9 95.41 104.05 96.83 109.75 96.83 106.9 95.41"/><rect class="cls-8" x="56.57" y="108.09" width="13.72" height="13.72"/><polygon class="cls-39" points="68.48 114.95 67.06 112.1 67.06 117.8 68.48 114.95"/><polygon class="cls-39" points="63.42 109.89 60.57 111.31 66.27 111.31 63.42 109.89"/><rect class="cls-8" x="71.09" y="108.11" width="13.72" height="13.72"/><polygon class="cls-41" points="72.9 114.96 74.32 117.81 74.32 112.11 72.9 114.96"/><polygon class="cls-41" points="83 114.97 81.58 112.11 81.58 117.82 83 114.97"/><polygon class="cls-41" points="77.94 109.91 75.08 111.33 80.79 111.33 77.94 109.91"/><rect class="cls-8" x="85.55" y="108.11" width="13.72" height="13.72"/><polygon class="cls-41" points="87.36 114.97 88.78 117.82 88.78 112.11 87.36 114.97"/><polygon class="cls-41" points="97.46 114.97 96.04 112.12 96.04 117.82 97.46 114.97"/><polygon class="cls-41" points="92.4 109.91 89.55 111.33 95.25 111.33 92.4 109.91"/><rect class="cls-8" x="100.05" y="108.11" width="13.72" height="13.72"/><polygon class="cls-41" points="101.86 114.97 103.28 117.82 103.28 112.12 101.86 114.97"/><polygon class="cls-41" points="111.96 114.97 110.54 112.12 110.54 117.83 111.96 114.97"/><polygon class="cls-41" points="106.9 109.91 104.05 111.33 109.75 111.33 106.9 109.91"/></svg>