<svg id="Layer_1" data-name="Layer 1" xmlns="http://www.w3.org/2000/svg" viewBox="0 0 580 163.40256">
  <defs>
    <style>
      .cls-1 {
        fill: #e7ebe8;
      }

      .cls-2 {
        fill: #fff;
      }

      .cls-3 {
        fill: #231f20;
      }

      .cls-4, .cls-6 {
        fill: #70a8da;
      }

      .cls-5 {
        fill: #010101;
      }

      .cls-6, .cls-8 {
        opacity: 0.5;
      }

      .cls-7, .cls-8 {
        fill: #ef4136;
      }

      .cls-9 {
        font-size: 15.28267px;
        fill: #6d6e71;
        font-family: Roboto-Regular, Roboto;
      }

      .cls-10 {
        letter-spacing: -0.00735em;
      }

      .cls-11 {
        letter-spacing: 0.00006em;
      }
    </style>
  </defs>
  <title>q-learning</title>
  <rect class="cls-1" x="298.25902" y="39.21554" width="97.23471" height="97.23471"/>
  <polygon class="cls-2" points="311.057 87.831 321.125 108.045 321.125 67.617 311.057 87.831"/>
  <polygon class="cls-2" points="346.779 123.904 366.993 113.836 326.564 113.836 346.779 123.904"/>
  <polygon class="cls-2" points="382.696 87.853 372.628 67.639 372.628 108.068 382.696 87.853"/>
  <polygon class="cls-3" points="346.778 51.97 326.564 62.038 366.993 62.038 346.778 51.97"/>
  <rect class="cls-1" x="1.80573" y="39.42136" width="97.23471" height="97.23471"/>
  <circle class="cls-2" cx="51.45429" cy="89.25312" r="30.79778"/>
  <circle class="cls-4" cx="51.45163" cy="89.28988" r="30.79778"/>
  <g>
    <path id="MJMAIN-3D" class="cls-5" d="M152.75373,84.35157a.824.824,0,0,1,.5296-.75657H177.38a.87969.87969,0,0,1,.56743.75657.85821.85821,0,0,1-.5296.71874l-12.02943.03783H153.359A.74976.74976,0,0,1,152.75373,84.35157Zm0,7.33871a.74977.74977,0,0,1,.60526-.75657h24.05885q.5296.37828.5296.75657a.82715.82715,0,0,1-.56743.75657H153.28333A.824.824,0,0,1,152.75373,91.69028Z"/>
    <path id="MJSZ2-2211" class="cls-5" d="M218.04553,61.61671q.11349-.07566,22.88618-.07566H263.7044l2.19405,5.10683q2.23188,5.22033,2.38319,5.52295H266.7685l-.2648-.5296a12.78064,12.78064,0,0,0-2.11839-2.95061,15.87822,15.87822,0,0,0-4.199-2.91279,20.71328,20.71328,0,0,0-5.3338-1.62662,44.00641,44.00641,0,0,0-5.71209-.64308q-2.68581-.11349-6.92259-.15132H225.27076l.30262.41612q17.51456,23.94537,17.59021,24.17234a.34109.34109,0,0,1,0,.227q-.11349.11349-9.9867,11.42417l-9.9867,11.34852q0,.03783,7.9818.03783h5.3338q3.36672,0,4.842.03783,5.14467,0,8.32225-.18915a48.59314,48.59314,0,0,0,6.31734-.79439,17.421,17.421,0,0,0,5.3338-1.85359,14.186,14.186,0,0,0,3.89633-3.29107,11.98813,11.98813,0,0,0,1.551-2.72365h1.51314q0,.03783-.2648.7944t-.94571,2.45885q-.68091,1.70228-1.17268,3.17758l-2.19405,5.8634-22.73486.03783q-22.7727,0-22.88618-.07566a.32136.32136,0,0,1-.227-.34045.58061.58061,0,0,1,.07566-.227L238.09458,90.7824q0-.03783-1.24834-1.70228t-3.972-5.44729q-2.72364-3.78283-4.91769-6.73345L217.89422,63.092l-.03783-.56743Q217.85639,61.73019,218.04553,61.61671Z"/>
  </g>
  <path id="MJMAIN-22C5" class="cls-5" d="M435.83412,90.00739a2.24116,2.24116,0,0,1,.64308-1.58879,2.14148,2.14148,0,0,1,1.62662-.68091,2.3167,2.3167,0,0,1,1.58879.60525,2.18284,2.18284,0,0,1,.71874,1.62662,2.28669,2.28669,0,0,1-.64308,1.62662,2.14148,2.14148,0,0,1-1.62662.68091A2.20456,2.20456,0,0,1,436.515,91.634,2.33917,2.33917,0,0,1,435.83412,90.00739Z"/>
  <rect class="cls-1" x="481.48293" y="39.2294" width="97.23471" height="97.23471"/>
  <polygon class="cls-2" points="565.871 87.89 555.803 67.676 555.803 108.104 565.871 87.89"/>
  <polygon class="cls-2" points="494.234 87.845 504.301 108.059 504.301 67.63 494.234 87.845"/>
  <polygon class="cls-6" points="494.281 87.845 504.349 108.059 504.349 67.63 494.281 87.845"/>
  <polygon class="cls-7" points="530.002 123.918 550.217 113.85 509.788 113.85 530.002 123.918"/>
  <polygon class="cls-8" points="565.92 87.867 555.852 67.653 555.852 108.081 565.92 87.867"/>
  <polygon class="cls-4" points="530.002 51.984 509.788 62.052 550.217 62.052 530.002 51.984"/>
  <text class="cls-9" transform="translate(0.71813 158.91349)">Q-learning (special case of off-policy <tspan class="cls-10" x="251.37305" y="0">v</tspan><tspan class="cls-11" x="258.66309" y="0">alue estimation)</tspan></text>
  <g>
    <path id="MJMATHI-56" class="cls-5" d="M2.10722,7.50506a1.24062,1.24062,0,0,1,.341-.91811h.28855q1.10174.07871,2.75433.0787,3.09536,0,3.64622-.0787h.26232q.15738.1574.15739.23609t-.05247.47217a1.44473,1.44473,0,0,1-.23608.4984H8.71763q-.57709.05247-.78695.05247-.76072.13116-.83942.39347,0,.05247.76072,6.58418t.787,6.58418l1.91492-3.06912q1.91492-3.06912,3.82984-6.1907t1.96738-3.22651A.78027.78027,0,0,0,16.456,8.5281q0-.62955-1.1542-.73449-.47217,0-.47217-.28855,0-.02622.05246-.341a1.41153,1.41153,0,0,1,.15739-.47217.41644.41644,0,0,1,.341-.10493h.31478q.26232,0,.89188.02623t1.67884.02624q1.81,0,2.28216-.05247h.18363q.18361.18363.18362.28855a1.60455,1.60455,0,0,1-.23609.83942.75063.75063,0,0,1-.44594.07869q-.341.02623-.62956.05247a1.95033,1.95033,0,0,0-.55087.13116q-.26232.10492-.41971.18362a1.6425,1.6425,0,0,0-.31478.20985,1.46727,1.46727,0,0,1-.26232.18363.57012.57012,0,0,0-.20985.23608q-.10492.18363-.18362.18362L12.59993,17.1059Q7.87822,24.73934,7.72082,24.923q-.07869.05247-.18362.13116l-.47217.02624H6.88141q-.47217,0-.47218-.18363-.07869-.15738-1.023-8.39417-.99681-8.34169-1.023-8.4204Q4.232,7.79362,2.73679,7.79361H2.29085A.36338.36338,0,0,1,2.10722,7.50506Z"/>
    <path id="MJMAIN-2217" class="cls-5" d="M26.6332,8.3869q-.24109-2.48516-.24109-2.78188,0-.33383.4451-.51929h.09273a.25836.25836,0,0,0,.11127-.01854.74059.74059,0,0,1,.408.16691.4567.4567,0,0,1,.18546.37092q0,.31527-.11128,1.48367T27.39358,8.3869L28.46924,7.608q1.03857-.76038,1.1313-.816a.35784.35784,0,0,1,.18546-.05563.6492.6492,0,0,1,.4451.18545.70249.70249,0,0,1,.22255.50074.58636.58636,0,0,1-.18546.42656q-.09273.05563-1.26112.612T27.746,9.05455l1.224.57492,1.29821.64911a.57761.57761,0,0,1,.16691.42655.66722.66722,0,0,1-.16691.46365.62923.62923,0,0,1-.4451.204.66519.66519,0,0,1-.33383-.11127q-.18545-.11129-1.02-.74184l-1.07566-.77892q.2411,2.48514.2411,2.78188a.56526.56526,0,0,1-.12982.35237.78.78,0,0,1-.96439,0,.67887.67887,0,0,1-.14836-.35237q0-.31528.11127-1.48367t.12982-1.29821l-1.07566.77892q-1.03857.76038-1.1313.816a.3004.3004,0,0,1-.18546.05564.64918.64918,0,0,1-.4451-.18546.70251.70251,0,0,1-.22255-.50074v-.14837a.1603.1603,0,0,1,.05564-.11127.73663.73663,0,0,0,.09273-.11128.51339.51339,0,0,1,.16691-.12982q.12982-.07418.2411-.12982t.35237-.16691q.2411-.11127.46365-.204t.59347-.27818l.74183-.37092L23.75859,7.84907a.57767.57767,0,0,1-.16691-.42656.66722.66722,0,0,1,.16691-.46364.6293.6293,0,0,1,.4451-.204.66511.66511,0,0,1,.33383.11128q.18546.11127,1.02.74183Z"/>
    <path id="MJMAIN-28" class="cls-5" d="M36.7594,17.94531a21.57573,21.57573,0,0,1,.26232-3.43636,24.04187,24.04187,0,0,1,.60333-2.8068,10.98422,10.98422,0,0,1,.97058-2.3084q.62955-1.128.9968-1.75753a6.96727,6.96727,0,0,1,1.10174-1.364q.73449-.73449.86565-.89188a4.7272,4.7272,0,0,1,.65579-.55087h.44594q.36725,0,.36725.23609a2.1197,2.1197,0,0,1-.44594.55087,11.90882,11.90882,0,0,0-1.07551,1.39028A18.1478,18.1478,0,0,0,40.222,9.26259a14.92318,14.92318,0,0,0-1.10174,3.62,26.47581,26.47581,0,0,0-.44594,5.06273,26.06407,26.06407,0,0,0,.44594,5.0365,17.03664,17.03664,0,0,0,1.0755,3.64622A11.88044,11.88044,0,0,0,41.48112,28.884q.6558.86565,1.10174,1.39029a5.927,5.927,0,0,1,.44594.55086q0,.2361-.39348.23609h-.41971l-.73449-.62956a12.94517,12.94517,0,0,1-3.59375-5.56114A21.44706,21.44706,0,0,1,36.7594,17.94531Z"/>
    <path id="MJMATHI-73" class="cls-5" d="M47.93414,16.92227a3.88731,3.88731,0,0,1,.41971-1.70506,4.31548,4.31548,0,0,1,1.469-1.60014,4.19122,4.19122,0,0,1,2.54448-.70826,3.31417,3.31417,0,0,1,2.36086.70826,2.24745,2.24745,0,0,1,.76072,1.57391,1.56221,1.56221,0,0,1-.44594,1.23289,1.58923,1.58923,0,0,1-.99681.41971,1.04772,1.04772,0,0,1-.62956-.20986.84866.84866,0,0,1-.31478-.682,1.19033,1.19033,0,0,1,.23608-.73449,2.35648,2.35648,0,0,1,.44594-.47217.63486.63486,0,0,1,.341-.1574.02318.02318,0,0,0,.02623-.02623q0-.07869-.18362-.23608a1.79182,1.79182,0,0,0-.6558-.28855,4.64086,4.64086,0,0,0-1.023-.15739,2.21875,2.21875,0,0,0-2.43955,2.07231.9483.9483,0,0,0,.4984.91811,5.44046,5.44046,0,0,0,1.44275.44594,5.7477,5.7477,0,0,1,1.364.39348,2.59247,2.59247,0,0,1,1.7313,2.51825,3.99169,3.99169,0,0,1-.28855,1.469,5.86792,5.86792,0,0,1-.86565,1.469,3.79468,3.79468,0,0,1-1.6526,1.15419,7.12258,7.12258,0,0,1-2.46579.44594,4.24306,4.24306,0,0,1-2.85926-.76072,2.42692,2.42692,0,0,1-.86565-1.78376,1.784,1.784,0,0,1,.55087-1.469,1.81128,1.81128,0,0,1,1.1542-.44594,1.26573,1.26573,0,0,1,.73449.23609.97657.97657,0,0,1,.36724.81318,1.57,1.57,0,0,1-.47217,1.1542,1.29189,1.29189,0,0,1-.81319.47217.20123.20123,0,0,1-.07869.02623q-.02623,0-.02623.05247a.56693.56693,0,0,0,.20985.20985,3.66247,3.66247,0,0,0,.81319.341,5.15935,5.15935,0,0,0,3.06911-.10493,2.25353,2.25353,0,0,0,.99681-.73449,3.48248,3.48248,0,0,0,.44594-.81319,1.97851,1.97851,0,0,0,.13116-.65579,1.2358,1.2358,0,0,0-.55087-1.10174,2.78851,2.78851,0,0,0-1.25912-.44594,6.49212,6.49212,0,0,1-1.54768-.39347,2.4276,2.4276,0,0,1-1.23289-.91811A2.64046,2.64046,0,0,1,47.93414,16.92227Z"/>
    <path id="MJMAIN-29" class="cls-5" d="M58.40062,4.85566l.10492-.02624h.5771l.73449.62957a12.94509,12.94509,0,0,1,3.59376,5.56113,21.44737,21.44737,0,0,1,1.128,6.92519,21.89966,21.89966,0,0,1-.26231,3.43636,22.552,22.552,0,0,1-.60334,2.8068,11.81423,11.81423,0,0,1-.97057,2.3084q-.62956,1.1542-.99681,1.75753a7.97971,7.97971,0,0,1-1.0755,1.33782q-.70825.73449-.83942.86565t-.60333.4984l-.10493.10493h-.60333a.15416.15416,0,0,1-.13116-.07869.61771.61771,0,0,1-.07869-.23609q.02623-.02624.28855-.341,4.06593-4.22332,4.06592-12.4601T58.558,5.48522q-.26232-.31479-.28855-.341A.30829.30829,0,0,1,58.40062,4.85566Z"/>
  </g>
  <g>
    <path id="MJMAIN-6D" class="cls-5" d="M283.00564,18.697h.30238q.84236,0,1.01514-.30239V17.05547q0-.36718.0216-.84235t0-.90715V13.88046q0-.756-.0216-1.27432v-.49677a.691.691,0,0,0-.30238-.54,2.89975,2.89975,0,0,0-.97194-.19439h-.38878v-.49676q0-.49677.0432-.49677l.216-.0216q.216-.0216.60477-.0432t.79915-.0432q.36717-.0216.77755-.0432a4.67274,4.67274,0,0,0,.62636-.06479q.216-.0432.23759-.0216h.06479v.86395a5.868,5.868,0,0,0,.0216.82075q.0216,0,.108-.108l.25918-.324a2.1133,2.1133,0,0,1,.41037-.38877q.23759-.1728.62637-.41038a2.92829,2.92829,0,0,1,.82075-.34558,4.656,4.656,0,0,1,1.10153-.108,3.98255,3.98255,0,0,1,.60476.0432,2.26756,2.26756,0,0,1,.49677.12959q.216.0864.41038.17279a1.37824,1.37824,0,0,1,.324.19439,1.8516,1.8516,0,0,1,.23758.23758q.108.1296.19439.23759a1.33325,1.33325,0,0,1,.15119.23758,1.11109,1.11109,0,0,1,.0864.216.84348.84348,0,0,0,.06479.17279l.0432.108.06479-.08639.1296-.17279q.06478-.0864.19438-.23759a2.58566,2.58566,0,0,1,.28079-.28078q.15118-.12959.324-.28078a1.56309,1.56309,0,0,1,.432-.25919q.25919-.108.49677-.216a1.99259,1.99259,0,0,1,.56157-.15119q.324-.0432.66956-.0648,2.72142,0,2.959,2.44065.0216.15118.0216,3.00222v1.85748a5.74161,5.74161,0,0,0,.0432.97194.33.33,0,0,0,.23759.216,7.57756,7.57756,0,0,0,1.05833.0648h.34558v.99354h-.17279l-.49677-.0216q-.51837-.0216-1.10153-.0216t-.82075-.0216a20.28254,20.28254,0,0,0-2.41905.0648h-.17279V18.697h.34558q1.31751,0,1.31752-.34558.02159-.0432.02159-2.98062-.0216-2.91582-.04319-3.08861a1.784,1.784,0,0,0-.432-.90715,1.383,1.383,0,0,0-.51837-.36717,1.64343,1.64343,0,0,0-.56156-.0432,2.34055,2.34055,0,0,0-1.7063.73435,2.60812,2.60812,0,0,0-.73435,1.18793,8.575,8.575,0,0,0-.17279,1.79269v2.67824q0,.648.0216.864a.71618.71618,0,0,0,.06479.28078.44682.44682,0,0,0,.19439.12959,7.57761,7.57761,0,0,0,1.05834.0648h.34558v.99354h-.17279l-.51837-.0216q-.49677-.0216-1.07994-.0216t-.82075-.0216a20.28267,20.28267,0,0,0-2.41905.0648h-.17279V18.697h.34558q1.31753,0,1.31752-.34558.0216-.0432.0216-2.98062-.0216-2.91582-.0432-3.08861a1.784,1.784,0,0,0-.432-.90715,1.38319,1.38319,0,0,0-.51837-.36717,1.64346,1.64346,0,0,0-.56156-.0432,2.34055,2.34055,0,0,0-1.7063.73435,2.60814,2.60814,0,0,0-.73436,1.18793,8.57516,8.57516,0,0,0-.17278,1.79269v2.67824q0,.648.02159.864a.716.716,0,0,0,.0648.28078.44676.44676,0,0,0,.19439.12959,7.57756,7.57756,0,0,0,1.05833.0648h.34558v.99354H287.671l-.49677-.0216q-.51837-.0216-1.10153-.0216t-.82075-.0216a20.28254,20.28254,0,0,0-2.419.0648h-.17279V18.697Z"/>
    <path id="MJMAIN-61" class="cls-5" d="M303.07081,13.10291h-.47517a1.08582,1.08582,0,0,1-.79915-.324,1.13949,1.13949,0,0,1-.324-.84235,1.6889,1.6889,0,0,1,.73435-1.33912,5.5442,5.5442,0,0,1,5.16209.108,3.34481,3.34481,0,0,1,1.29592,1.6415,1.9792,1.9792,0,0,1,.108.66955q0,.36718.0216,2.48385v1.51191a6.22118,6.22118,0,0,0,.108,1.42551.45183.45183,0,0,0,.45358.38878.42809.42809,0,0,0,.432-.34558,4.26169,4.26169,0,0,0,.108-1.14473V16.5587h.86395v.84235a6.7958,6.7958,0,0,1-.0648,1.01513,1.79071,1.79071,0,0,1-.75595,1.01514,2.28372,2.28372,0,0,1-1.18793.38878,1.26981,1.26981,0,0,1-1.01514-.38878,2.0695,2.0695,0,0,1-.51836-.90714v-.0864l-.0432.0648a.85865.85865,0,0,1-.108.12959q-.0648.0648-.17279.19439a1.375,1.375,0,0,1-.25919.23758q-.15119.108-.324.25919a1.34348,1.34348,0,0,1-.38877.23758q-.216.0864-.47518.17279a3.20928,3.20928,0,0,1-.56156.1296q-.30239.04319-.66956.06479a4.20686,4.20686,0,0,1-2.33266-.66956,2.11666,2.11666,0,0,1-1.03673-1.87908,2.47889,2.47889,0,0,1,.15119-.86395,2.82473,2.82473,0,0,1,.58316-.88555,3.8308,3.8308,0,0,1,1.03674-.79915,7.87207,7.87207,0,0,1,1.68469-.60476,10.88284,10.88284,0,0,1,2.37586-.324h.30238v-.47517a3.30552,3.30552,0,0,0-.12959-1.07993,2.00055,2.00055,0,0,0-2.09507-1.53351q-.38878,0-.73436.0216a2.218,2.218,0,0,0-.54.08639.7093.7093,0,0,0-.17278.0648,1.07694,1.07694,0,0,1,.47517.95034,1.0603,1.0603,0,0,1-.34558.84235Zm-.23759,4.29814a1.63422,1.63422,0,0,0,.51837,1.18792,1.80967,1.80967,0,0,0,1.27432.54,2.26263,2.26263,0,0,0,1.44712-.49677,2.41071,2.41071,0,0,0,.84234-1.29592,11.87611,11.87611,0,0,0,.0648-1.42551q0-1.25273-.0216-1.25273-.17278,0-.45357.0216a6.91366,6.91366,0,0,0-.97194.19439,7.0909,7.0909,0,0,0-1.25272.432,2.74468,2.74468,0,0,0-.99354.79916A2.111,2.111,0,0,0,302.83322,17.40105Z"/>
    <path id="MJMAIN-78" class="cls-5" d="M315.27406,19.69051a17.24753,17.24753,0,0,0-2.13827-.0648,12.33964,12.33964,0,0,0-1.83588.0648h-.1296V18.697h.30239a4.30047,4.30047,0,0,0,.90714-.1296,5.695,5.695,0,0,0,.62636-.19438,2.09546,2.09546,0,0,0,.54-.36718,2.29145,2.29145,0,0,0,.38877-.38878,6.67315,6.67315,0,0,1,.45358-.56156,2.39786,2.39786,0,0,0,.432-.60477l.99354-1.29592-1.25272-1.68469q-.1944-.28079-.41038-.58317t-.34558-.45357a2.67672,2.67672,0,0,1-.23758-.324,1.49859,1.49859,0,0,0-.19439-.25918,1.047,1.047,0,0,1-.12959-.1512.46862.46862,0,0,0-.15119-.12959.47362.47362,0,0,0-.1296-.06479.60175.60175,0,0,1-.12959-.0432.49776.49776,0,0,0-.17279-.0432q-.12959,0-.77755-.0432h-.60476v-.99353h.15119q.77756.04319,2.22466.04319,2.00868,0,2.22467-.04319h.17279V11.375q-.77756.0864-.77756.34558a1.51664,1.51664,0,0,0,.216.34558q.216.30239.60476.82075t.62636.88555l.0864.08639.54-.73435a2.92156,2.92156,0,0,0,.69115-1.16633.63435.63435,0,0,0-.04319-.23759.31593.31593,0,0,0-.108-.15119.70825.70825,0,0,1-.108-.08639.46361.46361,0,0,0-.15119-.0864l-.0648-.0216h-.108v-.99353h.15119a18.32247,18.32247,0,0,0,2.13827.06479,11.4705,11.4705,0,0,0,1.83589-.06479h.12959V11.375h-.15119a3.70689,3.70689,0,0,0-1.74949.36718,2.37208,2.37208,0,0,0-.73436.58317q-.36718.41037-1.40391,1.81429l-.34558.45357,1.33912,1.83589q1.42551,1.94388,1.5335,2.03027a.99914.99914,0,0,0,.36718.15119,5.66365,5.66365,0,0,0,1.14473.0864h.36718v.99354h-.30239a3.5812,3.5812,0,0,0-.432-.0216q-.25919,0-.54-.0216a3.37856,3.37856,0,0,0-.54,0,1.03647,1.03647,0,0,1-.38878-.0216h-.79915q-.56157,0-1.07993.0432l-.49677.0216h-.19439V18.697h.06479a1.13989,1.13989,0,0,0,.47518-.108q.23759-.108.23758-.25918,0-.0432-.86395-1.23113l-.88554-1.18792q-.0216.0216-.66956.90714t-.73436.97194a.4725.4725,0,0,0-.08639.30238.60268.60268,0,0,0,.15119.41038.565.565,0,0,0,.38878.19439q.04318,0,.04319.49677v.49677Z"/>
    <path id="MJMATHI-61" class="cls-5" d="M298.68833,30.51712a4.51258,4.51258,0,0,1,1.16054-2.93189,3.41717,3.41717,0,0,1,2.61122-1.40486,1.73115,1.73115,0,0,1,1.37432.74824.76409.76409,0,0,1,.70243-.45811.54634.54634,0,0,1,.35122.12217.376.376,0,0,1,.1527.3054q0,.19851-.565,2.44324t-.58027,2.53487a.817.817,0,0,0,.10689.50392.44859.44859,0,0,0,.32068.13743.66348.66348,0,0,0,.3054-.13743,3.46254,3.46254,0,0,0,.62608-1.46595q.09163-.3054.15271-.32067a.44628.44628,0,0,1,.1527-.01528h.06108q.29013,0,.29014.13744a2.42465,2.42465,0,0,1-.07636.41229,4.79062,4.79062,0,0,1-.3054.8246,2.60154,2.60154,0,0,1-.48865.76351,1.50985,1.50985,0,0,1-.48865.32068,1.62794,1.62794,0,0,1-.36648.03054,1.5608,1.5608,0,0,1-.87041-.22906,1.17234,1.17234,0,0,1-.45811-.47337l-.09162-.22906q-.01527-.01527-.06108.01527l-.06108.06108a2.67725,2.67725,0,0,1-1.83243.85514,2.08406,2.08406,0,0,1-1.48122-.61081A2.57315,2.57315,0,0,1,298.68833,30.51712Zm4.856-2.61121a1.38266,1.38266,0,0,0-.07636-.336,1.4519,1.4519,0,0,0-.35121-.53446.97613.97613,0,0,0-.70243-.3054,1.46536,1.46536,0,0,0-1.02311.47338,3.19515,3.19515,0,0,0-.76352,1.23689,12.19176,12.19176,0,0,0-.62608,2.50432v.168a.814.814,0,0,1-.01527.18325,1.28239,1.28239,0,0,0,.27487.94675.98342.98342,0,0,0,.65662.27487,1.7243,1.7243,0,0,0,1.14527-.50392,2.56773,2.56773,0,0,0,.67189-.77878q.03054-.06108.4123-1.63392T303.54428,27.90591Z"/>
    <g>
      <path id="MJMATHI-51" class="cls-5" d="M334.56168,21.4184q0-.71275.0216-1.07993a2.13331,2.13331,0,0,1,.0432-.41038V19.8417l-.324.08639a7.85712,7.85712,0,0,1-1.81429.23759,5.30041,5.30041,0,0,1-5.44287-4.81651q-.0216-.17279-.0216-.92874a8.93526,8.93526,0,0,1,1.03674-4.19015,12.09723,12.09723,0,0,1,2.78623-3.52058A8.42446,8.42446,0,0,1,336.22478,4.485q.82075,0,1.03674.0216a5.14213,5.14213,0,0,1,3.36939,1.85748,6.08962,6.08962,0,0,1,1.29592,3.931,9.82738,9.82738,0,0,1-3.1966,7.08437,10.35909,10.35909,0,0,1-2.82943,1.96548l-.36718.17279v.108q0,.0216.108.58316a1.69962,1.69962,0,0,0,.45357.90715,1.34478,1.34478,0,0,0,.99354.34558,2.51631,2.51631,0,0,0,1.44711-.47517,2.19744,2.19744,0,0,0,.90714-1.23113q.1296-.30239.28079-.30238a.22215.22215,0,0,1,.23758.19439,3.23016,3.23016,0,0,1-.216.77755q-.216.60477-.60476,1.42551a3.74951,3.74951,0,0,1-1.16633,1.40392,2.94753,2.94753,0,0,1-1.6415.62636q-1.77108,0-1.77109-2.31106Zm5.11889-11.83608a6.029,6.029,0,0,0-.324-2.07347,2.83922,2.83922,0,0,0-.88555-1.31752,4.86941,4.86941,0,0,0-1.07993-.648,2.94813,2.94813,0,0,0-1.14473-.216,4.71188,4.71188,0,0,0-2.11667.54,7.77626,7.77626,0,0,0-3.54218,3.80137,12.16263,12.16263,0,0,0-1.33912,5.35647,4.46076,4.46076,0,0,0,1.16633,3.391,2.02832,2.02832,0,0,0,.62636.45358V18.697a2.25906,2.25906,0,0,1,.71275-1.59831,2.348,2.348,0,0,1,1.6847-.75595,1.74684,1.74684,0,0,1,.92874.23759,1.49341,1.49341,0,0,1,.58317.648,3.55654,3.55654,0,0,1,.25918.69115q.0648.28079.12959.58317l.28079-.19439a7.999,7.999,0,0,0,2.35425-2.61344,11.79175,11.79175,0,0,0,1.33912-3.2182A12.64224,12.64224,0,0,0,339.68057,9.58232Zm-6.95478,9.71941a4.28716,4.28716,0,0,0,1.94389-.45357l-.0216-.216q-.0864-1.18792-.79915-1.42551a2.64413,2.64413,0,0,0-.41038-.0432H333.309a.12508.12508,0,0,1-.0864-.0216,1.31545,1.31545,0,0,0-.88554.432,1.4154,1.4154,0,0,0-.47517.99353Q331.86185,19.30173,332.72579,19.30173Z"/>
      <path id="MJMAIN-2217-2" data-name="MJMAIN-2217" class="cls-5" d="M346.52813,6.42064q-.19851-2.04621-.19852-2.29053,0-.27488.36649-.42757h.07635a.21267.21267,0,0,0,.09162-.01527A.6098.6098,0,0,1,347.2,3.8247a.376.376,0,0,1,.1527.30541q0,.25959-.09162,1.22162t-.10689,1.06891l.88567-.64135q.85513-.62607.93149-.67189a.29463.29463,0,0,1,.1527-.04581.53453.53453,0,0,1,.36649.1527.57843.57843,0,0,1,.18324.4123.4828.4828,0,0,1-.1527.35122q-.07635.04581-1.03838.50392t-1.03838.48864l1.00784.47338,1.06892.53446a.47563.47563,0,0,1,.13743.35122.54938.54938,0,0,1-.13743.38175.51809.51809,0,0,1-.36649.168.54766.54766,0,0,1-.27486-.09162q-.1527-.09162-.83987-.61081l-.88567-.64136q.19851,2.04622.19851,2.29054a.46538.46538,0,0,1-.10689.29014.6422.6422,0,0,1-.79405,0,.55893.55893,0,0,1-.12217-.29014q0-.25959.09163-1.22162t.10689-1.06892l-.88568.64136q-.85513.62607-.93148.67189a.24738.24738,0,0,1-.15271.04581.5345.5345,0,0,1-.36648-.1527.5784.5784,0,0,1-.18325-.4123V8.20727a.132.132,0,0,1,.04581-.09163.6068.6068,0,0,0,.07636-.09162.42256.42256,0,0,1,.13743-.10689q.10689-.06108.19851-.10689t.29014-.13743q.19851-.09162.38175-.168t.48865-.229l.61081-.30541-2.07675-.99256a.4756.4756,0,0,1-.13744-.35122.54938.54938,0,0,1,.13744-.38176.51812.51812,0,0,1,.36648-.168.54769.54769,0,0,1,.27487.09162q.1527.09162.83986.61081Z"/>
    </g>
    <path id="MJMAIN-28-2" data-name="MJMAIN-28" class="cls-5" d="M354.86444,14.29084a17.76416,17.76416,0,0,1,.216-2.82943,19.79444,19.79444,0,0,1,.49677-2.31106,9.04361,9.04361,0,0,1,.79915-1.90068q.51837-.92876.82075-1.44711a5.7367,5.7367,0,0,1,.90714-1.12314q.60477-.60476.71276-.73435a3.89132,3.89132,0,0,1,.54-.45357h.36718q.30239,0,.30238.19439a1.74547,1.74547,0,0,1-.36717.45357,9.80492,9.80492,0,0,0-.88555,1.14473,14.9434,14.9434,0,0,0-1.05834,1.85748,12.28793,12.28793,0,0,0-.90714,2.98062,21.79981,21.79981,0,0,0-.36718,4.16855,21.46073,21.46073,0,0,0,.36718,4.14694,14.02684,14.02684,0,0,0,.88555,3.00222,9.78128,9.78128,0,0,0,1.05833,1.85748q.54.71277.90715,1.14473a4.87931,4.87931,0,0,1,.36717.45358q0,.19438-.324.19439H359.357l-.60476-.51837a10.65874,10.65874,0,0,1-2.959-4.57892A17.65915,17.65915,0,0,1,354.86444,14.29084Z"/>
    <path id="MJMATHI-73-2" data-name="MJMATHI-73" class="cls-5" d="M364.08707,13.44849a3.2009,3.2009,0,0,1,.34558-1.40392,3.5534,3.5534,0,0,1,1.20953-1.31752,3.451,3.451,0,0,1,2.09507-.58316,2.72882,2.72882,0,0,1,1.94388.58316,1.85049,1.85049,0,0,1,.62636,1.29593,1.28627,1.28627,0,0,1-.36717,1.01513,1.30855,1.30855,0,0,1-.82075.34558.86266.86266,0,0,1-.51837-.17279.69878.69878,0,0,1-.25919-.56156.98013.98013,0,0,1,.19439-.60477,1.94013,1.94013,0,0,1,.36718-.38877.52265.52265,0,0,1,.28078-.12959.01909.01909,0,0,0,.0216-.0216q0-.0648-.15119-.19439a1.47522,1.47522,0,0,0-.54-.23759,3.82193,3.82193,0,0,0-.84235-.12959,1.82688,1.82688,0,0,0-2.00867,1.7063.78081.78081,0,0,0,.41037.756,4.47974,4.47974,0,0,0,1.18793.36718,4.73245,4.73245,0,0,1,1.12313.324,2.13459,2.13459,0,0,1,1.42551,2.07347,3.28675,3.28675,0,0,1-.23758,1.20953,4.83135,4.83135,0,0,1-.71276,1.20952,3.12443,3.12443,0,0,1-1.36071.95034,5.86481,5.86481,0,0,1-2.03028.36718,3.49366,3.49366,0,0,1-2.35426-.62636,1.99825,1.99825,0,0,1-.71275-1.46871,1.46893,1.46893,0,0,1,.45357-1.20953,1.49138,1.49138,0,0,1,.95034-.36717,1.042,1.042,0,0,1,.60476.19439.80407.80407,0,0,1,.30239.66955,1.29276,1.29276,0,0,1-.38878.95035,1.0637,1.0637,0,0,1-.66956.38877.16578.16578,0,0,1-.0648.0216q-.02159,0-.02159.0432a.46679.46679,0,0,0,.17279.17279,3.01561,3.01561,0,0,0,.66955.28078,4.24818,4.24818,0,0,0,2.52705-.08639,1.85546,1.85546,0,0,0,.82075-.60477,2.86731,2.86731,0,0,0,.36718-.66956,1.62917,1.62917,0,0,0,.108-.54,1.01754,1.01754,0,0,0-.45357-.90715,2.296,2.296,0,0,0-1.03674-.36718,5.3451,5.3451,0,0,1-1.27432-.324,1.99877,1.99877,0,0,1-1.01514-.756A2.17409,2.17409,0,0,1,364.08707,13.44849Z"/>
    <path id="MJMAIN-2C" class="cls-5" d="M373.07212,18.93455v-.54a1.35071,1.35071,0,0,1,.34558-.92874,1.18056,1.18056,0,0,1,.92875-.38877,1.41185,1.41185,0,0,1,1.07993.54,2.98181,2.98181,0,0,1,.49677,1.90069,5.55686,5.55686,0,0,1-.19439,1.46871,6.715,6.715,0,0,1-.45357,1.23112,4.68414,4.68414,0,0,1-.56157.88555q-.30237.36717-.51836.58316t-.28079.19439q-.08639,0-.28078-.19439t-.19439-.28078q0-.0864.23759-.34558t.54-.648a4.14519,4.14519,0,0,0,.56157-1.07993,6.2043,6.2043,0,0,0,.34558-1.57671v-.25918l-.0216.0216a.83857.83857,0,0,1-.108.04319.54518.54518,0,0,0-.1296.0648.3534.3534,0,0,1-.19438.0432,1.574,1.574,0,0,0-.25919.0216,1.28594,1.28594,0,0,1-.95034-.36718Z"/>
    <path id="MJMATHI-61-2" data-name="MJMATHI-61" class="cls-5" d="M381.7116,16.29951a6.38266,6.38266,0,0,1,1.64149-4.14694,4.83335,4.83335,0,0,1,3.69338-1.98708,2.44862,2.44862,0,0,1,1.94388,1.05833,1.08074,1.08074,0,0,1,.99354-.648.77281.77281,0,0,1,.49677.17279.53191.53191,0,0,1,.216.432q0,.28077-.79916,3.45579t-.82075,3.58538a1.15551,1.15551,0,0,0,.15119.71275.63451.63451,0,0,0,.45358.19439.9385.9385,0,0,0,.432-.19439,4.89766,4.89766,0,0,0,.88555-2.07347q.12958-.432.216-.45357a.63176.63176,0,0,1,.216-.0216h.08639q.41039,0,.41038.19439a3.431,3.431,0,0,1-.108.58316,6.7762,6.7762,0,0,1-.432,1.16633,3.67954,3.67954,0,0,1-.69115,1.07993,2.13584,2.13584,0,0,1-.69116.45358,2.30332,2.30332,0,0,1-.51837.04319,2.20768,2.20768,0,0,1-1.23113-.324,1.65814,1.65814,0,0,1-.648-.66956l-.12959-.324q-.0216-.0216-.08639.0216l-.0864.0864a3.78676,3.78676,0,0,1-2.59184,1.20952,2.94769,2.94769,0,0,1-2.09507-.86394A3.63956,3.63956,0,0,1,381.7116,16.29951ZM388.58,12.60614a1.95486,1.95486,0,0,0-.108-.47517,2.05338,2.05338,0,0,0-.49677-.756,1.38063,1.38063,0,0,0-.99354-.432,2.07269,2.07269,0,0,0-1.44711.66956,4.51931,4.51931,0,0,0-1.07993,1.74949,17.24286,17.24286,0,0,0-.88555,3.54219v.23758a1.15135,1.15135,0,0,1-.0216.25919,1.81387,1.81387,0,0,0,.38878,1.33911,1.391,1.391,0,0,0,.92874.38878,2.4389,2.4389,0,0,0,1.6199-.71276,3.63167,3.63167,0,0,0,.95034-1.10153q.0432-.0864.58317-2.31106T388.58,12.60614Z"/>
    <path id="MJMAIN-29-2" data-name="MJMAIN-29" class="cls-5" d="M393.74206,3.5131l.08639-.0216h.47517l.60477.51837a10.65886,10.65886,0,0,1,2.959,4.57892,17.65911,17.65911,0,0,1,.92874,5.70205,18.031,18.031,0,0,1-.216,2.82942,18.56958,18.56958,0,0,1-.49677,2.31106,9.72829,9.72829,0,0,1-.79915,1.90069q-.51837.95034-.82075,1.44711a6.57078,6.57078,0,0,1-.88554,1.10153q-.58317.60476-.69116.71276t-.49677.41037l-.0864.0864h-.49677a.12693.12693,0,0,1-.108-.0648.50827.50827,0,0,1-.06479-.19439q.02159-.0216.23758-.28078,3.34779-3.47739,3.3478-10.25937t-3.3478-10.25938q-.216-.25918-.23758-.28078A.25383.25383,0,0,1,393.74206,3.5131Z"/>
  </g>
  <g>
    <path id="MJMATHI-51-2" data-name="MJMATHI-51" class="cls-5" d="M489.80287,26.47324q0-.8679.0263-1.315a2.597,2.597,0,0,1,.0526-.4997v-.1052l-.3945.1052a9.56723,9.56723,0,0,1-2.2092.2893,6.45411,6.45411,0,0,1-6.6276-5.8649q-.02631-.21039-.0263-1.1309a10.88017,10.88017,0,0,1,1.2624-5.1022,14.73034,14.73034,0,0,1,3.3927-4.2869A10.25821,10.25821,0,0,1,491.828,5.854q.99939,0,1.2624.0263a6.26144,6.26144,0,0,1,4.1028,2.2618,7.41521,7.41521,0,0,1,1.578,4.7866,11.96648,11.96648,0,0,1-3.8924,8.6264,12.61345,12.61345,0,0,1-3.4453,2.3933l-.4471.2104v.1315q0,.02631.1315.7101a2.06952,2.06952,0,0,0,.5523,1.1046,1.63746,1.63746,0,0,0,1.2098.4208,3.064,3.064,0,0,0,1.7621-.5786,2.67579,2.67579,0,0,0,1.1046-1.4991q.1578-.36819.3419-.3682a.2705.2705,0,0,1,.2893.2367,3.93385,3.93385,0,0,1-.263.9468q-.263.73641-.7364,1.7358a4.56567,4.56567,0,0,1-1.4202,1.7095,3.589,3.589,0,0,1-1.9988.7627q-2.15661,0-2.1566-2.8141Zm6.2331-14.4124a7.34143,7.34143,0,0,0-.3945-2.5248,3.4573,3.4573,0,0,0-1.0783-1.6043,5.9301,5.9301,0,0,0-1.315-.789,3.58987,3.58987,0,0,0-1.3939-.263,5.7376,5.7376,0,0,0-2.5774.6575,9.46893,9.46893,0,0,0-4.3132,4.6288,14.81009,14.81009,0,0,0-1.6306,6.5224,5.43177,5.43177,0,0,0,1.4202,4.1291,2.47005,2.47005,0,0,0,.7627.5523v-.2104a2.7508,2.7508,0,0,1,.8679-1.9462,2.85909,2.85909,0,0,1,2.0514-.9205,2.12717,2.12717,0,0,1,1.1309.2893,1.8186,1.8186,0,0,1,.7101.789,4.33051,4.33051,0,0,1,.3156.8416q.0789.34191.1578.7101l.3419-.2367a9.74,9.74,0,0,0,2.8667-3.1823,14.35857,14.35857,0,0,0,1.6306-3.9187A15.39465,15.39465,0,0,0,496.036,12.06084Zm-8.4686,11.835a5.22025,5.22025,0,0,0,2.367-.5523l-.0263-.263q-.10521-1.44649-.9731-1.7358a3.2206,3.2206,0,0,0-.4997-.0526h-.1578a.15226.15226,0,0,1-.1052-.0263,1.60185,1.60185,0,0,0-1.0783.526,1.72349,1.72349,0,0,0-.5786,1.2098Q486.51537,23.89585,487.56737,23.89584Z"/>
    <path id="MJMAIN-2217-3" data-name="MJMAIN-2217" class="cls-5" d="M504.374,8.211q-.24172-2.4916-.24173-2.78912,0-.3347.44626-.52063h.093a.2591.2591,0,0,0,.11157-.01859.74248.74248,0,0,1,.40907.16734.4579.4579,0,0,1,.18594.37188q0,.31611-.11157,1.48753T505.13637,8.211L506.21483,7.43q1.04127-.76236,1.13424-.81814a.35876.35876,0,0,1,.18594-.05579.65084.65084,0,0,1,.44626.186.70429.70429,0,0,1,.22313.502.58788.58788,0,0,1-.18594.42766q-.093.05579-1.2644.61361t-1.2644.595l1.22721.57641,1.30159.6508a.57916.57916,0,0,1,.16735.42766.669.669,0,0,1-.16735.46485.6309.6309,0,0,1-.44626.20454.66683.66683,0,0,1-.33469-.11157q-.18594-.11156-1.02268-.74376l-1.07846-.781q.24173,2.4916.24173,2.78911a.56669.56669,0,0,1-.13016.35329.782.782,0,0,1-.9669,0,.68073.68073,0,0,1-.14875-.35329q0-.3161.11157-1.48752t.13016-1.30159l-1.07846.781q-1.04127.76236-1.13424.81814a.3012.3012,0,0,1-.18594.05578.65085.65085,0,0,1-.44626-.18594.70427.70427,0,0,1-.22313-.502v-.14875a.16071.16071,0,0,1,.05578-.11157.738.738,0,0,0,.093-.11156.51463.51463,0,0,1,.16735-.13016q.13016-.07437.24172-.13016t.35329-.16734q.24172-.11157.46485-.20454t.595-.27891l.74377-.37188-2.5288-1.20862a.57912.57912,0,0,1-.16735-.42766.669.669,0,0,1,.16735-.46486.63088.63088,0,0,1,.44626-.20453.66691.66691,0,0,1,.33469.11156q.18594.11157,1.02268.74377Z"/>
    <path id="MJMAIN-28-3" data-name="MJMAIN-28" class="cls-5" d="M514.52487,17.79424a21.63126,21.63126,0,0,1,.263-3.4453,24.10218,24.10218,0,0,1,.6049-2.8141,11.01278,11.01278,0,0,1,.9731-2.3144q.6312-1.1309.9994-1.7621a6.98509,6.98509,0,0,1,1.1046-1.3676q.73639-.7364.8679-.8942a4.73923,4.73923,0,0,1,.6575-.5523h.4471q.36819,0,.3682.2367a2.12527,2.12527,0,0,1-.4471.5523,11.94043,11.94043,0,0,0-1.0783,1.3939,18.19542,18.19542,0,0,0-1.2887,2.2618,14.96166,14.96166,0,0,0-1.1046,3.6294,26.54418,26.54418,0,0,0-.4471,5.0759,26.13126,26.13126,0,0,0,.4471,5.0496,17.08006,17.08006,0,0,0,1.0783,3.6557,11.91058,11.91058,0,0,0,1.2887,2.2618q.65749.8679,1.1046,1.3939a5.94341,5.94341,0,0,1,.4471.5523q0,.2367-.3945.2367h-.4208l-.7364-.6312a12.97868,12.97868,0,0,1-3.6031-5.5756A21.5027,21.5027,0,0,1,514.52487,17.79424Z"/>
    <path id="MJMATHI-73-3" data-name="MJMATHI-73" class="cls-5" d="M525.72867,16.76854a3.89742,3.89742,0,0,1,.4208-1.7095,4.32676,4.32676,0,0,1,1.4728-1.6043,4.20219,4.20219,0,0,1,2.5511-.7101,3.32281,3.32281,0,0,1,2.367.7101,2.25333,2.25333,0,0,1,.7627,1.578,1.56628,1.56628,0,0,1-.4471,1.2361,1.59337,1.59337,0,0,1-.9994.4208,1.05043,1.05043,0,0,1-.6312-.2104.85086.85086,0,0,1-.3156-.6838,1.19345,1.19345,0,0,1,.2367-.7364,2.36254,2.36254,0,0,1,.4471-.4734.63644.63644,0,0,1,.3419-.1578.02324.02324,0,0,0,.0263-.0263q0-.0789-.1841-.2367a1.79654,1.79654,0,0,0-.6575-.2893,4.65428,4.65428,0,0,0-1.0257-.1578,2.22453,2.22453,0,0,0-2.4459,2.0777.95074.95074,0,0,0,.4997.9205,5.454,5.454,0,0,0,1.4465.4471,5.76407,5.76407,0,0,1,1.3676.3945,2.59923,2.59923,0,0,1,1.7358,2.5248,4.00224,4.00224,0,0,1-.2893,1.4728,5.883,5.883,0,0,1-.8679,1.4728,3.80462,3.80462,0,0,1-1.6569,1.1572,7.14121,7.14121,0,0,1-2.4722.4471,4.25408,4.25408,0,0,1-2.8667-.7627,2.43319,2.43319,0,0,1-.8679-1.7884,1.78863,1.78863,0,0,1,.5523-1.4728,1.816,1.816,0,0,1,1.1572-.4471,1.269,1.269,0,0,1,.7364.2367.97914.97914,0,0,1,.3682.8153,1.5741,1.5741,0,0,1-.4734,1.1572,1.29525,1.29525,0,0,1-.8153.4734.20177.20177,0,0,1-.0789.0263q-.02631,0-.0263.0526a.56829.56829,0,0,0,.2104.2104,3.67127,3.67127,0,0,0,.8153.3419,5.17277,5.17277,0,0,0,3.0771-.1052,2.25935,2.25935,0,0,0,.9994-.7364,3.49133,3.49133,0,0,0,.4471-.8153,1.98384,1.98384,0,0,0,.1315-.6575,1.239,1.239,0,0,0-.5523-1.1046,2.7958,2.7958,0,0,0-1.2624-.4471,6.50889,6.50889,0,0,1-1.5517-.3945,2.43384,2.43384,0,0,1-1.2361-.9205A2.64724,2.64724,0,0,1,525.72867,16.76854Z"/>
    <path id="MJMAIN-2C-2" data-name="MJMAIN-2C" class="cls-5" d="M536.69577,23.44874v-.6575a1.64463,1.64463,0,0,1,.4208-1.1309,1.43749,1.43749,0,0,1,1.1309-.4734,1.71921,1.71921,0,0,1,1.315.6575,3.6309,3.6309,0,0,1,.6049,2.3144,6.7663,6.7663,0,0,1-.2367,1.7884,8.1769,8.1769,0,0,1-.5523,1.4991,5.70374,5.70374,0,0,1-.6838,1.0783q-.3682.4471-.6312.7101t-.3419.2367q-.10521,0-.3419-.2367t-.2367-.3419q0-.10519.2893-.4208t.6575-.789a5.04757,5.04757,0,0,0,.6838-1.315,7.55471,7.55471,0,0,0,.4208-1.9199v-.3156l-.0263.0263a1.01917,1.01917,0,0,1-.1315.0526.66431.66431,0,0,0-.1578.0789.43036.43036,0,0,1-.2367.0526,1.917,1.917,0,0,0-.3156.0263,1.56578,1.56578,0,0,1-1.1572-.4471Z"/>
    <path id="MJMATHI-61-3" data-name="MJMATHI-61" class="cls-5" d="M547.21577,20.24014a7.772,7.772,0,0,1,1.9988-5.0496,5.88541,5.88541,0,0,1,4.4973-2.4196,2.98159,2.98159,0,0,1,2.367,1.2887,1.316,1.316,0,0,1,1.2098-.789.94107.94107,0,0,1,.6049.2104.64767.64767,0,0,1,.263.526q0,.34191-.9731,4.208t-.9994,4.3658a1.40694,1.40694,0,0,0,.1841.8679.77253.77253,0,0,0,.5523.2367,1.14268,1.14268,0,0,0,.526-.2367,5.96356,5.96356,0,0,0,1.0783-2.5248q.1578-.526.263-.5523a.76932.76932,0,0,1,.263-.0263h.1052q.49969,0,.4997.2367a4.17787,4.17787,0,0,1-.1315.7101,8.25115,8.25115,0,0,1-.526,1.4202,4.48065,4.48065,0,0,1-.8416,1.315,2.60042,2.60042,0,0,1-.8416.5523,2.8037,2.8037,0,0,1-.6312.0526,2.68819,2.68819,0,0,1-1.4991-.3945,2.019,2.019,0,0,1-.789-.8153l-.1578-.3945q-.02631-.0263-.1052.0263l-.1052.1052a4.611,4.611,0,0,1-3.156,1.4728,3.58926,3.58926,0,0,1-2.5511-1.052A4.43173,4.43173,0,0,1,547.21577,20.24014Zm8.3634-4.4973a2.38125,2.38125,0,0,0-.1315-.5786,2.50059,2.50059,0,0,0-.6049-.9205,1.68119,1.68119,0,0,0-1.2098-.526,2.52384,2.52384,0,0,0-1.7621.8153,5.5031,5.5031,0,0,0-1.315,2.1303,20.99642,20.99642,0,0,0-1.0783,4.3132v.2893a1.40209,1.40209,0,0,1-.0263.3156,2.20875,2.20875,0,0,0,.4734,1.6306,1.69375,1.69375,0,0,0,1.1309.4734,2.96981,2.96981,0,0,0,1.9725-.8679,4.42254,4.42254,0,0,0,1.1572-1.3413q.05259-.10519.7101-2.8141T555.57917,15.74284Z"/>
    <path id="MJMAIN-29-3" data-name="MJMAIN-29" class="cls-5" d="M561.86487,4.67054l.1052-.0263h.5786l.7364.6312a12.979,12.979,0,0,1,3.6031,5.5756,21.50306,21.50306,0,0,1,1.1309,6.9432,21.95608,21.95608,0,0,1-.263,3.4453,22.614,22.614,0,0,1-.6049,2.8141,11.84559,11.84559,0,0,1-.9731,2.3144q-.6312,1.15721-.9994,1.7621a8.00027,8.00027,0,0,1-1.0783,1.3413q-.7101.73641-.8416.8679t-.6049.4997l-.1052.1052h-.6049a.15454.15454,0,0,1-.1315-.0789.619.619,0,0,1-.0789-.2367q.0263-.0263.2893-.3419,4.07649-4.23429,4.0765-12.4925t-4.0765-12.4925q-.263-.3156-.2893-.3419A.30911.30911,0,0,1,561.86487,4.67054Z"/>
  </g>
</svg>
