<svg id="Layer_1" data-name="Layer 1" xmlns="http://www.w3.org/2000/svg" viewBox="0 0 572.73105 161.35469">
  <defs>
    <style>
      .cls-1 {
        fill: #e7ebe8;
      }

      .cls-2 {
        fill: #fff;
      }

      .cls-3 {
        fill: #231f20;
      }

      .cls-4, .cls-6 {
        fill: #70a8da;
      }

      .cls-5 {
        fill: #010101;
      }

      .cls-6, .cls-8 {
        opacity: 0.5;
      }

      .cls-7, .cls-8 {
        fill: #ef4136;
      }

      .cls-9 {
        font-size: 15.12008px;
        fill: #6d6e71;
        font-family: Roboto-Regular, Roboto;
      }

      .cls-10 {
        letter-spacing: -0.00736em;
      }
    </style>
  </defs>
  <title>q-learning</title>
  <rect class="cls-1" x="294.53367" y="38.64716" width="96.20022" height="96.20022"/>
  <polygon class="cls-2" points="307.195 86.745 317.156 106.745 317.156 66.746 307.195 86.745"/>
  <polygon class="cls-2" points="342.537 122.435 362.536 112.474 322.538 112.474 342.537 122.435"/>
  <polygon class="cls-2" points="378.072 86.767 368.112 66.768 368.112 106.767 378.072 86.767"/>
  <polygon class="cls-3" points="342.537 51.266 322.538 61.227 362.536 61.227 342.537 51.266"/>
  <rect class="cls-1" x="1.23439" y="38.85079" width="96.20022" height="96.20022"/>
  <circle class="cls-2" cx="50.35473" cy="88.15239" r="30.47011"/>
  <circle class="cls-4" cx="50.3521" cy="88.18875" r="30.47011"/>
  <g>
    <path id="MJMAIN-3D" class="cls-5" d="M150.57644,85.303a.81525.81525,0,0,1,.524-.74852h23.84032a.87032.87032,0,0,1,.56138.74852.84907.84907,0,0,1-.524.71109l-11.90144.03743H151.17525A.74178.74178,0,0,1,150.57644,85.303Zm0,7.26063a.74179.74179,0,0,1,.59881-.74852h23.80289q.524.37427.524.74852a.81834.81834,0,0,1-.56138.74852H151.1004A.81524.81524,0,0,1,150.57644,92.56361Z"/>
    <path id="MJSZ2-2211" class="cls-5" d="M215.17359,62.81q.11228-.07485,22.64269-.07485h22.53041l2.1707,5.0525q2.20814,5.16477,2.35783,5.46418h-1.497l-.262-.524a12.6442,12.6442,0,0,0-2.09585-2.91922,15.70917,15.70917,0,0,0-4.15428-2.8818,20.49261,20.49261,0,0,0-5.277-1.60932,43.53949,43.53949,0,0,0-5.65132-.63624q-2.65724-.11227-6.84894-.1497H222.32194l.29941.41169q17.32821,23.69061,17.40306,23.91516a.33738.33738,0,0,1,0,.22456q-.11229.11227-9.88045,11.30263l-9.88044,11.22778q0,.03742,7.89687.03743h5.27705q3.33091,0,4.79052.03742,5.08994,0,8.23371-.18713a48.076,48.076,0,0,0,6.25013-.78594,17.23561,17.23561,0,0,0,5.27705-1.83387,14.03489,14.03489,0,0,0,3.85487-3.25606,11.86032,11.86032,0,0,0,1.53447-2.69467h1.497q0,.03743-.262.78595t-.93565,2.43268q-.67367,1.68417-1.1602,3.14378l-2.1707,5.801-22.493.03743q-22.53041,0-22.64268-.07486a.31793.31793,0,0,1-.22456-.33683.57448.57448,0,0,1,.07485-.22455l19.948-22.82982q0-.03743-1.23505-1.68417t-3.92973-5.38933q-2.69466-3.74259-4.86537-6.66182l-9.95529-13.66046-.03743-.56139Q214.98646,62.92228,215.17359,62.81Z"/>
  </g>
  <path id="MJMAIN-22C5" class="cls-5" d="M430.64509,88.89863a2.21731,2.21731,0,0,1,.63624-1.57189,2.1187,2.1187,0,0,1,1.60932-.67367,2.29209,2.29209,0,0,1,1.57189.59882,2.15962,2.15962,0,0,1,.71109,1.60931,2.26237,2.26237,0,0,1-.63624,1.60932,2.1187,2.1187,0,0,1-1.60932.67366,2.18111,2.18111,0,0,1-1.60931-.63624A2.31428,2.31428,0,0,1,430.64509,88.89863Z"/>
  <rect class="cls-1" x="475.80824" y="38.66087" width="96.20022" height="96.20022"/>
  <polygon class="cls-2" points="559.299 86.804 549.338 66.805 549.338 106.803 559.299 86.804"/>
  <polygon class="cls-2" points="488.423 86.759 498.384 106.758 498.384 66.76 488.423 86.759"/>
  <polygon class="cls-6" points="488.47 86.759 498.431 106.758 498.431 66.76 488.47 86.759"/>
  <polygon class="cls-7" points="523.812 122.449 543.811 112.488 503.812 112.488 523.812 122.449"/>
  <polygon class="cls-8" points="559.347 86.781 549.386 66.782 549.386 106.78 559.347 86.781"/>
  <polygon class="cls-4" points="523.812 51.28 503.812 61.24 543.811 61.24 523.812 51.28"/>
  <g>
    <path id="MJMATHI-51" class="cls-5" d="M484.47936,25.52678q0-.85906.026-1.30161a2.571,2.571,0,0,1,.05207-.49461v-.10413l-.39049.10413a9.47,9.47,0,0,1-2.1867.28635,6.38838,6.38838,0,0,1-6.56012-5.80518q-.026-.20826-.026-1.11939a10.76934,10.76934,0,0,1,1.24954-5.05024,14.5801,14.5801,0,0,1,3.35816-4.24325,10.15372,10.15372,0,0,1,6.482-2.68132q.98922,0,1.24954.026a6.19765,6.19765,0,0,1,4.061,2.23877,7.33961,7.33961,0,0,1,1.56193,4.73786,11.8446,11.8446,0,0,1-3.85277,8.53857,12.485,12.485,0,0,1-3.41021,2.36893l-.44255.20826v.13016q0,.026.13016.70287a2.04854,2.04854,0,0,0,.54668,1.09335,1.62078,1.62078,0,0,0,1.19748.41651,3.03291,3.03291,0,0,0,1.74416-.5727,2.64854,2.64854,0,0,0,1.09335-1.48384q.15619-.36445.33842-.36445a.26775.26775,0,0,1,.28635.23429,3.89361,3.89361,0,0,1-.26032.93716q-.26032.72889-.7289,1.71812a4.51923,4.51923,0,0,1-1.40574,1.6921,3.55253,3.55253,0,0,1-1.97845.75493q-2.13464,0-2.13464-2.78544ZM490.649,11.26113a7.26668,7.26668,0,0,0-.39048-2.49909,3.422,3.422,0,0,0-1.06732-1.588,5.86964,5.86964,0,0,0-1.30161-.781,3.55323,3.55323,0,0,0-1.37971-.26033,5.67922,5.67922,0,0,0-2.55116.65081,9.37254,9.37254,0,0,0-4.26928,4.58167,14.65927,14.65927,0,0,0-1.614,6.456,5.37648,5.37648,0,0,0,1.40573,4.08705,2.445,2.445,0,0,0,.75494.54668v-.20826a2.72275,2.72275,0,0,1,.85906-1.92638,2.82994,2.82994,0,0,1,2.03051-.91113,2.10541,2.10541,0,0,1,1.11939.28636,1.8,1.8,0,0,1,.70287.781,4.286,4.286,0,0,1,.31238.833q.07811.33842.1562.70287l.33842-.23429a9.641,9.641,0,0,0,2.83751-3.1499,14.21236,14.21236,0,0,0,1.614-3.87879A15.23716,15.23716,0,0,0,490.649,11.26113Zm-8.38237,11.71449a5.16711,5.16711,0,0,0,2.3429-.54667l-.026-.26032q-.10413-1.43178-.96319-1.71813a3.18683,3.18683,0,0,0-.49462-.05206h-.15619a.15074.15074,0,0,1-.10413-.026,1.58552,1.58552,0,0,0-1.06732.52065,1.70594,1.70594,0,0,0-.57271,1.19748Q481.22533,22.97562,482.26662,22.97562Z"/>
    <g>
      <path id="MJMATHI-3C0" class="cls-5" d="M497.11341,12.92139a.54512.54512,0,0,1-.62576-.60736v-.20245l.23926-.51534a35.66281,35.66281,0,0,0,2.00612-5.0245l.14724-.44171h-.589a6.13625,6.13625,0,0,0-.99386.05521,1.991,1.991,0,0,0-.71778.34969,2.4042,2.4042,0,0,0-.40491.33129,4.74079,4.74079,0,0,0-.34969.3865,2.26611,2.26611,0,0,0-.16564.22085,1.04929,1.04929,0,0,1-.27607.01841q-.34969,0-.34969-.18405a2.222,2.222,0,0,1,.34969-.64417,6.25808,6.25808,0,0,1,1.01226-1.14109,2.50212,2.50212,0,0,1,1.30674-.69938q.12883-.03681,4.14107-.03681,2.94477,0,3.01838.0184a.50249.50249,0,0,1,.3681.51534.76868.76868,0,0,1-.589.773A9.98155,9.98155,0,0,1,503.371,6.13h-1.17791l-.05521.31288a13.81412,13.81412,0,0,0-.22086,2.19016,8.01929,8.01929,0,0,0,.16564,1.71165,6.65051,6.65051,0,0,0,.34969,1.1779,2.1462,2.1462,0,0,1,.18405.51534.853.853,0,0,1-.25767.589.86567.86567,0,0,1-.66257.27607.84812.84812,0,0,1-.33128-.05521q-.12883-.05522-.29448-.44172a5.31642,5.31642,0,0,1-.29448-1.10428q-.0184-.16564-.0184-.80981a12.214,12.214,0,0,1,.16564-1.9325q.16564-1.03068.33129-1.69324l.18405-.73619h-1.80367l-.01841.07361q0,.05522-.34969,1.454t-.7914,2.96317a13.7156,13.7156,0,0,1-.57055,1.78526A.77387.77387,0,0,1,497.11341,12.92139Z"/>
      <path id="MJMAIN-31" class="cls-5" d="M507.94739,7.96806l-.1692.06508a3.73246,3.73246,0,0,1-.52065.13016,6.00033,6.00033,0,0,1-.75493.09111h-.24731V7.65567h.24731a4.23336,4.23336,0,0,0,1.1324-.19524,3.07418,3.07418,0,0,0,.7289-.31239,3.3367,3.3367,0,0,0,.36445-.28635q.026-.03906.15619-.03905a.36256.36256,0,0,1,.22128.07809v3.89182l.013,3.90483a.51567.51567,0,0,0,.1562.11715,1.54348,1.54348,0,0,0,.31238.05206q.24731.026.807.026h.33842v.59874h-.14318q-.27333-.039-2.06956-.039-1.77018,0-2.04353.039h-.15619v-.59874h.833a3.12826,3.12826,0,0,0,.3254-.013,1.27523,1.27523,0,0,0,.20826-.039.77869.77869,0,0,1,.10413-.026q.013,0,.0781-.06508t.07809-.05207Z"/>
    </g>
    <path id="MJMAIN-28" class="cls-5" d="M518.58155,16.93615a21.41274,21.41274,0,0,1,.26032-3.41022,23.85893,23.85893,0,0,1,.59874-2.78544,10.9009,10.9009,0,0,1,.9632-2.29084q.62477-1.11939.98922-1.74416a6.91452,6.91452,0,0,1,1.09335-1.35367q.72891-.72891.85907-.8851a4.69082,4.69082,0,0,1,.6508-.54667h.44255q.36446,0,.36445.23429a2.10354,2.10354,0,0,1-.44255.54667,11.81957,11.81957,0,0,0-1.06732,1.37971,18.01149,18.01149,0,0,0-1.27558,2.23877,14.80994,14.80994,0,0,0-1.09335,3.59245,26.27414,26.27414,0,0,0-.44255,5.02421,25.86577,25.86577,0,0,0,.44255,4.99819,16.90682,16.90682,0,0,0,1.06732,3.61847,11.7899,11.7899,0,0,0,1.27558,2.23877q.65081.85907,1.09335,1.37971a5.88059,5.88059,0,0,1,.44255.54668q0,.23428-.39048.23429h-.41652l-.7289-.62478a12.84664,12.84664,0,0,1-3.56641-5.51883A21.28385,21.28385,0,0,1,518.58155,16.93615Z"/>
    <path id="MJMATHI-73" class="cls-5" d="M529.6973,15.9209a3.85778,3.85778,0,0,1,.41652-1.6921,4.28272,4.28272,0,0,1,1.4578-1.588,4.15932,4.15932,0,0,1,2.52513-.70287,3.289,3.289,0,0,1,2.3429.70287,2.23033,2.23033,0,0,1,.75493,1.56193,1.55028,1.55028,0,0,1-.44255,1.22351,1.57713,1.57713,0,0,1-.98922.41652,1.03977,1.03977,0,0,1-.62477-.20826.84219.84219,0,0,1-.31239-.67684,1.18132,1.18132,0,0,1,.23429-.7289,2.33842,2.33842,0,0,1,.44255-.46858.63.63,0,0,1,.33842-.15619.023.023,0,0,0,.026-.026q0-.0781-.18223-.23429a1.7782,1.7782,0,0,0-.6508-.28636,4.60615,4.60615,0,0,0-1.01526-.15619,2.20188,2.20188,0,0,0-2.421,2.05654.94109.94109,0,0,0,.49461.91113,5.399,5.399,0,0,0,1.43177.44255,5.70432,5.70432,0,0,1,1.35367.39048,2.57276,2.57276,0,0,1,1.71813,2.49909,3.96147,3.96147,0,0,1-.28635,1.45781,5.82319,5.82319,0,0,1-.85907,1.4578,3.76582,3.76582,0,0,1-1.64,1.14542,7.06891,7.06891,0,0,1-2.447.44255,4.21078,4.21078,0,0,1-2.83751-.75494,2.40845,2.40845,0,0,1-.85907-1.77019,1.77041,1.77041,0,0,1,.54668-1.4578,1.79752,1.79752,0,0,1,1.14542-.44255,1.25607,1.25607,0,0,1,.7289.23429.96916.96916,0,0,1,.36445.807,1.55808,1.55808,0,0,1-.46858,1.14542,1.2821,1.2821,0,0,1-.807.46858.19985.19985,0,0,1-.0781.026q-.026,0-.026.05206a.56265.56265,0,0,0,.20826.20826,3.63455,3.63455,0,0,0,.807.33842,5.12021,5.12021,0,0,0,3.04577-.10413,2.2364,2.2364,0,0,0,.98922-.7289,3.45593,3.45593,0,0,0,.44255-.807,1.96362,1.96362,0,0,0,.13016-.65081,1.2264,1.2264,0,0,0-.54668-1.09335,2.76726,2.76726,0,0,0-1.24954-.44255,6.4423,6.4423,0,0,1-1.5359-.39048,2.40909,2.40909,0,0,1-1.22352-.91113A2.62033,2.62033,0,0,1,529.6973,15.9209Z"/>
    <path id="MJMAIN-2C" class="cls-5" d="M540.5267,22.53308v-.65081a1.62787,1.62787,0,0,1,.41652-1.11938,1.42284,1.42284,0,0,1,1.11938-.46858,1.70166,1.70166,0,0,1,1.30161.6508A3.59386,3.59386,0,0,1,543.963,23.236a6.69761,6.69761,0,0,1-.23429,1.77019A8.094,8.094,0,0,1,543.182,26.49a5.64532,5.64532,0,0,1-.67684,1.06732q-.36446.44254-.62477.70287t-.33842.23429q-.10413,0-.33842-.23429t-.23429-.33842q0-.10413.28636-.41651t.6508-.781a4.9958,4.9958,0,0,0,.67684-1.30161,7.47747,7.47747,0,0,0,.41651-1.90035v-.31239l-.026.026a1.01035,1.01035,0,0,1-.13016.05206.65723.65723,0,0,0-.15619.0781.426.426,0,0,1-.23429.05206,1.89766,1.89766,0,0,0-.31239.026,1.54988,1.54988,0,0,1-1.14542-.44254Z"/>
    <path id="MJMATHI-61" class="cls-5" d="M550.96562,19.35715a7.69282,7.69282,0,0,1,1.97845-4.99819,5.82545,5.82545,0,0,1,4.4515-2.395,2.95119,2.95119,0,0,1,2.3429,1.27558,1.30257,1.30257,0,0,1,1.19749-.781.93143.93143,0,0,1,.59874.20826.64109.64109,0,0,1,.26032.52064q0,.33843-.96319,4.16516T559.8426,21.674a1.39266,1.39266,0,0,0,.18223.85907.76475.76475,0,0,0,.54667.23429,1.13121,1.13121,0,0,0,.52065-.23429,5.903,5.903,0,0,0,1.06732-2.4991q.15619-.52064.26032-.54667a.7613.7613,0,0,1,.26032-.026h.10413q.49461,0,.49461.23429a4.13425,4.13425,0,0,1-.13016.70287,8.16633,8.16633,0,0,1-.52064,1.40573,4.43493,4.43493,0,0,1-.833,1.30161,2.574,2.574,0,0,1-.833.54668,2.77528,2.77528,0,0,1-.62478.05207,2.66086,2.66086,0,0,1-1.48383-.39049,1.99856,1.99856,0,0,1-.781-.807l-.15619-.39048q-.026-.026-.10413.026l-.10413.10413a4.56407,4.56407,0,0,1-3.12386,1.45781,3.55276,3.55276,0,0,1-2.52513-1.04129A4.38664,4.38664,0,0,1,550.96562,19.35715Zm8.27824-4.45151a2.35682,2.35682,0,0,0-.13016-.57271,2.47487,2.47487,0,0,0-.59874-.91113,1.664,1.664,0,0,0-1.19748-.52064,2.49813,2.49813,0,0,0-1.74416.807,5.4471,5.4471,0,0,0-1.30161,2.10861,20.78275,20.78275,0,0,0-1.06732,4.26928v.28635a1.388,1.388,0,0,1-.026.31239,2.18627,2.18627,0,0,0,.46858,1.614,1.67656,1.67656,0,0,0,1.11938.46858,2.93957,2.93957,0,0,0,1.95242-.85907,4.37735,4.37735,0,0,0,1.14541-1.32764q.05206-.10413.70287-2.78545T559.24386,14.90564Z"/>
    <path id="MJMAIN-29" class="cls-5" d="M565.43953,3.94608l.10413-.026h.5727l.72891.62477a12.84673,12.84673,0,0,1,3.56641,5.51883,21.28384,21.28384,0,0,1,1.11938,6.8725,21.73188,21.73188,0,0,1-.26032,3.41022,22.38314,22.38314,0,0,1-.59874,2.78545,11.725,11.725,0,0,1-.96319,2.29083q-.62478,1.14541-.98922,1.74416a7.919,7.919,0,0,1-1.06733,1.32764q-.70285.72891-.833.85906t-.59874.49462l-.10413.10413h-.59874a.153.153,0,0,1-.13016-.0781.61278.61278,0,0,1-.07809-.23429q.026-.026.28635-.33842,4.035-4.19118,4.035-12.3653t-4.035-12.3653q-.26032-.31239-.28635-.33842A.306.306,0,0,1,565.43953,3.94608Z"/>
  </g>
  <text class="cls-9" transform="translate(0.15824 157.0717)">Q-learning (special case of off-policy <tspan class="cls-10" x="248.69824" y="0">v</tspan><tspan x="255.91113" y="0">alue estimation)</tspan></text>
  <g>
    <path id="MJMAIN-61" class="cls-5" d="M281.03633,9.93746h-.44921a1.02653,1.02653,0,0,1-.7555-.30628,1.07724,1.07724,0,0,1-.30628-.79633,1.59664,1.59664,0,0,1,.69424-1.266,5.24132,5.24132,0,0,1,4.8801.10209A3.16212,3.16212,0,0,1,286.3248,9.2228a1.87086,1.87086,0,0,1,.1021.633q0,.34711.02042,2.34816v1.42932a5.88128,5.88128,0,0,0,.10209,1.34764.42715.42715,0,0,0,.4288.36754.4047.4047,0,0,0,.40837-.3267,4.0283,4.0283,0,0,0,.1021-1.0822v-.73508h.81675v.79634a6.42368,6.42368,0,0,1-.06126.95968,1.69294,1.69294,0,0,1-.71466.95969,2.159,2.159,0,0,1-1.123.36753,1.2004,1.2004,0,0,1-.95968-.36753,1.95659,1.95659,0,0,1-.49006-.85759v-.08168l-.04083.06126a.812.812,0,0,1-.1021.12251q-.06126.06126-.16335.18377a1.30047,1.30047,0,0,1-.245.22461q-.14293.10209-.30629.245a1.2702,1.2702,0,0,1-.36753.22461q-.2042.08167-.44922.16335a3.03389,3.03389,0,0,1-.53089.12251q-.28585.04084-.633.06126a3.977,3.977,0,0,1-2.20523-.633,2.001,2.001,0,0,1-.98011-1.77643,2.34348,2.34348,0,0,1,.14294-.81675,2.67031,2.67031,0,0,1,.5513-.83718,3.62173,3.62173,0,0,1,.98011-.75549,7.44141,7.44141,0,0,1,1.59266-.57173,10.2882,10.2882,0,0,1,2.24607-.30628h.28587v-.44922a3.12471,3.12471,0,0,0-.12252-1.02094A1.89125,1.89125,0,0,0,282.629,7.77307q-.36755,0-.69424.02042a2.09605,2.09605,0,0,0-.51047.08167.67094.67094,0,0,0-.16335.06126,1.01811,1.01811,0,0,1,.44921.89843,1.00236,1.00236,0,0,1-.3267.79633Zm-.22461,4.06335a1.545,1.545,0,0,0,.49006,1.123,1.71079,1.71079,0,0,0,1.20471.51047,2.139,2.139,0,0,0,1.36806-.46963,2.279,2.279,0,0,0,.79633-1.22513,11.2282,11.2282,0,0,0,.06126-1.34764q0-1.1843-.02042-1.18429-.16335,0-.4288.02042a6.53516,6.53516,0,0,0-.91884.18377,6.70386,6.70386,0,0,0-1.18429.40837,2.59469,2.59469,0,0,0-.93927.7555A1.99579,1.99579,0,0,0,280.81172,14.00081Z"/>
    <path id="MJMAIN-72" class="cls-5" d="M289.18344,15.22594h.28586q.79633,0,.95969-.28587v-.633q0-.28587.02042-.633a7.73906,7.73906,0,0,0,0-.79634q-.02043-.4492,0-.85759V9.46783L290.429,8.9982a.65326.65326,0,0,0-.28587-.51047,2.7408,2.7408,0,0,0-.91884-.18377h-.36754V7.83432q0-.46962.04084-.46963l.20418-.02042q.20419-.02041.57173-.04083l.73508-.04084q.3267-.02041.71466-.04084a4.4176,4.4176,0,0,0,.59214-.06126q.20419-.04083.22461-.02042h.06126V8.549a2.30352,2.30352,0,0,1,1.98062-1.38848h.12251a1.78827,1.78827,0,0,1,1.34765.44922,1.35482,1.35482,0,0,1,.42879.93926,1.08466,1.08466,0,0,1-.26544.73508.971.971,0,0,1-.77592.30628.88309.88309,0,0,1-.7555-.3267,1.25809,1.25809,0,0,1-.26544-.69424,1.191,1.191,0,0,1,.04084-.3267,1.02024,1.02024,0,0,1,.10209-.245l.06126-.1021q-.04084-.04083-.46963.08168a2.37932,2.37932,0,0,0-.49006.30628q-.95968.91884-.95968,3.655V14.1029a3.38644,3.38644,0,0,0,.02042.40838,1.1526,1.1526,0,0,1,0,.30628v.10209a.32.32,0,0,0,.06125.08168.25648.25648,0,0,0,.1021.06126.25624.25624,0,0,1,.10209.06125.19925.19925,0,0,0,.14293.04084.3505.3505,0,0,1,.14294.02042.5071.5071,0,0,0,.18377.02042h.18376q.04084,0,.20419.02042a.47072.47072,0,0,0,.20419,0h.633v.93926h-.18376q-.36755-.06126-2.59319-.06126a19.17463,19.17463,0,0,0-2.28691.06126h-.16335v-.93926Z"/>
    <path id="MJMAIN-67" class="cls-5" d="M303.19075,7.81391a2.8143,2.8143,0,0,1,2.04188-.89843.98664.98664,0,0,1,.878.388,1.36669,1.36669,0,0,1,.26544.77591.78419.78419,0,0,1-.18377.51047.67061.67061,0,0,1-.55131.22461.66284.66284,0,0,1-.75549-.61257.58972.58972,0,0,1,.06125-.42879.15681.15681,0,0,1,.02042-.06126V7.69139a2.14967,2.14967,0,0,0-1.08219.44922q-.16335.10209-.16335.14293,0,.02041.08167.10209a1.41681,1.41681,0,0,1,.18377.245q.10209.16335.22461.36754a1.61177,1.61177,0,0,1,.18377.53089,5.36275,5.36275,0,0,1,.08167.67382,2.7473,2.7473,0,0,1-1.00052,2.144,3.69381,3.69381,0,0,1-2.47068.89843,4.03617,4.03617,0,0,1-2.02146-.57173,1.46466,1.46466,0,0,0-.22461.77592,1.18083,1.18083,0,0,0,.53089,1.06178.63278.63278,0,0,0,.34712.12251q.16335,0,1.47016.04084a15.09391,15.09391,0,0,1,2.20523.12251,3.61,3.61,0,0,1,1.96021.83717,2.71366,2.71366,0,0,1,.79633,2.001,2.30021,2.30021,0,0,1-1.59267,2.10313,7.00392,7.00392,0,0,1-5.81936,0,2.24241,2.24241,0,0,1-1.59267-2.04188,1.79329,1.79329,0,0,1,.4288-1.22513,2.48149,2.48149,0,0,1,.85759-.67382l.2246-.12251A2.14668,2.14668,0,0,1,297.841,13.96a2.79052,2.79052,0,0,1,.59214-1.7356,2.793,2.793,0,0,1-.89843-2.02146,2.74564,2.74564,0,0,1,1.02094-2.1644,3.83047,3.83047,0,0,1,4.41047-.36754Zm-.61257,1.34764a1.39156,1.39156,0,0,0-.53089-.89843,1.80072,1.80072,0,0,0-1.06178-.34712,1.63585,1.63585,0,0,0-1.02094.3267,1.40534,1.40534,0,0,0-.53089.91885,6.50464,6.50464,0,0,0-.06125,1.04136,4.52381,4.52381,0,0,0,.14293,1.32722,1.3378,1.3378,0,0,0,.61256.71466,1.71065,1.71065,0,0,0,.878.20419,1.926,1.926,0,0,0,.77592-.14293,1.01763,1.01763,0,0,0,.46963-.36754,3.18374,3.18374,0,0,0,.22461-.40838,1.33069,1.33069,0,0,0,.10209-.30628,6.102,6.102,0,0,0,.06126-1.02094A6.5032,6.5032,0,0,0,302.57818,9.16155Zm2.12356,8.53506a1.22491,1.22491,0,0,0-.28587-.83717,1.61586,1.61586,0,0,0-.83717-.46963,6.3,6.3,0,0,0-1.00052-.18377q-.44921-.04085-1.10261-.04084h-.55131a5.86249,5.86249,0,0,0-1.63351.12251,1.35859,1.35859,0,0,0-.633.57173,1.77947,1.77947,0,0,0-.245.81675,1.14582,1.14582,0,0,0,.12252.46964,2.67269,2.67269,0,0,0,.42879.61256,2.22131,2.22131,0,0,0,.9801.57173,5.58152,5.58152,0,0,0,1.63351.245,4.023,4.023,0,0,0,2.26649-.57172A1.60023,1.60023,0,0,0,304.70174,17.69661Z"/>
    <path id="MJMAIN-6D" class="cls-5" d="M307.51953,15.22594h.28587q.79633,0,.95968-.28587v-1.266q0-.34713.02042-.79634t0-.85759V10.67254q0-.71466-.02042-1.20471V8.9982a.65325.65325,0,0,0-.28586-.51047,2.74088,2.74088,0,0,0-.91885-.18377h-.36754V7.83432q0-.46962.04084-.46963l.20419-.02042q.20418-.02041.57173-.04083t.75549-.04084q.34713-.02041.73508-.04084a4.41779,4.41779,0,0,0,.59215-.06126q.20418-.04083.2246-.02042h.06126v.81676a5.546,5.546,0,0,0,.02042.77591q.02041,0,.10209-.10209l.245-.30628a1.99806,1.99806,0,0,1,.388-.36754q.22461-.16335.59215-.388a2.76816,2.76816,0,0,1,.77592-.3267,4.40151,4.40151,0,0,1,1.04136-.1021,3.76587,3.76587,0,0,1,.57172.04084,2.144,2.144,0,0,1,.46963.12252q.2042.08168.388.16335a1.30231,1.30231,0,0,1,.30628.18377,1.7503,1.7503,0,0,1,.22461.2246q.10209.12252.18377.22461a1.26044,1.26044,0,0,1,.14293.22461,1.05,1.05,0,0,1,.08168.20418.79814.79814,0,0,0,.06125.16335l.04084.1021.06126-.08168.12251-.16335q.06126-.08168.18377-.2246a2.445,2.445,0,0,1,.26544-.26545q.14293-.12251.30629-.26544a1.47766,1.47766,0,0,1,.40837-.245q.245-.10209.46964-.20419a1.88431,1.88431,0,0,1,.53089-.14293q.30627-.04083.633-.06126,2.57277,0,2.79738,2.30733.02042.14293.02042,2.83822v1.756a5.42941,5.42941,0,0,0,.04083.91885.312.312,0,0,0,.22461.20419,7.16363,7.16363,0,0,0,1.00052.06126h.3267v.93926H323.242l-.46963-.02042q-.49-.02041-1.04136-.02042t-.77592-.02042a19.17452,19.17452,0,0,0-2.2869.06126h-.16335v-.93926h.3267q1.24554,0,1.24555-.32671.02041-.04083.02041-2.81779-.02041-2.75655-.04083-2.91989a1.68654,1.68654,0,0,0-.40838-.85759,1.30753,1.30753,0,0,0-.49-.34712,1.55381,1.55381,0,0,0-.53089-.04084,2.21266,2.21266,0,0,0-1.61309.69424,2.4656,2.4656,0,0,0-.69424,1.123,8.10813,8.10813,0,0,0-.16335,1.69477V13.96q0,.61257.02042.81675a.67674.67674,0,0,0,.06126.26545.42241.42241,0,0,0,.18377.12251,7.16363,7.16363,0,0,0,1.00052.06126h.3267v.93926H317.586l-.49-.02042q-.46963-.02041-1.02094-.02042t-.77592-.02042a19.17452,19.17452,0,0,0-2.2869.06126h-.16335v-.93926h.3267q1.24554,0,1.24554-.32671.02043-.04083.02042-2.81779-.02041-2.75655-.04083-2.91989a1.68662,1.68662,0,0,0-.40838-.85759,1.30768,1.30768,0,0,0-.49-.34712,1.55381,1.55381,0,0,0-.53089-.04084,2.21264,2.21264,0,0,0-1.61309.69424,2.4656,2.4656,0,0,0-.69424,1.123,8.10675,8.10675,0,0,0-.16335,1.69477V13.96q0,.61257.02042.81675a.67674.67674,0,0,0,.06126.26545.42241.42241,0,0,0,.18377.12251,7.16363,7.16363,0,0,0,1.00052.06126h.3267v.93926H311.93l-.46963-.02042q-.49006-.02041-1.04136-.02042t-.77592-.02042a19.1749,19.1749,0,0,0-2.28691.06126h-.16335v-.93926Z"/>
    <path id="MJMAIN-61-2" data-name="MJMAIN-61" class="cls-5" d="M326.509,9.93746h-.44921a1.02653,1.02653,0,0,1-.7555-.30628,1.07724,1.07724,0,0,1-.30628-.79633,1.59664,1.59664,0,0,1,.69424-1.266,5.24132,5.24132,0,0,1,4.8801.10209,3.1622,3.1622,0,0,1,1.22513,1.55183,1.87111,1.87111,0,0,1,.10209.633q0,.34711.02042,2.34816v1.42932a5.88128,5.88128,0,0,0,.10209,1.34764.42715.42715,0,0,0,.4288.36754.40469.40469,0,0,0,.40837-.3267,4.0283,4.0283,0,0,0,.1021-1.0822v-.73508h.81675v.79634a6.42368,6.42368,0,0,1-.06126.95968,1.693,1.693,0,0,1-.71465.95969,2.159,2.159,0,0,1-1.123.36753,1.2004,1.2004,0,0,1-.95968-.36753,1.95647,1.95647,0,0,1-.49005-.85759v-.08168l-.04084.06126a.812.812,0,0,1-.1021.12251q-.06125.06126-.16335.18377a1.30047,1.30047,0,0,1-.245.22461q-.14293.10209-.30629.245a1.2702,1.2702,0,0,1-.36753.22461q-.20419.08167-.44922.16335a3.03389,3.03389,0,0,1-.53089.12251q-.28586.04084-.633.06126a3.977,3.977,0,0,1-2.20523-.633,2.001,2.001,0,0,1-.98011-1.77643,2.34348,2.34348,0,0,1,.14294-.81675,2.67031,2.67031,0,0,1,.5513-.83718,3.62188,3.62188,0,0,1,.98011-.75549,7.44132,7.44132,0,0,1,1.59267-.57173A10.288,10.288,0,0,1,329.919,10.693h.28587v-.44922a3.125,3.125,0,0,0-.12251-1.02094,1.89127,1.89127,0,0,0-1.98063-1.44973q-.36755,0-.69424.02042a2.09605,2.09605,0,0,0-.51047.08167.67094.67094,0,0,0-.16335.06126,1.01809,1.01809,0,0,1,.44921.89843,1.00236,1.00236,0,0,1-.3267.79633Zm-.2246,4.06335a1.545,1.545,0,0,0,.49,1.123,1.71079,1.71079,0,0,0,1.20471.51047,2.139,2.139,0,0,0,1.36806-.46963,2.279,2.279,0,0,0,.79633-1.22513,11.22576,11.22576,0,0,0,.06126-1.34764q0-1.1843-.02042-1.18429-.16335,0-.4288.02042a6.53516,6.53516,0,0,0-.91884.18377,6.70386,6.70386,0,0,0-1.18429.40837,2.59469,2.59469,0,0,0-.93927.7555A1.99572,1.99572,0,0,0,326.28443,14.00081Z"/>
    <path id="MJMAIN-78" class="cls-5" d="M338.02524,16.1652a16.30541,16.30541,0,0,0-2.02146-.06126,11.66585,11.66585,0,0,0-1.7356.06126h-.12251v-.93926h.28586a4.06585,4.06585,0,0,0,.85759-.12252,5.38306,5.38306,0,0,0,.59215-.18377,1.98079,1.98079,0,0,0,.51047-.34712,2.16659,2.16659,0,0,0,.36754-.36754,6.30921,6.30921,0,0,1,.42879-.53088,2.26706,2.26706,0,0,0,.40838-.57173l.93926-1.22513-1.18429-1.59267q-.18377-.26544-.388-.55131t-.32671-.42879a2.53109,2.53109,0,0,1-.2246-.30628,1.41681,1.41681,0,0,0-.18377-.245.98937.98937,0,0,1-.12251-.14293.44273.44273,0,0,0-.14294-.12251.44757.44757,0,0,0-.12251-.06126.56843.56843,0,0,1-.12251-.04084.47073.47073,0,0,0-.16335-.04084q-.12252,0-.73508-.04083h-.57173V7.36469h.14294q.73507.04084,2.10313.04084,1.899,0,2.10314-.04084h.16335V8.304q-.73507.08167-.73508.3267a1.43417,1.43417,0,0,0,.20419.3267q.2042.28587.57173.77591t.59214.83718l.08168.08167.51047-.69424a2.762,2.762,0,0,0,.6534-1.10261.59942.59942,0,0,0-.04084-.22461.29857.29857,0,0,0-.10209-.14293.66877.66877,0,0,1-.10209-.08168.4383.4383,0,0,0-.14293-.08167l-.06126-.02042h-.1021V7.36469h.14294a17.31806,17.31806,0,0,0,2.02146.06126,10.84181,10.84181,0,0,0,1.7356-.06126h.12251V8.304h-.14293a3.50427,3.50427,0,0,0-1.65392.34712,2.24232,2.24232,0,0,0-.69424.55131q-.34713.38795-1.32723,1.71518l-.3267.42879,1.266,1.7356q1.34765,1.8377,1.44973,1.91937a.94464.94464,0,0,0,.34712.14293,5.35462,5.35462,0,0,0,1.0822.08168h.34712v.93926h-.28586a3.38644,3.38644,0,0,0-.40838-.02042q-.245,0-.51047-.02042a3.19486,3.19486,0,0,0-.51047,0,.97963.97963,0,0,1-.36754-.02042H341.619q-.53089,0-1.021.04084l-.46963.02042h-.18377v-.93926h.06126a1.07764,1.07764,0,0,0,.44921-.1021q.22461-.10209.22461-.245,0-.04084-.81675-1.16388l-.83717-1.123q-.02043.02041-.633.85759t-.69424.91885a.44663.44663,0,0,0-.08167.28586.56972.56972,0,0,0,.14293.388.53417.53417,0,0,0,.36754.18377q.04083,0,.04084.46963v.46963Z"/>
    <path id="MJMATHI-61-2" data-name="MJMATHI-61" class="cls-5" d="M308.12169,30.38476a4.266,4.266,0,0,1,1.09714-2.77173,3.23049,3.23049,0,0,1,2.46857-1.32812,1.63659,1.63659,0,0,1,1.29925.70737.72235.72235,0,0,1,.66406-.43309.51652.51652,0,0,1,.332.11549.35552.35552,0,0,1,.14436.28873q0,.18766-.53413,2.30977t-.54857,2.3964a.77232.77232,0,0,0,.101.47639.42406.42406,0,0,0,.30316.12992.62722.62722,0,0,0,.28872-.12992,3.27336,3.27336,0,0,0,.59188-1.38587q.08661-.28872.14436-.30316a.42243.42243,0,0,1,.14436-.01443h.05775q.27427,0,.27428.12992a2.29287,2.29287,0,0,1-.07218.38978,4.52927,4.52927,0,0,1-.28872.77955,2.45941,2.45941,0,0,1-.462.7218,1.42736,1.42736,0,0,1-.462.30316,1.539,1.539,0,0,1-.34647.02887,1.47554,1.47554,0,0,1-.82285-.21654,1.10824,1.10824,0,0,1-.43309-.44752l-.08661-.21654q-.01445-.01444-.05775.01444l-.05774.05774a2.531,2.531,0,0,1-1.73234.80842,1.97018,1.97018,0,0,1-1.4003-.57744A2.4326,2.4326,0,0,1,308.12169,30.38476Zm4.59068-2.46857a1.30688,1.30688,0,0,0-.07218-.3176,1.3726,1.3726,0,0,0-.332-.50526.92277.92277,0,0,0-.66406-.28872,1.38531,1.38531,0,0,0-.96722.44752,3.02056,3.02056,0,0,0-.72181,1.16932,11.525,11.525,0,0,0-.59188,2.36752v.1588a.76907.76907,0,0,1-.01444.17323,1.2124,1.2124,0,0,0,.25985.895.92974.92974,0,0,0,.62076.25985,1.63013,1.63013,0,0,0,1.0827-.47639,2.42719,2.42719,0,0,0,.63519-.73624q.02888-.05775.38978-1.54466T312.71237,27.91619Z"/>
    <g>
      <path id="MJMATHI-51-2" data-name="MJMATHI-51" class="cls-5" d="M356.25925,17.79871q0-.67383.02041-1.02094a2.01755,2.01755,0,0,1,.04084-.388v-.08168l-.30628.08168a7.42779,7.42779,0,0,1-1.71518.22461,5.01087,5.01087,0,0,1-5.14554-4.5534q-.02042-.16335-.02042-.878a8.44716,8.44716,0,0,1,.9801-3.96125,11.43622,11.43622,0,0,1,2.634-3.32827,7.96429,7.96429,0,0,1,5.08428-2.10313q.77592,0,.98011.02041a4.86125,4.86125,0,0,1,3.18533,1.756A5.757,5.757,0,0,1,363.22206,7.283a9.29057,9.29057,0,0,1-3.022,6.69737,9.7928,9.7928,0,0,1-2.67487,1.85811l-.34712.16335v.10209q0,.02043.1021.55131a1.60679,1.60679,0,0,0,.42879.85759,1.27132,1.27132,0,0,0,.93927.3267,2.37882,2.37882,0,0,0,1.36806-.44921,2.07743,2.07743,0,0,0,.85759-1.16387q.12251-.28587.26544-.28587a.21.21,0,0,1,.22461.18377,3.05391,3.05391,0,0,1-.20419.73508q-.20418.57173-.57173,1.34764a3.54466,3.54466,0,0,1-1.10261,1.32723,2.78649,2.78649,0,0,1-1.55183.59214q-1.67434,0-1.67434-2.18481ZM361.09851,6.6092a5.69968,5.69968,0,0,0-.30629-1.96021,2.68411,2.68411,0,0,0-.83717-1.24555,4.60324,4.60324,0,0,0-1.02094-.61256,2.787,2.787,0,0,0-1.0822-.20419,4.45459,4.45459,0,0,0-2.001.51047,7.35149,7.35149,0,0,0-3.34869,3.59371,11.49837,11.49837,0,0,0-1.266,5.06387,4.21714,4.21714,0,0,0,1.10261,3.20575,1.91788,1.91788,0,0,0,.59215.4288v-.16335a2.13568,2.13568,0,0,1,.67382-1.511,2.21976,2.21976,0,0,1,1.59267-.71466,1.65145,1.65145,0,0,1,.878.22461,1.41191,1.41191,0,0,1,.5513.61257,3.36155,3.36155,0,0,1,.245.6534q.06126.26544.12251.55131l.26545-.18377a7.56212,7.56212,0,0,0,2.22565-2.47068,11.14814,11.14814,0,0,0,1.266-3.0424A11.95211,11.95211,0,0,0,361.09851,6.6092Zm-6.57486,9.18846a4.053,4.053,0,0,0,1.83769-.42879l-.02042-.20419q-.08167-1.123-.75549-1.34764a2.4993,2.4993,0,0,0-.388-.04084H355.075a.11825.11825,0,0,1-.08167-.02042,1.24363,1.24363,0,0,0-.83717.40838,1.33809,1.33809,0,0,0-.44922.93926Q353.70689,15.79767,354.52365,15.79766Z"/>
      <g>
        <path id="MJMATHI-3C0-2" data-name="MJMATHI-3C0" class="cls-5" d="M366.169,7.91145a.42757.42757,0,0,1-.49083-.47639v-.1588l.18767-.40421A27.97326,27.97326,0,0,0,367.43936,2.931l.11549-.34647h-.462a4.81307,4.81307,0,0,0-.77955.04331,1.56181,1.56181,0,0,0-.563.27429,1.88555,1.88555,0,0,0-.31759.25985,3.71787,3.71787,0,0,0-.27429.30316,1.7804,1.7804,0,0,0-.12993.17323.82311.82311,0,0,1-.21654.01444q-.27427,0-.27428-.14436a1.743,1.743,0,0,1,.27428-.50527,4.90916,4.90916,0,0,1,.794-.895,1.96267,1.96267,0,0,1,1.025-.54857q.10105-.02887,3.24813-.02887,2.30978,0,2.36752.01444a.39412.39412,0,0,1,.28872.40421.60292.60292,0,0,1-.462.60631,7.829,7.829,0,0,1-.99609.02887h-.92391l-.04331.24542a10.83522,10.83522,0,0,0-.17323,1.71789,6.29046,6.29046,0,0,0,.12992,1.34256,5.216,5.216,0,0,0,.27429.92391,1.6835,1.6835,0,0,1,.14436.40421.669.669,0,0,1-.2021.462.679.679,0,0,1-.5197.21654.6653.6653,0,0,1-.25985-.04331q-.10106-.0433-.231-.34646a4.17013,4.17013,0,0,1-.231-.86617q-.01443-.12993-.01443-.63519a9.58008,9.58008,0,0,1,.12992-1.51579q.12993-.80843.25985-1.32812l.14436-.57745h-1.41474l-.01443.05775q0,.04331-.27429,1.14045t-.62075,2.32421a10.75825,10.75825,0,0,1-.44752,1.40031A.607.607,0,0,1,366.169,7.91145Z"/>
        <path id="MJMAIN-31-2" data-name="MJMAIN-31" class="cls-5" d="M374.66681,4.02622l-.13272.051a2.92626,2.92626,0,0,1-.40838.1021,4.706,4.706,0,0,1-.59215.07146h-.194V3.78119h.194a3.32,3.32,0,0,0,.88822-.15314,2.41094,2.41094,0,0,0,.57173-.245,2.61792,2.61792,0,0,0,.28586-.2246q.02042-.03063.12252-.03063a.28443.28443,0,0,1,.17356.06125V6.24166l.0102,3.06282a.40439.40439,0,0,0,.12252.09188,1.20977,1.20977,0,0,0,.245.04084q.194.02041.633.02042h.26544v.46963h-.1123q-.2144-.03063-1.6233-.03063-1.38848,0-1.60288.03063h-.12251V9.45762h.6534a2.451,2.451,0,0,0,.25524-.01021.99913.99913,0,0,0,.16335-.03063.61252.61252,0,0,1,.08167-.02042q.01022,0,.06126-.051t.06126-.04084Z"/>
      </g>
    </g>
    <path id="MJMAIN-28-2" data-name="MJMAIN-28" class="cls-5" d="M383.02831,11.0605a16.79535,16.79535,0,0,1,.20419-2.67487,18.71508,18.71508,0,0,1,.46963-2.18481,8.5505,8.5505,0,0,1,.7555-1.79686q.49-.878.77591-1.36806a5.42382,5.42382,0,0,1,.85759-1.06178q.57174-.57173.67383-.69424a3.67979,3.67979,0,0,1,.51047-.42879h.34712q.28586,0,.28586.18377a1.64985,1.64985,0,0,1-.34712.42879,9.27077,9.27077,0,0,0-.83717,1.0822,14.12649,14.12649,0,0,0-1.00052,1.756,11.61589,11.61589,0,0,0-.85759,2.8178,20.608,20.608,0,0,0-.34712,3.94083,20.28753,20.28753,0,0,0,.34712,3.92041,13.26107,13.26107,0,0,0,.83717,2.83822,9.24758,9.24758,0,0,0,1.00052,1.756q.51046.67383.85759,1.0822a4.61132,4.61132,0,0,1,.34712.4288q0,.18376-.30628.18376h-.3267l-.57173-.49005a10.07644,10.07644,0,0,1-2.79738-4.32879A16.69436,16.69436,0,0,1,383.02831,11.0605Z"/>
    <path id="MJMATHI-73-2" data-name="MJMATHI-73" class="cls-5" d="M391.74715,10.26416a3.02593,3.02593,0,0,1,.3267-1.32722,3.35926,3.35926,0,0,1,1.14345-1.24555,3.2625,3.2625,0,0,1,1.98063-.55131,2.57974,2.57974,0,0,1,1.83769.55131,1.74946,1.74946,0,0,1,.59215,1.22513,1.216,1.216,0,0,1-.34712.95969,1.23719,1.23719,0,0,1-.77592.3267.81558.81558,0,0,1-.49-.16335.66064.66064,0,0,1-.245-.53089.92659.92659,0,0,1,.18377-.57173,1.83467,1.83467,0,0,1,.34712-.36754.49416.49416,0,0,1,.26545-.12251.01805.01805,0,0,0,.02042-.02042q0-.06126-.14294-.18377a1.39482,1.39482,0,0,0-.51047-.22461,3.61284,3.61284,0,0,0-.79633-.12251,1.72708,1.72708,0,0,0-1.89895,1.61309.73816.73816,0,0,0,.388.71466,4.235,4.235,0,0,0,1.123.34712,4.47424,4.47424,0,0,1,1.06178.30628,2.018,2.018,0,0,1,1.34764,1.9602,3.10733,3.10733,0,0,1-.2246,1.14346,4.5674,4.5674,0,0,1-.67383,1.14345,2.95382,2.95382,0,0,1-1.28638.89843,5.54441,5.54441,0,0,1-1.91937.34712,3.30276,3.30276,0,0,1-2.22565-.59215,1.8891,1.8891,0,0,1-.67382-1.38848,1.38865,1.38865,0,0,1,.42879-1.14345,1.40994,1.40994,0,0,1,.89843-.34712.98523.98523,0,0,1,.57173.18377.76016.76016,0,0,1,.28586.633,1.22208,1.22208,0,0,1-.36754.89843,1.00557,1.00557,0,0,1-.633.36754.15672.15672,0,0,1-.06126.02042q-.02042,0-.02042.04084a.44152.44152,0,0,0,.16336.16335,2.85072,2.85072,0,0,0,.633.26544,4.01612,4.01612,0,0,0,2.389-.08167,1.75424,1.75424,0,0,0,.77592-.57173,2.71054,2.71054,0,0,0,.34711-.633,1.54,1.54,0,0,0,.1021-.51047.96192.96192,0,0,0-.4288-.85759,2.17037,2.17037,0,0,0-.9801-.34712,5.05359,5.05359,0,0,1-1.20471-.30629,1.88956,1.88956,0,0,1-.95968-.71466A2.05522,2.05522,0,0,1,391.74715,10.26416Z"/>
    <path id="MJMAIN-2C-2" data-name="MJMAIN-2C" class="cls-5" d="M400.24137,15.45054v-.51047a1.2769,1.2769,0,0,1,.3267-.878,1.11608,1.11608,0,0,1,.878-.36754,1.33474,1.33474,0,0,1,1.02094.51047,2.819,2.819,0,0,1,.46964,1.79686,5.25334,5.25334,0,0,1-.18377,1.38848,6.349,6.349,0,0,1-.4288,1.16387,4.42785,4.42785,0,0,1-.53089.83717q-.28586.34713-.49.55131t-.26544.18377q-.08168,0-.26545-.18377t-.18377-.26544q0-.08168.22461-.3267t.51047-.61257a3.91849,3.91849,0,0,0,.53089-1.02094,5.8652,5.8652,0,0,0,.3267-1.49057v-.245l-.02042.02042a.79169.79169,0,0,1-.10209.04084.51523.51523,0,0,0-.12251.06125.33412.33412,0,0,1-.18377.04084,1.48835,1.48835,0,0,0-.245.02042,1.21569,1.21569,0,0,1-.89843-.34712Z"/>
    <path id="MJMATHI-61-3" data-name="MJMATHI-61" class="cls-5" d="M408.4089,12.95945A6.034,6.034,0,0,1,409.96073,9.039a4.56933,4.56933,0,0,1,3.49162-1.87853A2.31483,2.31483,0,0,1,415.29,8.161a1.0217,1.0217,0,0,1,.93927-.61257.73059.73059,0,0,1,.46963.16335.50285.50285,0,0,1,.20419.40838q0,.26544-.7555,3.267t-.77591,3.38952a1.09235,1.09235,0,0,0,.14293.67382.59979.59979,0,0,0,.42879.18377.88716.88716,0,0,0,.40838-.18377,4.63,4.63,0,0,0,.83717-1.9602q.12252-.40837.20419-.4288a.5973.5973,0,0,1,.20419-.02042h.08167q.388,0,.388.18377a3.24241,3.24241,0,0,1-.1021.55131,6.40562,6.40562,0,0,1-.40837,1.10262,3.47889,3.47889,0,0,1-.6534,1.02094,2.01913,2.01913,0,0,1-.65341.42879,2.17653,2.17653,0,0,1-.49.04084,2.08708,2.08708,0,0,1-1.16387-.30628,1.56753,1.56753,0,0,1-.61256-.633l-.12252-.30628q-.02042-.02041-.08167.02042l-.08168.08168a3.57991,3.57991,0,0,1-2.45026,1.14345,2.78666,2.78666,0,0,1-1.98062-.81675A3.44072,3.44072,0,0,1,408.4089,12.95945Zm6.49318-3.49162A1.84844,1.84844,0,0,0,414.8,9.01862a1.94136,1.94136,0,0,0-.46963-.71466,1.30521,1.30521,0,0,0-.93927-.40838,1.95949,1.95949,0,0,0-1.36806.633,4.27241,4.27241,0,0,0-1.02094,1.65393,16.3015,16.3015,0,0,0-.83717,3.34868v.22461a1.08861,1.08861,0,0,1-.02042.245,1.7148,1.7148,0,0,0,.36754,1.266,1.315,1.315,0,0,0,.878.36754,2.30573,2.30573,0,0,0,1.53141-.67382,3.43348,3.43348,0,0,0,.89843-1.04136q.04083-.08167.5513-2.18481T414.90208,9.46783Z"/>
    <path id="MJMAIN-29-2" data-name="MJMAIN-29" class="cls-5" d="M419.78218.87151l.08167-.02042h.44922l.57173.49005a10.07663,10.07663,0,0,1,2.79737,4.32879,16.69442,16.69442,0,0,1,.878,5.39057,17.04541,17.04541,0,0,1-.20419,2.67486,17.556,17.556,0,0,1-.46963,2.18482,9.19636,9.19636,0,0,1-.75549,1.79685q-.49007.89842-.77592,1.36806a6.21136,6.21136,0,0,1-.83717,1.04136q-.55131.57173-.6534.67382t-.46964.388l-.08167.08167h-.46963a.12.12,0,0,1-.1021-.06125.48079.48079,0,0,1-.06125-.18377q.02041-.02041.2246-.26545,3.16492-3.28743,3.16492-9.69893t-3.16492-9.69894q-.20418-.245-.2246-.26544A.24.24,0,0,1,419.78218.87151Z"/>
  </g>
  <g>
    <path id="MJMATHI-56" class="cls-5" d="M1.53268,7.27405a1.22745,1.22745,0,0,1,.33738-.90834h.28548q1.09.07787,2.725.07786,3.06243,0,3.60743-.07786h.25953q.15572.15572.15571.23357t-.0519.46715a1.42938,1.42938,0,0,1-.23358.4931h-.545q-.571.05192-.77858.05191-.75264.12976-.83049.38929,0,.0519.75263,6.51413T7.9949,21.029l1.89454-3.03646q1.89456-3.03646,3.7891-6.12484T15.625,8.6755a.77192.77192,0,0,0,.10381-.38929q0-.62286-1.14192-.72668-.46715,0-.46715-.28548,0-.02595.05191-.33738a1.39637,1.39637,0,0,1,.15572-.46715.412.412,0,0,1,.33738-.10381h.31143q.25953,0,.88239.02595t1.661.026q1.79073,0,2.25788-.05191h.18167q.18167.18166.18167.28548a1.58743,1.58743,0,0,1-.23358.83049.74265.74265,0,0,1-.44119.07785q-.3374.026-.62287.05191a1.92994,1.92994,0,0,0-.545.12976q-.25953.10381-.41525.18167a1.62557,1.62557,0,0,0-.31143.20762,1.45121,1.45121,0,0,1-.25953.18167.56417.56417,0,0,0-.20762.23358q-.1038.18167-.18167.18167l-5.00887,8.04533q-4.67148,7.55223-4.8272,7.7339-.07785.05192-.18167.12977l-.46714.02595H6.25607q-.46715,0-.46715-.18167-.07787-.15571-1.01216-8.30486Q3.79057,7.92287,3.76461,7.845q-.12976-.28548-1.60907-.28548H1.71435A.35949.35949,0,0,1,1.53268,7.27405Z"/>
    <path id="MJMAIN-2217" class="cls-5" d="M25.79772,8.14651q-.23853-2.45871-.23853-2.75229,0-.33027.44036-.51376h.09175a.25543.25543,0,0,0,.11009-.01835.73281.73281,0,0,1,.40367.16514.45185.45185,0,0,1,.18348.367q0,.31193-.11009,1.46789T26.55,8.14651l1.06422-.77064q1.02752-.75229,1.11926-.80734a.354.354,0,0,1,.18348-.055.64231.64231,0,0,1,.44037.18349.695.695,0,0,1,.22018.49541.58013.58013,0,0,1-.18348.422q-.09176.055-1.24771.6055t-1.2477.58715l1.211.56881,1.2844.6422a.57149.57149,0,0,1,.16513.422.66013.66013,0,0,1-.16513.45871.62257.62257,0,0,1-.44037.20183.658.658,0,0,1-.33027-.11009q-.1835-.11008-1.00917-.73394L26.55,9.486q.23853,2.45871.23853,2.75228a.55918.55918,0,0,1-.12844.34863.77168.77168,0,0,1-.95412,0,.67165.67165,0,0,1-.14679-.34863q0-.31193.11009-1.46788t.12844-1.2844l-1.06422.77064q-1.02751.7523-1.11926.80734a.29725.29725,0,0,1-.18348.055.64229.64229,0,0,1-.44037-.18348.695.695,0,0,1-.22018-.49541v-.14679a.15859.15859,0,0,1,.055-.11009.72928.72928,0,0,0,.09175-.1101.50783.50783,0,0,1,.16513-.12844q.12845-.07339.23853-.12844t.34863-.16513q.23853-.1101.45871-.20184t.58716-.27522l.73394-.367L22.95369,7.6144a.57151.57151,0,0,1-.16513-.422.66013.66013,0,0,1,.16513-.45871.6226.6226,0,0,1,.44037-.20184.65808.65808,0,0,1,.33027.11009q.1835.1101,1.00917.734Z"/>
    <path id="MJMAIN-28-3" data-name="MJMAIN-28" class="cls-5" d="M35.81619,17.60323a21.34624,21.34624,0,0,1,.25952-3.39981,23.78663,23.78663,0,0,1,.59691-2.77693,10.868,10.868,0,0,1,.96025-2.28384q.62288-1.116.98621-1.73883a6.893,6.893,0,0,1,1.09-1.34954q.72667-.72668.85644-.88239a4.67738,4.67738,0,0,1,.64882-.545h.44119q.36334,0,.36334.23357a2.097,2.097,0,0,1-.4412.545A11.78334,11.78334,0,0,0,40.51362,6.781a17.95644,17.95644,0,0,0-1.27168,2.23194,14.76479,14.76479,0,0,0-1.09,3.58147,26.19387,26.19387,0,0,0-.4412,5.00887,25.78645,25.78645,0,0,0,.4412,4.98291A16.85526,16.85526,0,0,0,39.216,26.19357a11.754,11.754,0,0,0,1.27168,2.23193q.64882.85644,1.09,1.37549a5.86382,5.86382,0,0,1,.4412.545q0,.23358-.38929.23357h-.41524l-.72668-.62286a12.80742,12.80742,0,0,1-3.55552-5.502A21.2189,21.2189,0,0,1,35.81619,17.60323Z"/>
    <path id="MJMATHI-73-3" data-name="MJMATHI-73" class="cls-5" d="M46.872,16.59107a3.846,3.846,0,0,1,.41525-1.68692A4.26969,4.26969,0,0,1,48.74063,13.321a4.14667,4.14667,0,0,1,2.51741-.70072,3.27889,3.27889,0,0,1,2.33574.70072,2.22353,2.22353,0,0,1,.75263,1.55716,1.54559,1.54559,0,0,1-.4412,1.21978,1.5723,1.5723,0,0,1-.9862.41524,1.03657,1.03657,0,0,1-.62286-.20762.83967.83967,0,0,1-.31144-.67477,1.17764,1.17764,0,0,1,.23358-.72667,2.33141,2.33141,0,0,1,.44119-.46715.62811.62811,0,0,1,.33739-.15572.02294.02294,0,0,0,.026-.02595q0-.07787-.18167-.23357a1.77235,1.77235,0,0,0-.64881-.28548,4.592,4.592,0,0,0-1.01216-.15572,2.19515,2.19515,0,0,0-2.4136,2.05026.93822.93822,0,0,0,.4931.90835,5.38263,5.38263,0,0,0,1.4274.44119,5.68741,5.68741,0,0,1,1.34954.38929,2.5649,2.5649,0,0,1,1.71288,2.49146,3.94928,3.94928,0,0,1-.28548,1.45335,5.80529,5.80529,0,0,1-.85644,1.45335,3.75442,3.75442,0,0,1-1.635,1.14192,7.04705,7.04705,0,0,1-2.43955.4412,4.198,4.198,0,0,1-2.82885-.75263,2.40107,2.40107,0,0,1-.85644-1.76478,1.765,1.765,0,0,1,.545-1.45335,1.792,1.792,0,0,1,1.14192-.4412,1.25223,1.25223,0,0,1,.72667.23357.96618.96618,0,0,1,.36334.80454,1.55331,1.55331,0,0,1-.46715,1.14192,1.27812,1.27812,0,0,1-.80453.46714.19909.19909,0,0,1-.07786.026q-.02595,0-.026.0519a.56089.56089,0,0,0,.20762.20762,3.62347,3.62347,0,0,0,.80453.33739,5.10446,5.10446,0,0,0,3.03647-.10381,2.22953,2.22953,0,0,0,.9862-.72668,3.4455,3.4455,0,0,0,.4412-.80453,1.95752,1.95752,0,0,0,.12976-.64882,1.22264,1.22264,0,0,0-.545-1.09,2.75877,2.75877,0,0,0-1.24573-.4412,6.42278,6.42278,0,0,1-1.5312-.38929,2.40174,2.40174,0,0,1-1.21978-.90834A2.61234,2.61234,0,0,1,46.872,16.59107Z"/>
    <path id="MJMAIN-29-3" data-name="MJMAIN-29" class="cls-5" d="M57.22716,4.65283l.10381-.02595h.571l.72667.62286a12.80742,12.80742,0,0,1,3.55552,5.502,21.21882,21.21882,0,0,1,1.116,6.85151,21.66548,21.66548,0,0,1-.25953,3.3998A22.315,22.315,0,0,1,62.44365,23.78a11.689,11.689,0,0,1-.96025,2.28384q-.62286,1.1419-.9862,1.73883a7.89491,7.89491,0,0,1-1.06406,1.32358q-.70073.72667-.83049.85644t-.59691.4931l-.10381.10381H57.305a.15252.15252,0,0,1-.12977-.07785.61122.61122,0,0,1-.07786-.23358q.026-.02595.28548-.33738,4.02267-4.17838,4.02267-12.32753T57.38287,5.2757q-.25951-.31143-.28548-.33739A.305.305,0,0,1,57.22716,4.65283Z"/>
  </g>
</svg>
