<svg id="Layer_1" data-name="Layer 1" xmlns="http://www.w3.org/2000/svg" viewBox="0 0 662.38746 122.8395">
  <defs>
    <style>
      .cls-1 {
        fill: #e7ebe8;
      }

      .cls-2, .cls-4 {
        fill: #70a8da;
      }

      .cls-2 {
        opacity: 0.5;
      }

      .cls-3 {
        fill: #ef4136;
      }

      .cls-4 {
        opacity: 0.41;
      }

      .cls-5 {
        fill: #267ec1;
      }

      .cls-6 {
        fill: #fff;
      }

      .cls-7 {
        fill: #231f20;
      }

      .cls-8 {
        fill: #010101;
      }
    </style>
  </defs>
  <title>q-learning</title>
  <rect class="cls-1" x="201.55994" y="48.47404" width="74.08071" height="74.08071"/>
  <polygon class="cls-2" points="211.31 85.513 218.981 100.914 218.981 70.112 211.31 85.513"/>
  <polygon class="cls-3" points="238.526 112.996 253.927 105.326 223.125 105.326 238.526 112.996"/>
  <polygon class="cls-4" points="265.89 85.53 258.22 70.129 258.22 100.931 265.89 85.53"/>
  <polygon class="cls-5" points="238.526 58.191 223.125 65.862 253.927 65.862 238.526 58.191"/>
  <rect class="cls-1" x="0.4827" y="48.59862" width="73.94519" height="73.94519"/>
  <circle class="cls-5" cx="38.23749" cy="86.52271" r="23.42114"/>
  <rect class="cls-1" x="416.91308" y="48.62596" width="74.08071" height="74.08071"/>
  <polygon class="cls-6" points="426.663 85.665 434.334 101.066 434.334 70.264 426.663 85.665"/>
  <polygon class="cls-6" points="453.879 113.148 469.28 105.478 438.478 105.478 453.879 113.148"/>
  <polygon class="cls-6" points="481.244 85.682 473.573 70.281 473.573 101.083 481.244 85.682"/>
  <polygon class="cls-7" points="453.879 58.343 438.478 66.014 469.28 66.014 453.879 58.343"/>
  <path id="MJMAIN-22C5" class="cls-8" d="M382.60462,21.30014a2.24946,2.24946,0,0,1,.64547-1.59468,2.1494,2.1494,0,0,1,1.63265-.68344,2.32527,2.32527,0,0,1,1.59468.6075,2.19094,2.19094,0,0,1,.72141,1.63265,2.29517,2.29517,0,0,1-.64547,1.63265,2.14942,2.14942,0,0,1-1.63265.68343,2.21273,2.21273,0,0,1-1.63265-.64546A2.34788,2.34788,0,0,1,382.60462,21.30014Z"/>
  <g>
    <path id="MJMATHI-56" class="cls-8" d="M.9799,8.4477A1.34688,1.34688,0,0,1,1.35011,7.451h.31326q1.19607.08544,2.99019.08544,3.36041,0,3.95844-.08544h.28478q.17087.17086.17087.2563t-.057.51261a1.56853,1.56853,0,0,1-.2563.54108h-.598q-.6265.057-.85434.057-.82586.14238-.91129.42717,0,.057.82586,7.148t.85434,7.148l2.07889-3.33192q2.0789-3.33194,4.15779-6.72081t2.13585-3.5028a.847.847,0,0,0,.11391-.42717q0-.68346-1.253-.79738-.5126,0-.5126-.31326,0-.02847.057-.37021a1.53273,1.53273,0,0,1,.17087-.51261.45212.45212,0,0,1,.37022-.11391h.34173q.28479,0,.96825.02848t1.8226.02848q1.965,0,2.47758-.057h.19935q.19935.19935.19934.31326a1.7419,1.7419,0,0,1-.2563.9113.8149.8149,0,0,1-.48412.08543q-.37022.02848-.68348.057a2.11708,2.11708,0,0,0-.598.14239q-.28479.11391-.45565.19934a1.78317,1.78317,0,0,0-.34174.22783,1.593,1.593,0,0,1-.28478.19934.619.619,0,0,0-.22782.2563q-.11391.19935-.19935.19935L12.3711,18.87065q-5.126,8.28709-5.29691,8.48645-.08544.057-.19935.14239l-.5126.02847H6.16289q-.5126,0-.5126-.19934-.08544-.17086-1.11064-9.113Q3.45748,9.15965,3.429,9.07422,3.28662,8.761,1.66337,8.761H1.17924A.39453.39453,0,0,1,.9799,8.4477Z"/>
    <g>
      <path id="MJMATHI-3C0" class="cls-8" d="M25.65107,15.39a.59633.59633,0,0,1-.68455-.66442v-.22147l.26174-.56375a39.01454,39.01454,0,0,0,2.1946-5.49657l.16107-.48321h-.64428a6.71256,6.71256,0,0,0-1.08724.0604,2.17828,2.17828,0,0,0-.78522.38254,2.63057,2.63057,0,0,0-.44295.36241,5.18718,5.18718,0,0,0-.38254.42282,2.48082,2.48082,0,0,0-.18121.2416,1.14743,1.14743,0,0,1-.302.02014q-.38254,0-.38254-.20134a2.43076,2.43076,0,0,1,.38254-.70469,6.84644,6.84644,0,0,1,1.10737-1.2483A2.73725,2.73725,0,0,1,26.29536,6.531q.14094-.04027,4.53014-.04027,3.22143,0,3.302.02013a.5497.5497,0,0,1,.40268.56375.84091.84091,0,0,1-.64429.84563,10.92043,10.92043,0,0,1-1.38924.04027H31.208l-.0604.34227a15.1125,15.1125,0,0,0-.24161,2.39594,8.773,8.773,0,0,0,.18121,1.87246,7.27379,7.27379,0,0,0,.38255,1.28857,2.34792,2.34792,0,0,1,.20133.56375.93305.93305,0,0,1-.28187.64429.947.947,0,0,1-.72482.302.92777.92777,0,0,1-.36241-.0604q-.14094-.0604-.32215-.48322a5.81634,5.81634,0,0,1-.32214-1.208q-.02013-.18121-.02013-.8859a13.36223,13.36223,0,0,1,.1812-2.11406Q30,9.49073,30.18121,8.76591l.20134-.80535H28.40943l-.02014.08053q0,.0604-.38254,1.59058T27.141,12.87324a15.00442,15.00442,0,0,1-.62416,1.953A.84656.84656,0,0,1,25.65107,15.39Z"/>
      <path id="MJMAIN-2217" class="cls-8" d="M37.81619,3.79155q-.1851-1.908-.1851-2.13585,0-.2563.34173-.39869h.0712a.19831.19831,0,0,0,.08543-.01424.56864.56864,0,0,1,.31326.12815.35064.35064,0,0,1,.14239.28478q0,.24206-.08543,1.13912T38.4,3.79155l.82586-.598q.79738-.5838.86858-.62652a.27483.27483,0,0,1,.14239-.04271.4984.4984,0,0,1,.34174.14239.5393.5393,0,0,1,.17087.38445.45022.45022,0,0,1-.14239.3275q-.0712.04272-.96825.46988t-.96826.45565l.93978.44141.99673.49837a.4435.4435,0,0,1,.12815.32749.51232.51232,0,0,1-.12815.356.48317.48317,0,0,1-.34174.15663.51066.51066,0,0,1-.2563-.08544q-.14239-.08543-.78315-.56956L38.4,4.831q.18511,1.908.18511,2.13585a.434.434,0,0,1-.09967.27054.59884.59884,0,0,1-.74043,0,.52126.52126,0,0,1-.11391-.27054q0-.24207.08543-1.13912t.09967-.99673l-.82586.598q-.79739.5838-.86858.62652a.23063.23063,0,0,1-.14239.04272.49844.49844,0,0,1-.34173-.14239.53934.53934,0,0,1-.17087-.38446V5.45751a.12306.12306,0,0,1,.04272-.08543.56648.56648,0,0,0,.07119-.08544.39417.39417,0,0,1,.12815-.09967q.09967-.057.18511-.09967t.27054-.12815q.1851-.08544.356-.15663t.45565-.21359l.56956-.28478-1.9365-.92553a.44349.44349,0,0,1-.12815-.3275.51227.51227,0,0,1,.12815-.356.48312.48312,0,0,1,.34173-.15662.51064.51064,0,0,1,.25631.08543q.14238.08544.78314.56956Z"/>
    </g>
    <path id="MJMAIN-28" class="cls-8" d="M49.22163,19.78195a23.42383,23.42383,0,0,1,.28478-3.73062,26.10133,26.10133,0,0,1,.655-3.04715,11.92524,11.92524,0,0,1,1.05368-2.50606q.68348-1.22456,1.08217-1.908a7.56357,7.56357,0,0,1,1.19607-1.48085q.79739-.79738.93978-.96826a5.132,5.132,0,0,1,.712-.598h.48412q.3987,0,.3987.2563a2.30134,2.30134,0,0,1-.48413.598,12.92839,12.92839,0,0,0-1.1676,1.50933,19.70221,19.70221,0,0,0-1.39542,2.44911,16.20143,16.20143,0,0,0-1.19608,3.93,28.74282,28.74282,0,0,0-.48412,5.49626,28.29574,28.29574,0,0,0,.48412,5.46777,18.49516,18.49516,0,0,0,1.1676,3.95845,12.89754,12.89754,0,0,0,1.39542,2.4491q.712.93978,1.19608,1.50934a6.43158,6.43158,0,0,1,.48413.598q0,.25629-.42717.2563h-.45565l-.79739-.68347a14.0537,14.0537,0,0,1-3.90148-6.03734A23.28363,23.28363,0,0,1,49.22163,19.78195Z"/>
    <g>
      <path id="MJMATHI-73" class="cls-8" d="M61.38174,18.6713a4.22021,4.22021,0,0,1,.45565-1.85107,4.68505,4.68505,0,0,1,1.59477-1.73715,4.5501,4.5501,0,0,1,2.76236-.76891,3.59793,3.59793,0,0,1,2.563.76891,2.43991,2.43991,0,0,1,.82587,1.70868,1.696,1.696,0,0,1-.48413,1.33846,1.7253,1.7253,0,0,1-1.08216.45565,1.13751,1.13751,0,0,1-.68348-.22782.92135.92135,0,0,1-.34173-.74043,1.29228,1.29228,0,0,1,.2563-.79739,2.55817,2.55817,0,0,1,.48413-.5126.68917.68917,0,0,1,.37021-.17087.02517.02517,0,0,0,.02848-.02848q0-.08543-.19935-.2563a1.94527,1.94527,0,0,0-.712-.31326,5.0389,5.0389,0,0,0-1.11064-.17086,2.40875,2.40875,0,0,0-2.64846,2.24976,1.02951,1.02951,0,0,0,.54109.99673,5.90587,5.90587,0,0,0,1.56629.48412,6.24076,6.24076,0,0,1,1.48085.42717,2.81448,2.81448,0,0,1,1.87955,2.73389,4.33356,4.33356,0,0,1-.31326,1.59477,6.37012,6.37012,0,0,1-.93977,1.59477,4.11967,4.11967,0,0,1-1.79412,1.253,7.73272,7.73272,0,0,1-2.67693.48413,4.60643,4.60643,0,0,1-3.1041-.82586,2.63473,2.63473,0,0,1-.93977-1.93651,1.93676,1.93676,0,0,1,.598-1.59477,1.9664,1.9664,0,0,1,1.253-.48412,1.374,1.374,0,0,1,.79738.2563,1.06018,1.06018,0,0,1,.39869.88282,1.70448,1.70448,0,0,1-.5126,1.253,1.40249,1.40249,0,0,1-.88282.5126.21851.21851,0,0,1-.08543.02848q-.02849,0-.02848.057a.61556.61556,0,0,0,.22782.22782,3.97608,3.97608,0,0,0,.88282.37022,5.60121,5.60121,0,0,0,3.33193-.11392A2.44646,2.44646,0,0,0,66.223,25.0219a3.78037,3.78037,0,0,0,.48413-.88282,2.14813,2.14813,0,0,0,.14239-.712,1.34164,1.34164,0,0,0-.598-1.19608,3.02721,3.02721,0,0,0-1.367-.48412,7.04841,7.04841,0,0,1-1.6802-.42717,2.63547,2.63547,0,0,1-1.33846-.99673A2.86651,2.86651,0,0,1,61.38174,18.6713Z"/>
      <g>
        <path id="MJMATHI-74" class="cls-8" d="M71.53079,23.42158q-.14094-.14094-.14094-.20134a1.69275,1.69275,0,0,1,.0604-.32215.82758.82758,0,0,1,.10067-.28187.173.173,0,0,1,.18121-.10067q.14094,0,1.02683-.02013h1.0671l.38254-1.61072q.0604-.22147.14094-.58388a4.31873,4.31873,0,0,1,.14094-.52349,3.789,3.789,0,0,0,.1208-.40268.73865.73865,0,0,1,.16107-.34227,1.91663,1.91663,0,0,0,.20134-.24161.45374.45374,0,0,1,.28188-.18121,1.66639,1.66639,0,0,1,.36241-.04026.6173.6173,0,0,1,.50335.22147.6746.6746,0,0,1,.14094.38254,7.65371,7.65371,0,0,1-.18121.9463q-.1812.80536-.40268,1.59058l-.20134.745a4.75736,4.75736,0,0,0,1.0067.04027h1.02683q.14094.14092.14094.22147a.95228.95228,0,0,1-.26174.70469H75.23543L74.51061,26.341q-.78522,3.22143-.78522,3.463,0,.84562.54362.84562a1.92419,1.92419,0,0,0,1.3691-.68455,5.128,5.128,0,0,0,1.0671-1.69125q.04028-.12081.10067-.14094a1.77437,1.77437,0,0,1,.302-.04027h.08054q.302,0,.302.16108a.98855.98855,0,0,1-.06041.2416,3.7876,3.7876,0,0,1-.36241.76509,7.15693,7.15693,0,0,1-.68455.9463,3.72289,3.72289,0,0,1-1.02683.84562,2.4653,2.4653,0,0,1-1.22817.34228,2.32865,2.32865,0,0,1-1.14764-.302,1.74439,1.74439,0,0,1-.78522-1.047,2.531,2.531,0,0,1-.04027-.54362v-.36241l.70469-2.81875q.70468-2.8389.72482-2.859a4.94707,4.94707,0,0,0-1.02683-.04027Z"/>
        <path id="MJMAIN-2B" class="cls-8" d="M79.40316,26.4014v-.26174A.43858.43858,0,0,1,79.685,25.737h6.02V22.71689l.02013-3.02009q.20135-.26175.38255-.26174a.44026.44026,0,0,1,.40268.302V25.737h5.99991a.41946.41946,0,0,1,0,.80536H86.51045v5.99992q-.16109.28187-.36242.28187H86.0675a.3903.3903,0,0,1-.36241-.28187V26.54234h-6.02a.43858.43858,0,0,1-.28188-.40268Z"/>
        <path id="MJMAIN-31" class="cls-8" d="M98.24854,19.53573l-.26174.10067a5.77094,5.77094,0,0,1-.80536.20133,9.27877,9.27877,0,0,1-1.16777.14094h-.38255v-.92616h.38255a6.54707,6.54707,0,0,0,1.75165-.302,4.75446,4.75446,0,0,0,1.1275-.48321,5.16055,5.16055,0,0,0,.56375-.44295q.04027-.0604.24161-.0604a.56079.56079,0,0,1,.34228.1208v6.02l.02013,6.04019a.79723.79723,0,0,0,.24161.1812,2.38756,2.38756,0,0,0,.48321.08054q.38255.04026,1.24831.04027h.52348v.92616h-.22147q-.42282-.0604-3.2013-.0604-2.73822,0-3.161.0604h-.24161V30.247h1.28858a4.83606,4.83606,0,0,0,.50335-.02014,1.97079,1.97079,0,0,0,.32214-.0604,1.20609,1.20609,0,0,1,.16107-.04027q.02013,0,.1208-.10067t.12081-.08053Z"/>
      </g>
    </g>
    <path id="MJMAIN-29" class="cls-8" d="M108.59827,5.57142l.11391-.02847h.62652l.79738.68347a14.05368,14.05368,0,0,1,3.90149,6.03733,23.28368,23.28368,0,0,1,1.22455,7.5182,23.77421,23.77421,0,0,1-.28478,3.73061,24.48414,24.48414,0,0,1-.655,3.04715,12.82639,12.82639,0,0,1-1.05369,2.50607q-.68347,1.253-1.08216,1.908a8.66354,8.66354,0,0,1-1.1676,1.45238q-.76891.79738-.9113.93977t-.655.54109l-.11391.11391h-.655a.16735.16735,0,0,1-.14239-.08544.67029.67029,0,0,1-.08543-.2563q.02847-.02847.31326-.37021,4.41408-4.585,4.41409-13.527t-4.41409-13.527q-.28479-.34175-.31326-.37022A.33472.33472,0,0,1,108.59827,5.57142Z"/>
  </g>
  <g>
    <path id="MJMATHI-51" class="cls-8" d="M211.51912,29.35869q0-.97026.0294-1.4701a2.90391,2.90391,0,0,1,.05881-.55864v-.11761l-.441.11761a10.69555,10.69555,0,0,1-2.46978.32342,7.21534,7.21534,0,0,1-7.40931-6.55665q-.02942-.23523-.02941-1.26429a12.16352,12.16352,0,0,1,1.4113-5.704A16.46773,16.46773,0,0,1,206.462,9.33589a11.46815,11.46815,0,0,1,7.32111-3.02841q1.11727,0,1.4113.0294a6.99994,6.99994,0,0,1,4.58672,2.52858,8.28972,8.28972,0,0,1,1.76412,5.35117,13.37791,13.37791,0,0,1-4.3515,9.64388,14.1015,14.1015,0,0,1-3.85167,2.67559l-.49984.23521v.147q0,.0294.147.79386a2.31378,2.31378,0,0,0,.61745,1.23488,1.83059,1.83059,0,0,0,1.35249.47044,3.42544,3.42544,0,0,0,1.96994-.64685,2.9914,2.9914,0,0,0,1.23489-1.67592q.1764-.41161.38222-.41162a.3024.3024,0,0,1,.32342.26461,4.39734,4.39734,0,0,1-.294,1.05848q-.294.82326-.82325,1.94053a5.10423,5.10423,0,0,1-1.58771,1.91114,4.01251,4.01251,0,0,1-2.23456.85266q-2.411,0-2.411-3.146Zm6.96829-16.11232a8.2073,8.2073,0,0,0-.441-2.8226,3.865,3.865,0,0,0-1.20549-1.79353,6.62934,6.62934,0,0,0-1.4701-.88206,4.01326,4.01326,0,0,0-1.55831-.294,6.41439,6.41439,0,0,0-2.8814.735,10.58582,10.58582,0,0,0-4.82194,5.17476,16.557,16.557,0,0,0-1.82292,7.29171,6.07243,6.07243,0,0,0,1.58771,4.61613,2.7613,2.7613,0,0,0,.85266.61744V25.654a3.07525,3.07525,0,0,1,.97026-2.17575,3.19626,3.19626,0,0,1,2.29336-1.02907,2.378,2.378,0,0,1,1.26429.32342,2.03308,2.03308,0,0,1,.79386.88206,4.84091,4.84091,0,0,1,.35282.94087q.08821.38223.17642.79386l.38222-.26462a10.889,10.889,0,0,0,3.20483-3.55765,16.0521,16.0521,0,0,0,1.82292-4.38091A17.2097,17.2097,0,0,0,218.48741,13.24637ZM209.02,26.47729a5.836,5.836,0,0,0,2.64618-.61744l-.0294-.294q-.11762-1.61712-1.08788-1.94054a3.59967,3.59967,0,0,0-.55864-.0588h-.17641a.17028.17028,0,0,1-.11761-.0294,1.79075,1.79075,0,0,0-1.20548.588,1.92679,1.92679,0,0,0-.64685,1.35249Q207.84386,26.4773,209.02,26.47729Z"/>
    <g>
      <path id="MJMATHI-3C0-2" data-name="MJMATHI-3C0" class="cls-8" d="M225.78864,15.12154a.61568.61568,0,0,1-.70676-.686V14.2069l.27023-.582a40.28092,40.28092,0,0,0,2.26581-5.67492l.1663-.4989H227.119a6.92946,6.92946,0,0,0-1.12251.06237,2.24885,2.24885,0,0,0-.81071.39495,2.71552,2.71552,0,0,0-.45732.37417,5.35557,5.35557,0,0,0-.39495.43654,2.56184,2.56184,0,0,0-.18709.24944,1.18509,1.18509,0,0,1-.31181.02079q-.395,0-.395-.20787a2.50982,2.50982,0,0,1,.395-.72755,7.06868,7.06868,0,0,1,1.1433-1.28881,2.82611,2.82611,0,0,1,1.4759-.78992q.1455-.04158,4.67713-.04157,3.326,0,3.40911.02078a.56753.56753,0,0,1,.41574.582.86818.86818,0,0,1-.66519.87306,11.27343,11.27343,0,0,1-1.43432.04157h-1.33038l-.06237.35339a15.60343,15.60343,0,0,0-.24944,2.47368,9.0577,9.0577,0,0,0,.18708,1.93322,7.51142,7.51142,0,0,0,.395,1.33038,2.424,2.424,0,0,1,.20787.582.96335.96335,0,0,1-.291.6652.97775.97775,0,0,1-.74834.3118.95786.95786,0,0,1-.37417-.06236q-.14551-.06236-.3326-.49889a6.00466,6.00466,0,0,1-.33259-1.24724q-.02079-.18708-.02079-.91464a13.79471,13.79471,0,0,1,.18709-2.18266q.18708-1.16409.37417-1.91243l.20787-.83149H228.6365l-.02079.08315q0,.06237-.395,1.6422t-.89385,3.34674a15.49162,15.49162,0,0,1-.6444,2.01637A.874.874,0,0,1,225.78864,15.12154Z"/>
      <path id="MJMAIN-2217-2" data-name="MJMAIN-2217" class="cls-8" d="M238.3485,3.14676q-.19111-1.96993-.19112-2.20515,0-.26463.35283-.41163h.0735a.20475.20475,0,0,0,.08821-.0147.587.587,0,0,1,.32342.13231.362.362,0,0,1,.147.294q0,.24992-.0882,1.17608t-.10291,1.02907l.85266-.61744q.82326-.60274.89676-.64685a.28366.28366,0,0,1,.147-.0441.51459.51459,0,0,1,.35283.147.55688.55688,0,0,1,.17641.39693.46481.46481,0,0,1-.147.33812q-.07351.0441-.99967.48513t-.99967.47044l.97027.45573,1.02907.51454a.45789.45789,0,0,1,.13231.33812.52891.52891,0,0,1-.13231.36752.49882.49882,0,0,1-.35283.16172.52733.52733,0,0,1-.26462-.08821q-.147-.0882-.80855-.588l-.85266-.61744q.19111,1.96993.19111,2.20515a.448.448,0,0,1-.10291.27932.61825.61825,0,0,1-.76445,0,.53821.53821,0,0,1-.11761-.27932q0-.24992.08821-1.17608t.10291-1.02907l-.85266.61744q-.82326.60275-.89677.64684a.23807.23807,0,0,1-.147.04411.51463.51463,0,0,1-.35282-.147.55684.55684,0,0,1-.17641-.39693V4.86678a.1271.1271,0,0,1,.0441-.08821.58475.58475,0,0,0,.07351-.0882.40678.40678,0,0,1,.1323-.10291q.10292-.0588.19112-.10291t.27932-.13231q.19111-.0882.36752-.16171t.47044-.22051l.588-.294-1.99934-.95557a.45787.45787,0,0,1-.13231-.33812.52891.52891,0,0,1,.13231-.36753.49877.49877,0,0,1,.35282-.16171.5272.5272,0,0,1,.26462.08821q.147.0882.80856.588Z"/>
    </g>
    <path id="MJMAIN-28-2" data-name="MJMAIN-28" class="cls-8" d="M250.124,19.656a24.18379,24.18379,0,0,1,.294-3.85166,26.94542,26.94542,0,0,1,.67625-3.146,12.31191,12.31191,0,0,1,1.08787-2.58739q.70566-1.26429,1.11728-1.96993a7.80916,7.80916,0,0,1,1.23489-1.52891q.82326-.82326.97027-.99967a5.29817,5.29817,0,0,1,.735-.61744h.49983q.41163,0,.41163.26462a2.37594,2.37594,0,0,1-.49983.61744,13.34689,13.34689,0,0,0-1.20549,1.55831,20.34213,20.34213,0,0,0-1.4407,2.52857,16.72756,16.72756,0,0,0-1.23489,4.05749,29.67557,29.67557,0,0,0-.49983,5.67459,29.21413,29.21413,0,0,0,.49983,5.6452,19.09564,19.09564,0,0,0,1.20549,4.08688,13.31566,13.31566,0,0,0,1.4407,2.52858q.735.97027,1.23489,1.55831a6.64254,6.64254,0,0,1,.49983.61744q0,.26463-.441.26462h-.47043l-.82326-.70565a14.50963,14.50963,0,0,1-4.02808-6.23323A24.03918,24.03918,0,0,1,250.124,19.656Z"/>
    <g>
      <path id="MJMATHI-73-2" data-name="MJMATHI-73" class="cls-8" d="M262.6787,18.50933a4.35723,4.35723,0,0,1,.47043-1.91113,4.83706,4.83706,0,0,1,1.64652-1.79352,4.69777,4.69777,0,0,1,2.852-.79386,3.7147,3.7147,0,0,1,2.64619.79386,2.519,2.519,0,0,1,.85266,1.76412,1.751,1.751,0,0,1-.49984,1.3819,1.78128,1.78128,0,0,1-1.11727.47043,1.17438,1.17438,0,0,1-.70565-.23522.95123.95123,0,0,1-.35283-.76445,1.33424,1.33424,0,0,1,.26462-.82326,2.641,2.641,0,0,1,.49984-.52924.7116.7116,0,0,1,.38222-.17641.026.026,0,0,0,.0294-.0294q0-.0882-.20581-.26462a2.00838,2.00838,0,0,0-.73505-.32342,5.20214,5.20214,0,0,0-1.14668-.17641,2.48689,2.48689,0,0,0-2.73439,2.32276,1.0629,1.0629,0,0,0,.55864,1.02907,6.09777,6.09777,0,0,0,1.61711.49984,6.44238,6.44238,0,0,1,1.52891.441,2.90579,2.90579,0,0,1,1.94053,2.82259,4.47431,4.47431,0,0,1-.32342,1.64652,6.57684,6.57684,0,0,1-.97027,1.64651,4.25332,4.25332,0,0,1-1.85233,1.29369,7.98346,7.98346,0,0,1-2.76379.49984,4.7559,4.7559,0,0,1-3.20483-.85266,2.72023,2.72023,0,0,1-.97026-1.99934,1.99962,1.99962,0,0,1,.61744-1.64652,2.0302,2.0302,0,0,1,1.29369-.49983,1.41868,1.41868,0,0,1,.82326.26462,1.09458,1.09458,0,0,1,.41163.91146,1.75977,1.75977,0,0,1-.52924,1.29369,1.448,1.448,0,0,1-.91146.52924.22573.22573,0,0,1-.08821.0294q-.0294,0-.0294.05881a.63555.63555,0,0,0,.23521.23521,4.10485,4.10485,0,0,0,.91147.38223,5.783,5.783,0,0,0,3.44-.11761,2.52586,2.52586,0,0,0,1.11728-.82326,3.90343,3.90343,0,0,0,.49983-.91146,2.21763,2.21763,0,0,0,.147-.73505,1.38515,1.38515,0,0,0-.61744-1.23489,3.12541,3.12541,0,0,0-1.4113-.49983,7.27719,7.27719,0,0,1-1.73472-.441,2.721,2.721,0,0,1-1.3819-1.02908A2.95952,2.95952,0,0,1,262.6787,18.50933Z"/>
      <g>
        <path id="MJMATHI-74-2" data-name="MJMATHI-74" class="cls-8" d="M273.15706,23.41374q-.14552-.1455-.14551-.20787a1.748,1.748,0,0,1,.06236-.33259.85436.85436,0,0,1,.10394-.291.17854.17854,0,0,1,.18708-.10393q.14551,0,1.06015-.02079h1.10173l.395-1.663q.06236-.22866.14551-.60283a4.45809,4.45809,0,0,1,.14551-.54047,3.91262,3.91262,0,0,0,.12472-.41574.76268.76268,0,0,1,.1663-.35339,1.97962,1.97962,0,0,0,.20787-.24944.46844.46844,0,0,1,.291-.18709,1.72,1.72,0,0,1,.37417-.04157.63728.63728,0,0,1,.51968.22866.69647.69647,0,0,1,.14552.39495,7.90156,7.90156,0,0,1-.18709.977q-.18708.8315-.41574,1.6422l-.20788.76913a4.91224,4.91224,0,0,0,1.03937.04157h1.06015q.1455.14552.14551.22866a.98312.98312,0,0,1-.27024.72755h-2.22423l-.74835,3.01416q-.81069,3.32595-.8107,3.5754,0,.87307.56126.87307a1.98666,1.98666,0,0,0,1.41353-.70677,5.29443,5.29443,0,0,0,1.10172-1.74613q.04158-.12473.10394-.14551a1.8311,1.8311,0,0,1,.31181-.04157h.08315q.3118,0,.31181.16629a1.02066,1.02066,0,0,1-.06236.24945,3.91124,3.91124,0,0,1-.37417.78992,7.38985,7.38985,0,0,1-.70677.977,3.84377,3.84377,0,0,1-1.06015.87306,2.54536,2.54536,0,0,1-1.268.35339,2.40424,2.40424,0,0,1-1.18488-.31181,1.801,1.801,0,0,1-.8107-1.08094,2.6133,2.6133,0,0,1-.04157-.56126v-.37417l.72755-2.91021q.72756-2.931.74834-2.95179a5.10747,5.10747,0,0,0-1.06015-.04158Z"/>
        <path id="MJMAIN-2B-2" data-name="MJMAIN-2B" class="cls-8" d="M281.28488,26.49026V26.22a.4528.4528,0,0,1,.291-.41574h6.21539V22.68619l.02078-3.11809q.20789-.27023.395-.27023a.45453.45453,0,0,1,.41575.31181v6.1946h6.1946a.43307.43307,0,0,1,0,.83149h-6.1946v6.1946q-.1663.291-.37417.291h-.08315a.403.403,0,0,1-.37417-.291v-6.1946H281.5759a.4528.4528,0,0,1-.291-.41575Z"/>
        <path id="MJMAIN-31-2" data-name="MJMAIN-31" class="cls-8" d="M300.74175,19.4018l-.27024.10394a5.95784,5.95784,0,0,1-.83149.20787,9.581,9.581,0,0,1-1.20566.14551h-.395v-.95621h.395a6.7599,6.7599,0,0,0,1.80849-.31181,4.90923,4.90923,0,0,0,1.16409-.49889,5.32915,5.32915,0,0,0,.582-.45732q.04158-.06237.24945-.06236a.57894.57894,0,0,1,.35338.12472v6.21539l.02079,6.23617a.82328.82328,0,0,0,.24945.18709,2.46509,2.46509,0,0,0,.49889.08315q.395.04157,1.28881.04157h.54047v.95622h-.22866q-.43653-.06237-3.30517-.06237-2.82708,0-3.2636.06237h-.24945v-.95622h1.33038a4.99535,4.99535,0,0,0,.51969-.02078,2.03528,2.03528,0,0,0,.33259-.06237,1.24646,1.24646,0,0,1,.1663-.04157q.02079,0,.12472-.10394t.12473-.08315Z"/>
      </g>
    </g>
    <path id="MJMAIN-2C" class="cls-8" d="M311.95654,25.97746V25.2424a1.83859,1.83859,0,0,1,.47044-1.26428,1.607,1.607,0,0,1,1.26428-.52924,1.922,1.922,0,0,1,1.47011.73505,4.05909,4.05909,0,0,1,.67624,2.58738,7.56445,7.56445,0,0,1-.26461,1.99934,9.14147,9.14147,0,0,1-.61745,1.67592,6.37593,6.37593,0,0,1-.76445,1.20548q-.41163.49984-.70565.79386t-.38223.26462q-.1176,0-.38222-.26462t-.26462-.38223q0-.1176.32342-.47043t.73505-.88206a5.64258,5.64258,0,0,0,.76445-1.47011,8.44553,8.44553,0,0,0,.47044-2.14635v-.35282l-.0294.0294a1.14283,1.14283,0,0,1-.147.05881.74217.74217,0,0,0-.17642.0882.48117.48117,0,0,1-.26462.05881,2.14286,2.14286,0,0,0-.35282.0294,1.75045,1.75045,0,0,1-1.29369-.49984Z"/>
    <path id="MJMATHI-61" class="cls-8" d="M323.71736,22.39041a8.6887,8.6887,0,0,1,2.23456-5.6452,6.57956,6.57956,0,0,1,5.02775-2.705,3.33329,3.33329,0,0,1,2.64619,1.4407,1.47118,1.47118,0,0,1,1.35249-.88206,1.052,1.052,0,0,1,.67625.23522.724.724,0,0,1,.294.588q0,.38223-1.08788,4.70433t-1.11727,4.88074a1.573,1.573,0,0,0,.20581.97027.86368.86368,0,0,0,.61744.26461,1.27742,1.27742,0,0,0,.588-.26461,6.66706,6.66706,0,0,0,1.20549-2.8226q.17642-.588.294-.61744a.85968.85968,0,0,1,.294-.02941h.11761q.55863,0,.55864.26462a4.67059,4.67059,0,0,1-.147.79386,9.22444,9.22444,0,0,1-.588,1.58771,5.00935,5.00935,0,0,1-.94087,1.4701,2.9072,2.9072,0,0,1-.94087.61744,3.134,3.134,0,0,1-.70565.05881,3.00529,3.00529,0,0,1-1.67591-.441,2.25714,2.25714,0,0,1-.88206-.91147l-.17642-.441q-.0294-.0294-.11761.02941l-.1176.1176a5.1549,5.1549,0,0,1-3.52825,1.64652,4.01267,4.01267,0,0,1-2.852-1.17608A4.95447,4.95447,0,0,1,323.71736,22.39041Zm9.34986-5.02776a2.662,2.662,0,0,0-.147-.64684,2.79534,2.79534,0,0,0-.67625-1.02907,1.87941,1.87941,0,0,0-1.35249-.588,2.82152,2.82152,0,0,0-1.96994.91146,6.152,6.152,0,0,0-1.4701,2.38157,23.47311,23.47311,0,0,0-1.20549,4.82193v.32343a1.56732,1.56732,0,0,1-.0294.35282,2.46928,2.46928,0,0,0,.52924,1.82293,1.89356,1.89356,0,0,0,1.26428.52923,3.32008,3.32008,0,0,0,2.20516-.97026,4.944,4.944,0,0,0,1.29369-1.49951q.0588-.1176.79385-3.146T333.06722,17.36265Z"/>
    <path id="MJMAIN-29-2" data-name="MJMAIN-29" class="cls-8" d="M340.09431,4.98439l.11761-.0294h.64684l.82326.70565a14.50963,14.50963,0,0,1,4.02808,6.23323,24.03917,24.03917,0,0,1,1.26429,7.76214,24.5457,24.5457,0,0,1-.294,3.85167,25.27829,25.27829,0,0,1-.67625,3.146,13.24286,13.24286,0,0,1-1.08787,2.58738q-.70566,1.29369-1.11728,1.96994a8.9441,8.9441,0,0,1-1.20549,1.49951q-.79384.82326-.94086.97026t-.67625.55864l-.11761.11761h-.67624a.17277.17277,0,0,1-.147-.0882.692.692,0,0,1-.08821-.26462q.0294-.0294.32342-.38223,4.55732-4.73373,4.55732-13.966T340.27072,5.69q-.294-.35283-.32342-.38223A.34556.34556,0,0,1,340.09431,4.98439Z"/>
  </g>
  <path id="MJMAIN-3D" class="cls-8" d="M150.36257,16.54035a.73438.73438,0,0,1,.472-.67427h21.47537a.784.784,0,0,1,.5057.67427.76486.76486,0,0,1-.472.64055l-10.72083.03371H150.902A.6682.6682,0,0,1,150.36257,16.54035Zm0,6.54038a.66822.66822,0,0,1,.53941-.67427h21.44166q.472.33714.472.67427a.73719.73719,0,0,1-.5057.67427H150.83456A.73438.73438,0,0,1,150.36257,23.08073Z"/>
  <g>
    <path id="MJMAIN-61" class="cls-8" d="M420.09434,18.1105h-.63883a1.45984,1.45984,0,0,1-1.0744-.43557,1.532,1.532,0,0,1-.43557-1.13247,2.27061,2.27061,0,0,1,.98729-1.80035,7.45374,7.45374,0,0,1,6.94.14519,4.49685,4.49685,0,0,1,1.74226,2.20687,2.66064,2.66064,0,0,1,.14519.90018q0,.49364.029,3.33935v2.03264a8.36365,8.36365,0,0,0,.14519,1.9165.60745.60745,0,0,0,.6098.52268.57553.57553,0,0,0,.58075-.4646,5.7293,5.7293,0,0,0,.14519-1.539V22.75655h1.16151V23.889a9.13558,9.13558,0,0,1-.08711,1.36477,2.40759,2.40759,0,0,1-1.01632,1.36478,3.07035,3.07035,0,0,1-1.59708.52268,1.70713,1.70713,0,0,1-1.36478-.52268,2.78228,2.78228,0,0,1-.69691-1.21959v-.11615l-.05807.08711a1.15377,1.15377,0,0,1-.14519.17423q-.08712.08712-.23231.26134a1.84881,1.84881,0,0,1-.34845.31942q-.20326.14519-.43557.34845a1.80648,1.80648,0,0,1-.52268.31942q-.29037.11614-.63883.2323a4.31582,4.31582,0,0,1-.755.17423q-.40653.05807-.90018.08711a5.6558,5.6558,0,0,1-3.13608-.90017A2.8457,2.8457,0,0,1,417.10344,23.86a3.33293,3.33293,0,0,1,.20327-1.16152,3.7977,3.7977,0,0,1,.784-1.19055,5.15055,5.15055,0,0,1,1.39381-1.0744,10.58348,10.58348,0,0,1,2.26495-.81305,14.63075,14.63075,0,0,1,3.19417-.43557h.40652v-.63883a4.444,4.444,0,0,0-.17422-1.4519,2.68959,2.68959,0,0,0-2.81667-2.06168q-.52268,0-.98729.029a2.981,2.981,0,0,0-.72594.11615.95418.95418,0,0,0-.23231.08711,1.44787,1.44787,0,0,1,.63884,1.27767,1.42545,1.42545,0,0,1-.46461,1.13247Zm-.31942,5.77853a2.19714,2.19714,0,0,0,.69691,1.59708,2.433,2.433,0,0,0,1.71323.72594,3.0419,3.0419,0,0,0,1.94554-.66787,3.241,3.241,0,0,0,1.13247-1.74227,15.96508,15.96508,0,0,0,.08711-1.91649q0-1.6842-.029-1.6842-.2323,0-.6098.029a9.294,9.294,0,0,0-1.3067.26134,9.53335,9.53335,0,0,0-1.68419.58076,3.6899,3.6899,0,0,0-1.33574,1.0744A2.83818,2.83818,0,0,0,419.77492,23.889Z"/>
    <path id="MJMAIN-72" class="cls-8" d="M431.68043,25.63129h.40653q1.13247,0,1.36478-.40653v-.90017q0-.40653.029-.90017a11.00285,11.00285,0,0,0,0-1.13248q-.029-.63882,0-1.21958V17.44263l-.029-.66787a.929.929,0,0,0-.40653-.726,3.89845,3.89845,0,0,0-1.3067-.26134h-.52269V15.1196q0-.66786.05808-.66787l.29038-.029q.29037-.029.81306-.05807l1.04536-.05808q.46461-.029,1.01632-.05807a6.28388,6.28388,0,0,0,.8421-.08712q.29039-.05807.31942-.029h.08711v2.00361a3.27587,3.27587,0,0,1,2.81667-1.97458h.17423a2.54309,2.54309,0,0,1,1.91649.63884,1.9267,1.9267,0,0,1,.6098,1.33574,1.5425,1.5425,0,0,1-.3775,1.04536,1.38086,1.38086,0,0,1-1.10343.43557,1.25582,1.25582,0,0,1-1.0744-.46461,1.78907,1.78907,0,0,1-.37749-.98729,1.69394,1.69394,0,0,1,.05807-.4646,1.45137,1.45137,0,0,1,.14519-.34845l.08711-.14519q-.05806-.05808-.66787.11615a3.38442,3.38442,0,0,0-.6969.43556q-1.36479,1.30671-1.36478,5.19777v3.078a4.81474,4.81474,0,0,0,.029.58076,1.63874,1.63874,0,0,1,0,.43557v.14519a.45512.45512,0,0,0,.08711.11615.36445.36445,0,0,0,.14519.08711.36454.36454,0,0,1,.14519.08712.28341.28341,0,0,0,.20326.05807.49833.49833,0,0,1,.20327.029.721.721,0,0,0,.26134.029h.26134q.05808,0,.29038.029a.6692.6692,0,0,0,.29037,0h.90018V26.967h-.26134q-.52269-.08711-3.68781-.08711a27.27184,27.27184,0,0,0-3.25223.08711h-.23231V25.63129Z"/>
    <path id="MJMAIN-67" class="cls-8" d="M451.60038,15.09056a4.00232,4.00232,0,0,1,2.90378-1.27766,1.40309,1.40309,0,0,1,1.24862.55172,1.94356,1.94356,0,0,1,.3775,1.10344,1.11521,1.11521,0,0,1-.26134.72594.95369.95369,0,0,1-.784.31942.94262.94262,0,0,1-1.07439-.87114.83865.83865,0,0,1,.08711-.60979.2228.2228,0,0,1,.029-.08711v-.029a3.05709,3.05709,0,0,0-1.539.63883q-.2323.14519-.2323.20326,0,.029.11615.14519a2.01529,2.01529,0,0,1,.26134.34846q.14518.2323.31942.52268a2.292,2.292,0,0,1,.26134.755,7.62666,7.62666,0,0,1,.11615.95825,3.907,3.907,0,0,1-1.42285,3.049,5.253,5.253,0,0,1-3.51358,1.27767,5.74,5.74,0,0,1-2.87475-.81306,2.08289,2.08289,0,0,0-.31941,1.10343,1.67923,1.67923,0,0,0,.755,1.51.89984.89984,0,0,0,.49365.17423q.23229,0,2.09072.05807a21.46526,21.46526,0,0,1,3.13608.17423,5.13389,5.13389,0,0,1,2.78763,1.19055,3.859,3.859,0,0,1,1.13248,2.84571,3.27115,3.27115,0,0,1-2.26495,2.99089,9.96038,9.96038,0,0,1-8.27578,0q-2.265-1.01633-2.26495-2.90378a2.55029,2.55029,0,0,1,.60979-1.74227,3.52907,3.52907,0,0,1,1.21959-.95825l.31942-.17422a3.05281,3.05281,0,0,1-1.04536-2.43918,3.96846,3.96846,0,0,1,.84209-2.46822A3.972,3.972,0,0,1,443.5569,18.488a3.90455,3.90455,0,0,1,1.45189-3.078,5.44736,5.44736,0,0,1,6.27217-.52268Zm-.87114,1.9165a1.979,1.979,0,0,0-.755-1.27766,2.56084,2.56084,0,0,0-1.51-.49365,2.32631,2.32631,0,0,0-1.45189.46461,1.99848,1.99848,0,0,0-.755,1.3067,9.24825,9.24825,0,0,0-.08712,1.48093,6.43345,6.43345,0,0,0,.20327,1.88746,1.90242,1.90242,0,0,0,.87113,1.01632,2.43259,2.43259,0,0,0,1.24863.29038,2.73878,2.73878,0,0,0,1.10344-.20326,1.4471,1.4471,0,0,0,.66787-.52269,4.52632,4.52632,0,0,0,.31941-.58075,1.89245,1.89245,0,0,0,.14519-.43557,8.67785,8.67785,0,0,0,.08711-1.45189A9.24851,9.24851,0,0,0,450.72924,17.00706Zm3.01994,12.13781a1.742,1.742,0,0,0-.40653-1.19055,2.29793,2.29793,0,0,0-1.19056-.66787,8.96074,8.96074,0,0,0-1.42285-.26134q-.63883-.05808-1.568-.05808h-.784a8.33665,8.33665,0,0,0-2.323.17423,1.932,1.932,0,0,0-.90017.81306,2.5304,2.5304,0,0,0-.34845,1.16151,1.62948,1.62948,0,0,0,.17422.66787,3.80136,3.80136,0,0,0,.6098.87114,3.159,3.159,0,0,0,1.39381.81306,7.93787,7.93787,0,0,0,2.323.34845,5.72111,5.72111,0,0,0,3.2232-.81306A2.27567,2.27567,0,0,0,453.74918,29.14487Z"/>
    <path id="MJMAIN-6D" class="cls-8" d="M457.75639,25.63129h.40653q1.13249,0,1.36478-.40653V23.42442q0-.49365.029-1.13248t0-1.21958v-1.9165q0-1.01632-.029-1.71323v-.66787a.929.929,0,0,0-.40653-.726,3.89838,3.89838,0,0,0-1.3067-.26134h-.52268V15.1196q0-.66786.05808-.66787l.29037-.029q.29038-.029.81306-.05807t1.0744-.05808q.49365-.029,1.04536-.05807a6.28388,6.28388,0,0,0,.8421-.08712q.29038-.05807.31942-.029h.08711v1.16151a7.889,7.889,0,0,0,.029,1.10344q.029,0,.14519-.14519l.34845-.43557a2.8418,2.8418,0,0,1,.55172-.52268q.31941-.2323.8421-.55172a3.93682,3.93682,0,0,1,1.10343-.4646,6.25894,6.25894,0,0,1,1.48093-.14519,5.35428,5.35428,0,0,1,.81306.05807,3.04908,3.04908,0,0,1,.66787.17423q.29039.11614.55172.2323a1.853,1.853,0,0,1,.43557.26134,2.49,2.49,0,0,1,.31941.31942q.1452.17422.26134.31941a1.79291,1.79291,0,0,1,.20327.31942,1.494,1.494,0,0,1,.11615.29038,1.13534,1.13534,0,0,0,.08711.2323l.05808.14519.08711-.11615.17423-.2323q.08711-.11616.26134-.31942a3.47489,3.47489,0,0,1,.37749-.37749q.20326-.17422.43557-.37749a2.10181,2.10181,0,0,1,.58075-.34846q.34847-.14518.66787-.29038a2.67974,2.67974,0,0,1,.755-.20326q.43557-.05808.90017-.08711,3.65877,0,3.97818,3.28127.029.20327.029,4.03626V23.9471a7.71909,7.71909,0,0,0,.05808,1.3067.44368.44368,0,0,0,.31941.29038,10.18762,10.18762,0,0,0,1.42286.08711h.4646V26.967h-.2323l-.66787-.029q-.69691-.029-1.48093-.029t-1.10344-.029a27.27184,27.27184,0,0,0-3.25223.08711h-.23231V25.63129h.46461q1.77131,0,1.77131-.4646.029-.05808.029-4.00722-.029-3.9201-.05807-4.15241a2.39846,2.39846,0,0,0-.58076-1.21959,1.8596,1.8596,0,0,0-.69691-.49364,2.20972,2.20972,0,0,0-.755-.05808,3.14665,3.14665,0,0,0-2.294.98729,3.50632,3.50632,0,0,0-.98728,1.59708,11.52893,11.52893,0,0,0-.23231,2.41014V23.831q0,.87114.029,1.16151a.9627.9627,0,0,0,.08711.37749.60063.60063,0,0,0,.26135.17423,10.18737,10.18737,0,0,0,1.42285.08711h.4646V26.967h-.2323l-.69691-.029q-.66786-.029-1.45189-.029t-1.10344-.029a27.272,27.272,0,0,0-3.25223.08711h-.2323V25.63129h.4646q1.77131,0,1.77131-.4646.029-.05808.029-4.00722-.029-3.9201-.05808-4.15241a2.39846,2.39846,0,0,0-.58076-1.21959,1.85966,1.85966,0,0,0-.6969-.49364,2.2098,2.2098,0,0,0-.755-.05808,3.14663,3.14663,0,0,0-2.294.98729,3.50626,3.50626,0,0,0-.98729,1.59708,11.52906,11.52906,0,0,0-.2323,2.41014V23.831q0,.87114.029,1.16151a.96246.96246,0,0,0,.08712.37749.60052.60052,0,0,0,.26134.17423,10.18747,10.18747,0,0,0,1.42285.08711h.46461V26.967h-.23231l-.66787-.029q-.6969-.029-1.48092-.029t-1.10344-.029a27.27221,27.27221,0,0,0-3.25224.08711h-.2323V25.63129Z"/>
    <path id="MJMAIN-61-2" data-name="MJMAIN-61" class="cls-8" d="M484.76157,18.1105h-.63883a1.45984,1.45984,0,0,1-1.0744-.43557,1.532,1.532,0,0,1-.43557-1.13247,2.27061,2.27061,0,0,1,.98729-1.80035,7.45374,7.45374,0,0,1,6.94.14519,4.49693,4.49693,0,0,1,1.74227,2.20687,2.66089,2.66089,0,0,1,.14518.90018q0,.49364.029,3.33935v2.03264a8.36365,8.36365,0,0,0,.14519,1.9165.60745.60745,0,0,0,.6098.52268.57553.57553,0,0,0,.58075-.4646,5.72888,5.72888,0,0,0,.14519-1.539V22.75655H495.099V23.889a9.13558,9.13558,0,0,1-.08711,1.36477,2.40759,2.40759,0,0,1-1.01632,1.36478,3.07035,3.07035,0,0,1-1.59708.52268,1.70713,1.70713,0,0,1-1.36478-.52268,2.78237,2.78237,0,0,1-.69691-1.21959v-.11615l-.05807.08711a1.15377,1.15377,0,0,1-.14519.17423q-.08712.08712-.23231.26134a1.84881,1.84881,0,0,1-.34845.31942q-.20326.14519-.43557.34845a1.80648,1.80648,0,0,1-.52268.31942q-.29037.11614-.63883.2323a4.31582,4.31582,0,0,1-.755.17423q-.40653.05807-.90018.08711a5.6558,5.6558,0,0,1-3.13608-.90017A2.8457,2.8457,0,0,1,481.77067,23.86a3.33293,3.33293,0,0,1,.20327-1.16152,3.7977,3.7977,0,0,1,.784-1.19055,5.15044,5.15044,0,0,1,1.39382-1.0744,10.58307,10.58307,0,0,1,2.26495-.81305,14.63057,14.63057,0,0,1,3.19416-.43557h.40653v-.63883a4.444,4.444,0,0,0-.17423-1.4519,2.68959,2.68959,0,0,0-2.81667-2.06168q-.52268,0-.98729.029a2.981,2.981,0,0,0-.72594.11615.95358.95358,0,0,0-.2323.08711,1.44788,1.44788,0,0,1,.63883,1.27767,1.42545,1.42545,0,0,1-.46461,1.13247Zm-.31942,5.77853a2.19714,2.19714,0,0,0,.69691,1.59708,2.433,2.433,0,0,0,1.71323.72594,3.0419,3.0419,0,0,0,1.94554-.66787,3.241,3.241,0,0,0,1.13247-1.74227,15.96625,15.96625,0,0,0,.08712-1.91649q0-1.6842-.029-1.6842-.2323,0-.6098.029a9.29429,9.29429,0,0,0-1.3067.26134,9.53335,9.53335,0,0,0-1.68419.58076,3.69,3.69,0,0,0-1.33574,1.0744A2.83818,2.83818,0,0,0,484.44215,23.889Z"/>
    <path id="MJMAIN-78" class="cls-8" d="M501.1389,26.967a23.1911,23.1911,0,0,0-2.87474-.08711,16.59223,16.59223,0,0,0-2.46822.08711h-.17422V25.63129h.40652a5.7817,5.7817,0,0,0,1.21959-.17422,7.65808,7.65808,0,0,0,.8421-.26134,2.81693,2.81693,0,0,0,.726-.49365,3.08182,3.08182,0,0,0,.52268-.52268,8.96985,8.96985,0,0,1,.60979-.755,3.22405,3.22405,0,0,0,.58076-.81306l1.33574-1.74227-1.6842-2.26495q-.26133-.37749-.55172-.784t-.4646-.60979a3.59979,3.59979,0,0,1-.31942-.43557,2.01478,2.01478,0,0,0-.26134-.34846,1.407,1.407,0,0,1-.17422-.20326.62986.62986,0,0,0-.20327-.17423.63657.63657,0,0,0-.17423-.08711.80877.80877,0,0,1-.17422-.05808.66947.66947,0,0,0-.23231-.05807q-.17422,0-1.04536-.05808h-.81306V14.45173h.20327q1.04537.05808,2.99089.05808,2.70053,0,2.9909-.05808h.2323v1.33574q-1.04535.11616-1.04536.46461a2.03864,2.03864,0,0,0,.29038.4646q.29038.40653.81306,1.10344t.8421,1.19055l.11615.11615.72594-.98728a3.92774,3.92774,0,0,0,.92921-1.568.85269.85269,0,0,0-.05807-.31941.42475.42475,0,0,0-.14519-.20327.951.951,0,0,1-.14519-.11615.62318.62318,0,0,0-.20327-.11615l-.08711-.029h-.14519V14.45173h.20327a24.62773,24.62773,0,0,0,2.87474.08712,15.418,15.418,0,0,0,2.46822-.08712h.17422v1.33574h-.20326a4.98357,4.98357,0,0,0-2.35207.49365,3.18877,3.18877,0,0,0-.98728.784q-.49365.55172-1.88746,2.43917l-.46461.6098,1.80035,2.46821q1.91649,2.61341,2.06168,2.72956a1.34333,1.34333,0,0,0,.49365.20326,7.61437,7.61437,0,0,0,1.539.11615h.49365V26.967h-.40653a4.81718,4.81718,0,0,0-.58076-.029q-.34845,0-.726-.029a4.5422,4.5422,0,0,0-.72594,0,1.3934,1.3934,0,0,1-.52268-.029h-1.0744q-.755,0-1.45189.05808l-.66787.029h-.26134V25.63129h.08711a1.53254,1.53254,0,0,0,.63883-.14518q.31942-.1452.31942-.34846,0-.05808-1.16151-1.65515l-1.19056-1.59708q-.029.029-.90017,1.21958t-.98728,1.30671a.63513.63513,0,0,0-.11616.40653.8102.8102,0,0,0,.20327.55171.75957.75957,0,0,0,.52268.26134q.05808,0,.05808.66787V26.967Z"/>
    <path id="MJMATHI-61-2" data-name="MJMATHI-61" class="cls-8" d="M458.61272,42.18883a6.06679,6.06679,0,0,1,1.56026-3.94171,4.59414,4.59414,0,0,1,3.51059-1.88874,2.3274,2.3274,0,0,1,1.84767,1.006,1.02726,1.02726,0,0,1,.94437-.61589.73452.73452,0,0,1,.47219.16424.50555.50555,0,0,1,.20529.41059q0,.26688-.7596,3.28476t-.78013,3.40794a1.09834,1.09834,0,0,0,.14371.67748.6031.6031,0,0,0,.43113.18477.89209.89209,0,0,0,.41059-.18477,4.65512,4.65512,0,0,0,.84172-1.97086q.12318-.4106.2053-.43112a.60033.60033,0,0,1,.20529-.02053h.08212q.39007,0,.39007.18477a3.26121,3.26121,0,0,1-.10265.5543,6.44,6.44,0,0,1-.4106,1.1086,3.49734,3.49734,0,0,1-.65695,1.02649,2.03,2.03,0,0,1-.65695.43113,2.18883,2.18883,0,0,1-.49271.04106,2.09842,2.09842,0,0,1-1.1702-.30795,1.57616,1.57616,0,0,1-.61589-.63642l-.12318-.30795q-.02052-.02052-.08212.02053l-.08212.08212a3.59937,3.59937,0,0,1-2.46357,1.14967,2.8018,2.8018,0,0,1-1.99138-.82119A3.45943,3.45943,0,0,1,458.61272,42.18883Zm6.52846-3.51059a1.85857,1.85857,0,0,0-.10265-.45165,1.9519,1.9519,0,0,0-.47218-.71854,1.3123,1.3123,0,0,0-.94437-.4106,1.97006,1.97006,0,0,0-1.37549.63643,4.29555,4.29555,0,0,0-1.02649,1.6629,16.39,16.39,0,0,0-.84172,3.36688v.22583a1.0942,1.0942,0,0,1-.02053.24636,1.72418,1.72418,0,0,0,.36953,1.27284,1.32221,1.32221,0,0,0,.88278.36954,2.31819,2.31819,0,0,0,1.53973-.67749,3.45208,3.45208,0,0,0,.90331-1.047q.04107-.08213.55431-2.19669T465.14118,38.67824Z"/>
    <g>
      <path id="MJMATHI-51-2" data-name="MJMATHI-51" class="cls-8" d="M527.06968,29.29006q0-.95824.029-1.45189a2.868,2.868,0,0,1,.05808-.55172V27.1703l-.43557.11615a10.56347,10.56347,0,0,1-2.43917.31942,7.126,7.126,0,0,1-7.31754-6.47544q-.029-.23231-.029-1.24862a12.01275,12.01275,0,0,1,1.39381-5.63334,16.26368,16.26368,0,0,1,3.74588-4.73317,11.32608,11.32608,0,0,1,7.23042-2.99089q1.10343,0,1.39381.029a6.91315,6.91315,0,0,1,4.5299,2.49725,8.18694,8.18694,0,0,1,1.74227,5.28488A13.2122,13.2122,0,0,1,532.674,23.86a13.9267,13.9267,0,0,1-3.804,2.64244l-.49364.2323v.14519q0,.029.14519.784a2.28513,2.28513,0,0,0,.60979,1.21959,1.808,1.808,0,0,0,1.33574.46461,3.383,3.383,0,0,0,1.94554-.63884,2.95423,2.95423,0,0,0,1.21958-1.65515q.17424-.40653.3775-.40653a.29865.29865,0,0,1,.31941.26134,4.34306,4.34306,0,0,1-.29038,1.04536q-.29037.81306-.81305,1.9165a5.041,5.041,0,0,1-1.568,1.88745,3.96263,3.96263,0,0,1-2.20687.8421q-2.3811,0-2.3811-3.107Zm6.882-15.91273a8.10559,8.10559,0,0,0-.43557-2.78763,3.817,3.817,0,0,0-1.19055-1.7713,6.54648,6.54648,0,0,0-1.45189-.87114,3.96335,3.96335,0,0,0-1.539-.29038,6.33481,6.33481,0,0,0-2.84571.726,10.45465,10.45465,0,0,0-4.7622,5.11065,16.35187,16.35187,0,0,0-1.80035,7.20138,5.99722,5.99722,0,0,0,1.568,4.55894,2.72738,2.72738,0,0,0,.8421.6098v-.23231a3.03713,3.03713,0,0,1,.95825-2.14879,3.15665,3.15665,0,0,1,2.26495-1.01633,2.34852,2.34852,0,0,1,1.24863.31942,2.0079,2.0079,0,0,1,.784.87113,4.78106,4.78106,0,0,1,.34845.92921q.08712.37749.17423.784l.37749-.26134a10.75378,10.75378,0,0,0,3.16512-3.51357A15.85326,15.85326,0,0,0,533.458,17.2684,16.99711,16.99711,0,0,0,533.95164,13.37733Zm-9.35018,13.067a5.7637,5.7637,0,0,0,2.61341-.60979l-.029-.29038q-.11616-1.59708-1.0744-1.9165a3.55564,3.55564,0,0,0-.55172-.05807h-.17423a.16816.16816,0,0,1-.11615-.029,1.76858,1.76858,0,0,0-1.19055.58076,1.90291,1.90291,0,0,0-.63883,1.33574Q523.44,26.44436,524.60146,26.44435Z"/>
      <g>
        <path id="MJMATHI-3C0-3" data-name="MJMATHI-3C0" class="cls-8" d="M541.16243,15.22928a.60805.60805,0,0,1-.698-.67748V14.326l.26688-.57483a39.78163,39.78163,0,0,0,2.23775-5.60462l.16423-.49272h-.657a6.84439,6.84439,0,0,0-1.1086.06159,2.22094,2.22094,0,0,0-.80066.39007,2.68114,2.68114,0,0,0-.45166.36953,5.29047,5.29047,0,0,0-.39006.43113,2.5287,2.5287,0,0,0-.18477.24636,1.17108,1.17108,0,0,1-.308.02052q-.39006,0-.39006-.20529a2.47866,2.47866,0,0,1,.39006-.71854,6.98176,6.98176,0,0,1,1.12914-1.27285,2.79114,2.79114,0,0,1,1.45761-.78013q.14372-.04105,4.61919-.04106,3.28476,0,3.36688.02053a.5605.5605,0,0,1,.41059.57484.85741.85741,0,0,1-.657.86224,11.13243,11.13243,0,0,1-1.41655.04106h-1.3139l-.06159.349a15.40909,15.40909,0,0,0-.24636,2.443,8.945,8.945,0,0,0,.18477,1.90926,7.41821,7.41821,0,0,0,.39006,1.31391,2.39382,2.39382,0,0,1,.2053.57483.9514.9514,0,0,1-.28741.657.96566.96566,0,0,1-.73908.30795.946.946,0,0,1-.36953-.06159q-.14372-.06159-.32848-.49271a5.93024,5.93024,0,0,1-.32847-1.23179q-.02053-.18477-.02053-.90331a13.62429,13.62429,0,0,1,.18477-2.15562q.18475-1.14966.36953-1.88874l.2053-.82119H543.975l-.02053.08212q0,.06159-.39006,1.62185t-.88278,3.30529a15.30138,15.30138,0,0,1-.63642,1.99139A.86322.86322,0,0,1,541.16243,15.22928Z"/>
        <path id="MJMAIN-2217-3" data-name="MJMAIN-2217" class="cls-8" d="M553.56669,3.40284q-.18874-1.94553-.18875-2.17784,0-.26133.34846-.40652h.07259A.20222.20222,0,0,0,553.88611.804a.57974.57974,0,0,1,.31941.13067.35753.35753,0,0,1,.14519.29037q0,.24682-.08711,1.16152T554.162,3.40284l.84209-.60979q.81306-.59527.88566-.63884a.28017.28017,0,0,1,.14518-.04355.50818.50818,0,0,1,.34846.14519.55.55,0,0,1,.17423.392.459.459,0,0,1-.14519.33393q-.0726.04356-.98729.47913t-.98729.4646l.95825.45009,1.01633.50816a.45224.45224,0,0,1,.13067.33394.52237.52237,0,0,1-.13067.363.49267.49267,0,0,1-.34846.15971.5207.5207,0,0,1-.26134-.08712q-.14518-.08711-.79854-.58075l-.84209-.6098q.18874,1.94553.18874,2.17784a.44253.44253,0,0,1-.10163.27586.6106.6106,0,0,1-.755,0,.53152.53152,0,0,1-.11616-.27586q0-.24683.08712-1.16151t.10163-1.01633l-.8421.6098q-.81306.59528-.88565.63883a.23517.23517,0,0,1-.14519.04355.5082.5082,0,0,1-.34845-.14518.54994.54994,0,0,1-.17423-.392V5.10155a.1255.1255,0,0,1,.04356-.08711.57785.57785,0,0,0,.07259-.08711.40186.40186,0,0,1,.13067-.10164q.10164-.05807.18875-.10163t.27586-.13067q.18874-.08711.363-.15971t.4646-.21778l.58076-.29038-1.97457-.94373a.45217.45217,0,0,1-.13067-.33393.52231.52231,0,0,1,.13067-.363.49259.49259,0,0,1,.34845-.15971.52064.52064,0,0,1,.26134.08711q.1452.08712.79854.58076Z"/>
      </g>
    </g>
    <path id="MJMAIN-28-3" data-name="MJMAIN-28" class="cls-8" d="M565.22538,19.70758a23.88462,23.88462,0,0,1,.29037-3.804,26.614,26.614,0,0,1,.66787-3.107,12.15941,12.15941,0,0,1,1.0744-2.55533q.69691-1.24863,1.10344-1.94554a7.71272,7.71272,0,0,1,1.21959-1.51q.81306-.81306.95825-.98729a5.23331,5.23331,0,0,1,.72594-.60979h.49365q.40653,0,.40652.26134a2.3462,2.3462,0,0,1-.49364.60979,13.18492,13.18492,0,0,0-1.19055,1.539,20.08967,20.08967,0,0,0-1.42285,2.49725,16.51941,16.51941,0,0,0-1.21959,4.00722,29.30727,29.30727,0,0,0-.49364,5.6043,28.85154,28.85154,0,0,0,.49364,5.57526,18.8582,18.8582,0,0,0,1.19055,4.03626,13.15145,13.15145,0,0,0,1.42285,2.49725q.726.95824,1.21959,1.539a6.5579,6.5579,0,0,1,.49364.60979q0,.26134-.43556.26134h-.46461l-.81306-.69691a14.32991,14.32991,0,0,1-3.97818-6.156A23.74123,23.74123,0,0,1,565.22538,19.70758Z"/>
    <g>
      <path id="MJMATHI-73-3" data-name="MJMATHI-73" class="cls-8" d="M577.59549,18.5751a4.30328,4.30328,0,0,1,.4646-1.88745,4.77722,4.77722,0,0,1,1.62612-1.77131,4.63958,4.63958,0,0,1,2.81667-.784,3.66868,3.66868,0,0,1,2.6134.784,2.48787,2.48787,0,0,1,.8421,1.74227,1.72931,1.72931,0,0,1-.49364,1.36477,1.75927,1.75927,0,0,1-1.10344.46461,1.15985,1.15985,0,0,1-.69691-.2323.93948.93948,0,0,1-.34845-.755,1.31764,1.31764,0,0,1,.26134-.813,2.60874,2.60874,0,0,1,.49364-.52269.70272.70272,0,0,1,.37749-.17422.02567.02567,0,0,0,.029-.029q0-.08712-.20326-.26134a1.98355,1.98355,0,0,0-.726-.31942,5.1375,5.1375,0,0,0-1.13247-.17422,2.4561,2.4561,0,0,0-2.70052,2.294A1.04973,1.04973,0,0,0,580.267,18.517a6.02237,6.02237,0,0,0,1.59708.49364,6.363,6.363,0,0,1,1.51.43557,2.8698,2.8698,0,0,1,1.9165,2.78763,4.41866,4.41866,0,0,1-.31942,1.62612,6.49549,6.49549,0,0,1-.95824,1.62612,4.20082,4.20082,0,0,1-1.82939,1.27766,7.88476,7.88476,0,0,1-2.72955.49364,4.697,4.697,0,0,1-3.16512-.84209,2.68652,2.68652,0,0,1-.95825-1.97458,1.9748,1.9748,0,0,1,.60979-1.62611A2.005,2.005,0,0,1,577.218,22.321a1.40117,1.40117,0,0,1,.81306.26134,1.081,1.081,0,0,1,.40652.90018,1.73793,1.73793,0,0,1-.52268,1.27766,1.43008,1.43008,0,0,1-.90017.52268.22285.22285,0,0,1-.08711.029q-.029,0-.029.05807a.62762.62762,0,0,0,.2323.23231,4.05432,4.05432,0,0,0,.90018.37749,5.71135,5.71135,0,0,0,3.39742-.11615,2.49469,2.49469,0,0,0,1.10344-.81306,3.85491,3.85491,0,0,0,.49364-.90017,2.19034,2.19034,0,0,0,.14519-.72595,1.368,1.368,0,0,0-.60979-1.21959,3.0867,3.0867,0,0,0-1.39382-.49364,7.18685,7.18685,0,0,1-1.71323-.43557,2.68729,2.68729,0,0,1-1.36478-1.01632A2.92291,2.92291,0,0,1,577.59549,18.5751Z"/>
      <g>
        <path id="MJMATHI-74-3" data-name="MJMATHI-74" class="cls-8" d="M587.944,23.41876q-.14371-.14372-.14371-.2053a1.72608,1.72608,0,0,1,.06159-.32848.84381.84381,0,0,1,.10264-.28741.17634.17634,0,0,1,.18477-.10265q.14371,0,1.047-.02053h1.08808l.39006-1.64238q.06159-.22582.14371-.59536a4.40338,4.40338,0,0,1,.14371-.53378,3.86356,3.86356,0,0,0,.12318-.41059.75314.75314,0,0,1,.16423-.349,1.954,1.954,0,0,0,.2053-.24635.46259.46259,0,0,1,.28742-.18477,1.699,1.699,0,0,1,.36953-.04106.62946.62946,0,0,1,.51325.22583.68786.68786,0,0,1,.1437.39006,7.80363,7.80363,0,0,1-.18476.9649q-.18477.82119-.4106,1.62185l-.2053.7596a4.8508,4.8508,0,0,0,1.02649.04106h1.047q.1437.1437.14371.22583a.971.971,0,0,1-.26689.71854h-2.19668l-.73907,2.97681q-.80067,3.28476-.80066,3.53112,0,.86224.5543.86224a1.962,1.962,0,0,0,1.396-.698,5.22877,5.22877,0,0,0,1.08808-1.7245q.04106-.12317.10265-.1437a1.80707,1.80707,0,0,1,.30794-.04106h.08212q.30795,0,.308.16424a1.008,1.008,0,0,1-.06159.24635,3.86185,3.86185,0,0,1-.36954.78013,7.29671,7.29671,0,0,1-.698.9649,3.796,3.796,0,0,1-1.047.86225,2.51385,2.51385,0,0,1-1.25232.349,2.37436,2.37436,0,0,1-1.17019-.30794,1.77865,1.77865,0,0,1-.80066-1.06755,2.58061,2.58061,0,0,1-.04106-.5543V29.2492L589.299,26.375q.71855-2.8947.73907-2.91522a5.04427,5.04427,0,0,0-1.047-.04106Z"/>
        <path id="MJMAIN-2B-3" data-name="MJMAIN-2B" class="cls-8" d="M595.97117,26.45716v-.26689a.4472.4472,0,0,1,.28742-.41059H602.397V22.70022l.02053-3.07946q.20531-.2669.39007-.26689a.4489.4489,0,0,1,.41059.30794v6.11787H609.336a.42771.42771,0,0,1,0,.82119h-6.11787v6.11786q-.16423.28741-.36953.28742h-.08212a.398.398,0,0,1-.36954-.28742V26.60087h-6.13839a.44721.44721,0,0,1-.28742-.4106Z"/>
        <path id="MJMAIN-31-3" data-name="MJMAIN-31" class="cls-8" d="M615.187,19.45652l-.26689.10265a5.88432,5.88432,0,0,1-.82118.20529,9.46143,9.46143,0,0,1-1.19073.14371h-.39007V18.9638h.39007a6.6763,6.6763,0,0,0,1.78609-.30794,4.84837,4.84837,0,0,0,1.14966-.49272,5.26266,5.26266,0,0,0,.57484-.45165q.04106-.06159.24635-.06159a.57179.57179,0,0,1,.349.12318v6.13839l.02053,6.15892a.81283.81283,0,0,0,.24635.18477,2.43481,2.43481,0,0,0,.49272.08212q.39006.04106,1.27284.04106h.53378v.94437h-.22583q-.43113-.06159-3.26423-.06159-2.792,0-3.22317.06159h-.24636v-.94437h1.31391a4.92955,4.92955,0,0,0,.51324-.02053,2.01106,2.01106,0,0,0,.32848-.06159,1.231,1.231,0,0,1,.16423-.04106q.02053,0,.12318-.10265t.12318-.08212Z"/>
      </g>
    </g>
    <path id="MJMAIN-2C-2" data-name="MJMAIN-2C" class="cls-8" d="M626.29192,25.95071v-.726a1.81583,1.81583,0,0,1,.4646-1.24862,1.58713,1.58713,0,0,1,1.24863-.52268,1.89816,1.89816,0,0,1,1.45189.72594,4.0088,4.0088,0,0,1,.66787,2.55533,7.47053,7.47053,0,0,1-.26134,1.97457,9.02775,9.02775,0,0,1-.6098,1.65516,6.29753,6.29753,0,0,1-.755,1.19055q-.40653.49365-.69691.784t-.37749.26134q-.11615,0-.37749-.26134t-.26134-.37749q0-.11614.31942-.46461t.72594-.87113a5.57275,5.57275,0,0,0,.755-1.45189,8.34084,8.34084,0,0,0,.46461-2.11976v-.34846l-.029.029a1.12653,1.12653,0,0,1-.14519.05808.7328.7328,0,0,0-.17422.08711.47519.47519,0,0,1-.26135.05808,2.117,2.117,0,0,0-.34845.029,1.72876,1.72876,0,0,1-1.27766-.49364Z"/>
    <path id="MJMATHI-61-3" data-name="MJMATHI-61" class="cls-8" d="M637.907,22.4081a8.581,8.581,0,0,1,2.20688-5.57527,6.49809,6.49809,0,0,1,4.96547-2.67148,3.292,3.292,0,0,1,2.6134,1.42286,1.453,1.453,0,0,1,1.33574-.87114,1.039,1.039,0,0,1,.66787.23231.715.715,0,0,1,.29038.58075q0,.37749-1.0744,4.64605t-1.10344,4.82028a1.55347,1.55347,0,0,0,.20327.95825.853.853,0,0,0,.60979.26134,1.26171,1.26171,0,0,0,.58076-.26134,6.58438,6.58438,0,0,0,1.19055-2.78763q.17422-.58076.29038-.60979a.84927.84927,0,0,1,.29038-.029h.11615q.55171,0,.55172.26134a4.61236,4.61236,0,0,1-.14519.784,9.11022,9.11022,0,0,1-.58076,1.568,4.94712,4.94712,0,0,1-.92921,1.45189,2.87132,2.87132,0,0,1-.92921.6098,3.09624,3.09624,0,0,1-.69691.05807,2.9681,2.9681,0,0,1-1.65515-.43556,2.22928,2.22928,0,0,1-.87114-.90018l-.17423-.43556q-.029-.029-.11615.029l-.11615.11615a5.091,5.091,0,0,1-3.48454,1.62612,3.963,3.963,0,0,1-2.81667-1.16151A4.89307,4.89307,0,0,1,637.907,22.4081Zm9.234-4.96547a2.62829,2.62829,0,0,0-.14519-.63883,2.76062,2.76062,0,0,0-.66787-1.01633,1.85611,1.85611,0,0,0-1.33574-.58075,2.78653,2.78653,0,0,0-1.94553.90017,6.07582,6.07582,0,0,0-1.45189,2.35206,23.182,23.182,0,0,0-1.19055,4.76221v.31941a1.54784,1.54784,0,0,1-.029.34846,2.43871,2.43871,0,0,0,.52268,1.80034,1.87009,1.87009,0,0,0,1.24863.52268,3.27894,3.27894,0,0,0,2.17783-.95825,4.88266,4.88266,0,0,0,1.27767-1.48093q.05808-.11614.784-3.107T647.14107,17.44263Z"/>
    <path id="MJMAIN-29-3" data-name="MJMAIN-29" class="cls-8" d="M654.08111,5.21771l.11615-.029h.63884l.813.69691a14.32987,14.32987,0,0,1,3.97819,6.156,23.74161,23.74161,0,0,1,1.24862,7.666,24.24071,24.24071,0,0,1-.29038,3.804,24.964,24.964,0,0,1-.66787,3.10705,13.07819,13.07819,0,0,1-1.0744,2.55533q-.6969,1.27766-1.10343,1.94553a8.83314,8.83314,0,0,1-1.19055,1.48093q-.784.81306-.92921.95825t-.66787.55172l-.11615.11615h-.66787a.17063.17063,0,0,1-.14519-.08711.68358.68358,0,0,1-.08712-.26134q.029-.029.31942-.3775,4.50085-4.67508,4.50086-13.793t-4.50086-13.793q-.29039-.34845-.31942-.37749A.34128.34128,0,0,1,654.08111,5.21771Z"/>
  </g>
</svg>
