<svg id="Layer_1" data-name="Layer 1" xmlns="http://www.w3.org/2000/svg" viewBox="0 0 564.932 119.00668">
  <defs>
    <style>
      .cls-1 {
        fill: #e7ebe8;
      }

      .cls-2, .cls-4 {
        fill: #70a8da;
      }

      .cls-2 {
        opacity: 0.5;
      }

      .cls-3 {
        fill: #ef4136;
      }

      .cls-4 {
        opacity: 0.41;
      }

      .cls-5 {
        fill: #267ec1;
      }

      .cls-6 {
        fill: #fff;
      }

      .cls-7 {
        fill: #231f20;
      }

      .cls-8 {
        fill: #010101;
      }
    </style>
  </defs>
  <title>q-learning</title>
  <rect class="cls-1" x="201.55994" y="44.47404" width="74.08071" height="74.08071"/>
  <polygon class="cls-2" points="211.31 81.513 218.981 96.914 218.981 66.112 211.31 81.513"/>
  <polygon class="cls-3" points="238.526 108.996 253.927 101.326 223.125 101.326 238.526 108.996"/>
  <polygon class="cls-4" points="265.89 81.53 258.22 66.129 258.22 96.931 265.89 81.53"/>
  <polygon class="cls-5" points="238.526 54.191 223.125 61.862 253.927 61.862 238.526 54.191"/>
  <rect class="cls-1" x="0.4827" y="44.59862" width="73.94519" height="73.94519"/>
  <circle class="cls-5" cx="38.23749" cy="82.52271" r="23.42114"/>
  <rect class="cls-1" x="409.91308" y="44.62596" width="74.08071" height="74.08071"/>
  <polygon class="cls-6" points="419.663 81.665 427.334 97.066 427.334 66.264 419.663 81.665"/>
  <polygon class="cls-6" points="446.879 109.148 462.28 101.478 431.478 101.478 446.879 109.148"/>
  <polygon class="cls-6" points="474.244 81.682 466.573 66.281 466.573 97.083 474.244 81.682"/>
  <polygon class="cls-7" points="446.879 54.343 431.478 62.014 462.28 62.014 446.879 54.343"/>
  <path id="MJMAIN-22C5" class="cls-8" d="M379.60462,21.30014a2.24946,2.24946,0,0,1,.64547-1.59468,2.1494,2.1494,0,0,1,1.63265-.68344,2.32527,2.32527,0,0,1,1.59468.6075,2.19094,2.19094,0,0,1,.72141,1.63265,2.29517,2.29517,0,0,1-.64547,1.63265,2.14942,2.14942,0,0,1-1.63265.68343,2.21273,2.21273,0,0,1-1.63265-.64546A2.34788,2.34788,0,0,1,379.60462,21.30014Z"/>
  <g>
    <path id="MJMATHI-3C0" class="cls-8" d="M413.27873,27.32189a.85431.85431,0,0,1-.9807-.95186v-.31728l.375-.80764a55.89256,55.89256,0,0,0,3.144-7.87445l.23075-.69226h-.923a9.61647,9.61647,0,0,0-1.55759.08653,3.12064,3.12064,0,0,0-1.12492.548,3.76768,3.76768,0,0,0-.63457.51919,7.43587,7.43587,0,0,0-.548.60573A3.55229,3.55229,0,0,0,411,18.784a1.64467,1.64467,0,0,1-.43266.02884q-.548,0-.548-.28844a3.48252,3.48252,0,0,1,.548-1.00954,9.80829,9.80829,0,0,1,1.58643-1.78834,3.92148,3.92148,0,0,1,2.04793-1.09608q.20191-.05769,6.48994-.05769,4.61506,0,4.73044.02885a.78749.78749,0,0,1,.57689.80763,1.20469,1.20469,0,0,1-.923,1.21146,15.64271,15.64271,0,0,1-1.99024.05769h-1.846l-.08653.49035a21.64916,21.64916,0,0,0-.34613,3.43245,12.56836,12.56836,0,0,0,.25959,2.68251,10.4221,10.4221,0,0,0,.548,1.846,3.36319,3.36319,0,0,1,.28844.80764,1.33673,1.33673,0,0,1-.40381.923,1.35673,1.35673,0,0,1-1.03839.43267,1.32922,1.32922,0,0,1-.5192-.08654q-.2019-.08652-.4615-.69226a8.33132,8.33132,0,0,1-.46151-1.73065q-.02884-.25959-.02885-1.26914a19.14286,19.14286,0,0,1,.2596-3.02863q.25961-1.61528.5192-2.65367l.28844-1.15376h-2.82673l-.02884.11537q0,.08654-.548,2.27869t-1.2403,4.64391a21.49473,21.49473,0,0,1-.89417,2.79788A1.21281,1.21281,0,0,1,413.27873,27.32189Z"/>
    <path id="MJMAIN-2217" class="cls-8" d="M430.70023,9.28324q-.26511-2.73262-.26511-3.05892,0-.36706.48943-.571h.102a.28412.28412,0,0,0,.12236-.02039.81434.81434,0,0,1,.44864.18353.50222.50222,0,0,1,.20393.40786q0,.34668-.12236,1.63143t-.14275,1.42749l1.18279-.85649q1.142-.83611,1.244-.89729a.39353.39353,0,0,1,.20393-.06118.71384.71384,0,0,1,.48943.20393.77248.77248,0,0,1,.24471.55061.64475.64475,0,0,1-.20393.469q-.102.06119-1.38671.673t-1.38671.65257l1.34592.63217,1.4275.71375a.63517.63517,0,0,1,.18354.469.7337.7337,0,0,1-.18354.50982.692.692,0,0,1-.48943.22432.73143.73143,0,0,1-.36707-.12236q-.20392-.12235-1.1216-.81571l-1.18279-.8565q.26511,2.73264.26511,3.05892a.62149.62149,0,0,1-.14275.38747.85766.85766,0,0,1-1.06043,0,.74663.74663,0,0,1-.16314-.38747q0-.34668.12236-1.63142t.14275-1.4275l-1.18278.8565q-1.142.8361-1.244.89728a.33029.33029,0,0,1-.20393.06118.71382.71382,0,0,1-.48942-.20393.77243.77243,0,0,1-.24472-.5506V11.6692a.17627.17627,0,0,1,.06118-.12235.81.81,0,0,0,.102-.12236.56417.56417,0,0,1,.18353-.14275q.14275-.08157.26511-.14275t.38746-.18353q.26511-.12237.50982-.22433t.65257-.30589l.81572-.40785-2.77343-1.32554a.63514.63514,0,0,1-.18353-.469.73366.73366,0,0,1,.18353-.50982.69189.69189,0,0,1,.48943-.22432.73138.73138,0,0,1,.36707.12235q.20392.12235,1.12161.81572Z"/>
    <path id="MJMAIN-28" class="cls-8" d="M441.83445,19.79357a23.72515,23.72515,0,0,1,.28844-3.77859,26.4331,26.4331,0,0,1,.66342-3.08632,12.07781,12.07781,0,0,1,1.06723-2.53829q.69226-1.24031,1.09608-1.93256a7.66124,7.66124,0,0,1,1.21145-1.4999q.80764-.80763.95186-.9807a5.19887,5.19887,0,0,1,.7211-.60572h.49035q.40383,0,.40382.25959a2.33063,2.33063,0,0,1-.49035.60573,13.09574,13.09574,0,0,0-1.18261,1.52874,19.95471,19.95471,0,0,0-1.41336,2.4806,16.40938,16.40938,0,0,0-1.21146,3.98049,29.11234,29.11234,0,0,0-.49035,5.56693,28.65943,28.65943,0,0,0,.49035,5.53807A18.73316,18.73316,0,0,0,445.613,29.341a13.06322,13.06322,0,0,0,1.41337,2.4806q.72109.95185,1.21145,1.52874a6.51547,6.51547,0,0,1,.49035.60573q0,.25959-.43266.25959H447.834l-.80763-.69226a14.23425,14.23425,0,0,1-3.95165-6.115A23.58287,23.58287,0,0,1,441.83445,19.79357Z"/>
    <g>
      <path id="MJMATHI-73" class="cls-8" d="M454.12206,18.66864a4.27454,4.27454,0,0,1,.46151-1.87487,4.74529,4.74529,0,0,1,1.61527-1.75949,4.60867,4.60867,0,0,1,2.79788-.77879,3.64421,3.64421,0,0,1,2.596.77879,2.47128,2.47128,0,0,1,.83648,1.73065,1.71777,1.71777,0,0,1-.49035,1.35567,1.74748,1.74748,0,0,1-1.09608.46151,1.15213,1.15213,0,0,1-.69226-.23075.93319.93319,0,0,1-.34613-.74995,1.30889,1.30889,0,0,1,.2596-.80764,2.59079,2.59079,0,0,1,.49035-.51919.698.698,0,0,1,.375-.17307.0255.0255,0,0,0,.02885-.02884q0-.08653-.20191-.2596a1.97011,1.97011,0,0,0-.72111-.31728,5.10348,5.10348,0,0,0-1.12492-.17307,2.43973,2.43973,0,0,0-2.68251,2.27869,1.04273,1.04273,0,0,0,.548,1.00954,5.982,5.982,0,0,0,1.58643.49036,6.3204,6.3204,0,0,1,1.4999.43266,2.85065,2.85065,0,0,1,1.90371,2.769,4.38935,4.38935,0,0,1-.31728,1.61527,6.45219,6.45219,0,0,1-.95186,1.61527,4.17275,4.17275,0,0,1-1.81718,1.26915,7.83228,7.83228,0,0,1-2.71135.49035,4.66567,4.66567,0,0,1-3.144-.83648,2.66863,2.66863,0,0,1-.95185-1.96141,1.96165,1.96165,0,0,1,.60572-1.61527,1.99168,1.99168,0,0,1,1.26915-.49035,1.39168,1.39168,0,0,1,.80763.2596,1.0738,1.0738,0,0,1,.40382.89417,1.72637,1.72637,0,0,1-.51919,1.26914,1.42053,1.42053,0,0,1-.89417.51919.22143.22143,0,0,1-.08654.02885q-.02884,0-.02884.05769a.62353.62353,0,0,0,.23075.23075,4.02693,4.02693,0,0,0,.89417.375,5.67322,5.67322,0,0,0,3.37477-.11537,2.47809,2.47809,0,0,0,1.09608-.80764,3.82941,3.82941,0,0,0,.49035-.89417,2.17552,2.17552,0,0,0,.14422-.7211,1.35887,1.35887,0,0,0-.60573-1.21146,3.0662,3.0662,0,0,0-1.38452-.49035,7.13884,7.13884,0,0,1-1.7018-.43266,2.66926,2.66926,0,0,1-1.35568-1.00955A2.90335,2.90335,0,0,1,454.12206,18.66864Z"/>
      <g>
        <path id="MJMATHI-74" class="cls-8" d="M464.4016,23.48q-.14276-.14274-.14275-.20393a1.71422,1.71422,0,0,1,.06118-.32628.838.838,0,0,1,.102-.2855.17516.17516,0,0,1,.18354-.102q.14274,0,1.04-.0204h1.08082l.38746-1.63142q.06119-.22432.14275-.59139a4.37552,4.37552,0,0,1,.14275-.53022,3.83806,3.83806,0,0,0,.12236-.40785.74818.74818,0,0,1,.16314-.34668,1.941,1.941,0,0,0,.20393-.24472.45956.45956,0,0,1,.2855-.18353,1.68753,1.68753,0,0,1,.36707-.04079.62525.62525,0,0,1,.50982.22432.68328.68328,0,0,1,.14275.38747,7.752,7.752,0,0,1-.18353.95846q-.18354.81571-.40786,1.611l-.20393.75454a4.81849,4.81849,0,0,0,1.01964.04078h1.04q.14274.14275.14275.22432a.96447.96447,0,0,1-.26511.71375h-2.182l-.73414,2.957q-.79533,3.26286-.79532,3.50757,0,.8565.5506.8565a1.949,1.949,0,0,0,1.38671-.69336,5.19389,5.19389,0,0,0,1.08082-1.713q.04078-.12235.102-.14275a1.79622,1.79622,0,0,1,.30589-.04078h.08157q.3059,0,.30589.16314a1.00117,1.00117,0,0,1-.06117.24471,3.83663,3.83663,0,0,1-.36708.77493,7.24753,7.24753,0,0,1-.69335.95846,3.77073,3.77073,0,0,1-1.04.8565,2.497,2.497,0,0,1-1.244.34668,2.35857,2.35857,0,0,1-1.16239-.30589,1.76683,1.76683,0,0,1-.79532-1.06043,2.564,2.564,0,0,1-.04078-.55061v-.36707l.71375-2.855q.71375-2.8754.73414-2.89578a5.01107,5.01107,0,0,0-1.04-.04079Z"/>
        <path id="MJMAIN-2B" class="cls-8" d="M472.37519,26.49813V26.233a.44421.44421,0,0,1,.2855-.40785h6.09745V22.76624l.0204-3.05892q.20392-.26511.38746-.26511a.44592.44592,0,0,1,.40786.3059v6.07706h6.07706a.42485.42485,0,0,1,0,.81571h-6.07706v6.07706q-.16314.2855-.36707.2855h-.08157a.39533.39533,0,0,1-.36708-.2855V26.64088h-6.09745a.44423.44423,0,0,1-.2855-.40786Z"/>
        <path id="MJMAIN-31" class="cls-8" d="M491.46287,19.54418l-.2651.102a5.84358,5.84358,0,0,1-.81572.20393,9.39914,9.39914,0,0,1-1.18278.14275h-.38746v-.93807h.38746a6.63156,6.63156,0,0,0,1.77417-.30589,4.81582,4.81582,0,0,0,1.142-.48943,5.227,5.227,0,0,0,.571-.44864q.04079-.06119.24471-.06118a.568.568,0,0,1,.34668.12236v6.09745l.0204,6.11785a.8075.8075,0,0,0,.24471.18353,2.41845,2.41845,0,0,0,.48943.08157q.38747.04078,1.26435.04079h.53022v.93807h-.22433q-.42825-.06119-3.24245-.06118-2.77343,0-3.20168.06118h-.24471v-.93807h1.30514a4.89935,4.89935,0,0,0,.50982-.02039,1.99747,1.99747,0,0,0,.32629-.06118,1.22214,1.22214,0,0,1,.16314-.04079q.02038,0,.12235-.102t.12236-.08157Z"/>
      </g>
    </g>
    <path id="MJMAIN-2C" class="cls-8" d="M502.49371,25.99506V25.274a1.80376,1.80376,0,0,1,.46151-1.2403,1.57655,1.57655,0,0,1,1.2403-.5192,1.8855,1.8855,0,0,1,1.44221.72111,3.98209,3.98209,0,0,1,.66341,2.53828,7.421,7.421,0,0,1-.25959,1.9614,8.96813,8.96813,0,0,1-.60573,1.64412,6.25568,6.25568,0,0,1-.74995,1.18261q-.40382.49035-.69226.77879t-.375.2596q-.11538,0-.375-.2596t-.2596-.375q0-.11538.31729-.46151t.7211-.86532a5.5354,5.5354,0,0,0,.75-1.44221,8.28514,8.28514,0,0,0,.46151-2.10562V26.745l-.02885.02884a1.11848,1.11848,0,0,1-.14422.05769.72815.72815,0,0,0-.17306.08653.472.472,0,0,1-.2596.05769,2.103,2.103,0,0,0-.34613.02884,1.71727,1.71727,0,0,1-1.26914-.49035Z"/>
    <path id="MJMATHI-61" class="cls-8" d="M514.03138,22.47607a8.52384,8.52384,0,0,1,2.19215-5.53808,6.45475,6.45475,0,0,1,4.93235-2.65366,3.27,3.27,0,0,1,2.596,1.41336,1.44327,1.44327,0,0,1,1.32683-.86532,1.0321,1.0321,0,0,1,.66342.23075.71033.71033,0,0,1,.28844.57689q0,.375-1.06724,4.61506t-1.09607,4.78813a1.54319,1.54319,0,0,0,.2019.95186.84735.84735,0,0,0,.60573.2596,1.2533,1.2533,0,0,0,.57688-.2596,6.54046,6.54046,0,0,0,1.18262-2.769q.17306-.57688.28844-.60573a.84368.84368,0,0,1,.28844-.02884h.11538q.548,0,.548.2596a4.581,4.581,0,0,1-.14422.77879,9.04837,9.04837,0,0,1-.57688,1.55758,4.914,4.914,0,0,1-.923,1.44221,2.85232,2.85232,0,0,1-.923.60573,3.07492,3.07492,0,0,1-.69226.05769,2.94817,2.94817,0,0,1-1.64411-.43267,2.21442,2.21442,0,0,1-.86533-.89416l-.17306-.43267q-.02884-.02885-.11538.02885l-.11538.11537a5.05706,5.05706,0,0,1-3.46129,1.61528,3.93653,3.93653,0,0,1-2.79789-1.15377A4.86048,4.86048,0,0,1,514.03138,22.47607Zm9.17244-4.93235a2.611,2.611,0,0,0-.14422-.63457,2.74243,2.74243,0,0,0-.66342-1.00955,1.84375,1.84375,0,0,0-1.32683-.57688,2.768,2.768,0,0,0-1.93256.89417,6.03532,6.03532,0,0,0-1.4422,2.33638,23.02757,23.02757,0,0,0-1.18262,4.73044V23.601a1.53749,1.53749,0,0,1-.02884.34613,2.42242,2.42242,0,0,0,.5192,1.78834,1.85765,1.85765,0,0,0,1.24029.5192,3.2571,3.2571,0,0,0,2.16332-.95186,4.8502,4.8502,0,0,0,1.26914-1.47105q.05769-.11538.77879-3.08633T523.20382,17.54372Z"/>
    <path id="MJMAIN-29" class="cls-8" d="M530.09757,5.40033l.11538-.02884h.63457l.80764.69226a14.23434,14.23434,0,0,1,3.95165,6.115,23.58316,23.58316,0,0,1,1.2403,7.61486,24.08006,24.08006,0,0,1-.28844,3.77858,24.8018,24.8018,0,0,1-.66342,3.08633,12.99148,12.99148,0,0,1-1.06723,2.53828q-.69227,1.26915-1.09608,1.93256a8.77413,8.77413,0,0,1-1.18261,1.471q-.7788.80765-.923.95186t-.66341.548l-.11538.11537h-.66341a.16948.16948,0,0,1-.14422-.08653.679.679,0,0,1-.08654-.2596q.02885-.02883.31729-.375,4.47084-4.64391,4.47084-13.701t-4.47084-13.701q-.28845-.34613-.31729-.375A.339.339,0,0,1,530.09757,5.40033Z"/>
  </g>
  <g>
    <path id="MJMATHI-56" class="cls-8" d="M.9799,8.4477A1.34688,1.34688,0,0,1,1.35011,7.451h.31326q1.19607.08544,2.99019.08544,3.36041,0,3.95844-.08544h.28478q.17087.17086.17087.2563t-.057.51261a1.56853,1.56853,0,0,1-.2563.54108h-.598q-.6265.057-.85434.057-.82586.14238-.91129.42717,0,.057.82586,7.148t.85434,7.148l2.07889-3.33192q2.0789-3.33194,4.15779-6.72081t2.13585-3.5028a.847.847,0,0,0,.11391-.42717q0-.68346-1.253-.79738-.5126,0-.5126-.31326,0-.02847.057-.37021a1.53273,1.53273,0,0,1,.17087-.51261.45212.45212,0,0,1,.37022-.11391h.34173q.28479,0,.96825.02848t1.8226.02848q1.965,0,2.47758-.057h.19935q.19935.19935.19934.31326a1.7419,1.7419,0,0,1-.2563.9113.8149.8149,0,0,1-.48412.08543q-.37022.02848-.68348.057a2.11708,2.11708,0,0,0-.598.14239q-.28479.11391-.45565.19934a1.78317,1.78317,0,0,0-.34174.22783,1.593,1.593,0,0,1-.28478.19934.619.619,0,0,0-.22782.2563q-.11391.19935-.19935.19935L12.3711,18.87065q-5.126,8.28709-5.29691,8.48645-.08544.057-.19935.14239l-.5126.02847H6.16289q-.5126,0-.5126-.19934-.08544-.17086-1.11064-9.113Q3.45748,9.15965,3.429,9.07422,3.28662,8.761,1.66337,8.761H1.17924A.39453.39453,0,0,1,.9799,8.4477Z"/>
    <g>
      <path id="MJMATHI-3C0-2" data-name="MJMATHI-3C0" class="cls-8" d="M25.65107,15.39a.59633.59633,0,0,1-.68455-.66442v-.22147l.26174-.56375a39.01454,39.01454,0,0,0,2.1946-5.49657l.16107-.48321h-.64428a6.71256,6.71256,0,0,0-1.08724.0604,2.17828,2.17828,0,0,0-.78522.38254,2.63057,2.63057,0,0,0-.44295.36241,5.18718,5.18718,0,0,0-.38254.42282,2.48082,2.48082,0,0,0-.18121.2416,1.14743,1.14743,0,0,1-.302.02014q-.38254,0-.38254-.20134a2.43076,2.43076,0,0,1,.38254-.70469,6.84644,6.84644,0,0,1,1.10737-1.2483A2.73725,2.73725,0,0,1,26.29536,6.531q.14094-.04027,4.53014-.04027,3.22143,0,3.302.02013a.5497.5497,0,0,1,.40268.56375.84091.84091,0,0,1-.64429.84563,10.92043,10.92043,0,0,1-1.38924.04027H31.208l-.0604.34227a15.1125,15.1125,0,0,0-.24161,2.39594,8.773,8.773,0,0,0,.18121,1.87246,7.27379,7.27379,0,0,0,.38255,1.28857,2.34792,2.34792,0,0,1,.20133.56375.93305.93305,0,0,1-.28187.64429.947.947,0,0,1-.72482.302.92777.92777,0,0,1-.36241-.0604q-.14094-.0604-.32215-.48322a5.81634,5.81634,0,0,1-.32214-1.208q-.02013-.18121-.02013-.8859a13.36223,13.36223,0,0,1,.1812-2.11406Q30,9.49073,30.18121,8.76591l.20134-.80535H28.40943l-.02014.08053q0,.0604-.38254,1.59058T27.141,12.87324a15.00442,15.00442,0,0,1-.62416,1.953A.84656.84656,0,0,1,25.65107,15.39Z"/>
      <path id="MJMAIN-2217-2" data-name="MJMAIN-2217" class="cls-8" d="M37.81619,3.79155q-.1851-1.908-.1851-2.13585,0-.2563.34173-.39869h.0712a.19831.19831,0,0,0,.08543-.01424.56864.56864,0,0,1,.31326.12815.35064.35064,0,0,1,.14239.28478q0,.24206-.08543,1.13912T38.4,3.79155l.82586-.598q.79738-.5838.86858-.62652a.27483.27483,0,0,1,.14239-.04271.4984.4984,0,0,1,.34174.14239.5393.5393,0,0,1,.17087.38445.45022.45022,0,0,1-.14239.3275q-.0712.04272-.96825.46988t-.96826.45565l.93978.44141.99673.49837a.4435.4435,0,0,1,.12815.32749.51232.51232,0,0,1-.12815.356.48317.48317,0,0,1-.34174.15663.51066.51066,0,0,1-.2563-.08544q-.14239-.08543-.78315-.56956L38.4,4.831q.18511,1.908.18511,2.13585a.434.434,0,0,1-.09967.27054.59884.59884,0,0,1-.74043,0,.52126.52126,0,0,1-.11391-.27054q0-.24207.08543-1.13912t.09967-.99673l-.82586.598q-.79739.5838-.86858.62652a.23063.23063,0,0,1-.14239.04272.49844.49844,0,0,1-.34173-.14239.53934.53934,0,0,1-.17087-.38446V5.45751a.12306.12306,0,0,1,.04272-.08543.56648.56648,0,0,0,.07119-.08544.39417.39417,0,0,1,.12815-.09967q.09967-.057.18511-.09967t.27054-.12815q.1851-.08544.356-.15663t.45565-.21359l.56956-.28478-1.9365-.92553a.44349.44349,0,0,1-.12815-.3275.51227.51227,0,0,1,.12815-.356.48312.48312,0,0,1,.34173-.15662.51064.51064,0,0,1,.25631.08543q.14238.08544.78314.56956Z"/>
    </g>
    <path id="MJMAIN-28-2" data-name="MJMAIN-28" class="cls-8" d="M49.22163,19.78195a23.42383,23.42383,0,0,1,.28478-3.73062,26.10133,26.10133,0,0,1,.655-3.04715,11.92524,11.92524,0,0,1,1.05368-2.50606q.68348-1.22456,1.08217-1.908a7.56357,7.56357,0,0,1,1.19607-1.48085q.79739-.79738.93978-.96826a5.132,5.132,0,0,1,.712-.598h.48412q.3987,0,.3987.2563a2.30134,2.30134,0,0,1-.48413.598,12.92839,12.92839,0,0,0-1.1676,1.50933,19.70221,19.70221,0,0,0-1.39542,2.44911,16.20143,16.20143,0,0,0-1.19608,3.93,28.74282,28.74282,0,0,0-.48412,5.49626,28.29574,28.29574,0,0,0,.48412,5.46777,18.49516,18.49516,0,0,0,1.1676,3.95845,12.89754,12.89754,0,0,0,1.39542,2.4491q.712.93978,1.19608,1.50934a6.43158,6.43158,0,0,1,.48413.598q0,.25629-.42717.2563h-.45565l-.79739-.68347a14.0537,14.0537,0,0,1-3.90148-6.03734A23.28363,23.28363,0,0,1,49.22163,19.78195Z"/>
    <g>
      <path id="MJMATHI-73-2" data-name="MJMATHI-73" class="cls-8" d="M61.38174,18.6713a4.22021,4.22021,0,0,1,.45565-1.85107,4.68505,4.68505,0,0,1,1.59477-1.73715,4.5501,4.5501,0,0,1,2.76236-.76891,3.59793,3.59793,0,0,1,2.563.76891,2.43991,2.43991,0,0,1,.82587,1.70868,1.696,1.696,0,0,1-.48413,1.33846,1.7253,1.7253,0,0,1-1.08216.45565,1.13751,1.13751,0,0,1-.68348-.22782.92135.92135,0,0,1-.34173-.74043,1.29228,1.29228,0,0,1,.2563-.79739,2.55817,2.55817,0,0,1,.48413-.5126.68917.68917,0,0,1,.37021-.17087.02517.02517,0,0,0,.02848-.02848q0-.08543-.19935-.2563a1.94527,1.94527,0,0,0-.712-.31326,5.0389,5.0389,0,0,0-1.11064-.17086,2.40875,2.40875,0,0,0-2.64846,2.24976,1.02951,1.02951,0,0,0,.54109.99673,5.90587,5.90587,0,0,0,1.56629.48412,6.24076,6.24076,0,0,1,1.48085.42717,2.81448,2.81448,0,0,1,1.87955,2.73389,4.33356,4.33356,0,0,1-.31326,1.59477,6.37012,6.37012,0,0,1-.93977,1.59477,4.11967,4.11967,0,0,1-1.79412,1.253,7.73272,7.73272,0,0,1-2.67693.48413,4.60643,4.60643,0,0,1-3.1041-.82586,2.63473,2.63473,0,0,1-.93977-1.93651,1.93676,1.93676,0,0,1,.598-1.59477,1.9664,1.9664,0,0,1,1.253-.48412,1.374,1.374,0,0,1,.79738.2563,1.06018,1.06018,0,0,1,.39869.88282,1.70448,1.70448,0,0,1-.5126,1.253,1.40249,1.40249,0,0,1-.88282.5126.21851.21851,0,0,1-.08543.02848q-.02849,0-.02848.057a.61556.61556,0,0,0,.22782.22782,3.97608,3.97608,0,0,0,.88282.37022,5.60121,5.60121,0,0,0,3.33193-.11392A2.44646,2.44646,0,0,0,66.223,25.0219a3.78037,3.78037,0,0,0,.48413-.88282,2.14813,2.14813,0,0,0,.14239-.712,1.34164,1.34164,0,0,0-.598-1.19608,3.02721,3.02721,0,0,0-1.367-.48412,7.04841,7.04841,0,0,1-1.6802-.42717,2.63547,2.63547,0,0,1-1.33846-.99673A2.86651,2.86651,0,0,1,61.38174,18.6713Z"/>
      <g>
        <path id="MJMATHI-74-2" data-name="MJMATHI-74" class="cls-8" d="M71.53079,23.42158q-.14094-.14094-.14094-.20134a1.69275,1.69275,0,0,1,.0604-.32215.82758.82758,0,0,1,.10067-.28187.173.173,0,0,1,.18121-.10067q.14094,0,1.02683-.02013h1.0671l.38254-1.61072q.0604-.22147.14094-.58388a4.31873,4.31873,0,0,1,.14094-.52349,3.789,3.789,0,0,0,.1208-.40268.73865.73865,0,0,1,.16107-.34227,1.91663,1.91663,0,0,0,.20134-.24161.45374.45374,0,0,1,.28188-.18121,1.66639,1.66639,0,0,1,.36241-.04026.6173.6173,0,0,1,.50335.22147.6746.6746,0,0,1,.14094.38254,7.65371,7.65371,0,0,1-.18121.9463q-.1812.80536-.40268,1.59058l-.20134.745a4.75736,4.75736,0,0,0,1.0067.04027h1.02683q.14094.14092.14094.22147a.95228.95228,0,0,1-.26174.70469H75.23543L74.51061,26.341q-.78522,3.22143-.78522,3.463,0,.84562.54362.84562a1.92419,1.92419,0,0,0,1.3691-.68455,5.128,5.128,0,0,0,1.0671-1.69125q.04028-.12081.10067-.14094a1.77437,1.77437,0,0,1,.302-.04027h.08054q.302,0,.302.16108a.98855.98855,0,0,1-.06041.2416,3.7876,3.7876,0,0,1-.36241.76509,7.15693,7.15693,0,0,1-.68455.9463,3.72289,3.72289,0,0,1-1.02683.84562,2.4653,2.4653,0,0,1-1.22817.34228,2.32865,2.32865,0,0,1-1.14764-.302,1.74439,1.74439,0,0,1-.78522-1.047,2.531,2.531,0,0,1-.04027-.54362v-.36241l.70469-2.81875q.70468-2.8389.72482-2.859a4.94707,4.94707,0,0,0-1.02683-.04027Z"/>
        <path id="MJMAIN-2B-2" data-name="MJMAIN-2B" class="cls-8" d="M79.40316,26.4014v-.26174A.43858.43858,0,0,1,79.685,25.737h6.02V22.71689l.02013-3.02009q.20135-.26175.38255-.26174a.44026.44026,0,0,1,.40268.302V25.737h5.99991a.41946.41946,0,0,1,0,.80536H86.51045v5.99992q-.16109.28187-.36242.28187H86.0675a.3903.3903,0,0,1-.36241-.28187V26.54234h-6.02a.43858.43858,0,0,1-.28188-.40268Z"/>
        <path id="MJMAIN-31-2" data-name="MJMAIN-31" class="cls-8" d="M98.24854,19.53573l-.26174.10067a5.77094,5.77094,0,0,1-.80536.20133,9.27877,9.27877,0,0,1-1.16777.14094h-.38255v-.92616h.38255a6.54707,6.54707,0,0,0,1.75165-.302,4.75446,4.75446,0,0,0,1.1275-.48321,5.16055,5.16055,0,0,0,.56375-.44295q.04027-.0604.24161-.0604a.56079.56079,0,0,1,.34228.1208v6.02l.02013,6.04019a.79723.79723,0,0,0,.24161.1812,2.38756,2.38756,0,0,0,.48321.08054q.38255.04026,1.24831.04027h.52348v.92616h-.22147q-.42282-.0604-3.2013-.0604-2.73822,0-3.161.0604h-.24161V30.247h1.28858a4.83606,4.83606,0,0,0,.50335-.02014,1.97079,1.97079,0,0,0,.32214-.0604,1.20609,1.20609,0,0,1,.16107-.04027q.02013,0,.1208-.10067t.12081-.08053Z"/>
      </g>
    </g>
    <path id="MJMAIN-29-2" data-name="MJMAIN-29" class="cls-8" d="M108.59827,5.57142l.11391-.02847h.62652l.79738.68347a14.05368,14.05368,0,0,1,3.90149,6.03733,23.28368,23.28368,0,0,1,1.22455,7.5182,23.77421,23.77421,0,0,1-.28478,3.73061,24.48414,24.48414,0,0,1-.655,3.04715,12.82639,12.82639,0,0,1-1.05369,2.50607q-.68347,1.253-1.08216,1.908a8.66354,8.66354,0,0,1-1.1676,1.45238q-.76891.79738-.9113.93977t-.655.54109l-.11391.11391h-.655a.16735.16735,0,0,1-.14239-.08544.67029.67029,0,0,1-.08543-.2563q.02847-.02847.31326-.37021,4.41408-4.585,4.41409-13.527t-4.41409-13.527q-.28479-.34175-.31326-.37022A.33472.33472,0,0,1,108.59827,5.57142Z"/>
  </g>
  <g>
    <path id="MJMATHI-51" class="cls-8" d="M211.51912,29.35869q0-.97026.0294-1.4701a2.90391,2.90391,0,0,1,.05881-.55864v-.11761l-.441.11761a10.69555,10.69555,0,0,1-2.46978.32342,7.21534,7.21534,0,0,1-7.40931-6.55665q-.02942-.23523-.02941-1.26429a12.16352,12.16352,0,0,1,1.4113-5.704A16.46773,16.46773,0,0,1,206.462,9.33589a11.46815,11.46815,0,0,1,7.32111-3.02841q1.11727,0,1.4113.0294a6.99994,6.99994,0,0,1,4.58672,2.52858,8.28972,8.28972,0,0,1,1.76412,5.35117,13.37791,13.37791,0,0,1-4.3515,9.64388,14.1015,14.1015,0,0,1-3.85167,2.67559l-.49984.23521v.147q0,.0294.147.79386a2.31378,2.31378,0,0,0,.61745,1.23488,1.83059,1.83059,0,0,0,1.35249.47044,3.42544,3.42544,0,0,0,1.96994-.64685,2.9914,2.9914,0,0,0,1.23489-1.67592q.1764-.41161.38222-.41162a.3024.3024,0,0,1,.32342.26461,4.39734,4.39734,0,0,1-.294,1.05848q-.294.82326-.82325,1.94053a5.10423,5.10423,0,0,1-1.58771,1.91114,4.01251,4.01251,0,0,1-2.23456.85266q-2.411,0-2.411-3.146Zm6.96829-16.11232a8.2073,8.2073,0,0,0-.441-2.8226,3.865,3.865,0,0,0-1.20549-1.79353,6.62934,6.62934,0,0,0-1.4701-.88206,4.01326,4.01326,0,0,0-1.55831-.294,6.41439,6.41439,0,0,0-2.8814.735,10.58582,10.58582,0,0,0-4.82194,5.17476,16.557,16.557,0,0,0-1.82292,7.29171,6.07243,6.07243,0,0,0,1.58771,4.61613,2.7613,2.7613,0,0,0,.85266.61744V25.654a3.07525,3.07525,0,0,1,.97026-2.17575,3.19626,3.19626,0,0,1,2.29336-1.02907,2.378,2.378,0,0,1,1.26429.32342,2.03308,2.03308,0,0,1,.79386.88206,4.84091,4.84091,0,0,1,.35282.94087q.08821.38223.17642.79386l.38222-.26462a10.889,10.889,0,0,0,3.20483-3.55765,16.0521,16.0521,0,0,0,1.82292-4.38091A17.2097,17.2097,0,0,0,218.48741,13.24637ZM209.02,26.47729a5.836,5.836,0,0,0,2.64618-.61744l-.0294-.294q-.11762-1.61712-1.08788-1.94054a3.59967,3.59967,0,0,0-.55864-.0588h-.17641a.17028.17028,0,0,1-.11761-.0294,1.79075,1.79075,0,0,0-1.20548.588,1.92679,1.92679,0,0,0-.64685,1.35249Q207.84386,26.4773,209.02,26.47729Z"/>
    <g>
      <path id="MJMATHI-3C0-3" data-name="MJMATHI-3C0" class="cls-8" d="M225.78864,15.12154a.61568.61568,0,0,1-.70676-.686V14.2069l.27023-.582a40.28092,40.28092,0,0,0,2.26581-5.67492l.1663-.4989H227.119a6.92946,6.92946,0,0,0-1.12251.06237,2.24885,2.24885,0,0,0-.81071.39495,2.71552,2.71552,0,0,0-.45732.37417,5.35557,5.35557,0,0,0-.39495.43654,2.56184,2.56184,0,0,0-.18709.24944,1.18509,1.18509,0,0,1-.31181.02079q-.395,0-.395-.20787a2.50982,2.50982,0,0,1,.395-.72755,7.06868,7.06868,0,0,1,1.1433-1.28881,2.82611,2.82611,0,0,1,1.4759-.78992q.1455-.04158,4.67713-.04157,3.326,0,3.40911.02078a.56753.56753,0,0,1,.41574.582.86818.86818,0,0,1-.66519.87306,11.27343,11.27343,0,0,1-1.43432.04157h-1.33038l-.06237.35339a15.60343,15.60343,0,0,0-.24944,2.47368,9.0577,9.0577,0,0,0,.18708,1.93322,7.51142,7.51142,0,0,0,.395,1.33038,2.424,2.424,0,0,1,.20787.582.96335.96335,0,0,1-.291.6652.97775.97775,0,0,1-.74834.3118.95786.95786,0,0,1-.37417-.06236q-.14551-.06236-.3326-.49889a6.00466,6.00466,0,0,1-.33259-1.24724q-.02079-.18708-.02079-.91464a13.79471,13.79471,0,0,1,.18709-2.18266q.18708-1.16409.37417-1.91243l.20787-.83149H228.6365l-.02079.08315q0,.06237-.395,1.6422t-.89385,3.34674a15.49162,15.49162,0,0,1-.6444,2.01637A.874.874,0,0,1,225.78864,15.12154Z"/>
      <path id="MJMAIN-2217-3" data-name="MJMAIN-2217" class="cls-8" d="M238.3485,3.14676q-.19111-1.96993-.19112-2.20515,0-.26463.35283-.41163h.0735a.20475.20475,0,0,0,.08821-.0147.587.587,0,0,1,.32342.13231.362.362,0,0,1,.147.294q0,.24992-.0882,1.17608t-.10291,1.02907l.85266-.61744q.82326-.60274.89676-.64685a.28366.28366,0,0,1,.147-.0441.51459.51459,0,0,1,.35283.147.55688.55688,0,0,1,.17641.39693.46481.46481,0,0,1-.147.33812q-.07351.0441-.99967.48513t-.99967.47044l.97027.45573,1.02907.51454a.45789.45789,0,0,1,.13231.33812.52891.52891,0,0,1-.13231.36752.49882.49882,0,0,1-.35283.16172.52733.52733,0,0,1-.26462-.08821q-.147-.0882-.80855-.588l-.85266-.61744q.19111,1.96993.19111,2.20515a.448.448,0,0,1-.10291.27932.61825.61825,0,0,1-.76445,0,.53821.53821,0,0,1-.11761-.27932q0-.24992.08821-1.17608t.10291-1.02907l-.85266.61744q-.82326.60275-.89677.64684a.23807.23807,0,0,1-.147.04411.51463.51463,0,0,1-.35282-.147.55684.55684,0,0,1-.17641-.39693V4.86678a.1271.1271,0,0,1,.0441-.08821.58475.58475,0,0,0,.07351-.0882.40678.40678,0,0,1,.1323-.10291q.10292-.0588.19112-.10291t.27932-.13231q.19111-.0882.36752-.16171t.47044-.22051l.588-.294-1.99934-.95557a.45787.45787,0,0,1-.13231-.33812.52891.52891,0,0,1,.13231-.36753.49877.49877,0,0,1,.35282-.16171.5272.5272,0,0,1,.26462.08821q.147.0882.80856.588Z"/>
    </g>
    <path id="MJMAIN-28-3" data-name="MJMAIN-28" class="cls-8" d="M250.124,19.656a24.18379,24.18379,0,0,1,.294-3.85166,26.94542,26.94542,0,0,1,.67625-3.146,12.31191,12.31191,0,0,1,1.08787-2.58739q.70566-1.26429,1.11728-1.96993a7.80916,7.80916,0,0,1,1.23489-1.52891q.82326-.82326.97027-.99967a5.29817,5.29817,0,0,1,.735-.61744h.49983q.41163,0,.41163.26462a2.37594,2.37594,0,0,1-.49983.61744,13.34689,13.34689,0,0,0-1.20549,1.55831,20.34213,20.34213,0,0,0-1.4407,2.52857,16.72756,16.72756,0,0,0-1.23489,4.05749,29.67557,29.67557,0,0,0-.49983,5.67459,29.21413,29.21413,0,0,0,.49983,5.6452,19.09564,19.09564,0,0,0,1.20549,4.08688,13.31566,13.31566,0,0,0,1.4407,2.52858q.735.97027,1.23489,1.55831a6.64254,6.64254,0,0,1,.49983.61744q0,.26463-.441.26462h-.47043l-.82326-.70565a14.50963,14.50963,0,0,1-4.02808-6.23323A24.03918,24.03918,0,0,1,250.124,19.656Z"/>
    <g>
      <path id="MJMATHI-73-3" data-name="MJMATHI-73" class="cls-8" d="M262.6787,18.50933a4.35723,4.35723,0,0,1,.47043-1.91113,4.83706,4.83706,0,0,1,1.64652-1.79352,4.69777,4.69777,0,0,1,2.852-.79386,3.7147,3.7147,0,0,1,2.64619.79386,2.519,2.519,0,0,1,.85266,1.76412,1.751,1.751,0,0,1-.49984,1.3819,1.78128,1.78128,0,0,1-1.11727.47043,1.17438,1.17438,0,0,1-.70565-.23522.95123.95123,0,0,1-.35283-.76445,1.33424,1.33424,0,0,1,.26462-.82326,2.641,2.641,0,0,1,.49984-.52924.7116.7116,0,0,1,.38222-.17641.026.026,0,0,0,.0294-.0294q0-.0882-.20581-.26462a2.00838,2.00838,0,0,0-.73505-.32342,5.20214,5.20214,0,0,0-1.14668-.17641,2.48689,2.48689,0,0,0-2.73439,2.32276,1.0629,1.0629,0,0,0,.55864,1.02907,6.09777,6.09777,0,0,0,1.61711.49984,6.44238,6.44238,0,0,1,1.52891.441,2.90579,2.90579,0,0,1,1.94053,2.82259,4.47431,4.47431,0,0,1-.32342,1.64652,6.57684,6.57684,0,0,1-.97027,1.64651,4.25332,4.25332,0,0,1-1.85233,1.29369,7.98346,7.98346,0,0,1-2.76379.49984,4.7559,4.7559,0,0,1-3.20483-.85266,2.72023,2.72023,0,0,1-.97026-1.99934,1.99962,1.99962,0,0,1,.61744-1.64652,2.0302,2.0302,0,0,1,1.29369-.49983,1.41868,1.41868,0,0,1,.82326.26462,1.09458,1.09458,0,0,1,.41163.91146,1.75977,1.75977,0,0,1-.52924,1.29369,1.448,1.448,0,0,1-.91146.52924.22573.22573,0,0,1-.08821.0294q-.0294,0-.0294.05881a.63555.63555,0,0,0,.23521.23521,4.10485,4.10485,0,0,0,.91147.38223,5.783,5.783,0,0,0,3.44-.11761,2.52586,2.52586,0,0,0,1.11728-.82326,3.90343,3.90343,0,0,0,.49983-.91146,2.21763,2.21763,0,0,0,.147-.73505,1.38515,1.38515,0,0,0-.61744-1.23489,3.12541,3.12541,0,0,0-1.4113-.49983,7.27719,7.27719,0,0,1-1.73472-.441,2.721,2.721,0,0,1-1.3819-1.02908A2.95952,2.95952,0,0,1,262.6787,18.50933Z"/>
      <g>
        <path id="MJMATHI-74-3" data-name="MJMATHI-74" class="cls-8" d="M273.15706,23.41374q-.14552-.1455-.14551-.20787a1.748,1.748,0,0,1,.06236-.33259.85436.85436,0,0,1,.10394-.291.17854.17854,0,0,1,.18708-.10393q.14551,0,1.06015-.02079h1.10173l.395-1.663q.06236-.22866.14551-.60283a4.45809,4.45809,0,0,1,.14551-.54047,3.91262,3.91262,0,0,0,.12472-.41574.76268.76268,0,0,1,.1663-.35339,1.97962,1.97962,0,0,0,.20787-.24944.46844.46844,0,0,1,.291-.18709,1.72,1.72,0,0,1,.37417-.04157.63728.63728,0,0,1,.51968.22866.69647.69647,0,0,1,.14552.39495,7.90156,7.90156,0,0,1-.18709.977q-.18708.8315-.41574,1.6422l-.20788.76913a4.91224,4.91224,0,0,0,1.03937.04157h1.06015q.1455.14552.14551.22866a.98312.98312,0,0,1-.27024.72755h-2.22423l-.74835,3.01416q-.81069,3.32595-.8107,3.5754,0,.87307.56126.87307a1.98666,1.98666,0,0,0,1.41353-.70677,5.29443,5.29443,0,0,0,1.10172-1.74613q.04158-.12473.10394-.14551a1.8311,1.8311,0,0,1,.31181-.04157h.08315q.3118,0,.31181.16629a1.02066,1.02066,0,0,1-.06236.24945,3.91124,3.91124,0,0,1-.37417.78992,7.38985,7.38985,0,0,1-.70677.977,3.84377,3.84377,0,0,1-1.06015.87306,2.54536,2.54536,0,0,1-1.268.35339,2.40424,2.40424,0,0,1-1.18488-.31181,1.801,1.801,0,0,1-.8107-1.08094,2.6133,2.6133,0,0,1-.04157-.56126v-.37417l.72755-2.91021q.72756-2.931.74834-2.95179a5.10747,5.10747,0,0,0-1.06015-.04158Z"/>
        <path id="MJMAIN-2B-3" data-name="MJMAIN-2B" class="cls-8" d="M281.28488,26.49026V26.22a.4528.4528,0,0,1,.291-.41574h6.21539V22.68619l.02078-3.11809q.20789-.27023.395-.27023a.45453.45453,0,0,1,.41575.31181v6.1946h6.1946a.43307.43307,0,0,1,0,.83149h-6.1946v6.1946q-.1663.291-.37417.291h-.08315a.403.403,0,0,1-.37417-.291v-6.1946H281.5759a.4528.4528,0,0,1-.291-.41575Z"/>
        <path id="MJMAIN-31-3" data-name="MJMAIN-31" class="cls-8" d="M300.74175,19.4018l-.27024.10394a5.95784,5.95784,0,0,1-.83149.20787,9.581,9.581,0,0,1-1.20566.14551h-.395v-.95621h.395a6.7599,6.7599,0,0,0,1.80849-.31181,4.90923,4.90923,0,0,0,1.16409-.49889,5.32915,5.32915,0,0,0,.582-.45732q.04158-.06237.24945-.06236a.57894.57894,0,0,1,.35338.12472v6.21539l.02079,6.23617a.82328.82328,0,0,0,.24945.18709,2.46509,2.46509,0,0,0,.49889.08315q.395.04157,1.28881.04157h.54047v.95622h-.22866q-.43653-.06237-3.30517-.06237-2.82708,0-3.2636.06237h-.24945v-.95622h1.33038a4.99535,4.99535,0,0,0,.51969-.02078,2.03528,2.03528,0,0,0,.33259-.06237,1.24646,1.24646,0,0,1,.1663-.04157q.02079,0,.12472-.10394t.12473-.08315Z"/>
      </g>
    </g>
    <path id="MJMAIN-2C-2" data-name="MJMAIN-2C" class="cls-8" d="M311.95654,25.97746V25.2424a1.83859,1.83859,0,0,1,.47044-1.26428,1.607,1.607,0,0,1,1.26428-.52924,1.922,1.922,0,0,1,1.47011.73505,4.05909,4.05909,0,0,1,.67624,2.58738,7.56445,7.56445,0,0,1-.26461,1.99934,9.14147,9.14147,0,0,1-.61745,1.67592,6.37593,6.37593,0,0,1-.76445,1.20548q-.41163.49984-.70565.79386t-.38223.26462q-.1176,0-.38222-.26462t-.26462-.38223q0-.1176.32342-.47043t.73505-.88206a5.64258,5.64258,0,0,0,.76445-1.47011,8.44553,8.44553,0,0,0,.47044-2.14635v-.35282l-.0294.0294a1.14283,1.14283,0,0,1-.147.05881.74217.74217,0,0,0-.17642.0882.48117.48117,0,0,1-.26462.05881,2.14286,2.14286,0,0,0-.35282.0294,1.75045,1.75045,0,0,1-1.29369-.49984Z"/>
    <path id="MJMATHI-61-2" data-name="MJMATHI-61" class="cls-8" d="M323.71736,22.39041a8.6887,8.6887,0,0,1,2.23456-5.6452,6.57956,6.57956,0,0,1,5.02775-2.705,3.33329,3.33329,0,0,1,2.64619,1.4407,1.47118,1.47118,0,0,1,1.35249-.88206,1.052,1.052,0,0,1,.67625.23522.724.724,0,0,1,.294.588q0,.38223-1.08788,4.70433t-1.11727,4.88074a1.573,1.573,0,0,0,.20581.97027.86368.86368,0,0,0,.61744.26461,1.27742,1.27742,0,0,0,.588-.26461,6.66706,6.66706,0,0,0,1.20549-2.8226q.17642-.588.294-.61744a.85968.85968,0,0,1,.294-.02941h.11761q.55863,0,.55864.26462a4.67059,4.67059,0,0,1-.147.79386,9.22444,9.22444,0,0,1-.588,1.58771,5.00935,5.00935,0,0,1-.94087,1.4701,2.9072,2.9072,0,0,1-.94087.61744,3.134,3.134,0,0,1-.70565.05881,3.00529,3.00529,0,0,1-1.67591-.441,2.25714,2.25714,0,0,1-.88206-.91147l-.17642-.441q-.0294-.0294-.11761.02941l-.1176.1176a5.1549,5.1549,0,0,1-3.52825,1.64652,4.01267,4.01267,0,0,1-2.852-1.17608A4.95447,4.95447,0,0,1,323.71736,22.39041Zm9.34986-5.02776a2.662,2.662,0,0,0-.147-.64684,2.79534,2.79534,0,0,0-.67625-1.02907,1.87941,1.87941,0,0,0-1.35249-.588,2.82152,2.82152,0,0,0-1.96994.91146,6.152,6.152,0,0,0-1.4701,2.38157,23.47311,23.47311,0,0,0-1.20549,4.82193v.32343a1.56732,1.56732,0,0,1-.0294.35282,2.46928,2.46928,0,0,0,.52924,1.82293,1.89356,1.89356,0,0,0,1.26428.52923,3.32008,3.32008,0,0,0,2.20516-.97026,4.944,4.944,0,0,0,1.29369-1.49951q.0588-.1176.79385-3.146T333.06722,17.36265Z"/>
    <path id="MJMAIN-29-3" data-name="MJMAIN-29" class="cls-8" d="M340.09431,4.98439l.11761-.0294h.64684l.82326.70565a14.50963,14.50963,0,0,1,4.02808,6.23323,24.03917,24.03917,0,0,1,1.26429,7.76214,24.5457,24.5457,0,0,1-.294,3.85167,25.27829,25.27829,0,0,1-.67625,3.146,13.24286,13.24286,0,0,1-1.08787,2.58738q-.70566,1.29369-1.11728,1.96994a8.9441,8.9441,0,0,1-1.20549,1.49951q-.79384.82326-.94086.97026t-.67625.55864l-.11761.11761h-.67624a.17277.17277,0,0,1-.147-.0882.692.692,0,0,1-.08821-.26462q.0294-.0294.32342-.38223,4.55732-4.73373,4.55732-13.966T340.27072,5.69q-.294-.35283-.32342-.38223A.34556.34556,0,0,1,340.09431,4.98439Z"/>
  </g>
  <path id="MJMAIN-3D" class="cls-8" d="M150.36257,16.54035a.73438.73438,0,0,1,.472-.67427h21.47537a.784.784,0,0,1,.5057.67427.76486.76486,0,0,1-.472.64055l-10.72083.03371H150.902A.6682.6682,0,0,1,150.36257,16.54035Zm0,6.54038a.66822.66822,0,0,1,.53941-.67427h21.44166q.472.33714.472.67427a.73719.73719,0,0,1-.5057.67427H150.83456A.73438.73438,0,0,1,150.36257,23.08073Z"/>
</svg>
