<svg id="Layer_1" data-name="Layer 1" xmlns="http://www.w3.org/2000/svg" viewBox="0 0 325.58 102.12"><defs><style>.cls-1{fill:#e7ebe8;}.cls-2{fill:#cac9cc;}.cls-3{fill:#b2b3c3;}.cls-4{fill:#58595b;}.cls-5{fill:none;stroke:#58595b;stroke-linecap:round;stroke-width:1.5px;}</style></defs><title>q-learning-intro</title><rect class="cls-1" x="2.91" y="30.01" width="47.05" height="47.05"/><circle class="cls-2" cx="26.43" cy="53.54" r="14.9"/><rect class="cls-1" x="97.95" y="29.84" width="47.05" height="47.05"/><polygon class="cls-3" points="104.14 53.36 109.01 63.14 109.01 43.58 104.14 53.36"/><polygon class="cls-3" points="121.42 70.82 131.21 65.95 111.64 65.95 121.42 70.82"/><polygon class="cls-3" points="138.8 53.37 133.93 43.59 133.93 63.16 138.8 53.37"/><polygon class="cls-3" points="121.42 36.01 111.64 40.88 131.21 40.88 121.42 36.01"/><path id="MJMATHI-51" class="cls-4" d="M66.32,57c0-.22,0-.38,0-.5a.56.56,0,0,1,0-.19v0l-.15,0a3.36,3.36,0,0,1-.85.11,2.55,2.55,0,0,1-1.65-.57,2.52,2.52,0,0,1-.87-1.66,3.92,3.92,0,0,1,0-.43,4.2,4.2,0,0,1,.48-2,5.74,5.74,0,0,1,1.29-1.63,3.9,3.9,0,0,1,2.5-1h.48a2.35,2.35,0,0,1,1.56.86,2.75,2.75,0,0,1,.6,1.82,4.55,4.55,0,0,1-1.48,3.29,4.7,4.7,0,0,1-1.31.91l-.17.08v0a2,2,0,0,0,0,.27.7.7,0,0,0,.21.42.61.61,0,0,0,.46.16,1.14,1.14,0,0,0,.67-.22,1,1,0,0,0,.42-.57c0-.09.08-.14.13-.14a.1.1,0,0,1,.11.09,1.23,1.23,0,0,1-.1.36c-.07.19-.16.41-.28.66a1.72,1.72,0,0,1-.54.66,1.41,1.41,0,0,1-.76.29c-.55,0-.82-.36-.82-1.08Zm2.37-5.49a2.85,2.85,0,0,0-.15-1,1.34,1.34,0,0,0-.41-.61,2.45,2.45,0,0,0-.5-.3,1.32,1.32,0,0,0-.53-.1,2.13,2.13,0,0,0-1,.25,3.69,3.69,0,0,0-1.65,1.76A5.72,5.72,0,0,0,63.85,54a2.06,2.06,0,0,0,.54,1.57,1,1,0,0,0,.29.21v-.08A1,1,0,0,1,65,55a1.11,1.11,0,0,1,.79-.35.86.86,0,0,1,.43.11.66.66,0,0,1,.27.3,1.65,1.65,0,0,1,.12.32l.06.27.13-.09a3.67,3.67,0,0,0,1.09-1.21,5.44,5.44,0,0,0,.62-1.49A6.08,6.08,0,0,0,68.69,51.49ZM65.47,56a2,2,0,0,0,.9-.21v-.1c0-.37-.15-.59-.37-.66l-.19,0h-.1a.65.65,0,0,0-.42.2.67.67,0,0,0-.22.46C65.06,55.89,65.2,56,65.47,56Z"/><path id="MJMAIN-28" class="cls-4" d="M71.19,53.68a7.83,7.83,0,0,1,.1-1.31,7.45,7.45,0,0,1,.23-1.08,3.93,3.93,0,0,1,.37-.88l.38-.67a2.51,2.51,0,0,1,.42-.52l.33-.34a1.8,1.8,0,0,1,.25-.21h.17c.09,0,.14,0,.14.09a.9.9,0,0,1-.17.21,5.3,5.3,0,0,0-.41.53,7.1,7.1,0,0,0-.49.86,5.41,5.41,0,0,0-.42,1.38,9.73,9.73,0,0,0-.17,1.94,9.39,9.39,0,0,0,.17,1.92A6.14,6.14,0,0,0,72.5,57a4.27,4.27,0,0,0,.49.87l.42.53.17.21q0,.09-.15.09h-.16L73,58.45a4.88,4.88,0,0,1-1.37-2.13A8.12,8.12,0,0,1,71.19,53.68Z"/><path id="MJMATHI-73" class="cls-4" d="M75.46,53.29a1.43,1.43,0,0,1,.17-.65,1.61,1.61,0,0,1,.56-.62,1.68,1.68,0,0,1,1-.27,1.27,1.27,0,0,1,.9.27.9.9,0,0,1,.29.61.57.57,0,0,1-.55.63.41.41,0,0,1-.24-.08.36.36,0,0,1-.12-.26.45.45,0,0,1,.09-.28,1,1,0,0,1,.17-.18.24.24,0,0,1,.13-.06h0s0,0-.07-.09a.83.83,0,0,0-.25-.12,2.28,2.28,0,0,0-.39-.06.84.84,0,0,0-.7.27.81.81,0,0,0-.23.53.37.37,0,0,0,.19.35,2.41,2.41,0,0,0,.55.17,1.73,1.73,0,0,1,.52.15,1,1,0,0,1,.66,1,1.59,1.59,0,0,1-.11.56,2.05,2.05,0,0,1-.33.56,1.41,1.41,0,0,1-.63.44,2.54,2.54,0,0,1-.94.17A1.61,1.61,0,0,1,75,56a.94.94,0,0,1-.33-.68.68.68,0,0,1,.21-.56.72.72,0,0,1,.44-.17.52.52,0,0,1,.29.09.4.4,0,0,1,.14.31.58.58,0,0,1-.19.44.48.48,0,0,1-.31.18h0a0,0,0,0,0,0,0l.08.08a1,1,0,0,0,.32.13,1.36,1.36,0,0,0,.55.07,1.49,1.49,0,0,0,.62-.11.81.81,0,0,0,.38-.28,1.21,1.21,0,0,0,.17-.31.85.85,0,0,0,0-.25.46.46,0,0,0-.21-.42,1.1,1.1,0,0,0-.48-.17,2.44,2.44,0,0,1-.59-.15.92.92,0,0,1-.47-.35A1,1,0,0,1,75.46,53.29Z"/><path id="MJMAIN-2C" class="cls-4" d="M79.63,55.83v-.25a.65.65,0,0,1,.16-.43.55.55,0,0,1,.43-.18.66.66,0,0,1,.51.25,1.45,1.45,0,0,1,.23.88,2.54,2.54,0,0,1-.09.68,2.8,2.8,0,0,1-.22.58,2.06,2.06,0,0,1-.26.41l-.24.27a.23.23,0,0,1-.35-.13s0-.08.11-.16a2.82,2.82,0,0,0,.25-.3,1.72,1.72,0,0,0,.26-.51,2.54,2.54,0,0,0,.16-.73v-.12h0l0,0-.06,0s0,0-.09,0h-.12a.58.58,0,0,1-.44-.17Z"/><path id="MJMATHI-61" class="cls-4" d="M83.64,54.61a2.93,2.93,0,0,1,.76-1.92,2.26,2.26,0,0,1,1.72-.93,1.14,1.14,0,0,1,.9.5.49.49,0,0,1,.46-.31.38.38,0,0,1,.23.08.25.25,0,0,1,.1.21c0,.08-.12.62-.37,1.6a15.19,15.19,0,0,0-.38,1.66.5.5,0,0,0,.07.33.23.23,0,0,0,.21.09.35.35,0,0,0,.2-.09,2.18,2.18,0,0,0,.41-1c0-.13.07-.2.1-.21h.14c.13,0,.19,0,.19.09a2,2,0,0,1,0,.27,2.88,2.88,0,0,1-.2.54,1.73,1.73,0,0,1-.32.5.89.89,0,0,1-.32.21.82.82,0,0,1-.24,0,1,1,0,0,1-.57-.15.67.67,0,0,1-.3-.31l-.06-.15h0l0,0a1.75,1.75,0,0,1-1.21.56,1.36,1.36,0,0,1-1-.4A1.67,1.67,0,0,1,83.64,54.61Zm3.19-1.71a1,1,0,0,0,0-.22,1,1,0,0,0-.23-.35.66.66,0,0,0-.46-.21,1,1,0,0,0-.68.32,2,2,0,0,0-.5.81,8,8,0,0,0-.41,1.64V55a.41.41,0,0,1,0,.12.83.83,0,0,0,.18.62.6.6,0,0,0,.43.18,1.15,1.15,0,0,0,.76-.33,1.85,1.85,0,0,0,.44-.51s.1-.38.27-1.07Z"/><path id="MJMAIN-31" class="cls-4" d="M90.12,53.6l-.09,0a1.23,1.23,0,0,1-.29.07,2.42,2.42,0,0,1-.41,0H89.2v-.32h.13a2.44,2.44,0,0,0,.62-.11,1.5,1.5,0,0,0,.39-.17,1.15,1.15,0,0,0,.2-.15s0,0,.09,0a.21.21,0,0,1,.12.05v4.24l.08.06.17,0,.44,0h.18v.32h-.07c-.1,0-.48,0-1.13,0s-1,0-1.11,0h-.09v-.32h.63l.12,0,0,0,0,0s0,0,0,0Z"/><path id="MJMAIN-29" class="cls-4" d="M93.77,48.68H94l.28.24A4.85,4.85,0,0,1,95.68,51a8.14,8.14,0,0,1,.44,2.65A9.27,9.27,0,0,1,96,55a8.31,8.31,0,0,1-.24,1.07,3.93,3.93,0,0,1-.37.88c-.16.3-.28.52-.38.68a3.14,3.14,0,0,1-.41.51l-.32.33-.23.19,0,0H93.8a.05.05,0,0,1,0,0,.46.46,0,0,1,0-.09l.11-.13a6.59,6.59,0,0,0,1.55-4.76,6.58,6.58,0,0,0-1.55-4.76l-.11-.13A.12.12,0,0,1,93.77,48.68Z"/><path id="MJMATHI-51-2" data-name="MJMATHI-51" class="cls-4" d="M108.22,26.42c0-.22,0-.39,0-.5a1,1,0,0,1,0-.19v0l-.15,0a3.88,3.88,0,0,1-.84.11,2.55,2.55,0,0,1-1.66-.57,2.63,2.63,0,0,1-.87-1.67c0-.05,0-.19,0-.43a4.13,4.13,0,0,1,.48-1.94,5.47,5.47,0,0,1,1.3-1.63,3.89,3.89,0,0,1,2.49-1h.48a2.4,2.4,0,0,1,1.56.87,2.81,2.81,0,0,1,.61,1.82,4.58,4.58,0,0,1-1.49,3.29,4.92,4.92,0,0,1-1.31.91l-.17.08v.05s0,.1,0,.27a.76.76,0,0,0,.21.42.61.61,0,0,0,.46.16,1.12,1.12,0,0,0,.67-.22,1,1,0,0,0,.42-.57c0-.09.09-.14.13-.14a.1.1,0,0,1,.11.09,1.41,1.41,0,0,1-.1.36,5.36,5.36,0,0,1-.28.66,1.76,1.76,0,0,1-.54.65,1.33,1.33,0,0,1-.76.29c-.55,0-.82-.35-.82-1.07Zm2.37-5.49a2.76,2.76,0,0,0-.15-1,1.22,1.22,0,0,0-.41-.61,1.79,1.79,0,0,0-.5-.3A1.32,1.32,0,0,0,109,19a2.13,2.13,0,0,0-1,.25A3.54,3.54,0,0,0,106.38,21a5.59,5.59,0,0,0-.63,2.48A2,2,0,0,0,106.3,25c.16.14.25.21.29.21v-.08a1,1,0,0,1,.33-.74,1,1,0,0,1,.78-.35.75.75,0,0,1,.43.11.66.66,0,0,1,.27.3,1.44,1.44,0,0,1,.12.32q0,.12.06.27l.13-.09a3.7,3.7,0,0,0,1.09-1.22,5.32,5.32,0,0,0,.62-1.49A5.53,5.53,0,0,0,110.59,20.93Zm-3.22,4.51a2,2,0,0,0,.9-.21v-.1c0-.37-.15-.59-.37-.66a.72.72,0,0,0-.19,0h-.1a.57.57,0,0,0-.41.2.61.61,0,0,0-.22.46C107,25.32,107.1,25.44,107.37,25.44Z"/><path id="MJMAIN-28-2" data-name="MJMAIN-28" class="cls-4" d="M113.09,23.11a7.91,7.91,0,0,1,.1-1.31,9.32,9.32,0,0,1,.23-1.07,4.22,4.22,0,0,1,.37-.88l.38-.67a2.54,2.54,0,0,1,.42-.53,3.84,3.84,0,0,0,.33-.34l.25-.21h.17c.1,0,.14,0,.14.09s0,.09-.17.21a4.6,4.6,0,0,0-.41.54,7.1,7.1,0,0,0-.49.86,5.41,5.41,0,0,0-.42,1.38A11,11,0,0,0,114,25a6.31,6.31,0,0,0,.41,1.39,5,5,0,0,0,.49.86l.42.53.17.21q0,.09-.15.09h-.16l-.28-.24a4.88,4.88,0,0,1-1.37-2.12A8.13,8.13,0,0,1,113.09,23.11Z"/><path id="MJMATHI-73-2" data-name="MJMATHI-73" class="cls-4" d="M117.37,22.72a1.45,1.45,0,0,1,.16-.65,1.59,1.59,0,0,1,.56-.61,1.56,1.56,0,0,1,1-.27,1.26,1.26,0,0,1,.9.27.82.82,0,0,1,.29.6.57.57,0,0,1-.55.63.37.37,0,0,1-.24-.08.34.34,0,0,1-.12-.26.47.47,0,0,1,.09-.28,1,1,0,0,1,.17-.18.28.28,0,0,1,.13-.06h0s0-.05-.07-.09a.59.59,0,0,0-.25-.11,2.28,2.28,0,0,0-.39-.06.88.88,0,0,0-.7.26.86.86,0,0,0-.23.53.35.35,0,0,0,.19.35,1.79,1.79,0,0,0,.55.17,2.64,2.64,0,0,1,.52.15,1,1,0,0,1,.66,1,1.43,1.43,0,0,1-.11.56,2.21,2.21,0,0,1-.33.56,1.58,1.58,0,0,1-.63.44,2.72,2.72,0,0,1-.94.17,1.62,1.62,0,0,1-1.09-.29.89.89,0,0,1-.33-.68.68.68,0,0,1,.21-.56.64.64,0,0,1,.44-.17.49.49,0,0,1,.28.09.4.4,0,0,1,.14.31.6.6,0,0,1-.18.44.51.51,0,0,1-.31.18h0s0,0,0,0,0,0,.08.08a1.86,1.86,0,0,0,.31.13,1.84,1.84,0,0,0,.55.07,1.64,1.64,0,0,0,.62-.11,1,1,0,0,0,.38-.28,1.41,1.41,0,0,0,.17-.31.92.92,0,0,0,.05-.25.46.46,0,0,0-.21-.42,1,1,0,0,0-.48-.17,2.49,2.49,0,0,1-.59-.16.87.87,0,0,1-.47-.35A1,1,0,0,1,117.37,22.72Z"/><path id="MJMAIN-2C-2" data-name="MJMAIN-2C" class="cls-4" d="M121.54,25.27V25a.6.6,0,0,1,.16-.43.54.54,0,0,1,.43-.18.66.66,0,0,1,.5.25,1.43,1.43,0,0,1,.23.88,2.59,2.59,0,0,1-.09.68,3.11,3.11,0,0,1-.21.57,2.23,2.23,0,0,1-.26.41l-.24.27c-.07.07-.11.1-.13.09s-.07,0-.13-.09-.09-.1-.09-.13a.35.35,0,0,1,.11-.16l.25-.3a2.09,2.09,0,0,0,.26-.5,3,3,0,0,0,.16-.73v-.12h0l0,0-.06,0-.09,0h-.12a.6.6,0,0,1-.44-.17Z"/><path id="MJMATHI-61-2" data-name="MJMATHI-61" class="cls-4" d="M125.54,24.05a3,3,0,0,1,.76-1.93A2.25,2.25,0,0,1,128,21.2a1.12,1.12,0,0,1,.9.49.5.5,0,0,1,.46-.3.38.38,0,0,1,.23.08.23.23,0,0,1,.1.2c0,.09-.12.62-.37,1.6s-.37,1.54-.38,1.67a.54.54,0,0,0,.07.33.34.34,0,0,0,.21.09.5.5,0,0,0,.2-.09,2.31,2.31,0,0,0,.41-1c0-.14.08-.21.1-.21h.14c.13,0,.19,0,.19.09a1.1,1.1,0,0,1-.05.27,2.88,2.88,0,0,1-.2.54,1.66,1.66,0,0,1-.32.5.89.89,0,0,1-.32.21l-.24,0a1,1,0,0,1-.57-.15.86.86,0,0,1-.3-.31l-.06-.15s0,0,0,0l0,0a1.79,1.79,0,0,1-1.2.56,1.37,1.37,0,0,1-1-.4A1.69,1.69,0,0,1,125.54,24.05Zm3.19-1.72a1.16,1.16,0,0,0,0-.22.91.91,0,0,0-.23-.35.63.63,0,0,0-.46-.2.93.93,0,0,0-.67.31,2.06,2.06,0,0,0-.5.81,7.66,7.66,0,0,0-.41,1.65v.11s0,.09,0,.12a.85.85,0,0,0,.18.62.67.67,0,0,0,.43.18,1.14,1.14,0,0,0,.75-.33,1.85,1.85,0,0,0,.44-.51s.1-.39.27-1.08S128.72,22.39,128.73,22.33Z"/><path id="MJMAIN-32" class="cls-4" d="M131.28,24.09A.37.37,0,0,1,131,24a.42.42,0,0,1-.11-.31,1.16,1.16,0,0,1,.37-.87,1.27,1.27,0,0,1,.94-.37,1.5,1.5,0,0,1,1.07.4,1.31,1.31,0,0,1,.44,1,1.27,1.27,0,0,1-.14.58,1.94,1.94,0,0,1-.34.49c-.13.13-.32.31-.57.52s-.4.36-.7.65l-.42.4h.54a8.68,8.68,0,0,0,1.18,0,2,2,0,0,0,.17-.63v0h.28v0s0,.23-.09.64a4.53,4.53,0,0,1-.11.66v0h-2.62v-.22a.17.17,0,0,1,0-.11l.21-.25.35-.39.25-.27.24-.26.2-.23.2-.24.16-.21a1.45,1.45,0,0,0,.15-.23l.11-.21a1,1,0,0,0,.09-.22,2.25,2.25,0,0,0,0-.22,1.4,1.4,0,0,0,0-.23,1.26,1.26,0,0,0-.24-.77.8.8,0,0,0-.69-.33.73.73,0,0,0-.41.12.83.83,0,0,0-.25.24.93.93,0,0,0-.07.13h0a.43.43,0,0,1,.26.1.36.36,0,0,1,.14.32.41.41,0,0,1-.12.3A.45.45,0,0,1,131.28,24.09Z"/><path id="MJMAIN-29-2" data-name="MJMAIN-29" class="cls-4" d="M135.67,18.11h.26l.28.24a5,5,0,0,1,1.38,2.13,8.39,8.39,0,0,1,.43,2.64,9.3,9.3,0,0,1-.1,1.32c-.07.42-.15.77-.23,1.07a4.72,4.72,0,0,1-.37.88l-.38.67a2.56,2.56,0,0,1-.42.51c-.18.19-.28.3-.32.33a1.48,1.48,0,0,1-.23.19l0,0h-.23s0,0,0,0a.46.46,0,0,1,0-.09.6.6,0,0,0,.11-.13,6.58,6.58,0,0,0,1.56-4.76,6.61,6.61,0,0,0-1.56-4.76l-.11-.13A.13.13,0,0,1,135.67,18.11Z"/><path id="MJMATHI-51-3" data-name="MJMATHI-51" class="cls-4" d="M150.45,57.06c0-.22,0-.39,0-.5s0-.18,0-.19v0l-.15,0a3.73,3.73,0,0,1-.84.11A2.45,2.45,0,0,1,147,54.24a3.81,3.81,0,0,1,0-.43,4.13,4.13,0,0,1,.48-1.94,5.47,5.47,0,0,1,1.29-1.63,3.92,3.92,0,0,1,2.5-1h.48a2.42,2.42,0,0,1,1.56.86,2.89,2.89,0,0,1,.6,1.83,4.53,4.53,0,0,1-1.48,3.28,4.75,4.75,0,0,1-1.31.92l-.17.08v0s0,.09.05.27a.76.76,0,0,0,.21.42.6.6,0,0,0,.46.16,1.16,1.16,0,0,0,.67-.22,1.07,1.07,0,0,0,.42-.57c0-.1.08-.14.13-.14a.1.1,0,0,1,.11.09,1.41,1.41,0,0,1-.1.36c-.07.18-.16.41-.28.66a1.76,1.76,0,0,1-.54.65,1.36,1.36,0,0,1-.76.29c-.55,0-.83-.36-.83-1.07Zm2.38-5.49a2.76,2.76,0,0,0-.15-1,1.38,1.38,0,0,0-.41-.62,2.75,2.75,0,0,0-.5-.3,1.51,1.51,0,0,0-.53-.1,2.34,2.34,0,0,0-1,.25,3.66,3.66,0,0,0-1.64,1.77,5.68,5.68,0,0,0-.62,2.48,2.08,2.08,0,0,0,.54,1.58,1,1,0,0,0,.29.21V55.8a1.07,1.07,0,0,1,.33-.75,1.13,1.13,0,0,1,.78-.35.83.83,0,0,1,.43.11.77.77,0,0,1,.27.3,1.3,1.3,0,0,1,.13.33q0,.12.06.27l.13-.09A3.82,3.82,0,0,0,152,54.4a5.32,5.32,0,0,0,.62-1.49A6.07,6.07,0,0,0,152.83,51.57Zm-3.23,4.51a2,2,0,0,0,.9-.21v-.1c0-.37-.15-.59-.37-.67l-.19,0h-.1a.6.6,0,0,0-.41.21.65.65,0,0,0-.22.46C149.2,56,149.34,56.08,149.6,56.08Z"/><path id="MJMAIN-28-3" data-name="MJMAIN-28" class="cls-4" d="M155.32,53.75a9,9,0,0,1,.1-1.31c.07-.41.15-.77.23-1.07a4.26,4.26,0,0,1,.38-.88c.16-.29.28-.52.38-.68a2.51,2.51,0,0,1,.42-.52l.33-.34a1.32,1.32,0,0,1,.25-.21h.17c.09,0,.14,0,.14.09a.9.9,0,0,1-.17.21,4.14,4.14,0,0,0-.41.53,6.13,6.13,0,0,0-.49.87,5.41,5.41,0,0,0-.42,1.38,11,11,0,0,0,0,3.86,6.48,6.48,0,0,0,.41,1.39,4.45,4.45,0,0,0,.49.86,6.14,6.14,0,0,0,.42.53l.17.21q0,.09-.15.09h-.16l-.28-.24a5,5,0,0,1-1.38-2.12A8.41,8.41,0,0,1,155.32,53.75Z"/><path id="MJMATHI-73-3" data-name="MJMATHI-73" class="cls-4" d="M159.6,53.36a1.59,1.59,0,0,1,.16-.65,1.76,1.76,0,0,1,.56-.61,1.59,1.59,0,0,1,1-.27,1.27,1.27,0,0,1,.9.27.9.9,0,0,1,.29.6.61.61,0,0,1-.17.47.64.64,0,0,1-.38.16.41.41,0,0,1-.24-.08.29.29,0,0,1-.12-.26.45.45,0,0,1,.09-.28.74.74,0,0,1,.17-.18.22.22,0,0,1,.13-.06h0s0-.05-.07-.09a.66.66,0,0,0-.25-.11,2.28,2.28,0,0,0-.39-.06.91.91,0,0,0-.71.26.92.92,0,0,0-.23.53.37.37,0,0,0,.19.35,2.08,2.08,0,0,0,.56.17,2.64,2.64,0,0,1,.52.15,1,1,0,0,1,.66,1,1.55,1.55,0,0,1-.11.56,2.79,2.79,0,0,1-.33.57,1.58,1.58,0,0,1-.63.44,3,3,0,0,1-.95.17,1.65,1.65,0,0,1-1.09-.29,1,1,0,0,1-.33-.68.7.7,0,0,1,.21-.57.72.72,0,0,1,.44-.17.47.47,0,0,1,.28.09.36.36,0,0,1,.14.31.61.61,0,0,1-.18.45.48.48,0,0,1-.31.18h0s0,0,0,0a.57.57,0,0,0,.08.08l.31.13a1.88,1.88,0,0,0,.55.07,1.73,1.73,0,0,0,.63-.11,1,1,0,0,0,.38-.28,2,2,0,0,0,.17-.31.91.91,0,0,0,.05-.26.49.49,0,0,0-.21-.42,1.1,1.1,0,0,0-.49-.17,2.56,2.56,0,0,1-.59-.15.9.9,0,0,1-.47-.35A1,1,0,0,1,159.6,53.36Z"/><path id="MJMAIN-2C-3" data-name="MJMAIN-2C" class="cls-4" d="M163.77,55.91v-.25a.65.65,0,0,1,.16-.44.55.55,0,0,1,.43-.18.64.64,0,0,1,.5.26,1.31,1.31,0,0,1,.23.88,2.59,2.59,0,0,1-.09.68,3.11,3.11,0,0,1-.21.57,1.8,1.8,0,0,1-.26.41l-.24.27c-.07.07-.11.1-.13.09s-.07,0-.13-.09-.09-.1-.09-.13,0-.08.11-.16.16-.18.25-.3a1.78,1.78,0,0,0,.26-.5,2.7,2.7,0,0,0,.16-.73v-.12h0l-.05,0a.09.09,0,0,0-.06,0l-.09,0h-.12a.6.6,0,0,1-.44-.17Z"/><path id="MJMATHI-61-3" data-name="MJMATHI-61" class="cls-4" d="M167.78,54.68a3,3,0,0,1,.76-1.92,2.22,2.22,0,0,1,1.71-.92,1.16,1.16,0,0,1,.91.49.49.49,0,0,1,.46-.3.4.4,0,0,1,.23.08.26.26,0,0,1,.1.2c0,.09-.13.62-.37,1.6a15.08,15.08,0,0,0-.38,1.67.54.54,0,0,0,.07.33.29.29,0,0,0,.21.09.56.56,0,0,0,.2-.09,2.45,2.45,0,0,0,.41-1c0-.13.07-.2.1-.21h.14c.12,0,.19,0,.19.09a2,2,0,0,1-.05.27,3.88,3.88,0,0,1-.2.55,1.88,1.88,0,0,1-.32.5,1.48,1.48,0,0,1-.32.21l-.24,0a1.06,1.06,0,0,1-.58-.15.86.86,0,0,1-.3-.31l-.06-.15s0,0,0,0l0,0a1.76,1.76,0,0,1-1.2.56,1.39,1.39,0,0,1-1-.4A1.7,1.7,0,0,1,167.78,54.68ZM171,53a.68.68,0,0,0-.05-.22.91.91,0,0,0-.23-.35.63.63,0,0,0-.46-.2,1,1,0,0,0-.67.31,2.19,2.19,0,0,0-.5.81,8.38,8.38,0,0,0-.41,1.64v.11a.35.35,0,0,1,0,.12.86.86,0,0,0,.18.63.67.67,0,0,0,.43.18,1.1,1.1,0,0,0,.75-.33,1.46,1.46,0,0,0,.44-.52s.11-.38.27-1.07S171,53,171,53Z"/><path id="MJMAIN-33" class="cls-4" d="M173.65,54.49a.38.38,0,0,1-.3-.12.48.48,0,0,1-.11-.32.89.89,0,0,1,.34-.69,1.18,1.18,0,0,1,.82-.3h.31a1.34,1.34,0,0,1,.8.38.91.91,0,0,1,.28.63,1.24,1.24,0,0,1-.24.71,1.41,1.41,0,0,1-.66.51h0s0,0,.07,0l.2.07a.87.87,0,0,1,.27.14,1.14,1.14,0,0,1,.58,1,1.26,1.26,0,0,1-.44,1,1.53,1.53,0,0,1-1.11.42,1.63,1.63,0,0,1-1-.3,1,1,0,0,1-.41-.78.42.42,0,0,1,.13-.31.46.46,0,0,1,.32-.13.44.44,0,0,1,.33.13.43.43,0,0,1,.12.31.36.36,0,0,1,0,.15.37.37,0,0,1,0,.11.27.27,0,0,1-.07.08l-.09.06a.11.11,0,0,1-.07,0l-.06,0h0a1.32,1.32,0,0,0,.88.32.64.64,0,0,0,.59-.38,1.59,1.59,0,0,0,.12-.71v-.15a.93.93,0,0,0-.45-.9,1.79,1.79,0,0,0-.43,0H174l0,0a.2.2,0,0,1,0-.11c0-.08,0-.13.06-.13l.41,0a.73.73,0,0,0,.44-.3,1.31,1.31,0,0,0,.2-.79V54a.62.62,0,0,0-.25-.56.58.58,0,0,0-.33-.1,1.16,1.16,0,0,0-.42.08.79.79,0,0,0-.27.16l-.08.09h.08l.07,0,.09,0a.16.16,0,0,1,.07.07.37.37,0,0,0,0,.11.16.16,0,0,1,0,.14.38.38,0,0,1-.41.41Z"/><path id="MJMAIN-29-3" data-name="MJMAIN-29" class="cls-4" d="M177.91,48.75h.26l.28.24a5,5,0,0,1,1.37,2.13,8.12,8.12,0,0,1,.43,2.64,7.91,7.91,0,0,1-.1,1.31,7.17,7.17,0,0,1-.23,1.08,4.36,4.36,0,0,1-.37.88l-.38.67a3.14,3.14,0,0,1-.41.51l-.32.33-.23.19,0,0h-.23a.05.05,0,0,1-.05,0,.12.12,0,0,1,0-.09l.11-.13a6.62,6.62,0,0,0,1.55-4.76A6.64,6.64,0,0,0,178,49l-.11-.13S177.87,48.77,177.91,48.75Z"/><path id="MJMATHI-51-4" data-name="MJMATHI-51" class="cls-4" d="M107.67,87.4c0-.22,0-.39,0-.5a.59.59,0,0,1,0-.2v0l-.15,0a3.41,3.41,0,0,1-.85.12,2.55,2.55,0,0,1-1.65-.58,2.52,2.52,0,0,1-.87-1.66,3.92,3.92,0,0,1,0-.43,4.13,4.13,0,0,1,.48-1.94,5.64,5.64,0,0,1,1.29-1.64,3.9,3.9,0,0,1,2.5-1h.48a2.35,2.35,0,0,1,1.56.86,2.76,2.76,0,0,1,.6,1.83,4.54,4.54,0,0,1-1.48,3.28,4.7,4.7,0,0,1-1.31.91l-.17.08v0a2.24,2.24,0,0,0,0,.28.76.76,0,0,0,.21.42.64.64,0,0,0,.46.16,1.22,1.22,0,0,0,.67-.22,1.06,1.06,0,0,0,.42-.58c0-.09.08-.14.13-.14a.1.1,0,0,1,.11.09,1.35,1.35,0,0,1-.1.37c-.07.18-.16.4-.28.66a1.76,1.76,0,0,1-.54.65,1.33,1.33,0,0,1-.76.29c-.55,0-.82-.36-.82-1.07ZM110,81.91a2.86,2.86,0,0,0-.15-1,1.4,1.4,0,0,0-.41-.61,2.45,2.45,0,0,0-.5-.3,1.51,1.51,0,0,0-.53-.1,2.26,2.26,0,0,0-1,.25A3.63,3.63,0,0,0,105.82,82a5.64,5.64,0,0,0-.62,2.48,2.06,2.06,0,0,0,.54,1.57,1,1,0,0,0,.29.21v-.08a1.06,1.06,0,0,1,.33-.74,1.13,1.13,0,0,1,.79-.35.86.86,0,0,1,.43.11.77.77,0,0,1,.27.3,1.93,1.93,0,0,1,.12.32L108,86l.13-.09a3.68,3.68,0,0,0,1.09-1.21,5.32,5.32,0,0,0,.62-1.49A6.07,6.07,0,0,0,110,81.91Zm-3.23,4.5a2,2,0,0,0,.91-.21v-.1c0-.36-.15-.58-.37-.66l-.19,0h-.06s0,0,0,0a.63.63,0,0,0-.42.2.69.69,0,0,0-.22.46C106.41,86.3,106.55,86.41,106.81,86.41Z"/><path id="MJMAIN-28-4" data-name="MJMAIN-28" class="cls-4" d="M112.54,84.09a7.83,7.83,0,0,1,.1-1.31,7.29,7.29,0,0,1,.23-1.07,3.81,3.81,0,0,1,.37-.89c.16-.28.28-.51.38-.67a2.51,2.51,0,0,1,.42-.52l.33-.34a1.8,1.8,0,0,1,.25-.21h.17c.09,0,.14,0,.14.09a.9.9,0,0,1-.17.21,5.3,5.3,0,0,0-.41.53,8,8,0,0,0-.49.86,5.37,5.37,0,0,0-.42,1.39,9.56,9.56,0,0,0-.17,1.93,9.39,9.39,0,0,0,.17,1.92,6.41,6.41,0,0,0,.41,1.4,4.45,4.45,0,0,0,.49.86l.42.53a1.94,1.94,0,0,1,.17.21q0,.09-.15.09h-.16l-.28-.24A4.88,4.88,0,0,1,113,86.73,8.07,8.07,0,0,1,112.54,84.09Z"/><path id="MJMATHI-73-4" data-name="MJMATHI-73" class="cls-4" d="M116.81,83.7a1.59,1.59,0,0,1,.16-.65,1.63,1.63,0,0,1,.57-.61,1.54,1.54,0,0,1,1-.27,1.27,1.27,0,0,1,.9.27.86.86,0,0,1,.29.6.57.57,0,0,1-.55.63.41.41,0,0,1-.24-.08.29.29,0,0,1-.12-.26.45.45,0,0,1,.09-.28,1,1,0,0,1,.17-.18.24.24,0,0,1,.13-.06,0,0,0,0,0,0,0s0,0-.07-.09a.66.66,0,0,0-.25-.11,1.23,1.23,0,0,0-.39-.06.84.84,0,0,0-.7.26.81.81,0,0,0-.23.53.36.36,0,0,0,.19.35,2,2,0,0,0,.55.17,2.64,2.64,0,0,1,.52.15,1,1,0,0,1,.66,1,1.55,1.55,0,0,1-.11.56,1.91,1.91,0,0,1-.33.56,1.41,1.41,0,0,1-.63.44,2.54,2.54,0,0,1-.94.17,1.61,1.61,0,0,1-1.1-.29.94.94,0,0,1-.33-.68.69.69,0,0,1,.21-.56.72.72,0,0,1,.44-.17.47.47,0,0,1,.28.09.36.36,0,0,1,.14.31.59.59,0,0,1-.18.44.48.48,0,0,1-.31.18h0a0,0,0,0,0,0,0l.08.08a1.08,1.08,0,0,0,.31.13,1.41,1.41,0,0,0,.56.07,1.49,1.49,0,0,0,.62-.11.81.81,0,0,0,.38-.28,1.38,1.38,0,0,0,.17-.31.79.79,0,0,0,0-.25.49.49,0,0,0-.21-.42,1.1,1.1,0,0,0-.48-.17,2.44,2.44,0,0,1-.59-.15.94.94,0,0,1-.48-.35A1,1,0,0,1,116.81,83.7Z"/><path id="MJMAIN-2C-4" data-name="MJMAIN-2C" class="cls-4" d="M121,86.24V86a.67.67,0,0,1,.16-.43.55.55,0,0,1,.43-.18.66.66,0,0,1,.5.25,1.38,1.38,0,0,1,.24.88,2.61,2.61,0,0,1-.1.69,3.11,3.11,0,0,1-.21.57,2.06,2.06,0,0,1-.26.41l-.24.27c-.06.07-.11.1-.13.09a.44.44,0,0,1-.22-.22s0-.08.11-.16a2.82,2.82,0,0,0,.25-.3,1.78,1.78,0,0,0,.26-.5,2.69,2.69,0,0,0,.16-.74V86.5h0l0,0-.06,0s0,0-.09,0h-.12a.58.58,0,0,1-.44-.17Z"/><path id="MJMATHI-61-4" data-name="MJMATHI-61" class="cls-4" d="M125,85a3,3,0,0,1,.76-1.92,2.22,2.22,0,0,1,1.72-.92,1.12,1.12,0,0,1,.9.49.49.49,0,0,1,.46-.3.34.34,0,0,1,.23.08.23.23,0,0,1,.1.2c0,.08-.13.62-.37,1.6a15.78,15.78,0,0,0-.38,1.66.5.5,0,0,0,.07.33.23.23,0,0,0,.21.09.35.35,0,0,0,.2-.09,2.18,2.18,0,0,0,.41-1c0-.13.07-.2.1-.21h.14c.13,0,.19,0,.19.09a2,2,0,0,1,0,.27,2.88,2.88,0,0,1-.2.54,1.73,1.73,0,0,1-.32.5,1,1,0,0,1-.32.21.82.82,0,0,1-.24,0,1,1,0,0,1-.57-.15.67.67,0,0,1-.3-.31l-.06-.15h0l0,0a1.75,1.75,0,0,1-1.21.56,1.36,1.36,0,0,1-1-.4A1.67,1.67,0,0,1,125,85Zm3.19-1.71a1,1,0,0,0-.05-.22,1,1,0,0,0-.23-.35.61.61,0,0,0-.46-.2,1,1,0,0,0-.68.31,2,2,0,0,0-.5.81,8.2,8.2,0,0,0-.41,1.64v.11a.35.35,0,0,1,0,.12.83.83,0,0,0,.18.62.6.6,0,0,0,.43.18,1.1,1.1,0,0,0,.75-.33,1.76,1.76,0,0,0,.45-.51s.1-.38.27-1.07Z"/><path id="MJMAIN-34" class="cls-4" d="M133.23,88.1c-.08,0-.39,0-.91,0s-.87,0-.95,0h-.07v-.32h.42l.12,0,.09,0s0,0,0-.06a2.39,2.39,0,0,0,0-.38v-.36h-1.83v-.32L131.23,85l1.09-1.65h.28l0,0v3.26h.65v.32h-.65v.71a.1.1,0,0,0,.05.08,1,1,0,0,0,.4.06h.2v.32ZM132,86.61V84.24l-1.55,2.36H132Z"/><path id="MJMAIN-29-4" data-name="MJMAIN-29" class="cls-4" d="M135.12,79.09h.26l.28.24A4.9,4.9,0,0,1,137,81.44a8.13,8.13,0,0,1,.43,2.65,8,8,0,0,1-.1,1.31,7,7,0,0,1-.23,1.07,4.2,4.2,0,0,1-.37.89c-.16.29-.28.51-.38.67a3.14,3.14,0,0,1-.41.51l-.32.33-.23.19,0,0h-.23a.05.05,0,0,1-.05,0l0-.09.11-.13a6.59,6.59,0,0,0,1.55-4.76,6.59,6.59,0,0,0-1.55-4.76l-.11-.13A.13.13,0,0,1,135.12,79.09Z"/><path id="MJMATHI-56" class="cls-4" d="M15.21,49.05a.57.57,0,0,1,.15-.42h.13c.34,0,.76,0,1.27,0,.94,0,1.5,0,1.67,0h.12c.05,0,.07.08.07.11s0,.09,0,.21a.69.69,0,0,1-.11.23h-.25l-.36,0q-.36.06-.39.18s.12,1,.35,3,.35,3,.36,3L19.08,54c.58-.93,1.17-1.88,1.75-2.83s.89-1.45.9-1.48a.31.31,0,0,0,.05-.18c0-.19-.17-.31-.53-.34-.14,0-.21,0-.21-.13s0-.06,0-.16a1,1,0,0,1,.07-.21s.08,0,.16,0h1.32c.56,0,.9,0,1.05,0h.08a.21.21,0,0,1,.09.13.79.79,0,0,1-.11.39.43.43,0,0,1-.21,0l-.28,0a.58.58,0,0,0-.26.06l-.19.08a.45.45,0,0,0-.14.1l-.12.08a.22.22,0,0,0-.1.11s-.06.08-.08.08L20,53.45C18.57,55.78,17.83,57,17.78,57l-.08.06h-.31c-.14,0-.21,0-.21-.08s-.18-1.33-.47-3.85-.46-3.83-.47-3.86-.29-.13-.75-.13h-.2A.15.15,0,0,1,15.21,49.05Z"/><path id="MJMAIN-28-5" data-name="MJMAIN-28" class="cls-4" d="M25,53.83a9.9,9.9,0,0,1,.12-1.57A11.94,11.94,0,0,1,25.35,51a5.71,5.71,0,0,1,.45-1.06c.19-.34.34-.61.46-.8a3.5,3.5,0,0,1,.5-.63,5.63,5.63,0,0,0,.4-.41,3.06,3.06,0,0,1,.3-.25h.2c.11,0,.17,0,.17.11a1.08,1.08,0,0,1-.2.25,6.61,6.61,0,0,0-.5.64,9.18,9.18,0,0,0-.59,1,7.19,7.19,0,0,0-.5,1.66,11.87,11.87,0,0,0-.2,2.32,11.69,11.69,0,0,0,.2,2.31,8.08,8.08,0,0,0,.49,1.67,5.42,5.42,0,0,0,.59,1l.51.64c.13.16.2.24.2.25s-.06.11-.18.11h-.19l-.34-.29A6,6,0,0,1,25.47,57,10,10,0,0,1,25,53.83Z"/><path id="MJMATHI-73-5" data-name="MJMATHI-73" class="cls-4" d="M30.09,53.37a1.94,1.94,0,0,1,.19-.79,2,2,0,0,1,.68-.73,1.93,1.93,0,0,1,1.16-.32,1.53,1.53,0,0,1,1.09.32,1,1,0,0,1,.34.72.71.71,0,0,1-.2.57.75.75,0,0,1-.46.19.46.46,0,0,1-.29-.1.41.41,0,0,1-.14-.31.58.58,0,0,1,.11-.34,1.37,1.37,0,0,1,.2-.21.3.3,0,0,1,.16-.07s0,0,0,0,0-.06-.08-.11a1.09,1.09,0,0,0-.3-.13,2.31,2.31,0,0,0-.47-.07,1,1,0,0,0-.84.31,1,1,0,0,0-.28.64.44.44,0,0,0,.23.42,2.56,2.56,0,0,0,.66.21,2,2,0,0,1,.62.18,1.18,1.18,0,0,1,.8,1.15,2,2,0,0,1-.13.67,3,3,0,0,1-.4.68,1.82,1.82,0,0,1-.76.53,3.51,3.51,0,0,1-1.13.2,2,2,0,0,1-1.31-.35,1.1,1.1,0,0,1-.4-.82.82.82,0,0,1,.26-.67.78.78,0,0,1,.53-.2.56.56,0,0,1,.33.1.46.46,0,0,1,.17.38.71.71,0,0,1-.22.53.57.57,0,0,1-.37.21h0a0,0,0,0,0,0,0,.43.43,0,0,0,.1.1,1.66,1.66,0,0,0,.37.15,1.92,1.92,0,0,0,.66.09,1.89,1.89,0,0,0,.75-.14,1,1,0,0,0,.46-.33,1.76,1.76,0,0,0,.2-.38.89.89,0,0,0,.06-.3.55.55,0,0,0-.25-.5,1.39,1.39,0,0,0-.58-.21,2.64,2.64,0,0,1-.71-.18,1,1,0,0,1-.56-.42A1.17,1.17,0,0,1,30.09,53.37Z"/><path id="MJMAIN-29-5" data-name="MJMAIN-29" class="cls-4" d="M34.88,47.83h.31l.34.29a5.89,5.89,0,0,1,1.64,2.55,9.71,9.71,0,0,1,.52,3.17,10.12,10.12,0,0,1-.12,1.58,9.8,9.8,0,0,1-.28,1.29,5.22,5.22,0,0,1-.44,1c-.19.36-.35.63-.46.81a3.34,3.34,0,0,1-.49.61l-.39.4-.27.23-.05.05h-.28s0,0-.06,0a.24.24,0,0,1,0-.11,1.34,1.34,0,0,1,.13-.15,8,8,0,0,0,1.86-5.72A8,8,0,0,0,35,48.12L34.82,48A.16.16,0,0,1,34.88,47.83Z"/><path id="MJMATHI-56-2" data-name="MJMATHI-56" class="cls-4" d="M203,50.05a.56.56,0,0,1,.15-.41h.12c.33,0,.74,0,1.22,0,.92,0,1.45,0,1.62,0h.11c.05,0,.07.08.07.1a1.11,1.11,0,0,1,0,.21.65.65,0,0,1-.1.22H206l-.35,0c-.22,0-.34.09-.37.17s.11,1,.34,2.92.34,2.89.35,2.91l.84-1.36c.57-.9,1.13-1.82,1.7-2.74l.87-1.43a.34.34,0,0,0,0-.17q0-.28-.51-.33-.21,0-.21-.12a.69.69,0,0,1,0-.15.61.61,0,0,1,.07-.21s.07,0,.15,0h1.28c.53,0,.87,0,1,0h.08a.24.24,0,0,1,.08.13.82.82,0,0,1-.1.37.4.4,0,0,1-.2,0l-.28,0a.48.48,0,0,0-.24.06l-.19.08a.55.55,0,0,0-.14.09.35.35,0,0,1-.12.08.26.26,0,0,0-.09.11c0,.05-.06.08-.08.08l-2.24,3.6q-2.09,3.38-2.16,3.45l-.08.06h-.29c-.14,0-.21,0-.21-.08s-.17-1.28-.45-3.71S204,50.32,204,50.3s-.27-.13-.72-.13h-.19A.13.13,0,0,1,203,50.05Z"/><path id="MJMAIN-28-6" data-name="MJMAIN-28" class="cls-4" d="M212.45,54.67a9.18,9.18,0,0,1,.12-1.52,9.69,9.69,0,0,1,.26-1.25,5.28,5.28,0,0,1,.43-1c.19-.33.34-.59.44-.78a3.81,3.81,0,0,1,.49-.6l.39-.39a1.42,1.42,0,0,1,.29-.25h.19c.11,0,.17,0,.17.11a1.17,1.17,0,0,1-.2.24,5.26,5.26,0,0,0-.48.62,10.18,10.18,0,0,0-.57,1,6.78,6.78,0,0,0-.48,1.61,12.59,12.59,0,0,0,0,4.47,7.88,7.88,0,0,0,.47,1.61,5.92,5.92,0,0,0,.57,1c.19.25.36.46.49.61l.2.25c0,.07-.06.1-.18.1h-.18l-.33-.28A5.71,5.71,0,0,1,213,57.73,9.53,9.53,0,0,1,212.45,54.67Z"/><path id="MJMATHI-73-6" data-name="MJMATHI-73" class="cls-4" d="M217.41,54.21a1.75,1.75,0,0,1,.18-.75,2,2,0,0,1,.65-.71,1.83,1.83,0,0,1,1.13-.31,1.44,1.44,0,0,1,1,.31,1,1,0,0,1,.34.7.64.64,0,0,1-.2.54.68.68,0,0,1-.44.19.49.49,0,0,1-.28-.09.43.43,0,0,1-.14-.31.52.52,0,0,1,.11-.32,1,1,0,0,1,.2-.21.25.25,0,0,1,.15-.07h0s0-.06-.08-.11a1,1,0,0,0-.29-.12,1.64,1.64,0,0,0-.46-.07,1,1,0,0,0-.81.3,1,1,0,0,0-.26.61.42.42,0,0,0,.22.41,2.46,2.46,0,0,0,.63.2,2.61,2.61,0,0,1,.61.17,1.15,1.15,0,0,1,.76,1.12,1.91,1.91,0,0,1-.12.65A3,3,0,0,1,220,57a1.77,1.77,0,0,1-.73.51,3.07,3.07,0,0,1-1.09.19,1.87,1.87,0,0,1-1.26-.33,1.1,1.1,0,0,1-.39-.79.77.77,0,0,1,.25-.65.8.8,0,0,1,.51-.2.56.56,0,0,1,.32.11.41.41,0,0,1,.16.36.73.73,0,0,1-.2.51.57.57,0,0,1-.36.21h0s0,0,0,0a.36.36,0,0,0,.09.09,1.74,1.74,0,0,0,.36.15,1.84,1.84,0,0,0,.64.09,1.93,1.93,0,0,0,.72-.13,1,1,0,0,0,.44-.33,1.66,1.66,0,0,0,.2-.36.83.83,0,0,0,.06-.29.55.55,0,0,0-.25-.49,1.29,1.29,0,0,0-.55-.19,2.94,2.94,0,0,1-.69-.18,1,1,0,0,1-.54-.4A1.14,1.14,0,0,1,217.41,54.21Z"/><path id="MJMAIN-29-6" data-name="MJMAIN-29" class="cls-4" d="M222,48.87h.3l.33.28a5.89,5.89,0,0,1,1.59,2.46,9.58,9.58,0,0,1,.49,3.07,9.46,9.46,0,0,1-.11,1.52,10.83,10.83,0,0,1-.27,1.24,4.94,4.94,0,0,1-.43,1c-.18.34-.33.6-.44.78a3.66,3.66,0,0,1-.48.59,4.6,4.6,0,0,1-.37.38,1.93,1.93,0,0,1-.26.22l0,0h-.27a.09.09,0,0,1-.06,0,.81.81,0,0,1,0-.11l.13-.15a7.65,7.65,0,0,0,1.8-5.51,7.68,7.68,0,0,0-1.8-5.52L222,49A.15.15,0,0,1,222,48.87Z"/><path id="MJMAIN-3D" class="cls-4" d="M229.72,53.54a.25.25,0,0,1,.17-.23h7.39a.27.27,0,0,1,.18.23c0,.09-.06.16-.17.22h-7.38A.23.23,0,0,1,229.72,53.54Zm0,2.25a.24.24,0,0,1,.19-.23h7.38c.11.08.17.16.17.23a.25.25,0,0,1-.18.23h-7.39A.25.25,0,0,1,229.72,55.79Z"/><path id="MJSZ2-2211" class="cls-4" d="M242,46.56s2.37,0,7,0h7l.68,1.57c.45,1.07.7,1.63.73,1.69H257l-.08-.16a3.92,3.92,0,0,0-.65-.91,4.79,4.79,0,0,0-1.29-.89,6.51,6.51,0,0,0-1.63-.5,14.61,14.61,0,0,0-1.76-.2l-2.12,0h-5.2l.09.13c3.58,4.89,5.38,7.37,5.4,7.41a.08.08,0,0,1,0,.07s-1.05,1.19-3.06,3.51l-3.07,3.48h5.57c1.06,0,1.91,0,2.56,0a14.3,14.3,0,0,0,1.94-.25,5.12,5.12,0,0,0,1.63-.57,4.25,4.25,0,0,0,1.2-1A3.65,3.65,0,0,0,257,59h.47s0,.09-.08.24-.15.41-.29.76-.26.67-.36,1l-.68,1.8h-7q-7,0-7,0a.11.11,0,0,1-.07-.11l0-.06,6.18-7.09s-.12-.18-.38-.52l-1.22-1.67-1.51-2.07L242,47l0-.18C242,46.68,242,46.59,242,46.56Z"/><path id="MJMATHI-69" class="cls-4" d="M249.82,65.25a.45.45,0,0,1,.15-.34.57.57,0,0,1,.36-.16.33.33,0,0,1,.25.1.41.41,0,0,1,.11.24.47.47,0,0,1-.17.35.54.54,0,0,1-.36.16.34.34,0,0,1-.23-.08A.31.31,0,0,1,249.82,65.25Zm-1.34,2.57a.79.79,0,0,1,.07-.25,3.9,3.9,0,0,1,.2-.42,1.19,1.19,0,0,1,.36-.42.7.7,0,0,1,.49-.18.78.78,0,0,1,.54.19.67.67,0,0,1,.22.51,1.49,1.49,0,0,1-.12.45q-.11.33-.33.87c-.14.36-.25.67-.34.92a1.16,1.16,0,0,0,0,.27c0,.13,0,.2.14.2l.15,0a.59.59,0,0,0,.19-.12,1,1,0,0,0,.22-.28,2.49,2.49,0,0,0,.21-.49.53.53,0,0,1,0-.11s.06,0,.14,0,.16,0,.16.08a.83.83,0,0,1-.07.26,3.21,3.21,0,0,1-.21.41,1.27,1.27,0,0,1-.36.41.79.79,0,0,1-.51.19.76.76,0,0,1-.49-.18.64.64,0,0,1-.23-.52,1,1,0,0,1,0-.26c0-.09.15-.4.36-.94l.36-1a1.25,1.25,0,0,0,.05-.32c0-.13,0-.2-.13-.2h0a.55.55,0,0,0-.45.27,1.83,1.83,0,0,0-.31.69s0,0,0,0,0,0,0,0l0,0h-.23S248.48,67.84,248.48,67.82Z"/><path id="MJMATHI-70" class="cls-4" d="M260.31,54.24l0-.1a2,2,0,0,1,.05-.25,3,3,0,0,1,.12-.36l.18-.38a.93.93,0,0,1,.23-.35,2,2,0,0,1,.3-.26.52.52,0,0,1,.38-.1,1.06,1.06,0,0,1,1.12.74l.11-.1a2.11,2.11,0,0,1,1.37-.64,1.44,1.44,0,0,1,1.19.54,2.14,2.14,0,0,1,.43,1.33,3.55,3.55,0,0,1-.89,2.31,2.57,2.57,0,0,1-2,1.06,1.65,1.65,0,0,1-.46-.06,1.22,1.22,0,0,1-.26-.18,1.54,1.54,0,0,1-.22-.2l-.08-.09s-.1.35-.26,1-.24,1-.24,1,0,.07.09.08l.43,0h.29a.24.24,0,0,1,.07.1,1.23,1.23,0,0,1,0,.21c0,.09,0,.15-.07.17s-.07,0-.15,0H260.8c-.54,0-.88,0-1,0h-.09a.21.21,0,0,1-.09-.13.56.56,0,0,1,.15-.4H260c.26,0,.41-.06.45-.14s.26-1,.71-2.78.68-2.76.71-2.86,0-.1,0-.17c0-.31-.1-.47-.29-.47a.5.5,0,0,0-.43.32,2.89,2.89,0,0,0-.27.71,1.17,1.17,0,0,1-.14.42.48.48,0,0,1-.18,0h-.17A.22.22,0,0,1,260.31,54.24Zm1.8,2.14c.17.59.46.89.86.89a1.07,1.07,0,0,0,.68-.27,2.22,2.22,0,0,0,.53-.67,5.85,5.85,0,0,0,.42-1.26,7,7,0,0,0,.22-1.27v-.07c0-.58-.24-.86-.71-.86a1.15,1.15,0,0,0-.26,0,1.36,1.36,0,0,0-.25.11.91.91,0,0,0-.23.15l-.2.17-.17.18a.48.48,0,0,0-.13.16.27.27,0,0,1-.1.11l0,0s0,.06,0,.16-.07.27-.13.51-.12.45-.17.61C262.21,55.93,262.11,56.35,262.11,56.38Z"/><path id="MJMAIN-28-7" data-name="MJMAIN-28" class="cls-4" d="M267,54.67a10.45,10.45,0,0,1,.11-1.52,11.55,11.55,0,0,1,.27-1.25,4.72,4.72,0,0,1,.43-1l.44-.78a3.32,3.32,0,0,1,.49-.6l.38-.39a2.44,2.44,0,0,1,.29-.25h.2c.11,0,.16,0,.16.11a.87.87,0,0,1-.2.24,4.44,4.44,0,0,0-.47.62,7.24,7.24,0,0,0-.57,1,6.74,6.74,0,0,0-.49,1.61,12.59,12.59,0,0,0,0,4.47,7.25,7.25,0,0,0,.48,1.61,4.81,4.81,0,0,0,.57,1c.19.25.35.46.48.61a1.69,1.69,0,0,1,.2.25c0,.07-.06.1-.17.1h-.19l-.32-.28a5.71,5.71,0,0,1-1.59-2.46A9.26,9.26,0,0,1,267,54.67Z"/><path id="MJMATHI-61-5" data-name="MJMATHI-61" class="cls-4" d="M270.8,55.75a3.4,3.4,0,0,1,.88-2.23,2.59,2.59,0,0,1,2-1.07,1.31,1.31,0,0,1,1,.57.58.58,0,0,1,.53-.35.44.44,0,0,1,.27.09.28.28,0,0,1,.12.23c0,.11-.15.72-.43,1.86s-.44,1.78-.45,1.93a.57.57,0,0,0,.09.38.34.34,0,0,0,.24.11.53.53,0,0,0,.23-.11,2.65,2.65,0,0,0,.48-1.11c0-.16.08-.24.11-.25h.17c.14,0,.22,0,.22.11a1.84,1.84,0,0,1-.06.31,4.69,4.69,0,0,1-.23.63,2.15,2.15,0,0,1-.37.58,1.23,1.23,0,0,1-.38.24,1,1,0,0,1-.27,0,1.17,1.17,0,0,1-.67-.17.94.94,0,0,1-.34-.36L273.9,57s0,0,0,0l-.05,0a2,2,0,0,1-1.39.65,1.59,1.59,0,0,1-1.13-.46A2,2,0,0,1,270.8,55.75Zm3.69-2a.93.93,0,0,0-.06-.25,1.11,1.11,0,0,0-.27-.41.69.69,0,0,0-.53-.23,1.12,1.12,0,0,0-.78.36,2.39,2.39,0,0,0-.58.94,10,10,0,0,0-.48,1.9v.13a.53.53,0,0,1,0,.14,1,1,0,0,0,.21.72.78.78,0,0,0,.5.21,1.28,1.28,0,0,0,.87-.39,1.77,1.77,0,0,0,.51-.59s.12-.44.32-1.24S274.48,53.82,274.49,53.76Z"/><path id="MJMATHI-69-2" data-name="MJMATHI-69" class="cls-4" d="M278.06,54.39a.44.44,0,0,1,.16-.34.54.54,0,0,1,.36-.16.33.33,0,0,1,.25.1.37.37,0,0,1,.1.25.45.45,0,0,1-.16.34.55.55,0,0,1-.36.17.35.35,0,0,1-.23-.09A.35.35,0,0,1,278.06,54.39ZM276.72,57a.93.93,0,0,1,.08-.25,2.62,2.62,0,0,1,.2-.42,1.39,1.39,0,0,1,.36-.42.7.7,0,0,1,.49-.18.75.75,0,0,1,.53.19.64.64,0,0,1,.22.51,1.49,1.49,0,0,1-.11.46l-.33.86c-.14.36-.26.67-.34.93a1.09,1.09,0,0,0,0,.26c0,.14,0,.2.13.2a.44.44,0,0,0,.16,0,.59.59,0,0,0,.19-.12,1.18,1.18,0,0,0,.22-.28,2.25,2.25,0,0,0,.21-.49.25.25,0,0,1,0-.11s0,0,.14,0,.16,0,.16.08a.83.83,0,0,1-.07.26,4.08,4.08,0,0,1-.21.42,1.42,1.42,0,0,1-.37.41.84.84,0,0,1-.51.18.76.76,0,0,1-.48-.18.64.64,0,0,1-.23-.52.75.75,0,0,1,0-.26l.35-.94q.31-.82.36-1a1,1,0,0,0,.06-.32c0-.13,0-.2-.14-.2h0a.58.58,0,0,0-.46.27,2,2,0,0,0-.31.69s0,0,0,0v0s0,0,0,0h-.24S276.72,57,276.72,57Z"/><path id="MJMAIN-29-7" data-name="MJMAIN-29" class="cls-4" d="M281.26,48.87h.3l.32.28a5.71,5.71,0,0,1,1.59,2.46,9.32,9.32,0,0,1,.5,3.07,9.83,9.83,0,0,1-.38,2.76,4.94,4.94,0,0,1-.43,1c-.19.34-.33.6-.44.78a3.66,3.66,0,0,1-.48.59c-.21.22-.33.35-.37.38a2.28,2.28,0,0,1-.27.22l0,0h-.27a.09.09,0,0,1-.06,0,.81.81,0,0,1,0-.11l.13-.15a7.69,7.69,0,0,0,1.79-5.51,7.72,7.72,0,0,0-1.79-5.52L281.2,49A.15.15,0,0,1,281.26,48.87Z"/><path id="MJMATHI-51-5" data-name="MJMATHI-51" class="cls-4" d="M289.71,58.5c0-.26,0-.45,0-.58a1.25,1.25,0,0,1,0-.22v-.05l-.17.05a4.51,4.51,0,0,1-1,.12,2.85,2.85,0,0,1-2.92-2.58c0-.07,0-.23,0-.5a4.87,4.87,0,0,1,.55-2.26,6.46,6.46,0,0,1,1.5-1.89,4.5,4.5,0,0,1,2.89-1.19h.56a2.77,2.77,0,0,1,1.81,1,3.25,3.25,0,0,1,.7,2.11A5.32,5.32,0,0,1,292,56.33a5.77,5.77,0,0,1-1.52,1.05l-.2.1v.05s0,.12.06.32a.91.91,0,0,0,.24.48.7.7,0,0,0,.54.19,1.31,1.31,0,0,0,.77-.25,1.21,1.21,0,0,0,.49-.67c.05-.1.1-.16.15-.16a.13.13,0,0,1,.13.11,1.61,1.61,0,0,1-.12.41,6.1,6.1,0,0,1-.32.77,2,2,0,0,1-.63.75,1.54,1.54,0,0,1-.88.34c-.64,0-1-.41-1-1.24Zm2.75-6.36a3.17,3.17,0,0,0-.18-1.12,1.5,1.5,0,0,0-.47-.71,2.56,2.56,0,0,0-.58-.34,1.56,1.56,0,0,0-.62-.12,2.6,2.6,0,0,0-1.14.29,4.22,4.22,0,0,0-1.9,2,6.55,6.55,0,0,0-.72,2.88,2.38,2.38,0,0,0,.63,1.82,1.08,1.08,0,0,0,.33.25V57a1.2,1.2,0,0,1,.39-.85,1.22,1.22,0,0,1,.9-.41.89.89,0,0,1,.5.13.78.78,0,0,1,.32.35,2.23,2.23,0,0,1,.14.37l.06.31.16-.1a4.34,4.34,0,0,0,1.26-1.41,6.13,6.13,0,0,0,.72-1.73A6.87,6.87,0,0,0,292.46,52.14Zm-3.74,5.22a2.3,2.3,0,0,0,1-.24V57c0-.43-.17-.68-.43-.77l-.22,0H289a.72.72,0,0,0-.48.23.74.74,0,0,0-.25.54C288.26,57.23,288.41,57.36,288.72,57.36Z"/><path id="MJMAIN-28-8" data-name="MJMAIN-28" class="cls-4" d="M295.36,54.67a9.18,9.18,0,0,1,.12-1.52,9.69,9.69,0,0,1,.26-1.25,5.28,5.28,0,0,1,.43-1c.19-.33.34-.59.44-.78a3.32,3.32,0,0,1,.49-.6l.38-.39a2.44,2.44,0,0,1,.29-.25h.2c.11,0,.16,0,.16.11a.94.94,0,0,1-.19.24,5.26,5.26,0,0,0-.48.62,10.18,10.18,0,0,0-.57,1,6.78,6.78,0,0,0-.48,1.61,12.59,12.59,0,0,0,0,4.47,7.88,7.88,0,0,0,.47,1.61,5.92,5.92,0,0,0,.57,1c.19.25.36.46.49.61a2,2,0,0,1,.19.25c0,.07-.05.1-.17.1h-.19l-.32-.28a5.71,5.71,0,0,1-1.59-2.46A9.53,9.53,0,0,1,295.36,54.67Z"/><path id="MJMATHI-73-7" data-name="MJMATHI-73" class="cls-4" d="M300.31,54.21a1.75,1.75,0,0,1,.18-.75,2,2,0,0,1,.65-.71,1.83,1.83,0,0,1,1.13-.31,1.44,1.44,0,0,1,1,.31,1,1,0,0,1,.34.7.67.67,0,0,1-.2.54.7.7,0,0,1-.44.19.49.49,0,0,1-.28-.09.43.43,0,0,1-.14-.31.52.52,0,0,1,.11-.32,1.37,1.37,0,0,1,.19-.21.3.3,0,0,1,.16-.07h0s0-.06-.08-.11a1.2,1.2,0,0,0-.29-.12,1.64,1.64,0,0,0-.46-.07,1,1,0,0,0-.81.3,1,1,0,0,0-.27.61.43.43,0,0,0,.22.41,2.56,2.56,0,0,0,.64.2,2.61,2.61,0,0,1,.61.17,1.15,1.15,0,0,1,.76,1.12,1.71,1.71,0,0,1-.13.65,2.61,2.61,0,0,1-.38.65,1.77,1.77,0,0,1-.73.51,3.07,3.07,0,0,1-1.09.19,1.92,1.92,0,0,1-1.27-.33,1.12,1.12,0,0,1-.38-.79.8.8,0,0,1,.24-.65.85.85,0,0,1,.51-.2.57.57,0,0,1,.33.11.44.44,0,0,1,.16.36.69.69,0,0,1-.21.51.57.57,0,0,1-.36.21h0s0,0,0,0,0,0,.09.09a1.34,1.34,0,0,0,.36.15,1.84,1.84,0,0,0,.64.09,1.93,1.93,0,0,0,.72-.13,1,1,0,0,0,.44-.33,1.66,1.66,0,0,0,.2-.36.8.8,0,0,0,0-.29.56.56,0,0,0-.24-.49,1.29,1.29,0,0,0-.56-.19,2.87,2.87,0,0,1-.68-.18,1.06,1.06,0,0,1-.55-.4A1.2,1.2,0,0,1,300.31,54.21Z"/><path id="MJMAIN-2C-5" data-name="MJMAIN-2C" class="cls-4" d="M305.15,57.16v-.29a.75.75,0,0,1,.18-.5.64.64,0,0,1,.5-.21.76.76,0,0,1,.58.29,1.65,1.65,0,0,1,.27,1,3,3,0,0,1-.11.79,4.18,4.18,0,0,1-.24.66,2.37,2.37,0,0,1-.3.47c-.11.13-.2.24-.28.32s-.13.11-.15.1-.08,0-.15-.1-.11-.12-.11-.15.05-.1.13-.19a4.15,4.15,0,0,0,.29-.35,2.07,2.07,0,0,0,.3-.58,3,3,0,0,0,.19-.85v-.12l-.06,0-.07,0a.15.15,0,0,1-.1,0h-.14a.69.69,0,0,1-.51-.2Z"/><path id="MJMATHI-61-6" data-name="MJMATHI-61" class="cls-4" d="M309.79,55.75a3.4,3.4,0,0,1,.88-2.23,2.59,2.59,0,0,1,2-1.07,1.31,1.31,0,0,1,1,.57.59.59,0,0,1,.54-.35.39.39,0,0,1,.26.09.28.28,0,0,1,.12.23c0,.11-.14.72-.43,1.86s-.43,1.78-.44,1.93a.65.65,0,0,0,.08.38.36.36,0,0,0,.24.11.63.63,0,0,0,.24-.11,2.55,2.55,0,0,0,.47-1.11c.05-.16.09-.24.12-.25h.16c.15,0,.22,0,.22.11a1.84,1.84,0,0,1-.06.31,3.61,3.61,0,0,1-.23.63,2.15,2.15,0,0,1-.37.58,1.18,1.18,0,0,1-.37.24,1.06,1.06,0,0,1-.28,0,1.16,1.16,0,0,1-.66-.17.9.9,0,0,1-.35-.36l-.07-.17s0,0-.05,0l0,0a2,2,0,0,1-1.4.65,1.57,1.57,0,0,1-1.12-.46A1.93,1.93,0,0,1,309.79,55.75Zm3.69-2a.93.93,0,0,0-.06-.25,1.07,1.07,0,0,0-.26-.41.71.71,0,0,0-.54-.23,1.12,1.12,0,0,0-.78.36,2.51,2.51,0,0,0-.58.94,9.27,9.27,0,0,0-.47,1.9v.13c0,.06,0,.11,0,.14a1,1,0,0,0,.21.72.73.73,0,0,0,.49.21,1.32,1.32,0,0,0,.88-.39,2.06,2.06,0,0,0,.51-.59s.12-.44.31-1.24S313.47,53.82,313.48,53.76Z"/><path id="MJMATHI-69-3" data-name="MJMATHI-69" class="cls-4" d="M317.06,54.39a.46.46,0,0,1,.15-.34.59.59,0,0,1,.36-.16.33.33,0,0,1,.25.1.44.44,0,0,1,.11.25.47.47,0,0,1-.17.34.55.55,0,0,1-.36.17.35.35,0,0,1-.23-.09A.31.31,0,0,1,317.06,54.39ZM315.72,57a.79.79,0,0,1,.07-.25,3.9,3.9,0,0,1,.2-.42,1.39,1.39,0,0,1,.36-.42.7.7,0,0,1,.49-.18.78.78,0,0,1,.54.19.67.67,0,0,1,.22.51,1.61,1.61,0,0,1-.12.46c-.07.21-.18.5-.33.86s-.25.67-.34.93a1.09,1.09,0,0,0,0,.26c0,.14.05.2.14.2a.39.39,0,0,0,.15,0,.59.59,0,0,0,.19-.12,1,1,0,0,0,.22-.28,2.25,2.25,0,0,0,.21-.49.53.53,0,0,1,0-.11.3.3,0,0,1,.14,0c.11,0,.16,0,.16.08a.83.83,0,0,1-.07.26c-.05.12-.12.26-.2.42a1.58,1.58,0,0,1-.37.41.84.84,0,0,1-.51.18.76.76,0,0,1-.49-.18.67.67,0,0,1-.23-.52,1.09,1.09,0,0,1,0-.26c0-.09.15-.4.36-.94s.33-.88.36-1a2,2,0,0,0,.06-.32c0-.13-.05-.2-.14-.2h0a.58.58,0,0,0-.45.27,1.83,1.83,0,0,0-.31.69l0,0v0s0,0,0,0h-.24S315.72,57,315.72,57Z"/><path id="MJMAIN-29-8" data-name="MJMAIN-29" class="cls-4" d="M320.24,48.87h.3l.32.28a5.71,5.71,0,0,1,1.59,2.46,9.32,9.32,0,0,1,.5,3.07,9.46,9.46,0,0,1-.11,1.52,10.83,10.83,0,0,1-.27,1.24,4.94,4.94,0,0,1-.43,1c-.18.34-.33.6-.44.78a3.66,3.66,0,0,1-.48.59,4.6,4.6,0,0,1-.37.38,1.93,1.93,0,0,1-.26.22l0,0h-.27l-.06,0a.81.81,0,0,1,0-.11l.13-.15a7.65,7.65,0,0,0,1.8-5.51,7.68,7.68,0,0,0-1.8-5.52l-.13-.15A.15.15,0,0,1,320.24,48.87Z"/><line class="cls-5" x1="191.58" y1="10.35" x2="191.58" y2="92.53"/></svg>