<svg id="Layer_1" data-name="Layer 1" xmlns="http://www.w3.org/2000/svg" viewBox="0 0 580 163.40256">
  <defs>
    <style>
      .cls-1 {
        fill: #e7ebe8;
      }

      .cls-2 {
        fill: #fff;
      }

      .cls-3 {
        fill: #231f20;
      }

      .cls-4, .cls-6 {
        fill: #70a8da;
      }

      .cls-5 {
        fill: #010101;
      }

      .cls-6, .cls-8 {
        opacity: 0.5;
      }

      .cls-7, .cls-8 {
        fill: #ef4136;
      }

      .cls-9 {
        font-size: 15.28267px;
        fill: #6d6e71;
        font-family: Roboto-Regular, Roboto;
      }

      .cls-10 {
        letter-spacing: -0.00735em;
      }

      .cls-11 {
        letter-spacing: 0.00006em;
      }
    </style>
  </defs>
  <title>q-learning</title>
  <rect class="cls-1" x="298.25902" y="39.21554" width="97.23471" height="97.23471"/>
  <polygon class="cls-2" points="311.057 87.831 321.125 108.045 321.125 67.617 311.057 87.831"/>
  <polygon class="cls-2" points="346.779 123.904 366.993 113.836 326.564 113.836 346.779 123.904"/>
  <polygon class="cls-2" points="382.696 87.853 372.628 67.639 372.628 108.068 382.696 87.853"/>
  <polygon class="cls-3" points="346.778 51.97 326.564 62.038 366.993 62.038 346.778 51.97"/>
  <rect class="cls-1" x="1.80573" y="39.42136" width="97.23471" height="97.23471"/>
  <circle class="cls-2" cx="51.45429" cy="89.25312" r="30.79778"/>
  <circle class="cls-4" cx="51.45163" cy="89.28988" r="30.79778"/>
  <g>
    <path id="MJMAIN-3D" class="cls-5" d="M152.75373,84.35157a.824.824,0,0,1,.5296-.75657H177.38a.87969.87969,0,0,1,.56743.75657.85821.85821,0,0,1-.5296.71874l-12.02943.03783H153.359A.74976.74976,0,0,1,152.75373,84.35157Zm0,7.33871a.74977.74977,0,0,1,.60526-.75657h24.05885q.5296.37828.5296.75657a.82715.82715,0,0,1-.56743.75657H153.28333A.824.824,0,0,1,152.75373,91.69028Z"/>
    <path id="MJSZ2-2211" class="cls-5" d="M218.04553,61.61671q.11349-.07566,22.88618-.07566H263.7044l2.19405,5.10683q2.23188,5.22033,2.38319,5.52295H266.7685l-.2648-.5296a12.78064,12.78064,0,0,0-2.11839-2.95061,15.87822,15.87822,0,0,0-4.199-2.91279,20.71328,20.71328,0,0,0-5.3338-1.62662,44.00641,44.00641,0,0,0-5.71209-.64308q-2.68581-.11349-6.92259-.15132H225.27076l.30262.41612q17.51456,23.94537,17.59021,24.17234a.34109.34109,0,0,1,0,.227q-.11349.11349-9.9867,11.42417l-9.9867,11.34852q0,.03783,7.9818.03783h5.3338q3.36672,0,4.842.03783,5.14467,0,8.32225-.18915a48.59314,48.59314,0,0,0,6.31734-.79439,17.421,17.421,0,0,0,5.3338-1.85359,14.186,14.186,0,0,0,3.89633-3.29107,11.98813,11.98813,0,0,0,1.551-2.72365h1.51314q0,.03783-.2648.7944t-.94571,2.45885q-.68091,1.70228-1.17268,3.17758l-2.19405,5.8634-22.73486.03783q-22.7727,0-22.88618-.07566a.32136.32136,0,0,1-.227-.34045.58061.58061,0,0,1,.07566-.227L238.09458,90.7824q0-.03783-1.24834-1.70228t-3.972-5.44729q-2.72364-3.78283-4.91769-6.73345L217.89422,63.092l-.03783-.56743Q217.85639,61.73019,218.04553,61.61671Z"/>
  </g>
  <path id="MJMAIN-22C5" class="cls-5" d="M435.83412,90.00739a2.24116,2.24116,0,0,1,.64308-1.58879,2.14148,2.14148,0,0,1,1.62662-.68091,2.3167,2.3167,0,0,1,1.58879.60525,2.18284,2.18284,0,0,1,.71874,1.62662,2.28669,2.28669,0,0,1-.64308,1.62662,2.14148,2.14148,0,0,1-1.62662.68091A2.20456,2.20456,0,0,1,436.515,91.634,2.33917,2.33917,0,0,1,435.83412,90.00739Z"/>
  <rect class="cls-1" x="481.48293" y="39.2294" width="97.23471" height="97.23471"/>
  <polygon class="cls-2" points="565.871 87.89 555.803 67.676 555.803 108.104 565.871 87.89"/>
  <polygon class="cls-2" points="494.234 87.845 504.301 108.059 504.301 67.63 494.234 87.845"/>
  <polygon class="cls-6" points="494.281 87.845 504.349 108.059 504.349 67.63 494.281 87.845"/>
  <polygon class="cls-7" points="530.002 123.918 550.217 113.85 509.788 113.85 530.002 123.918"/>
  <polygon class="cls-8" points="565.92 87.867 555.852 67.653 555.852 108.081 565.92 87.867"/>
  <polygon class="cls-4" points="530.002 51.984 509.788 62.052 550.217 62.052 530.002 51.984"/>
  <g>
    <path id="MJMATHI-51" class="cls-5" d="M490.2473,25.95407q0-.86831.02631-1.31561a2.5993,2.5993,0,0,1,.05262-.49993v-.10525l-.39468.10525a9.5716,9.5716,0,0,1-2.21022.28944,6.4571,6.4571,0,0,1-6.63066-5.86761q-.02631-.21049-.02631-1.13142a10.88516,10.88516,0,0,1,1.263-5.10456,14.737,14.737,0,0,1,3.39427-4.28888,10.2629,10.2629,0,0,1,6.55172-2.71015q.99987,0,1.263.02631A6.26433,6.26433,0,0,1,497.641,7.6145a7.4186,7.4186,0,0,1,1.57873,4.78882,11.972,11.972,0,0,1-3.8942,8.63038,12.61925,12.61925,0,0,1-3.44689,2.39441l-.44731.21049v.13156q0,.02631.13156.71043a2.07061,2.07061,0,0,0,.55256,1.10511,1.63825,1.63825,0,0,0,1.21036.421,3.06544,3.06544,0,0,0,1.76291-.57887,2.67694,2.67694,0,0,0,1.10511-1.49979q.15787-.36837.34206-.36837a.27062.27062,0,0,1,.28943.23681,3.93526,3.93526,0,0,1-.26312.94723q-.26312.73674-.73674,1.7366a4.56766,4.56766,0,0,1-1.42086,1.71029,3.59074,3.59074,0,0,1-1.99972.76306q-2.1576,0-2.15759-2.8154Zm6.236-14.41906a7.34484,7.34484,0,0,0-.39468-2.526,3.45877,3.45877,0,0,0-1.0788-1.605,5.93236,5.93236,0,0,0-1.3156-.78937,3.59158,3.59158,0,0,0-1.39455-.26312,5.74018,5.74018,0,0,0-2.57859.65781,9.47331,9.47331,0,0,0-4.31519,4.63093,14.81692,14.81692,0,0,0-1.63135,6.52542,5.43429,5.43429,0,0,0,1.42085,4.131,2.47132,2.47132,0,0,0,.76306.55256v-.2105a2.752,2.752,0,0,1,.8683-1.9471,2.86033,2.86033,0,0,1,2.05234-.92092,2.12807,2.12807,0,0,1,1.13143.28943,1.81946,1.81946,0,0,1,.71042.78936,4.33186,4.33186,0,0,1,.31575.842q.07893.34206.15787.71043l.34206-.23681a9.74447,9.74447,0,0,0,2.868-3.18377,14.36512,14.36512,0,0,0,1.63136-3.92051A15.40162,15.40162,0,0,0,496.48327,11.535Zm-8.47251,11.84047a5.22269,5.22269,0,0,0,2.3681-.55255l-.02632-.26313q-.10524-1.44715-.97355-1.7366a3.22138,3.22138,0,0,0-.49993-.05262h-.15787a.15239.15239,0,0,1-.10525-.02631,1.60255,1.60255,0,0,0-1.0788.52624,1.72427,1.72427,0,0,0-.57886,1.21036Q486.95828,23.37548,488.01076,23.37548Z"/>
    <g>
      <path id="MJMATHI-3C0" class="cls-5" d="M503.01721,13.21312a.551.551,0,0,1-.63249-.61388v-.20463l.24184-.52088a36.04775,36.04775,0,0,0,2.02769-5.07853l.14882-.44647h-.59529a6.20265,6.20265,0,0,0-1.00454.05581,2.01269,2.01269,0,0,0-.72551.35345,2.4299,2.4299,0,0,0-.40926.33485,4.79606,4.79606,0,0,0-.35345.39066,2.2914,2.2914,0,0,0-.16742.22323,1.06081,1.06081,0,0,1-.279.0186q-.35344,0-.35345-.186a2.24607,2.24607,0,0,1,.35345-.65109,6.32564,6.32564,0,0,1,1.02315-1.15337,2.52908,2.52908,0,0,1,1.32079-.7069q.13022-.0372,4.1856-.0372,2.97644,0,3.05084.0186a.50788.50788,0,0,1,.37206.52087.777.777,0,0,1-.59529.78132,10.09033,10.09033,0,0,1-1.28358.0372h-1.19058l-.0558.31625a13.962,13.962,0,0,0-.22324,2.21372,8.10534,8.10534,0,0,0,.16743,1.73005,6.72067,6.72067,0,0,0,.35345,1.19057,2.16919,2.16919,0,0,1,.186.52088.86213.86213,0,0,1-.26044.59528.875.875,0,0,1-.6697.279.85723.85723,0,0,1-.33485-.05581q-.13022-.0558-.29764-.44646a5.37342,5.37342,0,0,1-.29764-1.11616q-.0186-.16743-.01861-.81852a12.34518,12.34518,0,0,1,.16743-1.95328q.16742-1.04175.33485-1.71145l.186-.74411h-1.82306l-.0186.07441q0,.05581-.35345,1.46962t-.79992,2.995a13.86321,13.86321,0,0,1-.57668,1.80446A.78219.78219,0,0,1,503.01721,13.21312Z"/>
      <path id="MJMAIN-31" class="cls-5" d="M513.9677,8.20653l-.171.06578a3.77079,3.77079,0,0,1-.52625.13156,6.06464,6.06464,0,0,1-.763.09209h-.25V7.89078h.25a4.27824,4.27824,0,0,0,1.14458-.19734,3.10726,3.10726,0,0,0,.73674-.31574,3.37293,3.37293,0,0,0,.36837-.28944q.02631-.03946.15787-.03947a.36647.36647,0,0,1,.22366.07894V11.0614l.01315,3.94682a.521.521,0,0,0,.15788.1184,1.55991,1.55991,0,0,0,.31574.05263q.25.02631.81568.02631h.34206v.60518h-.14472q-.27628-.03946-2.09182-.03947-1.78922,0-2.0655.03947h-.15787v-.60518h.842a3.15967,3.15967,0,0,0,.3289-.01316,1.28829,1.28829,0,0,0,.21049-.03946.78783.78783,0,0,1,.10525-.02632q.01316,0,.07894-.06578t.07894-.05262Z"/>
    </g>
    <path id="MJMAIN-28" class="cls-5" d="M524.71621,17.27106a21.64249,21.64249,0,0,1,.26312-3.44689,24.11409,24.11409,0,0,1,.60518-2.8154,11.01775,11.01775,0,0,1,.97355-2.31547q.63149-1.13142.99986-1.76291A6.98845,6.98845,0,0,1,528.663,5.56216q.73674-.73674.8683-.89462a4.7433,4.7433,0,0,1,.6578-.55255h.44731q.36837,0,.36837.23681a2.126,2.126,0,0,1-.44731.55255,11.94636,11.94636,0,0,0-1.07879,1.39455,18.20392,18.20392,0,0,0-1.2893,2.26284,14.96973,14.96973,0,0,0-1.10511,3.63108,26.557,26.557,0,0,0-.44731,5.07824,26.14416,26.14416,0,0,0,.44731,5.05194,17.08894,17.08894,0,0,0,1.0788,3.65738,11.91665,11.91665,0,0,0,1.28929,2.26285q.65781.8683,1.10511,1.39454a5.943,5.943,0,0,1,.44731.55256q0,.23681-.39468.23681h-.421l-.73674-.6315a12.98483,12.98483,0,0,1-3.60476-5.57817A21.51287,21.51287,0,0,1,524.71621,17.27106Z"/>
    <path id="MJMATHI-73" class="cls-5" d="M535.95149,16.24489a3.89934,3.89934,0,0,1,.421-1.71029,4.32872,4.32872,0,0,1,1.47348-1.605,4.20412,4.20412,0,0,1,2.55228-.71043,3.3243,3.3243,0,0,1,2.36809.71043,2.25432,2.25432,0,0,1,.76305,1.57873,1.567,1.567,0,0,1-.4473,1.23667,1.59412,1.59412,0,0,1-.99986.421,1.051,1.051,0,0,1-.6315-.21049.8513.8513,0,0,1-.31574-.68412,1.194,1.194,0,0,1,.23681-.73674,2.36365,2.36365,0,0,1,.4473-.47362.63677.63677,0,0,1,.34206-.15787.02325.02325,0,0,0,.02631-.02631q0-.07894-.18418-.23681a1.79729,1.79729,0,0,0-.6578-.28944,4.65608,4.65608,0,0,0-1.02618-.15787,2.22556,2.22556,0,0,0-2.447,2.07866.9512.9512,0,0,0,.49993.92092,5.45677,5.45677,0,0,0,1.44717.44731,5.766,5.766,0,0,1,1.36823.39468,2.60042,2.60042,0,0,1,1.7366,2.526,4.00389,4.00389,0,0,1-.28943,1.47348,5.88587,5.88587,0,0,1-.8683,1.47348,3.80635,3.80635,0,0,1-1.65767,1.15773,7.14443,7.14443,0,0,1-2.47334.44731,4.25606,4.25606,0,0,1-2.868-.763,2.43433,2.43433,0,0,1-.8683-1.78923,1.78947,1.78947,0,0,1,.55255-1.47348,1.81685,1.81685,0,0,1,1.15774-.4473,1.26952,1.26952,0,0,1,.73674.23681.97954.97954,0,0,1,.36837.81567,1.57487,1.57487,0,0,1-.47362,1.15774,1.29588,1.29588,0,0,1-.81568.47362.20193.20193,0,0,1-.07893.02631q-.02633,0-.02632.05262a.56867.56867,0,0,0,.2105.2105,3.67322,3.67322,0,0,0,.81568.34206,5.17525,5.17525,0,0,0,3.07852-.10525,2.26049,2.26049,0,0,0,.99986-.73674,3.49318,3.49318,0,0,0,.44731-.81568,1.98482,1.98482,0,0,0,.13156-.6578,1.23959,1.23959,0,0,0-.55256-1.10511,2.79706,2.79706,0,0,0-1.263-.44731,6.51168,6.51168,0,0,1-1.55242-.39468,2.435,2.435,0,0,1-1.23667-.92093A2.6485,2.6485,0,0,1,535.95149,16.24489Z"/>
    <path id="MJMAIN-2C" class="cls-5" d="M546.89735,22.92817v-.6578a1.64542,1.64542,0,0,1,.421-1.13142,1.43817,1.43817,0,0,1,1.13142-.47362,1.72,1.72,0,0,1,1.31561.6578,3.63251,3.63251,0,0,1,.60518,2.31547,6.76919,6.76919,0,0,1-.23681,1.78923,8.18078,8.18078,0,0,1-.55255,1.49979,5.70642,5.70642,0,0,1-.68412,1.0788q-.36837.4473-.63149.71043t-.34206.23681q-.10524,0-.34206-.23681t-.23681-.34206q0-.10526.28944-.421t.6578-.78936a5.04985,5.04985,0,0,0,.68412-1.31561,7.55805,7.55805,0,0,0,.421-1.92078v-.31575l-.02631.02631a1.0209,1.0209,0,0,1-.13156.05263.66393.66393,0,0,0-.15787.07893.43054.43054,0,0,1-.23681.05263,1.9177,1.9177,0,0,0-.31575.02631,1.56649,1.56649,0,0,1-1.15773-.44731Z"/>
    <path id="MJMATHI-61" class="cls-5" d="M557.44852,19.71809a7.77555,7.77555,0,0,1,1.99972-5.05193,5.8881,5.8881,0,0,1,4.49938-2.42072,2.983,2.983,0,0,1,2.36809,1.2893,1.3166,1.3166,0,0,1,1.21036-.78937.94145.94145,0,0,1,.60518.2105.648.648,0,0,1,.26312.52624q0,.34206-.97355,4.21t-.99986,4.36781a1.40764,1.40764,0,0,0,.18419.8683.77288.77288,0,0,0,.55255.23681,1.14313,1.14313,0,0,0,.52624-.23681,5.96627,5.96627,0,0,0,1.0788-2.526q.15787-.52624.26312-.55256a.76974.76974,0,0,1,.26313-.02631h.10524q.49994,0,.49993.23681a4.17874,4.17874,0,0,1-.13156.71043,8.25389,8.25389,0,0,1-.52624,1.42085,4.48245,4.48245,0,0,1-.842,1.31561,2.60169,2.60169,0,0,1-.842.55256,2.80537,2.80537,0,0,1-.63149.05262,2.68946,2.68946,0,0,1-1.49979-.39468,2.02,2.02,0,0,1-.78936-.81568l-.15788-.39468q-.02631-.02631-.10525.02631l-.10524.10525a4.61317,4.61317,0,0,1-3.15746,1.47348,3.591,3.591,0,0,1-2.55228-1.05248A4.4338,4.4338,0,0,1,557.44852,19.71809Zm8.36726-4.49937a2.38177,2.38177,0,0,0-.13156-.57887,2.50166,2.50166,0,0,0-.60518-.92093,1.68193,1.68193,0,0,0-1.21036-.52624,2.525,2.525,0,0,0-1.76291.81568,5.50555,5.50555,0,0,0-1.31561,2.13128,21.00641,21.00641,0,0,0-1.0788,4.31519v.28944a1.4026,1.4026,0,0,1-.02631.31574,2.20978,2.20978,0,0,0,.47362,1.63136,1.6946,1.6946,0,0,0,1.13142.47361,2.97113,2.97113,0,0,0,1.97341-.8683,4.42424,4.42424,0,0,0,1.15774-1.34192q.05262-.10524.71043-2.8154T565.81578,15.21872Z"/>
    <path id="MJMAIN-29" class="cls-5" d="M572.07807,4.1413l.10525-.02631h.57887l.73674.63149a12.9848,12.9848,0,0,1,3.60476,5.57818,21.51286,21.51286,0,0,1,1.13143,6.9464,21.96511,21.96511,0,0,1-.26313,3.44689,22.62174,22.62174,0,0,1-.60518,2.8154,11.85035,11.85035,0,0,1-.97354,2.31547q-.6315,1.15775-.99987,1.76292a8.00452,8.00452,0,0,1-1.07879,1.34192q-.71043.73674-.842.8683t-.60518.49993l-.10525.10525H572.157a.15463.15463,0,0,1-.13156-.07894.61941.61941,0,0,1-.07894-.23681q.02631-.02631.28944-.34206,4.07838-4.23625,4.07838-12.49827T572.236,4.77279q-.26313-.31574-.28944-.342A.30928.30928,0,0,1,572.07807,4.1413Z"/>
  </g>
  <text class="cls-9" transform="translate(0.71813 158.91349)">Q-learning (special case of off-policy <tspan class="cls-10" x="251.37305" y="0">v</tspan><tspan class="cls-11" x="258.66309" y="0">alue estimation)</tspan></text>
  <g>
    <path id="MJMAIN-61" class="cls-5" d="M284.61653,10.19711h-.454a1.03757,1.03757,0,0,1-.76362-.30957,1.08888,1.08888,0,0,1-.30958-.8049,1.6138,1.6138,0,0,1,.70171-1.27958,5.29765,5.29765,0,0,1,4.93257.10319,3.19616,3.19616,0,0,1,1.23831,1.56852,1.89124,1.89124,0,0,1,.10319.63979q0,.35085.02064,2.37341v1.44469a5.94411,5.94411,0,0,0,.10319,1.36214.43173.43173,0,0,0,.43341.37149.409.409,0,0,0,.41276-.33022,4.07159,4.07159,0,0,0,.1032-1.09383v-.743h.82553v.80489a6.49606,6.49606,0,0,1-.06191.97,1.71118,1.71118,0,0,1-.72235.97,2.18222,2.18222,0,0,1-1.13511.37149,1.21331,1.21331,0,0,1-.97-.37149,1.97766,1.97766,0,0,1-.49533-.86681V15.2948l-.04127.06191a.82051.82051,0,0,1-.10319.12383q-.06192.06192-.16511.18575a1.31442,1.31442,0,0,1-.24766.227q-.14446.10318-.30958.24766a1.28376,1.28376,0,0,1-.37149.227q-.20639.08256-.454.16511a3.068,3.068,0,0,1-.5366.12383q-.28895.04128-.63979.06191a4.01977,4.01977,0,0,1-2.22895-.63979,2.02254,2.02254,0,0,1-.99064-1.79554,2.36887,2.36887,0,0,1,.14447-.82553,2.69915,2.69915,0,0,1,.55724-.84618,3.6606,3.6606,0,0,1,.99064-.76362,7.52223,7.52223,0,0,1,1.60979-.57787,10.39885,10.39885,0,0,1,2.27023-.30958h.28893v-.454a3.15829,3.15829,0,0,0-.12383-1.03192,1.9116,1.9116,0,0,0-2.00192-1.46533q-.37149,0-.70171.02064a2.11869,2.11869,0,0,0-.516.08256.67761.67761,0,0,0-.1651.06191,1.02906,1.02906,0,0,1,.454.90809,1.01316,1.01316,0,0,1-.33021.8049Zm-.227,4.107a1.56157,1.56157,0,0,0,.49532,1.13511,1.72916,1.72916,0,0,0,1.21767.516,2.162,2.162,0,0,0,1.38277-.47468,2.30351,2.30351,0,0,0,.8049-1.2383,11.34924,11.34924,0,0,0,.06191-1.36214q0-1.197-.02064-1.197-.1651,0-.4334.02064a6.60437,6.60437,0,0,0-.92873.18574,6.77588,6.77588,0,0,0-1.197.41277,2.62275,2.62275,0,0,0-.94936.76362A2.01719,2.01719,0,0,0,284.38951,14.30415Z"/>
    <path id="MJMAIN-72" class="cls-5" d="M292.85125,15.54246h.28894q.8049,0,.97-.28894v-.63979q0-.28895.02064-.63979a7.82014,7.82014,0,0,0,0-.8049q-.02064-.45405,0-.86681V9.72243l-.02064-.47468a.66028.66028,0,0,0-.28893-.516,2.7706,2.7706,0,0,0-.92873-.18575H292.521V8.07136q0-.47469.04127-.47468l.20639-.02064q.20639-.02064.57787-.04128l.743-.04128q.33023-.02062.72235-.04127a4.46615,4.46615,0,0,0,.59851-.06192q.20639-.04128.227-.02064h.06192v1.424a2.32833,2.32833,0,0,1,2.00192-1.40341h.12383a1.80748,1.80748,0,0,1,1.36214.454,1.36941,1.36941,0,0,1,.4334.94936,1.09628,1.09628,0,0,1-.2683.743.9814.9814,0,0,1-.78425.30958.89259.89259,0,0,1-.76363-.33021,1.27166,1.27166,0,0,1-.26829-.70171,1.20392,1.20392,0,0,1,.04127-.33021,1.0318,1.0318,0,0,1,.10319-.24766l.06192-.1032q-.04128-.04126-.47468.08256a2.405,2.405,0,0,0-.49532.30957q-.97.92874-.97,3.69428v2.18766a3.422,3.422,0,0,0,.02064.41277,1.16473,1.16473,0,0,1,0,.30958v.10319a.32339.32339,0,0,0,.06191.08255.25907.25907,0,0,0,.1032.06192.2592.2592,0,0,1,.10319.06191.2014.2014,0,0,0,.14447.04128.3542.3542,0,0,1,.14447.02064.51243.51243,0,0,0,.18574.02064h.18575q.04127,0,.20638.02064a.47563.47563,0,0,0,.20638,0h.63979v.94936h-.18574q-.37149-.0619-2.62108-.06191a19.38448,19.38448,0,0,0-2.3115.06191h-.1651v-.94936Z"/>
    <path id="MJMAIN-67" class="cls-5" d="M307.00919,8.05072a2.84463,2.84463,0,0,1,2.06384-.90809.99724.99724,0,0,1,.88745.39213,1.38146,1.38146,0,0,1,.2683.78426.79264.79264,0,0,1-.18575.516.67783.67783,0,0,1-.55724.227.67.67,0,0,1-.76362-.61915.5961.5961,0,0,1,.06192-.43341.15843.15843,0,0,1,.02064-.06191V7.92689a2.17291,2.17291,0,0,0-1.09384.454q-.1651.1032-.16511.14447,0,.02064.08256.1032a1.43161,1.43161,0,0,1,.18574.24766q.1032.16511.227.37149a1.62908,1.62908,0,0,1,.18574.5366,5.41911,5.41911,0,0,1,.08256.68106,2.77681,2.77681,0,0,1-1.01129,2.167,3.73349,3.73349,0,0,1-2.49724.90809,4.07965,4.07965,0,0,1-2.0432-.57787,1.48038,1.48038,0,0,0-.227.78426,1.19349,1.19349,0,0,0,.53659,1.07319.6395.6395,0,0,0,.35086.12383q.1651,0,1.486.04128a15.25706,15.25706,0,0,1,2.22895.12383,3.64886,3.64886,0,0,1,1.98128.84617,2.7428,2.7428,0,0,1,.8049,2.02257,2.325,2.325,0,0,1-1.60979,2.12575,7.07933,7.07933,0,0,1-5.882,0,2.26653,2.26653,0,0,1-1.60979-2.06384,1.81257,1.81257,0,0,1,.43341-1.2383,2.508,2.508,0,0,1,.86681-.68107l.227-.12383a2.16976,2.16976,0,0,1-.743-1.73362,2.82051,2.82051,0,0,1,.59851-1.75427,2.82306,2.82306,0,0,1-.90809-2.0432,2.77517,2.77517,0,0,1,1.03192-2.18767,3.87164,3.87164,0,0,1,4.45789-.37149ZM306.39,9.41285a1.40658,1.40658,0,0,0-.5366-.90808,1.82007,1.82007,0,0,0-1.0732-.35086,1.65338,1.65338,0,0,0-1.03192.33022,1.42043,1.42043,0,0,0-.5366.92872,6.57463,6.57463,0,0,0-.06191,1.05256,4.5723,4.5723,0,0,0,.14447,1.3415,1.35205,1.35205,0,0,0,.61915.72234,1.72894,1.72894,0,0,0,.88745.20639,1.94662,1.94662,0,0,0,.78426-.14447,1.02859,1.02859,0,0,0,.47468-.37149,3.21758,3.21758,0,0,0,.227-.41277,1.345,1.345,0,0,0,.1032-.30958,6.16877,6.16877,0,0,0,.06191-1.03192A6.57463,6.57463,0,0,0,306.39,9.41285Zm2.14639,8.62685a1.23807,1.23807,0,0,0-.28894-.84617,1.63328,1.63328,0,0,0-.84617-.47469A6.36918,6.36918,0,0,0,306.39,16.5331q-.45405-.04128-1.11448-.04128h-.55723a5.92542,5.92542,0,0,0-1.65108.12383,1.37321,1.37321,0,0,0-.63979.57788,1.79864,1.79864,0,0,0-.24766.82553,1.15825,1.15825,0,0,0,.12383.47469,2.70217,2.70217,0,0,0,.43341.61915,2.24515,2.24515,0,0,0,.99064.57787,5.64161,5.64161,0,0,0,1.65107.24766,4.06626,4.06626,0,0,0,2.29087-.57787A1.61743,1.61743,0,0,0,308.53643,18.0397Z"/>
    <path id="MJMAIN-6D" class="cls-5" d="M311.38453,15.54246h.28893q.8049,0,.97-.28894V13.97394q0-.35085.02064-.8049t0-.86681V10.9401q0-.72235-.02064-1.21767V9.24775a.66029.66029,0,0,0-.28894-.516,2.77054,2.77054,0,0,0-.92873-.18575h-.37149V8.07136q0-.47469.04128-.47468L311.302,7.576q.20638-.02064.57788-.04128t.76362-.04128q.35085-.02062.743-.04127a4.46615,4.46615,0,0,0,.59851-.06192q.20638-.04128.227-.02064h.06192v.82554a5.607,5.607,0,0,0,.02064.78426q.02064,0,.10319-.10319l.24766-.30958a2.01936,2.01936,0,0,1,.39213-.37149q.227-.16511.59851-.39213a2.79788,2.79788,0,0,1,.78426-.33021,4.44842,4.44842,0,0,1,1.05256-.1032,3.80562,3.80562,0,0,1,.57788.04128,2.16739,2.16739,0,0,1,.47468.12383q.20639.08256.39213.16511a1.31669,1.31669,0,0,1,.30957.18574,1.76945,1.76945,0,0,1,.227.227q.10318.12382.18574.227a1.274,1.274,0,0,1,.14447.227,1.06152,1.06152,0,0,1,.08255.20638.80637.80637,0,0,0,.06192.16511l.04128.10319.06191-.08255.12383-.16511q.06192-.08254.18575-.227a2.46889,2.46889,0,0,1,.2683-.2683q.14447-.12382.30957-.2683a1.49384,1.49384,0,0,1,.41277-.24766q.24767-.10318.47468-.20638a1.90436,1.90436,0,0,1,.5366-.14447q.30957-.04128.63979-.06192,2.60045,0,2.82746,2.33214.02064.14446.02064,2.86874v1.7749a5.48812,5.48812,0,0,0,.04127.92873.31538.31538,0,0,0,.227.20638,7.24049,7.24049,0,0,0,1.01128.06192h.33021v.94936h-.1651l-.47469-.02064q-.49532-.02064-1.05256-.02063t-.78425-.02064a19.38448,19.38448,0,0,0-2.3115.06191H322.488v-.94936h.33021q1.25895,0,1.25895-.33022.02062-.04128.02063-2.8481-.02064-2.78617-.04127-2.95129a1.7048,1.7048,0,0,0-.41277-.86681,1.32181,1.32181,0,0,0-.49532-.35085,1.5704,1.5704,0,0,0-.5366-.04128,2.23641,2.23641,0,0,0-1.63043.70171,2.49209,2.49209,0,0,0-.70171,1.13511,8.19426,8.19426,0,0,0-.16511,1.713v2.55916q0,.61914.02064.82553a.68413.68413,0,0,0,.06192.2683.42691.42691,0,0,0,.18574.12383,7.24059,7.24059,0,0,0,1.01128.06192h.33022v.94936h-.16511l-.49532-.02064q-.47469-.02064-1.03192-.02063t-.78426-.02064a19.38448,19.38448,0,0,0-2.3115.06191h-.1651v-.94936h.33021q1.25894,0,1.25894-.33022.02064-.04128.02064-2.8481-.02064-2.78617-.04128-2.95129a1.70464,1.70464,0,0,0-.41277-.86681,1.32173,1.32173,0,0,0-.49532-.35085,1.57034,1.57034,0,0,0-.53659-.04128,2.23644,2.23644,0,0,0-1.63044.70171,2.49206,2.49206,0,0,0-.7017,1.13511,8.19358,8.19358,0,0,0-.16511,1.713v2.55916q0,.61914.02064.82553a.68436.68436,0,0,0,.06191.2683.427.427,0,0,0,.18575.12383,7.24059,7.24059,0,0,0,1.01128.06192h.33021v.94936h-.1651l-.47469-.02064q-.49532-.02064-1.05255-.02063t-.78426-.02064a19.38448,19.38448,0,0,0-2.3115.06191h-.16511v-.94936Z"/>
    <path id="MJMAIN-61-2" data-name="MJMAIN-61" class="cls-5" d="M330.57823,10.19711h-.454a1.0376,1.0376,0,0,1-.76362-.30957,1.08887,1.08887,0,0,1-.30957-.8049,1.61381,1.61381,0,0,1,.7017-1.27958,5.29767,5.29767,0,0,1,4.93258.10319,3.19614,3.19614,0,0,1,1.2383,1.56852,1.891,1.891,0,0,1,.10319.63979q0,.35085.02064,2.37341v1.44469a5.9447,5.9447,0,0,0,.10319,1.36214.43175.43175,0,0,0,.43341.37149.40906.40906,0,0,0,.41277-.33022A4.07211,4.07211,0,0,0,337.1,14.24224v-.743h.82553v.80489a6.493,6.493,0,0,1-.06191.97,1.71116,1.71116,0,0,1-.72234.97,2.18229,2.18229,0,0,1-1.13512.37149,1.21332,1.21332,0,0,1-.97-.37149,1.97754,1.97754,0,0,1-.49532-.86681V15.2948l-.04128.06191a.81992.81992,0,0,1-.10319.12383q-.06192.06192-.16511.18575a1.31411,1.31411,0,0,1-.24766.227q-.14447.10318-.30957.24766a1.284,1.284,0,0,1-.37149.227q-.20638.08256-.454.16511a3.06774,3.06774,0,0,1-.5366.12383q-.28893.04128-.63979.06191a4.01974,4.01974,0,0,1-2.22894-.63979,2.02255,2.02255,0,0,1-.99065-1.79554,2.36887,2.36887,0,0,1,.14447-.82553,2.69915,2.69915,0,0,1,.55724-.84618,3.66075,3.66075,0,0,1,.99064-.76362,7.52214,7.52214,0,0,1,1.6098-.57787,10.39867,10.39867,0,0,1,2.27022-.30958h.28894v-.454A3.15857,3.15857,0,0,0,334.19,9.47477,1.91162,1.91162,0,0,0,332.188,8.00944q-.37149,0-.7017.02064a2.11861,2.11861,0,0,0-.516.08256.67792.67792,0,0,0-.16511.06191,1.029,1.029,0,0,1,.454.90809,1.01316,1.01316,0,0,1-.33021.8049Zm-.227,4.107a1.56154,1.56154,0,0,0,.49532,1.13511,1.72912,1.72912,0,0,0,1.21766.516,2.162,2.162,0,0,0,1.38277-.47468,2.30351,2.30351,0,0,0,.8049-1.2383,11.348,11.348,0,0,0,.06192-1.36214q0-1.197-.02064-1.197-.16511,0-.43341.02064a6.60465,6.60465,0,0,0-.92873.18574,6.77576,6.77576,0,0,0-1.197.41277,2.62278,2.62278,0,0,0-.94937.76362A2.01712,2.01712,0,0,0,330.35121,14.30415Z"/>
    <path id="MJMAIN-78" class="cls-5" d="M342.21828,16.49182a16.48385,16.48385,0,0,0-2.0432-.06191,11.79329,11.79329,0,0,0-1.75426.06191H338.297v-.94936h.28893a4.11,4.11,0,0,0,.86682-.12383,5.4419,5.4419,0,0,0,.59851-.18575,2.00249,2.00249,0,0,0,.516-.35085,2.19085,2.19085,0,0,0,.37149-.37149,6.37374,6.37374,0,0,1,.43341-.5366,2.29087,2.29087,0,0,0,.41276-.57788l.94937-1.2383-1.197-1.60979q-.18574-.2683-.39213-.55724t-.33021-.43341a2.55763,2.55763,0,0,1-.227-.30957,1.432,1.432,0,0,0-.18575-.24766,1.0016,1.0016,0,0,1-.12383-.14447.44745.44745,0,0,0-.14447-.12383.4523.4523,0,0,0-.12383-.06192.57514.57514,0,0,1-.12383-.04127.47563.47563,0,0,0-.16511-.04128q-.12382,0-.743-.04128h-.57787V7.59668h.14447q.743.04126,2.12575.04127,1.91937,0,2.12575-.04127h.16511V8.546q-.743.08256-.743.33022a1.449,1.449,0,0,0,.20638.33021q.20638.28895.57788.78426t.59851.84617l.08256.08256.516-.70171A2.79167,2.79167,0,0,0,344.86,9.10328a.60611.60611,0,0,0-.04127-.227.30184.30184,0,0,0-.1032-.14447.6768.6768,0,0,1-.10319-.08256.44309.44309,0,0,0-.14447-.08255L344.406,8.546h-.10319V7.59668h.14447a17.50764,17.50764,0,0,0,2.0432.06191,10.9603,10.9603,0,0,0,1.75426-.06191h.12383V8.546h-.14447a3.54207,3.54207,0,0,0-1.67171.35085,2.2667,2.2667,0,0,0-.7017.55724q-.35086.39213-1.3415,1.73363l-.33021.4334,1.27958,1.75427q1.36214,1.85745,1.46532,1.94a.95456.95456,0,0,0,.35086.14447,5.41175,5.41175,0,0,0,1.09383.08256h.35085v.94936h-.28894a3.422,3.422,0,0,0-.41276-.02064q-.24767,0-.516-.02063a3.22837,3.22837,0,0,0-.516,0,.99075.99075,0,0,1-.37149-.02064h-.76362q-.53661,0-1.03192.04127l-.47469.02064h-.18574v-.94936h.06191a1.08918,1.08918,0,0,0,.454-.1032q.227-.10319.227-.24766,0-.04126-.82554-1.17638l-.84617-1.13512q-.02064.02064-.63979.86682t-.7017.92872a.45144.45144,0,0,0-.08256.28894.57587.57587,0,0,0,.14447.39213.53989.53989,0,0,0,.37149.18575q.04128,0,.04128.47468v.47468Z"/>
    <path id="MJMATHI-61-2" data-name="MJMATHI-61" class="cls-5" d="M311.99315,30.86429a4.31191,4.31191,0,0,1,1.10894-2.80153,3.26527,3.26527,0,0,1,2.49512-1.34241,1.65418,1.65418,0,0,1,1.31322.715.73012.73012,0,0,1,.67121-.43774.5221.5221,0,0,1,.3356.11673.35934.35934,0,0,1,.14591.29183q0,.18967-.53988,2.33461t-.55447,2.42216a.78065.78065,0,0,0,.10214.48152.42863.42863,0,0,0,.30642.13132.634.634,0,0,0,.29182-.13132,3.30861,3.30861,0,0,0,.59825-1.40077q.08754-.29183.14591-.30642a.42681.42681,0,0,1,.14592-.01459h.05836q.27723,0,.27724.13132a2.31737,2.31737,0,0,1-.073.394,4.57726,4.57726,0,0,1-.29183.78793,2.48579,2.48579,0,0,1-.46692.72957,1.443,1.443,0,0,1-.46692.30642,1.55591,1.55591,0,0,1-.35019.02918,1.49146,1.49146,0,0,1-.83171-.21887,1.12018,1.12018,0,0,1-.43774-.45233L315.889,32.411q-.0146-.0146-.05836.01459l-.05837.05836a2.5582,2.5582,0,0,1-1.751.81712,1.99133,1.99133,0,0,1-1.41536-.58366A2.45873,2.45873,0,0,1,311.99315,30.86429Zm4.64-2.49512a1.321,1.321,0,0,0-.073-.321,1.3872,1.3872,0,0,0-.3356-.51069.93268.93268,0,0,0-.6712-.29183,1.40026,1.40026,0,0,0-.97762.45233,3.05321,3.05321,0,0,0-.72957,1.1819,11.64891,11.64891,0,0,0-.59824,2.393v.16051a.7782.7782,0,0,1-.01459.17509,1.22543,1.22543,0,0,0,.26264.90467.93979.93979,0,0,0,.62743.26264,1.64768,1.64768,0,0,0,1.09435-.48151,2.4536,2.4536,0,0,0,.642-.74416q.02917-.05837.394-1.56128T316.6332,28.36917Z"/>
    <g>
      <path id="MJMATHI-51-2" data-name="MJMATHI-51" class="cls-5" d="M360.64836,18.14289q0-.68106.02064-1.03192a2.03845,2.03845,0,0,1,.04128-.39213v-.08255l-.30958.08255a7.50766,7.50766,0,0,1-1.73362.227,5.06474,5.06474,0,0,1-5.20088-4.60236q-.02064-.16512-.02064-.88745a8.538,8.538,0,0,1,.99065-4.00385,11.55911,11.55911,0,0,1,2.66235-3.36406,8.04991,8.04991,0,0,1,5.139-2.12575q.78426,0,.99064.02063a4.91352,4.91352,0,0,1,3.21959,1.77491,5.81883,5.81883,0,0,1,1.2383,3.75618,9.39044,9.39044,0,0,1-3.05448,6.76939,9.89805,9.89805,0,0,1-2.70363,1.8781l-.35085.16511v.10319q0,.02064.10319.55723a1.62412,1.62412,0,0,0,.43341.86682,1.285,1.285,0,0,0,.94936.33021,2.4045,2.4045,0,0,0,1.38278-.454,2.09979,2.09979,0,0,0,.86681-1.17639q.12383-.28895.2683-.28894a.21227.21227,0,0,1,.227.18575,3.08734,3.08734,0,0,1-.20638.743q-.20638.57787-.57788,1.36213a3.58283,3.58283,0,0,1-1.11447,1.3415,2.81645,2.81645,0,0,1-1.56852.59851q-1.69234,0-1.69235-2.20831Zm4.8913-11.30983a5.76088,5.76088,0,0,0-.30958-1.98129,2.71293,2.71293,0,0,0-.84617-1.25894,4.65308,4.65308,0,0,0-1.03192-.61915,2.817,2.817,0,0,0-1.09383-.20639,4.50253,4.50253,0,0,0-2.02257.516,7.43056,7.43056,0,0,0-3.38469,3.63236,11.62182,11.62182,0,0,0-1.27958,5.11832,4.26249,4.26249,0,0,0,1.11447,3.24023,1.93856,1.93856,0,0,0,.59851.4334v-.1651a2.15863,2.15863,0,0,1,.68107-1.52724,2.24357,2.24357,0,0,1,1.6098-.72235,1.66928,1.66928,0,0,1,.88745.227,1.4271,1.4271,0,0,1,.55723.61916,3.39777,3.39777,0,0,1,.24766.66042q.06192.2683.12383.55724l.2683-.18574a7.64337,7.64337,0,0,0,2.24959-2.49725,11.26765,11.26765,0,0,0,1.27958-3.07512A12.08043,12.08043,0,0,0,365.53966,6.83306Zm-6.64556,9.28727a4.09642,4.09642,0,0,0,1.85745-.43341l-.02063-.20638q-.08256-1.13511-.76363-1.36213a2.52628,2.52628,0,0,0-.39212-.04128h-.12383a.11953.11953,0,0,1-.08256-.02064,1.257,1.257,0,0,0-.84617.41277,1.35247,1.35247,0,0,0-.454.94937Q358.06856,16.12033,358.8941,16.12033Z"/>
      <g>
        <path id="MJMATHI-3C0-2" data-name="MJMATHI-3C0" class="cls-5" d="M370.66467,8.14931a.43217.43217,0,0,1-.49611-.48151V7.50729l.18969-.40856a28.27409,28.27409,0,0,0,1.59046-3.98343l.11673-.35019h-.46693a4.86516,4.86516,0,0,0-.78793.04377,1.57851,1.57851,0,0,0-.56906.27723,1.90659,1.90659,0,0,0-.321.26265,3.75924,3.75924,0,0,0-.27724.30642,1.7982,1.7982,0,0,0-.13132.17509.83183.83183,0,0,1-.21887.01459q-.27723,0-.27723-.14591a1.76176,1.76176,0,0,1,.27723-.5107,4.9618,4.9618,0,0,1,.80253-.90466,1.98374,1.98374,0,0,1,1.036-.55447q.10213-.02919,3.28305-.02918,2.33461,0,2.393.01459a.39837.39837,0,0,1,.29183.40856.6094.6094,0,0,1-.46692.61283,7.91168,7.91168,0,0,1-1.00681.02919h-.93384l-.04378.24805a10.95191,10.95191,0,0,0-.17509,1.73637,6.35758,6.35758,0,0,0,.13132,1.357,5.272,5.272,0,0,0,.27724.93385,1.70159,1.70159,0,0,1,.14591.40856.6762.6762,0,0,1-.20428.46692.68634.68634,0,0,1-.52529.21887.67226.67226,0,0,1-.26264-.04378q-.10215-.04377-.23346-.35019a4.21518,4.21518,0,0,1-.23347-.87548q-.01458-.13132-.01459-.642a9.68341,9.68341,0,0,1,.13133-1.53209q.13131-.81711.26264-1.3424l.14591-.58365h-1.43l-.01459.05836q0,.04377-.27724,1.15272t-.62742,2.3492a10.87358,10.87358,0,0,1-.45233,1.41536A.61354.61354,0,0,1,370.66467,8.14931Z"/>
        <path id="MJMAIN-31-2" data-name="MJMAIN-31" class="cls-5" d="M379.25387,4.2223l-.13415.0516a2.95887,2.95887,0,0,1-.41277.10319,4.75817,4.75817,0,0,1-.59851.07223h-.19607V3.97464h.19607a3.356,3.356,0,0,0,.89777-.15479,2.4369,2.4369,0,0,0,.57787-.24766,2.64426,2.64426,0,0,0,.28894-.227q.02064-.031.12383-.031a.28741.28741,0,0,1,.17543.06192V6.46156l.01032,3.09576a.40854.40854,0,0,0,.12383.09288,1.22469,1.22469,0,0,0,.24766.04127q.19607.02064.63979.02064h.2683v.47468h-.11351q-.2167-.03095-1.64076-.031-1.4034,0-1.62011.031H377.964V9.71211h.66043a2.47821,2.47821,0,0,0,.258-.01032,1.0106,1.0106,0,0,0,.16511-.031A.619.619,0,0,1,379.13,9.6502q.01032,0,.06191-.0516t.06192-.04128Z"/>
      </g>
    </g>
    <path id="MJMAIN-28-2" data-name="MJMAIN-28" class="cls-5" d="M387.70529,11.33222a16.97628,16.97628,0,0,1,.20638-2.70362,18.914,18.914,0,0,1,.47469-2.20831A8.64142,8.64142,0,0,1,389.15,4.60411q.49531-.88745.78426-1.38277a5.48128,5.48128,0,0,1,.86681-1.0732q.57788-.57788.68107-.7017a3.7183,3.7183,0,0,1,.516-.43341h.35085q.28893,0,.28894.18575a1.66769,1.66769,0,0,1-.35086.4334,9.369,9.369,0,0,0-.84617,1.09384,14.27694,14.27694,0,0,0-1.01128,1.7749,11.74085,11.74085,0,0,0-.86681,2.8481,20.8294,20.8294,0,0,0-.35086,3.9832,20.50566,20.50566,0,0,0,.35086,3.96258,13.40385,13.40385,0,0,0,.84617,2.86873,9.34683,9.34683,0,0,0,1.01128,1.7749q.516.68107.86681,1.09384a4.66355,4.66355,0,0,1,.35086.4334q0,.18575-.30958.18575h-.33021l-.57788-.49532a10.185,10.185,0,0,1-2.82746-4.37534A16.87406,16.87406,0,0,1,387.70529,11.33222Z"/>
    <path id="MJMATHI-73-2" data-name="MJMATHI-73" class="cls-5" d="M396.51788,10.52733a3.05841,3.05841,0,0,1,.33022-1.3415,3.39535,3.39535,0,0,1,1.15575-1.25894,3.29759,3.29759,0,0,1,2.00192-.55724,2.60751,2.60751,0,0,1,1.85746.55724,1.76822,1.76822,0,0,1,.59851,1.2383,1.22912,1.22912,0,0,1-.35085.97,1.25041,1.25041,0,0,1-.78426.33021.82432.82432,0,0,1-.49532-.1651.6677.6677,0,0,1-.24766-.5366.93653.93653,0,0,1,.18574-.57788,1.85415,1.85415,0,0,1,.35085-.37149.49953.49953,0,0,1,.2683-.12383.01824.01824,0,0,0,.02064-.02064q0-.0619-.14447-.18574a1.40967,1.40967,0,0,0-.516-.227,3.65207,3.65207,0,0,0-.80489-.12383,1.74565,1.74565,0,0,0-1.91937,1.63044.7461.7461,0,0,0,.39212.72234,4.2801,4.2801,0,0,0,1.13512.35085,4.523,4.523,0,0,1,1.07319.30958,2.03969,2.03969,0,0,1,1.36214,1.98128,3.14057,3.14057,0,0,1-.227,1.15575,4.61646,4.61646,0,0,1-.68106,1.15575,2.98564,2.98564,0,0,1-1.30022.90809,5.604,5.604,0,0,1-1.94.35086,3.33829,3.33829,0,0,1-2.24958-.59852,1.90941,1.90941,0,0,1-.68107-1.40341,1.40361,1.40361,0,0,1,.4334-1.15575,1.42509,1.42509,0,0,1,.90809-.35085.99575.99575,0,0,1,.57788.18575.76835.76835,0,0,1,.28894.63979,1.23523,1.23523,0,0,1-.37149.90808,1.01643,1.01643,0,0,1-.63979.3715.15852.15852,0,0,1-.06192.02063q-.02064,0-.02064.04128a.44612.44612,0,0,0,.16511.16511,2.88136,2.88136,0,0,0,.63979.2683,4.05913,4.05913,0,0,0,2.41469-.08256,1.773,1.773,0,0,0,.78426-.57787,2.73957,2.73957,0,0,0,.35085-.63979,1.55655,1.55655,0,0,0,.10319-.516.97227.97227,0,0,0-.4334-.86681,2.19387,2.19387,0,0,0-.99065-.35086,5.10779,5.10779,0,0,1-1.21766-.30957,1.90989,1.90989,0,0,1-.97-.72235A2.07732,2.07732,0,0,1,396.51788,10.52733Z"/>
    <path id="MJMAIN-2C-2" data-name="MJMAIN-2C" class="cls-5" d="M405.10345,15.76948v-.516a1.29058,1.29058,0,0,1,.33022-.88745,1.128,1.128,0,0,1,.88745-.37149,1.34908,1.34908,0,0,1,1.03192.516,2.84925,2.84925,0,0,1,.47468,1.81618,5.30978,5.30978,0,0,1-.18574,1.40341,6.41706,6.41706,0,0,1-.43341,1.17638,4.47551,4.47551,0,0,1-.5366.84618q-.28893.35085-.49532.55723t-.2683.18575q-.08256,0-.2683-.18575t-.18574-.26829q0-.08256.227-.33022t.516-.61915a3.961,3.961,0,0,0,.5366-1.03192,5.92883,5.92883,0,0,0,.33021-1.5066v-.24766l-.02064.02064a.80218.80218,0,0,1-.10319.04127.52089.52089,0,0,0-.12383.06192.33782.33782,0,0,1-.18575.04127,1.504,1.504,0,0,0-.24766.02064,1.22875,1.22875,0,0,1-.90809-.35085Z"/>
    <path id="MJMATHI-61-3" data-name="MJMATHI-61" class="cls-5" d="M413.35881,13.25159A6.0989,6.0989,0,0,1,414.92733,9.289a4.61844,4.61844,0,0,1,3.52916-1.89873A2.33976,2.33976,0,0,1,420.314,8.40157a1.03268,1.03268,0,0,1,.94936-.61915.73846.73846,0,0,1,.47469.16511.50825.50825,0,0,1,.20638.41277q0,.26829-.76362,3.30214t-.78426,3.426a1.10416,1.10416,0,0,0,.14447.68107.60622.60622,0,0,0,.4334.18574.89661.89661,0,0,0,.41277-.18574,4.67981,4.67981,0,0,0,.84618-1.98129q.12383-.41277.20638-.4334a.60361.60361,0,0,1,.20638-.02064h.08256q.39213,0,.39213.18574a3.2783,3.2783,0,0,1-.10319.55724,6.47529,6.47529,0,0,1-.41277,1.11447,3.51613,3.51613,0,0,1-.66043,1.03192,2.04068,2.04068,0,0,1-.66043.43341,2.2001,2.2001,0,0,1-.49532.04128,2.10959,2.10959,0,0,1-1.17639-.30958,1.58445,1.58445,0,0,1-.61915-.63979l-.12383-.30958q-.02064-.02063-.08255.02064l-.08256.08256a3.61839,3.61839,0,0,1-2.4766,1.15575,2.81663,2.81663,0,0,1-2.00193-.82554A3.47775,3.47775,0,0,1,413.35881,13.25159Zm6.563-3.52916a1.86819,1.86819,0,0,0-.1032-.454,1.96209,1.96209,0,0,0-.47468-.72235,1.31923,1.31923,0,0,0-.94936-.41277,1.98057,1.98057,0,0,0-1.38278.63979,4.31865,4.31865,0,0,0-1.03192,1.67171,16.4774,16.4774,0,0,0-.84617,3.3847v.227a1.1,1.1,0,0,1-.02064.24766,1.73328,1.73328,0,0,0,.37149,1.27958,1.32914,1.32914,0,0,0,.88745.37149,2.33049,2.33049,0,0,0,1.54788-.68106,3.47043,3.47043,0,0,0,.90809-1.05256q.04128-.08256.55724-2.20831T419.92182,9.72243Z"/>
    <path id="MJMAIN-29-2" data-name="MJMAIN-29" class="cls-5" d="M424.85439,1.03367,424.937,1.013h.454l.57788.49532a10.18494,10.18494,0,0,1,2.82745,4.37534,16.87378,16.87378,0,0,1,.88746,5.44853,17.22916,17.22916,0,0,1-.20639,2.70363,17.74557,17.74557,0,0,1-.47468,2.20831,9.296,9.296,0,0,1-.76362,1.81618q-.49533.90808-.78426,1.38277a6.2782,6.2782,0,0,1-.84617,1.05256q-.55725.57787-.66043.68107t-.47469.39213l-.08255.08255h-.47468a.12126.12126,0,0,1-.10319-.06192.48577.48577,0,0,1-.06192-.18574q.02064-.02064.227-.2683,3.199-3.32278,3.19895-9.80324T424.97822,1.529q-.20639-.24767-.227-.2683A.24258.24258,0,0,1,424.85439,1.03367Z"/>
  </g>
  <g>
    <path id="MJMATHI-56" class="cls-5" d="M2.10722,7.50506a1.24062,1.24062,0,0,1,.341-.91811h.28855q1.10174.07871,2.75433.0787,3.09536,0,3.64622-.0787h.26232q.15738.1574.15739.23609t-.05247.47217a1.44473,1.44473,0,0,1-.23608.4984H8.71763q-.57709.05247-.78695.05247-.76072.13116-.83942.39347,0,.05247.76072,6.58418t.787,6.58418l1.91492-3.06912q1.91492-3.06912,3.82984-6.1907t1.96738-3.22651A.78027.78027,0,0,0,16.456,8.5281q0-.62955-1.1542-.73449-.47217,0-.47217-.28855,0-.02622.05246-.341a1.41153,1.41153,0,0,1,.15739-.47217.41644.41644,0,0,1,.341-.10493h.31478q.26232,0,.89188.02623t1.67884.02624q1.81,0,2.28216-.05247h.18363q.18361.18363.18362.28855a1.60455,1.60455,0,0,1-.23609.83942.75063.75063,0,0,1-.44594.07869q-.341.02623-.62956.05247a1.95033,1.95033,0,0,0-.55087.13116q-.26232.10492-.41971.18362a1.6425,1.6425,0,0,0-.31478.20985,1.46727,1.46727,0,0,1-.26232.18363.57012.57012,0,0,0-.20985.23608q-.10492.18363-.18362.18362L12.59993,17.1059Q7.87822,24.73934,7.72082,24.923q-.07869.05247-.18362.13116l-.47217.02624H6.88141q-.47217,0-.47218-.18363-.07869-.15738-1.023-8.39417-.99681-8.34169-1.023-8.4204Q4.232,7.79362,2.73679,7.79361H2.29085A.36338.36338,0,0,1,2.10722,7.50506Z"/>
    <path id="MJMAIN-2217" class="cls-5" d="M26.6332,8.3869q-.24109-2.48516-.24109-2.78188,0-.33383.4451-.51929h.09273a.25836.25836,0,0,0,.11127-.01854.74059.74059,0,0,1,.408.16691.4567.4567,0,0,1,.18546.37092q0,.31527-.11128,1.48367T27.39358,8.3869L28.46924,7.608q1.03857-.76038,1.1313-.816a.35784.35784,0,0,1,.18546-.05563.6492.6492,0,0,1,.4451.18545.70249.70249,0,0,1,.22255.50074.58636.58636,0,0,1-.18546.42656q-.09273.05563-1.26112.612T27.746,9.05455l1.224.57492,1.29821.64911a.57761.57761,0,0,1,.16691.42655.66722.66722,0,0,1-.16691.46365.62923.62923,0,0,1-.4451.204.66519.66519,0,0,1-.33383-.11127q-.18545-.11129-1.02-.74184l-1.07566-.77892q.2411,2.48514.2411,2.78188a.56526.56526,0,0,1-.12982.35237.78.78,0,0,1-.96439,0,.67887.67887,0,0,1-.14836-.35237q0-.31528.11127-1.48367t.12982-1.29821l-1.07566.77892q-1.03857.76038-1.1313.816a.3004.3004,0,0,1-.18546.05564.64918.64918,0,0,1-.4451-.18546.70251.70251,0,0,1-.22255-.50074v-.14837a.1603.1603,0,0,1,.05564-.11127.73663.73663,0,0,0,.09273-.11128.51339.51339,0,0,1,.16691-.12982q.12982-.07418.2411-.12982t.35237-.16691q.2411-.11127.46365-.204t.59347-.27818l.74183-.37092L23.75859,7.84907a.57767.57767,0,0,1-.16691-.42656.66722.66722,0,0,1,.16691-.46364.6293.6293,0,0,1,.4451-.204.66511.66511,0,0,1,.33383.11128q.18546.11127,1.02.74183Z"/>
    <path id="MJMAIN-28-3" data-name="MJMAIN-28" class="cls-5" d="M36.7594,17.94531a21.57573,21.57573,0,0,1,.26232-3.43636,24.04187,24.04187,0,0,1,.60333-2.8068,10.98422,10.98422,0,0,1,.97058-2.3084q.62955-1.128.9968-1.75753a6.96727,6.96727,0,0,1,1.10174-1.364q.73449-.73449.86565-.89188a4.7272,4.7272,0,0,1,.65579-.55087h.44594q.36725,0,.36725.23609a2.1197,2.1197,0,0,1-.44594.55087,11.90882,11.90882,0,0,0-1.07551,1.39028A18.1478,18.1478,0,0,0,40.222,9.26259a14.92318,14.92318,0,0,0-1.10174,3.62,26.47581,26.47581,0,0,0-.44594,5.06273,26.06407,26.06407,0,0,0,.44594,5.0365,17.03664,17.03664,0,0,0,1.0755,3.64622A11.88044,11.88044,0,0,0,41.48112,28.884q.6558.86565,1.10174,1.39029a5.927,5.927,0,0,1,.44594.55086q0,.2361-.39348.23609h-.41971l-.73449-.62956a12.94517,12.94517,0,0,1-3.59375-5.56114A21.44706,21.44706,0,0,1,36.7594,17.94531Z"/>
    <path id="MJMATHI-73-3" data-name="MJMATHI-73" class="cls-5" d="M47.93414,16.92227a3.88731,3.88731,0,0,1,.41971-1.70506,4.31548,4.31548,0,0,1,1.469-1.60014,4.19122,4.19122,0,0,1,2.54448-.70826,3.31417,3.31417,0,0,1,2.36086.70826,2.24745,2.24745,0,0,1,.76072,1.57391,1.56221,1.56221,0,0,1-.44594,1.23289,1.58923,1.58923,0,0,1-.99681.41971,1.04772,1.04772,0,0,1-.62956-.20986.84866.84866,0,0,1-.31478-.682,1.19033,1.19033,0,0,1,.23608-.73449,2.35648,2.35648,0,0,1,.44594-.47217.63486.63486,0,0,1,.341-.1574.02318.02318,0,0,0,.02623-.02623q0-.07869-.18362-.23608a1.79182,1.79182,0,0,0-.6558-.28855,4.64086,4.64086,0,0,0-1.023-.15739,2.21875,2.21875,0,0,0-2.43955,2.07231.9483.9483,0,0,0,.4984.91811,5.44046,5.44046,0,0,0,1.44275.44594,5.7477,5.7477,0,0,1,1.364.39348,2.59247,2.59247,0,0,1,1.7313,2.51825,3.99169,3.99169,0,0,1-.28855,1.469,5.86792,5.86792,0,0,1-.86565,1.469,3.79468,3.79468,0,0,1-1.6526,1.15419,7.12258,7.12258,0,0,1-2.46579.44594,4.24306,4.24306,0,0,1-2.85926-.76072,2.42692,2.42692,0,0,1-.86565-1.78376,1.784,1.784,0,0,1,.55087-1.469,1.81128,1.81128,0,0,1,1.1542-.44594,1.26573,1.26573,0,0,1,.73449.23609.97657.97657,0,0,1,.36724.81318,1.57,1.57,0,0,1-.47217,1.1542,1.29189,1.29189,0,0,1-.81319.47217.20123.20123,0,0,1-.07869.02623q-.02623,0-.02623.05247a.56693.56693,0,0,0,.20985.20985,3.66247,3.66247,0,0,0,.81319.341,5.15935,5.15935,0,0,0,3.06911-.10493,2.25353,2.25353,0,0,0,.99681-.73449,3.48248,3.48248,0,0,0,.44594-.81319,1.97851,1.97851,0,0,0,.13116-.65579,1.2358,1.2358,0,0,0-.55087-1.10174,2.78851,2.78851,0,0,0-1.25912-.44594,6.49212,6.49212,0,0,1-1.54768-.39347,2.4276,2.4276,0,0,1-1.23289-.91811A2.64046,2.64046,0,0,1,47.93414,16.92227Z"/>
    <path id="MJMAIN-29-3" data-name="MJMAIN-29" class="cls-5" d="M58.40062,4.85566l.10492-.02624h.5771l.73449.62957a12.94509,12.94509,0,0,1,3.59376,5.56113,21.44737,21.44737,0,0,1,1.128,6.92519,21.89966,21.89966,0,0,1-.26231,3.43636,22.552,22.552,0,0,1-.60334,2.8068,11.81423,11.81423,0,0,1-.97057,2.3084q-.62956,1.1542-.99681,1.75753a7.97971,7.97971,0,0,1-1.0755,1.33782q-.70825.73449-.83942.86565t-.60333.4984l-.10493.10493h-.60333a.15416.15416,0,0,1-.13116-.07869.61771.61771,0,0,1-.07869-.23609q.02623-.02624.28855-.341,4.06593-4.22332,4.06592-12.4601T58.558,5.48522q-.26232-.31479-.28855-.341A.30829.30829,0,0,1,58.40062,4.85566Z"/>
  </g>
</svg>
