<svg id="Layer_1" data-name="Layer 1" xmlns="http://www.w3.org/2000/svg" viewBox="0 0 795.97746 143.02764">
  <defs>
    <style>
      .cls-1 {
        fill: #010101;
      }

      .cls-2 {
        fill: #e7ebe8;
      }

      .cls-3 {
        fill: #fff;
      }

      .cls-4, .cls-6 {
        fill: #70a8da;
      }

      .cls-5 {
        fill: #231f20;
      }

      .cls-6, .cls-8 {
        opacity: 0.5;
      }

      .cls-7, .cls-8 {
        fill: #ef4136;
      }

      .cls-9 {
        font-size: 15.2726px;
        fill: #6d6e71;
        font-family: Roboto-Bold, Roboto;
      }

      .cls-10 {
        font-weight: 700;
      }

      .cls-11 {
        font-family: Roboto-Regular, Roboto;
      }

      .cls-12 {
        letter-spacing: -0.00729em;
      }

      .cls-13 {
        letter-spacing: -0.00006em;
      }

      .cls-14 {
        letter-spacing: -0.00927em;
      }

      .cls-15 {
        letter-spacing: -0.0142em;
      }

      .cls-16 {
        letter-spacing: -0.07865em;
      }
    </style>
  </defs>
  <title>q-learning-2</title>
  <g>
    <path id="MJMATHI-56" class="cls-1" d="M712.73718,21.47249a1.24062,1.24062,0,0,1,.341-.91811h.28855q1.10173.07869,2.75433.07869,3.09536,0,3.64622-.07869h.26232q.15738.1574.15739.23609t-.05247.47217a1.445,1.445,0,0,1-.23608.4984h-.55087q-.57709.05247-.78695.05246-.76072.13116-.83942.39348,0,.05247.76072,6.58418t.787,6.58417l1.91492-3.06911q1.91492-3.06912,3.82983-6.1907T726.981,22.889a.7803.7803,0,0,0,.10493-.39348q0-.62956-1.1542-.73449-.47217,0-.47218-.28855,0-.02624.05247-.341a1.41153,1.41153,0,0,1,.15739-.47217.4164.4164,0,0,1,.341-.10493h.31478q.26232,0,.89188.02623t1.67884.02623q1.81,0,2.28216-.05246h.18362q.18363.18362.18363.28855a1.60455,1.60455,0,0,1-.23609.83942.75063.75063,0,0,1-.44594.07869q-.341.02623-.62956.05246a1.95067,1.95067,0,0,0-.55087.13116q-.26232.10494-.41971.18363a1.6425,1.6425,0,0,0-.31478.20985,1.46659,1.46659,0,0,1-.26232.18362.57016.57016,0,0,0-.20985.23609q-.10493.18361-.18362.18362l-5.06274,8.13185q-4.72171,7.63346-4.87911,7.81707-.07869.05247-.18362.13116l-.47217.02623h-.18362q-.47217,0-.47218-.18362-.07869-.15739-1.023-8.39417-.99681-8.34171-1.023-8.4204-.13116-.28855-1.62637-.28855h-.44594A.36339.36339,0,0,1,712.73718,21.47249Z"/>
    <path id="MJMAIN-2217" class="cls-1" d="M737.26316,22.35432q-.24109-2.48514-.2411-2.78188,0-.33383.44511-.51928h.09272a.25821.25821,0,0,0,.11128-.01855.74068.74068,0,0,1,.408.16692.4567.4567,0,0,1,.18546.37091q0,.31529-.11128,1.48367t-.12982,1.29821l1.07566-.77892q1.03857-.76038,1.1313-.816a.35786.35786,0,0,1,.18546-.05564.64916.64916,0,0,1,.4451.18546.70247.70247,0,0,1,.22255.50074.58632.58632,0,0,1-.18546.42655q-.09273.05565-1.26112.612t-1.26112.59347l1.224.57492,1.29821.6491a.57763.57763,0,0,1,.16691.42656.66718.66718,0,0,1-.16691.46364.62924.62924,0,0,1-.4451.204.66511.66511,0,0,1-.33383-.11128q-.18545-.11127-1.02-.74183l-1.07566-.77893q.24109,2.48516.2411,2.78188a.56524.56524,0,0,1-.12982.35237.77994.77994,0,0,1-.96439,0,.67893.67893,0,0,1-.14837-.35237q0-.31527.11128-1.48367t.12982-1.29821l-1.07566.77893q-1.03857.76038-1.1313.816a.3004.3004,0,0,1-.18546.05564.64918.64918,0,0,1-.4451-.18546.70253.70253,0,0,1-.22255-.50074v-.14837a.1603.1603,0,0,1,.05564-.11127.73762.73762,0,0,0,.09273-.11128.51339.51339,0,0,1,.16691-.12982q.12982-.07419.2411-.12982t.35237-.16691q.24109-.11129.46365-.204t.59346-.27819l.74184-.37091-2.52224-1.20549a.57765.57765,0,0,1-.16691-.42655.66726.66726,0,0,1,.16691-.46365.62925.62925,0,0,1,.4451-.204.66519.66519,0,0,1,.33383.11127q.18546.11129,1.02.74184Z"/>
    <path id="MJMAIN-28" class="cls-1" d="M747.38936,31.91274a21.57564,21.57564,0,0,1,.26232-3.43636,24.04187,24.04187,0,0,1,.60333-2.8068,10.984,10.984,0,0,1,.97058-2.3084q.62955-1.128.9968-1.75753a6.96727,6.96727,0,0,1,1.10174-1.364q.73449-.73449.86565-.89188a4.7272,4.7272,0,0,1,.65579-.55087h.44594q.36724,0,.36725.23609a2.11975,2.11975,0,0,1-.44594.55086,11.90821,11.90821,0,0,0-1.07551,1.39029A18.14707,18.14707,0,0,0,750.852,23.23a14.923,14.923,0,0,0-1.10174,3.62,26.47581,26.47581,0,0,0-.44594,5.06273,26.06415,26.06415,0,0,0,.44594,5.0365,17.03664,17.03664,0,0,0,1.0755,3.64622,11.88022,11.88022,0,0,0,1.28536,2.25593q.6558.86565,1.10174,1.39028a5.92609,5.92609,0,0,1,.44594.55087q0,.23609-.39348.23609h-.41971l-.73449-.62957a12.945,12.945,0,0,1-3.59375-5.56113A21.44711,21.44711,0,0,1,747.38936,31.91274Z"/>
    <path id="MJMATHI-73" class="cls-1" d="M758.5641,30.8897a3.88735,3.88735,0,0,1,.41971-1.70507,4.31545,4.31545,0,0,1,1.469-1.60013,4.19122,4.19122,0,0,1,2.54448-.70826,3.31412,3.31412,0,0,1,2.36086.70826,2.24743,2.24743,0,0,1,.76072,1.5739,1.56223,1.56223,0,0,1-.44594,1.2329,1.58922,1.58922,0,0,1-.99681.4197,1.04778,1.04778,0,0,1-.62956-.20985.84866.84866,0,0,1-.31478-.682,1.19037,1.19037,0,0,1,.23608-.73449,2.35675,2.35675,0,0,1,.44594-.47217.63483.63483,0,0,1,.341-.15739.02319.02319,0,0,0,.02623-.02623q0-.07869-.18362-.23609a1.792,1.792,0,0,0-.6558-.28855,4.64145,4.64145,0,0,0-1.023-.15739,2.21876,2.21876,0,0,0-2.43955,2.07231.9483.9483,0,0,0,.4984.91812,5.44083,5.44083,0,0,0,1.44275.44594,5.74827,5.74827,0,0,1,1.36405.39347,2.59249,2.59249,0,0,1,1.7313,2.51825,3.99169,3.99169,0,0,1-.28855,1.469,5.86792,5.86792,0,0,1-.86565,1.469,3.7947,3.7947,0,0,1-1.6526,1.1542,7.12281,7.12281,0,0,1-2.46579.44594,4.24306,4.24306,0,0,1-2.85926-.76072,2.42694,2.42694,0,0,1-.86565-1.78376,1.784,1.784,0,0,1,.55087-1.469,1.81127,1.81127,0,0,1,1.15419-.44594,1.26567,1.26567,0,0,1,.73449.23608.97659.97659,0,0,1,.36725.81319,1.57,1.57,0,0,1-.47217,1.1542,1.29189,1.29189,0,0,1-.81319.47217.20128.20128,0,0,1-.07869.02623q-.02624,0-.02623.05247a.56685.56685,0,0,0,.20985.20985,3.66218,3.66218,0,0,0,.81318.341,5.15927,5.15927,0,0,0,3.06912-.10492,2.25353,2.25353,0,0,0,.99681-.73449,3.48268,3.48268,0,0,0,.44594-.81319,1.97856,1.97856,0,0,0,.13116-.65579,1.2358,1.2358,0,0,0-.55087-1.10174,2.78839,2.78839,0,0,0-1.25912-.44594,6.49158,6.49158,0,0,1-1.54768-.39348,2.42754,2.42754,0,0,1-1.23289-.91811A2.64033,2.64033,0,0,1,758.5641,30.8897Z"/>
    <path id="MJMAIN-29" class="cls-1" d="M769.03058,18.82308l.10492-.02623h.5771l.73449.62956a12.94519,12.94519,0,0,1,3.59376,5.56114,21.44733,21.44733,0,0,1,1.128,6.92519,21.89975,21.89975,0,0,1-.26231,3.43636,22.552,22.552,0,0,1-.60334,2.8068,11.81448,11.81448,0,0,1-.97057,2.3084q-.62956,1.15419-.99681,1.75753a7.97971,7.97971,0,0,1-1.0755,1.33782q-.70826.73449-.83942.86565t-.60333.4984l-.10493.10493h-.60333a.15415.15415,0,0,1-.13116-.0787.61766.61766,0,0,1-.07869-.23608q.02624-.02624.28855-.341,4.06592-4.22331,4.06592-12.46009T769.188,19.45264q-.26232-.31478-.28855-.341A.30832.30832,0,0,1,769.03058,18.82308Z"/>
  </g>
  <g>
    <path id="MJMAIN-6D" class="cls-1" d="M301.38654,35.62858h.30238q.84236,0,1.01514-.30238V33.98708q0-.36718.0216-.84235t0-.90715V30.81207q0-.756-.0216-1.27432V29.041a.691.691,0,0,0-.30238-.54,2.89975,2.89975,0,0,0-.97194-.19439H301.041v-.49676q0-.49677.0432-.49677l.216-.0216q.216-.0216.60476-.0432t.79915-.0432q.36718-.0216.77755-.04319a4.67428,4.67428,0,0,0,.62637-.0648q.216-.0432.23758-.0216h.0648v.86395a5.868,5.868,0,0,0,.0216.82075q.02158,0,.108-.108l.25918-.324a2.11364,2.11364,0,0,1,.41038-.38877q.23758-.1728.62636-.41038a2.92842,2.92842,0,0,1,.82075-.34558,4.656,4.656,0,0,1,1.10153-.108,3.98245,3.98245,0,0,1,.60476.0432,2.26756,2.26756,0,0,1,.49677.12959q.216.0864.41038.17279a1.37824,1.37824,0,0,1,.324.19439,1.8516,1.8516,0,0,1,.23758.23758q.108.1296.19439.23759a1.33269,1.33269,0,0,1,.15119.23758,1.11109,1.11109,0,0,1,.0864.216.84464.84464,0,0,0,.06479.17279l.0432.108.0648-.08639.12959-.17279q.0648-.0864.19439-.23759a2.58557,2.58557,0,0,1,.28078-.28078q.15118-.12959.324-.28078a1.56309,1.56309,0,0,1,.432-.25919q.25919-.108.49677-.216a1.99259,1.99259,0,0,1,.56157-.15119q.324-.0432.66956-.0648,2.72144,0,2.959,2.44065.0216.15119.0216,3.00222v1.85748a5.74332,5.74332,0,0,0,.04319.97194.33.33,0,0,0,.23759.216,7.57756,7.57756,0,0,0,1.05833.0648h.34558v.99354h-.17279l-.49677-.0216q-.51836-.0216-1.10153-.0216t-.82075-.0216a20.28254,20.28254,0,0,0-2.41905.0648h-.17279v-.99354h.34558q1.31753,0,1.31752-.34558.0216-.0432.0216-2.98062-.0216-2.91582-.0432-3.08861a1.784,1.784,0,0,0-.432-.90715,1.38319,1.38319,0,0,0-.51837-.36717,1.64349,1.64349,0,0,0-.56157-.0432,2.3405,2.3405,0,0,0-1.70629.73436,2.60807,2.60807,0,0,0-.73436,1.18792,8.57571,8.57571,0,0,0-.17279,1.79269v2.67824q0,.648.0216.864a.716.716,0,0,0,.0648.28078.44676.44676,0,0,0,.19439.12959,7.57756,7.57756,0,0,0,1.05833.0648h.34558v.99354h-.17279l-.51837-.0216q-.49677-.0216-1.07993-.0216t-.82075-.0216a20.28254,20.28254,0,0,0-2.419.0648h-.17279v-.99354h.34558q1.31751,0,1.31751-.34558.0216-.0432.0216-2.98062-.0216-2.91582-.04319-3.08861a1.784,1.784,0,0,0-.432-.90715,1.38311,1.38311,0,0,0-.51837-.36717,1.64346,1.64346,0,0,0-.56156-.0432,2.34052,2.34052,0,0,0-1.7063.73436,2.608,2.608,0,0,0-.73435,1.18792,8.575,8.575,0,0,0-.17279,1.79269v2.67824q0,.648.0216.864a.71618.71618,0,0,0,.06479.28078.44682.44682,0,0,0,.19439.12959,7.57761,7.57761,0,0,0,1.05834.0648h.34558v.99354h-.17279l-.49677-.0216q-.51837-.0216-1.10154-.0216t-.82075-.0216a20.28267,20.28267,0,0,0-2.419.0648H301.041v-.99354Z"/>
    <path id="MJMAIN-61" class="cls-1" d="M321.45171,30.03452h-.47517a1.08584,1.08584,0,0,1-.79915-.324,1.13949,1.13949,0,0,1-.324-.84235,1.68891,1.68891,0,0,1,.73436-1.33912,5.54417,5.54417,0,0,1,5.16208.108,3.34481,3.34481,0,0,1,1.29592,1.6415,1.979,1.979,0,0,1,.108.66955q0,.36719.0216,2.48385v1.51191a6.22042,6.22042,0,0,0,.108,1.42551.45182.45182,0,0,0,.45357.38878.42808.42808,0,0,0,.432-.34558,4.26117,4.26117,0,0,0,.108-1.14473v-.77755h.86394v.84235a6.798,6.798,0,0,1-.06479,1.01513,1.79077,1.79077,0,0,1-.756,1.01514,2.28369,2.28369,0,0,1-1.18792.38878,1.26978,1.26978,0,0,1-1.01514-.38878,2.06943,2.06943,0,0,1-.51837-.90714v-.0864l-.0432.0648a.85806.85806,0,0,1-.108.12959q-.0648.0648-.17279.19439a1.3752,1.3752,0,0,1-.25918.23758q-.1512.108-.324.25919a1.34348,1.34348,0,0,1-.38877.23758q-.216.0864-.47517.17279a3.20961,3.20961,0,0,1-.56157.1296q-.30239.04319-.66956.06479a4.20683,4.20683,0,0,1-2.33265-.66956,2.11665,2.11665,0,0,1-1.03674-1.87908,2.47912,2.47912,0,0,1,.15119-.86395,2.82484,2.82484,0,0,1,.58316-.88555,3.8311,3.8311,0,0,1,1.03674-.79915,7.87218,7.87218,0,0,1,1.6847-.60476,10.88275,10.88275,0,0,1,2.37585-.324h.30238V30.3585a3.30524,3.30524,0,0,0-.12959-1.07993,2.00055,2.00055,0,0,0-2.09507-1.53351q-.38877,0-.73435.0216a2.21782,2.21782,0,0,0-.54.08639.70961.70961,0,0,0-.17279.0648,1.07694,1.07694,0,0,1,.47517.95034,1.06027,1.06027,0,0,1-.34558.84235Zm-.23758,4.29814a1.63422,1.63422,0,0,0,.51837,1.18792,1.80964,1.80964,0,0,0,1.27432.54,2.26263,2.26263,0,0,0,1.44711-.49677,2.41073,2.41073,0,0,0,.84235-1.29592,11.87722,11.87722,0,0,0,.06479-1.42551q0-1.25273-.02159-1.25273-.1728,0-.45358.0216a6.91366,6.91366,0,0,0-.97194.19439,7.09118,7.09118,0,0,0-1.25272.432,2.74468,2.74468,0,0,0-.99354.79916A2.11106,2.11106,0,0,0,321.21413,34.33266Z"/>
    <path id="MJMAIN-78" class="cls-1" d="M333.655,36.62212a17.24765,17.24765,0,0,0-2.13827-.0648,12.33973,12.33973,0,0,0-1.83589.0648h-.12959v-.99354h.30238a4.30047,4.30047,0,0,0,.90714-.1296,5.69427,5.69427,0,0,0,.62636-.19438,2.09513,2.09513,0,0,0,.54-.36718,2.29207,2.29207,0,0,0,.38878-.38878,6.67431,6.67431,0,0,1,.45357-.56156,2.39758,2.39758,0,0,0,.432-.60477l.99354-1.29592-1.25272-1.68469q-.19439-.28079-.41038-.58317t-.34557-.45357a2.67679,2.67679,0,0,1-.23759-.324,1.49859,1.49859,0,0,0-.19439-.25918,1.04814,1.04814,0,0,1-.12959-.15119.4684.4684,0,0,0-.15119-.1296.47363.47363,0,0,0-.12959-.06479.60138.60138,0,0,1-.12959-.0432.49786.49786,0,0,0-.17279-.0432q-.1296,0-.77756-.0432h-.60476v-.99353h.15119q.77756.04319,2.22467.04319,2.00867,0,2.22466-.04319h.17279v.99353q-.77756.0864-.77755.34558a1.51636,1.51636,0,0,0,.216.34558q.216.30239.60477.82075t.62636.88555l.08639.08639.54-.73435a2.92163,2.92163,0,0,0,.69116-1.16633.63415.63415,0,0,0-.0432-.23759.316.316,0,0,0-.108-.15119.70788.70788,0,0,1-.108-.08639.4635.4635,0,0,0-.15119-.0864l-.06479-.0216h-.108v-.99353h.15119a18.3226,18.3226,0,0,0,2.13827.06479,11.4704,11.4704,0,0,0,1.83589-.06479h.12959v.99353h-.15119a3.70689,3.70689,0,0,0-1.74949.36718,2.37208,2.37208,0,0,0-.73436.58317q-.36717.41037-1.40391,1.81429l-.34558.45357,1.33912,1.83589q1.42551,1.94388,1.5335,2.03027a.99914.99914,0,0,0,.36718.15119,5.66372,5.66372,0,0,0,1.14473.0864h.36718v.99354h-.30238a3.5815,3.5815,0,0,0-.432-.0216q-.25917,0-.54-.0216a3.37868,3.37868,0,0,0-.54,0,1.03647,1.03647,0,0,1-.38878-.0216h-.79915q-.56155,0-1.07993.0432l-.49677.0216h-.19439v-.99354h.0648a1.13985,1.13985,0,0,0,.47517-.108q.23759-.108.23758-.25918,0-.0432-.86394-1.23113l-.88555-1.18792q-.0216.0216-.66956.90714t-.73435.97194a.47244.47244,0,0,0-.0864.30238.60268.60268,0,0,0,.15119.41038.565.565,0,0,0,.38878.19439q.0432,0,.0432.49677v.49677Z"/>
    <path id="MJMATHI-61" class="cls-1" d="M317.06923,47.44873a4.51258,4.51258,0,0,1,1.16054-2.93189A3.41719,3.41719,0,0,1,320.841,43.112a1.73113,1.73113,0,0,1,1.37432.74824.7641.7641,0,0,1,.70244-.45811.54631.54631,0,0,1,.35121.12217.376.376,0,0,1,.1527.3054q0,.19851-.565,2.44324t-.58027,2.53487a.817.817,0,0,0,.1069.50392.44856.44856,0,0,0,.32067.13743.66351.66351,0,0,0,.30541-.13743,3.4628,3.4628,0,0,0,.62608-1.46595q.09162-.3054.1527-.32067a.44664.44664,0,0,1,.1527-.01527h.06108q.29014,0,.29014.13743a2.42529,2.42529,0,0,1-.07635.41229,4.79,4.79,0,0,1-.30541.8246,2.60134,2.60134,0,0,1-.48865.76351,1.50991,1.50991,0,0,1-.48864.32068,1.62811,1.62811,0,0,1-.36649.03054,1.5608,1.5608,0,0,1-.87041-.22906,1.1723,1.1723,0,0,1-.4581-.47337l-.09163-.22906q-.01527-.01527-.06108.01527l-.06108.06108a2.67725,2.67725,0,0,1-1.83243.85514,2.084,2.084,0,0,1-1.48121-.61081A2.57315,2.57315,0,0,1,317.06923,47.44873Zm4.856-2.61121a1.38249,1.38249,0,0,0-.07635-.33595,1.45194,1.45194,0,0,0-.35122-.53446.97611.97611,0,0,0-.70243-.3054,1.46538,1.46538,0,0,0-1.02311.47338,3.19513,3.19513,0,0,0-.76351,1.23689,12.19047,12.19047,0,0,0-.62608,2.50432v.168a.814.814,0,0,1-.01527.18325,1.28244,1.28244,0,0,0,.27486.94675.98342.98342,0,0,0,.65662.27487,1.72428,1.72428,0,0,0,1.14527-.50392,2.56773,2.56773,0,0,0,.67189-.77878q.03054-.06108.4123-1.63392T321.92518,44.83752Z"/>
    <g>
      <path id="MJMATHI-51" class="cls-1" d="M352.94259,38.35q0-.71276.02159-1.07993a2.13331,2.13331,0,0,1,.0432-.41038v-.08639l-.324.08639a7.85712,7.85712,0,0,1-1.81429.23759,5.30039,5.30039,0,0,1-5.44286-4.81651q-.0216-.17278-.0216-.92874a8.9353,8.9353,0,0,1,1.03673-4.19014,12.09714,12.09714,0,0,1,2.78623-3.52059,8.42446,8.42446,0,0,1,5.37807-2.22466q.82075,0,1.03674.0216a5.14211,5.14211,0,0,1,3.36939,1.85748,6.08962,6.08962,0,0,1,1.29592,3.931,9.82738,9.82738,0,0,1-3.1966,7.08437,10.35894,10.35894,0,0,1-2.82943,1.96548l-.36717.17279v.108q0,.0216.108.58316a1.69969,1.69969,0,0,0,.45357.90715,1.34482,1.34482,0,0,0,.99354.34558,2.51631,2.51631,0,0,0,1.44711-.47517,2.19751,2.19751,0,0,0,.90715-1.23113q.12959-.30238.28078-.30238a.22214.22214,0,0,1,.23758.19439,3.23045,3.23045,0,0,1-.216.77755q-.216.60477-.60477,1.42551a3.74957,3.74957,0,0,1-1.16632,1.40392,2.94756,2.94756,0,0,1-1.6415.62636q-1.7711,0-1.77109-2.31106Zm5.11888-11.83608a6.029,6.029,0,0,0-.324-2.07347,2.83928,2.83928,0,0,0-.88554-1.31752,4.86969,4.86969,0,0,0-1.07994-.648,2.94809,2.94809,0,0,0-1.14473-.216,4.71191,4.71191,0,0,0-2.11667.54,7.77626,7.77626,0,0,0-3.54218,3.80137,12.16263,12.16263,0,0,0-1.33912,5.35647,4.4608,4.4608,0,0,0,1.16633,3.391,2.02857,2.02857,0,0,0,.62636.45358v-.17279a2.25907,2.25907,0,0,1,.71276-1.59831,2.348,2.348,0,0,1,1.68469-.75595,1.7469,1.7469,0,0,1,.92875.23759,1.49345,1.49345,0,0,1,.58316.648,3.55668,3.55668,0,0,1,.25919.69115q.06478.28079.12959.58317l.28078-.19439a7.999,7.999,0,0,0,2.35426-2.61344,11.79171,11.79171,0,0,0,1.33911-3.2182A12.64224,12.64224,0,0,0,358.06147,26.51393Zm-6.95477,9.71941a4.28709,4.28709,0,0,0,1.94388-.45357l-.0216-.216q-.0864-1.18792-.79915-1.42551a2.644,2.644,0,0,0-.41038-.0432h-.12959a.12505.12505,0,0,1-.08639-.0216,1.31545,1.31545,0,0,0-.88555.432,1.4154,1.4154,0,0,0-.47517.99353Q350.24275,36.23333,351.1067,36.23334Z"/>
      <path id="MJMAIN-2217-2" data-name="MJMAIN-2217" class="cls-1" d="M364.909,23.35226q-.19851-2.04623-.19851-2.29054,0-.27488.36648-.42757h.07635a.21269.21269,0,0,0,.09163-.01527.6098.6098,0,0,1,.33594.13743.376.376,0,0,1,.1527.30541q0,.25959-.09162,1.22162t-.10689,1.06892l.88568-.64136q.85514-.62607.93148-.67189a.29464.29464,0,0,1,.15271-.04581.5345.5345,0,0,1,.36648.1527.57844.57844,0,0,1,.18325.4123.48281.48281,0,0,1-.15271.35122q-.07635.04581-1.03838.50392t-1.03837.48864l1.00783.47338,1.06892.53446a.47564.47564,0,0,1,.13744.35122.54938.54938,0,0,1-.13744.38175.51809.51809,0,0,1-.36648.168.54766.54766,0,0,1-.27487-.09162q-.1527-.09162-.83986-.61081l-.88568-.64136q.19851,2.04623.19851,2.29054a.46538.46538,0,0,1-.10689.29014.6422.6422,0,0,1-.79405,0,.559.559,0,0,1-.12216-.29014q0-.25959.09162-1.22162T364.909,24.467l-.88567.64136q-.85514.62607-.93149.67189a.24735.24735,0,0,1-.1527.04581.53451.53451,0,0,1-.36649-.1527.57843.57843,0,0,1-.18324-.4123v-.12216a.132.132,0,0,1,.04581-.09163.6067.6067,0,0,0,.07635-.09162.42256.42256,0,0,1,.13743-.10689q.10689-.06108.19851-.10689t.29014-.13743q.19851-.09162.38176-.168t.48864-.22905l.61082-.30541-2.07676-.99256a.47563.47563,0,0,1-.13743-.35122.54942.54942,0,0,1,.13743-.38176.51812.51812,0,0,1,.36649-.168.54766.54766,0,0,1,.27486.09162q.1527.09162.83987.61081Z"/>
    </g>
    <path id="MJMAIN-28-2" data-name="MJMAIN-28" class="cls-1" d="M373.24534,31.22245a17.76533,17.76533,0,0,1,.216-2.82943,19.79444,19.79444,0,0,1,.49677-2.31106,9.04413,9.04413,0,0,1,.79915-1.90068q.51837-.92876.82075-1.44711a5.73707,5.73707,0,0,1,.90714-1.12314q.60477-.60475.71276-.73435a3.89236,3.89236,0,0,1,.54-.45357h.36717q.30239,0,.30239.19439a1.74565,1.74565,0,0,1-.36718.45357,9.80492,9.80492,0,0,0-.88555,1.14473,14.94345,14.94345,0,0,0-1.05833,1.85748,12.28789,12.28789,0,0,0-.90715,2.98062,21.79985,21.79985,0,0,0-.36717,4.16855,21.46077,21.46077,0,0,0,.36717,4.14694,14.02741,14.02741,0,0,0,.88555,3.00222,9.78236,9.78236,0,0,0,1.05833,1.85748q.54.71277.90715,1.14473a4.88076,4.88076,0,0,1,.36718.45358q0,.19438-.324.19439h-.34558l-.60477-.51837a10.65881,10.65881,0,0,1-2.959-4.57892A17.65889,17.65889,0,0,1,373.24534,31.22245Z"/>
    <path id="MJMATHI-73-2" data-name="MJMATHI-73" class="cls-1" d="M382.468,30.3801a3.20076,3.20076,0,0,1,.34558-1.40392,3.55336,3.55336,0,0,1,1.20952-1.31752,3.451,3.451,0,0,1,2.09507-.58316,2.72882,2.72882,0,0,1,1.94388.58316,1.8505,1.8505,0,0,1,.62637,1.29593,1.28628,1.28628,0,0,1-.36718,1.01513,1.30855,1.30855,0,0,1-.82075.34558.86266.86266,0,0,1-.51837-.17279.69877.69877,0,0,1-.25918-.56156.98007.98007,0,0,1,.19439-.60477,1.94011,1.94011,0,0,1,.36717-.38877.52267.52267,0,0,1,.28079-.12959.01909.01909,0,0,0,.02159-.0216q0-.0648-.15119-.19439a1.47524,1.47524,0,0,0-.54-.23759,3.82212,3.82212,0,0,0-.84235-.12959,1.82689,1.82689,0,0,0-2.00868,1.7063.7808.7808,0,0,0,.41038.75595,4.47953,4.47953,0,0,0,1.18792.36718,4.73293,4.73293,0,0,1,1.12313.324,2.13458,2.13458,0,0,1,1.42552,2.07347,3.28676,3.28676,0,0,1-.23759,1.20953,4.8313,4.8313,0,0,1-.71275,1.20952,3.12462,3.12462,0,0,1-1.36072.95035,5.865,5.865,0,0,1-2.03028.36717,3.49361,3.49361,0,0,1-2.35425-.62636,1.99827,1.99827,0,0,1-.71276-1.46871,1.46893,1.46893,0,0,1,.45357-1.20953,1.49138,1.49138,0,0,1,.95034-.36717,1.0421,1.0421,0,0,1,.60477.19439.80407.80407,0,0,1,.30238.66955,1.29272,1.29272,0,0,1-.38878.95035,1.0637,1.0637,0,0,1-.66956.38877.1657.1657,0,0,1-.06479.0216q-.0216,0-.0216.0432a.46679.46679,0,0,0,.17279.17279,3.01554,3.01554,0,0,0,.66956.28078,4.24815,4.24815,0,0,0,2.527-.08639,1.85546,1.85546,0,0,0,.82075-.60477,2.86731,2.86731,0,0,0,.36718-.66956,1.62891,1.62891,0,0,0,.108-.54,1.01754,1.01754,0,0,0-.45357-.90715,2.296,2.296,0,0,0-1.03674-.36717,5.34563,5.34563,0,0,1-1.27432-.324,1.99877,1.99877,0,0,1-1.01514-.756A2.17408,2.17408,0,0,1,382.468,30.3801Z"/>
    <path id="MJMAIN-2C" class="cls-1" d="M391.453,35.86616v-.54a1.35067,1.35067,0,0,1,.34558-.92875,1.18052,1.18052,0,0,1,.92874-.38877,1.41185,1.41185,0,0,1,1.07993.54,2.98181,2.98181,0,0,1,.49677,1.90069,5.55645,5.55645,0,0,1-.19439,1.46871,6.715,6.715,0,0,1-.45357,1.23112,4.68462,4.68462,0,0,1-.56156.88555q-.30239.36717-.51837.58316t-.28078.19439q-.0864,0-.28079-.19439t-.19439-.28078q0-.0864.23759-.34558t.54-.648a4.14534,4.14534,0,0,0,.56156-1.07993,6.20387,6.20387,0,0,0,.34558-1.57671v-.25918l-.0216.0216a.838.838,0,0,1-.108.04319.54494.54494,0,0,0-.12959.0648.35346.35346,0,0,1-.19439.0432,1.57377,1.57377,0,0,0-.25918.0216,1.286,1.286,0,0,1-.95035-.36718Z"/>
    <path id="MJMATHI-61-2" data-name="MJMATHI-61" class="cls-1" d="M400.0925,33.23112a6.38262,6.38262,0,0,1,1.6415-4.14694,4.83333,4.83333,0,0,1,3.69337-1.98708,2.44859,2.44859,0,0,1,1.94388,1.05833,1.08074,1.08074,0,0,1,.99354-.648.77281.77281,0,0,1,.49677.17279.53191.53191,0,0,1,.216.432q0,.28079-.79915,3.45579t-.82075,3.58538a1.15544,1.15544,0,0,0,.15119.71275.63443.63443,0,0,0,.45357.19439.9384.9384,0,0,0,.432-.19439,4.8974,4.8974,0,0,0,.88555-2.07347q.12958-.432.216-.45357a.63165.63165,0,0,1,.216-.0216h.0864q.41037,0,.41037.19439a3.42988,3.42988,0,0,1-.108.58316,6.77687,6.77687,0,0,1-.432,1.16633,3.67975,3.67975,0,0,1-.69116,1.07993,2.13584,2.13584,0,0,1-.69116.45358,2.3032,2.3032,0,0,1-.51837.04319,2.20764,2.20764,0,0,1-1.23112-.324,1.65807,1.65807,0,0,1-.648-.66956l-.12959-.324q-.0216-.0216-.0864.0216l-.08639.0864a3.78678,3.78678,0,0,1-2.59185,1.20952,2.94771,2.94771,0,0,1-2.09507-.86394A3.63956,3.63956,0,0,1,400.0925,33.23112Zm6.86838-3.69337a1.955,1.955,0,0,0-.108-.47517,2.05338,2.05338,0,0,0-.49677-.756,1.38062,1.38062,0,0,0-.99353-.432,2.07273,2.07273,0,0,0-1.44712.66956,4.51931,4.51931,0,0,0-1.07993,1.74949,17.24351,17.24351,0,0,0-.88555,3.54219v.23758a1.15147,1.15147,0,0,1-.02159.25919,1.81392,1.81392,0,0,0,.38877,1.33911,1.391,1.391,0,0,0,.92875.38878,2.43894,2.43894,0,0,0,1.6199-.71276,3.632,3.632,0,0,0,.95034-1.10153q.0432-.0864.58316-2.31106T406.96088,29.53775Z"/>
    <path id="MJMAIN-29-2" data-name="MJMAIN-29" class="cls-1" d="M412.123,20.44471l.0864-.0216h.47517l.60476.51837a10.65868,10.65868,0,0,1,2.959,4.57892,17.65911,17.65911,0,0,1,.92874,5.70205,18.031,18.031,0,0,1-.216,2.82942,18.57321,18.57321,0,0,1-.49677,2.31106,9.72835,9.72835,0,0,1-.79916,1.90069q-.51835.95034-.82074,1.44711a6.57039,6.57039,0,0,1-.88555,1.10153q-.58317.60475-.69116.71276t-.49677.41037l-.08639.0864h-.49677a.12693.12693,0,0,1-.108-.0648.50862.50862,0,0,1-.06479-.19439q.0216-.0216.23758-.28078,3.34781-3.47739,3.3478-10.25937t-3.3478-10.25938q-.216-.25917-.23758-.28078A.25385.25385,0,0,1,412.123,20.44471Z"/>
  </g>
  <g>
    <path id="MJMATHI-51-2" data-name="MJMATHI-51" class="cls-1" d="M498.7486,39.71165q0-.8679.0263-1.315a2.59855,2.59855,0,0,1,.0526-.4997v-.1052l-.3945.1052a9.56764,9.56764,0,0,1-2.2092.2893,6.45411,6.45411,0,0,1-6.6276-5.8649q-.0263-.21041-.0263-1.1309a10.88014,10.88014,0,0,1,1.2624-5.1022,14.73008,14.73008,0,0,1,3.3927-4.2869,10.2582,10.2582,0,0,1,6.5487-2.7089q.9994,0,1.2624.0263a6.26135,6.26135,0,0,1,4.1028,2.2618,7.41508,7.41508,0,0,1,1.578,4.7866,11.96646,11.96646,0,0,1-3.8924,8.6264,12.61352,12.61352,0,0,1-3.4453,2.3933l-.4471.2104v.1315q0,.0263.1315.7101a2.06973,2.06973,0,0,0,.5523,1.1046,1.63751,1.63751,0,0,0,1.2098.4208,3.064,3.064,0,0,0,1.7621-.5786,2.67577,2.67577,0,0,0,1.1046-1.4991q.1578-.3682.3419-.3682a.2705.2705,0,0,1,.2893.2367,3.93359,3.93359,0,0,1-.263.9468q-.263.7364-.7364,1.7358a4.56574,4.56574,0,0,1-1.4202,1.7095,3.58906,3.58906,0,0,1-1.9988.7627q-2.15659,0-2.1566-2.8141Zm6.2331-14.4124a7.34135,7.34135,0,0,0-.3945-2.5248,3.45713,3.45713,0,0,0-1.0783-1.6043,5.92911,5.92911,0,0,0-1.315-.789,3.58966,3.58966,0,0,0-1.3939-.263,5.7375,5.7375,0,0,0-2.5774.6575,9.46889,9.46889,0,0,0-4.3132,4.6288,14.81016,14.81016,0,0,0-1.6306,6.5224,5.43178,5.43178,0,0,0,1.4202,4.1291,2.47018,2.47018,0,0,0,.7627.5523v-.2104a2.75076,2.75076,0,0,1,.8679-1.9462,2.859,2.859,0,0,1,2.0514-.9205,2.12705,2.12705,0,0,1,1.1309.2893,1.81849,1.81849,0,0,1,.7101.789,4.33,4.33,0,0,1,.3156.8416q.0789.3419.1578.7101l.3419-.2367a9.74007,9.74007,0,0,0,2.8667-3.1823,14.35838,14.35838,0,0,0,1.6306-3.9187A15.39417,15.39417,0,0,0,504.9817,25.29925Zm-8.4686,11.835a5.22025,5.22025,0,0,0,2.367-.5523l-.0263-.263q-.10519-1.44651-.9731-1.7358a3.21924,3.21924,0,0,0-.4997-.0526h-.1578a.15233.15233,0,0,1-.1052-.0263,1.60182,1.60182,0,0,0-1.0783.526,1.7235,1.7235,0,0,0-.5786,1.2098Q495.4611,37.13425,496.5131,37.13425Z"/>
    <path id="MJMAIN-2217-3" data-name="MJMAIN-2217" class="cls-1" d="M513.31975,21.44937q-.24172-2.4916-.24172-2.78911,0-.3347.44625-.52064h.093a.25905.25905,0,0,0,.11156-.01859.74256.74256,0,0,1,.40907.16734.4579.4579,0,0,1,.18594.37189q0,.31609-.11156,1.48752t-.13016,1.30159l1.07846-.78095q1.04127-.76236,1.13424-.81814a.35874.35874,0,0,1,.18594-.05578.65083.65083,0,0,1,.44625.18594.70427.70427,0,0,1,.22313.502.58786.58786,0,0,1-.18594.42766q-.093.05579-1.2644.61361t-1.26439.595l1.22721.57642,1.30158.65079a.57912.57912,0,0,1,.16735.42766.669.669,0,0,1-.16735.46486.63086.63086,0,0,1-.44626.20453.66694.66694,0,0,1-.33469-.11156q-.18594-.11157-1.02267-.74377l-1.07846-.78095q.24172,2.4916.24172,2.78912a.56667.56667,0,0,1-.13016.35328.782.782,0,0,1-.96689,0,.68062.68062,0,0,1-.14875-.35328q0-.31611.11156-1.48753t.13016-1.30159l-1.07846.78095q-1.04127.76236-1.13424.81814a.30117.30117,0,0,1-.18594.05579.65084.65084,0,0,1-.44626-.18595.70433.70433,0,0,1-.22313-.502v-.14875a.16071.16071,0,0,1,.05579-.11156.73976.73976,0,0,0,.093-.11157.51456.51456,0,0,1,.16734-.13016q.13017-.07437.24173-.13016t.35328-.16734q.24173-.11157.46486-.20454t.595-.27891l.74376-.37188-2.5288-1.20862a.57915.57915,0,0,1-.16734-.42766.669.669,0,0,1,.16734-.46485.63094.63094,0,0,1,.44626-.20454.66687.66687,0,0,1,.3347.11157q.18594.11156,1.02267.74376Z"/>
    <path id="MJMAIN-28-3" data-name="MJMAIN-28" class="cls-1" d="M523.4706,31.03265a21.63234,21.63234,0,0,1,.263-3.4453,24.10585,24.10585,0,0,1,.6049-2.8141,11.01309,11.01309,0,0,1,.9731-2.3144q.6312-1.13091.9994-1.7621a6.98554,6.98554,0,0,1,1.1046-1.3676q.73641-.73641.8679-.8942a4.74052,4.74052,0,0,1,.6575-.5523h.4471q.3682,0,.3682.2367a2.125,2.125,0,0,1-.4471.5523,11.94066,11.94066,0,0,0-1.0783,1.3939,18.196,18.196,0,0,0-1.2887,2.2618,14.96255,14.96255,0,0,0-1.1046,3.6294,26.54491,26.54491,0,0,0-.4471,5.0759,26.13219,26.13219,0,0,0,.4471,5.0496,17.081,17.081,0,0,0,1.0783,3.6557,11.91144,11.91144,0,0,0,1.2887,2.2618q.65751.8679,1.1046,1.3939a5.938,5.938,0,0,1,.4471.5523q0,.2367-.3945.2367h-.4208l-.7364-.6312a12.979,12.979,0,0,1-3.6031-5.5756A21.50306,21.50306,0,0,1,523.4706,31.03265Z"/>
    <path id="MJMATHI-73-3" data-name="MJMATHI-73" class="cls-1" d="M534.6744,30.007a3.89753,3.89753,0,0,1,.4208-1.7095,4.32686,4.32686,0,0,1,1.4728-1.6043,4.20208,4.20208,0,0,1,2.5511-.7101,3.32277,3.32277,0,0,1,2.367.7101,2.25325,2.25325,0,0,1,.7627,1.578,1.56626,1.56626,0,0,1-.4471,1.2361,1.5934,1.5934,0,0,1-.9994.4208,1.05054,1.05054,0,0,1-.6312-.2104.85093.85093,0,0,1-.3156-.6838,1.19343,1.19343,0,0,1,.2367-.7364,2.36283,2.36283,0,0,1,.4471-.4734.6365.6365,0,0,1,.3419-.1578.02324.02324,0,0,0,.0263-.0263q0-.0789-.1841-.2367a1.79629,1.79629,0,0,0-.6575-.2893,4.6531,4.6531,0,0,0-1.0257-.1578,2.22453,2.22453,0,0,0-2.4459,2.0777.95078.95078,0,0,0,.4997.9205,5.45486,5.45486,0,0,0,1.4465.4471,5.763,5.763,0,0,1,1.3676.3945,2.59921,2.59921,0,0,1,1.7358,2.5248,4.00211,4.00211,0,0,1-.2893,1.4728,5.88275,5.88275,0,0,1-.8679,1.4728,3.80467,3.80467,0,0,1-1.6569,1.1572,7.14159,7.14159,0,0,1-2.4722.4471,4.25417,4.25417,0,0,1-2.8667-.7627,2.43328,2.43328,0,0,1-.8679-1.7884,1.78862,1.78862,0,0,1,.5523-1.4728,1.816,1.816,0,0,1,1.1572-.4471,1.269,1.269,0,0,1,.7364.2367.97908.97908,0,0,1,.3682.8153,1.57411,1.57411,0,0,1-.4734,1.1572,1.29523,1.29523,0,0,1-.8153.4734.20184.20184,0,0,1-.0789.0263q-.0263,0-.0263.0526a.56853.56853,0,0,0,.2104.2104,3.67249,3.67249,0,0,0,.8153.3419,5.17277,5.17277,0,0,0,3.0771-.1052,2.25945,2.25945,0,0,0,.9994-.7364,3.49136,3.49136,0,0,0,.4471-.8153,1.98368,1.98368,0,0,0,.1315-.6575,1.239,1.239,0,0,0-.5523-1.1046,2.79568,2.79568,0,0,0-1.2624-.4471,6.509,6.509,0,0,1-1.5517-.3945,2.43394,2.43394,0,0,1-1.2361-.9205A2.64734,2.64734,0,0,1,534.6744,30.007Z"/>
    <path id="MJMAIN-2C-2" data-name="MJMAIN-2C" class="cls-1" d="M545.6415,36.68715v-.6575a1.64466,1.64466,0,0,1,.4208-1.1309,1.43751,1.43751,0,0,1,1.1309-.4734,1.71915,1.71915,0,0,1,1.315.6575,3.63075,3.63075,0,0,1,.6049,2.3144,6.76635,6.76635,0,0,1-.2367,1.7884,8.1769,8.1769,0,0,1-.5523,1.4991,5.70356,5.70356,0,0,1-.6838,1.0783q-.36819.44709-.6312.7101t-.3419.2367q-.10519,0-.3419-.2367t-.2367-.3419q0-.10521.2893-.4208t.6575-.789a5.04743,5.04743,0,0,0,.6838-1.315,7.55448,7.55448,0,0,0,.4208-1.9199V37.371l-.0263.0263a1.02148,1.02148,0,0,1-.1315.0526.66356.66356,0,0,0-.1578.0789.43045.43045,0,0,1-.2367.0526,1.91589,1.91589,0,0,0-.3156.0263,1.56583,1.56583,0,0,1-1.1572-.4471Z"/>
    <path id="MJMATHI-61-3" data-name="MJMATHI-61" class="cls-1" d="M556.1615,33.47855a7.772,7.772,0,0,1,1.9988-5.0496,5.88538,5.88538,0,0,1,4.4973-2.4196,2.98156,2.98156,0,0,1,2.367,1.2887,1.316,1.316,0,0,1,1.2098-.789.941.941,0,0,1,.6049.2104.64763.64763,0,0,1,.263.526q0,.34189-.9731,4.208t-.9994,4.3658a1.407,1.407,0,0,0,.1841.8679.77265.77265,0,0,0,.5523.2367,1.14284,1.14284,0,0,0,.526-.2367,5.96356,5.96356,0,0,0,1.0783-2.5248q.1578-.526.263-.5523a.76913.76913,0,0,1,.263-.0263h.1052q.49971,0,.4997.2367a4.1768,4.1768,0,0,1-.1315.7101,8.2503,8.2503,0,0,1-.526,1.4202,4.48058,4.48058,0,0,1-.8416,1.315,2.60053,2.60053,0,0,1-.8416.5523,2.80418,2.80418,0,0,1-.6312.0526,2.68824,2.68824,0,0,1-1.4991-.3945,2.0192,2.0192,0,0,1-.789-.8153l-.1578-.3945q-.0263-.02631-.1052.0263l-.1052.1052a4.611,4.611,0,0,1-3.156,1.4728,3.58932,3.58932,0,0,1-2.5511-1.052A4.43175,4.43175,0,0,1,556.1615,33.47855Zm8.3634-4.4973a2.38065,2.38065,0,0,0-.1315-.5786,2.5003,2.5003,0,0,0-.6049-.9205,1.68109,1.68109,0,0,0-1.2098-.526,2.52383,2.52383,0,0,0-1.7621.8153,5.50306,5.50306,0,0,0-1.315,2.1303,20.99674,20.99674,0,0,0-1.0783,4.3132v.2893a1.40161,1.40161,0,0,1-.0263.3156,2.20876,2.20876,0,0,0,.4734,1.6306,1.69387,1.69387,0,0,0,1.1309.4734,2.96978,2.96978,0,0,0,1.9725-.8679,4.42224,4.42224,0,0,0,1.1572-1.3413q.0526-.10521.7101-2.8141T564.5249,28.98125Z"/>
    <path id="MJMAIN-29-3" data-name="MJMAIN-29" class="cls-1" d="M570.8106,17.909l.1052-.0263h.5786l.7364.6312a12.97868,12.97868,0,0,1,3.6031,5.5756,21.5027,21.5027,0,0,1,1.1309,6.9432,21.955,21.955,0,0,1-.263,3.4453,22.61077,22.61077,0,0,1-.6049,2.8141,11.84549,11.84549,0,0,1-.9731,2.3144q-.6312,1.15719-.9994,1.7621a8.00056,8.00056,0,0,1-1.0783,1.3413q-.7101.7364-.8416.8679t-.6049.4997l-.1052.1052h-.6049a.15455.15455,0,0,1-.1315-.0789.61936.61936,0,0,1-.0789-.2367q.02631-.02631.2893-.3419,4.0765-4.2343,4.0765-12.4925t-4.0765-12.4925q-.263-.3156-.2893-.3419A.30912.30912,0,0,1,570.8106,17.909Z"/>
  </g>
  <rect class="cls-2" x="713.71092" y="61.48076" width="79.83102" height="79.83102"/>
  <circle class="cls-3" cx="754.47306" cy="102.39331" r="25.28539"/>
  <circle class="cls-4" cx="754.47088" cy="102.42349" r="25.28539"/>
  <rect class="cls-2" x="302.7359" y="61.3672" width="79.83102" height="79.83102"/>
  <polygon class="cls-3" points="313.243 101.281 321.509 117.877 321.509 84.685 313.243 101.281"/>
  <polygon class="cls-3" points="342.571 130.898 359.167 122.632 325.975 122.632 342.571 130.898"/>
  <polygon class="cls-3" points="372.06 101.299 363.794 84.703 363.794 117.896 372.06 101.299"/>
  <polygon class="cls-5" points="342.571 71.839 325.975 80.105 359.167 80.105 342.571 71.839"/>
  <path id="MJSZ2-2211" class="cls-1" d="M219.0648,4.57167q.11391-.07593,22.971-.07594h22.85711L267.0951,9.6215q2.24014,5.23967,2.392,5.54341h-1.51875l-.26578-.53156a12.82785,12.82785,0,0,0-2.12624-2.96155,15.93714,15.93714,0,0,0-4.21451-2.92358,20.78978,20.78978,0,0,0-5.35358-1.63265A44.16728,44.16728,0,0,0,250.275,6.4701q-2.69577-.11391-6.94826-.15187H226.31681l.30375.41765Q244.2,30.77,244.276,30.99782a.3423.3423,0,0,1,0,.22782q-.11391.1139-10.02371,11.46652L224.22853,54.08274q0,.038,8.01138.038h5.35357q3.37922,0,4.86.038,5.16372,0,8.35309-.18985a48.7731,48.7731,0,0,0,6.34076-.79734,17.48524,17.48524,0,0,0,5.35357-1.86046,14.23855,14.23855,0,0,0,3.91077-3.30327,12.03225,12.03225,0,0,0,1.55671-2.73374h1.51875q0,.038-.26578.79734t-.94922,2.468q-.68343,1.70859-1.177,3.18937l-2.20218,5.88513-22.81914.038q-22.8571,0-22.971-.07594a.32255.32255,0,0,1-.22781-.34171.58275.58275,0,0,1,.07594-.22782l20.23727-23.16085q0-.038-1.253-1.70859t-3.9867-5.46748q-2.73375-3.79686-4.93592-6.75841L218.91293,6.05245l-.038-.56953Q218.875,4.68558,219.0648,4.57167Z"/>
  <path id="MJMAIN-22C5" class="cls-1" d="M443.32136,30.03859a2.24946,2.24946,0,0,1,.64547-1.59468,2.14942,2.14942,0,0,1,1.63265-.68344,2.32531,2.32531,0,0,1,1.59468.6075,2.19094,2.19094,0,0,1,.7214,1.63265,2.29516,2.29516,0,0,1-.64546,1.63265,2.14941,2.14941,0,0,1-1.63265.68344,2.21276,2.21276,0,0,1-1.63266-.64547A2.34782,2.34782,0,0,1,443.32136,30.03859Z"/>
  <rect class="cls-2" x="492.33597" y="61.37858" width="79.83102" height="79.83102"/>
  <polygon class="cls-3" points="561.62 101.33 553.354 84.733 553.354 117.926 561.62 101.33"/>
  <polygon class="cls-3" points="502.804 101.292 511.07 117.889 511.07 84.696 502.804 101.292"/>
  <polygon class="cls-6" points="502.843 101.292 511.109 117.889 511.109 84.696 502.843 101.292"/>
  <polygon class="cls-7" points="532.171 130.909 548.767 122.643 515.575 122.643 532.171 130.909"/>
  <polygon class="cls-8" points="561.66 101.311 553.394 84.715 553.394 117.907 561.66 101.311"/>
  <polygon class="cls-4" points="532.171 71.85 515.575 80.116 548.767 80.116 532.171 71.85"/>
  <path id="MJMAIN-3D" class="cls-1" d="M639.71035,26.35924a.82708.82708,0,0,1,.53156-.75937h24.186a.883.883,0,0,1,.56953.75937.86141.86141,0,0,1-.53156.72141l-12.074.038h-12.074A.75255.75255,0,0,1,639.71035,26.35924Zm0,7.36591a.75254.75254,0,0,1,.6075-.75937h24.148q.53156.37969.53156.75937a.83023.83023,0,0,1-.56953.75938h-24.186A.82708.82708,0,0,1,639.71035,33.72515Z"/>
  <text class="cls-9" transform="translate(4.1324 16.05395)"><tspan class="cls-10">Q-learning</tspan><tspan class="cls-11"><tspan x="0" y="18.32715">is a special case of off-</tspan><tspan x="0" y="36.6543">policy </tspan><tspan class="cls-12" x="43.69238" y="36.6543">v</tspan><tspan x="50.97852" y="36.6543">alue estimation.</tspan><tspan x="0" y="73.30859">It weights Q-</tspan><tspan class="cls-12" x="84.53613" y="73.30859">v</tspan><tspan class="cls-13" x="91.82227" y="73.30859">alues acco</tspan><tspan class="cls-14" x="165.00781" y="73.30859">r</tspan><tspan x="170.03418" y="73.30859">ding</tspan><tspan class="cls-15" x="0" y="91.63574">t</tspan><tspan x="4.77246" y="91.63574">o the optimal polic</tspan><tspan class="cls-16" x="130.37598" y="91.63574">y</tspan><tspan x="136.40137" y="91.63574">.</tspan></tspan></text>
</svg>
