<svg id="Layer_1" data-name="Layer 1" xmlns="http://www.w3.org/2000/svg" viewBox="0 0 611.25731 162.85566">
  <defs>
    <style>
      .cls-1 {
        fill: #e7ebe8;
      }

      .cls-2 {
        fill: #58595b;
      }

      .cls-3 {
        fill: #fff;
      }

      .cls-4 {
        fill: #b2b3c3;
      }

      .cls-5 {
        font-size: 24.0615px;
        fill: #231f20;
        font-family: MyriadPro-Regular, Myriad Pro;
      }

      .cls-6 {
        letter-spacing: -0.025em;
      }

      .cls-7 {
        letter-spacing: 0.01798em;
      }

      .cls-11, .cls-8 {
        fill: #70a8da;
      }

      .cls-10, .cls-8 {
        opacity: 0.5;
      }

      .cls-10, .cls-9 {
        fill: #ef4136;
      }

      .cls-12 {
        fill: #010101;
      }

      .cls-13 {
        font-size: 13px;
        fill: #6d6e71;
        font-family: Roboto-Regular, Roboto;
      }

      .cls-14 {
        letter-spacing: -0.09623em;
      }

      .cls-15 {
        letter-spacing: -0.00729em;
      }

      .cls-16 {
        letter-spacing: -0.00008em;
      }

      .cls-17 {
        fill: none;
        stroke: #e7ebe8;
        stroke-linecap: round;
        stroke-linejoin: round;
      }
    </style>
  </defs>
  <title>q-learning-graphics</title>
  <rect class="cls-1" x="1.10125" y="35.17098" width="102.05949" height="102.05949"/>
  <polygon class="cls-2" points="14.534 86.199 25.101 107.416 25.101 64.981 14.534 86.199"/>
  <polygon class="cls-3" points="52.028 124.062 73.246 113.494 30.811 113.494 52.028 124.062"/>
  <polygon class="cls-4" points="89.728 86.222 79.16 65.005 79.161 107.439 89.728 86.222"/>
  <polygon class="cls-4" points="52.028 48.558 30.811 59.126 73.246 59.126 52.028 48.558"/>
  <text class="cls-5" transform="translate(-0.45531 25.00541)"><tspan class="cls-6">P</tspan><tspan x="12.19922" y="0">oli</tspan><tspan class="cls-7" x="36.71777" y="0">c</tspan><tspan x="47.92969" y="0">y </tspan></text>
  <rect class="cls-1" x="446.22716" y="35.19742" width="102.05949" height="102.05949"/>
  <polygon class="cls-3" points="534.803 86.273 524.235 65.055 524.235 107.49 534.803 86.273"/>
  <polygon class="cls-3" points="459.61 86.225 470.178 107.442 470.178 65.008 459.61 86.225"/>
  <polygon class="cls-8" points="459.66 86.225 470.227 107.442 470.227 65.008 459.66 86.225"/>
  <polygon class="cls-9" points="497.154 124.088 518.372 113.521 475.937 113.521 497.154 124.088"/>
  <polygon class="cls-10" points="534.854 86.249 524.286 65.031 524.286 107.466 534.854 86.249"/>
  <polygon class="cls-11" points="497.154 48.585 475.937 59.152 518.372 59.152 497.154 48.585"/>
  <rect class="cls-1" x="223.71362" y="35.27306" width="102.05949" height="102.05949"/>
  <circle class="cls-3" cx="275.82574" cy="87.57748" r="32.32596"/>
  <circle class="cls-8" cx="275.82294" cy="87.61605" r="32.32596"/>
  <g>
    <path id="MJMATHI-3C0" class="cls-12" d="M68.16159,26.038a.96045.96045,0,0,1-1.10254-1.07012v-.3567l.42156-.908a62.8364,62.8364,0,0,0,3.53463-8.85278l.25942-.77827H70.237a10.81212,10.81212,0,0,0-1.7511.09728,3.50845,3.50845,0,0,0-1.26468.61613,4.23576,4.23576,0,0,0-.71341.5837,8.35547,8.35547,0,0,0-.61613.681,3.994,3.994,0,0,0-.29185.38913,1.84887,1.84887,0,0,1-.48642.03243q-.61613,0-.61612-.32428a3.915,3.915,0,0,1,.61612-1.135,11.02717,11.02717,0,0,1,1.78353-2.01053,4.40867,4.40867,0,0,1,2.30237-1.23225q.227-.06486,7.29625-.06486,5.18845,0,5.31816.03243a.88533.88533,0,0,1,.64855.908,1.35435,1.35435,0,0,1-1.03768,1.362,17.58926,17.58926,0,0,1-2.23752.06485H77.11166l-.09728.55127a24.34028,24.34028,0,0,0-.38914,3.85891,14.12983,14.12983,0,0,0,.29185,3.01578,11.71728,11.71728,0,0,0,.61613,2.07538,3.78131,3.78131,0,0,1,.32428.908,1.50283,1.50283,0,0,1-.454,1.03769,1.52531,1.52531,0,0,1-1.1674.48641,1.49433,1.49433,0,0,1-.5837-.09728q-.227-.09729-.51884-.77827a9.36717,9.36717,0,0,1-.51885-1.94566q-.03243-.29185-.03243-1.42683a21.52137,21.52137,0,0,1,.29185-3.40491q.29185-1.816.5837-2.98336l.32428-1.29711H72.6042l-.03243.12971q0,.09729-.61613,2.5618t-1.39439,5.22087A24.16483,24.16483,0,0,1,69.556,25.13007,1.3635,1.3635,0,0,1,68.16159,26.038Z"/>
    <path id="MJMAIN-31" class="cls-12" d="M87.24317,17.3132l-.298.11463a6.57118,6.57118,0,0,1-.91706.22926,10.5686,10.5686,0,0,1-1.32974.16049h-.4356V16.763h.4356a7.45563,7.45563,0,0,0,1.99461-.3439,5.414,5.414,0,0,0,1.28388-.55023,5.8802,5.8802,0,0,0,.64194-.50438q.04584-.06878.27511-.06878a.63851.63851,0,0,1,.38975.13756v6.855l.02293,6.87793a.90784.90784,0,0,0,.27512.20634,2.71861,2.71861,0,0,0,.55023.09171q.4356.04585,1.42144.04585h.59609v1.05462h-.25219q-.48145-.06879-3.64531-.06878-3.118,0-3.59945.06878h-.27512V29.51006h1.4673a5.50435,5.50435,0,0,0,.57316-.02293,2.24538,2.24538,0,0,0,.36682-.06877,1.37452,1.37452,0,0,1,.18341-.04586q.02293,0,.13756-.11463t.13756-.09171Z"/>
  </g>
  <text class="cls-13" transform="translate(223.98219 158.22123)">Unclear which action is best</text>
  <text class="cls-13" transform="translate(444.89625 158.34037)"><tspan class="cls-14">T</tspan><tspan x="6.50586" y="0">op action has highest </tspan><tspan class="cls-15" x="133.49121" y="0">v</tspan><tspan class="cls-16" x="139.69336" y="0">alue</tspan></text>
  <line class="cls-17" x1="162.9275" y1="6.2725" x2="162.9275" y2="154.6249"/>
  <g>
    <path id="MJMATHI-51" class="cls-12" d="M455.42641,25.27362q0-.91139.02762-1.38089a2.72785,2.72785,0,0,1,.05524-.52474v-.11047l-.41427.11047a10.04668,10.04668,0,0,1-2.31989.3038,6.77748,6.77748,0,0,1-6.95967-6.15876q-.02763-.22094-.02762-1.18756a11.4253,11.4253,0,0,1,1.32565-5.35785,15.46824,15.46824,0,0,1,3.56269-4.50169A10.77219,10.77219,0,0,1,457.553,3.6213q1.04948,0,1.32565.02762A6.57509,6.57509,0,0,1,463.187,6.024a7.78666,7.78666,0,0,1,1.65707,5.02644,12.566,12.566,0,0,1-4.08743,9.05862,13.24521,13.24521,0,0,1-3.61792,2.51321l-.46951.221v.13809q0,.02761.13809.74567a2.17335,2.17335,0,0,0,.58,1.16,1.71951,1.71951,0,0,0,1.27041.44188,3.21756,3.21756,0,0,0,1.85039-.60759,2.8098,2.8098,0,0,0,1.15995-1.57421q.16571-.38664.359-.38665a.28405.28405,0,0,1,.30379.24856,4.131,4.131,0,0,1-.27617.99424q-.27618.7733-.7733,1.82277A4.79441,4.79441,0,0,1,459.79,27.62113a3.76887,3.76887,0,0,1-2.099.80091q-2.26466,0-2.26466-2.9551Zm6.54541-15.13453a7.70949,7.70949,0,0,0-.41426-2.65131,3.63046,3.63046,0,0,0-1.13233-1.68468,6.22707,6.22707,0,0,0-1.38089-.82853,3.76962,3.76962,0,0,0-1.46374-.27618,6.025,6.025,0,0,0-2.70654.69045,9.94333,9.94333,0,0,0-4.52931,4.86072,15.55206,15.55206,0,0,0-1.7123,6.8492,5.70392,5.70392,0,0,0,1.49136,4.336,2.59374,2.59374,0,0,0,.80091.58v-.22094a2.88861,2.88861,0,0,1,.91139-2.04371,3.00229,3.00229,0,0,1,2.15418-.96662,2.23365,2.23365,0,0,1,1.18756.30379,1.90962,1.90962,0,0,1,.74568.82853,4.54762,4.54762,0,0,1,.33142.88377q.08285.359.1657.74568l.359-.24856A10.22793,10.22793,0,0,0,459.79,17.95491a15.078,15.078,0,0,0,1.7123-4.115A16.16571,16.16571,0,0,0,461.97182,10.13909Zm-8.89291,12.428a5.48189,5.48189,0,0,0,2.48559-.58l-.02761-.27618q-.11048-1.519-1.02186-1.82277a3.38042,3.38042,0,0,0-.52474-.05524h-.16571a.15991.15991,0,0,1-.11047-.02762,1.68206,1.68206,0,0,0-1.13232.55236,1.80984,1.80984,0,0,0-.60759,1.27042Q451.9742,22.56708,453.07891,22.56708Z"/>
    <g>
      <path id="MJMATHI-3C0-2" data-name="MJMATHI-3C0" class="cls-12" d="M468.83,11.90047a.57832.57832,0,0,1-.66387-.64435v-.21479l.25383-.54672a37.83485,37.83485,0,0,0,2.12831-5.33053l.15621-.46862h-.62483a6.51,6.51,0,0,0-1.05439.05858,2.11247,2.11247,0,0,0-.7615.371,2.55052,2.55052,0,0,0-.42957.35146,5.03215,5.03215,0,0,0-.371.41,2.407,2.407,0,0,0-.17573.23431,1.1131,1.1131,0,0,1-.29289.01953q-.371,0-.371-.19526a2.35768,2.35768,0,0,1,.371-.6834,6.63993,6.63993,0,0,1,1.07392-1.2106,2.65459,2.65459,0,0,1,1.38633-.742q.13668-.03906,4.39329-.03906,3.12412,0,3.20223.01953a.53308.53308,0,0,1,.39051.54672.81549.81549,0,0,1-.62482.82008,10.5887,10.5887,0,0,1-1.34728.039h-1.24965l-.05858.33194a14.65633,14.65633,0,0,0-.2343,2.32357,8.50734,8.50734,0,0,0,.17573,1.81589,7.05374,7.05374,0,0,0,.371,1.24965,2.27665,2.27665,0,0,1,.19525.54672.90487.90487,0,0,1-.27336.62482.91841.91841,0,0,1-.70292.29289.89969.89969,0,0,1-.35147-.05858q-.13668-.05857-.31241-.46861a5.64075,5.64075,0,0,1-.31241-1.17155q-.01953-.17573-.01953-.85913a12.95884,12.95884,0,0,1,.17573-2.05021q.17574-1.09344.35147-1.79637l.19526-.781H471.505l-.01952.07811q0,.05857-.371,1.54253t-.83961,3.14365a14.55071,14.55071,0,0,1-.6053,1.894A.821.821,0,0,1,468.83,11.90047Z"/>
      <path id="MJMAIN-31-2" data-name="MJMAIN-31" class="cls-12" d="M480.32382,6.64544l-.17951.069a3.95826,3.95826,0,0,1-.55236.13809,6.365,6.365,0,0,1-.80091.09666h-.26237V6.314h.26237a4.4909,4.4909,0,0,0,1.20137-.20713,3.2609,3.2609,0,0,0,.77329-.33142,3.5394,3.5394,0,0,0,.38665-.30379q.02763-.04143.16571-.04143a.3846.3846,0,0,1,.23475.08286V9.642l.01381,4.14266a.54682.54682,0,0,0,.16571.12428,1.63744,1.63744,0,0,0,.33141.05524q.26236.02761.85615.02762h.359v.6352h-.1519q-.29-.04141-2.19561-.04142-1.878,0-2.168.04142h-.16571v-.6352h.88377a3.318,3.318,0,0,0,.34522-.01381,1.35278,1.35278,0,0,0,.22094-.04143.82826.82826,0,0,1,.11047-.02762q.01381,0,.08286-.069t.08285-.05524Z"/>
    </g>
    <path id="MJMAIN-28" class="cls-12" d="M491.60567,16.15976a22.71576,22.71576,0,0,1,.27618-3.61793,25.31329,25.31329,0,0,1,.63521-2.9551,11.56416,11.56416,0,0,1,1.02186-2.43036q.66282-1.18757,1.04947-1.85039a7.33534,7.33534,0,0,1,1.15995-1.43612q.7733-.77329.91138-.939a4.97678,4.97678,0,0,1,.69045-.58h.4695q.38664,0,.38665.24856a2.2315,2.2315,0,0,1-.46951.58,12.53747,12.53747,0,0,0-1.13232,1.46374,19.10561,19.10561,0,0,0-1.35327,2.37512,15.71177,15.71177,0,0,0-1.15995,3.81125,27.8746,27.8746,0,0,0-.4695,5.33023,27.4411,27.4411,0,0,0,.4695,5.30261,17.93663,17.93663,0,0,0,1.13233,3.83887,12.50754,12.50754,0,0,0,1.35327,2.37512q.69043.91139,1.15994,1.46374a6.23807,6.23807,0,0,1,.46951.58q0,.24855-.41427.24856h-.44188l-.7733-.66283a13.62919,13.62919,0,0,1-3.78363-5.855A22.58034,22.58034,0,0,1,491.60567,16.15976Z"/>
    <path id="MJMATHI-73" class="cls-12" d="M503.39845,15.08267a4.0928,4.0928,0,0,1,.44189-1.79516,4.5436,4.5436,0,0,1,1.54659-1.68468,4.41275,4.41275,0,0,1,2.67893-.74568,3.48925,3.48925,0,0,1,2.48559.74568,2.36619,2.36619,0,0,1,.80092,1.65707,1.64475,1.64475,0,0,1-.4695,1.298,1.67322,1.67322,0,0,1-1.04948.44188,1.10307,1.10307,0,0,1-.66282-.22094.89348.89348,0,0,1-.33142-.71806,1.2533,1.2533,0,0,1,.24856-.7733,2.48128,2.48128,0,0,1,.4695-.49712.66839.66839,0,0,1,.359-.1657.02441.02441,0,0,0,.02762-.02762q0-.08286-.19332-.24856a1.88642,1.88642,0,0,0-.69045-.3038,4.88644,4.88644,0,0,0-1.07709-.1657,2.336,2.336,0,0,0-2.56845,2.1818.99839.99839,0,0,0,.52474.96662,5.7275,5.7275,0,0,0,1.519.4695,6.05267,6.05267,0,0,1,1.43613.41427,2.72945,2.72945,0,0,1,1.82277,2.6513,4.20267,4.20267,0,0,1-.3038,1.5466,6.1777,6.1777,0,0,1-.91138,1.54659,3.99524,3.99524,0,0,1-1.73992,1.21518,7.4994,7.4994,0,0,1-2.59607.46951,4.46725,4.46725,0,0,1-3.01033-.80092,2.55512,2.55512,0,0,1-.91139-1.878,1.87823,1.87823,0,0,1,.58-1.54659,1.907,1.907,0,0,1,1.21518-.4695,1.33253,1.33253,0,0,1,.7733.24856,1.02817,1.02817,0,0,1,.38665.85615,1.653,1.653,0,0,1-.49712,1.21518,1.36016,1.36016,0,0,1-.85615.49712.212.212,0,0,1-.08285.02762q-.02763,0-.02762.05523a.59687.59687,0,0,0,.22094.22094,3.85557,3.85557,0,0,0,.85615.359,5.43185,5.43185,0,0,0,3.23128-.11047,2.37255,2.37255,0,0,0,1.04947-.77329,3.66615,3.66615,0,0,0,.4695-.85615,2.08315,2.08315,0,0,0,.13809-.69045,1.30107,1.30107,0,0,0-.58-1.15994,2.93581,2.93581,0,0,0-1.32565-.46951,6.83492,6.83492,0,0,1-1.62945-.41426,2.55577,2.55577,0,0,1-1.298-.96662A2.77994,2.77994,0,0,1,503.39845,15.08267Z"/>
    <path id="MJMAIN-2C" class="cls-12" d="M514.88744,22.09758v-.69045a1.7271,1.7271,0,0,1,.44188-1.18756,1.50955,1.50955,0,0,1,1.18757-.49712,1.80534,1.80534,0,0,1,1.38089.69044,3.81276,3.81276,0,0,1,.6352,2.43037,7.10516,7.10516,0,0,1-.24856,1.878,8.58656,8.58656,0,0,1-.58,1.57422,5.9891,5.9891,0,0,1-.71806,1.13232q-.38666.4695-.66283.74568t-.359.24856q-.11046,0-.359-.24856t-.24856-.359q0-.11048.3038-.44188t.69044-.82853a5.30024,5.30024,0,0,0,.71806-1.38089,7.93281,7.93281,0,0,0,.44189-2.0161v-.33141l-.02762.02762a1.07116,1.07116,0,0,1-.13809.05523.697.697,0,0,0-.16571.08286.452.452,0,0,1-.24856.05523,2.01281,2.01281,0,0,0-.33141.02762,1.64425,1.64425,0,0,1-1.21518-.4695Z"/>
    <path id="MJMATHI-61" class="cls-12" d="M525.96216,18.72821a8.16139,8.16139,0,0,1,2.09895-5.30261,6.18028,6.18028,0,0,1,4.72264-2.54083,3.131,3.131,0,0,1,2.48559,1.35327,1.38191,1.38191,0,0,1,1.27042-.82853.98814.98814,0,0,1,.63521.22094.68009.68009,0,0,1,.27618.55235q0,.359-1.02186,4.41884t-1.04948,4.58455a1.47754,1.47754,0,0,0,.19333.91139.81129.81129,0,0,0,.58.24856,1.2,1.2,0,0,0,.55236-.24856,6.26237,6.26237,0,0,0,1.13232-2.65131q.16572-.55234.27618-.58a.80786.80786,0,0,1,.27618-.02762h.11047q.52474,0,.52474.24856a4.38646,4.38646,0,0,1-.13809.74568,8.66417,8.66417,0,0,1-.55236,1.49136,4.705,4.705,0,0,1-.88376,1.38089,2.73094,2.73094,0,0,1-.88377.58,2.94458,2.94458,0,0,1-.66283.05524,2.82289,2.82289,0,0,1-1.57421-.41427,2.12026,2.12026,0,0,1-.82853-.85615l-.16571-.41427q-.02761-.02761-.11047.02762l-.11047.11047a4.84209,4.84209,0,0,1-3.31413,1.5466,3.76914,3.76914,0,0,1-2.67892-1.10471A4.6538,4.6538,0,0,1,525.96216,18.72821Zm8.78245-4.72264a2.50014,2.50014,0,0,0-.13809-.60759,2.62592,2.62592,0,0,0-.63521-.96662,1.76539,1.76539,0,0,0-1.27042-.55235,2.65029,2.65029,0,0,0-1.85039.85615,5.7786,5.7786,0,0,0-1.38088,2.237,22.04778,22.04778,0,0,0-1.13233,4.52931v.30379a1.47231,1.47231,0,0,1-.02762.33142,2.31944,2.31944,0,0,0,.49712,1.7123,1.77866,1.77866,0,0,0,1.18756.49712,3.11858,3.11858,0,0,0,2.07133-.91139,4.64415,4.64415,0,0,0,1.21519-1.4085q.05523-.11048.74567-2.9551T534.74461,14.00557Z"/>
    <path id="MJMAIN-29" class="cls-12" d="M541.31763,2.3785l.11047-.02762h.60759l.7733.66283a13.62919,13.62919,0,0,1,3.78363,5.855,22.58034,22.58034,0,0,1,1.18757,7.29109,23.05574,23.05574,0,0,1-.27618,3.61793,23.747,23.747,0,0,1-.63521,2.9551,12.43835,12.43835,0,0,1-1.02186,2.43036q-.66282,1.21518-1.04947,1.85039a8.40146,8.40146,0,0,1-1.13233,1.4085q-.74568.7733-.88377.91139t-.63521.52474l-.11047.11047h-.6352a.16228.16228,0,0,1-.13809-.08286.64991.64991,0,0,1-.08286-.24856q.02762-.02761.3038-.359,4.28075-4.44645,4.28075-13.11843T541.48334,3.04133q-.27618-.33142-.3038-.359A.32461.32461,0,0,1,541.31763,2.3785Z"/>
  </g>
  <g>
    <path id="MJMATHI-56" class="cls-12" d="M224.17488,6.19217A1.25558,1.25558,0,0,1,224.52,5.263h.292q1.11495.07965,2.7874.07964,3.13249,0,3.69-.07964h.26547q.15929.15929.15928.23892t-.05309.47784a1.46229,1.46229,0,0,1-.23892.50439h-.55748q-.584.0531-.7964.05309-.76986.13273-.8495.3982,0,.0531.76986,6.66322t.7964,6.66321l1.9379-3.106q1.93791-3.106,3.87581-6.265t1.991-3.26524a.78955.78955,0,0,0,.10619-.3982q0-.63713-1.168-.74331-.47784,0-.47784-.292,0-.02655.05309-.34511a1.42848,1.42848,0,0,1,.15928-.47784.42145.42145,0,0,1,.34511-.10619h.31856q.26547,0,.90258.02655t1.699.02655q1.83173,0,2.30956-.0531h.18583q.18582.18583.18582.292a1.62377,1.62377,0,0,1-.23892.84949.75961.75961,0,0,1-.45129.07964q-.34511.02655-.63712.05309A1.97414,1.97414,0,0,0,241.324,6.67q-.26547.10618-.42475.18582a1.66277,1.66277,0,0,0-.31856.21238,1.48413,1.48413,0,0,1-.26546.18582.57713.57713,0,0,0-.21238.23892q-.10618.18583-.18582.18583l-5.12351,8.22947q-4.7784,7.72507-4.93768,7.9109-.07963.0531-.18582.13273l-.47784.02655h-.18583q-.47784,0-.47784-.18583-.07963-.15927-1.03532-8.49493-1.00878-8.44184-1.03532-8.52148-.13273-.292-1.64589-.292h-.4513A.36777.36777,0,0,1,224.17488,6.19217Z"/>
    <g>
      <path id="MJMATHI-3C0-3" data-name="MJMATHI-3C0" class="cls-12" d="M247.17289,12.66363a.55589.55589,0,0,1-.63813-.61936v-.20645l.244-.52552a36.36789,36.36789,0,0,0,2.04576-5.1238l.15015-.45044h-.60059a6.25688,6.25688,0,0,0-1.0135.05631,2.03028,2.03028,0,0,0-.732.3566,2.45155,2.45155,0,0,0-.41291.33783,4.83879,4.83879,0,0,0-.3566.39414,2.31118,2.31118,0,0,0-.16891.22522,1.07026,1.07026,0,0,1-.28153.01877q-.35661,0-.3566-.18769a2.26577,2.26577,0,0,1,.3566-.65689,6.38193,6.38193,0,0,1,1.03227-1.16365,2.55158,2.55158,0,0,1,1.33256-.7132q.13139-.03754,4.22291-.03754,3.003,0,3.078.01877a.51241.51241,0,0,1,.37537.52552.78386.78386,0,0,1-.60059.78827,10.17735,10.17735,0,0,1-1.295.03754H252.353l-.05631.31906a14.08836,14.08836,0,0,0-.22522,2.23346,8.17772,8.17772,0,0,0,.16892,1.74546,6.78159,6.78159,0,0,0,.3566,1.20119,2.18869,2.18869,0,0,1,.18769.52552.86981.86981,0,0,1-.26276.60059.88284.88284,0,0,1-.67567.28152.86486.86486,0,0,1-.33783-.0563q-.13138-.05631-.3003-.45044a5.42142,5.42142,0,0,1-.30029-1.12611q-.01878-.16892-.01877-.82582A12.45577,12.45577,0,0,1,251.058,8.2155q.16893-1.051.33784-1.7267l.18768-.75074h-1.83931l-.01877.07507q0,.05631-.3566,1.48272t-.807,3.02172a13.98636,13.98636,0,0,1-.58183,1.82055A.78916.78916,0,0,1,247.17289,12.66363Z"/>
      <path id="MJMAIN-31-3" data-name="MJMAIN-31" class="cls-12" d="M258.221,7.61241l-.17255.06637a3.80475,3.80475,0,0,1-.53094.13273,6.11754,6.11754,0,0,1-.76985.09292h-.25219V7.29385h.25219a4.316,4.316,0,0,0,1.15478-.1991,3.13438,3.13438,0,0,0,.74331-.31856,3.402,3.402,0,0,0,.37165-.292q.02655-.03983.15928-.03982a.36972.36972,0,0,1,.22565.07964v3.96873l.01327,3.982a.52573.52573,0,0,0,.15928.11946,1.57482,1.57482,0,0,0,.31856.05309q.25219.02655.82295.02655h.3451v.61057h-.146q-.27875-.03983-2.11046-.03982-1.80518,0-2.08392.03982h-.15928v-.61057h.8495a3.18711,3.18711,0,0,0,.33183-.01328,1.29951,1.29951,0,0,0,.21237-.03982.79464.79464,0,0,1,.10619-.02654q.01328,0,.07964-.06637t.07964-.05309Z"/>
    </g>
    <path id="MJMAIN-28-2" data-name="MJMAIN-28" class="cls-12" d="M269.06528,16.75774a21.83453,21.83453,0,0,1,.26547-3.47761,24.33054,24.33054,0,0,1,.61057-2.8405,11.11573,11.11573,0,0,1,.98223-2.3361q.63711-1.14151,1.00877-1.77863a7.05084,7.05084,0,0,1,1.115-1.38043q.74331-.74329.876-.90258a4.78348,4.78348,0,0,1,.66367-.55748h.45129q.37166,0,.37165.23892a2.14509,2.14509,0,0,1-.45129.55748,12.05186,12.05186,0,0,0-1.08841,1.407,18.36678,18.36678,0,0,0-1.30079,2.283,15.10283,15.10283,0,0,0-1.115,3.66344,26.79367,26.79367,0,0,0-.45129,5.12351,26.37694,26.37694,0,0,0,.45129,5.097,17.241,17.241,0,0,0,1.08841,3.69,12.02311,12.02311,0,0,0,1.30079,2.283q.66366.876,1.115,1.407a5.99534,5.99534,0,0,1,.45129.55748q0,.23892-.3982.23892H274.587l-.74331-.63712a13.10055,13.10055,0,0,1-3.63689-5.62789A21.70447,21.70447,0,0,1,269.06528,16.75774Z"/>
    <path id="MJMATHI-73-2" data-name="MJMATHI-73" class="cls-12" d="M280.40071,15.72242a3.93406,3.93406,0,0,1,.42474-1.72553,4.36737,4.36737,0,0,1,1.48662-1.61935,4.24152,4.24152,0,0,1,2.575-.71676,3.354,3.354,0,0,1,2.3892.71676,2.27437,2.27437,0,0,1,.76985,1.5928,1.58094,1.58094,0,0,1-.45129,1.24769,1.60832,1.60832,0,0,1-1.00877.42475,1.06034,1.06034,0,0,1-.63712-.21237.85889.85889,0,0,1-.31856-.69022,1.20462,1.20462,0,0,1,.23892-.7433,2.38449,2.38449,0,0,1,.45129-.47784.64241.64241,0,0,1,.34511-.15928.02346.02346,0,0,0,.02654-.02655q0-.07964-.18582-.23892a1.81331,1.81331,0,0,0-.66367-.292,4.69665,4.69665,0,0,0-1.03532-.15928,2.2454,2.2454,0,0,0-2.46884,2.09718.95969.95969,0,0,0,.50439.92914,5.506,5.506,0,0,0,1.46006.45129,5.81726,5.81726,0,0,1,1.38043.3982,2.6236,2.6236,0,0,1,1.75208,2.54848,4.03977,4.03977,0,0,1-.292,1.48661,5.93813,5.93813,0,0,1-.876,1.48661,3.84033,3.84033,0,0,1-1.67244,1.16806,7.20857,7.20857,0,0,1-2.49539.45129,4.294,4.294,0,0,1-2.89358-.76985,2.456,2.456,0,0,1-.876-1.80518,1.80538,1.80538,0,0,1,.55748-1.48661,1.833,1.833,0,0,1,1.16805-.45129,1.2809,1.2809,0,0,1,.74331.23892.98829.98829,0,0,1,.37165.82294,1.58887,1.58887,0,0,1-.47784,1.16806,1.3074,1.3074,0,0,1-.82295.47784.20363.20363,0,0,1-.07964.02654q-.02655,0-.02654.0531a.57366.57366,0,0,0,.21237.21237,3.70594,3.70594,0,0,0,.82295.34511,5.22136,5.22136,0,0,0,3.106-.10619,2.2805,2.2805,0,0,0,1.00878-.74331,3.5242,3.5242,0,0,0,.45129-.82294,2.00228,2.00228,0,0,0,.13273-.66367,1.25062,1.25062,0,0,0-.55748-1.115,2.82187,2.82187,0,0,0-1.27424-.45129,6.57012,6.57012,0,0,1-1.56625-.3982,2.45673,2.45673,0,0,1-1.24769-.92913A2.67213,2.67213,0,0,1,280.40071,15.72242Z"/>
    <path id="MJMAIN-29-2" data-name="MJMAIN-29" class="cls-12" d="M290.96628,3.511l.10618-.02655h.584l.74331.63712a13.10058,13.10058,0,0,1,3.63689,5.62789,21.70469,21.70469,0,0,1,1.14151,7.00832,22.16131,22.16131,0,0,1-.26547,3.47761,22.825,22.825,0,0,1-.61057,2.84049,11.95666,11.95666,0,0,1-.98223,2.33611q-.63713,1.16805-1.00877,1.77863a8.07558,8.07558,0,0,1-1.08842,1.35388q-.71676.74329-.84949.876t-.61057.50438l-.10619.10619h-.61057a.156.156,0,0,1-.13274-.07964.625.625,0,0,1-.07964-.23892q.02655-.02655.292-.34511,4.11473-4.274,4.11473-12.60966T291.12556,4.14807q-.26547-.31855-.292-.3451A.312.312,0,0,1,290.96628,3.511Z"/>
  </g>
</svg>
