<svg id="Layer_1" data-name="Layer 1" xmlns="http://www.w3.org/2000/svg" viewBox="0 0 263.49 81.2"><defs><style>.cls-1{fill:#e7ebe8;}.cls-2{fill:#b2b3c3;}.cls-3{fill:#cac9cc;}.cls-4{fill:#58595b;}.cls-5{opacity:0.65;}.cls-6{fill:none;stroke:#58595b;stroke-linecap:round;stroke-miterlimit:10;stroke-width:0.75px;}</style></defs><title>qfunc-intro</title><rect class="cls-1" x="1.44" y="0.88" width="25.45" height="25.45"/><polygon class="cls-2" points="4.79 13.61 7.43 18.9 7.43 8.32 4.79 13.61"/><polygon class="cls-2" points="14.14 23.05 19.43 20.41 8.85 20.41 14.14 23.05"/><polygon class="cls-2" points="23.54 13.61 20.91 8.32 20.91 18.9 23.54 13.61"/><polygon class="cls-2" points="14.14 4.22 8.85 6.86 19.43 6.86 14.14 4.22"/><rect class="cls-1" x="28.28" y="0.89" width="25.45" height="25.45"/><polygon class="cls-2" points="31.63 13.61 34.26 18.9 34.26 8.32 31.63 13.61"/><polygon class="cls-2" points="40.98 23.05 46.27 20.42 35.68 20.42 40.98 23.05"/><polygon class="cls-2" points="50.38 13.62 47.74 8.33 47.74 18.91 50.38 13.62"/><polygon class="cls-2" points="40.98 4.23 35.68 6.86 46.27 6.86 40.98 4.23"/><rect class="cls-1" x="55.18" y="0.9" width="25.45" height="25.45"/><polygon class="cls-2" points="58.53 13.62 61.16 18.91 61.16 8.33 58.53 13.62"/><polygon class="cls-2" points="67.88 23.07 73.17 20.43 62.59 20.43 67.88 23.07"/><polygon class="cls-2" points="77.28 13.63 74.64 8.34 74.64 18.92 77.28 13.63"/><polygon class="cls-2" points="67.88 4.24 62.59 6.87 73.17 6.87 67.88 4.24"/><rect class="cls-1" x="1.44" y="27.71" width="25.45" height="25.45"/><polygon class="cls-2" points="4.79 40.44 7.43 45.73 7.43 35.15 4.79 40.44"/><polygon class="cls-2" points="14.14 49.88 19.43 47.24 8.85 47.24 14.14 49.88"/><polygon class="cls-2" points="23.54 40.44 20.91 35.15 20.91 45.73 23.54 40.44"/><polygon class="cls-2" points="14.14 31.05 8.85 33.69 19.43 33.69 14.14 31.05"/><rect class="cls-1" x="28.28" y="27.72" width="25.45" height="25.45"/><polygon class="cls-2" points="31.63 40.44 34.26 45.73 34.26 35.15 31.63 40.44"/><polygon class="cls-2" points="40.98 49.88 46.27 47.25 35.68 47.25 40.98 49.88"/><polygon class="cls-2" points="50.38 40.45 47.74 35.16 47.74 45.74 50.38 40.45"/><polygon class="cls-2" points="40.98 31.05 35.68 33.69 46.27 33.69 40.98 31.05"/><rect class="cls-1" x="55.18" y="27.73" width="25.45" height="25.45"/><polygon class="cls-2" points="58.53 40.45 61.16 45.74 61.16 35.16 58.53 40.45"/><polygon class="cls-2" points="67.88 49.89 73.17 47.26 62.59 47.26 67.88 49.89"/><polygon class="cls-2" points="77.28 40.46 74.64 35.17 74.64 45.75 77.28 40.46"/><polygon class="cls-2" points="67.88 31.07 62.59 33.7 73.17 33.7 67.88 31.07"/><rect class="cls-1" x="1.44" y="54.66" width="25.45" height="25.45"/><polygon class="cls-2" points="4.79 67.38 7.43 72.67 7.43 62.09 4.79 67.38"/><polygon class="cls-2" points="14.14 76.82 19.43 74.19 8.85 74.19 14.14 76.82"/><polygon class="cls-2" points="23.54 67.39 20.91 62.1 20.91 72.68 23.54 67.39"/><polygon class="cls-2" points="14.14 57.99 8.85 60.63 19.43 60.63 14.14 57.99"/><rect class="cls-1" x="28.28" y="54.66" width="25.45" height="25.45"/><polygon class="cls-2" points="31.63 67.39 34.26 72.68 34.26 62.09 31.63 67.39"/><polygon class="cls-2" points="40.98 76.83 46.27 74.19 35.68 74.19 40.98 76.83"/><polygon class="cls-2" points="50.38 67.39 47.74 62.1 47.74 72.68 50.38 67.39"/><polygon class="cls-2" points="40.98 58 35.68 60.63 46.27 60.63 40.98 58"/><rect class="cls-1" x="55.18" y="54.67" width="25.45" height="25.45"/><polygon class="cls-2" points="58.53 67.4 61.16 72.69 61.16 62.11 58.53 67.4"/><polygon class="cls-2" points="67.88 76.84 73.17 74.2 62.59 74.2 67.88 76.84"/><polygon class="cls-2" points="77.28 67.4 74.64 62.11 74.64 72.69 77.28 67.4"/><polygon class="cls-2" points="67.88 58.01 62.59 60.65 73.17 60.65 67.88 58.01"/><rect class="cls-1" x="183.75" y="0.94" width="25.45" height="25.45"/><rect class="cls-1" x="210.58" y="0.95" width="25.45" height="25.45"/><rect class="cls-1" x="237.49" y="0.96" width="25.45" height="25.45"/><rect class="cls-1" x="183.75" y="27.77" width="25.45" height="25.45"/><rect class="cls-1" x="210.58" y="27.78" width="25.45" height="25.45"/><rect class="cls-1" x="237.49" y="27.79" width="25.45" height="25.45"/><rect class="cls-1" x="183.75" y="54.72" width="25.45" height="25.45"/><rect class="cls-1" x="210.58" y="54.72" width="25.45" height="25.45"/><rect class="cls-1" x="237.49" y="54.73" width="25.45" height="25.45"/><circle class="cls-3" cx="196.32" cy="13.7" r="8.06"/><circle class="cls-3" cx="223.58" cy="13.7" r="8.06"/><circle class="cls-3" cx="250.19" cy="13.64" r="8.06"/><circle class="cls-3" cx="196.32" cy="40.83" r="8.06"/><circle class="cls-3" cx="223.58" cy="40.83" r="8.06"/><circle class="cls-3" cx="250.19" cy="40.77" r="8.06"/><circle class="cls-3" cx="196.32" cy="67.41" r="8.06"/><circle class="cls-3" cx="223.58" cy="67.55" r="8.06"/><circle class="cls-3" cx="250.19" cy="67.48" r="8.06"/><path id="MJMATHI-56" class="cls-4" d="M86.17,34.56a.39.39,0,0,1,.11-.31h.1c.25,0,.56,0,.93,0,.7,0,1.12,0,1.24,0h.09a.1.1,0,0,1,0,.08,1.36,1.36,0,0,1,0,.16.68.68,0,0,1-.08.17h-.46c-.17,0-.27.08-.28.14s.08.75.25,2.23.27,2.22.27,2.23l.65-1c.43-.69.87-1.39,1.3-2.1L91,35a.31.31,0,0,0,0-.13c0-.15-.13-.23-.39-.25-.11,0-.16,0-.16-.1s0-.05,0-.12a.6.6,0,0,1,0-.16.17.17,0,0,1,.12,0h1c.41,0,.66,0,.77,0h.06s.07.07.07.1a.57.57,0,0,1-.08.28s-.07,0-.16,0H92.1l-.19,0-.14.06-.11.07-.08.07s0,0-.08.08,0,.06-.06.06l-1.72,2.76c-1.06,1.72-1.61,2.61-1.65,2.65l-.06,0h-.22c-.11,0-.16,0-.16-.06s-.14-1-.35-2.85-.34-2.84-.35-2.86-.21-.09-.55-.09h-.15A.14.14,0,0,1,86.17,34.56Z"/><path id="MJMAIN-28" class="cls-4" d="M93.38,38.1a7.31,7.31,0,0,1,.09-1.17,8.07,8.07,0,0,1,.21-1A3.47,3.47,0,0,1,94,35.2l.34-.6a2.77,2.77,0,0,1,.38-.46l.29-.3a1.26,1.26,0,0,1,.22-.19h.15c.09,0,.13,0,.13.08s-.05.08-.15.19a3.86,3.86,0,0,0-.37.47,5.3,5.3,0,0,0-.43.77,4.9,4.9,0,0,0-.38,1.22A9.1,9.1,0,0,0,94,38.1a8.92,8.92,0,0,0,.15,1.71A5.18,5.18,0,0,0,94.55,41a3.84,3.84,0,0,0,.43.77c.15.2.28.35.38.47l.15.19c0,.05-.05.08-.14.08h-.14L95,42.33a4.48,4.48,0,0,1-1.22-1.88A7.42,7.42,0,0,1,93.38,38.1Z"/><path id="MJMATHI-73" class="cls-4" d="M97.18,37.75a1.41,1.41,0,0,1,.14-.58,1.56,1.56,0,0,1,.5-.54,1.52,1.52,0,0,1,.86-.24,1.11,1.11,0,0,1,.8.24.73.73,0,0,1,.26.54.5.5,0,0,1-.15.41.56.56,0,0,1-.34.15.4.4,0,0,1-.21-.07.31.31,0,0,1-.11-.24.46.46,0,0,1,.08-.25l.15-.16a.28.28,0,0,1,.12,0h0s0,0-.06-.08a.86.86,0,0,0-.23-.1,1.74,1.74,0,0,0-.34-.05A.79.79,0,0,0,98,37a.8.8,0,0,0-.2.47.34.34,0,0,0,.17.32,2.06,2.06,0,0,0,.49.15A1.75,1.75,0,0,1,99,38a.88.88,0,0,1,.59.85,1.24,1.24,0,0,1-.1.5,2.15,2.15,0,0,1-.29.5,1.23,1.23,0,0,1-.56.39,2.24,2.24,0,0,1-.84.15,1.45,1.45,0,0,1-1-.25.82.82,0,0,1-.29-.61.62.62,0,0,1,.18-.5.64.64,0,0,1,.39-.15.44.44,0,0,1,.25.08.34.34,0,0,1,.13.28.57.57,0,0,1-.16.39.48.48,0,0,1-.28.16h0s0,.05.07.08a1.38,1.38,0,0,0,.27.11,1.3,1.3,0,0,0,.49.06,1.47,1.47,0,0,0,.55-.09.77.77,0,0,0,.34-.25,1.3,1.3,0,0,0,.15-.28.68.68,0,0,0,0-.22.4.4,0,0,0-.19-.37.9.9,0,0,0-.43-.16,1.88,1.88,0,0,1-.52-.13.8.8,0,0,1-.42-.31A.91.91,0,0,1,97.18,37.75Z"/><path id="MJMAIN-29" class="cls-4" d="M100.72,33.66H101l.25.22a4.3,4.3,0,0,1,1.22,1.88,7.14,7.14,0,0,1,.38,2.35,7.49,7.49,0,0,1-.09,1.17,7.4,7.4,0,0,1-.2.95,4.34,4.34,0,0,1-.33.78c-.14.26-.25.46-.34.6a2.93,2.93,0,0,1-.36.45l-.29.29-.2.17,0,0h-.2s0,0,0,0a.15.15,0,0,1,0-.08l.09-.11a5.89,5.89,0,0,0,1.38-4.23,5.89,5.89,0,0,0-1.38-4.23l-.09-.11A.11.11,0,0,1,100.72,33.66Z"/><path id="MJMAIN-3D" class="cls-4" d="M106.62,37.24a.19.19,0,0,1,.12-.18h5.67a.21.21,0,0,1,.13.18.21.21,0,0,1-.12.17h-5.66A.18.18,0,0,1,106.62,37.24Zm0,1.72a.16.16,0,0,1,.14-.17h5.66a.21.21,0,0,1,.12.17.19.19,0,0,1-.13.18h-5.67A.19.19,0,0,1,106.62,39Z"/><path id="MJSZ2-2211" class="cls-4" d="M116.06,31.89s1.81,0,5.38,0h5.36l.51,1.2.56,1.3h-.35l-.07-.12a3,3,0,0,0-.49-.7,3.88,3.88,0,0,0-1-.68,4.79,4.79,0,0,0-1.26-.38,8.2,8.2,0,0,0-1.34-.15l-1.63,0h-4l.07.1L122,38.08v.06s-.8.91-2.35,2.68l-2.35,2.67h4.27c.81,0,1.46,0,2,0a12.45,12.45,0,0,0,1.48-.18,4.24,4.24,0,0,0,1.26-.44,3.17,3.17,0,0,0,.91-.77,2.85,2.85,0,0,0,.37-.64h.35l-.06.18c0,.12-.11.32-.22.58s-.2.52-.28.75l-.51,1.38h-5.35c-3.57,0-5.36,0-5.38,0a.08.08,0,0,1-.06-.08l0,0,4.74-5.43a4.1,4.1,0,0,0-.29-.4c-.2-.26-.51-.69-.93-1.28s-.82-1.12-1.16-1.59L116,32.24V32.1C116,32,116,31.91,116.06,31.89Z"/><path id="MJMATHI-69" class="cls-4" d="M122,46.21a.34.34,0,0,1,.12-.26.36.36,0,0,1,.27-.12.25.25,0,0,1,.19.07.27.27,0,0,1,.08.19.37.37,0,0,1-.12.27.41.41,0,0,1-.28.12.32.32,0,0,1-.18-.06A.26.26,0,0,1,122,46.21Zm-1,2a.62.62,0,0,1,.06-.19,2.3,2.3,0,0,1,.15-.33,1.12,1.12,0,0,1,.27-.32.58.58,0,0,1,.38-.13.57.57,0,0,1,.41.14.51.51,0,0,1,.17.39,1.17,1.17,0,0,1-.09.35c-.06.17-.14.39-.25.66s-.2.52-.26.71a1.19,1.19,0,0,0,0,.2c0,.11,0,.16.1.16a.25.25,0,0,0,.12,0,.42.42,0,0,0,.15-.09.73.73,0,0,0,.17-.22,1.42,1.42,0,0,0,.15-.37s0-.08,0-.08,0,0,.1,0,.13,0,.13.07a.71.71,0,0,1-.06.19,2.38,2.38,0,0,1-.16.32,1,1,0,0,1-.28.32.63.63,0,0,1-.39.13.58.58,0,0,1-.37-.13.52.52,0,0,1-.18-.4.45.45,0,0,1,0-.2l.27-.72c.16-.42.25-.68.27-.76a1.14,1.14,0,0,0,0-.24c0-.11,0-.16-.11-.16h0a.45.45,0,0,0-.35.21,1.73,1.73,0,0,0-.24.53,0,0,0,0,0,0,0v0H121S121,48.19,121,48.18Z"/><path id="MJMATHI-70" class="cls-4" d="M130.06,37.77a.64.64,0,0,0,0-.07s0-.1,0-.2l.09-.27.14-.3a.9.9,0,0,1,.17-.26,2.54,2.54,0,0,1,.24-.2.41.41,0,0,1,.29-.08.8.8,0,0,1,.85.57l.09-.08a1.67,1.67,0,0,1,1-.49,1.09,1.09,0,0,1,.91.42,1.59,1.59,0,0,1,.33,1,2.71,2.71,0,0,1-.68,1.77,2,2,0,0,1-1.53.82.9.9,0,0,1-.34,0,.8.8,0,0,1-.21-.13l-.17-.15-.06-.08s-.07.27-.2.78l-.18.77s0,.06.07.06l.33,0h.22a.15.15,0,0,1,.05.08s0,.07,0,.16,0,.12-.06.13-.05,0-.11,0h-.95c-.42,0-.68,0-.8,0h-.07s-.06-.07-.06-.1a.39.39,0,0,1,.12-.31h.17c.21,0,.32,0,.35-.11s.2-.74.54-2.12.53-2.12.55-2.2v-.12c0-.25-.07-.37-.22-.37a.38.38,0,0,0-.33.25,2.49,2.49,0,0,0-.2.54c-.05.2-.08.31-.11.32s-.06,0-.14,0h-.13A.15.15,0,0,1,130.06,37.77Zm1.38,1.65c.13.45.35.67.66.67a.8.8,0,0,0,.51-.2,1.5,1.5,0,0,0,.41-.52,3.9,3.9,0,0,0,.32-1,4.53,4.53,0,0,0,.17-1v0q0-.66-.54-.66l-.2,0a.77.77,0,0,0-.19.08.78.78,0,0,0-.18.11l-.15.14-.13.13a.53.53,0,0,0-.1.12.17.17,0,0,1-.07.09l0,0a.9.9,0,0,1,0,.12c0,.08,0,.21-.09.4s-.09.33-.13.46C131.52,39.07,131.44,39.39,131.44,39.42Z"/><path id="MJMAIN-28-2" data-name="MJMAIN-28" class="cls-4" d="M135.17,38.1a7.31,7.31,0,0,1,.09-1.17,8.22,8.22,0,0,1,.2-1,4.05,4.05,0,0,1,.33-.78c.14-.26.26-.45.34-.6a2.65,2.65,0,0,1,.37-.46l.3-.3a1.26,1.26,0,0,1,.22-.19h.15c.08,0,.12,0,.12.08s0,.08-.15.19a4,4,0,0,0-.36.47,6.37,6.37,0,0,0-.44.77,4.94,4.94,0,0,0-.37,1.22,9.1,9.1,0,0,0-.15,1.72,8.92,8.92,0,0,0,.15,1.71,5.74,5.74,0,0,0,.36,1.23,4.38,4.38,0,0,0,.44.77l.37.47.15.19c0,.05,0,.08-.13.08H137l-.25-.22a4.39,4.39,0,0,1-1.22-1.88A7.42,7.42,0,0,1,135.17,38.1Z"/><path id="MJMATHI-61" class="cls-4" d="M138.1,38.93a2.63,2.63,0,0,1,.67-1.71,2,2,0,0,1,1.52-.82,1,1,0,0,1,.8.44.45.45,0,0,1,.41-.27.31.31,0,0,1,.21.07.23.23,0,0,1,.09.18c0,.08-.11.55-.33,1.42a14.74,14.74,0,0,0-.34,1.48.46.46,0,0,0,.06.29.23.23,0,0,0,.19.08.34.34,0,0,0,.18-.08,2.1,2.1,0,0,0,.36-.85c0-.12.07-.18.09-.19h.12c.12,0,.17,0,.17.08a1.12,1.12,0,0,1,0,.24,2.47,2.47,0,0,1-.18.48,1.52,1.52,0,0,1-.28.45,1,1,0,0,1-.29.19h-.21a.92.92,0,0,1-.51-.13.71.71,0,0,1-.27-.28l-.05-.13s0,0,0,0l0,0a1.54,1.54,0,0,1-1.07.5,1.24,1.24,0,0,1-.86-.35A1.51,1.51,0,0,1,138.1,38.93Zm2.82-1.52a.74.74,0,0,0,0-.2.94.94,0,0,0-.2-.31.62.62,0,0,0-.41-.18.84.84,0,0,0-.6.28,1.85,1.85,0,0,0-.45.72,7.09,7.09,0,0,0-.36,1.46v.09a.31.31,0,0,1,0,.11.72.72,0,0,0,.16.55.57.57,0,0,0,.38.16,1,1,0,0,0,.67-.29,1.59,1.59,0,0,0,.39-.45s.09-.35.24-1S140.92,37.45,140.92,37.41Z"/><path id="MJMATHI-69-2" data-name="MJMATHI-69" class="cls-4" d="M143.66,37.89a.34.34,0,0,1,.12-.26.39.39,0,0,1,.28-.12.25.25,0,0,1,.19.07.27.27,0,0,1,.08.19.32.32,0,0,1-.13.26.39.39,0,0,1-.27.13.3.3,0,0,1-.18-.06A.29.29,0,0,1,143.66,37.89Zm-1,2a1.08,1.08,0,0,1,.05-.2,3.16,3.16,0,0,1,.16-.32,1.12,1.12,0,0,1,.27-.32.64.64,0,0,1,.38-.14.59.59,0,0,1,.41.15.51.51,0,0,1,.17.39,1.17,1.17,0,0,1-.09.35c-.06.16-.14.38-.25.66s-.2.51-.27.71a1.06,1.06,0,0,0,0,.2c0,.11,0,.16.11.16l.12,0a.33.33,0,0,0,.14-.09.58.58,0,0,0,.17-.22,1.42,1.42,0,0,0,.16-.37.22.22,0,0,1,0-.09h.11c.08,0,.13,0,.13.06a.65.65,0,0,1-.06.2,2.38,2.38,0,0,1-.16.32,1,1,0,0,1-.28.31.59.59,0,0,1-.39.14.56.56,0,0,1-.37-.13.49.49,0,0,1-.18-.4.64.64,0,0,1,0-.2c0-.07.11-.3.27-.72s.26-.68.28-.76a.73.73,0,0,0,0-.25c0-.1,0-.15-.1-.15h0a.43.43,0,0,0-.34.21,1.3,1.3,0,0,0-.24.53,0,0,0,0,0,0,0v0h-.19S142.64,39.87,142.64,39.86Z"/><path id="MJMAIN-29-2" data-name="MJMAIN-29" class="cls-4" d="M146.11,33.66h.23l.25.22a4.3,4.3,0,0,1,1.22,1.88,7.14,7.14,0,0,1,.38,2.35,7.49,7.49,0,0,1-.09,1.17,7.4,7.4,0,0,1-.2.95,4.34,4.34,0,0,1-.33.78c-.14.26-.26.46-.34.6a2.93,2.93,0,0,1-.36.45l-.29.29-.2.17,0,0h-.2a.05.05,0,0,1,0,0,.15.15,0,0,1,0-.08l.09-.11a5.89,5.89,0,0,0,1.38-4.23,5.89,5.89,0,0,0-1.38-4.23l-.09-.11A.11.11,0,0,1,146.11,33.66Z"/><path id="MJMATHI-51" class="cls-4" d="M152.59,41c0-.2,0-.35,0-.45a1.54,1.54,0,0,1,0-.17v0l-.13,0a3,3,0,0,1-.75.1,2.22,2.22,0,0,1-1.46-.51,2.25,2.25,0,0,1-.78-1.47s0-.18,0-.39a3.6,3.6,0,0,1,.43-1.72A4.85,4.85,0,0,1,151.06,35a3.46,3.46,0,0,1,2.21-.92h.43a2.12,2.12,0,0,1,1.39.77,2.44,2.44,0,0,1,.53,1.61,4.38,4.38,0,0,1-2.48,3.73l-.15.07v0s0,.08,0,.24a.66.66,0,0,0,.19.37.53.53,0,0,0,.41.14,1,1,0,0,0,.59-.19.92.92,0,0,0,.38-.51c0-.08.07-.12.11-.12s.09,0,.1.08a1.47,1.47,0,0,1-.09.32,6,6,0,0,1-.25.58,1.4,1.4,0,0,1-.48.58,1.2,1.2,0,0,1-.67.26c-.49,0-.73-.32-.73-.95Zm2.11-4.88a2.4,2.4,0,0,0-.14-.85,1.2,1.2,0,0,0-.36-.55,2.35,2.35,0,0,0-.45-.26,1.19,1.19,0,0,0-.47-.09,1.93,1.93,0,0,0-.87.22A3.17,3.17,0,0,0,151,36.2a4.93,4.93,0,0,0-.55,2.2,1.84,1.84,0,0,0,.48,1.4.94.94,0,0,0,.26.19v-.08a.94.94,0,0,1,.29-.65.92.92,0,0,1,.69-.31.8.8,0,0,1,.39.09.78.78,0,0,1,.24.27,1.2,1.2,0,0,1,.1.28l.06.24.11-.08a3.15,3.15,0,0,0,1-1.07,4.76,4.76,0,0,0,.55-1.33A4.71,4.71,0,0,0,154.7,36.16Zm-2.87,4a1.8,1.8,0,0,0,.8-.18v-.09c0-.33-.13-.52-.33-.59l-.17,0H152a.56.56,0,0,0-.37.18.58.58,0,0,0-.19.41C151.48,40.06,151.59,40.16,151.83,40.16Z"/><path id="MJMAIN-28-3" data-name="MJMAIN-28" class="cls-4" d="M156.92,38.1a7.31,7.31,0,0,1,.09-1.17c.06-.36.13-.68.2-1a4.05,4.05,0,0,1,.33-.78l.34-.6a2.65,2.65,0,0,1,.37-.46l.3-.3a1.26,1.26,0,0,1,.22-.19h.15c.08,0,.13,0,.13.08s-.05.08-.15.19a3.08,3.08,0,0,0-.37.47,6.37,6.37,0,0,0-.44.77,5.41,5.41,0,0,0-.37,1.22,9.1,9.1,0,0,0-.15,1.72,8.92,8.92,0,0,0,.15,1.71,5.18,5.18,0,0,0,.37,1.23,3.84,3.84,0,0,0,.43.77c.15.2.27.35.38.47l.15.19c0,.05-.05.08-.14.08h-.14l-.25-.22a4.39,4.39,0,0,1-1.22-1.88A7.42,7.42,0,0,1,156.92,38.1Z"/><path id="MJMATHI-73-2" data-name="MJMATHI-73" class="cls-4" d="M160.71,37.75a1.41,1.41,0,0,1,.14-.58,1.56,1.56,0,0,1,.5-.54,1.52,1.52,0,0,1,.86-.24,1.11,1.11,0,0,1,.8.24.73.73,0,0,1,.26.54.5.5,0,0,1-.15.41.56.56,0,0,1-.34.15.4.4,0,0,1-.21-.07.31.31,0,0,1-.11-.24.46.46,0,0,1,.08-.25l.15-.16a.28.28,0,0,1,.12,0h0s0,0-.06-.08a.86.86,0,0,0-.23-.1,1.74,1.74,0,0,0-.34-.05.79.79,0,0,0-.63.23.8.8,0,0,0-.2.47.34.34,0,0,0,.17.32,2.06,2.06,0,0,0,.49.15,1.75,1.75,0,0,1,.46.13.88.88,0,0,1,.59.85,1.44,1.44,0,0,1-.1.5,2.15,2.15,0,0,1-.29.5,1.23,1.23,0,0,1-.56.39,2.24,2.24,0,0,1-.84.15,1.45,1.45,0,0,1-1-.25.82.82,0,0,1-.29-.61.62.62,0,0,1,.18-.5.64.64,0,0,1,.39-.15.44.44,0,0,1,.25.08.34.34,0,0,1,.13.28.57.57,0,0,1-.16.39.48.48,0,0,1-.28.16h0s0,.05.07.08a1.38,1.38,0,0,0,.27.11,1.3,1.3,0,0,0,.49.06,1.47,1.47,0,0,0,.55-.09.77.77,0,0,0,.34-.25,1.3,1.3,0,0,0,.15-.28.68.68,0,0,0,0-.22.4.4,0,0,0-.19-.37.9.9,0,0,0-.43-.16,1.88,1.88,0,0,1-.52-.13.8.8,0,0,1-.42-.31A.91.91,0,0,1,160.71,37.75Z"/><path id="MJMAIN-2C" class="cls-4" d="M164.42,40v-.22a.56.56,0,0,1,.14-.38.48.48,0,0,1,.38-.16.58.58,0,0,1,.45.22,1.2,1.2,0,0,1,.2.78,2.09,2.09,0,0,1-.08.61,3,3,0,0,1-.18.51,2,2,0,0,1-.23.36l-.22.24c-.06.06-.1.09-.11.08s-.07,0-.12-.08-.08-.09-.08-.12,0-.07.1-.14l.22-.26a1.87,1.87,0,0,0,.23-.45,2.49,2.49,0,0,0,.14-.65v-.11h0l0,0-.05,0-.08,0H165a.53.53,0,0,1-.39-.15Z"/><path id="MJMATHI-61-2" data-name="MJMATHI-61" class="cls-4" d="M168,38.93a2.63,2.63,0,0,1,.67-1.71,2,2,0,0,1,1.53-.82,1,1,0,0,1,.8.44.44.44,0,0,1,.41-.27.31.31,0,0,1,.2.07.23.23,0,0,1,.09.18c0,.08-.11.55-.33,1.42s-.33,1.37-.34,1.48a.46.46,0,0,0,.06.29.26.26,0,0,0,.19.08.34.34,0,0,0,.18-.08,2,2,0,0,0,.36-.85c0-.12.07-.18.09-.19H172c.11,0,.17,0,.17.08a1.44,1.44,0,0,1-.05.24,2.47,2.47,0,0,1-.18.48,1.52,1.52,0,0,1-.28.45.86.86,0,0,1-.29.19h-.21a.92.92,0,0,1-.51-.13.68.68,0,0,1-.26-.28l-.06-.13h0l0,0a1.52,1.52,0,0,1-1.07.5,1.24,1.24,0,0,1-.86-.35A1.51,1.51,0,0,1,168,38.93Zm2.83-1.52a.92.92,0,0,0-.05-.2.8.8,0,0,0-.2-.31.6.6,0,0,0-.41-.18.84.84,0,0,0-.6.28,1.73,1.73,0,0,0-.44.72,7.1,7.1,0,0,0-.37,1.46v.09a.31.31,0,0,1,0,.11.77.77,0,0,0,.16.55.57.57,0,0,0,.39.16,1,1,0,0,0,.66-.29,1.9,1.9,0,0,0,.4-.45l.24-1C170.72,37.78,170.8,37.45,170.81,37.41Z"/><path id="MJMATHI-69-3" data-name="MJMATHI-69" class="cls-4" d="M173.55,37.89a.34.34,0,0,1,.12-.26.37.37,0,0,1,.27-.12.25.25,0,0,1,.19.07.27.27,0,0,1,.08.19.34.34,0,0,1-.12.26.43.43,0,0,1-.28.13.32.32,0,0,1-.18-.06A.26.26,0,0,1,173.55,37.89Zm-1,2a.74.74,0,0,1,.06-.2l.15-.32A1,1,0,0,1,173,39a.61.61,0,0,1,.37-.14.58.58,0,0,1,.41.15.48.48,0,0,1,.17.39,1.17,1.17,0,0,1-.09.35c-.05.16-.14.38-.25.66s-.19.51-.26.71a1.06,1.06,0,0,0,0,.2c0,.11,0,.16.1.16l.12,0a.35.35,0,0,0,.15-.09.88.88,0,0,0,.17-.22,1.42,1.42,0,0,0,.15-.37.41.41,0,0,1,0-.09h.1c.09,0,.13,0,.13.06a.65.65,0,0,1-.06.2c0,.1-.09.2-.15.32a1.06,1.06,0,0,1-.29.31.59.59,0,0,1-.39.14.58.58,0,0,1-.37-.13.52.52,0,0,1-.18-.4.65.65,0,0,1,0-.2c0-.07.11-.3.27-.72s.25-.68.27-.76a1.11,1.11,0,0,0,0-.25c0-.1,0-.15-.11-.15h0a.45.45,0,0,0-.35.21,1.63,1.63,0,0,0-.24.53,0,0,0,0,0,0,0v0h-.19S172.52,39.87,172.52,39.86Z"/><path id="MJMAIN-29-3" data-name="MJMAIN-29" class="cls-4" d="M176,33.66h.23l.25.22a4.37,4.37,0,0,1,1.21,1.88,7.15,7.15,0,0,1,.39,2.35,7.49,7.49,0,0,1-.09,1.17,7.25,7.25,0,0,1-.21.95,3.26,3.26,0,0,1-.33.78l-.33.6a3.91,3.91,0,0,1-.37.45l-.28.29-.21.17,0,0H176s0,0,0,0a.34.34,0,0,1,0-.08s0,0,.1-.11a5.89,5.89,0,0,0,1.38-4.23A5.89,5.89,0,0,0,176,33.87c-.06-.07-.09-.11-.1-.11A.11.11,0,0,1,176,33.66Z"/><g class="cls-5"><line class="cls-6" x1="87.18" y1="52.96" x2="175.07" y2="52.96"/><polygon class="cls-4" points="173.52 55.01 174.39 52.96 173.52 50.9 178.39 52.96 173.52 55.01"/></g></svg>