<svg id="Layer_1" data-name="Layer 1" xmlns="http://www.w3.org/2000/svg" viewBox="0 0 601.86593 186.22015">
  <defs>
    <style>
      .cls-1 {
        fill: #e7ebe8;
      }

      .cls-2 {
        fill: #58595b;
      }

      .cls-3 {
        fill: #fff;
      }

      .cls-4 {
        fill: #b2b3c3;
      }

      .cls-5, .cls-8 {
        fill: #70a8da;
      }

      .cls-5, .cls-7 {
        opacity: 0.5;
      }

      .cls-6, .cls-7 {
        fill: #ef4136;
      }

      .cls-9 {
        fill: #010101;
      }

      .cls-10 {
        font-size: 15.2726px;
        fill: #6d6e71;
        font-family: ArialMT, Arial;
      }

      .cls-11 {
        letter-spacing: -0.0181em;
      }

      .cls-12 {
        letter-spacing: -0.07424em;
      }
    </style>
  </defs>
  <title>qfunctions</title>
  <rect class="cls-1" x="3.55559" y="105.48268" width="79.83102" height="79.83102"/>
  <polygon class="cls-2" points="14.063 145.397 22.329 161.993 22.329 128.8 14.063 145.397"/>
  <polygon class="cls-3" points="43.391 175.013 59.987 166.747 26.795 166.747 43.391 175.013"/>
  <polygon class="cls-4" points="72.88 145.415 64.614 128.819 64.614 162.011 72.88 145.415"/>
  <polygon class="cls-4" points="43.391 115.954 26.795 124.22 59.987 124.22 43.391 115.954"/>
  <rect class="cls-1" x="204.43706" y="105.65166" width="79.83102" height="79.83102"/>
  <circle class="cls-3" cx="245.1992" cy="146.56421" r="25.28539"/>
  <circle class="cls-5" cx="245.19701" cy="146.59439" r="25.28539"/>
  <rect class="cls-1" x="413.15566" y="105.49406" width="79.83102" height="79.83102"/>
  <polygon class="cls-3" points="482.44 145.445 474.174 128.849 474.174 162.041 482.44 145.445"/>
  <polygon class="cls-3" points="423.624 145.408 431.89 162.004 431.89 128.812 423.624 145.408"/>
  <polygon class="cls-5" points="423.663 145.408 431.929 162.004 431.929 128.812 423.663 145.408"/>
  <polygon class="cls-6" points="452.991 175.025 469.587 166.759 436.395 166.759 452.991 175.025"/>
  <polygon class="cls-7" points="482.48 145.426 474.214 128.83 474.214 162.023 482.48 145.426"/>
  <polygon class="cls-8" points="452.991 115.966 436.395 124.232 469.587 124.232 452.991 115.966"/>
  <g>
    <path id="MJMATHI-3C0" class="cls-9" d="M4.73439,82.656a.86781.86781,0,0,1-.9962-.9669v-.3223l.3809-.8204a56.77584,56.77584,0,0,0,3.1937-7.9989l.2344-.7032h-.9376a9.76845,9.76845,0,0,0-1.5822.0879,3.16982,3.16982,0,0,0-1.1427.5567,3.82706,3.82706,0,0,0-.6446.5274,7.54779,7.54779,0,0,0-.5567.6153,3.60754,3.60754,0,0,0-.2637.3516,1.6708,1.6708,0,0,1-.4395.0293q-.55669,0-.5567-.293a3.53752,3.53752,0,0,1,.5567-1.0255,9.96329,9.96329,0,0,1,1.6115-1.8166A3.98337,3.98337,0,0,1,5.672,69.764q.2051-.05861,6.5925-.0586,4.688,0,4.8052.0293a.79993.79993,0,0,1,.586.8204,1.22372,1.22372,0,0,1-.9376,1.2306,15.892,15.892,0,0,1-2.0217.0586h-1.8752l-.0879.4981a21.99207,21.99207,0,0,0-.3516,3.4867,12.76662,12.76662,0,0,0,.2637,2.7249,10.58691,10.58691,0,0,0,.5567,1.8752,3.41667,3.41667,0,0,1,.293.8204,1.35786,1.35786,0,0,1-.4102.9376,1.37818,1.37818,0,0,1-1.0548.4395,1.35023,1.35023,0,0,1-.5274-.0879q-.2051-.0879-.4688-.7032a8.4637,8.4637,0,0,1-.4688-1.758q-.02929-.2637-.0293-1.2892a19.44478,19.44478,0,0,1,.2637-3.0765q.2637-1.64081.5274-2.6956l.293-1.172H8.74849l-.0293.1172q0,.0879-.5567,2.3147t-1.2599,4.7173a21.83558,21.83558,0,0,1-.9083,2.8421A1.232,1.232,0,0,1,4.73439,82.656Z"/>
    <path id="MJMAIN-28" class="cls-9" d="M20.40989,75.00873a24.09987,24.09987,0,0,1,.293-3.8383,26.85329,26.85329,0,0,1,.6739-3.1351,12.26878,12.26878,0,0,1,1.0841-2.5784q.7032-1.25991,1.1134-1.9631a7.78235,7.78235,0,0,1,1.2306-1.5236q.82039-.82041.9669-.9962a5.28054,5.28054,0,0,1,.7325-.6153h.4981q.41021,0,.4102.2637a2.36742,2.36742,0,0,1-.4981.6153,13.30157,13.30157,0,0,0-1.2013,1.5529,20.27023,20.27023,0,0,0-1.4357,2.5198,16.66927,16.66927,0,0,0-1.2306,4.0434,29.572,29.572,0,0,0-.4981,5.6549,29.1122,29.1122,0,0,0,.4981,5.6256,19.02935,19.02935,0,0,0,1.2013,4.0727,13.27011,13.27011,0,0,0,1.4357,2.5198q.73249.9669,1.2306,1.5529a6.61568,6.61568,0,0,1,.4981.6153q0,.2637-.4395.2637h-.4688l-.8204-.7032a14.45936,14.45936,0,0,1-4.0141-6.2116A23.95586,23.95586,0,0,1,20.40989,75.00873Z"/>
    <path id="MJMATHI-73" class="cls-9" d="M32.921,73.866a4.34211,4.34211,0,0,1,.4688-1.9045,4.82032,4.82032,0,0,1,1.6408-1.7873,4.68139,4.68139,0,0,1,2.8421-.7911,3.7018,3.7018,0,0,1,2.637.7911,2.51032,2.51032,0,0,1,.8497,1.758,1.74492,1.74492,0,0,1-.4981,1.3771,1.77518,1.77518,0,0,1-1.1134.4688,1.17037,1.17037,0,0,1-.7032-.2344.94793.94793,0,0,1-.3516-.7618,1.32956,1.32956,0,0,1,.2637-.8204,2.632,2.632,0,0,1,.4981-.5274.70907.70907,0,0,1,.3809-.1758.0259.0259,0,0,0,.0293-.0293q0-.0879-.2051-.2637a2.00121,2.00121,0,0,0-.7325-.3223,5.18392,5.18392,0,0,0-1.1427-.1758,2.47828,2.47828,0,0,0-2.7249,2.3147,1.05923,1.05923,0,0,0,.5567,1.0255,6.07692,6.07692,0,0,0,1.6115.4981,6.42038,6.42038,0,0,1,1.5236.4395,2.8957,2.8957,0,0,1,1.9338,2.8128,4.45863,4.45863,0,0,1-.3223,1.6408,6.55442,6.55442,0,0,1-.9669,1.6408,4.23865,4.23865,0,0,1-1.8459,1.2892,7.95624,7.95624,0,0,1-2.7542.4981,4.73941,4.73941,0,0,1-3.1937-.8497,2.71076,2.71076,0,0,1-.9669-1.9924,1.99265,1.99265,0,0,1,.6153-1.6408,2.02311,2.02311,0,0,1,1.2892-.4981,1.41372,1.41372,0,0,1,.8204.2637,1.09079,1.09079,0,0,1,.4102.9083,1.75367,1.75367,0,0,1-.5274,1.2892,1.443,1.443,0,0,1-.9083.5274.225.225,0,0,1-.0879.0293q-.0293,0-.0293.0586a.63329.63329,0,0,0,.2344.2344,4.0911,4.0911,0,0,0,.9083.3809,5.76282,5.76282,0,0,0,3.4281-.1172,2.51717,2.51717,0,0,0,1.1134-.8204,3.89,3.89,0,0,0,.4981-.9083,2.21,2.21,0,0,0,.1465-.7325,1.38033,1.38033,0,0,0-.6153-1.2306,3.11458,3.11458,0,0,0-1.4064-.4981,7.25148,7.25148,0,0,1-1.7287-.4395,2.71153,2.71153,0,0,1-1.3771-1.0255A2.94923,2.94923,0,0,1,32.921,73.866Z"/>
    <path id="MJMAIN-2C" class="cls-9" d="M45.10979,81.30823v-.7325a1.83226,1.83226,0,0,1,.4688-1.2599,1.60147,1.60147,0,0,1,1.2599-.5274,1.91527,1.91527,0,0,1,1.465.7325,4.045,4.045,0,0,1,.6739,2.5784,7.53818,7.53818,0,0,1-.2637,1.9924,9.10963,9.10963,0,0,1-.6153,1.6701,6.35416,6.35416,0,0,1-.7618,1.2013q-.41021.49809-.7032.7911t-.3809.2637q-.1172,0-.3809-.2637t-.2637-.3809q0-.11721.3223-.4688t.7325-.879a5.62318,5.62318,0,0,0,.7618-1.465,8.41621,8.41621,0,0,0,.4688-2.1389V82.07l-.0293.0293a1.13847,1.13847,0,0,1-.1465.0586.73928.73928,0,0,0-.1758.0879.47954.47954,0,0,1-.2637.0586,2.13451,2.13451,0,0,0-.3516.0293,1.74444,1.74444,0,0,1-1.2892-.4981Z"/>
    <path id="MJMATHI-61" class="cls-9" d="M56.82979,77.73363a8.6585,8.6585,0,0,1,2.2268-5.6256,6.55668,6.55668,0,0,1,5.0103-2.6956,3.32166,3.32166,0,0,1,2.637,1.4357,1.46608,1.46608,0,0,1,1.3478-.879,1.04833,1.04833,0,0,1,.6739.2344.72153.72153,0,0,1,.293.586q0,.38089-1.0841,4.688t-1.1134,4.8638a1.56755,1.56755,0,0,0,.2051.9669.86074.86074,0,0,0,.6153.2637,1.27323,1.27323,0,0,0,.586-.2637,6.644,6.644,0,0,0,1.2013-2.8128q.1758-.586.293-.6153a.85684.85684,0,0,1,.293-.0293h.1172q.55669,0,.5567.2637a4.65328,4.65328,0,0,1-.1465.7911,9.19231,9.19231,0,0,1-.586,1.5822,4.99167,4.99167,0,0,1-.9376,1.465,2.89728,2.89728,0,0,1-.9376.6153,3.12413,3.12413,0,0,1-.7032.0586,2.99488,2.99488,0,0,1-1.6701-.4395,2.24938,2.24938,0,0,1-.879-.9083l-.1758-.4395q-.0293-.02931-.1172.0293l-.1172.1172a5.137,5.137,0,0,1-3.516,1.6408,3.99874,3.99874,0,0,1-2.8421-1.172A4.93727,4.93727,0,0,1,56.82979,77.73363Zm9.3174-5.0103a2.65223,2.65223,0,0,0-.1465-.6446,2.78565,2.78565,0,0,0-.6739-1.0255,1.87287,1.87287,0,0,0-1.3478-.586,2.8117,2.8117,0,0,0-1.9631.9083,6.13067,6.13067,0,0,0-1.465,2.3733,23.39113,23.39113,0,0,0-1.2013,4.8052v.3223a1.56212,1.56212,0,0,1-.0293.3516,2.46071,2.46071,0,0,0,.5274,1.8166,1.88708,1.88708,0,0,0,1.2599.5274,3.30853,3.30853,0,0,0,2.1975-.9669,4.92685,4.92685,0,0,0,1.2892-1.4943q.05861-.11721.7911-3.1351T66.14719,72.72333Z"/>
    <path id="MJMAIN-29" class="cls-9" d="M73.14989,60.388l.1172-.0293h.6446l.8204.7032a14.45924,14.45924,0,0,1,4.0141,6.2116,23.95577,23.95577,0,0,1,1.2599,7.7352,24.46063,24.46063,0,0,1-.293,3.8383,25.19195,25.19195,0,0,1-.6739,3.1351,13.19668,13.19668,0,0,1-1.0841,2.5784q-.7032,1.28919-1.1134,1.9631a8.91366,8.91366,0,0,1-1.2013,1.4943q-.7911.82039-.9376.9669t-.6739.5567l-.1172.1172h-.6739a.17218.17218,0,0,1-.1465-.0879.68964.68964,0,0,1-.0879-.2637q.0293-.02931.3223-.3809,4.54151-4.7173,4.5415-13.9175t-4.5415-13.9175q-.293-.3516-.3223-.3809A.34436.34436,0,0,1,73.14989,60.388Z"/>
  </g>
  <g>
    <path id="MJMATHI-51" class="cls-9" d="M419.32617,83.8q0-.8712.0264-1.32a2.60763,2.60763,0,0,1,.0528-.5016v-.1056l-.396.1056a9.6037,9.6037,0,0,1-2.2176.2904,6.47865,6.47865,0,0,1-6.6528-5.8872q-.0264-.2112-.0264-1.1352a10.92153,10.92153,0,0,1,1.2672-5.1216,14.78622,14.78622,0,0,1,3.4056-4.3032,10.29721,10.29721,0,0,1,6.5736-2.7192q1.0032,0,1.2672.0264a6.28522,6.28522,0,0,1,4.1184,2.2704,7.44332,7.44332,0,0,1,1.584,4.8048,12.012,12.012,0,0,1-3.9072,8.6592,12.66138,12.66138,0,0,1-3.4584,2.4024l-.4488.2112v.132q0,.0264.132.7128a2.0775,2.0775,0,0,0,.5544,1.1088,1.64372,1.64372,0,0,0,1.2144.4224,3.07569,3.07569,0,0,0,1.7688-.5808,2.68593,2.68593,0,0,0,1.1088-1.5048q.1584-.3696.3432-.3696a.27153.27153,0,0,1,.2904.2376,3.94872,3.94872,0,0,1-.264.9504q-.264.7392-.7392,1.7424a4.58305,4.58305,0,0,1-1.4256,1.716,3.6027,3.6027,0,0,1-2.0064.7656q-2.1648,0-2.1648-2.8248Zm6.2568-14.4672a7.36932,7.36932,0,0,0-.396-2.5344,3.47035,3.47035,0,0,0-1.0824-1.6104,5.95206,5.95206,0,0,0-1.32-.792,3.60344,3.60344,0,0,0-1.3992-.264,5.7594,5.7594,0,0,0-2.5872.66,9.50492,9.50492,0,0,0-4.3296,4.6464,14.86641,14.86641,0,0,0-1.6368,6.5472,5.45243,5.45243,0,0,0,1.4256,4.1448,2.47949,2.47949,0,0,0,.7656.5544v-.2112a2.76124,2.76124,0,0,1,.8712-1.9536,2.86992,2.86992,0,0,1,2.0592-.924,2.13519,2.13519,0,0,1,1.1352.2904,1.82548,1.82548,0,0,1,.7128.792,4.34674,4.34674,0,0,1,.3168.8448q.0792.3432.1584.7128l.3432-.2376a9.77707,9.77707,0,0,0,2.8776-3.1944,14.41315,14.41315,0,0,0,1.6368-3.9336A15.45284,15.45284,0,0,0,425.583,69.33278Zm-8.5008,11.88a5.2401,5.2401,0,0,0,2.376-.5544l-.0264-.264q-.1056-1.452-.9768-1.7424a3.232,3.232,0,0,0-.5016-.0528h-.1584a.15288.15288,0,0,1-.1056-.0264,1.60791,1.60791,0,0,0-1.0824.528,1.73,1.73,0,0,0-.5808,1.2144Q416.02617,81.21278,417.08217,81.21278Z"/>
    <path id="MJMAIN-28-2" data-name="MJMAIN-28" class="cls-9" d="M432.15657,75.088a21.71426,21.71426,0,0,1,.264-3.4584,24.19559,24.19559,0,0,1,.6072-2.8248,11.05468,11.05468,0,0,1,.9768-2.3232q.6336-1.1352,1.0032-1.7688a7.012,7.012,0,0,1,1.1088-1.3728q.7392-.7392.8712-.8976a4.75789,4.75789,0,0,1,.66-.5544h.4488q.3696,0,.3696.2376a2.13318,2.13318,0,0,1-.4488.5544,11.98562,11.98562,0,0,0-1.0824,1.3992,18.26479,18.26479,0,0,0-1.2936,2.2704,15.01915,15.01915,0,0,0-1.1088,3.6432,26.64535,26.64535,0,0,0-.4488,5.0952,26.231,26.231,0,0,0,.4488,5.0688,17.14557,17.14557,0,0,0,1.0824,3.6696,11.95633,11.95633,0,0,0,1.2936,2.2704q.66.8712,1.1088,1.3992a5.96349,5.96349,0,0,1,.4488.5544q0,.2376-.396.2376h-.4224l-.7392-.6336a13.02818,13.02818,0,0,1-3.6168-5.5968A21.58467,21.58467,0,0,1,432.15657,75.088Z"/>
    <path id="MJMATHI-73-2" data-name="MJMATHI-73" class="cls-9" d="M443.42937,74.05838a3.91231,3.91231,0,0,1,.4224-1.716,4.34325,4.34325,0,0,1,1.4784-1.6104,4.21813,4.21813,0,0,1,2.5608-.7128,3.33542,3.33542,0,0,1,2.376.7128,2.26186,2.26186,0,0,1,.7656,1.584,1.57222,1.57222,0,0,1-.4488,1.2408,1.59944,1.59944,0,0,1-1.0032.4224,1.05448,1.05448,0,0,1-.6336-.2112.85412.85412,0,0,1-.3168-.6864,1.198,1.198,0,0,1,.2376-.7392,2.37162,2.37162,0,0,1,.4488-.4752.63889.63889,0,0,1,.3432-.1584.02333.02333,0,0,0,.0264-.0264q0-.0792-.1848-.2376a1.80326,1.80326,0,0,0-.66-.2904,4.67119,4.67119,0,0,0-1.0296-.1584,2.233,2.233,0,0,0-2.4552,2.0856.95438.95438,0,0,0,.5016.924,5.47515,5.47515,0,0,0,1.452.4488,5.78525,5.78525,0,0,1,1.3728.396,2.60911,2.60911,0,0,1,1.7424,2.5344,4.01736,4.01736,0,0,1-.2904,1.4784,5.90535,5.90535,0,0,1-.8712,1.4784,3.81909,3.81909,0,0,1-1.6632,1.1616,7.16855,7.16855,0,0,1-2.4816.4488,4.27029,4.27029,0,0,1-2.8776-.7656,2.44248,2.44248,0,0,1-.8712-1.7952,1.79543,1.79543,0,0,1,.5544-1.4784,1.8229,1.8229,0,0,1,1.1616-.4488,1.2738,1.2738,0,0,1,.7392.2376.98284.98284,0,0,1,.3696.8184,1.58009,1.58009,0,0,1-.4752,1.1616,1.30017,1.30017,0,0,1-.8184.4752.20262.20262,0,0,1-.0792.0264q-.0264,0-.0264.0528a.57059.57059,0,0,0,.2112.2112,3.6858,3.6858,0,0,0,.8184.3432,5.19244,5.19244,0,0,0,3.0888-.1056,2.268,2.268,0,0,0,1.0032-.7392,3.50468,3.50468,0,0,0,.4488-.8184,1.99126,1.99126,0,0,0,.132-.66,1.24372,1.24372,0,0,0-.5544-1.1088,2.80635,2.80635,0,0,0-1.2672-.4488,6.53372,6.53372,0,0,1-1.5576-.396,2.44313,2.44313,0,0,1-1.2408-.924A2.65734,2.65734,0,0,1,443.42937,74.05838Z"/>
    <path id="MJMAIN-2C-2" data-name="MJMAIN-2C" class="cls-9" d="M454.41177,80.764v-.66a1.65091,1.65091,0,0,1,.4224-1.1352,1.443,1.443,0,0,1,1.1352-.4752,1.72572,1.72572,0,0,1,1.32.66,3.64463,3.64463,0,0,1,.6072,2.3232,6.792,6.792,0,0,1-.2376,1.7952,8.208,8.208,0,0,1-.5544,1.5048,5.72531,5.72531,0,0,1-.6864,1.0824q-.3696.4488-.6336.7128t-.3432.2376q-.1056,0-.3432-.2376t-.2376-.3432q0-.1056.2904-.4224t.66-.792a5.06661,5.06661,0,0,0,.6864-1.32,7.58325,7.58325,0,0,0,.4224-1.9272v-.3168l-.0264.0264a1.0243,1.0243,0,0,1-.132.0528.66633.66633,0,0,0-.1584.0792.432.432,0,0,1-.2376.0528,1.9239,1.9239,0,0,0-.3168.0264,1.57176,1.57176,0,0,1-1.1616-.4488Z"/>
    <path id="MJMATHI-61-2" data-name="MJMATHI-61" class="cls-9" d="M464.97177,77.54318a7.80151,7.80151,0,0,1,2.0064-5.0688,5.90776,5.90776,0,0,1,4.5144-2.4288,2.99291,2.99291,0,0,1,2.376,1.2936,1.321,1.321,0,0,1,1.2144-.792.94459.94459,0,0,1,.6072.2112.65012.65012,0,0,1,.264.528q0,.3432-.9768,4.224t-1.0032,4.3824a1.41236,1.41236,0,0,0,.1848.8712.77551.77551,0,0,0,.5544.2376,1.14708,1.14708,0,0,0,.528-.2376,5.98628,5.98628,0,0,0,1.0824-2.5344q.1584-.528.264-.5544a.77219.77219,0,0,1,.264-.0264h.1056q.5016,0,.5016.2376a4.193,4.193,0,0,1-.132.7128,8.28224,8.28224,0,0,1-.528,1.4256,4.49764,4.49764,0,0,1-.8448,1.32,2.61042,2.61042,0,0,1-.8448.5544,2.81452,2.81452,0,0,1-.6336.0528,2.69845,2.69845,0,0,1-1.5048-.396,2.02677,2.02677,0,0,1-.792-.8184l-.1584-.396q-.0264-.0264-.1056.0264l-.1056.1056a4.62856,4.62856,0,0,1-3.168,1.4784,3.603,3.603,0,0,1-2.5608-1.056A4.44859,4.44859,0,0,1,464.97177,77.54318Zm8.3952-4.5144a2.3899,2.3899,0,0,0-.132-.5808,2.51,2.51,0,0,0-.6072-.924,1.68753,1.68753,0,0,0-1.2144-.528,2.53344,2.53344,0,0,0-1.7688.8184,5.524,5.524,0,0,0-1.32,2.1384,21.07631,21.07631,0,0,0-1.0824,4.3296v.2904a1.40726,1.40726,0,0,1-.0264.3168,2.21716,2.21716,0,0,0,.4752,1.6368,1.70024,1.70024,0,0,0,1.1352.4752,2.98108,2.98108,0,0,0,1.98-.8712,4.43921,4.43921,0,0,0,1.1616-1.3464q.0528-.1056.7128-2.8248T473.367,73.02878Z"/>
    <path id="MJMAIN-29-2" data-name="MJMAIN-29" class="cls-9" d="M479.67657,61.91438l.1056-.0264h.5808l.7392.6336a13.02818,13.02818,0,0,1,3.6168,5.5968,21.58467,21.58467,0,0,1,1.1352,6.9696,22.03919,22.03919,0,0,1-.264,3.4584,22.69843,22.69843,0,0,1-.6072,2.8248,11.89047,11.89047,0,0,1-.9768,2.3232q-.6336,1.1616-1.0032,1.7688a8.03079,8.03079,0,0,1-1.0824,1.3464q-.7128.7392-.8448.8712t-.6072.5016l-.1056.1056h-.6072a.15514.15514,0,0,1-.132-.0792.62149.62149,0,0,1-.0792-.2376q.0264-.0264.2904-.3432,4.092-4.2504,4.092-12.54t-4.092-12.54q-.264-.3168-.2904-.3432A.31029.31029,0,0,1,479.67657,61.91438Z"/>
  </g>
  <g>
    <path id="MJMATHI-56" class="cls-9" d="M203.89182,65.72112a1.19656,1.19656,0,0,1,.3289-.8855h.2783q1.0626.0759,2.6565.0759,2.98541,0,3.5167-.0759h.253q.1518.1518.1518.2277t-.0506.4554a1.39351,1.39351,0,0,1-.2277.4807h-.5313q-.5566.0506-.759.0506-.73369.12649-.8096.3795,0,.0506.7337,6.3503t.759,6.3503l1.8469-2.9601q1.8469-2.9601,3.6938-5.9708t1.8975-3.1119a.75252.75252,0,0,0,.1012-.3795q0-.6072-1.1132-.7084-.4554,0-.4554-.2783,0-.0253.0506-.3289a1.3613,1.3613,0,0,1,.1518-.4554.40164.40164,0,0,1,.3289-.1012h.3036q.253,0,.8602.0253t1.6192.0253q1.7457,0,2.2011-.0506h.1771q.17711.17709.1771.2783a1.54753,1.54753,0,0,1-.2277.8096.72394.72394,0,0,1-.4301.0759q-.3289.02529-.6072.0506a1.881,1.881,0,0,0-.5313.1265q-.253.10119-.4048.1771a1.58378,1.58378,0,0,0-.3036.2024,1.41546,1.41546,0,0,1-.253.1771.54986.54986,0,0,0-.2024.2277q-.10121.17709-.1771.1771l-4.8829,7.843q-4.554,7.3623-4.7058,7.5394-.0759.0506-.1771.1265l-.4554.0253h-.1771q-.4554,0-.4554-.1771-.0759-.1518-.9867-8.096-.9614-8.0454-.9867-8.1213-.1265-.27831-1.5686-.2783h-.4301A.35049.35049,0,0,1,203.89182,65.72112Z"/>
    <path id="MJMAIN-28-3" data-name="MJMAIN-28" class="cls-9" d="M224.41012,75.79052a20.80908,20.80908,0,0,1,.253-3.3143,23.18714,23.18714,0,0,1,.5819-2.7071,10.5941,10.5941,0,0,1,.9361-2.2264q.6072-1.08791.9614-1.6951a6.71935,6.71935,0,0,1,1.0626-1.3156q.7084-.70841.8349-.8602a4.55965,4.55965,0,0,1,.6325-.5313h.4301q.3542,0,.3542.2277a2.04438,2.04438,0,0,1-.4301.5313,11.486,11.486,0,0,0-1.0373,1.3409,17.50393,17.50393,0,0,0-1.2397,2.1758,14.39305,14.39305,0,0,0-1.0626,3.4914,25.53537,25.53537,0,0,0-.4301,4.8829,25.13838,25.13838,0,0,0,.4301,4.8576,16.43116,16.43116,0,0,0,1.0373,3.5167,11.45808,11.45808,0,0,0,1.2397,2.1758q.6325.8349,1.0626,1.3409a5.71463,5.71463,0,0,1,.4301.5313q0,.2277-.3795.2277h-.4048l-.7084-.6072a12.4854,12.4854,0,0,1-3.4661-5.3636A20.68525,20.68525,0,0,1,224.41012,75.79052Z"/>
    <path id="MJMATHI-73-3" data-name="MJMATHI-73" class="cls-9" d="M235.21322,74.80382a3.74923,3.74923,0,0,1,.4048-1.6445,4.16223,4.16223,0,0,1,1.4168-1.5433,4.04234,4.04234,0,0,1,2.4541-.6831,3.19645,3.19645,0,0,1,2.277.6831,2.16762,2.16762,0,0,1,.7337,1.518,1.50673,1.50673,0,0,1-.4301,1.1891,1.53281,1.53281,0,0,1-.9614.4048,1.01055,1.01055,0,0,1-.6072-.2024.81856.81856,0,0,1-.3036-.6578,1.14806,1.14806,0,0,1,.2277-.7084,2.2729,2.2729,0,0,1,.4301-.4554.61227.61227,0,0,1,.3289-.1518.02236.02236,0,0,0,.0253-.0253q0-.0759-.1771-.2277a1.7281,1.7281,0,0,0-.6325-.2783,4.47577,4.47577,0,0,0-.9867-.1518,2.13995,2.13995,0,0,0-2.3529,1.9987.91462.91462,0,0,0,.4807.8855,5.24743,5.24743,0,0,0,1.3915.4301,5.54361,5.54361,0,0,1,1.3156.3795,2.50039,2.50039,0,0,1,1.6698,2.4288,3.85007,3.85007,0,0,1-.2783,1.4168,5.65927,5.65927,0,0,1-.8349,1.4168,3.66008,3.66008,0,0,1-1.5939,1.1132,6.8701,6.8701,0,0,1-2.3782.4301,4.09238,4.09238,0,0,1-2.7577-.7337,2.34074,2.34074,0,0,1-.8349-1.7204,1.72062,1.72062,0,0,1,.5313-1.4168,1.74691,1.74691,0,0,1,1.1132-.4301,1.22073,1.22073,0,0,1,.7084.2277.94188.94188,0,0,1,.3542.7843,1.51426,1.51426,0,0,1-.4554,1.1132,1.246,1.246,0,0,1-.7843.4554.19426.19426,0,0,1-.0759.0253q-.0253,0-.0253.0506a.54686.54686,0,0,0,.2024.2024,3.5328,3.5328,0,0,0,.7843.3289,4.97609,4.97609,0,0,0,2.9601-.1012,2.17358,2.17358,0,0,0,.9614-.7084,3.35873,3.35873,0,0,0,.4301-.7843,1.90842,1.90842,0,0,0,.1265-.6325,1.19189,1.19189,0,0,0-.5313-1.0626,2.68934,2.68934,0,0,0-1.2144-.4301,6.26144,6.26144,0,0,1-1.4927-.3795,2.34137,2.34137,0,0,1-1.1891-.8855A2.54665,2.54665,0,0,1,235.21322,74.80382Z"/>
    <path id="MJMAIN-29-3" data-name="MJMAIN-29" class="cls-9" d="M245.28262,63.16582l.1012-.0253h.5566l.7084.6072a12.48528,12.48528,0,0,1,3.4661,5.3636,20.68516,20.68516,0,0,1,1.0879,6.6792,21.12052,21.12052,0,0,1-.253,3.3143,21.75292,21.75292,0,0,1-.5819,2.7071,11.3955,11.3955,0,0,1-.9361,2.2264q-.6072,1.1132-.9614,1.6951a7.69627,7.69627,0,0,1-1.0373,1.2903q-.6831.70839-.8096.8349t-.5819.4807l-.1012.1012h-.5819a.14867.14867,0,0,1-.1265-.0759.5957.5957,0,0,1-.0759-.2277q.02531-.02531.2783-.3289,3.9215-4.07331,3.9215-12.0175t-3.9215-12.0175q-.253-.3036-.2783-.3289A.29736.29736,0,0,1,245.28262,63.16582Z"/>
  </g>
  <text class="cls-10" transform="translate(202.75757 12.84845)">It<tspan class="cls-11" x="8.48633" y="0">’</tspan><tspan x="11.60352" y="0">s hard to do this</tspan><tspan x="0" y="18.32715">with a value function.</tspan></text>
  <text class="cls-10" transform="translate(411.64587 13.026)">It<tspan class="cls-11" x="8.48633" y="0">’</tspan><tspan x="11.60352" y="0">s easier to use</tspan><tspan x="0" y="18.32715">Q-functions which estimate</tspan><tspan x="0" y="36.6543">joint state-action values.</tspan></text>
  <text class="cls-10" transform="translate(3.12518 13.20355)">Many times we’d like to<tspan x="0" y="18.32715">compare the value of</tspan><tspan x="0" y="36.6543">actions under a polic</tspan><tspan class="cls-12" x="140.08594" y="36.6543">y</tspan><tspan x="146.58887" y="36.6543">.</tspan></text>
</svg>
