<svg id="Layer_1" data-name="Layer 1" xmlns="http://www.w3.org/2000/svg" viewBox="0 0 83.22466 126.25926">
  <defs>
    <style>
      .cls-1 {
        fill: #e7ebe8;
      }

      .cls-2 {
        fill: #58595b;
      }

      .cls-3 {
        fill: #fff;
      }

      .cls-4 {
        fill: #b2b3c3;
      }

      .cls-5 {
        fill: #010101;
      }
    </style>
  </defs>
  <title>qfunctions</title>
  <rect class="cls-1" x="2.74267" y="45.52179" width="79.83102" height="79.83102"/>
  <polygon class="cls-2" points="13.25 85.436 21.516 102.032 21.516 68.839 13.25 85.436"/>
  <polygon class="cls-3" points="42.578 115.052 59.174 106.786 25.982 106.786 42.578 115.052"/>
  <polygon class="cls-4" points="72.067 85.454 63.801 68.858 63.801 102.05 72.067 85.454"/>
  <polygon class="cls-4" points="42.578 55.993 25.982 64.259 59.174 64.259 42.578 55.993"/>
  <g>
    <path id="MJMATHI-3C0" class="cls-5" d="M3.92147,22.69514a.86781.86781,0,0,1-.9962-.9669v-.3223l.3809-.8204a56.77584,56.77584,0,0,0,3.1937-7.9989l.2344-.7032h-.9376a9.76845,9.76845,0,0,0-1.5822.0879,3.16982,3.16982,0,0,0-1.1427.5567,3.82706,3.82706,0,0,0-.6446.5274,7.54779,7.54779,0,0,0-.5567.6153,3.60754,3.60754,0,0,0-.2637.3516,1.6708,1.6708,0,0,1-.4395.0293q-.5567,0-.5567-.293a3.53752,3.53752,0,0,1,.5567-1.0255,9.96329,9.96329,0,0,1,1.6115-1.8166,3.98337,3.98337,0,0,1,2.0803-1.1134q.2051-.05861,6.5925-.0586,4.688,0,4.8052.0293a.79993.79993,0,0,1,.586.8204,1.22372,1.22372,0,0,1-.9376,1.2306,15.892,15.892,0,0,1-2.0217.0586h-1.8752l-.0879.4981a21.99207,21.99207,0,0,0-.3516,3.4867,12.76662,12.76662,0,0,0,.2637,2.7249,10.58691,10.58691,0,0,0,.5567,1.8752,3.41667,3.41667,0,0,1,.293.8204,1.35786,1.35786,0,0,1-.4102.9376,1.37818,1.37818,0,0,1-1.0548.4395,1.35023,1.35023,0,0,1-.5274-.0879q-.2051-.0879-.4688-.7032a8.4637,8.4637,0,0,1-.4688-1.758q-.02929-.2637-.0293-1.2892a19.44478,19.44478,0,0,1,.2637-3.0765q.2637-1.6408.5274-2.6956l.293-1.172H7.93557l-.0293.1172q0,.0879-.5567,2.3147t-1.2599,4.7173a21.83558,21.83558,0,0,1-.9083,2.8421A1.232,1.232,0,0,1,3.92147,22.69514Z"/>
    <path id="MJMAIN-28" class="cls-5" d="M19.597,15.04784a24.09987,24.09987,0,0,1,.293-3.8383,26.85329,26.85329,0,0,1,.6739-3.1351A12.26878,12.26878,0,0,1,21.648,5.496q.7032-1.25991,1.1134-1.9631a7.78235,7.78235,0,0,1,1.2306-1.5236q.8204-.82041.9669-.9962a5.28054,5.28054,0,0,1,.7325-.6153h.4981q.4102,0,.4102.2637a2.36742,2.36742,0,0,1-.4981.6153,13.30157,13.30157,0,0,0-1.2013,1.5529,20.27023,20.27023,0,0,0-1.4357,2.5198,16.66927,16.66927,0,0,0-1.2306,4.0434,29.572,29.572,0,0,0-.4981,5.6549,29.1122,29.1122,0,0,0,.4981,5.6256,19.02935,19.02935,0,0,0,1.2013,4.0727,13.27011,13.27011,0,0,0,1.4357,2.5198q.7325.9669,1.2306,1.5529a6.61568,6.61568,0,0,1,.4981.6153q0,.2637-.4395.2637h-.4688l-.8204-.7032a14.45936,14.45936,0,0,1-4.0141-6.2116A23.95586,23.95586,0,0,1,19.597,15.04784Z"/>
    <path id="MJMATHI-73" class="cls-5" d="M32.10807,13.90514a4.34211,4.34211,0,0,1,.4688-1.9045,4.82032,4.82032,0,0,1,1.6408-1.7873,4.68139,4.68139,0,0,1,2.8421-.7911,3.7018,3.7018,0,0,1,2.637.7911,2.51032,2.51032,0,0,1,.8497,1.758,1.74492,1.74492,0,0,1-.4981,1.3771,1.77518,1.77518,0,0,1-1.1134.4688,1.17037,1.17037,0,0,1-.7032-.2344.94793.94793,0,0,1-.3516-.7618,1.32956,1.32956,0,0,1,.2637-.8204,2.632,2.632,0,0,1,.4981-.5274.70907.70907,0,0,1,.3809-.1758.0259.0259,0,0,0,.0293-.0293q0-.0879-.2051-.2637a2.00121,2.00121,0,0,0-.7325-.3223,5.18392,5.18392,0,0,0-1.1427-.1758A2.47828,2.47828,0,0,0,34.247,12.821a1.05923,1.05923,0,0,0,.5567,1.0255,6.07692,6.07692,0,0,0,1.6115.4981,6.42038,6.42038,0,0,1,1.5236.4395,2.8957,2.8957,0,0,1,1.9338,2.8128,4.45863,4.45863,0,0,1-.3223,1.6408,6.55442,6.55442,0,0,1-.9669,1.6408,4.23865,4.23865,0,0,1-1.8459,1.2892,7.95624,7.95624,0,0,1-2.7542.4981,4.73941,4.73941,0,0,1-3.1937-.8497,2.71076,2.71076,0,0,1-.9669-1.9924,1.99265,1.99265,0,0,1,.6153-1.6408,2.02311,2.02311,0,0,1,1.2892-.4981,1.41372,1.41372,0,0,1,.8204.2637,1.09079,1.09079,0,0,1,.4102.9083,1.75367,1.75367,0,0,1-.5274,1.2892,1.443,1.443,0,0,1-.9083.5274.225.225,0,0,1-.0879.0293q-.0293,0-.0293.0586a.63329.63329,0,0,0,.2344.2344,4.0911,4.0911,0,0,0,.9083.3809,4.61359,4.61359,0,0,0,1.6115.2051,4.64652,4.64652,0,0,0,1.8166-.3223,2.51717,2.51717,0,0,0,1.1134-.8204,3.89,3.89,0,0,0,.4981-.9083,2.21,2.21,0,0,0,.1465-.7325,1.38033,1.38033,0,0,0-.6153-1.2306,3.11458,3.11458,0,0,0-1.4064-.4981,7.25148,7.25148,0,0,1-1.7287-.4395,2.71153,2.71153,0,0,1-1.3771-1.0255A2.94923,2.94923,0,0,1,32.10807,13.90514Z"/>
    <path id="MJMAIN-2C" class="cls-5" d="M44.29687,21.34734v-.7325a1.83226,1.83226,0,0,1,.4688-1.2599,1.60147,1.60147,0,0,1,1.2599-.5274,1.91527,1.91527,0,0,1,1.465.7325,4.045,4.045,0,0,1,.6739,2.5784,7.53818,7.53818,0,0,1-.2637,1.9924,9.10963,9.10963,0,0,1-.6153,1.6701,6.35416,6.35416,0,0,1-.7618,1.2013q-.41021.49809-.7032.7911t-.3809.2637q-.1172,0-.3809-.2637t-.2637-.3809q0-.11721.3223-.4688t.7325-.879a5.62318,5.62318,0,0,0,.7618-1.465,8.41621,8.41621,0,0,0,.4688-2.1389v-.3516l-.0293.0293a1.13847,1.13847,0,0,1-.1465.0586.73928.73928,0,0,0-.1758.0879.47954.47954,0,0,1-.2637.0586,2.13451,2.13451,0,0,0-.3516.0293,1.74444,1.74444,0,0,1-1.2892-.4981Z"/>
    <path id="MJMATHI-61" class="cls-5" d="M56.01687,17.77274a8.6585,8.6585,0,0,1,2.2268-5.6256,6.55668,6.55668,0,0,1,5.0103-2.6956,3.32166,3.32166,0,0,1,2.637,1.4357,1.46608,1.46608,0,0,1,1.3478-.879,1.04833,1.04833,0,0,1,.6739.2344.72153.72153,0,0,1,.293.586q0,.3809-1.0841,4.688t-1.1134,4.8638a1.56755,1.56755,0,0,0,.2051.9669.86074.86074,0,0,0,.6153.2637,1.27323,1.27323,0,0,0,.586-.2637,6.644,6.644,0,0,0,1.2013-2.8128q.1758-.586.293-.6153a.85684.85684,0,0,1,.293-.0293h.1172q.5567,0,.5567.2637a4.65328,4.65328,0,0,1-.1465.7911,9.19231,9.19231,0,0,1-.586,1.5822,4.99167,4.99167,0,0,1-.9376,1.465,2.89728,2.89728,0,0,1-.9376.6153,3.12413,3.12413,0,0,1-.7032.0586,2.99488,2.99488,0,0,1-1.6701-.4395,2.24938,2.24938,0,0,1-.879-.9083l-.1758-.4395q-.0293-.02931-.1172.0293l-.1172.1172a5.137,5.137,0,0,1-3.516,1.6408,3.99874,3.99874,0,0,1-2.8421-1.172A4.93727,4.93727,0,0,1,56.01687,17.77274Zm9.3174-5.0103a2.65223,2.65223,0,0,0-.1465-.6446,2.78565,2.78565,0,0,0-.6739-1.0255,1.87287,1.87287,0,0,0-1.3478-.586,2.8117,2.8117,0,0,0-1.9631.9083,6.13067,6.13067,0,0,0-1.465,2.3733,23.39113,23.39113,0,0,0-1.2013,4.8052v.3223a1.56212,1.56212,0,0,1-.0293.3516,2.46071,2.46071,0,0,0,.5274,1.8166,1.88708,1.88708,0,0,0,1.2599.5274,3.30853,3.30853,0,0,0,2.1975-.9669,4.92685,4.92685,0,0,0,1.2892-1.4943q.0586-.11721.7911-3.1351T65.33427,12.76244Z"/>
    <path id="MJMAIN-29" class="cls-5" d="M72.337.42714l.1172-.0293h.6446l.8204.7032a14.45924,14.45924,0,0,1,4.0141,6.2116,23.95577,23.95577,0,0,1,1.2599,7.7352,24.46063,24.46063,0,0,1-.293,3.8383,25.19195,25.19195,0,0,1-.6739,3.1351,13.19668,13.19668,0,0,1-1.0841,2.5784q-.7032,1.28919-1.1134,1.9631a8.91366,8.91366,0,0,1-1.2013,1.4943q-.7911.82039-.9376.9669t-.6739.5567l-.1172.1172h-.6739a.17218.17218,0,0,1-.1465-.0879.68964.68964,0,0,1-.0879-.2637q.02929-.02931.3223-.3809,4.54151-4.7173,4.5415-13.9175t-4.5415-13.9175q-.293-.3516-.3223-.3809A.34436.34436,0,0,1,72.337.42714Z"/>
  </g>
</svg>
