<svg id="Layer_1" data-name="Layer 1" xmlns="http://www.w3.org/2000/svg" viewBox="0 0 200 125.98999">
  <defs>
    <style>
      .cls-1 {
        fill: #e7ebe8;
      }

      .cls-2 {
        fill: #fff;
      }

      .cls-3, .cls-6 {
        fill: #70a8da;
      }

      .cls-3, .cls-5 {
        opacity: 0.5;
      }

      .cls-4, .cls-5 {
        fill: #ef4136;
      }

      .cls-7 {
        fill: #010101;
      }
    </style>
  </defs>
  <title>qvalue</title>
  <rect class="cls-1" x="0.06064" y="46.01326" width="79.83102" height="79.83102"/>
  <polygon class="cls-2" points="69.345 85.964 61.079 69.368 61.079 102.561 69.345 85.964"/>
  <polygon class="cls-2" points="10.529 85.927 18.795 102.523 18.795 69.331 10.529 85.927"/>
  <polygon class="cls-3" points="10.568 85.927 18.834 102.523 18.834 69.331 10.568 85.927"/>
  <polygon class="cls-4" points="39.896 115.544 56.492 107.278 23.3 107.278 39.896 115.544"/>
  <polygon class="cls-5" points="69.385 85.945 61.119 69.349 61.119 102.542 69.385 85.945"/>
  <polygon class="cls-6" points="39.896 56.485 23.3 64.751 56.492 64.751 39.896 56.485"/>
  <g>
    <path id="MJMATHI-51" class="cls-7" d="M10.32984,24.92651q0-.97035.0294-1.47022a2.9045,2.9045,0,0,1,.05881-.55869V22.78L9.977,22.8976a10.6962,10.6962,0,0,1-2.47.32345,7.44847,7.44847,0,0,1-4.85173-1.676A7.50418,7.50418,0,0,1,.0971,16.66387q-.0294-.23524-.0294-1.26439A12.16447,12.16447,0,0,1,1.47911,9.695,16.46893,16.46893,0,0,1,5.27228,4.9021,11.46907,11.46907,0,0,1,12.594,1.87345q1.11736,0,1.41141.0294a7.00053,7.00053,0,0,1,4.58709,2.52878,8.2904,8.2904,0,0,1,1.76426,5.35161,13.379,13.379,0,0,1-4.35185,9.64464,14.10226,14.10226,0,0,1-3.852,2.6758l-.49988.23524v.147q0,.0294.147.79392a2.31389,2.31389,0,0,0,.61749,1.235,1.8308,1.8308,0,0,0,1.3526.47047,3.42579,3.42579,0,0,0,1.9701-.6469,2.9916,2.9916,0,0,0,1.235-1.676q.17643-.41166.38226-.41166a.30243.30243,0,0,1,.32345.26464,4.39834,4.39834,0,0,1-.294,1.05856q-.294.82332-.82332,1.94069a5.10456,5.10456,0,0,1-1.58784,1.91128,4.01264,4.01264,0,0,1-2.23473.85273q-2.41116,0-2.41116-3.14627ZM17.29868,8.81289a8.20806,8.20806,0,0,0-.44106-2.82282A3.86527,3.86527,0,0,0,15.652,4.1964a6.62933,6.62933,0,0,0-1.47022-.88214,4.01347,4.01347,0,0,0-1.55843-.294,6.41485,6.41485,0,0,0-2.88163.73511A10.58667,10.58667,0,0,0,4.91942,8.93051,16.55828,16.55828,0,0,0,3.09635,16.2228a6.07293,6.07293,0,0,0,1.58784,4.61649,2.76152,2.76152,0,0,0,.85273.6175v-.23524a3.07544,3.07544,0,0,1,.97034-2.17592,3.19653,3.19653,0,0,1,2.29355-1.02916,2.37823,2.37823,0,0,1,1.26439.32345,2.0332,2.0332,0,0,1,.79391.88213,4.8414,4.8414,0,0,1,.35286.94094q.08821.38226.17642.79392l.38226-.26464a10.88975,10.88975,0,0,0,3.20508-3.55793,16.05328,16.05328,0,0,0,1.82308-4.38126A17.2114,17.2114,0,0,0,17.29868,8.81289Zm-9.46822,13.232a5.83651,5.83651,0,0,0,2.6464-.6175l-.02941-.294q-.11762-1.61724-1.088-1.94069a3.59932,3.59932,0,0,0-.55868-.05881H8.62438a.17024.17024,0,0,1-.11762-.02941,1.79089,1.79089,0,0,0-1.20558.58809,1.927,1.927,0,0,0-.6469,1.35261Q6.65428,22.04488,7.83046,22.04488Z"/>
    <path id="MJMAIN-28" class="cls-7" d="M24.62038,15.22305a24.18665,24.18665,0,0,1,.294-3.852,26.94871,26.94871,0,0,1,.67631-3.14627,12.31247,12.31247,0,0,1,1.088-2.58759q.7057-1.26438,1.11737-1.97009a7.80988,7.80988,0,0,1,1.235-1.529q.82332-.82334.97035-.99975a5.29909,5.29909,0,0,1,.73511-.6175h.49987q.41167,0,.41167.26464a2.3761,2.3761,0,0,1-.49988.6175,13.34947,13.34947,0,0,0-1.20558,1.55843,20.34406,20.34406,0,0,0-1.44082,2.52878,16.72851,16.72851,0,0,0-1.235,4.05781,29.67769,29.67769,0,0,0-.49988,5.67505,29.21616,29.21616,0,0,0,.49988,5.64565,19.09675,19.09675,0,0,0,1.20558,4.08721,13.31683,13.31683,0,0,0,1.44081,2.52878q.73512.97035,1.235,1.55844a6.64215,6.64215,0,0,1,.49988.61749q0,.26465-.44107.26464H30.7365l-.82333-.70571a14.51092,14.51092,0,0,1-4.0284-6.23373A24.04106,24.04106,0,0,1,24.62038,15.22305Z"/>
    <path id="MJMATHI-73" class="cls-7" d="M37.17607,14.07628a4.35754,4.35754,0,0,1,.47047-1.91129,4.83762,4.83762,0,0,1,1.64664-1.79367,4.69821,4.69821,0,0,1,2.85223-.79392,3.715,3.715,0,0,1,2.6464.79392,2.51931,2.51931,0,0,1,.85273,1.76427,1.75117,1.75117,0,0,1-.49988,1.382,1.78151,1.78151,0,0,1-1.11737.47047,1.1745,1.1745,0,0,1-.7057-.23524.95131.95131,0,0,1-.35286-.76451,1.33438,1.33438,0,0,1,.26464-.82333,2.64194,2.64194,0,0,1,.49988-.52928.71162.71162,0,0,1,.38226-.17642.026.026,0,0,0,.0294-.02941q0-.08822-.20583-.26464a2.00854,2.00854,0,0,0-.73511-.32345,5.20287,5.20287,0,0,0-1.14677-.17642,2.4871,2.4871,0,0,0-2.73461,2.323,1.063,1.063,0,0,0,.55868,1.02915,6.09827,6.09827,0,0,0,1.61724.49988,6.44367,6.44367,0,0,1,1.529.44106,2.906,2.906,0,0,1,1.94069,2.82283,4.47455,4.47455,0,0,1-.32344,1.64664,6.57733,6.57733,0,0,1-.97035,1.64665A4.25365,4.25365,0,0,1,41.822,22.36832a7.98421,7.98421,0,0,1-2.764.49988,4.75622,4.75622,0,0,1-3.20508-.85273,2.7204,2.7204,0,0,1-.97035-1.9995A1.99977,1.99977,0,0,1,35.5,18.36932a2.03037,2.03037,0,0,1,1.2938-.49987,1.41874,1.41874,0,0,1,.82332.26464,1.09468,1.09468,0,0,1,.41166.91154,1.75988,1.75988,0,0,1-.52928,1.29379,1.44812,1.44812,0,0,1-.91153.52928.22571.22571,0,0,1-.08822.0294q-.0294,0-.0294.05881a.6355.6355,0,0,0,.23523.23524,4.10569,4.10569,0,0,0,.91154.38225,5.78325,5.78325,0,0,0,3.44032-.11761,2.52622,2.52622,0,0,0,1.11737-.82333,3.9035,3.9035,0,0,0,.49987-.91153,2.21773,2.21773,0,0,0,.147-.73511,1.38526,1.38526,0,0,0-.61749-1.235,3.12561,3.12561,0,0,0-1.41141-.49987,7.27707,7.27707,0,0,1-1.73486-.44107,2.72119,2.72119,0,0,1-1.382-1.02915A2.95977,2.95977,0,0,1,37.17607,14.07628Z"/>
    <path id="MJMAIN-2C" class="cls-7" d="M49.4083,21.545v-.73511a1.83878,1.83878,0,0,1,.47047-1.26439,1.60719,1.60719,0,0,1,1.26439-.52928,1.92212,1.92212,0,0,1,1.47022.73511,4.05934,4.05934,0,0,1,.6763,2.58759,7.56489,7.56489,0,0,1-.26464,1.9995,9.14116,9.14116,0,0,1-.61749,1.67605,6.37667,6.37667,0,0,1-.76451,1.20558q-.41166.49987-.70571.79392t-.38226.26464q-.11762,0-.38225-.26464t-.26464-.38226q0-.11762.32344-.47047t.73512-.88213a5.64341,5.64341,0,0,0,.76451-1.47022,8.44592,8.44592,0,0,0,.47047-2.14652v-.35285l-.0294.0294a1.14119,1.14119,0,0,1-.147.05881.74241.74241,0,0,0-.17642.08821.48116.48116,0,0,1-.26464.05881,2.14217,2.14217,0,0,0-.35286.02941,1.75064,1.75064,0,0,1-1.29379-.49988Z"/>
    <path id="MJMATHI-61" class="cls-7" d="M61.17007,17.95766A8.68939,8.68939,0,0,1,63.4048,12.312,6.58011,6.58011,0,0,1,68.433,9.60681a3.3335,3.3335,0,0,1,2.64639,1.44081,1.47133,1.47133,0,0,1,1.35261-.88213,1.052,1.052,0,0,1,.6763.23524.72409.72409,0,0,1,.294.58809q0,.38225-1.088,4.7047T71.197,20.57465a1.5731,1.5731,0,0,0,.20583.97035.86377.86377,0,0,0,.6175.26464,1.27762,1.27762,0,0,0,.58808-.26464A6.66733,6.66733,0,0,0,73.814,18.72218q.17643-.58809.294-.6175a.86015.86015,0,0,1,.294-.0294h.11762q.55869,0,.55868.26464a4.6695,4.6695,0,0,1-.147.79392,9.22407,9.22407,0,0,1-.58809,1.58784,5.00949,5.00949,0,0,1-.94094,1.47022,2.90737,2.90737,0,0,1-.94094.61749,3.13453,3.13453,0,0,1-.7057.05881,3.00553,3.00553,0,0,1-1.67606-.44107,2.25747,2.25747,0,0,1-.88213-.91153l-.17642-.44107q-.02942-.0294-.11762.0294l-.11762.11762a5.15528,5.15528,0,0,1-3.52853,1.64665A4.013,4.013,0,0,1,62.40505,21.692,4.95486,4.95486,0,0,1,61.17007,17.95766Zm9.3506-5.02815a2.6621,2.6621,0,0,0-.147-.6469,2.79563,2.79563,0,0,0-.6763-1.02915,1.87957,1.87957,0,0,0-1.35261-.58809,2.82173,2.82173,0,0,0-1.97009.91153,6.15256,6.15256,0,0,0-1.47022,2.38176A23.47424,23.47424,0,0,0,63.69885,18.781v.32344a1.56754,1.56754,0,0,1-.02941.35286,2.46948,2.46948,0,0,0,.52928,1.82307,1.89372,1.89372,0,0,0,1.26439.52928,3.32033,3.32033,0,0,0,2.20533-.97035,4.94438,4.94438,0,0,0,1.2938-1.49962q.0588-.11762.79392-3.14627T70.52067,12.92951Z"/>
    <path id="MJMAIN-29" class="cls-7" d="M77.54833.55025l.11761-.02941h.6469l.82332.70571a14.51082,14.51082,0,0,1,4.02841,6.23374A24.04122,24.04122,0,0,1,84.429,15.22305a24.54732,24.54732,0,0,1-.294,3.852,25.28119,25.28119,0,0,1-.6763,3.14627,13.24379,13.24379,0,0,1-1.088,2.58759q-.7057,1.29379-1.11737,1.9701a8.94482,8.94482,0,0,1-1.20558,1.49962q-.79392.82332-.94094.97035t-.6763.55868l-.11762.11762h-.6763a.17279.17279,0,0,1-.147-.08821.69231.69231,0,0,1-.08822-.26464q.02942-.02942.32345-.38226,4.55769-4.73412,4.55769-13.9671T77.72475,1.256Q77.43071.9031,77.4013.8737A.34559.34559,0,0,1,77.54833.55025Z"/>
  </g>
</svg>
