<svg id="Layer_1" data-name="Layer 1" xmlns="http://www.w3.org/2000/svg" viewBox="0 0 244.78744 129.77941">
  <defs>
    <style>
      .cls-1 {
        fill: #e7ebe8;
      }

      .cls-2 {
        fill: #b2b3c3;
      }

      .cls-3 {
        fill: #231f20;
      }

      .cls-4 {
        fill: #cac9cc;
      }

      .cls-5 {
        fill: #d1d3d4;
        opacity: 0.6;
      }

      .cls-6 {
        fill: #fff;
      }

      .cls-7, .cls-9 {
        fill: none;
        stroke: #f7941d;
        stroke-linejoin: round;
        stroke-width: 1.2px;
      }

      .cls-7 {
        stroke-linecap: square;
      }

      .cls-8 {
        fill: #f7941d;
      }

      .cls-10 {
        fill: #010101;
      }
    </style>
  </defs>
  <title>recovering-value</title>
  <rect class="cls-1" x="0.25784" y="19.23037" width="25.44966" height="25.44966"/>
  <polygon class="cls-2" points="3.607 31.955 6.243 37.245 6.243 26.664 3.607 31.955"/>
  <polygon class="cls-2" points="12.957 41.396 18.248 38.761 7.666 38.761 12.957 41.396"/>
  <polygon class="cls-2" points="22.358 31.961 19.723 26.67 19.723 37.251 22.358 31.961"/>
  <polygon class="cls-2" points="12.957 22.569 7.666 25.204 18.248 25.204 12.957 22.569"/>
  <rect class="cls-1" x="27.08977" y="19.23569" width="25.44966" height="25.44966"/>
  <polygon class="cls-2" points="30.439 31.96 33.074 37.251 33.074 26.669 30.439 31.96"/>
  <polygon class="cls-2" points="39.789 41.402 45.08 38.767 34.498 38.767 39.789 41.402"/>
  <polygon class="cls-2" points="49.19 31.966 46.555 26.675 46.555 37.257 49.19 31.966"/>
  <polygon class="cls-2" points="39.789 22.574 34.498 25.209 45.08 25.209 39.789 22.574"/>
  <rect class="cls-1" x="53.99411" y="19.24635" width="25.44966" height="25.44966"/>
  <polygon class="cls-2" points="57.344 31.971 59.979 37.261 59.979 26.68 57.344 31.971"/>
  <polygon class="cls-2" points="66.693 41.412 71.984 38.777 61.403 38.777 66.693 41.412"/>
  <polygon class="cls-2" points="76.094 31.977 73.459 26.686 73.459 37.267 76.094 31.977"/>
  <polygon class="cls-2" points="66.693 22.585 61.403 25.22 71.984 25.22 66.693 22.585"/>
  <rect class="cls-1" x="0.25784" y="46.05929" width="25.44966" height="25.44966"/>
  <polygon class="cls-2" points="3.607 58.784 6.243 64.074 6.243 53.493 3.607 58.784"/>
  <polygon class="cls-2" points="12.957 68.225 18.248 65.59 7.666 65.59 12.957 68.225"/>
  <polygon class="cls-2" points="22.358 58.789 19.723 53.499 19.723 64.08 22.358 58.789"/>
  <polygon class="cls-2" points="12.957 49.398 7.666 52.033 18.248 52.033 12.957 49.398"/>
  <rect class="cls-1" x="53.99411" y="46.07527" width="25.44966" height="25.44966"/>
  <polygon class="cls-2" points="57.344 58.8 59.979 64.09 59.979 53.509 57.344 58.8"/>
  <polygon class="cls-2" points="66.693 68.241 71.984 65.606 61.403 65.606 66.693 68.241"/>
  <polygon class="cls-2" points="76.094 58.805 73.459 53.515 73.459 64.096 76.094 58.805"/>
  <polygon class="cls-2" points="66.693 49.414 61.403 52.049 71.984 52.049 66.693 49.414"/>
  <rect class="cls-1" x="0.25784" y="73.00402" width="25.44966" height="25.44966"/>
  <polygon class="cls-2" points="3.607 85.728 6.243 91.019 6.243 80.438 3.607 85.728"/>
  <polygon class="cls-2" points="12.957 95.17 18.248 92.535 7.666 92.535 12.957 95.17"/>
  <polygon class="cls-2" points="22.358 85.734 19.723 80.443 19.723 91.025 22.358 85.734"/>
  <polygon class="cls-2" points="12.957 76.342 7.666 78.977 18.248 78.977 12.957 76.342"/>
  <rect class="cls-1" x="27.08977" y="73.00935" width="25.44966" height="25.44966"/>
  <polygon class="cls-2" points="30.439 85.734 33.074 91.024 33.074 80.443 30.439 85.734"/>
  <polygon class="cls-2" points="39.789 95.175 45.08 92.54 34.498 92.54 39.789 95.175"/>
  <polygon class="cls-2" points="49.19 85.74 46.555 80.449 46.555 91.03 49.19 85.74"/>
  <polygon class="cls-2" points="39.789 76.348 34.498 78.983 45.08 78.983 39.789 76.348"/>
  <rect class="cls-1" x="53.99411" y="73.02" width="25.44966" height="25.44966"/>
  <polygon class="cls-2" points="57.344 85.744 59.979 91.035 59.979 80.454 57.344 85.744"/>
  <polygon class="cls-2" points="66.693 95.186 71.984 92.551 61.403 92.551 66.693 95.186"/>
  <polygon class="cls-2" points="76.094 85.75 73.459 80.459 73.459 91.041 76.094 85.75"/>
  <polygon class="cls-2" points="66.693 76.358 61.403 78.993 71.984 78.993 66.693 76.358"/>
  <g>
    <path id="MJMATHI-51" class="cls-3" d="M5.99911,13.34725q0-.52509.01591-.79559a1.57127,1.57127,0,0,1,.03183-.30232v-.06365l-.23868.06365a5.78867,5.78867,0,0,1-1.33659.175,4.03064,4.03064,0,0,1-2.62545-.907A4.06076,4.06076,0,0,1,.4618,8.876Q.44589,8.74874.44589,8.19182a6.58273,6.58273,0,0,1,.76376-3.08689A8.912,8.912,0,0,1,3.26228,2.51131,6.20631,6.20631,0,0,1,7.22432.87239q.60465,0,.76377.01591a3.78821,3.78821,0,0,1,2.48224,1.36842A4.48626,4.48626,0,0,1,11.425,5.15267a7.23982,7.23982,0,0,1-2.35495,5.21907,7.63126,7.63126,0,0,1-2.08445,1.448l-.2705.12729v.07956q0,.01591.07956.42962a1.25218,1.25218,0,0,0,.33415.6683.99073.99073,0,0,0,.73194.25459A1.85378,1.85378,0,0,0,8.92688,13.029a1.61886,1.61886,0,0,0,.6683-.907q.09548-.22277.20685-.22276a.16364.16364,0,0,1,.175.1432,2.37966,2.37966,0,0,1-.15911.57283q-.15912.44553-.44553,1.05018a2.76247,2.76247,0,0,1-.85924,1.03427,2.1715,2.1715,0,0,1-1.2093.46144q-1.30478,0-1.30477-1.70257Zm3.7711-8.71967A4.44163,4.44163,0,0,0,9.53153,3.1a2.09164,2.09164,0,0,0-.65238-.97062,3.58783,3.58783,0,0,0-.79559-.47735A2.17186,2.17186,0,0,0,7.24023,1.493a3.47129,3.47129,0,0,0-1.55936.3978A5.72877,5.72877,0,0,0,3.07134,4.69122,8.96029,8.96029,0,0,0,2.0848,8.63735,3.28631,3.28631,0,0,0,2.944,11.13551a1.49456,1.49456,0,0,0,.46145.33415v-.1273a1.66426,1.66426,0,0,1,.52509-1.17747A1.72969,1.72969,0,0,1,5.1717,9.608a1.28687,1.28687,0,0,1,.6842.175,1.10015,1.10015,0,0,1,.42962.47735,2.62053,2.62053,0,0,1,.19095.50918q.04773.20685.09547.42962l.20685-.14321A5.893,5.893,0,0,0,8.51318,9.13062a8.68711,8.68711,0,0,0,.98653-2.37086A9.31394,9.31394,0,0,0,9.77021,4.62758Zm-5.1236,7.16031a3.15839,3.15839,0,0,0,1.43206-.33414l-.01591-.15912q-.06364-.87516-.58874-1.05018a1.94756,1.94756,0,0,0-.30232-.03183H5.07623a.09214.09214,0,0,1-.06365-.01591.96913.96913,0,0,0-.65239.31824,1.04277,1.04277,0,0,0-.35006.73194Q4.01013,11.7879,4.64661,11.78789Z"/>
    <path id="MJMAIN-28" class="cls-3" d="M13.73225,8.09635a13.08733,13.08733,0,0,1,.15912-2.08444,14.58425,14.58425,0,0,1,.366-1.70257,6.66285,6.66285,0,0,1,.58874-1.40024q.38188-.68421.60465-1.06609A4.22614,4.22614,0,0,1,16.119,1.0156q.44553-.44555.52509-.541a2.86779,2.86779,0,0,1,.3978-.33414h.2705q.22277,0,.22277.1432a1.28564,1.28564,0,0,1-.2705.33415,7.22292,7.22292,0,0,0-.65239.84333,11.00841,11.00841,0,0,0-.77968,1.36841,9.05211,9.05211,0,0,0-.66829,2.19583,16.05923,16.05923,0,0,0-.27051,3.071,15.80942,15.80942,0,0,0,.27051,3.05507,10.33352,10.33352,0,0,0,.65238,2.21174,7.20618,7.20618,0,0,0,.77968,1.36842q.3978.52509.6683.84333a3.59581,3.59581,0,0,1,.2705.33414q0,.1432-.23868.14321h-.25459l-.44553-.38188a7.85239,7.85239,0,0,1-2.17992-3.37331A13.00948,13.00948,0,0,1,13.73225,8.09635Z"/>
    <path id="MJMATHI-73" class="cls-3" d="M20.5266,7.47579a2.358,2.358,0,0,1,.25459-1.03427,2.61766,2.61766,0,0,1,.89106-.97062,2.54238,2.54238,0,0,1,1.54344-.42962,2.01035,2.01035,0,0,1,1.43207.42962,1.36329,1.36329,0,0,1,.46144.95471.94764.94764,0,0,1-.2705.74786.964.964,0,0,1-.60465.25459.6355.6355,0,0,1-.38188-.1273.51478.51478,0,0,1-.191-.4137.72208.72208,0,0,1,.14321-.44554,1.42966,1.42966,0,0,1,.2705-.28641.38505.38505,0,0,1,.20686-.09547.01406.01406,0,0,0,.01591-.01591q0-.04773-.11139-.14321a1.08693,1.08693,0,0,0-.39779-.175A2.81554,2.81554,0,0,0,23.168,5.63a1.34587,1.34587,0,0,0-1.4798,1.257.57522.57522,0,0,0,.30232.55691,3.30017,3.30017,0,0,0,.87515.2705,3.48631,3.48631,0,0,1,.82742.23868,1.57256,1.57256,0,0,1,1.05018,1.52753,2.42147,2.42147,0,0,1-.175.89106,3.55947,3.55947,0,0,1-.52509.89106,2.30182,2.30182,0,0,1-1.00245.70012,4.32033,4.32033,0,0,1-1.49571.2705,2.57376,2.57376,0,0,1-1.73438-.46144,1.47207,1.47207,0,0,1-.52509-1.082,1.08214,1.08214,0,0,1,.33414-.89106,1.09867,1.09867,0,0,1,.70012-.2705.76773.76773,0,0,1,.44553.1432.59237.59237,0,0,1,.22277.49327.95236.95236,0,0,1-.28641.70012.78365.78365,0,0,1-.49327.28641.12207.12207,0,0,1-.04773.01591q-.01591,0-.01592.03183a.34394.34394,0,0,0,.1273.12729,2.22137,2.22137,0,0,0,.49326.20685,3.12953,3.12953,0,0,0,1.86169-.06364,1.36707,1.36707,0,0,0,.60465-.44553,2.11267,2.11267,0,0,0,.2705-.49327,1.20016,1.20016,0,0,0,.07956-.39779.74962.74962,0,0,0-.33415-.6683,1.69145,1.69145,0,0,0-.76377-.2705,3.93821,3.93821,0,0,1-.9388-.23868,1.4725,1.4725,0,0,1-.74785-.55691A1.60161,1.60161,0,0,1,20.5266,7.47579Z"/>
    <path id="MJMAIN-2C" class="cls-3" d="M27.14591,11.51739V11.1196a.995.995,0,0,1,.25459-.68421.86972.86972,0,0,1,.68421-.28641,1.04014,1.04014,0,0,1,.79559.39779,2.19675,2.19675,0,0,1,.366,1.40024,4.09335,4.09335,0,0,1-.14321,1.082,4.94739,4.94739,0,0,1-.33414.907,3.45085,3.45085,0,0,1-.41371.65238q-.22276.27051-.38188.42962t-.20686.14321q-.06365,0-.20685-.14321t-.14321-.20685q0-.06364.175-.25459t.3978-.47735a3.054,3.054,0,0,0,.41371-.7956,4.57071,4.57071,0,0,0,.25458-1.16156V11.9311l-.01591.01591a.6166.6166,0,0,1-.07956.03183.40169.40169,0,0,0-.09547.04773.26034.26034,0,0,1-.1432.03182,1.15945,1.15945,0,0,0-.191.01592.94736.94736,0,0,1-.70012-.2705Z"/>
    <path id="MJMATHI-61" class="cls-3" d="M33.51064,9.57615a4.70215,4.70215,0,0,1,1.2093-3.05507A3.5607,3.5607,0,0,1,37.44086,5.0572a1.80388,1.80388,0,0,1,1.43206.77968.79617.79617,0,0,1,.73194-.47736.56927.56927,0,0,1,.366.1273A.39183.39183,0,0,1,40.13,5.805q0,.20685-.58874,2.54589t-.60464,2.64136a.85122.85122,0,0,0,.11138.52509.46739.46739,0,0,0,.33415.14321.69128.69128,0,0,0,.31823-.14321,3.60793,3.60793,0,0,0,.65239-1.52753q.09546-.31824.15912-.33415A.46531.46531,0,0,1,40.671,9.6398h.06365q.30232,0,.30233.14321a2.52719,2.52719,0,0,1-.07956.42961,4.99171,4.99171,0,0,1-.31824.85924,2.71067,2.71067,0,0,1-.50918.79559,1.57316,1.57316,0,0,1-.50918.33415,1.69608,1.69608,0,0,1-.38188.03182,1.62637,1.62637,0,0,1-.907-.23867,1.22163,1.22163,0,0,1-.47736-.49327l-.09547-.23868q-.01591-.0159-.06365.01592l-.06364.06364a2.78974,2.78974,0,0,1-1.90942.89106,2.17156,2.17156,0,0,1-1.54345-.63647A2.68124,2.68124,0,0,1,33.51064,9.57615Zm5.06-2.72092a1.44076,1.44076,0,0,0-.07955-.35006,1.51279,1.51279,0,0,0-.366-.55691A1.01711,1.01711,0,0,0,37.39312,5.63a1.52692,1.52692,0,0,0-1.06609.49327,3.32934,3.32934,0,0,0-.79559,1.28886,12.70327,12.70327,0,0,0-.65239,2.60953v.175a.848.848,0,0,1-.01591.19094,1.33636,1.33636,0,0,0,.28641.98654,1.02483,1.02483,0,0,0,.68421.28641,1.79676,1.79676,0,0,0,1.19339-.52509,2.67572,2.67572,0,0,0,.70012-.8115q.03182-.06364.42962-1.70257T38.57059,6.85523Z"/>
    <path id="MJMAIN-29" class="cls-3" d="M42.37352.15636l.06365-.01591h.35006l.44553.38188a7.85224,7.85224,0,0,1,2.17991,3.3733,13.00948,13.00948,0,0,1,.68421,4.20072,13.28334,13.28334,0,0,1-.15912,2.08445,13.67918,13.67918,0,0,1-.366,1.70256,7.16674,7.16674,0,0,1-.58873,1.40024q-.38189.70012-.60465,1.0661a4.84053,4.84053,0,0,1-.65239.8115q-.42961.44553-.50918.52509t-.366.30232l-.06364.06365h-.366a.09351.09351,0,0,1-.07956-.04774.37465.37465,0,0,1-.04773-.1432q.01591-.01591.175-.20686,2.46633-2.56179,2.46633-7.55811T42.469.53824q-.15912-.19094-.175-.20685A.187.187,0,0,1,42.37352.15636Z"/>
  </g>
  <g>
    <path id="MJMATHI-56" class="cls-3" d="M164.04941,1.936a.75255.75255,0,0,1,.20686-.55692h.175q.6683.04775,1.67074.04774,1.8776,0,2.21174-.04774h.15912q.09546.09547.09547.14321t-.03183.28641a.87664.87664,0,0,1-.1432.30233h-.33415q-.35005.03181-.47736.03182-.46143.07956-.50917.23868,0,.03181.46144,3.99386t.47735,3.99387L169.173,8.50754q1.16156-1.8617,2.32312-3.75519t1.19339-1.95716a.47326.47326,0,0,0,.06364-.23867q0-.38188-.70012-.44553-.28641,0-.28641-.175,0-.01591.03183-.20686a.856.856,0,0,1,.09547-.28641.2526.2526,0,0,1,.20685-.06365h.19094q.15912,0,.541.01591t1.01836.01592q1.09791,0,1.38433-.03183h.11138q.11139.11139.11138.175a.97327.97327,0,0,1-.1432.50918.45533.45533,0,0,1-.2705.04774q-.20687.0159-.38189.03182a1.18337,1.18337,0,0,0-.33415.07956q-.15912.06364-.25459.11138a.99642.99642,0,0,0-.19094.1273.89008.89008,0,0,1-.15912.11138.34581.34581,0,0,0-.12729.1432q-.06365.11139-.11138.11139l-3.071,4.93266Q167.55,12.39,167.45454,12.5014q-.04773.03183-.11138.07956l-.28642.01591h-.11138q-.28641,0-.28641-.11138-.04773-.09548-.62056-5.09178-.60465-5.06-.62056-5.10769-.07956-.175-.98653-.175h-.27051A.22045.22045,0,0,1,164.04941,1.936Z"/>
    <path id="MJMAIN-28-2" data-name="MJMAIN-28" class="cls-3" d="M176.95389,8.26886a13.08746,13.08746,0,0,1,.15912-2.08445,14.58359,14.58359,0,0,1,.366-1.70256,6.66315,6.66315,0,0,1,.58874-1.40024q.38188-.68421.60465-1.06609a4.22589,4.22589,0,0,1,.6683-.82742q.44553-.44553.52509-.541A2.86665,2.86665,0,0,1,180.26355.313h.2705q.22276,0,.22277.14321a1.286,1.286,0,0,1-.2705.33415,7.22353,7.22353,0,0,0-.65239.84332,11.00934,11.00934,0,0,0-.77968,1.36842,9.05241,9.05241,0,0,0-.66829,2.19583,16.05912,16.05912,0,0,0-.2705,3.071,15.80954,15.80954,0,0,0,.2705,3.05507,10.33388,10.33388,0,0,0,.65238,2.21174,7.20606,7.20606,0,0,0,.77968,1.36841q.3978.52509.6683.84333a3.59491,3.59491,0,0,1,.2705.33415q0,.1432-.23868.14321h-.25459l-.44553-.38189a7.85235,7.85235,0,0,1-2.17992-3.3733A13.00948,13.00948,0,0,1,176.95389,8.26886Z"/>
    <path id="MJMATHI-73-2" data-name="MJMATHI-73" class="cls-3" d="M183.74824,7.6483a2.358,2.358,0,0,1,.25459-1.03427,2.61766,2.61766,0,0,1,.89106-.97062,2.54233,2.54233,0,0,1,1.54344-.42962,2.01035,2.01035,0,0,1,1.43207.42962,1.36327,1.36327,0,0,1,.46144.95471.94762.94762,0,0,1-.2705.74785.964.964,0,0,1-.60465.25459.63555.63555,0,0,1-.38188-.12729.51478.51478,0,0,1-.19094-.41371.722.722,0,0,1,.1432-.44553,1.42911,1.42911,0,0,1,.2705-.28641.38508.38508,0,0,1,.20686-.09547.01407.01407,0,0,0,.01591-.01592q0-.04773-.11139-.1432a1.08676,1.08676,0,0,0-.39779-.175,2.815,2.815,0,0,0-.62056-.09547,1.34585,1.34585,0,0,0-1.4798,1.257.5752.5752,0,0,0,.30232.55691,3.2998,3.2998,0,0,0,.87515.2705,3.48727,3.48727,0,0,1,.82742.23868,1.57257,1.57257,0,0,1,1.05018,1.52754,2.42127,2.42127,0,0,1-.175.89106,3.55947,3.55947,0,0,1-.52509.89106,2.30184,2.30184,0,0,1-1.00245.70012,4.32079,4.32079,0,0,1-1.49571.2705,2.57376,2.57376,0,0,1-1.73438-.46144,1.47209,1.47209,0,0,1-.52509-1.082,1.08217,1.08217,0,0,1,.33414-.89106,1.09873,1.09873,0,0,1,.70012-.2705.76774.76774,0,0,1,.44553.14321.59235.59235,0,0,1,.22277.49326.95234.95234,0,0,1-.28641.70012.78362.78362,0,0,1-.49327.28642.12224.12224,0,0,1-.04773.01591q-.01592,0-.01592.03182a.34387.34387,0,0,0,.1273.1273,2.22137,2.22137,0,0,0,.49326.20685,3.12964,3.12964,0,0,0,1.86169-.06365,1.36692,1.36692,0,0,0,.60465-.44553,2.11243,2.11243,0,0,0,.2705-.49326,1.20017,1.20017,0,0,0,.07956-.3978.74964.74964,0,0,0-.33415-.6683,1.69156,1.69156,0,0,0-.76377-.2705,3.93815,3.93815,0,0,1-.9388-.23867,1.47257,1.47257,0,0,1-.74785-.55692A1.60155,1.60155,0,0,1,183.74824,7.6483Z"/>
    <path id="MJMAIN-29-2" data-name="MJMAIN-29" class="cls-3" d="M190.08114.32886,190.14479.313h.35006l.44553.38188a7.85239,7.85239,0,0,1,2.17992,3.37331,13.00975,13.00975,0,0,1,.6842,4.20072,13.28465,13.28465,0,0,1-.15911,2.08445,13.67981,13.67981,0,0,1-.366,1.70256,7.16639,7.16639,0,0,1-.58873,1.40024q-.38188.70012-.60465,1.06609a4.84,4.84,0,0,1-.65239.8115q-.42961.44553-.50917.52509t-.366.30233l-.06364.06365h-.366a.0935.0935,0,0,1-.07956-.04774.37452.37452,0,0,1-.04774-.14321q.01592-.0159.175-.20685,2.46633-2.5618,2.46633-7.55811T190.17661.71075q-.15912-.19095-.175-.20686A.187.187,0,0,1,190.08114.32886Z"/>
  </g>
  <rect class="cls-1" x="165.2663" y="19.24127" width="25.44966" height="25.44966"/>
  <rect class="cls-1" x="192.09823" y="19.2466" width="25.44966" height="25.44966"/>
  <rect class="cls-1" x="219.00257" y="19.25726" width="25.44966" height="25.44966"/>
  <rect class="cls-1" x="165.2663" y="46.07019" width="25.44966" height="25.44966"/>
  <rect class="cls-1" x="219.00257" y="46.08617" width="25.44966" height="25.44966"/>
  <rect class="cls-1" x="165.2663" y="73.01492" width="25.44966" height="25.44966"/>
  <rect class="cls-1" x="192.09823" y="73.02025" width="25.44966" height="25.44966"/>
  <rect class="cls-1" x="219.00257" y="73.03091" width="25.44966" height="25.44966"/>
  <circle class="cls-4" cx="177.82955" cy="32.00106" r="8.06084"/>
  <circle class="cls-4" cx="205.09227" cy="32.00106" r="8.06084"/>
  <circle class="cls-4" cx="231.70178" cy="31.93882" r="8.06084"/>
  <circle class="cls-4" cx="177.82955" cy="59.12782" r="8.06084"/>
  <circle class="cls-4" cx="231.70178" cy="59.06558" r="8.06084"/>
  <circle class="cls-4" cx="177.82955" cy="85.71247" r="8.06084"/>
  <circle class="cls-4" cx="205.09227" cy="85.84392" r="8.06084"/>
  <circle class="cls-4" cx="231.70178" cy="85.78168" r="8.06084"/>
  <rect class="cls-5" x="0.26522" y="19.22145" width="79.35433" height="79.35433"/>
  <rect class="cls-6" x="24.10756" y="42.86494" width="31.76664" height="31.76664"/>
  <rect class="cls-1" x="27.08977" y="46.06461" width="25.44966" height="25.44966"/>
  <polygon class="cls-2" points="30.439 58.789 33.074 64.08 33.074 53.498 30.439 58.789"/>
  <polygon class="cls-2" points="39.789 68.231 45.08 65.595 34.498 65.595 39.789 68.231"/>
  <polygon class="cls-2" points="49.19 58.795 46.555 53.504 46.555 64.086 49.19 58.795"/>
  <polygon class="cls-2" points="39.789 49.403 34.498 52.038 45.08 52.038 39.789 49.403"/>
  <g>
    <polyline class="cls-7" points="39.787 113.968 39.787 75.116 39.787 115.354 57.928 115.354"/>
    <polygon class="cls-8" points="56.411 117.354 57.261 115.354 56.411 113.354 61.152 115.354 56.411 117.354"/>
  </g>
  <rect class="cls-9" x="23.94079" y="42.69407" width="32.07156" height="32.08703" transform="translate(79.95313 117.47516) rotate(180)"/>
  <rect class="cls-5" x="165.26691" y="19.23817" width="79.35433" height="79.35433"/>
  <rect class="cls-6" x="189.11245" y="42.74653" width="31.76664" height="31.76664"/>
  <rect class="cls-1" x="192.09823" y="46.07552" width="25.44966" height="25.44966"/>
  <circle class="cls-4" cx="205.09227" cy="59.12782" r="8.06084"/>
  <rect class="cls-9" x="189.04863" y="42.65732" width="32.07156" height="32.08703" transform="translate(410.16882 117.40166) rotate(180)"/>
  <g>
    <polyline class="cls-9" points="182.802 115.352 205.09 115.352 205.09 78.324"/>
    <polygon class="cls-8" points="207.089 79.84 205.09 78.991 203.09 79.84 205.09 75.1 207.089 79.84"/>
  </g>
  <g>
    <path id="MJMATHI-56-2" data-name="MJMATHI-56" class="cls-10" d="M65.55239,110.53485a.695.695,0,0,1,.18719-.51055h.1584q.60478.04377,1.51195.04376,1.69915,0,2.00154-.04376h.144q.0864.08753.0864.13129t-.0288.26256a.80773.80773,0,0,1-.1296.27715h-.30239q-.31678.02917-.432.02918-.41759.07293-.46078.2188,0,.02917.41758,3.66133t.432,3.66133l1.05117-1.70668q1.05117-1.70667,2.10234-3.44252t1.08-1.7942a.4382.4382,0,0,0,.0576-.2188q0-.35008-.63359-.40844-.25919,0-.25919-.16045,0-.0146.0288-.18963a.7917.7917,0,0,1,.0864-.26257.2268.2268,0,0,1,.18719-.05835h.1728q.144,0,.48958.01459t.92158.01459q.99357,0,1.25276-.02918h.1008q.10078.10212.10079.16046a.901.901,0,0,1-.12959.46678.4076.4076,0,0,1-.2448.04376q-.18718.01459-.34559.02918a1.0592,1.0592,0,0,0-.30239.07293q-.144.05835-.23039.10211a.90034.90034,0,0,0-.1728.1167.80509.80509,0,0,1-.144.10211.31552.31552,0,0,0-.1152.13128q-.0576.1021-.10079.10211l-2.77912,4.522q-2.59192,4.24481-2.67832,4.34691-.0432.02917-.1008.07294l-.25919.01458h-.1008q-.25918,0-.25919-.1021-.0432-.08753-.56159-4.66783-.54717-4.63866-.56158-4.68242-.072-.16046-.89277-.16046h-.2448A.20243.20243,0,0,1,65.55239,110.53485Z"/>
    <path id="MJMAIN-28-3" data-name="MJMAIN-28" class="cls-10" d="M77.23044,116.34046a12.15038,12.15038,0,0,1,.144-1.91089,13.51931,13.51931,0,0,1,.33119-1.56081,6.15208,6.15208,0,0,1,.53278-1.28365q.3456-.62724.54719-.97733a3.86591,3.86591,0,0,1,.60478-.75852q.40319-.40843.47519-.496a2.60379,2.60379,0,0,1,.36-.30632h.2448q.20159,0,.20159.13128a1.17715,1.17715,0,0,1-.24479.30633,6.61068,6.61068,0,0,0-.59038.7731,10.12656,10.12656,0,0,0-.70558,1.25448,8.37773,8.37773,0,0,0-.60479,2.013,14.90928,14.90928,0,0,0-.24479,2.81529,14.67727,14.67727,0,0,0,.24479,2.8007,9.566,9.566,0,0,0,.59039,2.02759,6.62805,6.62805,0,0,0,.70558,1.25447q.36.48138.60478.77311a3.28927,3.28927,0,0,1,.24479.30633q0,.13128-.216.13128h-.2304l-.40318-.35008a7.20852,7.20852,0,0,1-1.97275-3.09244A12.06776,12.06776,0,0,1,77.23044,116.34046Z"/>
    <path id="MJMATHI-73-3" data-name="MJMATHI-73" class="cls-10" d="M83.37906,115.77157a2.18462,2.18462,0,0,1,.23039-.94816,2.38911,2.38911,0,0,1,.80638-.8898,2.27913,2.27913,0,0,1,1.39676-.39385,1.80371,1.80371,0,0,1,1.296.39385,1.25628,1.25628,0,0,1,.41759.87522.826.826,0,0,1-.792.919.57029.57029,0,0,1-.34559-.1167.47432.47432,0,0,1-.17279-.37926.66781.66781,0,0,1,.12959-.40844,1.3035,1.3035,0,0,1,.2448-.26256.34627.34627,0,0,1,.18719-.08752.01281.01281,0,0,0,.0144-.01459q0-.04376-.1008-.13128a.97743.97743,0,0,0-.36-.16046,2.51742,2.51742,0,0,0-.56158-.08752,1.24122,1.24122,0,0,0-1.008.37926,1.27753,1.27753,0,0,0-.33119.77311.52877.52877,0,0,0,.27359.51054,2.95868,2.95868,0,0,0,.792.248,3.1249,3.1249,0,0,1,.74878.21881,1.44137,1.44137,0,0,1,.95037,1.40035,2.24493,2.24493,0,0,1-.1584.81687,3.27269,3.27269,0,0,1-.47518.81687,2.08357,2.08357,0,0,1-.90718.64182,3.86517,3.86517,0,0,1-1.35356.248,2.30771,2.30771,0,0,1-1.56955-.423,1.35637,1.35637,0,0,1-.47519-.99192.99883.99883,0,0,1,.3024-.81687.987.987,0,0,1,.63358-.248.68874.68874,0,0,1,.40319.13128.54582.54582,0,0,1,.20159.45219.87889.87889,0,0,1-.25919.64183.7068.7068,0,0,1-.44639.26257.10956.10956,0,0,1-.0432.01458q-.0144,0-.0144.02918a.31354.31354,0,0,0,.1152.11669,1.99619,1.99619,0,0,0,.44639.18963,2.79757,2.79757,0,0,0,1.68475-.05834,1.2386,1.2386,0,0,0,.54718-.40844,1.94444,1.94444,0,0,0,.24479-.45219,1.11283,1.11283,0,0,0,.072-.36468.69.69,0,0,0-.30239-.61265,1.51809,1.51809,0,0,0-.69118-.248,3.52673,3.52673,0,0,1-.84958-.2188,1.33452,1.33452,0,0,1-.67678-.51055A1.48209,1.48209,0,0,1,83.37906,115.77157Z"/>
    <path id="MJMAIN-29-3" data-name="MJMAIN-29" class="cls-10" d="M89.11009,109.06156l.0576-.01458h.31679l.40319.35008a7.2086,7.2086,0,0,1,1.97274,3.09244,12.06748,12.06748,0,0,1,.61918,3.851,12.33348,12.33348,0,0,1-.144,1.91089,12.68493,12.68493,0,0,1-.33119,1.56081,6.61679,6.61679,0,0,1-.53279,1.28365q-.34558.64182-.54718.97733a4.42867,4.42867,0,0,1-.59038.74393q-.3888.40843-.46079.48137t-.33119.27715l-.0576.05835h-.33119a.08443.08443,0,0,1-.072-.04376.34633.34633,0,0,1-.0432-.13128q.0144-.0146.1584-.18963,2.23194-2.34851,2.23193-6.92881t-2.23193-6.92881q-.144-.175-.1584-.18963A.17226.17226,0,0,1,89.11009,109.06156Z"/>
    <path id="MJMAIN-3D" class="cls-10" d="M98.657,114.92552a.31772.31772,0,0,1,.20159-.29174h9.17253a.33893.33893,0,0,1,.216.29174.33079.33079,0,0,1-.2016.27716l-4.57906.01458H98.8874A.28839.28839,0,0,1,98.657,114.92552Zm0,2.82988a.28839.28839,0,0,1,.23039-.29174h9.15813a.391.391,0,0,1,.2016.29174.31859.31859,0,0,1-.216.29173H98.8586A.31769.31769,0,0,1,98.657,117.7554Z"/>
    <g>
      <path id="MJAMS-45" class="cls-10" d="M113.24378,110.27228a.31752.31752,0,0,1,.1728-.248h8.035a.26084.26084,0,0,1,.15839.16046v1.2253q0,1.07944-.0288,1.25448a.20174.20174,0,0,1-.23039.175.20673.20673,0,0,1-.17279-.07294.93374.93374,0,0,1-.1152-.32091,1.6669,1.6669,0,0,0-.54718-1.06485,2.17527,2.17527,0,0,0-1.03677-.64183,7.2192,7.2192,0,0,0-1.512-.20421h-.83517a.60392.60392,0,0,0-.2592.40843q-.0288.2334-.0576,1.86713V114.59h.2448a3.02817,3.02817,0,0,0,1.16636-.30632,1.65919,1.65919,0,0,0,.66238-.70018,2.86824,2.86824,0,0,0,.2304-.97732q0-.3355.23039-.3355a.25969.25969,0,0,1,.216.11669,18.83044,18.83044,0,0,1,.0576,2.33392v.919q0,.51054.0144.65641a3.09843,3.09843,0,0,1-.0432.671.20977.20977,0,0,1-.23039.14587q-.2448.01458-.24479-.29174a1.89009,1.89009,0,0,0-.2016-.77311,1.94,1.94,0,0,0-1.75675-.94815h-.34559v1.95465q.0144.39385.0144.97733.0144.8898.0432,1.06485a.598.598,0,0,0,.2016.3355.42922.42922,0,0,1,.0576.04376h.70557a5.78149,5.78149,0,0,0,1.69915-.21881,3.29732,3.29732,0,0,0,2.20314-1.88172q.0432-.35008.288-.35008a.21709.21709,0,0,1,.1728.08752.38975.38975,0,0,1,.08639.20422q-.0288.02917-.23039,1.28365a5.86464,5.86464,0,0,1-.288,1.342l-.0576.05835h-8.29415a.271.271,0,0,1-.1728-.248q0-.27716.56158-.27715.59039-.04377.66238-.248.072-.1167.072-4.21563t-.072-4.24481q-.08639-.18963-.66238-.23339Q113.24378,110.53485,113.24378,110.27228Zm1.79995,4.74077q0,3.06325-.0144,3.67591a2.42669,2.42669,0,0,1-.0864.75852.04225.04225,0,0,0-.0144.02918h1.52636q-.0288-.08752-.0576-.18963l-.072-.18963v-8.19788l.072-.175.0576-.18963h-1.52636q.0432.1021.0576.14587a4.55569,4.55569,0,0,1,.0288.51054q.0144.46678.0288,1.25448T115.04373,115.01305Zm6.04782-3.82179v-.65641h-.76318q0,.02917.1584.13128a1.293,1.293,0,0,1,.38879.29174Zm-1.97274,4.17187v-1.16695l-.2016.20421a1.30791,1.30791,0,0,1-.37439.29174l-.20159.1167a1.30794,1.30794,0,0,0,.23039.13128,4.4031,4.4031,0,0,0,.38879.26257Zm2.33273,3.73427.0576-.39385q-.0144,0-.0576.07293a3.55866,3.55866,0,0,1-.80638.53972l-.216.13128.44639.02918h.504a.24121.24121,0,0,1,.0144-.05835.94329.94329,0,0,0,.0288-.14587Q121.43714,119.17034,121.45154,119.0974Z"/>
      <path id="MJMATHI-3C0" class="cls-10" d="M116.2982,128.88731a.30341.30341,0,0,1-.34613-.34033v-.11344l.13234-.28877a20.138,20.138,0,0,0,1.10968-2.81544l.08144-.24751h-.32577a3.35212,3.35212,0,0,0-.54975.03093,1.09551,1.09551,0,0,0-.397.19595,1.33356,1.33356,0,0,0-.224.18564,2.64164,2.64164,0,0,0-.19343.21657,1.27,1.27,0,0,0-.09163.12375.57276.57276,0,0,1-.1527.01032q-.19344,0-.19343-.10313a1.25079,1.25079,0,0,1,.19343-.361,3.49311,3.49311,0,0,1,.55992-.6394,1.37837,1.37837,0,0,1,.72282-.3919q.07126-.02062,2.29061-.02062,1.62888,0,1.6696.01031a.28128.28128,0,0,1,.20361.28876.43.43,0,0,1-.32577.43315,5.45059,5.45059,0,0,1-.70246.02063H119.108l-.03054.17532a7.8388,7.8388,0,0,0-.12217,1.22724,4.55022,4.55022,0,0,0,.09163.95911,3.76209,3.76209,0,0,0,.19343.66,1.21322,1.21322,0,0,1,.1018.28876.481.481,0,0,1-.14252.33.47589.47589,0,0,1-.3665.15469.46389.46389,0,0,1-.18325-.03093q-.07127-.03094-.16289-.24752a3.00992,3.00992,0,0,1-.16289-.61878q-.01017-.0928-.01018-.45377a6.93028,6.93028,0,0,1,.09163-1.08286q.09162-.57753.18325-.94879l.1018-.41252h-.99769l-.01018.04125q0,.03093-.19343.81472t-.43776,1.66039a7.75788,7.75788,0,0,1-.31559,1.00036A.428.428,0,0,1,116.2982,128.88731Z"/>
    </g>
    <path id="MJSZ1-5B" class="cls-10" d="M125.58422,125.09264V107.60287h2.76471v.58348H126.1602v16.32281h2.18873v.58348Z"/>
    <path id="MJMATHI-51-2" data-name="MJMATHI-51" class="cls-10" d="M134.44,121.15416q0-.48138.0144-.72935a1.45862,1.45862,0,0,1,.0288-.27715v-.05835l-.216.05835a5.1747,5.1747,0,0,1-1.20956.16045,3.61822,3.61822,0,0,1-2.37593-.83145,3.73737,3.73737,0,0,1-1.25277-2.42144q-.0144-.1167-.0144-.62724a6.09766,6.09766,0,0,1,.69118-2.82987,8.15425,8.15425,0,0,1,1.85755-2.37768,5.5782,5.5782,0,0,1,3.58549-1.50245q.54719,0,.69118.01458a3.41717,3.41717,0,0,1,2.24634,1.25448,4.1476,4.1476,0,0,1,.864,2.65483,6.67628,6.67628,0,0,1-2.13114,4.78453,6.9046,6.9046,0,0,1-1.88634,1.32741l-.24479.1167v.07293q0,.01458.072.39385a1.15341,1.15341,0,0,0,.30239.61265.88976.88976,0,0,0,.66239.23339,1.6631,1.6631,0,0,0,.96477-.32091,1.48294,1.48294,0,0,0,.60478-.83146q.0864-.20421.18719-.20422a.14861.14861,0,0,1,.1584.13129,2.2045,2.2045,0,0,1-.144.52513q-.144.40843-.40319.96274a2.52521,2.52521,0,0,1-.77757.94815,1.95018,1.95018,0,0,1-1.09437.423q-1.18077,0-1.18077-1.5608Zm3.4127-7.99366a4.12,4.12,0,0,0-.216-1.40035,1.91851,1.91851,0,0,0-.59038-.8898,3.23757,3.23757,0,0,0-.72-.43761,1.94329,1.94329,0,0,0-.76318-.14587,3.10939,3.10939,0,0,0-1.41116.36467,5.22419,5.22419,0,0,0-2.36153,2.56731,8.3004,8.3004,0,0,0-.89277,3.61757,3.036,3.036,0,0,0,.77758,2.29015,1.35211,1.35211,0,0,0,.41758.30633v-.1167a1.535,1.535,0,0,1,.47519-1.07944,1.55648,1.55648,0,0,1,1.12317-.51054,1.153,1.153,0,0,1,.61918.16046,1.00428,1.00428,0,0,1,.38879.43761,2.42191,2.42191,0,0,1,.17279.46678q.0432.18963.0864.39385l.18719-.13128a5.37817,5.37817,0,0,0,1.56956-1.765,8.02128,8.02128,0,0,0,.89277-2.17346A8.64319,8.64319,0,0,0,137.85265,113.1605Zm-4.63666,6.56414a2.82805,2.82805,0,0,0,1.296-.30633l-.0144-.14587q-.0576-.80229-.53278-.96274a1.7409,1.7409,0,0,0-.27359-.02917h-.0864a.08263.08263,0,0,1-.0576-.01459.87249.87249,0,0,0-.59038.29174.96092.96092,0,0,0-.31679.671Q132.64,119.72464,133.216,119.72464Z"/>
    <path id="MJMAIN-28-4" data-name="MJMAIN-28" class="cls-10" d="M141.43815,116.34046a12.1516,12.1516,0,0,1,.144-1.91089,13.52143,13.52143,0,0,1,.33119-1.56081,6.15212,6.15212,0,0,1,.53279-1.28365q.34558-.62724.54718-.97733a3.86629,3.86629,0,0,1,.60478-.75852q.4032-.40843.47519-.496a2.60475,2.60475,0,0,1,.36-.30632h.24479q.2016,0,.2016.13128a1.17707,1.17707,0,0,1-.2448.30633,6.61178,6.61178,0,0,0-.59038.7731,10.12915,10.12915,0,0,0-.70558,1.25448,8.37823,8.37823,0,0,0-.60478,2.013,14.90928,14.90928,0,0,0-.24479,2.81529,14.67727,14.67727,0,0,0,.24479,2.8007,9.5666,9.5666,0,0,0,.59038,2.02759,6.62915,6.62915,0,0,0,.70558,1.25447q.36.48138.60478.77311a3.28857,3.28857,0,0,1,.2448.30633q0,.13128-.216.13128h-.23039l-.40319-.35008a7.2086,7.2086,0,0,1-1.97274-3.09244A12.06748,12.06748,0,0,1,141.43815,116.34046Z"/>
    <path id="MJMATHI-73-4" data-name="MJMATHI-73" class="cls-10" d="M147.58677,115.77157a2.18448,2.18448,0,0,1,.23039-.94816,2.38911,2.38911,0,0,1,.80638-.8898,2.27911,2.27911,0,0,1,1.39676-.39385,1.80371,1.80371,0,0,1,1.296.39385,1.25623,1.25623,0,0,1,.41758.87522.826.826,0,0,1-.792.919.57027.57027,0,0,1-.34559-.1167.47429.47429,0,0,1-.1728-.37926.66775.66775,0,0,1,.1296-.40844,1.30349,1.30349,0,0,1,.24479-.26256.34633.34633,0,0,1,.1872-.08752.01281.01281,0,0,0,.0144-.01459q0-.04376-.1008-.13128a.97759.97759,0,0,0-.36-.16046,2.51751,2.51751,0,0,0-.56158-.08752,1.24122,1.24122,0,0,0-1.008.37926,1.27747,1.27747,0,0,0-.33119.77311.52876.52876,0,0,0,.27359.51054,2.95847,2.95847,0,0,0,.792.248,3.12475,3.12475,0,0,1,.74878.21881,1.44137,1.44137,0,0,1,.95037,1.40035,2.24492,2.24492,0,0,1-.15839.81687,3.27275,3.27275,0,0,1-.47519.81687,2.08347,2.08347,0,0,1-.90717.64182,3.86526,3.86526,0,0,1-1.35356.248,2.3077,2.3077,0,0,1-1.56955-.423,1.35637,1.35637,0,0,1-.47519-.99192.99886.99886,0,0,1,.30239-.81687.987.987,0,0,1,.63358-.248.68872.68872,0,0,1,.40319.13128.54579.54579,0,0,1,.20159.45219.87885.87885,0,0,1-.25919.64183.70678.70678,0,0,1-.44638.26257.10956.10956,0,0,1-.0432.01458q-.0144,0-.0144.02918a.31357.31357,0,0,0,.11519.11669,1.99641,1.99641,0,0,0,.44639.18963,2.79756,2.79756,0,0,0,1.68475-.05834,1.23854,1.23854,0,0,0,.54718-.40844,1.94451,1.94451,0,0,0,.2448-.45219,1.11283,1.11283,0,0,0,.072-.36468.69.69,0,0,0-.3024-.61265,1.518,1.518,0,0,0-.69118-.248,3.52655,3.52655,0,0,1-.84957-.2188,1.33452,1.33452,0,0,1-.67678-.51055A1.482,1.482,0,0,1,147.58677,115.77157Z"/>
    <path id="MJMAIN-2C-2" data-name="MJMAIN-2C" class="cls-10" d="M153.577,119.47666V119.112a.91915.91915,0,0,1,.23039-.62724.78229.78229,0,0,1,.61919-.26256.937.937,0,0,1,.72.36467,2.033,2.033,0,0,1,.33119,1.28366,3.79861,3.79861,0,0,1-.12959.99191,4.57384,4.57384,0,0,1-.30239.83146,3.16967,3.16967,0,0,1-.37439.59806q-.2016.248-.34559.39385t-.1872.13128q-.0576,0-.18719-.13128t-.1296-.18963q0-.05835.1584-.23339t.36-.43761a2.81239,2.81239,0,0,0,.37439-.72935,4.23692,4.23692,0,0,0,.23039-1.06485v-.175l-.0144.01459a.556.556,0,0,1-.072.02917.36118.36118,0,0,0-.08639.04376.23322.23322,0,0,1-.1296.02917,1.03677,1.03677,0,0,0-.1728.01459.85137.85137,0,0,1-.63358-.248Z"/>
    <path id="MJMATHI-61-2" data-name="MJMATHI-61" class="cls-10" d="M159.33682,117.69705a4.34207,4.34207,0,0,1,1.09437-2.8007,3.21036,3.21036,0,0,1,2.46233-1.342,1.62675,1.62675,0,0,1,1.296.71476.72.72,0,0,1,.66238-.43761.51108.51108,0,0,1,.33119.1167.36083.36083,0,0,1,.144.29174q0,.18963-.53278,2.33391t-.54718,2.42144a.78848.78848,0,0,0,.10079.48137.42054.42054,0,0,0,.30239.13128.62177.62177,0,0,0,.288-.13128,3.32858,3.32858,0,0,0,.59038-1.40035q.0864-.29174.144-.30633a.41629.41629,0,0,1,.144-.01458h.0576q.27358,0,.27359.13128a2.34408,2.34408,0,0,1-.072.39385,4.61448,4.61448,0,0,1-.288.78769,2.48868,2.48868,0,0,1-.46079.72935,1.42243,1.42243,0,0,1-.46078.30633,1.51608,1.51608,0,0,1-.34559.02917,1.45751,1.45751,0,0,1-.82078-.2188,1.114,1.114,0,0,1-.432-.4522l-.08639-.2188q-.0144-.01459-.0576.01458l-.0576.05835a2.51052,2.51052,0,0,1-1.72795.81687,1.9523,1.9523,0,0,1-1.39676-.58348A2.47764,2.47764,0,0,1,159.33682,117.69705Zm4.57907-2.49437a1.3353,1.3353,0,0,0-.072-.32092,1.389,1.389,0,0,0-.33119-.51054.915.915,0,0,0-.66238-.29174,1.37407,1.37407,0,0,0-.96477.4522,3.05827,3.05827,0,0,0-.72,1.18154,11.76943,11.76943,0,0,0-.59039,2.39226v.16046a.78731.78731,0,0,1-.0144.175,1.2357,1.2357,0,0,0,.2592.90439.92138.92138,0,0,0,.61918.26257,1.61594,1.61594,0,0,0,1.08-.48137,2.44546,2.44546,0,0,0,.63358-.74394q.0288-.05834.38879-1.5608T163.91589,115.20268Z"/>
    <path id="MJMAIN-29-4" data-name="MJMAIN-29" class="cls-10" d="M167.35738,109.06156l.0576-.01458h.31679l.40319.35008a7.2086,7.2086,0,0,1,1.97274,3.09244,12.06748,12.06748,0,0,1,.61918,3.851,12.33225,12.33225,0,0,1-.144,1.91089,12.68493,12.68493,0,0,1-.33119,1.56081,6.61679,6.61679,0,0,1-.53279,1.28365q-.34558.64182-.54718.97733a4.42867,4.42867,0,0,1-.59038.74393q-.38878.40843-.46079.48137t-.33119.27715l-.0576.05835h-.33119a.08443.08443,0,0,1-.072-.04376.34652.34652,0,0,1-.04319-.13128q.0144-.0146.15839-.18963,2.23194-2.34851,2.23194-6.92881t-2.23194-6.92881q-.144-.175-.15839-.18963A.17228.17228,0,0,1,167.35738,109.06156Z"/>
    <path id="MJSZ1-5D" class="cls-10" d="M172.41163,108.18635v-.58348h2.76472v17.48977h-2.76472v-.58348h2.18874V108.18635Z"/>
  </g>
</svg>
