<svg id="Layer_1" data-name="Layer 1" xmlns="http://www.w3.org/2000/svg" viewBox="0 0 580.23526 162">
  <defs>
    <style>
      .cls-1 {
        fill: #e7ebe8;
      }

      .cls-2 {
        fill: #58595b;
      }

      .cls-3 {
        fill: #fff;
      }

      .cls-4 {
        fill: #b2b3c3;
      }

      .cls-5 {
        fill: #010101;
      }

      .cls-6, .cls-9 {
        fill: #70a8da;
      }

      .cls-6, .cls-8 {
        opacity: 0.5;
      }

      .cls-7, .cls-8 {
        fill: #ef4136;
      }

      .cls-10 {
        font-size: 15.33932px;
        fill: #6d6e71;
        font-family: Roboto-Regular, Roboto;
      }

      .cls-11 {
        letter-spacing: -0.00732em;
      }

      .cls-12 {
        letter-spacing: -0.0063em;
      }

      .cls-13 {
        letter-spacing: -0.00006em;
      }

      .cls-14 {
        letter-spacing: -0.01662em;
      }
    </style>
  </defs>
  <title>recovering-value</title>
  <rect class="cls-1" x="290.99988" y="36.16682" width="97.59514" height="97.59514"/>
  <polygon class="cls-2" points="303.845 84.962 313.95 105.252 313.95 64.673 303.845 84.962"/>
  <polygon class="cls-3" points="339.699 121.169 359.988 111.064 319.41 111.064 339.699 121.169"/>
  <polygon class="cls-4" points="375.75 84.985 365.645 64.696 365.645 105.274 375.75 84.985"/>
  <polygon class="cls-4" points="339.699 48.969 319.41 59.074 359.988 59.074 339.699 48.969"/>
  <g>
    <path id="MJMATHI-3C0" class="cls-5" d="M294.48669,26.13655a.91844.91844,0,0,1-1.05432-1.02331v-.3411l.40312-.86826a60.08637,60.08637,0,0,0,3.38-8.46554l.24808-.74422h-.9923a10.33955,10.33955,0,0,0-1.6745.093,3.35486,3.35486,0,0,0-1.20936.58918,4.05039,4.05039,0,0,0-.68221.55817,7.9933,7.9933,0,0,0-.58918.65119,3.8191,3.8191,0,0,0-.27908.37212,1.76837,1.76837,0,0,1-.46514.031q-.58917,0-.58918-.31009a3.744,3.744,0,0,1,.58918-1.08532,10.54472,10.54472,0,0,1,1.70551-1.92258,4.21576,4.21576,0,0,1,2.20166-1.17835q.21707-.062,6.9771-.062,4.96148,0,5.08552.031a.84661.84661,0,0,1,.62019.86826,1.2951,1.2951,0,0,1-.9923,1.30239,16.81869,16.81869,0,0,1-2.13964.062h-1.9846l-.093.52715a23.2747,23.2747,0,0,0-.37212,3.69011,13.51111,13.51111,0,0,0,.27909,2.88387,11.20423,11.20423,0,0,0,.58917,1.98459,3.61622,3.61622,0,0,1,.3101.86826,1.43708,1.43708,0,0,1-.43413.9923,1.45859,1.45859,0,0,1-1.11634.46514,1.429,1.429,0,0,1-.55817-.093q-.21707-.093-.49614-.74422a8.95745,8.95745,0,0,1-.49615-1.86056q-.031-.27909-.031-1.36441a20.58,20.58,0,0,1,.27908-3.256q.27909-1.73652.55817-2.85285l.31009-1.24037H298.735l-.031.124q0,.093-.58918,2.44974t-1.3334,4.9925a23.10821,23.10821,0,0,1-.96128,3.0079A1.30386,1.30386,0,0,1,294.48669,26.13655Z"/>
    <path id="MJMAIN-31" class="cls-5" d="M312.73358,17.79334l-.285.10962a6.28234,6.28234,0,0,1-.87695.21923,10.10522,10.10522,0,0,1-1.27156.15347h-.41655V17.26717h.41655a7.12931,7.12931,0,0,0,1.90735-.32885,5.17736,5.17736,0,0,0,1.22772-.52616,5.62174,5.62174,0,0,0,.61386-.48232q.04385-.06578.26308-.06577a.61059.61059,0,0,1,.3727.13154v6.55515l.02192,6.57707a.86814.86814,0,0,0,.26309.19731,2.60038,2.60038,0,0,0,.52616.0877q.41655.04385,1.35926.04384h.57v1.00849h-.24116q-.4604-.06577-3.48585-.06577-2.98161,0-3.442.06577h-.26308V29.45668h1.4031a5.26416,5.26416,0,0,0,.54809-.02192,2.14742,2.14742,0,0,0,.35078-.06577,1.31416,1.31416,0,0,1,.17539-.04385q.02193,0,.13154-.10962t.13154-.08769Z"/>
  </g>
  <rect class="cls-1" x="1.11737" y="36.3734" width="97.59514" height="97.59514"/>
  <circle class="cls-3" cx="50.94997" cy="86.38988" r="30.91194"/>
  <circle class="cls-6" cx="50.94729" cy="86.42677" r="30.91194"/>
  <g>
    <path id="MJMATHI-56" class="cls-5" d="M1.55845,4.72976a1.20064,1.20064,0,0,1,.33-.88849H2.1677q1.0662.07615,2.66548.07615,2.99547,0,3.52857-.07615h.25386q.15231.15231.15231.22847t-.05077.45693a1.39847,1.39847,0,0,1-.22847.48233h-.5331q-.55848.05076-.76156.05077-.73617.12691-.81233.38078,0,.05077.73618,6.37174T7.87943,18.184l1.85314-2.9701q1.85313-2.97009,3.70627-5.991t1.90391-3.12241a.75512.75512,0,0,0,.10154-.38078q0-.60925-1.117-.71079-.45694,0-.45694-.27924,0-.02539.05077-.33a1.36572,1.36572,0,0,1,.15232-.45694.403.403,0,0,1,.33-.10154h.30462q.25386,0,.86311.02538t1.62466.02539q1.7516,0,2.20854-.05077h.1777q.17769.17769.17769.27924a1.55266,1.55266,0,0,1-.22847.81233.72637.72637,0,0,1-.43155.07616q-.33.02538-.60925.05077a1.88755,1.88755,0,0,0-.53309.12692q-.25386.10155-.40617.1777a1.58933,1.58933,0,0,0-.30462.20309,1.41986,1.41986,0,0,1-.25386.17769.55181.55181,0,0,0-.20308.22847q-.10155.17771-.1777.1777l-4.89939,7.86949Q7.14326,21.408,6.99094,21.58569q-.07615.05078-.1777.12693L6.3563,21.738H6.1786q-.45693,0-.45693-.1777-.07617-.15231-.99-8.12334-.96463-8.07257-.99-8.14872Q3.61467,5.009,2.1677,5.009H1.73615A.35169.35169,0,0,1,1.55845,4.72976Z"/>
    <g>
      <path id="MJMATHI-3C0-2" data-name="MJMATHI-3C0" class="cls-5" d="M23.55047,10.91814a.53157.53157,0,0,1-.61022-.59226v-.19743l.23332-.50253a34.7769,34.7769,0,0,0,1.95628-4.89967l.14358-.43074h-.57432a5.98288,5.98288,0,0,0-.96917.05385,1.94162,1.94162,0,0,0-.69995.341,2.34437,2.34437,0,0,0-.39484.32305,4.6248,4.6248,0,0,0-.341.3769,2.20941,2.20941,0,0,0-.16152.21537,1.02306,1.02306,0,0,1-.26922.01795q-.341,0-.341-.17948a2.167,2.167,0,0,1,.341-.62816,6.10333,6.10333,0,0,1,.98712-1.11274,2.44,2.44,0,0,1,1.27427-.682q.12562-.0359,4.03819-.03589,2.8716,0,2.94339.01794a.49.49,0,0,1,.359.50253.74958.74958,0,0,1-.57432.7538,9.73425,9.73425,0,0,1-1.23838.03589H28.504l-.05384.30511a13.47113,13.47113,0,0,0-.21537,2.13575,7.81973,7.81973,0,0,0,.16153,1.66912,6.48394,6.48394,0,0,0,.341,1.14864,2.09288,2.09288,0,0,1,.17947.50253.83172.83172,0,0,1-.25126.57432.84418.84418,0,0,1-.64611.26922.827.827,0,0,1-.32306-.05385q-.12562-.05383-.28716-.43074A5.185,5.185,0,0,1,27.122,9.33876q-.01794-.16152-.01794-.78969a11.91146,11.91146,0,0,1,.16152-1.88449q.16154-1.00506.32306-1.65117l.17947-.7179H26.00928l-.01795.07179q0,.05385-.341,1.41786T24.87858,8.6747a13.37388,13.37388,0,0,1-.55637,1.74091A.75464.75464,0,0,1,23.55047,10.91814Z"/>
      <path id="MJMAIN-31-2" data-name="MJMAIN-31" class="cls-5" d="M34.11528,6.08788l-.165.06346a3.63769,3.63769,0,0,1-.5077.12693,5.85186,5.85186,0,0,1-.73618.08885h-.24116V5.78325h.24116a4.12724,4.12724,0,0,0,1.10426-.19039,2.99734,2.99734,0,0,0,.7108-.30462,3.25349,3.25349,0,0,0,.35539-.27924q.0254-.03809.15232-.03808a.3535.3535,0,0,1,.21577.07615V8.8422L35.25762,12.65a.50275.50275,0,0,0,.15232.11424,1.50523,1.50523,0,0,0,.30462.05077q.24117.02538.787.02538h.33v.58387H36.6919q-.26655-.03808-2.01814-.03808-1.72621,0-1.99276.03808h-.15231V12.8404H33.341a3.049,3.049,0,0,0,.31732-.01269,1.24214,1.24214,0,0,0,.20309-.03808.76075.76075,0,0,1,.10154-.02538q.01269,0,.07615-.06347t.07616-.05077Z"/>
    </g>
    <path id="MJMAIN-28" class="cls-5" d="M44.48523,14.83316a20.87925,20.87925,0,0,1,.25386-3.32549A23.26353,23.26353,0,0,1,45.323,8.79143a10.63009,10.63009,0,0,1,.93926-2.23392q.60925-1.09158.96465-1.70083a6.74268,6.74268,0,0,1,1.06619-1.32q.71079-.71079.83772-.8631a4.57484,4.57484,0,0,1,.63463-.5331H50.197q.3554,0,.35539.22847a2.05127,2.05127,0,0,1-.43155.5331A11.52438,11.52438,0,0,0,49.08,4.24743a17.563,17.563,0,0,0-1.24389,2.18315,14.442,14.442,0,0,0-1.06619,3.50319,25.62157,25.62157,0,0,0-.43155,4.89939,25.22313,25.22313,0,0,0,.43155,4.874,16.48691,16.48691,0,0,0,1.0408,3.52857,11.49714,11.49714,0,0,0,1.24389,2.18315q.63464.83772,1.06619,1.34543a5.73486,5.73486,0,0,1,.43155.53309q0,.22846-.38078.22847H49.7654l-.71079-.60925a12.52745,12.52745,0,0,1-3.4778-5.38171A20.75506,20.75506,0,0,1,44.48523,14.83316Z"/>
    <path id="MJMATHI-73" class="cls-5" d="M55.32481,13.84313a3.76191,3.76191,0,0,1,.40617-1.65005,4.17641,4.17641,0,0,1,1.42159-1.54852,4.056,4.056,0,0,1,2.46238-.6854,3.20727,3.20727,0,0,1,2.28469.6854,2.17494,2.17494,0,0,1,.73618,1.52313,1.51182,1.51182,0,0,1-.43155,1.19312,1.538,1.538,0,0,1-.96465.40616,1.01394,1.01394,0,0,1-.60925-.20308.82129.82129,0,0,1-.30462-.66,1.15193,1.15193,0,0,1,.22846-.71079,2.28046,2.28046,0,0,1,.43156-.45694.61434.61434,0,0,1,.33-.15231.02244.02244,0,0,0,.02538-.02539q0-.07615-.17769-.22847a1.73413,1.73413,0,0,0-.63464-.27924,4.49143,4.49143,0,0,0-.99-.15231A2.14718,2.14718,0,0,0,57.178,12.90387a.91772.91772,0,0,0,.48232.88849,5.26481,5.26481,0,0,0,1.3962.43155,5.56323,5.56323,0,0,1,1.32005.38078,2.50884,2.50884,0,0,1,1.67544,2.437,3.863,3.863,0,0,1-.27924,1.42159,5.67838,5.67838,0,0,1-.83772,1.42158,3.67221,3.67221,0,0,1-1.59929,1.117,6.89317,6.89317,0,0,1-2.38623.43156,4.1062,4.1062,0,0,1-2.767-.73618,2.3486,2.3486,0,0,1-.83772-1.72621,1.72647,1.72647,0,0,1,.53309-1.42159,1.75286,1.75286,0,0,1,1.117-.43155,1.22489,1.22489,0,0,1,.7108.22847.94507.94507,0,0,1,.35539.787,1.51936,1.51936,0,0,1-.45694,1.117,1.25022,1.25022,0,0,1-.78694.45694.19491.19491,0,0,1-.07616.02538q-.02538,0-.02539.05077a.54873.54873,0,0,0,.20309.20309,3.54445,3.54445,0,0,0,.78695.33,4.993,4.993,0,0,0,2.97009-.10155,2.18079,2.18079,0,0,0,.96465-.71079,3.37017,3.37017,0,0,0,.43155-.78695,1.91466,1.91466,0,0,0,.12693-.63463,1.19592,1.19592,0,0,0-.5331-1.06619,2.69846,2.69846,0,0,0-1.2185-.43155,6.28287,6.28287,0,0,1-1.49774-.38078,2.34924,2.34924,0,0,1-1.19311-.8885A2.55521,2.55521,0,0,1,55.32481,13.84313Z"/>
    <path id="MJMAIN-29" class="cls-5" d="M65.42822,2.16583l.10154-.02539h.55848l.71079.60925a12.52753,12.52753,0,0,1,3.47781,5.38172,20.75527,20.75527,0,0,1,1.09157,6.70175,21.19284,21.19284,0,0,1-.25385,3.32549,21.82631,21.82631,0,0,1-.58387,2.71625,11.43318,11.43318,0,0,1-.93926,2.23391q-.60926,1.117-.96465,1.70083A7.72246,7.72246,0,0,1,67.586,26.1043q-.68541.71079-.81233.83772t-.58387.48232l-.10154.10154h-.58386a.14915.14915,0,0,1-.12693-.07616.59761.59761,0,0,1-.07616-.22846q.0254-.0254.27924-.33,3.93474-4.08706,3.93474-12.05809T65.58053,2.77508q-.25384-.30464-.27924-.33A.29836.29836,0,0,1,65.42822,2.16583Z"/>
  </g>
  <g>
    <path id="MJMAIN-3D" class="cls-5" d="M144.95524,81.49916a.82708.82708,0,0,1,.53156-.75937h24.186a.883.883,0,0,1,.56953.75937.86141.86141,0,0,1-.53156.72141l-12.074.038h-12.074A.75254.75254,0,0,1,144.95524,81.49916Zm0,7.36591a.75254.75254,0,0,1,.6075-.75937h24.148q.53155.37969.53156.75937a.83024.83024,0,0,1-.56953.75938h-24.186A.82709.82709,0,0,1,144.95524,88.86507Z"/>
    <path id="MJSZ2-2211" class="cls-5" d="M210.48906,58.68q.11391-.07595,22.971-.07594h22.85711l2.20218,5.12576q2.24014,5.23967,2.392,5.54342h-1.51874l-.26578-.53156a12.8279,12.8279,0,0,0-2.12625-2.96155,15.937,15.937,0,0,0-4.21451-2.92359,20.79017,20.79017,0,0,0-5.35358-1.63265,44.16718,44.16718,0,0,0-5.73326-.64546q-2.69577-.11391-6.94825-.15188H217.74107l.30375.41766q17.57946,24.03413,17.6554,24.26194a.34214.34214,0,0,1,0,.22781q-.1139.11391-10.02371,11.46652L215.6528,108.1911q0,.038,8.01137.038h5.35358q3.3792,0,4.86.038,5.16374,0,8.35309-.18984a48.77288,48.77288,0,0,0,6.34076-.79734,17.48567,17.48567,0,0,0,5.35358-1.86046,14.23851,14.23851,0,0,0,3.91076-3.30327,12.03224,12.03224,0,0,0,1.55672-2.73374h1.51874q0,.038-.26578.79734t-.94921,2.468q-.68344,1.70859-1.177,3.18936l-2.20218,5.88514-22.81914.038q-22.8571,0-22.971-.07594a.32256.32256,0,0,1-.22781-.34172.58277.58277,0,0,1,.07594-.22781l20.23727-23.16085q0-.038-1.253-1.70859t-3.9867-5.46748q-2.73373-3.79686-4.93592-6.75841L210.33719,60.1608l-.038-.56953Q210.29922,58.79393,210.48906,58.68Z"/>
  </g>
  <path id="MJMAIN-22C5" class="cls-5" d="M434.74562,87.147a2.2495,2.2495,0,0,1,.64547-1.59469,2.14942,2.14942,0,0,1,1.63265-.68343,2.32527,2.32527,0,0,1,1.59468.6075,2.19093,2.19093,0,0,1,.7214,1.63265,2.29516,2.29516,0,0,1-.64546,1.63265,2.14942,2.14942,0,0,1-1.63265.68343,2.21273,2.21273,0,0,1-1.63265-.64546A2.34783,2.34783,0,0,1,434.74562,87.147Z"/>
  <rect class="cls-1" x="481.22432" y="36.18074" width="97.59514" height="97.59514"/>
  <polygon class="cls-3" points="565.925 85.022 555.82 64.733 555.82 105.311 565.925 85.022"/>
  <polygon class="cls-3" points="494.022 84.976 504.127 105.266 504.127 64.687 494.022 84.976"/>
  <polygon class="cls-6" points="494.069 84.976 504.175 105.266 504.175 64.687 494.069 84.976"/>
  <polygon class="cls-7" points="529.924 121.183 550.213 111.078 509.634 111.078 529.924 121.183"/>
  <polygon class="cls-8" points="565.974 84.999 555.869 64.709 555.869 105.288 565.974 84.999"/>
  <polygon class="cls-9" points="529.924 48.982 509.634 59.088 550.213 59.088 529.924 48.982"/>
  <g>
    <path id="MJMATHI-51" class="cls-5" d="M490.02118,22.8562q0-.87153.02641-1.32049a2.60752,2.60752,0,0,1,.05282-.50178v-.10564l-.39615.10564a9.60728,9.60728,0,0,1-2.21841.2905,6.481,6.481,0,0,1-6.65524-5.88935q-.02641-.21129-.02641-1.13562A10.92552,10.92552,0,0,1,482.07186,9.176a14.79178,14.79178,0,0,1,3.40685-4.30478,10.301,10.301,0,0,1,6.576-2.72019q1.00358,0,1.26767.02641a6.28751,6.28751,0,0,1,4.11991,2.27123,7.44606,7.44606,0,0,1,1.58458,4.80656,12.01641,12.01641,0,0,1-3.90863,8.66238,12.66622,12.66622,0,0,1-3.45967,2.40328l-.449.21127v.13205q0,.02641.132.71306a2.07826,2.07826,0,0,0,.5546,1.10921,1.64436,1.64436,0,0,0,1.21485.42255,3.07685,3.07685,0,0,0,1.76945-.581,2.68688,2.68688,0,0,0,1.1092-1.50535q.15846-.36973.34333-.36974a.27163.27163,0,0,1,.29051.23769,3.95,3.95,0,0,1-.2641.95075q-.26409.73947-.73947,1.743a4.58487,4.58487,0,0,1-1.42612,1.71663,3.60406,3.60406,0,0,1-2.00714.76588q-2.1656,0-2.16559-2.82584Zm6.25909-14.47251a7.37224,7.37224,0,0,0-.39614-2.53533,3.47166,3.47166,0,0,0-1.0828-1.611,5.95456,5.95456,0,0,0-1.32048-.79229,3.60489,3.60489,0,0,0-1.39972-.2641,5.76144,5.76144,0,0,0-2.58815.66025,9.50835,9.50835,0,0,0-4.33118,4.6481,14.87187,14.87187,0,0,0-1.6374,6.5496,5.45443,5.45443,0,0,0,1.42612,4.14632,2.48023,2.48023,0,0,0,.76588.5546v-.21127a2.76227,2.76227,0,0,1,.87152-1.95432,2.871,2.871,0,0,1,2.06-.92434,2.136,2.136,0,0,1,1.13562.29051,1.82609,1.82609,0,0,1,.71306.79229,4.34809,4.34809,0,0,1,.31692.84511q.07923.34332.15846.71306l.34332-.23769a9.78062,9.78062,0,0,0,2.87866-3.19557,14.41854,14.41854,0,0,0,1.6374-3.935A15.45853,15.45853,0,0,0,496.28027,8.38369Zm-8.50392,11.88436a5.242,5.242,0,0,0,2.37688-.55461l-.02641-.26409q-.10564-1.45254-.97716-1.743a3.23233,3.23233,0,0,0-.50179-.05282h-.15845a.15291.15291,0,0,1-.10564-.02641,1.60851,1.60851,0,0,0-1.0828.52819,1.73064,1.73064,0,0,0-.581,1.21485Q486.72,20.26805,487.77635,20.26805Z"/>
    <g>
      <path id="MJMATHI-3C0-3" data-name="MJMATHI-3C0" class="cls-5" d="M502.83843,10.068a.553.553,0,0,1-.63484-.61616V9.24647l.24273-.52281a36.17882,36.17882,0,0,0,2.03521-5.09736l.14938-.44812h-.5975a6.22517,6.22517,0,0,0-1.00826.056,2.02,2.02,0,0,0-.7282.35476,2.439,2.439,0,0,0-.41078.33609,4.81575,4.81575,0,0,0-.35476.3921,2.30169,2.30169,0,0,0-.168.22406,1.06433,1.06433,0,0,1-.28008.01868q-.35475,0-.35476-.18672a2.25451,2.25451,0,0,1,.35476-.65351A6.35007,6.35007,0,0,1,502.11023,2.562a2.53846,2.53846,0,0,1,1.32569-.70952q.13071-.03735,4.20112-.03735,2.98746,0,3.06215.01868a.50975.50975,0,0,1,.37343.5228.77982.77982,0,0,1-.59749.78421,10.12574,10.12574,0,0,1-1.28834.03734h-1.195l-.056.31742a14.01383,14.01383,0,0,0-.22406,2.22193,8.13561,8.13561,0,0,0,.168,1.73646,6.747,6.747,0,0,0,.35476,1.195,2.17711,2.17711,0,0,1,.18672.5228.86528.86528,0,0,1-.2614.59749.87825.87825,0,0,1-.67218.28008.8603.8603,0,0,1-.33609-.056q-.13071-.056-.29875-.44812a5.39335,5.39335,0,0,1-.29874-1.12029q-.01868-.168-.01868-.82156a12.39146,12.39146,0,0,1,.168-1.96052q.168-1.0456.33609-1.71779l.18672-.74687h-1.82983l-.01867.07469q0,.056-.35476,1.47506t-.80288,3.00614a13.91586,13.91586,0,0,1-.57882,1.81114A.78509.78509,0,0,1,502.83843,10.068Z"/>
      <path id="MJMAIN-31-3" data-name="MJMAIN-31" class="cls-5" d="M513.8295,5.04287l-.17166.066a3.78449,3.78449,0,0,1-.52819.13205,6.087,6.087,0,0,1-.76588.09243h-.2509V4.726h.2509a4.29443,4.29443,0,0,0,1.14882-.19807,3.11849,3.11849,0,0,0,.73947-.31692,3.38316,3.38316,0,0,0,.36973-.29051q.02641-.03962.15846-.03961a.36776.36776,0,0,1,.22448.07923V7.90832l.01321,3.96145a.52276.52276,0,0,0,.15846.11884,1.56575,1.56575,0,0,0,.31691.05282q.25089.02641.8187.02641h.34333v.60742h-.14525q-.27731-.03961-2.09957-.03961-1.79586,0-2.07316.03961h-.15846v-.60742h.84511a3.17252,3.17252,0,0,0,.33012-.0132,1.29349,1.29349,0,0,0,.21128-.03962.79214.79214,0,0,1,.10564-.02641q.0132,0,.07922-.066t.07923-.05282Z"/>
    </g>
    <path id="MJMAIN-28-2" data-name="MJMAIN-28" class="cls-5" d="M524.61786,14.141a21.72165,21.72165,0,0,1,.2641-3.45967,24.20218,24.20218,0,0,1,.60742-2.82583,11.0584,11.0584,0,0,1,.97716-2.32406q.63383-1.1356,1.00356-1.76944a7.01442,7.01442,0,0,1,1.10921-1.37331q.73947-.73947.87152-.89793a4.76031,4.76031,0,0,1,.66024-.5546h.449q.36973,0,.36973.23769a2.134,2.134,0,0,1-.449.5546,11.99127,11.99127,0,0,0-1.0828,1.39971,18.27234,18.27234,0,0,0-1.29407,2.27124,15.02424,15.02424,0,0,0-1.10921,3.64453,26.65512,26.65512,0,0,0-.449,5.09707,26.24056,26.24056,0,0,0,.449,5.07066,17.15184,17.15184,0,0,0,1.0828,3.671,11.96079,11.96079,0,0,0,1.29407,2.27123q.66024.87152,1.10921,1.39971a5.96645,5.96645,0,0,1,.449.5546q0,.23769-.39614.23769h-.42256l-.73947-.63383a13.033,13.033,0,0,1-3.61813-5.59885A21.59283,21.59283,0,0,1,524.61786,14.141Z"/>
    <path id="MJMATHI-73-2" data-name="MJMATHI-73" class="cls-5" d="M535.89479,13.111a3.91371,3.91371,0,0,1,.42256-1.71663,4.34481,4.34481,0,0,1,1.47894-1.611,4.21973,4.21973,0,0,1,2.56174-.71306,3.33666,3.33666,0,0,1,2.37687.71306,2.26272,2.26272,0,0,1,.76588,1.58458,1.57281,1.57281,0,0,1-.449,1.24126,1.6,1.6,0,0,1-1.00357.42255,1.05489,1.05489,0,0,1-.63384-.21127.85443.85443,0,0,1-.31691-.68665,1.19843,1.19843,0,0,1,.23769-.73948,2.3725,2.3725,0,0,1,.449-.47537.6391.6391,0,0,1,.34333-.15846.02334.02334,0,0,0,.02641-.02641q0-.07923-.18487-.23769a1.80412,1.80412,0,0,0-.66024-.2905,4.67335,4.67335,0,0,0-1.03-.15846,2.2338,2.2338,0,0,0-2.4561,2.08637.95471.95471,0,0,0,.50178.92433,5.47721,5.47721,0,0,0,1.45253.449,5.78716,5.78716,0,0,1,1.37331.39614,2.61008,2.61008,0,0,1,1.743,2.53533,4.01894,4.01894,0,0,1-.29051,1.479,5.90754,5.90754,0,0,1-.87152,1.47894,3.82042,3.82042,0,0,1-1.66381,1.162,7.17109,7.17109,0,0,1-2.48251.449,4.27186,4.27186,0,0,1-2.87865-.76588,2.44335,2.44335,0,0,1-.87152-1.79586,1.79607,1.79607,0,0,1,.5546-1.47894,1.82359,1.82359,0,0,1,1.162-.449,1.27428,1.27428,0,0,1,.73947.23769.98319.98319,0,0,1,.36973.8187,1.5807,1.5807,0,0,1-.47537,1.162,1.30068,1.30068,0,0,1-.8187.47537.20261.20261,0,0,1-.07923.02641q-.02642,0-.02641.05282a.57085.57085,0,0,0,.21128.21128,3.687,3.687,0,0,0,.8187.34332,5.19428,5.19428,0,0,0,3.08993-.10564,2.26881,2.26881,0,0,0,1.00357-.73947,3.50614,3.50614,0,0,0,.449-.8187,1.992,1.992,0,0,0,.13205-.66024,1.24419,1.24419,0,0,0-.5546-1.10921,2.8074,2.8074,0,0,0-1.26767-.449,6.53613,6.53613,0,0,1-1.55817-.39615,2.44392,2.44392,0,0,1-1.24125-.92434A2.65829,2.65829,0,0,1,535.89479,13.111Z"/>
    <path id="MJMAIN-2C" class="cls-5" d="M546.88122,19.81908v-.66024a1.65154,1.65154,0,0,1,.42255-1.13562,1.44353,1.44353,0,0,1,1.13562-.47537,1.72635,1.72635,0,0,1,1.32048.66024,3.64594,3.64594,0,0,1,.60743,2.324,6.79443,6.79443,0,0,1-.23769,1.79586,8.21162,8.21162,0,0,1-.5546,1.50535,5.72744,5.72744,0,0,1-.68666,1.0828q-.36973.449-.63383.71306t-.34332.23769q-.10564,0-.34333-.23769t-.23769-.34332q0-.10564.29051-.42256t.66024-.79229a5.06839,5.06839,0,0,0,.68665-1.32048,7.5862,7.5862,0,0,0,.42256-1.92791v-.31692l-.02641.02641a1.02305,1.02305,0,0,1-.13205.05282.66684.66684,0,0,0-.15846.07923.43221.43221,0,0,1-.23768.05282,1.92427,1.92427,0,0,0-.31692.02641,1.57233,1.57233,0,0,1-1.162-.449Z"/>
    <path id="MJMATHI-61" class="cls-5" d="M557.4715,16.5971a7.8044,7.8044,0,0,1,2.00714-5.07066,5.91,5.91,0,0,1,4.516-2.42969,2.994,2.994,0,0,1,2.37687,1.29408,1.32145,1.32145,0,0,1,1.21485-.79229.94493.94493,0,0,1,.60742.21127.65036.65036,0,0,1,.2641.5282q0,.34332-.97716,4.22555t-1.00357,4.384a1.41284,1.41284,0,0,0,.18487.87152.7758.7758,0,0,0,.5546.23769,1.14756,1.14756,0,0,0,.5282-.23769,5.98858,5.98858,0,0,0,1.08279-2.53533q.15846-.5282.2641-.5546a.77236.77236,0,0,1,.2641-.02641h.10564q.50178,0,.50178.23769a4.19494,4.19494,0,0,1-.13205.71306,8.28566,8.28566,0,0,1-.52819,1.42612,4.49943,4.49943,0,0,1-.84511,1.32049,2.6115,2.6115,0,0,1-.84511.5546,2.8157,2.8157,0,0,1-.63383.05282,2.69944,2.69944,0,0,1-1.50536-.39615,2.02752,2.02752,0,0,1-.79229-.8187l-.15845-.39614q-.02642-.02641-.10564.02641l-.10564.10564a4.63026,4.63026,0,0,1-3.16916,1.47894,3.60425,3.60425,0,0,1-2.56174-1.05639A4.45023,4.45023,0,0,1,557.4715,16.5971Zm8.39828-4.51605a2.391,2.391,0,0,0-.132-.581,2.511,2.511,0,0,0-.60742-.92434,1.68819,1.68819,0,0,0-1.21485-.52819,2.53439,2.53439,0,0,0-1.76945.8187,5.5261,5.5261,0,0,0-1.32048,2.13918,21.084,21.084,0,0,0-1.0828,4.33119v.29051a1.40747,1.40747,0,0,1-.02641.31691,2.21792,2.21792,0,0,0,.47538,1.6374,1.70086,1.70086,0,0,0,1.13561.47538,2.98219,2.98219,0,0,0,1.98073-.87152,4.441,4.441,0,0,0,1.162-1.34689q.05282-.10565.71306-2.82584T565.86978,12.08105Z"/>
    <path id="MJMAIN-29-2" data-name="MJMAIN-29" class="cls-5" d="M572.15528.96257l.10564-.02641h.581l.73948.63383a13.03306,13.03306,0,0,1,3.61812,5.59886,21.59246,21.59246,0,0,1,1.13562,6.97215,22.04666,22.04666,0,0,1-.2641,3.45967,22.70627,22.70627,0,0,1-.60742,2.82583,11.895,11.895,0,0,1-.97716,2.32406q-.63383,1.162-1.00357,1.76945a8.03415,8.03415,0,0,1-1.08279,1.34689q-.71307.73947-.84511.87152t-.60743.50178l-.10564.10564h-.60742a.1552.1552,0,0,1-.13205-.07923.62184.62184,0,0,1-.07923-.23769q.02642-.0264.29051-.34332,4.0935-4.252,4.0935-12.5446t-4.0935-12.5446q-.26409-.31691-.29051-.34332A.31042.31042,0,0,1,572.15528.96257Z"/>
  </g>
  <text class="cls-10" transform="translate(0.87151 157.10183)">Rec<tspan class="cls-11" x="25.60059" y="0">o</tspan><tspan class="cls-12" x="34.23633" y="0">v</tspan><tspan class="cls-13" x="41.56934" y="0">ering V(s) f</tspan><tspan class="cls-14" x="116.84277" y="0">r</tspan><tspan x="121.77832" y="0">om a Q-function</tspan></text>
</svg>
