<svg id="Layer_1" data-name="Layer 1" xmlns="http://www.w3.org/2000/svg" viewBox="0 0 153.0673 153.76677">
  <defs>
    <style>
      .cls-1 {
        fill: #e7ebe8;
      }

      .cls-2, .cls-7 {
        fill: #cac9cc;
      }

      .cls-3, .cls-5 {
        fill: none;
        stroke-linecap: round;
        stroke-linejoin: round;
        stroke-width: 10px;
      }

      .cls-3 {
        stroke: #bb7566;
      }

      .cls-4 {
        fill: #bb7566;
      }

      .cls-5 {
        stroke: #263b96;
      }

      .cls-6 {
        fill: #263b96;
      }

      .cls-7, .cls-8, .cls-9 {
        opacity: 0.63;
      }

      .cls-8 {
        fill: #8d473c;
      }

      .cls-9 {
        fill: #294ba0;
      }
    </style>
  </defs>
  <title>reweighting-2</title>
  <rect class="cls-1" x="19.26429" y="33.78232" width="100.87591" height="100.87591"/>
  <rect class="cls-1" x="-87.12446" y="-72.58551" width="100.53947" height="100.53947"/>
  <rect class="cls-1" x="19.30082" y="-72.47771" width="100.53947" height="100.53947"/>
  <rect class="cls-1" x="125.30095" y="-72.45667" width="100.53947" height="100.53947"/>
  <rect class="cls-1" x="-87.12446" y="33.86027" width="100.53947" height="100.53947"/>
  <rect class="cls-1" x="125.30095" y="33.98911" width="100.53947" height="100.53947"/>
  <rect class="cls-1" x="-87.12446" y="140.21007" width="100.53947" height="100.53947"/>
  <rect class="cls-1" x="19.30082" y="140.31786" width="100.53947" height="100.53947"/>
  <rect class="cls-1" x="125.30096" y="140.33889" width="100.5395" height="100.53943"/>
  <circle class="cls-2" cx="68.93219" cy="-20.89325" r="31.84452"/>
  <circle class="cls-2" cx="176.63419" cy="-20.89325" r="31.84452"/>
  <circle class="cls-2" cx="176.63419" cy="84.64932" r="31.84452"/>
  <g>
    <path class="cls-3" d="M130.59791,84.12235H102.778a32.17578,32.17578,0,0,0-32.19443,32.19434v32.14685"/>
    <polygon class="cls-4" points="119.925 70.05 125.904 84.122 119.925 98.194 153.283 84.122 119.925 70.05"/>
  </g>
  <g>
    <path class="cls-5" d="M70.73759,23.10453v29.3194A31.84828,31.84828,0,0,1,38.871,84.2905H5.45769"/>
    <polygon class="cls-6" points="56.666 33.777 70.738 27.799 84.809 33.777 70.738 0.42 56.666 33.777"/>
  </g>
  <polygon class="cls-7" points="32.541 84.218 42.986 105.19 42.986 63.247 32.541 84.218"/>
  <polygon class="cls-7" points="69.601 121.642 90.572 111.197 48.629 111.197 69.601 121.642"/>
  <polygon class="cls-8" points="106.863 84.241 96.418 63.27 96.418 105.213 106.863 84.241"/>
  <polygon class="cls-9" points="69.601 47.014 48.629 57.459 90.572 57.459 69.601 47.014"/>
</svg>
