<svg xmlns="http://www.w3.org/2000/svg" viewBox="0 0 293.92624 293.92633">
  <defs>
    <style>
      .cls-1 {
        fill: #263b96;
      }

      .cls-2 {
        fill: #e7ebe8;
      }

      .cls-3 {
        fill: #cac9cc;
      }

      .cls-4 {
        fill: #bb7566;
      }

      .cls-5, .cls-6, .cls-7 {
        fill: none;
        stroke-linecap: round;
        stroke-linejoin: round;
        stroke-width: 10px;
      }

      .cls-5 {
        stroke: #bb7566;
      }

      .cls-6 {
        stroke: #263b96;
      }

      .cls-7 {
        stroke: #9ba2c4;
      }

      .cls-8 {
        fill: #9ba2c4;
      }

      .cls-9 {
        font-size: 24.25341px;
        fill: #d1d3d4;
        font-family: Arial-BoldMT, Arial;
        font-weight: 700;
      }
    </style>
  </defs>
  <title>reweighting-full</title>
  <g id="background">
    <rect class="cls-1" x="182.00345" y="4.47957" width="47.96635" height="47.96635"/>
    <rect class="cls-2" x="0.05169" y="0.34616" width="56.11284" height="56.11284"/>
    <rect class="cls-2" x="59.4495" y="0.40632" width="56.11284" height="56.11284"/>
    <rect class="cls-2" x="118.61002" y="0.41807" width="56.11284" height="56.11284"/>
    <rect class="cls-2" x="0.05169" y="59.75541" width="56.11284" height="56.11284"/>
    <rect class="cls-2" x="59.4495" y="59.81557" width="56.11284" height="56.11284"/>
    <rect class="cls-2" x="118.61002" y="59.82731" width="56.11284" height="56.11284"/>
    <rect class="cls-2" x="177.9302" y="59.85081" width="56.11284" height="56.11284"/>
    <rect class="cls-2" x="0.05169" y="118.9093" width="56.11284" height="56.11284"/>
    <rect class="cls-2" x="59.4495" y="118.96946" width="56.11284" height="56.11284"/>
    <rect class="cls-2" x="118.61002" y="118.98121" width="56.11284" height="56.11284"/>
    <rect class="cls-2" x="177.9302" y="119.0047" width="56.11284" height="56.11284"/>
    <rect class="cls-2" x="0.05169" y="178.31855" width="56.11284" height="56.11284"/>
    <rect class="cls-2" x="59.4495" y="178.37871" width="56.11284" height="56.11284"/>
    <rect class="cls-2" x="118.61002" y="178.39046" width="56.11284" height="56.11284"/>
    <rect class="cls-2" x="177.9302" y="178.41395" width="56.11284" height="56.11284"/>
    <rect class="cls-2" x="0.05169" y="237.67423" width="56.11284" height="56.11284"/>
    <rect class="cls-2" x="59.4495" y="237.73439" width="56.11284" height="56.11284"/>
    <rect class="cls-2" x="118.61003" y="237.74613" width="56.11285" height="56.11281"/>
    <rect class="cls-2" x="177.9302" y="237.76963" width="56.11284" height="56.11284"/>
    <circle class="cls-3" cx="28.10811" cy="28.40258" r="17.77298"/>
    <circle class="cls-3" cx="87.50592" cy="28.48625" r="17.77298"/>
    <circle class="cls-3" cx="205.93014" cy="147.62242" r="17.77298"/>
    <circle class="cls-3" cx="27.75183" cy="206.58113" r="17.77298"/>
    <circle class="cls-3" cx="87.14964" cy="206.37497" r="17.77298"/>
    <circle class="cls-3" cx="205.93014" cy="206.52757" r="17.77298"/>
    <circle class="cls-3" cx="27.75183" cy="266.39172" r="17.77298"/>
    <circle class="cls-3" cx="87.14964" cy="267.64814" r="17.77298"/>
    <circle class="cls-3" cx="205.93014" cy="266.33815" r="17.77298"/>
    <rect class="cls-4" x="238.60313" y="2.47146" width="55.147" height="290.43915"/>
    <circle class="cls-3" cx="27.68222" cy="87.35202" r="17.77298"/>
  </g>
  <g id="right-path">
    <line class="cls-5" x1="147.26" y1="87.94907" x2="244.851" y2="87.94907"/>
  </g>
  <g id="up-path">
    <polyline class="cls-6" points="147.26 87.949 147.26 26.856 186.377 26.856"/>
  </g>
  <g id="downstream">
    <polyline class="cls-7" points="147.111 268.043 147.111 133.574 147.111 84.699"/>
    <path class="cls-7" d="M27.75183,148.02255H69.62388a17.69918,17.69918,0,0,0,17.70937-17.70937l-.04514-24.72539a17.69919,17.69919,0,0,1,17.70937-17.70937l24.48954.07065h17.59692"/>
    <circle class="cls-8" cx="27.75183" cy="147.67598" r="17.77298"/>
    <circle class="cls-8" cx="87.14964" cy="147.75966" r="17.77298"/>
    <circle class="cls-8" cx="147.26" cy="147.75966" r="17.77298"/>
    <circle class="cls-8" cx="147.26" cy="206.6648" r="17.77298"/>
    <circle class="cls-8" cx="147.26001" cy="266.47539" r="17.77299"/>
    <circle class="cls-8" cx="147.26" cy="87.94907" r="17.77298"/>
    <circle class="cls-8" cx="87.14964" cy="87.94907" r="17.77298"/>
  </g>
  <g id="foreground">
    <circle class="cls-4" cx="205.93014" cy="87.81183" r="17.77298"/>
    <circle class="cls-1" cx="147.61628" cy="28.48625" r="17.77298"/>
    <text class="cls-9" transform="translate(188.17039 33.69667)">+2</text>
    <text class="cls-9" transform="translate(248.31443 96.99745)">-1</text>
  </g>
</svg>
