<svg xmlns="http://www.w3.org/2000/svg" viewBox="0 0 1196.70082 300.74613">
  <defs>
    <style>
      .cls-1 {
        fill: #263b96;
      }

      .cls-2 {
        fill: #e7ebe8;
      }

      .cls-3 {
        fill: #cac9cc;
      }

      .cls-4 {
        fill: #bb7566;
      }

      .cls-5 {
        font-size: 24.25341px;
        fill: #d1d3d4;
        font-family: MyriadPro-Semibold, Myriad Pro;
        font-weight: 700;
      }

      .cls-6 {
        fill: #6d6e71;
      }

      .cls-7 {
        fill: #010101;
      }

      .cls-10, .cls-11, .cls-12, .cls-13, .cls-14, .cls-8, .cls-9 {
        fill: none;
        stroke-linecap: round;
        stroke-linejoin: round;
      }

      .cls-8, .cls-9 {
        stroke: #9ba2c4;
      }

      .cls-10, .cls-12, .cls-8 {
        stroke-width: 7px;
      }

      .cls-11, .cls-13, .cls-9 {
        stroke-width: 12px;
      }

      .cls-10, .cls-11 {
        stroke: #bb7566;
      }

      .cls-12, .cls-13 {
        stroke: #263b96;
      }

      .cls-14 {
        stroke: #fbb040;
        stroke-width: 4px;
      }
    </style>
  </defs>
  <title>reweighting-full</title>
  <g id="background">
    <rect class="cls-1" x="182.22406" y="8.58848" width="47.96635" height="47.96635"/>
    <rect class="cls-2" x="0.27231" y="4.45507" width="56.11284" height="56.11284"/>
    <rect class="cls-2" x="59.67011" y="4.51524" width="56.11284" height="56.11284"/>
    <rect class="cls-2" x="118.83064" y="4.52698" width="56.11284" height="56.11284"/>
    <rect class="cls-2" x="0.27231" y="63.86432" width="56.11284" height="56.11284"/>
    <rect class="cls-2" x="59.67011" y="63.92448" width="56.11284" height="56.11284"/>
    <rect class="cls-2" x="118.83064" y="63.93623" width="56.11284" height="56.11284"/>
    <rect class="cls-2" x="178.15082" y="63.95972" width="56.11284" height="56.11284"/>
    <rect class="cls-2" x="0.27231" y="123.01822" width="56.11284" height="56.11284"/>
    <rect class="cls-2" x="59.67011" y="123.07838" width="56.11284" height="56.11284"/>
    <rect class="cls-2" x="118.83064" y="123.09012" width="56.11284" height="56.11284"/>
    <rect class="cls-2" x="178.15082" y="123.11362" width="56.11284" height="56.11284"/>
    <rect class="cls-2" x="0.27231" y="182.42746" width="56.11284" height="56.11284"/>
    <rect class="cls-2" x="59.67011" y="182.48763" width="56.11284" height="56.11284"/>
    <rect class="cls-2" x="118.83064" y="182.49937" width="56.11284" height="56.11284"/>
    <rect class="cls-2" x="178.15082" y="182.52287" width="56.11284" height="56.11284"/>
    <rect class="cls-2" x="0.27231" y="241.78314" width="56.11284" height="56.11284"/>
    <rect class="cls-2" x="59.67011" y="241.8433" width="56.11284" height="56.11284"/>
    <rect class="cls-2" x="118.83064" y="241.85504" width="56.11285" height="56.11281"/>
    <rect class="cls-2" x="178.15082" y="241.87854" width="56.11284" height="56.11284"/>
    <circle class="cls-3" cx="28.32873" cy="32.51149" r="17.77298"/>
    <circle class="cls-3" cx="87.72653" cy="32.59517" r="17.77298"/>
    <circle class="cls-3" cx="206.15075" cy="151.73133" r="17.77298"/>
    <circle class="cls-3" cx="27.97244" cy="210.69004" r="17.77298"/>
    <circle class="cls-3" cx="87.37025" cy="210.48388" r="17.77298"/>
    <circle class="cls-3" cx="206.15075" cy="210.63648" r="17.77298"/>
    <circle class="cls-3" cx="27.97244" cy="270.50063" r="17.77298"/>
    <circle class="cls-3" cx="87.37025" cy="271.75706" r="17.77298"/>
    <circle class="cls-3" cx="206.15075" cy="270.44707" r="17.77298"/>
    <rect class="cls-4" x="238.82374" y="6.58037" width="55.147" height="290.43915"/>
    <text class="cls-5" transform="translate(248.99794 101.10636)">-1</text>
    <circle class="cls-3" cx="27.90284" cy="91.46093" r="17.77298"/>
    <rect class="cls-2" x="405.1621" y="114.66201" width="125.16666" height="125.16666"/>
    <rect class="cls-2" x="708.45513" y="110.0178" width="123.8606" height="123.8606"/>
    <polygon class="cls-3" points="724.757 171.946 737.582 197.695 737.582 146.196 724.757 171.946"/>
    <polygon class="cls-3" points="770.261 217.897 796.01 205.072 744.511 205.072 770.261 217.897"/>
    <rect class="cls-2" x="1009.34561" y="110.0178" width="123.8606" height="123.8606"/>
    <polygon class="cls-3" points="1025.648 171.946 1038.473 197.695 1038.473 146.196 1025.648 171.946"/>
    <polygon class="cls-3" points="1071.151 217.897 1096.901 205.072 1045.402 205.072 1071.151 217.897"/>
    <polygon class="cls-6" points="1116.904 171.974 1104.079 146.224 1104.079 197.724 1116.904 171.974"/>
    <polygon class="cls-6" points="1071.151 126.265 1045.402 139.09 1096.901 139.09 1071.151 126.265"/>
    <g>
      <path id="MJMATHI-3C0" class="cls-7" d="M1004.86905,30.2902a1.01886,1.01886,0,0,1-1.1696-1.1352v-.3784l.4472-.9632a66.65876,66.65876,0,0,0,3.74959-9.39118l.2752-.8256h-1.1008a11.46871,11.46871,0,0,0-1.85759.1032,3.72159,3.72159,0,0,0-1.3416.6536,4.49326,4.49326,0,0,0-.7568.6192,8.86528,8.86528,0,0,0-.6536.7224,4.23584,4.23584,0,0,0-.3096.4128,1.96159,1.96159,0,0,1-.516.0344q-.65359,0-.6536-.344a4.15339,4.15339,0,0,1,.6536-1.204,11.69755,11.69755,0,0,1,1.892-2.1328,4.67672,4.67672,0,0,1,2.44239-1.30719q.24081-.06881,7.74-.0688,5.504,0,5.64159.0344a.93916.93916,0,0,1,.688.96319,1.43671,1.43671,0,0,1-1.1008,1.4448,18.65553,18.65553,0,0,1-2.37359.0688h-2.2016l-.1032.5848a25.82,25.82,0,0,0-.4128,4.09359,14.98872,14.98872,0,0,0,.3096,3.1992,12.42959,12.42959,0,0,0,.6536,2.2016,4.01153,4.01153,0,0,1,.344.96319,1.59419,1.59419,0,0,1-.4816,1.1008,1.61806,1.61806,0,0,1-1.2384.516,1.58533,1.58533,0,0,1-.6192-.1032q-.2408-.1032-.5504-.8256a9.93709,9.93709,0,0,1-.55039-2.064q-.03441-.3096-.0344-1.5136a22.8307,22.8307,0,0,1,.30959-3.612q.3096-1.92639.6192-3.16479l.344-1.376h-3.37119l-.0344.1376q0,.1032-.6536,2.7176t-1.4792,5.53839a25.634,25.634,0,0,1-1.0664,3.33679A1.44642,1.44642,0,0,1,1004.86905,30.2902Z"/>
      <path id="MJMAIN-28" class="cls-7" d="M1023.273,21.31182a28.29359,28.29359,0,0,1,.344-4.5064,31.52785,31.52785,0,0,1,.79119-3.68079,14.40509,14.40509,0,0,1,1.2728-3.0272q.8256-1.47919,1.3072-2.30479a9.13694,9.13694,0,0,1,1.4448-1.7888q.9632-.96319,1.1352-1.1696a6.199,6.199,0,0,1,.86-.7224h.58479q.48161,0,.4816.3096a2.77951,2.77951,0,0,1-.5848.7224,15.61818,15.61818,0,0,0-1.41039,1.8232,23.7992,23.7992,0,0,0-1.6856,2.95839,19.5707,19.5707,0,0,0-1.4448,4.7472,34.72008,34.72008,0,0,0-.5848,6.63919,34.18012,34.18012,0,0,0,.5848,6.60478,22.34139,22.34139,0,0,0,1.4104,4.7816,15.5792,15.5792,0,0,0,1.6856,2.95839q.86,1.1352,1.44479,1.8232a7.76935,7.76935,0,0,1,.5848.7224q0,.3096-.516.3096h-.55039l-.9632-.8256a16.97617,16.97617,0,0,1-4.7128-7.29279A28.12545,28.12545,0,0,1,1023.273,21.31182Z"/>
      <g>
        <path id="MJMATHI-73" class="cls-7" d="M1037.96179,19.97022a5.0979,5.0979,0,0,1,.5504-2.236,5.65952,5.65952,0,0,1,1.9264-2.0984,5.49631,5.49631,0,0,1,3.33679-.92879,4.34619,4.34619,0,0,1,3.096.92879,2.94731,2.94731,0,0,1,.9976,2.064,2.04867,2.04867,0,0,1-.5848,1.6168,2.08416,2.08416,0,0,1-1.3072.5504,1.37407,1.37407,0,0,1-.8256-.2752,1.113,1.113,0,0,1-.4128-.8944,1.561,1.561,0,0,1,.3096-.9632,3.0902,3.0902,0,0,1,.5848-.6192.83249.83249,0,0,1,.4472-.2064.0304.0304,0,0,0,.0344-.0344q0-.1032-.2408-.3096a2.34973,2.34973,0,0,0-.86-.3784,6.08749,6.08749,0,0,0-1.3416-.2064,2.90965,2.90965,0,0,0-3.19919,2.7176,1.2436,1.2436,0,0,0,.6536,1.204,7.13465,7.13465,0,0,0,1.892.5848,7.538,7.538,0,0,1,1.7888.516,3.39973,3.39973,0,0,1,2.2704,3.30239,5.23467,5.23467,0,0,1-.3784,1.9264,7.695,7.695,0,0,1-1.1352,1.92639,4.97627,4.97627,0,0,1-2.1672,1.5136,9.34078,9.34078,0,0,1-3.23359.5848,5.56426,5.56426,0,0,1-3.74959-.9976,3.18258,3.18258,0,0,1-1.1352-2.33919,2.33951,2.33951,0,0,1,.7224-1.9264,2.37526,2.37526,0,0,1,1.51359-.5848,1.65979,1.65979,0,0,1,.9632.3096,1.28064,1.28064,0,0,1,.4816,1.0664,2.05891,2.05891,0,0,1-.6192,1.5136,1.69416,1.69416,0,0,1-1.0664.61919.26384.26384,0,0,1-.1032.0344q-.03439,0-.0344.0688a.74352.74352,0,0,0,.2752.2752,4.80236,4.80236,0,0,0,1.0664.4472,6.76591,6.76591,0,0,0,4.0248-.1376,2.95524,2.95524,0,0,0,1.30719-.96319,4.56666,4.56666,0,0,0,.5848-1.0664,2.59463,2.59463,0,0,0,.172-.86,1.62061,1.62061,0,0,0-.7224-1.4448,3.65668,3.65668,0,0,0-1.65119-.5848,8.51355,8.51355,0,0,1-2.0296-.516,3.18344,3.18344,0,0,1-1.6168-1.204A3.4626,3.4626,0,0,1,1037.96179,19.97022Z"/>
        <g>
          <path id="MJMATHI-74" class="cls-7" d="M1050.22131,25.7083q-.17024-.17025-.17024-.24321a2.045,2.045,0,0,1,.073-.38913.99961.99961,0,0,1,.1216-.34049.2089.2089,0,0,1,.21889-.1216q.17025,0,1.24036-.02433h1.289l.4621-1.94566q.073-.26752.17024-.7053a5.21651,5.21651,0,0,1,.17025-.63234,4.5779,4.5779,0,0,0,.14592-.48641.89222.89222,0,0,1,.19457-.41346,2.314,2.314,0,0,0,.2432-.29185.54809.54809,0,0,1,.3405-.21888,2.0123,2.0123,0,0,1,.43777-.04864.7457.7457,0,0,1,.608.26752.81493.81493,0,0,1,.17024.4621,9.244,9.244,0,0,1-.21888,1.14308q-.2189.97283-.48642,1.92134l-.24321.89986a5.7461,5.7461,0,0,0,1.216.04864h1.24036q.17025.17025.17025.26753a1.15027,1.15027,0,0,1-.31617.85123h-2.60233l-.87554,3.52651q-.94851,3.89133-.94851,4.18317,0,1.02147.65666,1.02147a2.32436,2.32436,0,0,0,1.65381-.8269,6.19441,6.19441,0,0,0,1.289-2.04295q.04865-.14592.1216-.17024a2.14125,2.14125,0,0,1,.36482-.04864h.09728q.36481,0,.36481.19456a1.194,1.194,0,0,1-.073.29185,4.57575,4.57575,0,0,1-.43778.92419,8.64486,8.64486,0,0,1-.8269,1.14308,4.49726,4.49726,0,0,1-1.24036,1.02147,2.97809,2.97809,0,0,1-1.48357.41345,2.81284,2.81284,0,0,1-1.38628-.36481,2.10717,2.10717,0,0,1-.94851-1.26468,3.05762,3.05762,0,0,1-.04864-.65666V32.6154l.85122-3.40491q.85124-3.42922.87555-3.45355a5.97633,5.97633,0,0,0-1.24036-.04864Z"/>
          <path id="MJMAIN-2B" class="cls-7" d="M1059.73073,29.30777V28.9916a.52977.52977,0,0,1,.34049-.48641h7.27191V24.85707l.02432-3.64811q.24321-.31617.4621-.31617a.53179.53179,0,0,1,.48641.36481v7.24759h7.24759a.50668.50668,0,0,1,0,.97283H1068.316V36.7256q-.19456.3405-.43777.3405h-.09729a.47146.47146,0,0,1-.43777-.3405V29.478h-7.27191a.52979.52979,0,0,1-.34049-.48642Z"/>
          <path id="MJMAIN-31" class="cls-7" d="M1082.495,21.01439l-.31617.12161a6.9692,6.9692,0,0,1-.97283.2432,11.21106,11.21106,0,0,1-1.4106.17025h-.46209V20.43069h.46209a7.90887,7.90887,0,0,0,2.11591-.36481,5.74322,5.74322,0,0,0,1.362-.5837,6.23526,6.23526,0,0,0,.681-.535q.04865-.073.29185-.073a.6774.6774,0,0,1,.41345.14592V26.292l.02432,7.29623a.96309.96309,0,0,0,.29185.21888,2.884,2.884,0,0,0,.5837.09729q.46209.04863,1.50789.04864h.63234v1.11875h-.26753q-.51074-.073-3.867-.073-3.30762,0-3.81836.073h-.29185V33.953h1.55653a5.84225,5.84225,0,0,0,.608-.02432,2.38309,2.38309,0,0,0,.38913-.073,1.45771,1.45771,0,0,1,.19457-.04865q.02431,0,.14592-.1216t.14592-.09728Z"/>
        </g>
      </g>
      <path id="MJMAIN-2C" class="cls-7" d="M1095.6161,28.7078v-.86a2.15118,2.15118,0,0,1,.5504-1.47919,1.88022,1.88022,0,0,1,1.4792-.6192,2.24863,2.24863,0,0,1,1.72.86,4.749,4.749,0,0,1,.7912,3.02719,8.85022,8.85022,0,0,1-.3096,2.3392,10.69487,10.69487,0,0,1-.7224,1.96079,7.45985,7.45985,0,0,1-.89439,1.4104q-.4816.58481-.8256.9288t-.4472.3096q-.13759,0-.4472-.3096t-.3096-.4472q0-.13759.3784-.5504t.86-1.032a6.602,6.602,0,0,0,.8944-1.72,9.88149,9.88149,0,0,0,.5504-2.5112v-.4128l-.0344.0344a1.33345,1.33345,0,0,1-.172.0688.86838.86838,0,0,0-.2064.1032.56292.56292,0,0,1-.3096.0688,2.50726,2.50726,0,0,0-.4128.0344,2.048,2.048,0,0,1-1.5136-.5848Z"/>
      <path id="MJMATHI-61" class="cls-7" d="M1109.37608,24.511a10.1656,10.1656,0,0,1,2.61439-6.60479,7.698,7.698,0,0,1,5.88239-3.16479,3.89986,3.89986,0,0,1,3.096,1.68559,1.72127,1.72127,0,0,1,1.5824-1.032,1.23088,1.23088,0,0,1,.7912.2752.84714.84714,0,0,1,.344.688q0,.44721-1.2728,5.504t-1.3072,5.7104a1.84033,1.84033,0,0,0,.2408,1.13519,1.01048,1.01048,0,0,0,.7224.3096,1.49462,1.49462,0,0,0,.688-.3096,7.80016,7.80016,0,0,0,1.41039-3.30239q.2064-.688.344-.7224a1.00632,1.00632,0,0,1,.344-.0344h.1376q.65361,0,.6536.3096a5.4633,5.4633,0,0,1-.172.9288,10.79109,10.79109,0,0,1-.688,1.85759,5.8606,5.8606,0,0,1-1.10079,1.72,3.40167,3.40167,0,0,1-1.1008.7224,3.66725,3.66725,0,0,1-.8256.0688,3.51617,3.51617,0,0,1-1.9608-.516,2.641,2.641,0,0,1-1.032-1.0664l-.2064-.516q-.0344-.03439-.1376.0344l-.1376.1376a6.03111,6.03111,0,0,1-4.128,1.9264,4.69473,4.69473,0,0,1-3.33679-1.376A5.79662,5.79662,0,0,1,1109.37608,24.511Zm10.93918-5.88239a3.11392,3.11392,0,0,0-.172-.7568,3.27061,3.27061,0,0,0-.7912-1.204,2.19893,2.19893,0,0,0-1.58239-.688,3.30114,3.30114,0,0,0-2.3048,1.0664,7.1978,7.1978,0,0,0-1.72,2.7864,27.46341,27.46341,0,0,0-1.4104,5.64159v.3784a1.83339,1.83339,0,0,1-.0344.4128,2.889,2.889,0,0,0,.6192,2.13279,2.21544,2.21544,0,0,0,1.4792.6192,3.88444,3.88444,0,0,0,2.58-1.1352,5.78423,5.78423,0,0,0,1.51359-1.75439q.0688-.13761.9288-3.6808T1120.31526,18.62862Z"/>
      <path id="MJMAIN-29" class="cls-7" d="M1128.53685,4.14624l.1376-.0344h.7568l.96319.8256a16.97608,16.97608,0,0,1,4.7128,7.29279,28.12547,28.12547,0,0,1,1.47919,9.08159,28.71809,28.71809,0,0,1-.344,4.50639,29.57809,29.57809,0,0,1-.7912,3.68079,15.49406,15.49406,0,0,1-1.2728,3.0272q-.8256,1.51359-1.3072,2.30479a10.46426,10.46426,0,0,1-1.4104,1.7544q-.9288.9632-1.1008,1.1352t-.79119.6536l-.1376.1376h-.7912a.20214.20214,0,0,1-.172-.1032.8097.8097,0,0,1-.1032-.3096q.0344-.03441.3784-.4472,5.332-5.53839,5.332-16.34t-5.332-16.34q-.344-.4128-.3784-.4472A.40432.40432,0,0,1,1128.53685,4.14624Z"/>
    </g>
    <g>
      <path id="MJMATHI-3C0-2" data-name="MJMATHI-3C0" class="cls-7" d="M687.14675,31.10813a.96308.96308,0,0,1-1.10556-1.073V29.6774l.42271-.91047a63.0086,63.0086,0,0,0,3.54432-8.877l.26013-.7804h-1.04053a10.84007,10.84007,0,0,0-1.7559.09755,3.51791,3.51791,0,0,0-1.26815.61781,4.24809,4.24809,0,0,0-.71536.5853,8.37809,8.37809,0,0,0-.61782.68285,4.0065,4.0065,0,0,0-.29265.3902,1.85385,1.85385,0,0,1-.48775.03252q-.61782,0-.61781-.32517a3.92559,3.92559,0,0,1,.61781-1.13808,11.0571,11.0571,0,0,1,1.78842-2.016,4.42065,4.42065,0,0,1,2.30868-1.23563q.22761-.065,7.31624-.065,5.20266,0,5.33272.03252a.88775.88775,0,0,1,.65033.91047,1.358,1.358,0,0,1-1.04053,1.36569,17.63311,17.63311,0,0,1-2.24364.065h-2.08107l-.09755.55278a24.4068,24.4068,0,0,0-.3902,3.86948,14.168,14.168,0,0,0,.29265,3.024,11.7484,11.7484,0,0,0,.61782,2.08107,3.792,3.792,0,0,1,.32516.91046,1.50693,1.50693,0,0,1-.45523,1.04054,1.52949,1.52949,0,0,1-1.1706.48774,1.4984,1.4984,0,0,1-.5853-.09755q-.22761-.09755-.52026-.78039a9.39361,9.39361,0,0,1-.52027-1.951q-.03252-.29265-.03251-1.43073a21.57964,21.57964,0,0,1,.29264-3.41425q.29265-1.82092.5853-2.99153l.32517-1.30066h-3.18663l-.03252.13006q0,.09756-.61781,2.56882T689.553,27.04355a24.23268,24.23268,0,0,1-1.008,3.15412A1.36725,1.36725,0,0,1,687.14675,31.10813Z"/>
      <g>
        <path id="MJMATHI-6F" class="cls-7" d="M706.13994,17.60648a3.63774,3.63774,0,0,1-2.7817-1.12647,3.8223,3.8223,0,0,1-1.0575-2.71273,6.0698,6.0698,0,0,1,.68967-2.82768,7.40777,7.40777,0,0,1,1.88512-2.32192,5.66044,5.66044,0,0,1,3.56334-1.40234q.73565,0,.91957.023.29886.069.59772.16092a4.72058,4.72058,0,0,1,.80462.36783,2.62045,2.62045,0,0,1,.82761.68968,4.48193,4.48193,0,0,1,.59772,1.12647,4.42968,4.42968,0,0,1,.27588,1.60925,6.13445,6.13445,0,0,1-1.97708,4.43693A6.04161,6.04161,0,0,1,706.13994,17.60648Zm-1.83914-3.01159a1.91018,1.91018,0,0,0,1.95409,2.161,2.96025,2.96025,0,0,0,1.90811-.73566,5.12835,5.12835,0,0,0,1.42533-1.93109,14.00458,14.00458,0,0,0,.52875-1.70121,8.45478,8.45478,0,0,0,.32185-2.115,2.45958,2.45958,0,0,0-.41381-1.54028,1.7886,1.7886,0,0,0-1.47131-.68968,3.24928,3.24928,0,0,0-2.5518,1.33338,6.559,6.559,0,0,0-1.26441,2.68974A13.11621,13.11621,0,0,0,704.3008,14.59489Z"/>
        <path id="MJMATHI-66" class="cls-7" d="M715.38162,21.07786a.35282.35282,0,0,1,.13794.046.84551.84551,0,0,0,.25288.069,1.99388,1.99388,0,0,0,.27587.023.723.723,0,0,0,.55174-.29886,1.9005,1.9005,0,0,0,.36783-.66668,32.52708,32.52708,0,0,0,.78163-3.51736q.55175-2.89665,1.05751-5.51742t.50576-2.64377v-.069h-1.08049a6.204,6.204,0,0,1-1.14946-.046.26893.26893,0,0,1-.092-.22989l.16092-.6437a.179.179,0,0,1,.18392-.115q.13792,0,1.08049-.023a9.95184,9.95184,0,0,0,1.10349-.023q0-.046.2069-1.14946t.27587-1.33338q.8506-3.79323,3.35643-3.79322a2.32126,2.32126,0,0,1,1.40235.50576,1.50705,1.50705,0,0,1,.55174,1.21843,1.40749,1.40749,0,0,1-.48278,1.19544,1.731,1.731,0,0,1-.96554.39082q-1.01154,0-1.01153-.96555a1.19161,1.19161,0,0,1,.25288-.75865,1.79009,1.79009,0,0,1,.55174-.48277l.20691-.11495a1.97019,1.97019,0,0,0-.68968-.13793.78043.78043,0,0,0-.52876.22989,1.1906,1.1906,0,0,0-.34483.6437q-.16093.66669-.36783,1.79316t-.36783,1.90811q-.16092.78163-.16092.82761a6.56212,6.56212,0,0,0,1.2644.046q1.03452,0,1.19545.023a.3787.3787,0,0,1,.25288.13794,1.07581,1.07581,0,0,1-.046.39081,1.46231,1.46231,0,0,1-.115.36783.19747.19747,0,0,1-.2069.11495q-.16092,0-1.24142.023h-1.2874l-.52875,2.80469q-1.10349,5.70134-1.54028,7.12666a6.782,6.782,0,0,1-1.60925,2.89665,2.59171,2.59171,0,0,1-1.67821.73566,2.20631,2.20631,0,0,1-1.33338-.4368,1.4461,1.4461,0,0,1-.59772-1.24142,1.50408,1.50408,0,0,1,.48277-1.24142,1.53588,1.53588,0,0,1,.96555-.39082q1.01153,0,1.01153.96555a1.19166,1.19166,0,0,1-.25288.75865,1.79012,1.79012,0,0,1-.55175.48277Z"/>
        <path id="MJMATHI-66-2" data-name="MJMATHI-66" class="cls-7" d="M728.0487,21.07786a.35274.35274,0,0,1,.13793.046.84567.84567,0,0,0,.25289.069,1.99388,1.99388,0,0,0,.27587.023.723.723,0,0,0,.55174-.29886,1.9005,1.9005,0,0,0,.36783-.66668,32.52971,32.52971,0,0,0,.78163-3.51736q.55174-2.89665,1.05751-5.51742t.50576-2.64377v-.069h-1.08049a6.20419,6.20419,0,0,1-1.14947-.046.269.269,0,0,1-.09195-.22989l.16092-.6437a.17894.17894,0,0,1,.18392-.115q.13792,0,1.08049-.023a9.95155,9.95155,0,0,0,1.10348-.023q0-.046.20691-1.14946t.27587-1.33338q.85061-3.79323,3.35643-3.79322a2.3212,2.3212,0,0,1,1.40234.50576,1.507,1.507,0,0,1,.55175,1.21843,1.40749,1.40749,0,0,1-.48278,1.19544,1.731,1.731,0,0,1-.96555.39082q-1.01153,0-1.01152-.96555a1.19161,1.19161,0,0,1,.25288-.75865,1.79009,1.79009,0,0,1,.55174-.48277l.2069-.11495a1.9701,1.9701,0,0,0-.68967-.13793.78043.78043,0,0,0-.52876.22989,1.19067,1.19067,0,0,0-.34484.6437q-.16092.66669-.36782,1.79316t-.36783,1.90811q-.16092.78163-.16093.82761a6.5622,6.5622,0,0,0,1.26441.046q1.03452,0,1.19544.023a.3787.3787,0,0,1,.25289.13794,1.07581,1.07581,0,0,1-.046.39081,1.46231,1.46231,0,0,1-.115.36783.19747.19747,0,0,1-.2069.11495q-.16094,0-1.24142.023H733.888l-.52875,2.80469q-1.10349,5.70134-1.54028,7.12666a6.78212,6.78212,0,0,1-1.60925,2.89665,2.59171,2.59171,0,0,1-1.67822.73566,2.2063,2.2063,0,0,1-1.33337-.4368,1.4461,1.4461,0,0,1-.59772-1.24142,1.50408,1.50408,0,0,1,.48277-1.24142,1.53588,1.53588,0,0,1,.96555-.39082q1.01152,0,1.01153.96555a1.19162,1.19162,0,0,1-.25289.75865,1.79,1.79,0,0,1-.55174.48277Z"/>
      </g>
      <path id="MJMAIN-28-2" data-name="MJMAIN-28" class="cls-7" d="M744.311,22.62129a26.7463,26.7463,0,0,1,.32516-4.25968,29.80147,29.80147,0,0,1,.74789-3.47927,13.61638,13.61638,0,0,1,1.20311-2.86147q.7804-1.39821,1.23563-2.17861a8.63618,8.63618,0,0,1,1.3657-1.69086q.91047-.91047,1.073-1.10557a5.86015,5.86015,0,0,1,.81292-.68285h.55278q.45524,0,.45523.29265a2.62748,2.62748,0,0,1-.55278.68285,14.76225,14.76225,0,0,0-1.33318,1.72338,22.49712,22.49712,0,0,0-1.59332,2.79643,18.49955,18.49955,0,0,0-1.3657,4.48729,32.819,32.819,0,0,0-.55278,6.27571,32.30853,32.30853,0,0,0,.55278,6.24319,21.11815,21.11815,0,0,0,1.33319,4.51981,14.72592,14.72592,0,0,0,1.59331,2.79643q.81291,1.07306,1.3657,1.72339a7.34643,7.34643,0,0,1,.55278.68284q0,.29265-.48775.29265h-.52026l-.91047-.78039a16.04673,16.04673,0,0,1-4.45478-6.89353A26.5857,26.5857,0,0,1,744.311,22.62129Z"/>
      <g>
        <path id="MJMATHI-73-2" data-name="MJMATHI-73" class="cls-7" d="M758.16306,21.35314a4.81884,4.81884,0,0,1,.52026-2.11358,5.34968,5.34968,0,0,1,1.82094-1.98351,5.1954,5.1954,0,0,1,3.15411-.87795,4.10817,4.10817,0,0,1,2.92649.87795,2.78592,2.78592,0,0,1,.943,1.951,1.93646,1.93646,0,0,1-.55279,1.52828,1.97,1.97,0,0,1-1.23563.52026,1.29881,1.29881,0,0,1-.7804-.26013,1.052,1.052,0,0,1-.3902-.84543,1.47557,1.47557,0,0,1,.29265-.91047,2.92108,2.92108,0,0,1,.55279-.5853.78694.78694,0,0,1,.42271-.1951.02874.02874,0,0,0,.03252-.03251q0-.09756-.22762-.29265a2.22078,2.22078,0,0,0-.81291-.35768,5.753,5.753,0,0,0-1.26815-.1951,2.75034,2.75034,0,0,0-3.024,2.56881,1.1755,1.1755,0,0,0,.61782,1.13808,6.74343,6.74343,0,0,0,1.78841.55278,7.12614,7.12614,0,0,1,1.69087.48775,3.21362,3.21362,0,0,1,2.14609,3.1216,4.948,4.948,0,0,1-.35768,1.82093,7.27342,7.27342,0,0,1-1.073,1.82093,4.70389,4.70389,0,0,1-2.04854,1.43073,8.82917,8.82917,0,0,1-3.05657.55278,5.25965,5.25965,0,0,1-3.54431-.943,3.00837,3.00837,0,0,1-1.073-2.21113,2.21142,2.21142,0,0,1,.68285-1.82093,2.24524,2.24524,0,0,1,1.43073-.55278,1.56893,1.56893,0,0,1,.91047.29265,1.21055,1.21055,0,0,1,.45523,1.008,1.94618,1.94618,0,0,1-.5853,1.43074,1.60142,1.60142,0,0,1-1.008.58529.24961.24961,0,0,1-.09755.03252q-.03252,0-.03252.065a.70278.70278,0,0,0,.26013.26014,4.53979,4.53979,0,0,0,1.008.42271,6.39545,6.39545,0,0,0,3.80444-.13006,2.79343,2.79343,0,0,0,1.23563-.91047,4.31664,4.31664,0,0,0,.55279-1.008,2.45258,2.45258,0,0,0,.16258-.81292,1.53189,1.53189,0,0,0-.68285-1.3657,3.45649,3.45649,0,0,0-1.5608-.55278,8.04752,8.04752,0,0,1-1.91848-.48775,3.0092,3.0092,0,0,1-1.52828-1.13808A3.27305,3.27305,0,0,1,758.16306,21.35314Z"/>
        <g>
          <path id="MJMATHI-74-2" data-name="MJMATHI-74" class="cls-7" d="M769.7514,26.77708q-.16092-.16092-.16093-.22989a1.93272,1.93272,0,0,1,.069-.36783.94472.94472,0,0,1,.115-.32185.19747.19747,0,0,1,.2069-.115q.16092,0,1.17245-.023h1.21843l.4368-1.83914q.069-.25287.16092-.66668a4.93219,4.93219,0,0,1,.16093-.59773,4.3242,4.3242,0,0,0,.13793-.45978.84344.84344,0,0,1,.18392-.39082,2.18908,2.18908,0,0,0,.22989-.27587.518.518,0,0,1,.32185-.2069,1.90254,1.90254,0,0,1,.41381-.046.70489.70489,0,0,1,.57473.25288.77028.77028,0,0,1,.16092.4368,8.73865,8.73865,0,0,1-.2069,1.08049q-.20691.91958-.45979,1.81615l-.22989.85061a5.43231,5.43231,0,0,0,1.14946.046h1.17246q.16092.16093.16092.25289a1.0873,1.0873,0,0,1-.29886.80462h-2.45985l-.82761,3.33344q-.89658,3.67829-.89658,3.95415,0,.96555.62071.96555a2.19712,2.19712,0,0,0,1.56327-.78163,5.85551,5.85551,0,0,0,1.21843-1.9311q.046-.13794.11494-.16093a2.02524,2.02524,0,0,1,.34484-.046h.092q.34484,0,.34484.18391a1.12856,1.12856,0,0,1-.069.27587,4.325,4.325,0,0,1-.41381.87359,8.17166,8.17166,0,0,1-.78163,1.0805,4.251,4.251,0,0,1-1.17245.96555,2.81505,2.81505,0,0,1-1.40235.39081,2.65883,2.65883,0,0,1-1.31039-.34484,1.9918,1.9918,0,0,1-.89658-1.19544,2.89062,2.89062,0,0,1-.046-.62071V33.306l.80462-3.2185q.80462-3.24149.82761-3.26447a5.6494,5.6494,0,0,0-1.17245-.046Z"/>
          <path id="MJMAIN-2B-2" data-name="MJMAIN-2B" class="cls-7" d="M778.7402,30.17949v-.29886a.50078.50078,0,0,1,.32185-.45979h6.87378V25.97246l.023-3.44839q.22989-.29886.4368-.29886a.50266.50266,0,0,1,.45978.34484v6.85079h6.8508a.47894.47894,0,0,1,0,.91957h-6.8508v6.8508q-.18391.32185-.4138.32185h-.092a.44565.44565,0,0,1-.41381-.32185v-6.8508h-6.87378a.50076.50076,0,0,1-.32185-.45978Z"/>
          <path id="MJMAIN-31-2" data-name="MJMAIN-31" class="cls-7" d="M800.25814,22.34015l-.29886.115a6.58918,6.58918,0,0,1-.91957.22989,10.59672,10.59672,0,0,1-1.33338.16093h-.4368V21.78841h.4368a7.47606,7.47606,0,0,0,2.00007-.34484,5.42907,5.42907,0,0,0,1.28739-.55174,5.89415,5.89415,0,0,0,.6437-.50576q.046-.069.27587-.069a.64033.64033,0,0,1,.39082.13793v6.87379l.023,6.89678a.91035.91035,0,0,0,.27587.2069,2.72623,2.72623,0,0,0,.55174.092q.4368.046,1.42534.046h.59772v1.0575H804.925q-.48278-.069-3.6553-.069-3.12653,0-3.60931.069h-.27587v-1.0575h1.47131a5.52282,5.52282,0,0,0,.57473-.023,2.2516,2.2516,0,0,0,.36783-.069,1.37832,1.37832,0,0,1,.18392-.046q.023,0,.13793-.115t.13794-.09195Z"/>
        </g>
      </g>
      <path id="MJMAIN-2C-2" data-name="MJMAIN-2C" class="cls-7" d="M812.69344,29.61237v-.81292a2.03342,2.03342,0,0,1,.52026-1.39821,1.7773,1.7773,0,0,1,1.39822-.5853,2.12557,2.12557,0,0,1,1.62583.81291,4.4891,4.4891,0,0,1,.74788,2.86147,8.36571,8.36571,0,0,1-.29265,2.21113,10.10985,10.10985,0,0,1-.68285,1.85344,7.05138,7.05138,0,0,1-.84543,1.33318q-.45524.5528-.7804.87795t-.42272.29265q-.13007,0-.42271-.29265t-.29265-.42271q0-.13007.35768-.52027t.81292-.9755a6.24032,6.24032,0,0,0,.84543-1.62583,9.34069,9.34069,0,0,0,.52027-2.37371v-.3902l-.03252.03252a1.26351,1.26351,0,0,1-.16258.065.82045.82045,0,0,0-.1951.09755.53221.53221,0,0,1-.29265.065,2.36932,2.36932,0,0,0-.3902.03252,1.93591,1.93591,0,0,1-1.43073-.55278Z"/>
      <path id="MJMATHI-61-2" data-name="MJMATHI-61" class="cls-7" d="M825.70009,25.64534a9.609,9.609,0,0,1,2.47126-6.24319,7.2765,7.2765,0,0,1,5.56034-2.99153,3.68633,3.68633,0,0,1,2.9265,1.59331,1.627,1.627,0,0,1,1.49576-.9755,1.16338,1.16338,0,0,1,.74788.26014.80074.80074,0,0,1,.32517.65033q0,.42272-1.20311,5.20266t-1.23564,5.39776a1.73965,1.73965,0,0,0,.22762,1.073.9552.9552,0,0,0,.68285.29265,1.41286,1.41286,0,0,0,.65033-.29265,7.37326,7.37326,0,0,0,1.33318-3.1216q.19511-.65032.32517-.68285a.95112.95112,0,0,1,.32517-.03251h.13006q.61782,0,.61782.29264a5.16523,5.16523,0,0,1-.16258.878,10.2007,10.2007,0,0,1-.65034,1.7559,5.53951,5.53951,0,0,1-1.04053,1.62583,3.21516,3.21516,0,0,1-1.04053.68285,3.46641,3.46641,0,0,1-.7804.065,3.32372,3.32372,0,0,1-1.85345-.48774,2.49644,2.49644,0,0,1-.9755-1.008l-.1951-.48775q-.0325-.03252-.13006.03252l-.13007.13006a5.70092,5.70092,0,0,1-3.902,1.82093,4.43773,4.43773,0,0,1-3.15412-1.30066A5.47931,5.47931,0,0,1,825.70009,25.64534ZM836.04037,20.085a2.94345,2.94345,0,0,0-.16258-.71537,3.09155,3.09155,0,0,0-.74788-1.13808,2.07848,2.07848,0,0,0-1.49577-.65033,3.1204,3.1204,0,0,0-2.17861,1.008,6.80378,6.80378,0,0,0-1.62583,2.63385,25.959,25.959,0,0,0-1.33318,5.33272v.35769a1.73315,1.73315,0,0,1-.03252.3902,2.73084,2.73084,0,0,0,.5853,2.016,2.09418,2.09418,0,0,0,1.39821.5853,3.6718,3.6718,0,0,0,2.43875-1.07305,5.46765,5.46765,0,0,0,1.43073-1.65835q.065-.13007.87795-3.47928T836.04037,20.085Z"/>
      <path id="MJMAIN-29-2" data-name="MJMAIN-29" class="cls-7" d="M843.77933,6.3955l.13006-.03252h.71537l.91047.7804A16.04673,16.04673,0,0,1,849.99,14.0369a26.58549,26.58549,0,0,1,1.39822,8.58439,27.14517,27.14517,0,0,1-.32517,4.25968,27.958,27.958,0,0,1-.74788,3.47928,14.64509,14.64509,0,0,1-1.20312,2.86146q-.78039,1.43073-1.23563,2.17862a9.89149,9.89149,0,0,1-1.33318,1.65834q-.87795.91047-1.04053,1.07305t-.74788.61782l-.13007.13006h-.74788a.19107.19107,0,0,1-.16259-.09755.76557.76557,0,0,1-.09755-.29265q.03252-.03251.35769-.42271,5.04008-5.23518,5.04007-15.4454T843.97443,7.1759q-.32517-.39021-.35769-.42272A.38218.38218,0,0,1,843.77933,6.3955Z"/>
    </g>
    <g>
      <path id="MJMATHI-73-3" data-name="MJMATHI-73" class="cls-7" d="M439.75327,17.277a5.687,5.687,0,0,1,.614-2.49437,6.31339,6.31339,0,0,1,2.149-2.34087,6.13145,6.13145,0,0,1,3.72237-1.03613,4.84835,4.84835,0,0,1,3.45375,1.03613,3.28784,3.28784,0,0,1,1.11288,2.3025,2.28536,2.28536,0,0,1-.65238,1.80362,2.32491,2.32491,0,0,1-1.45825.614,1.53278,1.53278,0,0,1-.921-.307,1.24159,1.24159,0,0,1-.4605-.99775,1.74139,1.74139,0,0,1,.34538-1.0745,3.44757,3.44757,0,0,1,.65237-.69075.9287.9287,0,0,1,.49888-.23025.03391.03391,0,0,0,.03837-.03837q0-.11513-.26862-.34538a2.62112,2.62112,0,0,0-.95938-.42212,6.78959,6.78959,0,0,0-1.49662-.23025,3.24586,3.24586,0,0,0-3.56887,3.03162,1.38728,1.38728,0,0,0,.72912,1.34312,7.95831,7.95831,0,0,0,2.11062.65238,8.40959,8.40959,0,0,1,1.9955.57562,3.7926,3.7926,0,0,1,2.53275,3.684,5.83975,5.83975,0,0,1-.42212,2.149,8.58393,8.58393,0,0,1-1.26638,2.149,5.55137,5.55137,0,0,1-2.41762,1.6885,10.4202,10.4202,0,0,1-3.60725.65237q-2.95487,0-4.18287-1.11287a3.5504,3.5504,0,0,1-1.26638-2.6095,2.60984,2.60984,0,0,1,.80588-2.149,2.64978,2.64978,0,0,1,1.6885-.65237,1.8516,1.8516,0,0,1,1.0745.34537,1.42868,1.42868,0,0,1,.53725,1.18963,2.29679,2.29679,0,0,1-.69075,1.68849,1.88991,1.88991,0,0,1-1.18963.69075.29441.29441,0,0,1-.11512.03838q-.03839,0-.03838.07675a.82951.82951,0,0,0,.307.307,5.35747,5.35747,0,0,0,1.18963.49887,7.5476,7.5476,0,0,0,4.48987-.1535,3.29664,3.29664,0,0,0,1.45825-1.0745,5.0939,5.0939,0,0,0,.65237-1.18962,2.89444,2.89444,0,0,0,.19188-.95937,1.80786,1.80786,0,0,0-.80588-1.61175,4.07927,4.07927,0,0,0-1.842-.65238,9.49745,9.49745,0,0,1-2.26413-.57562,3.55133,3.55133,0,0,1-1.80362-1.34313A3.86268,3.86268,0,0,1,439.75327,17.277Z"/>
      <g>
        <path id="MJMATHI-74-3" data-name="MJMATHI-74" class="cls-7" d="M453.42942,23.67818q-.18991-.18991-.18991-.27131a2.28124,2.28124,0,0,1,.08139-.4341,1.11463,1.11463,0,0,1,.13566-.37983.233.233,0,0,1,.24418-.13566q.18992,0,1.38368-.02713h1.438l.51549-2.17049q.08139-.29844.18992-.7868a5.82106,5.82106,0,0,1,.18992-.70541,5.10656,5.10656,0,0,0,.16278-.54262.99549.99549,0,0,1,.217-.46123,2.58274,2.58274,0,0,0,.27131-.32557.61134.61134,0,0,1,.37984-.24418,2.24479,2.24479,0,0,1,.48836-.05427.83185.83185,0,0,1,.67828.29845.909.909,0,0,1,.18992.51549,10.31341,10.31341,0,0,1-.24418,1.27516q-.24418,1.08525-.54263,2.14336l-.27131,1.00385a6.41079,6.41079,0,0,0,1.35656.05426h1.38368q.18993.18991.18992.29844a1.28319,1.28319,0,0,1-.3527.94959h-2.903l-.97672,3.934q-1.05812,4.341-1.05811,4.66655,0,1.13952.73254,1.13951a2.5929,2.5929,0,0,0,1.84491-.92246,6.91018,6.91018,0,0,0,1.438-2.279q.05427-.16278.13566-.18992a2.39056,2.39056,0,0,1,.407-.05426h.10853q.407,0,.407.21705a1.332,1.332,0,0,1-.08139.32557,5.10428,5.10428,0,0,1-.48836,1.031,9.64377,9.64377,0,0,1-.92246,1.27517,5.01653,5.01653,0,0,1-1.38368,1.1395,3.32212,3.32212,0,0,1-1.655.46123,3.138,3.138,0,0,1-1.54648-.407,2.35066,2.35066,0,0,1-1.05811-1.41082,3.41144,3.41144,0,0,1-.05426-.73254v-.48836l.94959-3.79836q.94959-3.82548.97672-3.85262a6.66767,6.66767,0,0,0-1.38369-.05426Z"/>
        <path id="MJMAIN-2B-3" data-name="MJMAIN-2B" class="cls-7" d="M464.03769,27.69359v-.35271a.591.591,0,0,1,.37983-.54262h8.11221V22.72859l.02713-4.06966q.27131-.35271.51549-.35271a.59324.59324,0,0,1,.54262.407v8.08507H481.7a.56523.56523,0,0,1,0,1.08524H473.615v8.08508q-.21705.37983-.48836.37983h-.10852a.52593.52593,0,0,1-.48836-.37983V27.8835h-8.11221a.591.591,0,0,1-.37983-.54262Z"/>
        <path id="MJMAIN-31-3" data-name="MJMAIN-31" class="cls-7" d="M489.43241,18.44188l-.3527.13565a7.77512,7.77512,0,0,1-1.08525.27131,12.50484,12.50484,0,0,1-1.5736.18992h-.51549v-1.248h.51549a8.82264,8.82264,0,0,0,2.3604-.407,6.40713,6.40713,0,0,0,1.51935-.65114,6.95615,6.95615,0,0,0,.75967-.59689q.05426-.08139.32557-.08139a.75562.75562,0,0,1,.46123.16279v8.1122l.02713,8.13933a1.07442,1.07442,0,0,0,.32557.24418,3.21738,3.21738,0,0,0,.65115.10853q.51549.05425,1.68213.05426h.70541v1.248H494.94q-.56976-.08139-4.31385-.08139-3.68983,0-4.25959.08139H486.041v-1.248h1.73639a6.51537,6.51537,0,0,0,.67828-.02713,2.65627,2.65627,0,0,0,.4341-.0814,1.62636,1.62636,0,0,1,.217-.05426q.02712,0,.16278-.13565t.16279-.10853Z"/>
      </g>
    </g>
    <circle class="cls-3" cx="87.37025" cy="92.05798" r="17.77298"/>
    <circle class="cls-3" cx="27.97244" cy="151.78489" r="17.77298"/>
    <circle class="cls-3" cx="87.37025" cy="151.86857" r="17.77298"/>
    <circle class="cls-3" cx="147.48061" cy="151.86857" r="17.77298"/>
    <circle class="cls-3" cx="147.48061" cy="210.77372" r="17.77298"/>
    <circle class="cls-3" cx="147.48062" cy="270.58431" r="17.77299"/>
    <circle class="cls-3" cx="467.8298" cy="176.04425" r="39.64484"/>
    <circle class="cls-3" cx="206.15075" cy="91.92074" r="17.77298"/>
    <text class="cls-5" transform="translate(188.49012 37.80558)">+2</text>
    <circle class="cls-3" cx="147.83689" cy="32.59517" r="17.77298"/>
    <circle class="cls-3" cx="147.48061" cy="92.05798" r="17.77298"/>
  </g>
  <g id="downstream">
    <polyline class="cls-8" points="147.331 272.152 147.331 137.682 147.331 88.808"/>
    <path class="cls-8" d="M27.97244,152.13146H69.8445a17.69919,17.69919,0,0,0,17.70937-17.70937l-.04514-24.72538A17.69918,17.69918,0,0,1,105.2181,91.98734l24.48953.07064h17.59692"/>
    <line class="cls-9" x1="467.81917" y1="176.022" x2="366.99624" y2="176.022"/>
    <line class="cls-9" x1="467.8662" y1="280.45165" x2="467.8662" y2="176.09562"/>
  </g>
  <g id="right-path">
    <polygon class="cls-6" points="816.014 171.974 803.189 146.224 803.189 197.724 816.014 171.974"/>
    <line class="cls-10" x1="147.48061" y1="92.05798" x2="245.07162" y2="92.05798"/>
    <g>
      <line class="cls-11" x1="544.36903" y1="176.03214" x2="467.9026" y2="176.03214"/>
      <polygon class="cls-4" points="532.91 160.923 539.329 176.032 532.91 191.141 568.726 176.032 532.91 160.923"/>
    </g>
  </g>
  <g id="up-path">
    <polyline class="cls-12" points="147.481 92.058 147.481 30.965 186.598 30.965"/>
    <polygon class="cls-6" points="770.261 126.265 744.511 139.09 796.01 139.09 770.261 126.265"/>
    <g>
      <line class="cls-13" x1="467.85749" y1="175.93064" x2="467.85749" y2="95.93113"/>
      <polygon class="cls-1" points="482.966 107.39 467.857 100.971 452.749 107.39 467.857 71.575 482.966 107.39"/>
    </g>
  </g>
  <g id="foreground">
    <circle class="cls-14" cx="147.86659" cy="94.16358" r="45.12815"/>
    <circle class="cls-14" cx="469.20775" cy="173.1339" r="124.30276"/>
    <circle class="cls-14" cx="769.20775" cy="173.1339" r="124.30276"/>
    <circle class="cls-14" cx="1069.20775" cy="173.1339" r="124.30276"/>
  </g>
</svg>
