<svg id="Layer_1" data-name="Layer 1" xmlns="http://www.w3.org/2000/svg" viewBox="0 0 153.0673 153.76677">
  <defs>
    <style>
      .cls-1 {
        fill: #e7ebe8;
      }

      .cls-2, .cls-4 {
        fill: none;
        stroke-linecap: round;
        stroke-linejoin: round;
        stroke-width: 10px;
      }

      .cls-2 {
        stroke: #bb7566;
      }

      .cls-3 {
        fill: #bb7566;
      }

      .cls-4 {
        stroke: #263b96;
      }

      .cls-5 {
        fill: #263b96;
      }

      .cls-6 {
        fill: #cac9cc;
      }

      .cls-6, .cls-7, .cls-8 {
        opacity: 0.63;
      }

      .cls-7 {
        fill: #8d473c;
      }

      .cls-8 {
        fill: #294ba0;
      }
    </style>
  </defs>
  <title>reweighting-2</title>
  <rect class="cls-1" x="19.26429" y="33.78232" width="100.87591" height="100.87591"/>
  <g>
    <path class="cls-2" d="M130.59791,84.12235H102.778a32.17578,32.17578,0,0,0-32.19443,32.19434v32.14685"/>
    <polygon class="cls-3" points="119.925 70.05 125.904 84.122 119.925 98.194 153.283 84.122 119.925 70.05"/>
  </g>
  <g>
    <path class="cls-4" d="M70.73759,23.10453v29.3194A31.84828,31.84828,0,0,1,38.871,84.2905H5.45769"/>
    <polygon class="cls-5" points="56.666 33.777 70.738 27.799 84.809 33.777 70.738 0.42 56.666 33.777"/>
  </g>
  <polygon class="cls-6" points="32.541 84.218 42.986 105.19 42.986 63.247 32.541 84.218"/>
  <polygon class="cls-6" points="69.601 121.642 90.572 111.197 48.629 111.197 69.601 121.642"/>
  <polygon class="cls-7" points="106.863 84.241 96.418 63.27 96.418 105.213 106.863 84.241"/>
  <polygon class="cls-8" points="69.601 47.014 48.629 57.459 90.572 57.459 69.601 47.014"/>
</svg>
