<svg id="Layer_1" data-name="Layer 1" xmlns="http://www.w3.org/2000/svg" viewBox="0 0 610.47887 114.50041">
  <defs>
    <style>
      .cls-1 {
        fill: #e7ebe8;
      }

      .cls-2, .cls-5 {
        fill: #70a8da;
      }

      .cls-2, .cls-4 {
        opacity: 0.5;
      }

      .cls-3, .cls-4 {
        fill: #ef4136;
      }

      .cls-6 {
        fill: #010101;
      }

      .cls-7 {
        font-size: 15.2726px;
        font-family: ArialMT, Arial;
      }

      .cls-7, .cls-8 {
        fill: #6d6e71;
      }

      .cls-9 {
        fill: none;
        stroke: #f7941d;
        stroke-linejoin: round;
        stroke-width: 2px;
      }

      .cls-10 {
        fill: #f7941d;
      }
    </style>
  </defs>
  <title>sarsa</title>
  <rect class="cls-1" x="226.26608" y="39.83718" width="74.08071" height="74.08071"/>
  <polygon class="cls-2" points="236.016 76.876 243.687 92.277 243.687 61.475 236.016 76.876"/>
  <polygon class="cls-3" points="263.232 104.359 278.633 96.689 247.831 96.689 263.232 104.359"/>
  <polygon class="cls-4" points="290.597 76.893 282.926 61.492 282.926 92.294 290.597 76.893"/>
  <polygon class="cls-5" points="263.232 49.555 247.831 57.225 278.633 57.225 263.232 49.555"/>
  <rect class="cls-1" x="0.18885" y="39.96177" width="73.94519" height="73.94519"/>
  <circle class="cls-5" cx="37.94363" cy="77.88585" r="23.42114"/>
  <g>
    <path id="MJMATHI-56" class="cls-6" d="M.423,3.58946A1.365,1.365,0,0,1,.79817,2.57932h.31747q1.21217.08658,3.0304.08659,3.40558,0,4.01167-.08659h.28861q.17316.17318.17316.25975t-.05772.5195a1.58962,1.58962,0,0,1-.25975.54836H7.69593q-.63493.05772-.86582.05772-.837.1443-.92355.43291,0,.05772.837,7.2441t.86583,7.24409L9.7162,15.509Q11.823,12.1323,13.9299,8.69784T16.09447,5.148a.85849.85849,0,0,0,.11544-.43292q0-.69265-1.26988-.8081-.51949,0-.5195-.31747,0-.02888.05772-.3752a1.553,1.553,0,0,1,.17317-.51949.45815.45815,0,0,1,.37519-.11545h.34633q.28862,0,.98127.02886t1.8471.02886q1.99142,0,2.5109-.05772h.202q.202.202.202.31747a1.76529,1.76529,0,0,1-.25975.92355.82583.82583,0,0,1-.49064.08659q-.3752.02886-.69266.05772a2.14611,2.14611,0,0,0-.60608.1443q-.28861.11546-.46177.202a1.80635,1.80635,0,0,0-.34633.23089,1.61454,1.61454,0,0,1-.28861.202.62726.62726,0,0,0-.23089.25975q-.11544.202-.202.202l-5.57016,8.94689q-5.195,8.39853-5.36813,8.60056-.08658.05772-.202.1443l-.5195.02886h-.202q-.5195,0-.5195-.202-.08658-.17318-1.12558-9.2355Q2.93388,4.311,2.905,4.2244q-.1443-.31748-1.78938-.31747H.625A.39984.39984,0,0,1,.423,3.58946Z"/>
    <path id="MJMAIN-28" class="cls-6" d="M23.8292,15.07611a23.739,23.739,0,0,1,.2886-3.78078,26.45086,26.45086,0,0,1,.66381-3.08812,12.08507,12.08507,0,0,1,1.06785-2.53977q.69267-1.241,1.09672-1.93368A7.66577,7.66577,0,0,1,28.15834,2.233q.8081-.80811.95241-.98127a5.20158,5.20158,0,0,1,.72152-.60608h.49064q.404,0,.404.25975a2.33213,2.33213,0,0,1-.49064.60608A13.10355,13.10355,0,0,0,29.053,3.0411a19.96732,19.96732,0,0,0-1.41418,2.482A16.41887,16.41887,0,0,0,26.42668,9.506a29.12912,29.12912,0,0,0-.49064,5.57016,28.67628,28.67628,0,0,0,.49064,5.5413A18.74369,18.74369,0,0,0,27.61,24.62908a13.071,13.071,0,0,0,1.41418,2.482q.72153.95241,1.21216,1.52963a6.51978,6.51978,0,0,1,.49064.60608q0,.25974-.43292.25974h-.46177l-.80811-.69266a14.24261,14.24261,0,0,1-3.95394-6.11852A23.59659,23.59659,0,0,1,23.8292,15.07611Z"/>
    <g>
      <path id="MJMATHI-73" class="cls-6" d="M36.15281,13.95053a4.277,4.277,0,0,1,.46178-1.876,4.74818,4.74818,0,0,1,1.61621-1.76052,4.61141,4.61141,0,0,1,2.79951-.77924,3.64639,3.64639,0,0,1,2.59749.77924,2.47274,2.47274,0,0,1,.837,1.73166,1.71877,1.71877,0,0,1-.49063,1.35646,1.74853,1.74853,0,0,1-1.09672.46178,1.15274,1.15274,0,0,1-.69266-.23089.93371.93371,0,0,1-.34633-.75038,1.30964,1.30964,0,0,1,.25975-.80811,2.5928,2.5928,0,0,1,.49063-.5195.69847.69847,0,0,1,.3752-.17316.02551.02551,0,0,0,.02886-.02886q0-.08658-.202-.25975a1.97115,1.97115,0,0,0-.72152-.31747,5.10623,5.10623,0,0,0-1.12558-.17317,2.44115,2.44115,0,0,0-2.68407,2.28,1.04335,1.04335,0,0,0,.54836,1.01013,5.98557,5.98557,0,0,0,1.58735.49064,6.32417,6.32417,0,0,1,1.50077.43291A2.85232,2.85232,0,0,1,43.801,17.587a4.39177,4.39177,0,0,1-.31747,1.61621,6.45585,6.45585,0,0,1-.95241,1.61621,4.175,4.175,0,0,1-1.81824,1.26988,7.83672,7.83672,0,0,1-2.71293.49064,4.66835,4.66835,0,0,1-3.14584-.837,2.67014,2.67014,0,0,1-.95241-1.96254,1.96281,1.96281,0,0,1,.60608-1.61621,1.99283,1.99283,0,0,1,1.26988-.49064,1.39253,1.39253,0,0,1,.80811.25975,1.07446,1.07446,0,0,1,.40405.89469,1.72734,1.72734,0,0,1-.5195,1.26988,1.42138,1.42138,0,0,1-.89468.5195.22158.22158,0,0,1-.08659.02886q-.02886,0-.02886.05772a.62388.62388,0,0,0,.23089.23089,4.02961,4.02961,0,0,0,.89469.37519,5.67643,5.67643,0,0,0,3.37673-.11544,2.4794,2.4794,0,0,0,1.09671-.80811,3.83117,3.83117,0,0,0,.49064-.89469,2.177,2.177,0,0,0,.1443-.72152,1.35964,1.35964,0,0,0-.60608-1.21216,3.06787,3.06787,0,0,0-1.38532-.49064,7.14254,7.14254,0,0,1-1.7028-.43291,2.6709,2.6709,0,0,1-1.35646-1.01013A2.90509,2.90509,0,0,1,36.15281,13.95053Z"/>
      <g>
        <path id="MJMATHI-74" class="cls-6" d="M46.43833,18.76468q-.14283-.14283-.14283-.204a1.71532,1.71532,0,0,1,.06121-.32647.83846.83846,0,0,1,.102-.28567.17526.17526,0,0,1,.18364-.102q.14283,0,1.04064-.02041h1.08145l.38768-1.63237q.06121-.22444.14284-.59174a4.37747,4.37747,0,0,1,.14283-.53052,3.8398,3.8398,0,0,0,.12243-.40809.74849.74849,0,0,1,.16324-.34688,1.94332,1.94332,0,0,0,.204-.24486.45984.45984,0,0,1,.28567-.18364,1.68822,1.68822,0,0,1,.36728-.04081.62561.62561,0,0,1,.51012.22445.68368.68368,0,0,1,.14283.38769,7.75452,7.75452,0,0,1-.18364.959q-.18364.8162-.40809,1.612l-.20405.755a4.82056,4.82056,0,0,0,1.02023.04081h1.04064q.14283.14285.14284.22446a.96507.96507,0,0,1-.26527.71416h-2.1833l-.73456,2.95868q-.79579,3.26475-.79579,3.5096,0,.857.55093.857a1.95009,1.95009,0,0,0,1.38752-.69376,5.19732,5.19732,0,0,0,1.08145-1.714q.0408-.12243.102-.14284a1.79748,1.79748,0,0,1,.30607-.0408h.08162q.30606,0,.30607.16323a1.00188,1.00188,0,0,1-.06122.24486,3.83865,3.83865,0,0,1-.36728.77538,7.25256,7.25256,0,0,1-.69376.959,3.773,3.773,0,0,1-1.04064.857,2.49842,2.49842,0,0,1-1.24468.34688,2.3599,2.3599,0,0,1-1.16307-.30607,1.76782,1.76782,0,0,1-.79578-1.061,2.56519,2.56519,0,0,1-.04081-.55093v-.36728L47.785,21.703q.71417-2.87706.73457-2.89746a5.01378,5.01378,0,0,0-1.04064-.04081Z"/>
        <path id="MJMAIN-2B" class="cls-6" d="M54.41656,21.78457v-.26526a.44446.44446,0,0,1,.28567-.40809h6.101v-3.0607l.0204-3.06071q.204-.26526.38769-.26526a.44619.44619,0,0,1,.4081.30607v6.0806H67.7a.42509.42509,0,0,1,0,.81618H61.61942V28.008q-.16324.28566-.36729.28567h-.08162a.39555.39555,0,0,1-.36728-.28567V21.9274h-6.101a.44446.44446,0,0,1-.28567-.40809Z"/>
        <path id="MJMAIN-31" class="cls-6" d="M73.51534,14.82658l-.26526.102a5.84932,5.84932,0,0,1-.81618.20405,9.40756,9.40756,0,0,1-1.18348.14283h-.38768v-.93862h.38768a6.63533,6.63533,0,0,0,1.77521-.30607,4.81878,4.81878,0,0,0,1.14266-.48971,5.23125,5.23125,0,0,0,.57134-.4489q.0408-.06122.24485-.06122a.56829.56829,0,0,1,.34688.12243v6.101l.02041,6.12141a.80815.80815,0,0,0,.24485.18364,2.42063,2.42063,0,0,0,.48971.08162q.38769.0408,1.26509.04081H77.882v.93861h-.22446q-.42849-.06122-3.24434-.06121-2.775,0-3.20353.06121h-.24486v-.93861h1.3059a4.90121,4.90121,0,0,0,.51012-.02041,1.99843,1.99843,0,0,0,.32647-.06121,1.22181,1.22181,0,0,1,.16324-.04081q.0204,0,.12243-.102t.12242-.08161Z"/>
      </g>
    </g>
    <path id="MJMAIN-29" class="cls-6" d="M84.00424.6745l.11545-.02886h.63494l.8081.69266a14.2426,14.2426,0,0,1,3.95395,6.11852,23.59665,23.59665,0,0,1,1.241,7.61929,24.09317,24.09317,0,0,1-.28861,3.78078,24.81293,24.81293,0,0,1-.6638,3.08812,12.99925,12.99925,0,0,1-1.06785,2.53976q-.69267,1.26988-1.09672,1.93368a8.7792,8.7792,0,0,1-1.1833,1.47191q-.77924.80811-.92355.95241t-.6638.54836l-.11544.11544h-.6638a.16961.16961,0,0,1-.14431-.08658.67939.67939,0,0,1-.08658-.25975q.02886-.02886.31747-.37519,4.47345-4.64661,4.47344-13.70894T84.17741,1.36716Q83.8888,1.02084,83.85994.992A.33922.33922,0,0,1,84.00424.6745Z"/>
  </g>
  <g>
    <path id="MJMATHI-51" class="cls-6" d="M236.19576,24.56477q0-.95134.02883-1.44142a2.84881,2.84881,0,0,1,.05765-.54774v-.11532l-.43242.11532a10.48694,10.48694,0,0,1-2.42158.31711,7.07459,7.07459,0,0,1-7.26475-6.42872q-.02883-.23064-.02883-1.23962a11.92613,11.92613,0,0,1,1.38376-5.59271,16.14633,16.14633,0,0,1,3.71886-4.699,11.24438,11.24438,0,0,1,7.17826-2.96932q1.09548,0,1.38376.02883a6.86335,6.86335,0,0,1,4.49723,2.47924,8.128,8.128,0,0,1,1.7297,5.24676,13.11687,13.11687,0,0,1-4.2666,9.4557,13.82581,13.82581,0,0,1-3.77651,2.62338l-.49008.23063V22.172q0,.02883.14414.77837a2.26857,2.26857,0,0,0,.60539,1.21079,1.79494,1.79494,0,0,0,1.32611.46125,3.35866,3.35866,0,0,0,1.9315-.63422A2.933,2.933,0,0,0,242.711,22.345q.173-.40359.37477-.4036a.29651.29651,0,0,1,.31711.25946,4.31183,4.31183,0,0,1-.28828,1.03782q-.28828.80719-.8072,1.90267a5.00462,5.00462,0,0,1-1.55673,1.87385,3.9341,3.9341,0,0,1-2.191.836q-2.36394,0-2.36393-3.08464Zm6.83232-15.79795a8.04723,8.04723,0,0,0-.43242-2.76752,3.78967,3.78967,0,0,0-1.182-1.75853,6.49935,6.49935,0,0,0-1.44142-.86485,3.93484,3.93484,0,0,0-1.5279-.28828,6.28919,6.28919,0,0,0-2.82518.7207,10.3792,10.3792,0,0,0-4.72785,5.0738,16.23388,16.23388,0,0,0-1.78736,7.14943,5.954,5.954,0,0,0,1.55673,4.52605,2.70755,2.70755,0,0,0,.836.6054v-.23063a3.01526,3.01526,0,0,1,.95133-2.1333,3.13392,3.13392,0,0,1,2.24861-1.009,2.33155,2.33155,0,0,1,1.23962.31711,1.99341,1.99341,0,0,1,.77837.86485,4.74672,4.74672,0,0,1,.34594.92251q.08649.37477.173.77837l.37477-.25946a10.67632,10.67632,0,0,0,3.14229-3.48823,15.739,15.739,0,0,0,1.78736-4.29543A16.87425,16.87425,0,0,0,243.02808,8.76682Zm-9.28273,12.97277a5.722,5.722,0,0,0,2.59455-.6054l-.02883-.28828q-.11531-1.58556-1.06665-1.90268a3.52992,3.52992,0,0,0-.54774-.05765h-.173a.16694.16694,0,0,1-.11531-.02883,1.75581,1.75581,0,0,0-1.182.57657,1.88917,1.88917,0,0,0-.63423,1.3261Q232.59221,21.73958,233.74535,21.73959Z"/>
    <path id="MJMAIN-28-2" data-name="MJMAIN-28" class="cls-6" d="M250.20634,15.05141a23.71148,23.71148,0,0,1,.28829-3.77652,26.42052,26.42052,0,0,1,.663-3.08463,12.07172,12.07172,0,0,1,1.06665-2.5369q.69187-1.23961,1.09548-1.9315a7.65687,7.65687,0,0,1,1.21079-1.49908q.80719-.8072.95133-.98016a5.19644,5.19644,0,0,1,.72071-.6054h.49009q.40359,0,.40359.25946a2.3293,2.3293,0,0,1-.49008.6054,13.08791,13.08791,0,0,0-1.182,1.5279,19.94318,19.94318,0,0,0-1.41259,2.47924,16.40025,16.40025,0,0,0-1.21079,3.97831,29.09562,29.09562,0,0,0-.49009,5.56388,28.643,28.643,0,0,0,.49009,5.535,18.7227,18.7227,0,0,0,1.182,4.00714,13.0557,13.0557,0,0,0,1.41259,2.47924q.7207.95134,1.21079,1.52791a6.511,6.511,0,0,1,.49008.60539q0,.25945-.43242.25946h-.46126l-.80719-.69188a14.22665,14.22665,0,0,1-3.94949-6.11162A23.57013,23.57013,0,0,1,250.20634,15.05141Z"/>
    <g>
      <path id="MJMATHI-73-2" data-name="MJMATHI-73" class="cls-6" d="M262.51605,13.9271a4.27218,4.27218,0,0,1,.46126-1.87384,4.74267,4.74267,0,0,1,1.61439-1.75853,4.6061,4.6061,0,0,1,2.79635-.77837,3.64222,3.64222,0,0,1,2.59455.77837,2.4699,2.4699,0,0,1,.836,1.7297,1.71684,1.71684,0,0,1-.49008,1.35493,1.74652,1.74652,0,0,1-1.09548.46125,1.15149,1.15149,0,0,1-.69188-.23062.93269.93269,0,0,1-.34594-.74954,1.30816,1.30816,0,0,1,.25946-.80719,2.58961,2.58961,0,0,1,.49008-.51891.69759.69759,0,0,1,.37477-.173.02548.02548,0,0,0,.02883-.02883q0-.08649-.2018-.25946a1.96911,1.96911,0,0,0-.72071-.31711,5.10061,5.10061,0,0,0-1.12431-.173,2.4384,2.4384,0,0,0-2.681,2.27744,1.04216,1.04216,0,0,0,.54774,1.009,5.979,5.979,0,0,0,1.58556.49009,6.31742,6.31742,0,0,1,1.49908.43242,2.8491,2.8491,0,0,1,1.90267,2.76752,4.38685,4.38685,0,0,1-.31711,1.61439,6.44851,6.44851,0,0,1-.95134,1.61439,4.17033,4.17033,0,0,1-1.81618,1.26845,7.82808,7.82808,0,0,1-2.70987.49008,4.66305,4.66305,0,0,1-3.14229-.836,2.66714,2.66714,0,0,1-.95134-1.96033,1.96057,1.96057,0,0,1,.6054-1.61439,1.99056,1.99056,0,0,1,1.26845-.49008,1.391,1.391,0,0,1,.80719.25945,1.07324,1.07324,0,0,1,.4036.89368,1.72544,1.72544,0,0,1-.51891,1.26845,1.41977,1.41977,0,0,1-.89368.51891.22127.22127,0,0,1-.08649.02883q-.02883,0-.02883.05766a.62313.62313,0,0,0,.23063.23062,4.02452,4.02452,0,0,0,.89368.37477,5.67007,5.67007,0,0,0,3.37292-.11531,2.47659,2.47659,0,0,0,1.09548-.8072,3.82752,3.82752,0,0,0,.49008-.89367,2.1746,2.1746,0,0,0,.14414-.72071,1.35814,1.35814,0,0,0-.6054-1.2108,3.06455,3.06455,0,0,0-1.38376-.49008,7.13461,7.13461,0,0,1-1.70087-.43242,2.66781,2.66781,0,0,1-1.35493-1.009A2.90177,2.90177,0,0,1,262.51605,13.9271Z"/>
      <g>
        <path id="MJMATHI-74-2" data-name="MJMATHI-74" class="cls-6" d="M272.79,18.73581q-.14267-.14267-.14267-.20381a1.71324,1.71324,0,0,1,.06115-.32611.83734.83734,0,0,1,.10191-.28534.17506.17506,0,0,1,.18343-.10191q.14266,0,1.03946-.02038h1.08023l.38725-1.63053q.06115-.2242.14268-.59107a4.37085,4.37085,0,0,1,.14267-.52992,3.83874,3.83874,0,0,0,.12229-.40764.74771.74771,0,0,1,.163-.34649,1.93962,1.93962,0,0,0,.20382-.24458.45927.45927,0,0,1,.28534-.18343,1.6863,1.6863,0,0,1,.36687-.04076.6249.6249,0,0,1,.50954.22419.683.683,0,0,1,.14267.38726,7.74612,7.74612,0,0,1-.18343.95793q-.18344.81527-.40764,1.61015l-.20381.75413a4.81612,4.81612,0,0,0,1.01908.04076h1.03946q.14268.14267.14268.2242a.96392.96392,0,0,1-.265.71335h-2.18083l-.73374,2.95534q-.79488,3.26108-.79489,3.50565,0,.856.55031.856a1.94788,1.94788,0,0,0,1.38595-.693,5.19116,5.19116,0,0,0,1.08023-1.71206q.04075-.12228.10191-.14267a1.79515,1.79515,0,0,1,.30572-.04076h.08153q.30572,0,.30572.16305a1.00075,1.00075,0,0,1-.06114.24458,3.83454,3.83454,0,0,1-.36687.7745,7.24391,7.24391,0,0,1-.693.95794,3.76849,3.76849,0,0,1-1.03946.856,2.49572,2.49572,0,0,1-1.24328.34649,2.35726,2.35726,0,0,1-1.16176-.30573,1.76579,1.76579,0,0,1-.79488-1.05984,2.56211,2.56211,0,0,1-.04077-.55031V24.5242l.71336-2.85343q.71336-2.87381.73374-2.89419a5.00767,5.00767,0,0,0-1.03946-.04077Z"/>
        <path id="MJMAIN-2B-2" data-name="MJMAIN-2B" class="cls-6" d="M280.75919,21.7523v-.265a.444.444,0,0,1,.28534-.40764h6.09412V18.02246l.02038-3.05725q.20382-.265.38725-.265a.44566.44566,0,0,1,.40763.30572V21.0797h6.07374a.42462.42462,0,0,1,0,.81527h-6.07374V27.9687q-.163.28535-.36687.28535h-.08152a.39509.39509,0,0,1-.36687-.28535V21.895h-6.09412a.444.444,0,0,1-.28534-.40763Z"/>
        <path id="MJMAIN-31-2" data-name="MJMAIN-31" class="cls-6" d="M299.83642,14.80216l-.265.1019a5.84172,5.84172,0,0,1-.81527.20382,9.39384,9.39384,0,0,1-1.18214.14267h-.38725V14.313h.38725a6.62832,6.62832,0,0,0,1.77321-.30573,4.813,4.813,0,0,0,1.14137-.48916,5.22488,5.22488,0,0,0,.57069-.4484q.04076-.06114.24458-.06114a.56762.56762,0,0,1,.34648.12229V19.225l.02039,6.1145a.807.807,0,0,0,.24458.18343,2.416,2.416,0,0,0,.48916.08153q.38724.04077,1.26366.04076h.52992v.93756h-.2242q-.428-.06114-3.24068-.06114-2.77191,0-3.19992.06114h-.24458v-.93756h1.30443a4.89447,4.89447,0,0,0,.50954-.02038,1.99537,1.99537,0,0,0,.3261-.06114,1.22134,1.22134,0,0,1,.16306-.04077q.02037,0,.12229-.1019t.12229-.08153Z"/>
      </g>
    </g>
    <path id="MJMAIN-2C" class="cls-6" d="M310.83239,21.2495v-.72071a1.8028,1.8028,0,0,1,.46125-1.23962,1.5757,1.5757,0,0,1,1.23962-.51891,1.88446,1.88446,0,0,1,1.44142.72071,3.97989,3.97989,0,0,1,.663,2.5369,7.41686,7.41686,0,0,1-.25945,1.96033,8.96267,8.96267,0,0,1-.6054,1.64321,6.25164,6.25164,0,0,1-.74953,1.182q-.40361.49008-.69189.77836t-.37476.25946q-.11532,0-.37477-.25946t-.25946-.37477q0-.1153.31711-.46125t.72071-.86485a5.53251,5.53251,0,0,0,.74954-1.44142,8.28032,8.28032,0,0,0,.46125-2.10447V21.999l-.02882.02883a1.11859,1.11859,0,0,1-.14415.05766.72774.72774,0,0,0-.173.08648.47172.47172,0,0,1-.25945.05766,2.10075,2.10075,0,0,0-.34594.02883,1.71631,1.71631,0,0,1-1.26845-.49009Z"/>
    <g>
      <path id="MJMATHI-61" class="cls-6" d="M322.36373,17.73244a8.5191,8.5191,0,0,1,2.191-5.535,6.45118,6.45118,0,0,1,4.92965-2.65221,3.26819,3.26819,0,0,1,2.59455,1.41259,1.44248,1.44248,0,0,1,1.32611-.86485,1.03148,1.03148,0,0,1,.66305.23062.70993.70993,0,0,1,.28828.57657q0,.37478-1.06665,4.61254t-1.09547,4.78551a1.54229,1.54229,0,0,0,.20179.95133.84689.84689,0,0,0,.6054.25946,1.25264,1.25264,0,0,0,.57657-.25946,6.537,6.537,0,0,0,1.182-2.76752q.173-.57657.28828-.60539a.84324.84324,0,0,1,.28829-.02883h.11531q.54774,0,.54774.25945a4.5791,4.5791,0,0,1-.14414.77837,9.045,9.045,0,0,1-.57657,1.55673,4.91114,4.91114,0,0,1-.92251,1.44142,2.8506,2.8506,0,0,1-.9225.60539,3.0733,3.0733,0,0,1-.69188.05766,2.94659,2.94659,0,0,1-1.64322-.43243,2.21313,2.21313,0,0,1-.86485-.89367l-.173-.43243q-.02883-.02883-.11532.02883l-.11531.11531a5.0543,5.0543,0,0,1-3.4594,1.61439,3.93437,3.93437,0,0,1-2.79635-1.15313A4.85778,4.85778,0,0,1,322.36373,17.73244Zm9.16742-4.92965a2.60942,2.60942,0,0,0-.14414-.63422,2.7408,2.7408,0,0,0-.663-1.009,1.84277,1.84277,0,0,0-1.3261-.57657,2.76647,2.76647,0,0,0-1.93151.89368,6.032,6.032,0,0,0-1.44141,2.3351,23.015,23.015,0,0,0-1.182,4.72785v.31711a1.53737,1.53737,0,0,1-.02882.34594,2.4211,2.4211,0,0,0,.51891,1.78736,1.85663,1.85663,0,0,0,1.23962.51891,3.25527,3.25527,0,0,0,2.16212-.95134,4.84747,4.84747,0,0,0,1.26845-1.47024q.05766-.11532.77837-3.08464T331.53115,12.80279Z"/>
      <g>
        <path id="MJMATHI-74-3" data-name="MJMATHI-74" class="cls-6" d="M337.19253,18.73581q-.14268-.14267-.14268-.20381a1.71408,1.71408,0,0,1,.06115-.32611.83734.83734,0,0,1,.10191-.28534.17506.17506,0,0,1,.18343-.10191q.14268,0,1.03947-.02038H339.516l.38726-1.63053q.06114-.2242.14267-.59107a4.37085,4.37085,0,0,1,.14267-.52992,3.83874,3.83874,0,0,0,.12229-.40764.74771.74771,0,0,1,.163-.34649,1.93962,1.93962,0,0,0,.20382-.24458.45927.45927,0,0,1,.28534-.18343,1.6863,1.6863,0,0,1,.36687-.04076.6249.6249,0,0,1,.50954.22419.68289.68289,0,0,1,.14267.38726,7.74612,7.74612,0,0,1-.18343.95793q-.18344.81527-.40763,1.61015l-.20382.75413a4.81612,4.81612,0,0,0,1.01908.04076h1.03947q.14266.14267.14267.2242a.964.964,0,0,1-.265.71335h-2.18084l-.73374,2.95534q-.79488,3.26108-.79488,3.50565,0,.856.5503.856a1.94786,1.94786,0,0,0,1.38595-.693,5.19116,5.19116,0,0,0,1.08023-1.71206q.04077-.12228.10191-.14267a1.79515,1.79515,0,0,1,.30572-.04076h.08153q.30573,0,.30572.16305a1.00075,1.00075,0,0,1-.06114.24458,3.83454,3.83454,0,0,1-.36687.7745,7.24391,7.24391,0,0,1-.693.95794,3.76849,3.76849,0,0,1-1.03946.856,2.49569,2.49569,0,0,1-1.24328.34649,2.35729,2.35729,0,0,1-1.16176-.30573,1.76579,1.76579,0,0,1-.79488-1.05984,2.56228,2.56228,0,0,1-.04076-.55031V24.5242l.71335-2.85343q.71337-2.87381.73374-2.89419a5.00758,5.00758,0,0,0-1.03946-.04077Z"/>
        <path id="MJMAIN-2B-3" data-name="MJMAIN-2B" class="cls-6" d="M345.16175,21.7523v-.265a.444.444,0,0,1,.28534-.40764h6.09412V18.02246l.02038-3.05725q.20382-.265.38725-.265a.44566.44566,0,0,1,.40763.30572V21.0797h6.07374a.42462.42462,0,0,1,0,.81527h-6.07374V27.9687q-.163.28535-.36686.28535h-.08153a.39511.39511,0,0,1-.36687-.28535V21.895h-6.09412a.444.444,0,0,1-.28534-.40763Z"/>
        <path id="MJMAIN-31-3" data-name="MJMAIN-31" class="cls-6" d="M364.239,14.80216l-.265.1019a5.84172,5.84172,0,0,1-.81527.20382,9.3939,9.3939,0,0,1-1.18213.14267h-.38726V14.313h.38726a6.62832,6.62832,0,0,0,1.7732-.30573,4.813,4.813,0,0,0,1.14137-.48916,5.22392,5.22392,0,0,0,.57069-.4484q.04076-.06114.24458-.06114a.56767.56767,0,0,1,.34649.12229V19.225l.02038,6.1145a.807.807,0,0,0,.24458.18343,2.41616,2.41616,0,0,0,.48916.08153q.38724.04077,1.26366.04076h.52992v.93756h-.2242q-.428-.06114-3.24068-.06114-2.77191,0-3.19992.06114h-.24458v-.93756h1.30443a4.89447,4.89447,0,0,0,.50954-.02038,1.99571,1.99571,0,0,0,.32611-.06114,1.221,1.221,0,0,1,.163-.04077q.02039,0,.12229-.1019t.12229-.08153Z"/>
      </g>
    </g>
    <path id="MJMAIN-29-2" data-name="MJMAIN-29" class="cls-6" d="M374.74487.66605l.11531-.02883h.63423l.80719.69189a14.22656,14.22656,0,0,1,3.94949,6.11161,23.57019,23.57019,0,0,1,1.23962,7.61069,24.06629,24.06629,0,0,1-.28829,3.77651,24.78622,24.78622,0,0,1-.663,3.08464,12.98465,12.98465,0,0,1-1.06665,2.53689q-.69187,1.26844-1.09548,1.9315a8.76906,8.76906,0,0,1-1.182,1.47025q-.77837.8072-.92251.95133t-.663.54774l-.11531.11532h-.66306a.16941.16941,0,0,1-.14414-.08649.67859.67859,0,0,1-.08648-.25945q.02883-.02883.31711-.37477,4.46839-4.64137,4.4684-13.69347t-4.4684-13.69348q-.28829-.34593-.31711-.37477A.33882.33882,0,0,1,374.74487.66605Z"/>
  </g>
  <path id="MJMAIN-2248" class="cls-6" d="M157.62367,13.66582a5.62765,5.62765,0,0,1,.601-2.616,4.96878,4.96878,0,0,1,1.48476-1.80292,8.74091,8.74091,0,0,1,1.73222-.98984,3.95349,3.95349,0,0,1,1.48476-.35351h.28281a1.48709,1.48709,0,0,0,.35351-.03536,6.3215,6.3215,0,0,1,2.58066.53028,28.72459,28.72459,0,0,1,3.42908,1.94432L171.34,11.474a7.70647,7.70647,0,0,0,3.88865,1.2373,5.62554,5.62554,0,0,0,3.39374-1.02519,3.76071,3.76071,0,0,0,1.59081-2.79277,1.72192,1.72192,0,0,1,.14141-.707q.14141-.31816.35351-.31817.49492,0,.49492,1.0959a5.564,5.564,0,0,1-1.66151,4.03006,5.80006,5.80006,0,0,1-4.24217,1.73222,7.42208,7.42208,0,0,1-3.07558-.74238,14.66635,14.66635,0,0,1-2.82811-1.66152,14.66643,14.66643,0,0,0-2.82812-1.66151,7.73019,7.73019,0,0,0-2.96952-.77774,5.23042,5.23042,0,0,0-3.49979,1.1666,3.795,3.795,0,0,0-1.48476,2.65136q-.07069,1.02519-.49492,1.02519Q157.62368,14.72636,157.62367,13.66582Zm0,8.27223a5.62764,5.62764,0,0,1,.601-2.616,4.96873,4.96873,0,0,1,1.48476-1.80293,8.74141,8.74141,0,0,1,1.73222-.98984,3.95369,3.95369,0,0,1,1.48476-.35351h.28281a1.48714,1.48714,0,0,0,.35351-.03535,6.32149,6.32149,0,0,1,2.58066.53027,28.72355,28.72355,0,0,1,3.42908,1.94433L171.34,19.74626a7.70647,7.70647,0,0,0,3.88865,1.2373,5.62554,5.62554,0,0,0,3.39374-1.02519,3.76071,3.76071,0,0,0,1.59081-2.79276q0-1.02519.49492-1.02519t.49492,1.13124a5.79534,5.79534,0,0,1-5.90368,5.72693,7.42208,7.42208,0,0,1-3.07558-.74238,14.66634,14.66634,0,0,1-2.82811-1.66151,14.66645,14.66645,0,0,0-2.82812-1.66152,7.73016,7.73016,0,0,0-2.96952-.77773,5.23037,5.23037,0,0,0-3.49979,1.1666,3.795,3.795,0,0,0-1.48476,2.65135q-.106,1.02519-.49492,1.02519Q157.62368,22.99859,157.62367,21.93805Z"/>
  <text class="cls-7" transform="translate(332.82043 59.14824)"><tspan xml:space="preserve">Suppose          = “up”</tspan></text>
  <g>
    <path id="MJMATHI-61-2" data-name="MJMATHI-61" class="cls-8" d="M399.39432,56.054a6.04179,6.04179,0,0,1,1.55384-3.92549,4.57519,4.57519,0,0,1,3.49614-1.881,2.31786,2.31786,0,0,1,1.84007,1.00181,1.023,1.023,0,0,1,.94048-.61335.73153.73153,0,0,1,.47024.16356.50347.50347,0,0,1,.20445.4089q0,.2658-.75647,3.27124t-.77692,3.39392a1.09372,1.09372,0,0,0,.14312.67469.60058.60058,0,0,0,.42935.184.88835.88835,0,0,0,.4089-.184,4.63611,4.63611,0,0,0,.83826-1.96275q.12267-.4089.20445-.42935a.59806.59806,0,0,1,.20445-.02044h.08178q.38847,0,.38846.184a3.24721,3.24721,0,0,1-.10222.552,6.41426,6.41426,0,0,1-.40891,1.104,3.48284,3.48284,0,0,1-.65425,1.02226,2.02162,2.02162,0,0,1-.65424.42936,2.17982,2.17982,0,0,1-.49069.04089,2.08979,2.08979,0,0,1-1.16538-.30668,1.56965,1.56965,0,0,1-.61336-.63381l-.12267-.30667q-.02045-.02046-.08178.02044l-.08178.08178a3.58455,3.58455,0,0,1-2.45343,1.14494,2.7903,2.7903,0,0,1-1.98319-.81781A3.44518,3.44518,0,0,1,399.39432,56.054Zm6.50159-3.49614a1.85105,1.85105,0,0,0-.10223-.4498,1.94384,1.94384,0,0,0-.47024-.71558,1.3069,1.3069,0,0,0-.94048-.4089,1.962,1.962,0,0,0-1.36983.6338,4.27789,4.27789,0,0,0-1.02226,1.65606,16.322,16.322,0,0,0-.83826,3.353v.22489a1.08987,1.08987,0,0,1-.02045.24535,1.71706,1.71706,0,0,0,.368,1.2676,1.31674,1.31674,0,0,0,.87914.368,2.30868,2.30868,0,0,0,1.5334-.6747,3.43794,3.43794,0,0,0,.89959-1.0427q.04089-.08179.552-2.18765T405.89591,52.55783Z"/>
    <g>
      <path id="MJMATHI-74-4" data-name="MJMATHI-74" class="cls-8" d="M409.911,56.76557q-.10119-.10119-.10119-.14455a1.21546,1.21546,0,0,1,.04337-.23128.59421.59421,0,0,1,.07227-.20237.12417.12417,0,0,1,.1301-.07227q.10118,0,.73719-.01446h.7661l.27465-1.15638q.04336-.159.10118-.41919a3.1014,3.1014,0,0,1,.10118-.37582,2.72041,2.72041,0,0,0,.08673-.2891.53029.53029,0,0,1,.11564-.24573,1.37586,1.37586,0,0,0,.14455-.17346.32574.32574,0,0,1,.20236-.13009,1.19636,1.19636,0,0,1,.26019-.02891.4432.4432,0,0,1,.36137.159.48429.48429,0,0,1,.10118.27464,5.49307,5.49307,0,0,1-.13009.67938q-.13009.57819-.28909,1.14193l-.14455.53483a3.416,3.416,0,0,0,.72274.0289h.73719q.10119.10119.10119.159a.68365.68365,0,0,1-.18792.50592h-1.54666l-.52037,2.09594q-.56375,2.31277-.56374,2.48622,0,.60711.39028.60711a1.38145,1.38145,0,0,0,.98293-.49147,3.68162,3.68162,0,0,0,.7661-1.2142q.02891-.08673.07227-.10118a1.27212,1.27212,0,0,1,.21683-.02891h.05782q.21681,0,.21682.11564a.70973.70973,0,0,1-.04337.17345,2.71963,2.71963,0,0,1-.26018.54929,5.13835,5.13835,0,0,1-.49147.67937,2.67274,2.67274,0,0,1-.73719.6071,1.77,1.77,0,0,1-.88174.24573,1.67181,1.67181,0,0,1-.82393-.21682,1.25235,1.25235,0,0,1-.56373-.75165,1.81682,1.81682,0,0,1-.02891-.39028v-.26018l.50591-2.02367q.50592-2.03814.52038-2.05259a3.55293,3.55293,0,0,0-.7372-.0289Z"/>
      <path id="MJMAIN-2B-4" data-name="MJMAIN-2B" class="cls-8" d="M415.56281,58.90487V58.717a.31487.31487,0,0,1,.20237-.28909h4.322V56.25965l.01446-2.16822q.14454-.18792.27464-.18791a.31605.31605,0,0,1,.28909.21682v4.30753h4.30753a.30114.30114,0,0,1,0,.57819h-4.30753v4.30753q-.11563.20237-.26018.20236h-.05782a.28021.28021,0,0,1-.26019-.20236V59.00606h-4.322a.31488.31488,0,0,1-.20237-.2891Z"/>
      <path id="MJMAIN-31-4" data-name="MJMAIN-31" class="cls-8" d="M429.0925,53.97579l-.18791.07227a4.14133,4.14133,0,0,1-.57819.14455,6.66477,6.66477,0,0,1-.83838.10119h-.27464v-.66493h.27464a4.70035,4.70035,0,0,0,1.25756-.21682,3.41329,3.41329,0,0,0,.80947-.34691,3.70531,3.70531,0,0,0,.40474-.318q.02891-.04336.17345-.04336a.40263.40263,0,0,1,.24574.08673v4.322l.01445,4.33644a.57253.57253,0,0,0,.17346.13009,1.71408,1.71408,0,0,0,.34691.05782q.27465.0289.8962.02891h.37583v.66492h-.159q-.30354-.04337-2.29831-.04336-1.96586,0-2.2694.04336h-.17346v-.66492h.92511a3.47371,3.47371,0,0,0,.36137-.01445,1.41584,1.41584,0,0,0,.23127-.04337.86725.86725,0,0,1,.11564-.02891q.01446,0,.08673-.07227t.08673-.05782Z"/>
    </g>
  </g>
  <g>
    <line class="cls-9" x1="331.68774" y1="53.2632" x2="307.54027" y2="53.2632"/>
    <polygon class="cls-10" points="310.068 49.93 308.652 53.263 310.068 56.596 302.167 53.263 310.068 49.93"/>
  </g>
</svg>
