<svg id="Layer_1" data-name="Layer 1" xmlns="http://www.w3.org/2000/svg" viewBox="0 0 662.58459 114.50041">
  <defs>
    <style>
      .cls-1 {
        fill: #e7ebe8;
      }

      .cls-2, .cls-5 {
        fill: #70a8da;
      }

      .cls-2, .cls-4 {
        opacity: 0.5;
      }

      .cls-3, .cls-4 {
        fill: #ef4136;
      }

      .cls-6 {
        fill: #010101;
      }

      .cls-7 {
        fill: #fff;
      }

      .cls-8 {
        fill: #231f20;
      }
    </style>
  </defs>
  <title>sarsa</title>
  <rect class="cls-1" x="201.26608" y="39.83718" width="74.08071" height="74.08071"/>
  <polygon class="cls-2" points="211.016 76.876 218.687 92.277 218.687 61.475 211.016 76.876"/>
  <polygon class="cls-3" points="238.232 104.359 253.633 96.689 222.831 96.689 238.232 104.359"/>
  <polygon class="cls-4" points="265.597 76.893 257.926 61.492 257.926 92.294 265.597 76.893"/>
  <polygon class="cls-5" points="238.232 49.555 222.831 57.225 253.633 57.225 238.232 49.555"/>
  <rect class="cls-1" x="0.18885" y="39.96177" width="73.94519" height="73.94519"/>
  <circle class="cls-5" cx="37.94363" cy="77.88585" r="23.42114"/>
  <g>
    <path id="MJMATHI-56" class="cls-6" d="M.423,3.58946A1.365,1.365,0,0,1,.79817,2.57932h.31747q1.21217.08658,3.0304.08659,3.40558,0,4.01167-.08659h.28861q.17316.17318.17316.25975t-.05772.5195a1.58962,1.58962,0,0,1-.25975.54836H7.69593q-.63493.05772-.86582.05772-.837.1443-.92355.43291,0,.05772.837,7.2441t.86583,7.24409L9.7162,15.509Q11.823,12.1323,13.9299,8.69784T16.09447,5.148a.85849.85849,0,0,0,.11544-.43292q0-.69265-1.26988-.8081-.51949,0-.5195-.31747,0-.02888.05772-.3752a1.553,1.553,0,0,1,.17317-.51949.45815.45815,0,0,1,.37519-.11545h.34633q.28862,0,.98127.02886t1.8471.02886q1.99142,0,2.5109-.05772h.202q.202.202.202.31747a1.76529,1.76529,0,0,1-.25975.92355.82583.82583,0,0,1-.49064.08659q-.3752.02886-.69266.05772a2.14611,2.14611,0,0,0-.60608.1443q-.28861.11546-.46177.202a1.80635,1.80635,0,0,0-.34633.23089,1.61454,1.61454,0,0,1-.28861.202.62726.62726,0,0,0-.23089.25975q-.11544.202-.202.202l-5.57016,8.94689q-5.195,8.39853-5.36813,8.60056-.08658.05772-.202.1443l-.5195.02886h-.202q-.5195,0-.5195-.202-.08658-.17318-1.12558-9.2355Q2.93388,4.311,2.905,4.2244q-.1443-.31748-1.78938-.31747H.625A.39984.39984,0,0,1,.423,3.58946Z"/>
    <path id="MJMAIN-28" class="cls-6" d="M23.8292,15.07611a23.739,23.739,0,0,1,.2886-3.78078,26.45086,26.45086,0,0,1,.66381-3.08812,12.08507,12.08507,0,0,1,1.06785-2.53977q.69267-1.241,1.09672-1.93368A7.66577,7.66577,0,0,1,28.15834,2.233q.8081-.80811.95241-.98127a5.20158,5.20158,0,0,1,.72152-.60608h.49064q.404,0,.404.25975a2.33213,2.33213,0,0,1-.49064.60608A13.10355,13.10355,0,0,0,29.053,3.0411a19.96732,19.96732,0,0,0-1.41418,2.482A16.41887,16.41887,0,0,0,26.42668,9.506a29.12912,29.12912,0,0,0-.49064,5.57016,28.67628,28.67628,0,0,0,.49064,5.5413A18.74369,18.74369,0,0,0,27.61,24.62908a13.071,13.071,0,0,0,1.41418,2.482q.72153.95241,1.21216,1.52963a6.51978,6.51978,0,0,1,.49064.60608q0,.25974-.43292.25974h-.46177l-.80811-.69266a14.24261,14.24261,0,0,1-3.95394-6.11852A23.59659,23.59659,0,0,1,23.8292,15.07611Z"/>
    <g>
      <path id="MJMATHI-73" class="cls-6" d="M36.15281,13.95053a4.277,4.277,0,0,1,.46178-1.876,4.74818,4.74818,0,0,1,1.61621-1.76052,4.61141,4.61141,0,0,1,2.79951-.77924,3.64639,3.64639,0,0,1,2.59749.77924,2.47274,2.47274,0,0,1,.837,1.73166,1.71877,1.71877,0,0,1-.49063,1.35646,1.74853,1.74853,0,0,1-1.09672.46178,1.15274,1.15274,0,0,1-.69266-.23089.93371.93371,0,0,1-.34633-.75038,1.30964,1.30964,0,0,1,.25975-.80811,2.5928,2.5928,0,0,1,.49063-.5195.69847.69847,0,0,1,.3752-.17316.02551.02551,0,0,0,.02886-.02886q0-.08658-.202-.25975a1.97115,1.97115,0,0,0-.72152-.31747,5.10623,5.10623,0,0,0-1.12558-.17317,2.44115,2.44115,0,0,0-2.68407,2.28,1.04335,1.04335,0,0,0,.54836,1.01013,5.98557,5.98557,0,0,0,1.58735.49064,6.32417,6.32417,0,0,1,1.50077.43291A2.85232,2.85232,0,0,1,43.801,17.587a4.39177,4.39177,0,0,1-.31747,1.61621,6.45585,6.45585,0,0,1-.95241,1.61621,4.175,4.175,0,0,1-1.81824,1.26988,7.83672,7.83672,0,0,1-2.71293.49064,4.66835,4.66835,0,0,1-3.14584-.837,2.67014,2.67014,0,0,1-.95241-1.96254,1.96281,1.96281,0,0,1,.60608-1.61621,1.99283,1.99283,0,0,1,1.26988-.49064,1.39253,1.39253,0,0,1,.80811.25975,1.07446,1.07446,0,0,1,.40405.89469,1.72734,1.72734,0,0,1-.5195,1.26988,1.42138,1.42138,0,0,1-.89468.5195.22158.22158,0,0,1-.08659.02886q-.02886,0-.02886.05772a.62388.62388,0,0,0,.23089.23089,4.02961,4.02961,0,0,0,.89469.37519,5.67643,5.67643,0,0,0,3.37673-.11544,2.4794,2.4794,0,0,0,1.09671-.80811,3.83117,3.83117,0,0,0,.49064-.89469,2.177,2.177,0,0,0,.1443-.72152,1.35964,1.35964,0,0,0-.60608-1.21216,3.06787,3.06787,0,0,0-1.38532-.49064,7.14254,7.14254,0,0,1-1.7028-.43291,2.6709,2.6709,0,0,1-1.35646-1.01013A2.90509,2.90509,0,0,1,36.15281,13.95053Z"/>
      <g>
        <path id="MJMATHI-74" class="cls-6" d="M46.43833,18.76468q-.14283-.14283-.14283-.204a1.71532,1.71532,0,0,1,.06121-.32647.83846.83846,0,0,1,.102-.28567.17526.17526,0,0,1,.18364-.102q.14283,0,1.04064-.02041h1.08145l.38768-1.63237q.06121-.22444.14284-.59174a4.37747,4.37747,0,0,1,.14283-.53052,3.8398,3.8398,0,0,0,.12243-.40809.74849.74849,0,0,1,.16324-.34688,1.94332,1.94332,0,0,0,.204-.24486.45984.45984,0,0,1,.28567-.18364,1.68822,1.68822,0,0,1,.36728-.04081.62561.62561,0,0,1,.51012.22445.68368.68368,0,0,1,.14283.38769,7.75452,7.75452,0,0,1-.18364.959q-.18364.8162-.40809,1.612l-.20405.755a4.82056,4.82056,0,0,0,1.02023.04081h1.04064q.14283.14285.14284.22446a.96507.96507,0,0,1-.26527.71416h-2.1833l-.73456,2.95868q-.79579,3.26475-.79579,3.5096,0,.857.55093.857a1.95009,1.95009,0,0,0,1.38752-.69376,5.19732,5.19732,0,0,0,1.08145-1.714q.0408-.12243.102-.14284a1.79748,1.79748,0,0,1,.30607-.0408h.08162q.30606,0,.30607.16323a1.00188,1.00188,0,0,1-.06122.24486,3.83865,3.83865,0,0,1-.36728.77538,7.25256,7.25256,0,0,1-.69376.959,3.773,3.773,0,0,1-1.04064.857,2.49842,2.49842,0,0,1-1.24468.34688,2.3599,2.3599,0,0,1-1.16307-.30607,1.76782,1.76782,0,0,1-.79578-1.061,2.56519,2.56519,0,0,1-.04081-.55093v-.36728L47.785,21.703q.71417-2.87706.73457-2.89746a5.01378,5.01378,0,0,0-1.04064-.04081Z"/>
        <path id="MJMAIN-2B" class="cls-6" d="M54.41656,21.78457v-.26526a.44446.44446,0,0,1,.28567-.40809h6.101v-3.0607l.0204-3.06071q.204-.26526.38769-.26526a.44619.44619,0,0,1,.4081.30607v6.0806H67.7a.42509.42509,0,0,1,0,.81618H61.61942V28.008q-.16324.28566-.36729.28567h-.08162a.39555.39555,0,0,1-.36728-.28567V21.9274h-6.101a.44446.44446,0,0,1-.28567-.40809Z"/>
        <path id="MJMAIN-31" class="cls-6" d="M73.51534,14.82658l-.26526.102a5.84932,5.84932,0,0,1-.81618.20405,9.40756,9.40756,0,0,1-1.18348.14283h-.38768v-.93862h.38768a6.63533,6.63533,0,0,0,1.77521-.30607,4.81878,4.81878,0,0,0,1.14266-.48971,5.23125,5.23125,0,0,0,.57134-.4489q.0408-.06122.24485-.06122a.56829.56829,0,0,1,.34688.12243v6.101l.02041,6.12141a.80815.80815,0,0,0,.24485.18364,2.42063,2.42063,0,0,0,.48971.08162q.38769.0408,1.26509.04081H77.882v.93861h-.22446q-.42849-.06122-3.24434-.06121-2.775,0-3.20353.06121h-.24486v-.93861h1.3059a4.90121,4.90121,0,0,0,.51012-.02041,1.99843,1.99843,0,0,0,.32647-.06121,1.22181,1.22181,0,0,1,.16324-.04081q.0204,0,.12243-.102t.12242-.08161Z"/>
      </g>
    </g>
    <path id="MJMAIN-29" class="cls-6" d="M84.00424.6745l.11545-.02886h.63494l.8081.69266a14.2426,14.2426,0,0,1,3.95395,6.11852,23.59665,23.59665,0,0,1,1.241,7.61929,24.09317,24.09317,0,0,1-.28861,3.78078,24.81293,24.81293,0,0,1-.6638,3.08812,12.99925,12.99925,0,0,1-1.06785,2.53976q-.69267,1.26988-1.09672,1.93368a8.7792,8.7792,0,0,1-1.1833,1.47191q-.77924.80811-.92355.95241t-.6638.54836l-.11544.11544h-.6638a.16961.16961,0,0,1-.14431-.08658.67939.67939,0,0,1-.08658-.25975q.02886-.02886.31747-.37519,4.47345-4.64661,4.47344-13.70894T84.17741,1.36716Q83.8888,1.02084,83.85994.992A.33922.33922,0,0,1,84.00424.6745Z"/>
  </g>
  <path id="MJMAIN-3D" class="cls-6" d="M150.35627,12.33279a.73438.73438,0,0,1,.472-.67427h21.47537a.784.784,0,0,1,.5057.67427.76486.76486,0,0,1-.472.64055l-10.72083.03372H150.89569A.66822.66822,0,0,1,150.35627,12.33279Zm0,6.54038a.66822.66822,0,0,1,.53942-.67427h21.44166q.472.33714.472.67427a.73719.73719,0,0,1-.5057.67427H150.82826A.73438.73438,0,0,1,150.35627,18.87317Z"/>
  <rect class="cls-1" x="415.10369" y="40.25493" width="74.08071" height="74.08071"/>
  <polygon class="cls-7" points="424.854 77.294 432.524 92.695 432.524 61.893 424.854 77.294"/>
  <polygon class="cls-7" points="452.069 104.777 467.47 97.107 436.669 97.107 452.069 104.777"/>
  <polygon class="cls-7" points="479.434 77.311 471.764 61.91 471.764 92.712 479.434 77.311"/>
  <polygon class="cls-8" points="452.069 49.972 436.669 57.643 467.47 57.643 452.069 49.972"/>
  <path id="MJMAIN-22C5" class="cls-6" d="M380.22307,16.92911a2.24949,2.24949,0,0,1,.64547-1.59468,2.14942,2.14942,0,0,1,1.63265-.68343,2.32527,2.32527,0,0,1,1.59468.6075,2.19092,2.19092,0,0,1,.72141,1.63265,2.29519,2.29519,0,0,1-.64547,1.63265,2.14942,2.14942,0,0,1-1.63265.68343,2.21274,2.21274,0,0,1-1.63265-.64547A2.34786,2.34786,0,0,1,380.22307,16.92911Z"/>
  <g>
    <path id="MJMATHI-61" class="cls-6" d="M415.5182,18.19079a8.28037,8.28037,0,0,1,2.12954-5.3799,6.27037,6.27037,0,0,1,4.79148-2.57787,3.17661,3.17661,0,0,1,2.52183,1.373A1.40206,1.40206,0,0,1,426.25,10.7654a1.00251,1.00251,0,0,1,.64447.22417.69.69,0,0,1,.28021.5604q0,.36428-1.03676,4.48326t-1.06477,4.65137a1.499,1.499,0,0,0,.19614.92467.82312.82312,0,0,0,.58843.25218,1.21754,1.21754,0,0,0,.56041-.25218,6.35364,6.35364,0,0,0,1.14883-2.68995q.16812-.5604.2802-.58843a.81961.81961,0,0,1,.28021-.028h.11208q.53238,0,.53238.25219a4.45034,4.45034,0,0,1-.1401.75654,8.79027,8.79027,0,0,1-.5604,1.5131,4.77383,4.77383,0,0,1-.89665,1.401,2.77088,2.77088,0,0,1-.89666.58843,2.98723,2.98723,0,0,1-.67248.056,2.86408,2.86408,0,0,1-1.59716-.42031,2.15112,2.15112,0,0,1-.84061-.86863l-.16812-.4203q-.028-.028-.11209.028l-.11208.11208a4.91264,4.91264,0,0,1-3.36244,1.56914,3.82408,3.82408,0,0,1-2.718-1.12082A4.72162,4.72162,0,0,1,415.5182,18.19079Zm8.91046-4.79148a2.53656,2.53656,0,0,0-.1401-.61644,2.66385,2.66385,0,0,0-.64447-.98071,1.79108,1.79108,0,0,0-1.28893-.56041,2.68889,2.68889,0,0,0-1.87736.86863,5.863,5.863,0,0,0-1.401,2.26965,22.3693,22.3693,0,0,0-1.14883,4.59533v.30822a1.49366,1.49366,0,0,1-.028.33625,2.35327,2.35327,0,0,0,.50436,1.73726,1.80462,1.80462,0,0,0,1.20488.50436,3.164,3.164,0,0,0,2.10152-.92467,4.71177,4.71177,0,0,0,1.2329-1.429q.056-.11208.75654-2.99818T424.42866,13.39931Z"/>
    <g>
      <path id="MJMATHI-74-2" data-name="MJMATHI-74" class="cls-6" d="M429.93135,19.166q-.13867-.13867-.13867-.19811a1.66568,1.66568,0,0,1,.05943-.317.81433.81433,0,0,1,.09905-.27735.17017.17017,0,0,1,.17829-.099q.13867,0,1.01033-.01981h1.05l.3764-1.58483q.05943-.21791.13867-.5745a4.25067,4.25067,0,0,1,.13868-.51507,3.72785,3.72785,0,0,0,.11886-.39621.72677.72677,0,0,1,.15848-.33677,1.88662,1.88662,0,0,0,.19811-.23773.44637.44637,0,0,1,.27734-.17829,1.63951,1.63951,0,0,1,.35659-.03962.60741.60741,0,0,1,.49526.21791.66383.66383,0,0,1,.13867.3764,7.52956,7.52956,0,0,1-.17829.93109q-.17831.7924-.39621,1.565l-.19811.733a4.681,4.681,0,0,0,.99052.03962H435.815q.13868.13867.13867.21792a.93694.93694,0,0,1-.25753.69336h-2.11971l-.71317,2.8725q-.7726,3.16966-.77261,3.40739,0,.832.53488.832a1.89329,1.89329,0,0,0,1.34711-.67355,5.04568,5.04568,0,0,0,1.05-1.66407q.03961-.11886.099-.13867a1.74366,1.74366,0,0,1,.29715-.03962h.07925q.29715,0,.29715.15848a.97258.97258,0,0,1-.05943.23772,3.72714,3.72714,0,0,1-.35659.7528,7.04117,7.04117,0,0,1-.67355.93108,3.66284,3.66284,0,0,1-1.01033.832,2.42572,2.42572,0,0,1-1.20843.33678,2.29123,2.29123,0,0,1-1.12919-.29716,1.71635,1.71635,0,0,1-.77261-1.03014,2.49091,2.49091,0,0,1-.03962-.53488v-.35659l.69337-2.77345q.69336-2.79326.71317-2.81307a4.86854,4.86854,0,0,0-1.01033-.03962Z"/>
      <path id="MJMAIN-2B-2" data-name="MJMAIN-2B" class="cls-6" d="M437.67721,22.098v-.25753a.43154.43154,0,0,1,.27734-.39621h5.9233V18.47268l.01981-2.97156q.1981-.25754.3764-.25754a.43319.43319,0,0,1,.39621.29716v5.90349h5.90349a.41272.41272,0,0,1,0,.79242h-5.90349v5.90349q-.15849.27734-.35659.27734h-.07924a.384.384,0,0,1-.35659-.27734V22.23665h-5.9233a.43154.43154,0,0,1-.27734-.39621Z"/>
      <path id="MJMAIN-31-2" data-name="MJMAIN-31" class="cls-6" d="M456.21972,15.34264l-.25754.09905a5.6776,5.6776,0,0,1-.79241.1981,9.13005,9.13005,0,0,1-1.149.13867h-.3764v-.91127h.3764a6.4426,6.4426,0,0,0,1.7235-.29716,4.67812,4.67812,0,0,0,1.10938-.47545,5.07707,5.07707,0,0,0,.55469-.43583q.03961-.05943.23772-.05943a.5517.5517,0,0,1,.33678.11887v5.9233l.01981,5.94311a.78435.78435,0,0,0,.23773.17829,2.34837,2.34837,0,0,0,.47544.07924q.37641.03963,1.22825.03963h.51507V26.793h-.21792q-.416-.05943-3.14985-.05943-2.69421,0-3.11022.05943h-.23773v-.91127h1.26786a4.7596,4.7596,0,0,0,.49526-.01981,1.93937,1.93937,0,0,0,.317-.05944,1.18816,1.18816,0,0,1,.15848-.03962q.01981,0,.11887-.099t.11886-.07924Z"/>
    </g>
  </g>
  <g>
    <path id="MJMATHI-51" class="cls-6" d="M211.17888,24.59652q0-.95387.02891-1.44525a2.85515,2.85515,0,0,1,.05781-.5492v-.11562l-.43358.11562a10.515,10.515,0,0,1-2.428.318,7.09341,7.09341,0,0,1-7.28408-6.44583q-.02891-.23124-.0289-1.24292a11.95784,11.95784,0,0,1,1.38744-5.60758,16.18918,16.18918,0,0,1,3.72875-4.71153A11.27434,11.27434,0,0,1,213.40457,1.935q1.0984,0,1.38745.0289a6.88164,6.88164,0,0,1,4.50919,2.48584,8.14962,8.14962,0,0,1,1.7343,5.26072,13.15174,13.15174,0,0,1-4.27795,9.48086,13.8626,13.8626,0,0,1-3.78656,2.63036l-.49139.23124v.14453q0,.02891.14453.78044a2.27462,2.27462,0,0,0,.607,1.214,1.79971,1.79971,0,0,0,1.32964.46248,3.36755,3.36755,0,0,0,1.93664-.63591,2.94079,2.94079,0,0,0,1.214-1.64759q.17343-.40467.37577-.40467a.29728.29728,0,0,1,.31795.26014,4.32331,4.32331,0,0,1-.28905,1.04059q-.28905.80934-.80934,1.90773a5.01794,5.01794,0,0,1-1.56087,1.87883,3.94461,3.94461,0,0,1-2.19679.83825q-2.37021,0-2.37022-3.09284Zm6.85051-15.84a8.06856,8.06856,0,0,0-.43358-2.77488,3.79966,3.79966,0,0,0-1.18511-1.76321,6.51683,6.51683,0,0,0-1.44525-.86715,3.94538,3.94538,0,0,0-1.532-.28905,6.306,6.306,0,0,0-2.8327.72262,10.40694,10.40694,0,0,0-4.74043,5.08729,16.27715,16.27715,0,0,0-1.79211,7.16846,5.96983,5.96983,0,0,0,1.56087,4.5381,2.71468,2.71468,0,0,0,.83825.607v-.23124a3.02325,3.02325,0,0,1,.95387-2.139,3.14224,3.14224,0,0,1,2.25459-1.01168,2.33781,2.33781,0,0,1,1.24292.318,1.9987,1.9987,0,0,1,.78044.86715,4.75919,4.75919,0,0,1,.34686.925q.08671.37576.17343.78044l.37576-.26015a10.70484,10.70484,0,0,0,3.15066-3.49751,15.78084,15.78084,0,0,0,1.79211-4.30686A16.91914,16.91914,0,0,0,218.02939,8.75654ZM208.722,21.76382a5.73732,5.73732,0,0,0,2.60146-.607l-.0289-.289Q211.17889,19.278,210.225,18.96a3.5387,3.5387,0,0,0-.5492-.05781h-.17343a.16739.16739,0,0,1-.11562-.0289,1.76049,1.76049,0,0,0-1.18511.5781,1.8942,1.8942,0,0,0-.63591,1.32963Q207.56575,21.76382,208.722,21.76382Z"/>
    <path id="MJMAIN-28-2" data-name="MJMAIN-28" class="cls-6" d="M225.22675,15.05785a23.77471,23.77471,0,0,1,.28905-3.78656,26.49182,26.49182,0,0,1,.66481-3.09285A12.10365,12.10365,0,0,1,227.2501,5.6348q.69372-1.24291,1.09839-1.93664a7.67733,7.67733,0,0,1,1.214-1.50307q.80934-.80934.95386-.98277a5.2096,5.2096,0,0,1,.72263-.607h.49139q.40467,0,.40467.26014a2.33565,2.33565,0,0,1-.49139.607,13.123,13.123,0,0,0-1.18511,1.532,19.99911,19.99911,0,0,0-1.41635,2.48583,16.44435,16.44435,0,0,0-1.214,3.9889,29.17374,29.17374,0,0,0-.49138,5.57868,28.72007,28.72007,0,0,0,.49138,5.54977,18.77277,18.77277,0,0,0,1.18511,4.01781,13.09082,13.09082,0,0,0,1.41635,2.48583q.72262.95387,1.214,1.532a6.52962,6.52962,0,0,1,.49139.607q0,.26014-.43358.26014H231.239l-.80934-.69372a14.26444,14.26444,0,0,1-3.96-6.12787A23.63292,23.63292,0,0,1,225.22675,15.05785Z"/>
    <g>
      <path id="MJMATHI-73-2" data-name="MJMATHI-73" class="cls-6" d="M237.56921,13.93055a4.28356,4.28356,0,0,1,.46248-1.87883,4.75538,4.75538,0,0,1,1.61868-1.76321,4.61841,4.61841,0,0,1,2.80379-.78043,3.65192,3.65192,0,0,1,2.60146.78043,2.47651,2.47651,0,0,1,.83825,1.73431,1.72139,1.72139,0,0,1-.49139,1.35853,1.75116,1.75116,0,0,1-1.09839.46249,1.15453,1.15453,0,0,1-.69372-.23124.9352.9352,0,0,1-.34686-.75154,1.31165,1.31165,0,0,1,.26014-.80934,2.59666,2.59666,0,0,1,.49139-.52029.6995.6995,0,0,1,.37576-.17343.02555.02555,0,0,0,.02891-.0289q0-.08671-.20234-.26015a1.97432,1.97432,0,0,0-.72262-.318,5.11447,5.11447,0,0,0-1.1273-.17343,2.44489,2.44489,0,0,0-2.68817,2.2835,1.04494,1.04494,0,0,0,.54919,1.01168,5.99481,5.99481,0,0,0,1.58978.49139,6.3342,6.3342,0,0,1,1.50307.43357,2.85669,2.85669,0,0,1,1.90773,2.77489,4.39854,4.39854,0,0,1-.31795,1.61868,6.46607,6.46607,0,0,1-.95387,1.61869,4.18149,4.18149,0,0,1-1.821,1.27182,7.84876,7.84876,0,0,1-2.71708.49139,4.67549,4.67549,0,0,1-3.15065-.83825,2.67424,2.67424,0,0,1-.95387-1.96555,1.96579,1.96579,0,0,1,.607-1.61868,1.99587,1.99587,0,0,1,1.27182-.49139,1.39467,1.39467,0,0,1,.80934.26015,1.07608,1.07608,0,0,1,.40468.89606,1.73,1.73,0,0,1-.5203,1.27182,1.42352,1.42352,0,0,1-.89605.52029.22189.22189,0,0,1-.08672.02891q-.02891,0-.0289.05781a.62473.62473,0,0,0,.23124.23124,4.03552,4.03552,0,0,0,.89605.37576,5.68508,5.68508,0,0,0,3.3819-.11562,2.48318,2.48318,0,0,0,1.09839-.80934,3.83729,3.83729,0,0,0,.49139-.89606,2.18016,2.18016,0,0,0,.14452-.72262,1.36175,1.36175,0,0,0-.607-1.214,3.07271,3.07271,0,0,0-1.38745-.49138,7.15374,7.15374,0,0,1-1.7054-.43358A2.67489,2.67489,0,0,1,238.0606,15.607,2.90941,2.90941,0,0,1,237.56921,13.93055Z"/>
      <g>
        <path id="MJMATHI-74-3" data-name="MJMATHI-74" class="cls-6" d="M247.87045,18.75206q-.143-.14305-.14305-.20436a1.71839,1.71839,0,0,1,.06131-.327.83959.83959,0,0,1,.10218-.2861.17554.17554,0,0,1,.18392-.10218q.14305,0,1.04223-.02044h1.0831l.38829-1.63487q.06131-.22479.14305-.59264a4.38327,4.38327,0,0,1,.143-.53133,3.84694,3.84694,0,0,0,.12261-.40872.74978.74978,0,0,1,.16349-.34741,1.94565,1.94565,0,0,0,.20436-.24523.46053.46053,0,0,1,.2861-.18393,1.69159,1.69159,0,0,1,.36785-.04087.62657.62657,0,0,1,.51089.2248.6847.6847,0,0,1,.14306.38828,7.76686,7.76686,0,0,1-.18393.96049q-.18391.81742-.40871,1.61443l-.20436.75613a4.82813,4.82813,0,0,0,1.02179.04087h1.04223q.14306.14305.14305.22479a.96653.96653,0,0,1-.26566.71526h-2.18664l-.7357,2.9632q-.797,3.26975-.797,3.515,0,.85832.55177.85831a1.953,1.953,0,0,0,1.38964-.69482,5.205,5.205,0,0,0,1.08311-1.71661q.04086-.12262.10217-.143a1.79984,1.79984,0,0,1,.30654-.04088h.08175q.30654,0,.30653.16349a1.00321,1.00321,0,0,1-.0613.24523,3.84487,3.84487,0,0,1-.36785.77657,7.26469,7.26469,0,0,1-.69482.96048,3.77864,3.77864,0,0,1-1.04223.85831,2.5023,2.5023,0,0,1-1.24659.34741,2.36351,2.36351,0,0,1-1.16484-.30654,1.77051,1.77051,0,0,1-.797-1.06266,2.56929,2.56929,0,0,1-.04087-.55177v-.36785l.71525-2.861q.71526-2.88147.73569-2.9019a5.02172,5.02172,0,0,0-1.04223-.04087Z"/>
        <path id="MJMAIN-2B-3" data-name="MJMAIN-2B" class="cls-6" d="M255.86088,21.77657V21.5109a.44514.44514,0,0,1,.28611-.40871h6.11032V18.0368l.02044-3.06538q.20436-.26567.38828-.26566a.44686.44686,0,0,1,.40872.30653v6.0899h6.08989a.42574.42574,0,0,1,0,.81743h-6.08989v6.08989q-.16349.28611-.36785.28611h-.08174a.39616.39616,0,0,1-.36785-.28611V21.91962H256.147a.44515.44515,0,0,1-.28611-.40872Z"/>
        <path id="MJMAIN-31-3" data-name="MJMAIN-31" class="cls-6" d="M274.98887,14.80794l-.26567.10217a5.8569,5.8569,0,0,1-.81743.20436,9.41884,9.41884,0,0,1-1.18528.143h-.38829v-.94h.38829a6.6455,6.6455,0,0,0,1.77792-.30653,4.8264,4.8264,0,0,0,1.14441-.49047,5.23932,5.23932,0,0,0,.5722-.44958q.04088-.06132.24523-.06131a.56918.56918,0,0,1,.34741.12261v6.11033l.02044,6.13077a.80932.80932,0,0,0,.24523.18392,2.42345,2.42345,0,0,0,.49046.08174q.38827.04087,1.267.04087h.53134v.94h-.2248q-.42915-.0613-3.2493-.0613-2.77929,0-3.20844.0613h-.24523v-.94h1.3079a4.90957,4.90957,0,0,0,.5109-.02043,2.00158,2.00158,0,0,0,.327-.06131,1.22394,1.22394,0,0,1,.16349-.04087q.02043,0,.12261-.10218t.12262-.08174Z"/>
      </g>
    </g>
    <path id="MJMAIN-2C" class="cls-6" d="M286.0141,21.27244v-.72263a1.80757,1.80757,0,0,1,.46248-1.24292,1.57989,1.57989,0,0,1,1.24292-.52029,1.88948,1.88948,0,0,1,1.44525.72263,3.99045,3.99045,0,0,1,.66482,2.54364,7.43654,7.43654,0,0,1-.26015,1.96555,8.98687,8.98687,0,0,1-.607,1.64759,6.26893,6.26893,0,0,1-.75153,1.18511q-.40467.49138-.69372.78043t-.37577.26015q-.11562,0-.37576-.26015t-.26015-.37576q0-.11562.318-.46249t.72263-.86715a5.54736,5.54736,0,0,0,.75153-1.44525,8.30284,8.30284,0,0,0,.46248-2.11007V22.024l-.02891.0289a1.1214,1.1214,0,0,1-.14452.05781.72958.72958,0,0,0-.17343.08672.473.473,0,0,1-.26015.05781,2.10644,2.10644,0,0,0-.34686.0289,1.72089,1.72089,0,0,1-1.27182-.49138Z"/>
    <path id="MJMATHI-61-2" data-name="MJMATHI-61" class="cls-6" d="M297.57612,17.746a8.54176,8.54176,0,0,1,2.19679-5.54977A6.46832,6.46832,0,0,1,304.71567,9.537a3.27691,3.27691,0,0,1,2.60146,1.41635,1.44632,1.44632,0,0,1,1.32963-.86715,1.03423,1.03423,0,0,1,.66482.23124.71181.71181,0,0,1,.28905.5781q0,.37576-1.06949,4.62481t-1.09839,4.79824a1.54639,1.54639,0,0,0,.20234.95387.84908.84908,0,0,0,.607.26014,1.2559,1.2559,0,0,0,.5781-.26014,6.55434,6.55434,0,0,0,1.18511-2.77489q.17343-.5781.28905-.607a.84515.84515,0,0,1,.289-.02891h.11562q.54919,0,.5492.26015a4.59109,4.59109,0,0,1-.14453.78043,9.06846,9.06846,0,0,1-.5781,1.56088,4.9244,4.9244,0,0,1-.925,1.44525,2.85812,2.85812,0,0,1-.925.607,3.08158,3.08158,0,0,1-.69372.05781,2.95451,2.95451,0,0,1-1.64759-.43358,2.21909,2.21909,0,0,1-.86715-.89606l-.17343-.43357q-.02891-.0289-.11562.0289l-.11562.11562a5.0678,5.0678,0,0,1-3.46861,1.61869,3.94482,3.94482,0,0,1-2.80379-1.15621A4.87067,4.87067,0,0,1,297.57612,17.746Zm9.19181-4.94277a2.61659,2.61659,0,0,0-.14452-.63591,2.74825,2.74825,0,0,0-.66482-1.01168,1.84766,1.84766,0,0,0-1.32963-.5781,2.77384,2.77384,0,0,0-1.93664.89606,6.04813,6.04813,0,0,0-1.44525,2.34131,23.07627,23.07627,0,0,0-1.18511,4.74043v.318a1.54073,1.54073,0,0,1-.02891.34686,2.42749,2.42749,0,0,0,.5203,1.79211,1.86156,1.86156,0,0,0,1.24291.52029,3.264,3.264,0,0,0,2.16788-.95386,4.86063,4.86063,0,0,0,1.27183-1.47416q.05781-.11562.78043-3.09284T306.76793,12.80325Z"/>
    <path id="MJMAIN-29-2" data-name="MJMAIN-29" class="cls-6" d="M313.67624.63422l.11562-.0289h.63592l.80934.69372a14.26442,14.26442,0,0,1,3.96,6.12787A23.63288,23.63288,0,0,1,320.44,15.05785a24.13048,24.13048,0,0,1-.289,3.78656,24.85221,24.85221,0,0,1-.66482,3.09284,13.01851,13.01851,0,0,1-1.06948,2.54365q-.69374,1.27182-1.0984,1.93664a8.79236,8.79236,0,0,1-1.18511,1.47416q-.78043.80934-.925.95386t-.66481.5492l-.11562.11562H313.763a.16986.16986,0,0,1-.14453-.08671.68049.68049,0,0,1-.08671-.26015q.02891-.0289.31795-.37577Q318.33,24.134,318.33,15.05785T313.84967,1.32794q-.28905-.34686-.31795-.37576A.33974.33974,0,0,1,313.67624.63422Z"/>
  </g>
</svg>
