<svg id="Layer_1" data-name="Layer 1" xmlns="http://www.w3.org/2000/svg" viewBox="0 0 30.48004 63.83621">
  <defs>
    <style>
      .cls-1 {
        fill: #263b96;
      }

      .cls-2 {
        fill: #e7ebe8;
      }

      .cls-3 {
        fill: #cac9cc;
      }

      .cls-4 {
        fill: #bb7566;
      }

      .cls-5, .cls-7 {
        fill: none;
        stroke-linecap: round;
        stroke-linejoin: round;
      }

      .cls-5 {
        stroke: #263b96;
      }

      .cls-6 {
        font-size: 2.51559px;
        fill: #d1d3d4;
        font-family: MyriadPro-Semibold, Myriad Pro;
        font-weight: 700;
      }

      .cls-7 {
        stroke: #bb7566;
      }
    </style>
  </defs>
  <title>traj-thumbnail</title>
  <rect class="cls-1" x="18.89382" y="0.44822" width="4.97511" height="4.97511"/>
  <rect class="cls-2" x="0.02162" y="0.0195" width="5.82007" height="5.82007"/>
  <rect class="cls-2" x="6.18241" y="0.02574" width="5.82007" height="5.82007"/>
  <rect class="cls-2" x="12.3186" y="0.02696" width="5.82007" height="5.82007"/>
  <rect class="cls-2" x="0.02162" y="6.18148" width="5.82007" height="5.82007"/>
  <rect class="cls-2" x="6.18241" y="6.18772" width="5.82007" height="5.82007"/>
  <rect class="cls-2" x="12.3186" y="6.18894" width="5.82007" height="5.82007"/>
  <rect class="cls-2" x="18.47134" y="6.19138" width="5.82007" height="5.82007"/>
  <rect class="cls-2" x="0.02162" y="12.31697" width="5.82007" height="5.82007"/>
  <rect class="cls-2" x="6.18241" y="12.32321" width="5.82007" height="5.82007"/>
  <rect class="cls-2" x="12.3186" y="12.32443" width="5.82007" height="5.82007"/>
  <rect class="cls-2" x="18.47134" y="12.32687" width="5.82007" height="5.82007"/>
  <rect class="cls-2" x="0.02162" y="18.47895" width="5.82007" height="5.82007"/>
  <rect class="cls-2" x="6.18241" y="18.48519" width="5.82007" height="5.82007"/>
  <rect class="cls-2" x="12.3186" y="18.48641" width="5.82007" height="5.82007"/>
  <rect class="cls-2" x="18.47134" y="18.48885" width="5.82007" height="5.82007"/>
  <rect class="cls-2" x="0.02162" y="24.63538" width="5.82007" height="5.82007"/>
  <rect class="cls-2" x="6.18241" y="24.64162" width="5.82007" height="5.82007"/>
  <rect class="cls-2" x="12.3186" y="24.64283" width="5.82007" height="5.82007"/>
  <rect class="cls-2" x="18.47134" y="24.64527" width="5.82007" height="5.82007"/>
  <circle class="cls-3" cx="2.93166" cy="2.92954" r="1.84343"/>
  <circle class="cls-3" cx="9.09245" cy="2.93822" r="1.84343"/>
  <circle class="cls-3" cx="2.8947" cy="9.09707" r="1.84343"/>
  <circle class="cls-3" cx="21.37551" cy="15.29512" r="1.84343"/>
  <circle class="cls-3" cx="2.8947" cy="21.41037" r="1.84343"/>
  <circle class="cls-3" cx="9.0555" cy="21.38899" r="1.84343"/>
  <circle class="cls-3" cx="21.37551" cy="21.40482" r="1.84343"/>
  <circle class="cls-3" cx="2.8947" cy="27.61398" r="1.84343"/>
  <circle class="cls-3" cx="9.0555" cy="27.7443" r="1.84343"/>
  <circle class="cls-3" cx="21.37551" cy="27.60842" r="1.84343"/>
  <rect class="cls-4" x="24.76438" y="0.23994" width="5.71989" height="30.1246"/>
  <circle class="cls-3" cx="15.32715" cy="2.93822" r="1.84343"/>
  <circle class="cls-3" cx="9.0555" cy="9.10575" r="1.84343"/>
  <circle class="cls-3" cx="15.2902" cy="9.10575" r="1.84343"/>
  <circle class="cls-3" cx="21.37551" cy="9.09152" r="1.84343"/>
  <circle class="cls-3" cx="2.8947" cy="15.30068" r="1.84343"/>
  <circle class="cls-3" cx="9.0555" cy="15.30936" r="1.84343"/>
  <circle class="cls-3" cx="15.2902" cy="15.30936" r="1.84343"/>
  <circle class="cls-3" cx="15.2902" cy="21.41905" r="1.84343"/>
  <circle class="cls-3" cx="15.2902" cy="27.62266" r="1.84343"/>
  <rect class="cls-1" x="18.88996" y="33.80784" width="4.97511" height="4.97511"/>
  <rect class="cls-2" x="0.01776" y="33.37912" width="5.82007" height="5.82007"/>
  <rect class="cls-2" x="6.17855" y="33.38536" width="5.82007" height="5.82007"/>
  <rect class="cls-2" x="12.31474" y="33.38658" width="5.82007" height="5.82007"/>
  <rect class="cls-2" x="0.01776" y="39.5411" width="5.82007" height="5.82007"/>
  <rect class="cls-2" x="6.17855" y="39.54734" width="5.82007" height="5.82007"/>
  <rect class="cls-2" x="12.31474" y="39.54856" width="5.82007" height="5.82007"/>
  <rect class="cls-2" x="18.46748" y="39.55099" width="5.82007" height="5.82007"/>
  <rect class="cls-2" x="0.01776" y="45.67659" width="5.82007" height="5.82007"/>
  <rect class="cls-2" x="6.17855" y="45.68283" width="5.82007" height="5.82007"/>
  <rect class="cls-2" x="12.31474" y="45.68405" width="5.82007" height="5.82007"/>
  <rect class="cls-2" x="18.46748" y="45.68649" width="5.82007" height="5.82007"/>
  <rect class="cls-2" x="0.01776" y="51.83857" width="5.82007" height="5.82007"/>
  <rect class="cls-2" x="6.17855" y="51.84481" width="5.82007" height="5.82007"/>
  <rect class="cls-2" x="12.31474" y="51.84603" width="5.82007" height="5.82007"/>
  <rect class="cls-2" x="18.46748" y="51.84847" width="5.82007" height="5.82007"/>
  <rect class="cls-2" x="0.01776" y="57.99499" width="5.82007" height="5.82007"/>
  <rect class="cls-2" x="6.17855" y="58.00123" width="5.82007" height="5.82007"/>
  <rect class="cls-2" x="12.31474" y="58.00245" width="5.82007" height="5.82007"/>
  <rect class="cls-2" x="18.46748" y="58.00489" width="5.82007" height="5.82007"/>
  <circle class="cls-3" cx="2.9278" cy="36.28915" r="1.84343"/>
  <circle class="cls-3" cx="9.08859" cy="36.29783" r="1.84343"/>
  <circle class="cls-3" cx="2.89084" cy="42.45669" r="1.84343"/>
  <circle class="cls-3" cx="21.37165" cy="48.65474" r="1.84343"/>
  <circle class="cls-3" cx="2.89084" cy="54.76999" r="1.84343"/>
  <circle class="cls-3" cx="9.05164" cy="54.74861" r="1.84343"/>
  <circle class="cls-3" cx="21.37165" cy="54.76443" r="1.84343"/>
  <circle class="cls-3" cx="2.89084" cy="60.9736" r="1.84343"/>
  <circle class="cls-3" cx="9.05164" cy="61.10391" r="1.84343"/>
  <circle class="cls-3" cx="21.37165" cy="60.96804" r="1.84343"/>
  <rect class="cls-4" x="24.76053" y="33.59956" width="5.71989" height="30.1246"/>
  <circle class="cls-3" cx="15.32329" cy="36.29783" r="1.84343"/>
  <circle class="cls-3" cx="9.05164" cy="42.46537" r="1.84343"/>
  <circle class="cls-3" cx="15.28634" cy="42.46537" r="1.84343"/>
  <circle class="cls-3" cx="21.37165" cy="42.45113" r="1.84343"/>
  <circle class="cls-3" cx="2.89084" cy="48.6603" r="1.84343"/>
  <circle class="cls-3" cx="9.05164" cy="48.66897" r="1.84343"/>
  <circle class="cls-3" cx="15.28634" cy="48.66897" r="1.84343"/>
  <circle class="cls-3" cx="15.28634" cy="54.77867" r="1.84343"/>
  <circle class="cls-3" cx="15.28634" cy="60.98227" r="1.84343"/>
  <line class="cls-5" x1="9.09245" y1="9.09776" x2="9.09245" y2="15.23325"/>
  <line class="cls-5" x1="15.22863" y1="9.09897" x2="9.09245" y2="9.09776"/>
  <line class="cls-5" x1="2.93166" y1="15.22701" x2="9.09245" y2="15.22701"/>
  <line class="cls-5" x1="15.22863" y1="2.937" x2="15.22863" y2="9.09897"/>
  <line class="cls-5" x1="19.79739" y1="2.95725" x2="15.22863" y2="2.937"/>
  <text class="cls-6" transform="translate(19.54382 3.47882)">+2</text>
  <line class="cls-7" x1="15.22477" y1="60.91249" x2="15.22477" y2="54.75606"/>
  <line class="cls-7" x1="15.22477" y1="48.59409" x2="15.22477" y2="54.75606"/>
  <line class="cls-7" x1="15.22477" y1="42.45859" x2="15.22477" y2="48.59409"/>
  <line class="cls-7" x1="21.37751" y1="42.46103" x2="15.22477" y2="42.45859"/>
  <line class="cls-7" x1="25.8777" y1="42.47615" x2="21.37751" y2="42.46103"/>
  <text class="cls-6" transform="translate(25.73132 43.31866)">-1</text>
</svg>
