<svg id="Layer_1" data-name="Layer 1" xmlns="http://www.w3.org/2000/svg" viewBox="0 0 30.48 63.84"><defs><style>.cls-1{fill:#2c3592;}.cls-2{fill:#e7ebe8;}.cls-3{fill:#cac9cc;}.cls-4{fill:#aa1e22;}.cls-5,.cls-7{fill:none;stroke-linecap:round;stroke-linejoin:round;}.cls-5{stroke:#2c3592;}.cls-6{font-size:2.52px;fill:#d1d3d4;font-family:MyriadPro-Semibold, Myriad Pro;font-weight:700;}.cls-7{stroke:#aa1e22;}</style></defs><title>traj-thumbnail</title><rect class="cls-1" x="18.89" y="0.45" width="4.98" height="4.98"/><rect class="cls-2" x="0.02" y="0.02" width="5.82" height="5.82"/><rect class="cls-2" x="6.18" y="0.03" width="5.82" height="5.82"/><rect class="cls-2" x="12.32" y="0.03" width="5.82" height="5.82"/><rect class="cls-2" x="0.02" y="6.18" width="5.82" height="5.82"/><rect class="cls-2" x="6.18" y="6.19" width="5.82" height="5.82"/><rect class="cls-2" x="12.32" y="6.19" width="5.82" height="5.82"/><rect class="cls-2" x="18.47" y="6.19" width="5.82" height="5.82"/><rect class="cls-2" x="0.02" y="12.32" width="5.82" height="5.82"/><rect class="cls-2" x="6.18" y="12.32" width="5.82" height="5.82"/><rect class="cls-2" x="12.32" y="12.32" width="5.82" height="5.82"/><rect class="cls-2" x="18.47" y="12.33" width="5.82" height="5.82"/><rect class="cls-2" x="0.02" y="18.48" width="5.82" height="5.82"/><rect class="cls-2" x="6.18" y="18.49" width="5.82" height="5.82"/><rect class="cls-2" x="12.32" y="18.49" width="5.82" height="5.82"/><rect class="cls-2" x="18.47" y="18.49" width="5.82" height="5.82"/><rect class="cls-2" x="0.02" y="24.64" width="5.82" height="5.82"/><rect class="cls-2" x="6.18" y="24.64" width="5.82" height="5.82"/><rect class="cls-2" x="12.32" y="24.64" width="5.82" height="5.82"/><rect class="cls-2" x="18.47" y="24.65" width="5.82" height="5.82"/><circle class="cls-3" cx="2.93" cy="2.93" r="1.84"/><circle class="cls-3" cx="9.09" cy="2.94" r="1.84"/><circle class="cls-3" cx="2.89" cy="9.1" r="1.84"/><circle class="cls-3" cx="21.38" cy="15.3" r="1.84"/><circle class="cls-3" cx="2.89" cy="21.41" r="1.84"/><circle class="cls-3" cx="9.06" cy="21.39" r="1.84"/><circle class="cls-3" cx="21.38" cy="21.4" r="1.84"/><circle class="cls-3" cx="2.89" cy="27.61" r="1.84"/><circle class="cls-3" cx="9.06" cy="27.74" r="1.84"/><circle class="cls-3" cx="21.38" cy="27.61" r="1.84"/><rect class="cls-4" x="24.76" y="0.24" width="5.72" height="30.12"/><circle class="cls-3" cx="15.33" cy="2.94" r="1.84"/><circle class="cls-3" cx="9.06" cy="9.11" r="1.84"/><circle class="cls-3" cx="15.29" cy="9.11" r="1.84"/><circle class="cls-3" cx="21.38" cy="9.09" r="1.84"/><circle class="cls-3" cx="2.89" cy="15.3" r="1.84"/><circle class="cls-3" cx="9.06" cy="15.31" r="1.84"/><circle class="cls-3" cx="15.29" cy="15.31" r="1.84"/><circle class="cls-3" cx="15.29" cy="21.42" r="1.84"/><circle class="cls-3" cx="15.29" cy="27.62" r="1.84"/><rect class="cls-1" x="18.89" y="33.81" width="4.98" height="4.98"/><rect class="cls-2" x="0.02" y="33.38" width="5.82" height="5.82"/><rect class="cls-2" x="6.18" y="33.39" width="5.82" height="5.82"/><rect class="cls-2" x="12.31" y="33.39" width="5.82" height="5.82"/><rect class="cls-2" x="0.02" y="39.54" width="5.82" height="5.82"/><rect class="cls-2" x="6.18" y="39.55" width="5.82" height="5.82"/><rect class="cls-2" x="12.31" y="39.55" width="5.82" height="5.82"/><rect class="cls-2" x="18.47" y="39.55" width="5.82" height="5.82"/><rect class="cls-2" x="0.02" y="45.68" width="5.82" height="5.82"/><rect class="cls-2" x="6.18" y="45.68" width="5.82" height="5.82"/><rect class="cls-2" x="12.31" y="45.68" width="5.82" height="5.82"/><rect class="cls-2" x="18.47" y="45.69" width="5.82" height="5.82"/><rect class="cls-2" x="0.02" y="51.84" width="5.82" height="5.82"/><rect class="cls-2" x="6.18" y="51.84" width="5.82" height="5.82"/><rect class="cls-2" x="12.31" y="51.85" width="5.82" height="5.82"/><rect class="cls-2" x="18.47" y="51.85" width="5.82" height="5.82"/><rect class="cls-2" x="0.02" y="57.99" width="5.82" height="5.82"/><rect class="cls-2" x="6.18" y="58" width="5.82" height="5.82"/><rect class="cls-2" x="12.31" y="58" width="5.82" height="5.82"/><rect class="cls-2" x="18.47" y="58" width="5.82" height="5.82"/><circle class="cls-3" cx="2.93" cy="36.29" r="1.84"/><circle class="cls-3" cx="9.09" cy="36.3" r="1.84"/><circle class="cls-3" cx="2.89" cy="42.46" r="1.84"/><circle class="cls-3" cx="21.37" cy="48.65" r="1.84"/><circle class="cls-3" cx="2.89" cy="54.77" r="1.84"/><circle class="cls-3" cx="9.05" cy="54.75" r="1.84"/><circle class="cls-3" cx="21.37" cy="54.76" r="1.84"/><circle class="cls-3" cx="2.89" cy="60.97" r="1.84"/><circle class="cls-3" cx="9.05" cy="61.1" r="1.84"/><circle class="cls-3" cx="21.37" cy="60.97" r="1.84"/><rect class="cls-4" x="24.76" y="33.6" width="5.72" height="30.12"/><circle class="cls-3" cx="15.32" cy="36.3" r="1.84"/><circle class="cls-3" cx="9.05" cy="42.47" r="1.84"/><circle class="cls-3" cx="15.29" cy="42.47" r="1.84"/><circle class="cls-3" cx="21.37" cy="42.45" r="1.84"/><circle class="cls-3" cx="2.89" cy="48.66" r="1.84"/><circle class="cls-3" cx="9.05" cy="48.67" r="1.84"/><circle class="cls-3" cx="15.29" cy="48.67" r="1.84"/><circle class="cls-3" cx="15.29" cy="54.78" r="1.84"/><circle class="cls-3" cx="15.29" cy="60.98" r="1.84"/><line class="cls-5" x1="9.09" y1="9.1" x2="9.09" y2="15.23"/><line class="cls-5" x1="15.23" y1="9.1" x2="9.09" y2="9.1"/><line class="cls-5" x1="2.93" y1="15.23" x2="9.09" y2="15.23"/><line class="cls-5" x1="15.23" y1="2.94" x2="15.23" y2="9.1"/><line class="cls-5" x1="19.8" y1="2.96" x2="15.23" y2="2.94"/><text class="cls-6" transform="translate(19.54 3.48)">+2</text><line class="cls-7" x1="15.22" y1="60.91" x2="15.22" y2="54.76"/><line class="cls-7" x1="15.22" y1="48.59" x2="15.22" y2="54.76"/><line class="cls-7" x1="15.22" y1="42.46" x2="15.22" y2="48.59"/><line class="cls-7" x1="21.38" y1="42.46" x2="15.22" y2="42.46"/><line class="cls-7" x1="25.88" y1="42.48" x2="21.38" y2="42.46"/><text class="cls-6" transform="translate(25.73 43.32)">-1</text></svg>