<svg id="Layer_1" data-name="Layer 1" xmlns="http://www.w3.org/2000/svg" viewBox="0 0 31.64 64.73"><defs><style>.cls-1{fill:#2c3592;}.cls-2{fill:#e7ebe8;}.cls-3{fill:#cac9cc;}.cls-4{fill:#aa1e22;}.cls-5,.cls-7{fill:none;stroke-linecap:round;stroke-linejoin:round;}.cls-5{stroke:#2c3592;}.cls-6{font-size:2.52px;fill:#d1d3d4;font-family:MyriadPro-Semibold, Myriad Pro;font-weight:700;}.cls-7{stroke:#aa1e22;}</style></defs><title>traj-thumbnail</title><rect class="cls-1" x="19.47" y="0.89" width="4.98" height="4.98"/><rect class="cls-2" x="0.59" y="0.47" width="5.82" height="5.82"/><rect class="cls-2" x="6.75" y="0.47" width="5.82" height="5.82"/><rect class="cls-2" x="12.89" y="0.47" width="5.82" height="5.82"/><rect class="cls-2" x="0.59" y="6.63" width="5.82" height="5.82"/><rect class="cls-2" x="6.75" y="6.63" width="5.82" height="5.82"/><rect class="cls-2" x="12.89" y="6.64" width="5.82" height="5.82"/><rect class="cls-2" x="19.04" y="6.64" width="5.82" height="5.82"/><rect class="cls-2" x="0.59" y="12.76" width="5.82" height="5.82"/><rect class="cls-2" x="6.75" y="12.77" width="5.82" height="5.82"/><rect class="cls-2" x="12.89" y="12.77" width="5.82" height="5.82"/><rect class="cls-2" x="19.04" y="12.77" width="5.82" height="5.82"/><rect class="cls-2" x="0.59" y="18.93" width="5.82" height="5.82"/><rect class="cls-2" x="6.75" y="18.93" width="5.82" height="5.82"/><rect class="cls-2" x="12.89" y="18.93" width="5.82" height="5.82"/><rect class="cls-2" x="19.04" y="18.94" width="5.82" height="5.82"/><rect class="cls-2" x="0.59" y="25.08" width="5.82" height="5.82"/><rect class="cls-2" x="6.75" y="25.09" width="5.82" height="5.82"/><rect class="cls-2" x="12.89" y="25.09" width="5.82" height="5.82"/><rect class="cls-2" x="19.04" y="25.09" width="5.82" height="5.82"/><circle class="cls-3" cx="3.5" cy="3.38" r="1.84"/><circle class="cls-3" cx="9.66" cy="3.38" r="1.84"/><circle class="cls-3" cx="3.47" cy="9.54" r="1.84"/><circle class="cls-3" cx="21.95" cy="15.74" r="1.84"/><circle class="cls-3" cx="3.47" cy="21.86" r="1.84"/><circle class="cls-3" cx="9.63" cy="21.84" r="1.84"/><circle class="cls-3" cx="21.95" cy="21.85" r="1.84"/><circle class="cls-3" cx="3.47" cy="28.06" r="1.84"/><circle class="cls-3" cx="9.63" cy="28.19" r="1.84"/><circle class="cls-3" cx="21.95" cy="28.05" r="1.84"/><rect class="cls-4" x="25.34" y="0.69" width="5.72" height="30.12"/><circle class="cls-3" cx="15.9" cy="3.38" r="1.84"/><circle class="cls-3" cx="9.63" cy="9.55" r="1.84"/><circle class="cls-3" cx="15.86" cy="9.55" r="1.84"/><circle class="cls-3" cx="21.95" cy="9.54" r="1.84"/><circle class="cls-3" cx="3.47" cy="15.75" r="1.84"/><circle class="cls-3" cx="9.63" cy="15.76" r="1.84"/><circle class="cls-3" cx="15.86" cy="15.76" r="1.84"/><circle class="cls-3" cx="15.86" cy="21.87" r="1.84"/><circle class="cls-3" cx="15.86" cy="28.07" r="1.84"/><rect class="cls-1" x="19.46" y="34.25" width="4.98" height="4.98"/><rect class="cls-2" x="0.59" y="33.83" width="5.82" height="5.82"/><rect class="cls-2" x="6.75" y="33.83" width="5.82" height="5.82"/><rect class="cls-2" x="12.89" y="33.83" width="5.82" height="5.82"/><rect class="cls-2" x="0.59" y="39.99" width="5.82" height="5.82"/><rect class="cls-2" x="6.75" y="39.99" width="5.82" height="5.82"/><rect class="cls-2" x="12.89" y="39.99" width="5.82" height="5.82"/><rect class="cls-2" x="19.04" y="40" width="5.82" height="5.82"/><rect class="cls-2" x="0.59" y="46.12" width="5.82" height="5.82"/><rect class="cls-2" x="6.75" y="46.13" width="5.82" height="5.82"/><rect class="cls-2" x="12.89" y="46.13" width="5.82" height="5.82"/><rect class="cls-2" x="19.04" y="46.13" width="5.82" height="5.82"/><rect class="cls-2" x="0.59" y="52.28" width="5.82" height="5.82"/><rect class="cls-2" x="6.75" y="52.29" width="5.82" height="5.82"/><rect class="cls-2" x="12.89" y="52.29" width="5.82" height="5.82"/><rect class="cls-2" x="19.04" y="52.29" width="5.82" height="5.82"/><rect class="cls-2" x="0.59" y="58.44" width="5.82" height="5.82"/><rect class="cls-2" x="6.75" y="58.45" width="5.82" height="5.82"/><rect class="cls-2" x="12.89" y="58.45" width="5.82" height="5.82"/><rect class="cls-2" x="19.04" y="58.45" width="5.82" height="5.82"/><circle class="cls-3" cx="3.5" cy="36.74" r="1.84"/><circle class="cls-3" cx="9.66" cy="36.74" r="1.84"/><circle class="cls-3" cx="3.46" cy="42.9" r="1.84"/><circle class="cls-3" cx="21.94" cy="49.1" r="1.84"/><circle class="cls-3" cx="3.46" cy="55.22" r="1.84"/><circle class="cls-3" cx="9.62" cy="55.19" r="1.84"/><circle class="cls-3" cx="21.94" cy="55.21" r="1.84"/><circle class="cls-3" cx="3.46" cy="61.42" r="1.84"/><circle class="cls-3" cx="9.62" cy="61.55" r="1.84"/><circle class="cls-3" cx="21.94" cy="61.41" r="1.84"/><rect class="cls-4" x="25.33" y="34.05" width="5.72" height="30.12"/><circle class="cls-3" cx="15.89" cy="36.74" r="1.84"/><circle class="cls-3" cx="9.62" cy="42.91" r="1.84"/><circle class="cls-3" cx="15.86" cy="42.91" r="1.84"/><circle class="cls-3" cx="21.94" cy="42.9" r="1.84"/><circle class="cls-3" cx="3.46" cy="49.11" r="1.84"/><circle class="cls-3" cx="9.62" cy="49.12" r="1.84"/><circle class="cls-3" cx="15.86" cy="49.12" r="1.84"/><circle class="cls-3" cx="15.86" cy="55.22" r="1.84"/><circle class="cls-3" cx="15.86" cy="61.43" r="1.84"/><line class="cls-5" x1="9.66" y1="9.54" x2="9.66" y2="15.68"/><line class="cls-5" x1="15.8" y1="9.55" x2="9.66" y2="9.54"/><line class="cls-5" x1="3.5" y1="15.67" x2="9.66" y2="15.67"/><line class="cls-5" x1="15.8" y1="3.38" x2="15.8" y2="9.55"/><line class="cls-5" x1="20.37" y1="3.4" x2="15.8" y2="3.38"/><text class="cls-6" transform="translate(20.12 3.92)">+2</text><line class="cls-7" x1="15.8" y1="61.36" x2="15.8" y2="55.2"/><line class="cls-7" x1="15.8" y1="49.04" x2="15.8" y2="55.2"/><line class="cls-7" x1="15.8" y1="42.9" x2="15.8" y2="49.04"/><line class="cls-7" x1="21.95" y1="42.91" x2="15.8" y2="42.9"/><line class="cls-7" x1="26.45" y1="42.92" x2="21.95" y2="42.91"/><text class="cls-6" transform="translate(26.3 43.76)">-1</text></svg>