<svg id="Layer_1" data-name="Layer 1" xmlns="http://www.w3.org/2000/svg" viewBox="0 0 200 125.95339">
  <defs>
    <style>
      .cls-1 {
        fill: #e7ebe8;
      }

      .cls-2 {
        fill: #fff;
      }

      .cls-3 {
        fill: #70a8da;
        opacity: 0.5;
      }

      .cls-4 {
        fill: #010101;
      }
    </style>
  </defs>
  <title>value</title>
  <rect class="cls-1" x="0.1308" y="45.95203" width="79.83102" height="79.83102"/>
  <circle class="cls-2" cx="40.89295" cy="86.86459" r="25.28539"/>
  <circle class="cls-3" cx="40.89076" cy="86.89476" r="25.28539"/>
  <g>
    <path id="MJMATHI-56" class="cls-4" d="M.40439,3.45186a1.38971,1.38971,0,0,1,.382-1.02841h.32322q1.23408.08815,3.08522.08815,3.46721,0,4.08424-.08815h.29383q.17631.17629.1763.26445t-.05876.52889a1.61868,1.61868,0,0,1-.26445.55828h-.617q-.64642.05877-.88149.05877-.85211.14691-.94025.44074,0,.05877.8521,7.37515t.8815,7.37515l2.145-3.43782q2.145-3.43782,4.28993-6.9344t2.20372-3.61412a.87391.87391,0,0,0,.11754-.44074q0-.7052-1.29286-.82273-.52888,0-.52889-.32321,0-.02938.05876-.382a1.58146,1.58146,0,0,1,.1763-.5289.4665.4665,0,0,1,.382-.11753h.3526q.29384,0,.999.02938t1.88052.02939q2.02743,0,2.55632-.05877h.20569q.20568.20568.20568.32321a1.79725,1.79725,0,0,1-.26445.94026.84074.84074,0,0,1-.49951.08815q-.382.02938-.7052.05877a2.18511,2.18511,0,0,0-.617.14691q-.29384.11754-.47013.20568a1.84046,1.84046,0,0,0-.3526.23507,1.64346,1.64346,0,0,1-.29383.20568.63867.63867,0,0,0-.23506.26445q-.11754.20568-.20568.20568l-5.67093,9.10875q-5.289,8.55046-5.46525,8.75615-.08816.05877-.20568.14691l-.5289.02939H5.75211q-.5289,0-.52889-.20568-.08815-.17631-1.14594-9.40258-1.11655-9.34381-1.14594-9.432-.14692-.32322-1.82175-.32322H.61008A.407.407,0,0,1,.40439,3.45186Z"/>
    <path id="MJMAIN-28" class="cls-4" d="M24.23405,15.14632a24.16872,24.16872,0,0,1,.29383-3.84919,26.93059,26.93059,0,0,1,.67581-3.144,12.30409,12.30409,0,0,1,1.08718-2.58571q.70519-1.26348,1.11655-1.96867a7.80487,7.80487,0,0,1,1.23409-1.52792q.82274-.82272.96964-.999a5.29651,5.29651,0,0,1,.73458-.617h.49951q.41136,0,.41136.26444a2.37409,2.37409,0,0,1-.49951.617,13.33966,13.33966,0,0,0-1.2047,1.5573,20.32866,20.32866,0,0,0-1.43977,2.52694,16.71638,16.71638,0,0,0-1.23409,4.05486,29.65605,29.65605,0,0,0-.49951,5.67094,29.19474,29.19474,0,0,0,.49951,5.64154,19.08359,19.08359,0,0,0,1.2047,4.08425A13.3079,13.3079,0,0,0,29.523,27.39905q.73458.96965,1.23409,1.5573a6.63685,6.63685,0,0,1,.49951.617q0,.26444-.44074.26444h-.47013l-.82273-.70519a14.50029,14.50029,0,0,1-4.02547-6.22921A24.02341,24.02341,0,0,1,24.23405,15.14632Z"/>
    <path id="MJMATHI-73" class="cls-4" d="M36.78062,14.00038a4.35435,4.35435,0,0,1,.47013-1.9099,4.834,4.834,0,0,1,1.64545-1.79237,4.69478,4.69478,0,0,1,2.85016-.79334,3.71231,3.71231,0,0,1,2.64447.79334,2.51747,2.51747,0,0,1,.85211,1.763,1.74988,1.74988,0,0,1-.49951,1.381,1.7802,1.7802,0,0,1-1.11656.47013,1.17362,1.17362,0,0,1-.70519-.23507.95062.95062,0,0,1-.3526-.764,1.33331,1.33331,0,0,1,.26445-.82272,2.63947,2.63947,0,0,1,.49951-.5289.71112.71112,0,0,1,.382-.1763.026.026,0,0,0,.02938-.02938q0-.08816-.20568-.26445a2.007,2.007,0,0,0-.73457-.32321,5.19936,5.19936,0,0,0-1.14594-.1763,2.4853,2.4853,0,0,0-2.73263,2.32126,1.06223,1.06223,0,0,0,.55828,1.02841,6.09379,6.09379,0,0,0,1.61607.49951,6.43893,6.43893,0,0,1,1.52792.44075,2.90392,2.90392,0,0,1,1.93928,2.82077,4.4714,4.4714,0,0,1-.32321,1.64545,6.57261,6.57261,0,0,1-.96964,1.64545,4.25065,4.25065,0,0,1-1.85114,1.29286,7.97851,7.97851,0,0,1-2.762.49951,4.75284,4.75284,0,0,1-3.20276-.85211,2.71846,2.71846,0,0,1-.96964-1.99805,1.99828,1.99828,0,0,1,.617-1.64545,2.02884,2.02884,0,0,1,1.29285-.49951,1.41775,1.41775,0,0,1,.82273.26445,1.0939,1.0939,0,0,1,.41136.91087,1.75863,1.75863,0,0,1-.5289,1.29286,1.44708,1.44708,0,0,1-.91087.52889.22554.22554,0,0,1-.08815.02939q-.02939,0-.02938.05876a.635.635,0,0,0,.23506.23507,4.1025,4.1025,0,0,0,.91088.382,5.77909,5.77909,0,0,0,3.43781-.11754,2.52421,2.52421,0,0,0,1.11656-.82272,3.90081,3.90081,0,0,0,.49951-.91088,2.2161,2.2161,0,0,0,.14692-.73457,1.38424,1.38424,0,0,0-.617-1.23409,3.12338,3.12338,0,0,0-1.41038-.49951,7.27225,7.27225,0,0,1-1.7336-.44075,2.71918,2.71918,0,0,1-1.381-1.02841A2.95756,2.95756,0,0,1,36.78062,14.00038Z"/>
    <path id="MJMAIN-29" class="cls-4" d="M48.47508.48417l.11753-.02938H49.239l.82272.70519a14.50022,14.50022,0,0,1,4.02548,6.22921,24.02369,24.02369,0,0,1,1.26347,7.75713,24.52918,24.52918,0,0,1-.29383,3.84918,25.26442,25.26442,0,0,1-.67581,3.144,13.23351,13.23351,0,0,1-1.08717,2.58571q-.70519,1.29285-1.11656,1.96867a8.93816,8.93816,0,0,1-1.2047,1.49853q-.79335.82274-.94026.96964t-.67581.55828l-.11753.11753h-.67581a.17266.17266,0,0,1-.14692-.08815.69162.69162,0,0,1-.08815-.26444q.02939-.02939.32321-.382,4.55438-4.73067,4.55438-13.95695t-4.55438-13.957q-.29382-.35259-.32321-.382A.34534.34534,0,0,1,48.47508.48417Z"/>
  </g>
</svg>
