<svg version="1.1" viewBox="0.0 0.0 755.6482939632546 444.4540682414698" fill="none" stroke="none" stroke-linecap="square" stroke-miterlimit="10" xmlns:xlink="http://www.w3.org/1999/xlink" xmlns="http://www.w3.org/2000/svg"><clipPath id="p.0"><path d="m0 0l755.6483 0l0 444.45407l-755.6483 0l0 -444.45407z" clip-rule="nonzero"/></clipPath><g clip-path="url(#p.0)"><path fill="#000000" fill-opacity="0.0" d="m0 0l755.6483 0l0 444.45407l-755.6483 0z" fill-rule="evenodd"/><path fill="#000000" fill-opacity="0.0" d="m70.144356 3.96063l99.1811 0l0 34.771656l-99.1811 0z" fill-rule="evenodd"/><path fill="#000000" d="m94.20374 30.880629l0 -13.359375l5.046875 0q1.328125 0 2.03125 0.125q0.96875 0.171875 1.640625 0.640625q0.671875 0.453125 1.078125 1.28125q0.40625 0.828125 0.40625 1.828125q0 1.703125 -1.09375 2.890625q-1.078125 1.171875 -3.921875 1.171875l-3.421875 0l0 5.421875l-1.765625 0zm1.765625 -7.0l3.453125 0q1.71875 0 2.4375 -0.640625q0.71875 -0.640625 0.71875 -1.796875q0 -0.84375 -0.421875 -1.4375q-0.421875 -0.59375 -1.125 -0.78125q-0.4375 -0.125 -1.640625 -0.125l-3.421875 0l0 4.78125zm16.787323 5.8125q-0.921875 0.765625 -1.765625 1.09375q-0.828125 0.3125 -1.796875 0.3125q-1.59375 0 -2.453125 -0.78125q-0.859375 -0.78125 -0.859375 -1.984375q0 -0.71875 0.328125 -1.296875q0.328125 -0.59375 0.84375 -0.9375q0.53125 -0.359375 1.1875 -0.546875q0.46875 -0.125 1.453125 -0.25q1.984375 -0.234375 2.921875 -0.5625q0.015625 -0.34375 0.015625 -0.421875q0 -1.0 -0.46875 -1.421875q-0.625 -0.546875 -1.875 -0.546875q-1.15625 0 -1.703125 0.40625q-0.546875 0.40625 -0.8125 1.421875l-1.609375 -0.21875q0.21875 -1.015625 0.71875 -1.640625q0.5 -0.640625 1.453125 -0.984375q0.953125 -0.34375 2.1875 -0.34375q1.25 0 2.015625 0.296875q0.78125 0.28125 1.140625 0.734375q0.375 0.4375 0.515625 1.109375q0.078125 0.421875 0.078125 1.515625l0 2.1875q0 2.28125 0.109375 2.890625q0.109375 0.59375 0.40625 1.15625l-1.703125 0q-0.265625 -0.515625 -0.328125 -1.1875zm-0.140625 -3.671875q-0.890625 0.375 -2.671875 0.625q-1.015625 0.140625 -1.4375 0.328125q-0.421875 0.1875 -0.65625 0.53125q-0.21875 0.34375 -0.21875 0.78125q0 0.65625 0.5 1.09375q0.5 0.4375 1.453125 0.4375q0.9375 0 1.671875 -0.40625q0.75 -0.421875 1.09375 -1.140625q0.265625 -0.5625 0.265625 -1.640625l0 -0.609375zm7.781967 3.390625l0.234375 1.453125q-0.6875 0.140625 -1.234375 0.140625q-0.890625 0 -1.390625 -0.28125q-0.484375 -0.28125 -0.6875 -0.734375q-0.203125 -0.46875 -0.203125 -1.9375l0 -5.578125l-1.203125 0l0 -1.265625l1.203125 0l0 -2.390625l1.625 -0.984375l0 3.375l1.65625 0l0 1.265625l-1.65625 0l0 5.671875q0 0.6875 0.078125 0.890625q0.09375 0.203125 0.28125 0.328125q0.203125 0.109375 0.578125 0.109375q0.265625 0 0.71875 -0.0625zm1.6051788 1.46875l0 -13.359375l1.640625 0l0 4.796875q1.140625 -1.328125 2.890625 -1.328125q1.078125 0 1.8593674 0.421875q0.796875 0.421875 1.140625 1.171875q0.34375 0.75 0.34375 2.171875l0 6.125l-1.640625 0l0 -6.125q0 -1.234375 -0.5312424 -1.796875q-0.53125 -0.5625 -1.515625 -0.5625q-0.71875 0 -1.359375 0.390625q-0.640625 0.375 -0.921875 1.015625q-0.265625 0.640625 -0.265625 1.78125l0 5.296875l-1.640625 0zm21.277779 0l-1.640625 0l0 -10.453125q-0.59375 0.5625 -1.5625 1.140625q-0.953125 0.5625 -1.71875 0.84375l0 -1.59375q1.375 -0.640625 2.40625 -1.5625q1.03125 -0.921875 1.453125 -1.78125l1.0625 0l0 13.40625z" fill-rule="nonzero"/><path fill="#000000" fill-opacity="0.0" d="m327.4777 3.96063l99.18109 0l0 34.771656l-99.18109 0z" fill-rule="evenodd"/><path fill="#000000" d="m351.53708 30.880629l0 -13.359375l5.046875 0q1.328125 0 2.03125 0.125q0.96875 0.171875 1.640625 0.640625q0.671875 0.453125 1.078125 1.28125q0.40625 0.828125 0.40625 1.828125q0 1.703125 -1.09375 2.890625q-1.078125 1.171875 -3.921875 1.171875l-3.421875 0l0 5.421875l-1.765625 0zm1.765625 -7.0l3.453125 0q1.71875 0 2.4375 -0.640625q0.71875 -0.640625 0.71875 -1.796875q0 -0.84375 -0.421875 -1.4375q-0.421875 -0.59375 -1.125 -0.78125q-0.4375 -0.125 -1.640625 -0.125l-3.421875 0l0 4.78125zm16.787323 5.8125q-0.921875 0.765625 -1.765625 1.09375q-0.828125 0.3125 -1.796875 0.3125q-1.59375 0 -2.453125 -0.78125q-0.859375 -0.78125 -0.859375 -1.984375q0 -0.71875 0.328125 -1.296875q0.328125 -0.59375 0.84375 -0.9375q0.53125 -0.359375 1.1875 -0.546875q0.46875 -0.125 1.453125 -0.25q1.984375 -0.234375 2.921875 -0.5625q0.015625 -0.34375 0.015625 -0.421875q0 -1.0 -0.46875 -1.421875q-0.625 -0.546875 -1.875 -0.546875q-1.15625 0 -1.703125 0.40625q-0.546875 0.40625 -0.8125 1.421875l-1.609375 -0.21875q0.21875 -1.015625 0.71875 -1.640625q0.5 -0.640625 1.453125 -0.984375q0.953125 -0.34375 2.1875 -0.34375q1.25 0 2.015625 0.296875q0.78125 0.28125 1.140625 0.734375q0.375 0.4375 0.515625 1.109375q0.078125 0.421875 0.078125 1.515625l0 2.1875q0 2.28125 0.109375 2.890625q0.109375 0.59375 0.40625 1.15625l-1.703125 0q-0.265625 -0.515625 -0.328125 -1.1875zm-0.140625 -3.671875q-0.890625 0.375 -2.671875 0.625q-1.015625 0.140625 -1.4375 0.328125q-0.421875 0.1875 -0.65625 0.53125q-0.21875 0.34375 -0.21875 0.78125q0 0.65625 0.5 1.09375q0.5 0.4375 1.453125 0.4375q0.9375 0 1.671875 -0.40625q0.75 -0.421875 1.09375 -1.140625q0.265625 -0.5625 0.265625 -1.640625l0 -0.609375zm7.781952 3.390625l0.234375 1.453125q-0.6875 0.140625 -1.234375 0.140625q-0.890625 0 -1.390625 -0.28125q-0.484375 -0.28125 -0.6875 -0.734375q-0.203125 -0.46875 -0.203125 -1.9375l0 -5.578125l-1.203125 0l0 -1.265625l1.203125 0l0 -2.390625l1.625 -0.984375l0 3.375l1.65625 0l0 1.265625l-1.65625 0l0 5.671875q0 0.6875 0.078125 0.890625q0.09375 0.203125 0.28125 0.328125q0.203125 0.109375 0.578125 0.109375q0.265625 0 0.71875 -0.0625zm1.6051941 1.46875l0 -13.359375l1.640625 0l0 4.796875q1.140625 -1.328125 2.890625 -1.328125q1.078125 0 1.859375 0.421875q0.796875 0.421875 1.140625 1.171875q0.34375 0.75 0.34375 2.171875l0 6.125l-1.640625 0l0 -6.125q0 -1.234375 -0.53125 -1.796875q-0.53125 -0.5625 -1.515625 -0.5625q-0.71875 0 -1.359375 0.390625q-0.640625 0.375 -0.921875 1.015625q-0.265625 0.640625 -0.265625 1.78125l0 5.296875l-1.640625 0zm23.715271 -1.578125l0 1.578125l-8.828125 0q-0.015625 -0.59375 0.1875 -1.140625q0.34375 -0.90625 1.078125 -1.78125q0.75 -0.875 2.15625 -2.015625q2.171875 -1.78125 2.9375 -2.828125q0.765625 -1.046875 0.765625 -1.96875q0 -0.984375 -0.703125 -1.640625q-0.6875 -0.671875 -1.8125 -0.671875q-1.1875 0 -1.90625 0.71875q-0.703125 0.703125 -0.703125 1.953125l-1.6875 -0.171875q0.171875 -1.890625 1.296875 -2.875q1.140625 -0.984375 3.03125 -0.984375q1.921875 0 3.046875 1.0625q1.125 1.0625 1.125 2.640625q0 0.796875 -0.328125 1.578125q-0.328125 0.78125 -1.09375 1.640625q-0.75 0.84375 -2.53125 2.34375q-1.46875 1.234375 -1.890625 1.6875q-0.421875 0.4375 -0.6875 0.875l6.546875 0z" fill-rule="nonzero"/><path fill="#000000" fill-opacity="0.0" d="m584.81104 3.96063l99.18109 0l0 34.771656l-99.18109 0z" fill-rule="evenodd"/><path fill="#000000" d="m608.8704 30.880629l0 -13.359375l5.046875 0q1.328125 0 2.03125 0.125q0.96875 0.171875 1.640625 0.640625q0.671875 0.453125 1.078125 1.28125q0.40625 0.828125 0.40625 1.828125q0 1.703125 -1.09375 2.890625q-1.078125 1.171875 -3.921875 1.171875l-3.421875 0l0 5.421875l-1.765625 0zm1.765625 -7.0l3.453125 0q1.71875 0 2.4375 -0.640625q0.71875 -0.640625 0.71875 -1.796875q0 -0.84375 -0.421875 -1.4375q-0.421875 -0.59375 -1.125 -0.78125q-0.4375 -0.125 -1.640625 -0.125l-3.421875 0l0 4.78125zm16.787292 5.8125q-0.921875 0.765625 -1.765625 1.09375q-0.828125 0.3125 -1.796875 0.3125q-1.59375 0 -2.453125 -0.78125q-0.859375 -0.78125 -0.859375 -1.984375q0 -0.71875 0.328125 -1.296875q0.328125 -0.59375 0.84375 -0.9375q0.53125 -0.359375 1.1875 -0.546875q0.46875 -0.125 1.453125 -0.25q1.984375 -0.234375 2.921875 -0.5625q0.015625 -0.34375 0.015625 -0.421875q0 -1.0 -0.46875 -1.421875q-0.625 -0.546875 -1.875 -0.546875q-1.15625 0 -1.703125 0.40625q-0.546875 0.40625 -0.8125 1.421875l-1.609375 -0.21875q0.21875 -1.015625 0.71875 -1.640625q0.5 -0.640625 1.453125 -0.984375q0.953125 -0.34375 2.1875 -0.34375q1.25 0 2.015625 0.296875q0.78125 0.28125 1.140625 0.734375q0.375 0.4375 0.515625 1.109375q0.078125 0.421875 0.078125 1.515625l0 2.1875q0 2.28125 0.109375 2.890625q0.109375 0.59375 0.40625 1.15625l-1.703125 0q-0.265625 -0.515625 -0.328125 -1.1875zm-0.140625 -3.671875q-0.890625 0.375 -2.671875 0.625q-1.015625 0.140625 -1.4375 0.328125q-0.421875 0.1875 -0.65625 0.53125q-0.21875 0.34375 -0.21875 0.78125q0 0.65625 0.5 1.09375q0.5 0.4375 1.453125 0.4375q0.9375 0 1.671875 -0.40625q0.75 -0.421875 1.09375 -1.140625q0.265625 -0.5625 0.265625 -1.640625l0 -0.609375zm7.7819824 3.390625l0.234375 1.453125q-0.6875 0.140625 -1.234375 0.140625q-0.890625 0 -1.390625 -0.28125q-0.484375 -0.28125 -0.6875 -0.734375q-0.203125 -0.46875 -0.203125 -1.9375l0 -5.578125l-1.203125 0l0 -1.265625l1.203125 0l0 -2.390625l1.625 -0.984375l0 3.375l1.65625 0l0 1.265625l-1.65625 0l0 5.671875q0 0.6875 0.078125 0.890625q0.09375 0.203125 0.28125 0.328125q0.203125 0.109375 0.578125 0.109375q0.265625 0 0.71875 -0.0625zm1.6051636 1.46875l0 -13.359375l1.640625 0l0 4.796875q1.140625 -1.328125 2.890625 -1.328125q1.078125 0 1.859375 0.421875q0.796875 0.421875 1.140625 1.171875q0.34375 0.75 0.34375 2.171875l0 6.125l-1.640625 0l0 -6.125q0 -1.234375 -0.53125 -1.796875q-0.53125 -0.5625 -1.515625 -0.5625q-0.71875 0 -1.359375 0.390625q-0.640625 0.375 -0.921875 1.015625q-0.265625 0.640625 -0.265625 1.78125l0 5.296875l-1.640625 0zm15.105896 -3.53125l1.640625 -0.21875q0.28125 1.40625 0.953125 2.015625q0.6875 0.609375 1.65625 0.609375q1.15625 0 1.953125 -0.796875q0.796875 -0.796875 0.796875 -1.984375q0 -1.125 -0.734375 -1.859375q-0.734375 -0.734375 -1.875 -0.734375q-0.46875 0 -1.15625 0.171875l0.1875 -1.4375q0.15625 0.015625 0.265625 0.015625q1.046875 0 1.875 -0.546875q0.84375 -0.546875 0.84375 -1.671875q0 -0.90625 -0.609375 -1.5q-0.609375 -0.59375 -1.578125 -0.59375q-0.953125 0 -1.59375 0.609375q-0.640625 0.59375 -0.8125 1.796875l-1.640625 -0.296875q0.296875 -1.640625 1.359375 -2.546875q1.0625 -0.90625 2.65625 -0.90625q1.09375 0 2.0 0.46875q0.921875 0.46875 1.40625 1.28125q0.5 0.8125 0.5 1.71875q0 0.859375 -0.46875 1.578125q-0.46875 0.703125 -1.375 1.125q1.1875 0.28125 1.84375 1.140625q0.65625 0.859375 0.65625 2.15625q0 1.734375 -1.28125 2.953125q-1.265625 1.21875 -3.21875 1.21875q-1.765625 0 -2.921875 -1.046875q-1.15625 -1.046875 -1.328125 -2.71875z" fill-rule="nonzero"/><path fill="#efefef" d="m5.2769027 215.00525l0 -57.228348l57.228348 0l0 57.228348z" fill-rule="evenodd"/><path stroke="#000000" stroke-width="3.0" stroke-linejoin="round" stroke-linecap="butt" d="m5.2769027 215.00525l0 -57.228348l57.228348 0l0 57.228348z" fill-rule="evenodd"/><path fill="#efefef" d="m5.2769027 157.7769l0 -57.228348l57.228348 0l0 57.228348z" fill-rule="evenodd"/><path stroke="#000000" stroke-width="3.0" stroke-linejoin="round" stroke-linecap="butt" d="m5.2769027 157.7769l0 -57.228348l57.228348 0l0 57.228348z" fill-rule="evenodd"/><path fill="#efefef" d="m62.50525 215.00525l0 -57.228348l57.228348 0l0 57.228348z" fill-rule="evenodd"/><path stroke="#000000" stroke-width="3.0" stroke-linejoin="round" stroke-linecap="butt" d="m62.50525 215.00525l0 -57.228348l57.228348 0l0 57.228348z" fill-rule="evenodd"/><path fill="#efefef" d="m62.50525 157.7769l0 -57.228348l57.228348 0l0 57.228348z" fill-rule="evenodd"/><path stroke="#000000" stroke-width="3.0" stroke-linejoin="round" stroke-linecap="butt" d="m62.50525 157.7769l0 -57.228348l57.228348 0l0 57.228348z" fill-rule="evenodd"/><path fill="#efefef" d="m119.7336 215.00525l0 -57.228348l57.228348 0l0 57.228348z" fill-rule="evenodd"/><path stroke="#000000" stroke-width="3.0" stroke-linejoin="round" stroke-linecap="butt" d="m119.7336 215.00525l0 -57.228348l57.228348 0l0 57.228348z" fill-rule="evenodd"/><path fill="#efefef" d="m119.7336 157.7769l0 -57.228348l57.228348 0l0 57.228348z" fill-rule="evenodd"/><path stroke="#000000" stroke-width="3.0" stroke-linejoin="round" stroke-linecap="butt" d="m119.7336 157.7769l0 -57.228348l57.228348 0l0 57.228348z" fill-rule="evenodd"/><path fill="#b7b7b7" d="m5.2769027 100.54855l0 -57.228344l57.228348 0l0 57.228344z" fill-rule="evenodd"/><path stroke="#000000" stroke-width="3.0" stroke-linejoin="round" stroke-linecap="butt" d="m5.2769027 100.54855l0 -57.228344l57.228348 0l0 57.228344z" fill-rule="evenodd"/><path fill="#efefef" d="m62.50525 100.54855l0 -57.228344l57.228348 0l0 57.228344z" fill-rule="evenodd"/><path stroke="#000000" stroke-width="3.0" stroke-linejoin="round" stroke-linecap="butt" d="m62.50525 100.54855l0 -57.228344l57.228348 0l0 57.228344z" fill-rule="evenodd"/><path fill="#efefef" d="m119.7336 100.54855l0 -57.228344l57.228348 0l0 57.228344z" fill-rule="evenodd"/><path stroke="#000000" stroke-width="3.0" stroke-linejoin="round" stroke-linecap="butt" d="m119.7336 100.54855l0 -57.228344l57.228348 0l0 57.228344z" fill-rule="evenodd"/><path fill="#efefef" d="m176.96194 215.00525l0 -57.228348l57.228348 0l0 57.228348z" fill-rule="evenodd"/><path stroke="#000000" stroke-width="3.0" stroke-linejoin="round" stroke-linecap="butt" d="m176.96194 215.00525l0 -57.228348l57.228348 0l0 57.228348z" fill-rule="evenodd"/><path fill="#b7b7b7" d="m176.96194 157.7769l0 -57.228348l57.228348 0l0 57.228348z" fill-rule="evenodd"/><path stroke="#000000" stroke-width="3.0" stroke-linejoin="round" stroke-linecap="butt" d="m176.96194 157.7769l0 -57.228348l57.228348 0l0 57.228348z" fill-rule="evenodd"/><path fill="#efefef" d="m176.96194 100.54855l0 -57.228344l57.228348 0l0 57.228344z" fill-rule="evenodd"/><path stroke="#000000" stroke-width="3.0" stroke-linejoin="round" stroke-linecap="butt" d="m176.96194 100.54855l0 -57.228344l57.228348 0l0 57.228344z" fill-rule="evenodd"/><path fill="#000000" fill-opacity="0.0" d="m33.51702 133.46194l0 0c-2.3743877 0 -4.2992115 -1.92482 -4.2992115 -4.2992096l0 0c0 -1.1402283 0.45295143 -2.2337494 1.2592106 -3.0400085c0.80625916 -0.80625916 1.8997803 -1.2592087 3.040001 -1.2592087l0 0c2.3743896 0 4.2992134 1.92482 4.2992134 4.299217l0 0c0 2.3743896 -1.9248238 4.2992096 -4.2992134 4.2992096z" fill-rule="evenodd"/><path stroke="#000000" stroke-width="3.0" stroke-linejoin="round" stroke-linecap="butt" d="m33.51702 133.46194l0 0c-2.3743877 0 -4.2992115 -1.92482 -4.2992115 -4.2992096l0 0c0 -1.1402283 0.45295143 -2.2337494 1.2592106 -3.0400085c0.80625916 -0.80625916 1.8997803 -1.2592087 3.040001 -1.2592087l0 0c2.3743896 0 4.2992134 1.92482 4.2992134 4.299217l0 0c0 2.3743896 -1.9248238 4.2992096 -4.2992134 4.2992096z" fill-rule="evenodd"/><path fill="#efefef" d="m262.61023 215.00525l0 -57.228348l57.228363 0l0 57.228348z" fill-rule="evenodd"/><path stroke="#000000" stroke-width="3.0" stroke-linejoin="round" stroke-linecap="butt" d="m262.61023 215.00525l0 -57.228348l57.228363 0l0 57.228348z" fill-rule="evenodd"/><path fill="#efefef" d="m262.61023 157.7769l0 -57.228348l57.228363 0l0 57.228348z" fill-rule="evenodd"/><path stroke="#000000" stroke-width="3.0" stroke-linejoin="round" stroke-linecap="butt" d="m262.61023 157.7769l0 -57.228348l57.228363 0l0 57.228348z" fill-rule="evenodd"/><path fill="#efefef" d="m319.8386 215.00525l0 -57.228348l57.228333 0l0 57.228348z" fill-rule="evenodd"/><path stroke="#000000" stroke-width="3.0" stroke-linejoin="round" stroke-linecap="butt" d="m319.8386 215.00525l0 -57.228348l57.228333 0l0 57.228348z" fill-rule="evenodd"/><path fill="#efefef" d="m319.8386 157.7769l0 -57.228348l57.228333 0l0 57.228348z" fill-rule="evenodd"/><path stroke="#000000" stroke-width="3.0" stroke-linejoin="round" stroke-linecap="butt" d="m319.8386 157.7769l0 -57.228348l57.228333 0l0 57.228348z" fill-rule="evenodd"/><path fill="#efefef" d="m377.06693 215.00525l0 -57.228348l57.228363 0l0 57.228348z" fill-rule="evenodd"/><path stroke="#000000" stroke-width="3.0" stroke-linejoin="round" stroke-linecap="butt" d="m377.06693 215.00525l0 -57.228348l57.228363 0l0 57.228348z" fill-rule="evenodd"/><path fill="#efefef" d="m377.06693 157.7769l0 -57.228348l57.228363 0l0 57.228348z" fill-rule="evenodd"/><path stroke="#000000" stroke-width="3.0" stroke-linejoin="round" stroke-linecap="butt" d="m377.06693 157.7769l0 -57.228348l57.228363 0l0 57.228348z" fill-rule="evenodd"/><path fill="#b7b7b7" d="m262.61023 100.54855l0 -57.228344l57.228363 0l0 57.228344z" fill-rule="evenodd"/><path stroke="#000000" stroke-width="3.0" stroke-linejoin="round" stroke-linecap="butt" d="m262.61023 100.54855l0 -57.228344l57.228363 0l0 57.228344z" fill-rule="evenodd"/><path fill="#efefef" d="m319.8386 100.54855l0 -57.228344l57.228333 0l0 57.228344z" fill-rule="evenodd"/><path stroke="#000000" stroke-width="3.0" stroke-linejoin="round" stroke-linecap="butt" d="m319.8386 100.54855l0 -57.228344l57.228333 0l0 57.228344z" fill-rule="evenodd"/><path fill="#efefef" d="m377.06693 100.54855l0 -57.228344l57.228363 0l0 57.228344z" fill-rule="evenodd"/><path stroke="#000000" stroke-width="3.0" stroke-linejoin="round" stroke-linecap="butt" d="m377.06693 100.54855l0 -57.228344l57.228363 0l0 57.228344z" fill-rule="evenodd"/><path fill="#efefef" d="m434.2953 215.00525l0 -57.228348l57.228333 0l0 57.228348z" fill-rule="evenodd"/><path stroke="#000000" stroke-width="3.0" stroke-linejoin="round" stroke-linecap="butt" d="m434.2953 215.00525l0 -57.228348l57.228333 0l0 57.228348z" fill-rule="evenodd"/><path fill="#b7b7b7" d="m434.2953 157.7769l0 -57.228348l57.228333 0l0 57.228348z" fill-rule="evenodd"/><path stroke="#000000" stroke-width="3.0" stroke-linejoin="round" stroke-linecap="butt" d="m434.2953 157.7769l0 -57.228348l57.228333 0l0 57.228348z" fill-rule="evenodd"/><path fill="#efefef" d="m434.2953 100.54855l0 -57.228344l57.228333 0l0 57.228344z" fill-rule="evenodd"/><path stroke="#000000" stroke-width="3.0" stroke-linejoin="round" stroke-linecap="butt" d="m434.2953 100.54855l0 -57.228344l57.228333 0l0 57.228344z" fill-rule="evenodd"/><path fill="#000000" fill-opacity="0.0" d="m290.85034 133.46194l0 0c-2.3743896 0 -4.2991943 -1.92482 -4.2991943 -4.2992096l0 0c0 -1.1402283 0.4529419 -2.2337494 1.2592163 -3.0400085c0.8062439 -0.80625916 1.8997803 -1.2592087 3.039978 -1.2592087l0 0c2.3743896 0 4.299225 1.92482 4.299225 4.299217l0 0c0 2.3743896 -1.9248352 4.2992096 -4.299225 4.2992096z" fill-rule="evenodd"/><path stroke="#000000" stroke-width="3.0" stroke-linejoin="round" stroke-linecap="butt" d="m290.85034 133.46194l0 0c-2.3743896 0 -4.2991943 -1.92482 -4.2991943 -4.2992096l0 0c0 -1.1402283 0.4529419 -2.2337494 1.2592163 -3.0400085c0.8062439 -0.80625916 1.8997803 -1.2592087 3.039978 -1.2592087l0 0c2.3743896 0 4.299225 1.92482 4.299225 4.299217l0 0c0 2.3743896 -1.9248352 4.2992096 -4.299225 4.2992096z" fill-rule="evenodd"/><path fill="#efefef" d="m519.94354 215.00525l0 -57.228348l57.228394 0l0 57.228348z" fill-rule="evenodd"/><path stroke="#000000" stroke-width="3.0" stroke-linejoin="round" stroke-linecap="butt" d="m519.94354 215.00525l0 -57.228348l57.228394 0l0 57.228348z" fill-rule="evenodd"/><path fill="#efefef" d="m519.94354 157.7769l0 -57.228348l57.228394 0l0 57.228348z" fill-rule="evenodd"/><path stroke="#000000" stroke-width="3.0" stroke-linejoin="round" stroke-linecap="butt" d="m519.94354 157.7769l0 -57.228348l57.228394 0l0 57.228348z" fill-rule="evenodd"/><path fill="#efefef" d="m577.17194 215.00525l0 -57.228348l57.228333 0l0 57.228348z" fill-rule="evenodd"/><path stroke="#000000" stroke-width="3.0" stroke-linejoin="round" stroke-linecap="butt" d="m577.17194 215.00525l0 -57.228348l57.228333 0l0 57.228348z" fill-rule="evenodd"/><path fill="#efefef" d="m577.17194 157.7769l0 -57.228348l57.228333 0l0 57.228348z" fill-rule="evenodd"/><path stroke="#000000" stroke-width="3.0" stroke-linejoin="round" stroke-linecap="butt" d="m577.17194 157.7769l0 -57.228348l57.228333 0l0 57.228348z" fill-rule="evenodd"/><path fill="#efefef" d="m634.40027 215.00525l0 -57.228348l57.228333 0l0 57.228348z" fill-rule="evenodd"/><path stroke="#000000" stroke-width="3.0" stroke-linejoin="round" stroke-linecap="butt" d="m634.40027 215.00525l0 -57.228348l57.228333 0l0 57.228348z" fill-rule="evenodd"/><path fill="#efefef" d="m634.40027 157.7769l0 -57.228348l57.228333 0l0 57.228348z" fill-rule="evenodd"/><path stroke="#000000" stroke-width="3.0" stroke-linejoin="round" stroke-linecap="butt" d="m634.40027 157.7769l0 -57.228348l57.228333 0l0 57.228348z" fill-rule="evenodd"/><path fill="#b7b7b7" d="m519.94354 100.54855l0 -57.228344l57.228394 0l0 57.228344z" fill-rule="evenodd"/><path stroke="#000000" stroke-width="3.0" stroke-linejoin="round" stroke-linecap="butt" d="m519.94354 100.54855l0 -57.228344l57.228394 0l0 57.228344z" fill-rule="evenodd"/><path fill="#efefef" d="m577.17194 100.54855l0 -57.228344l57.228333 0l0 57.228344z" fill-rule="evenodd"/><path stroke="#000000" stroke-width="3.0" stroke-linejoin="round" stroke-linecap="butt" d="m577.17194 100.54855l0 -57.228344l57.228333 0l0 57.228344z" fill-rule="evenodd"/><path fill="#efefef" d="m634.40027 100.54855l0 -57.228344l57.228333 0l0 57.228344z" fill-rule="evenodd"/><path stroke="#000000" stroke-width="3.0" stroke-linejoin="round" stroke-linecap="butt" d="m634.40027 100.54855l0 -57.228344l57.228333 0l0 57.228344z" fill-rule="evenodd"/><path fill="#efefef" d="m691.6286 215.00525l0 -57.228348l57.228333 0l0 57.228348z" fill-rule="evenodd"/><path stroke="#000000" stroke-width="3.0" stroke-linejoin="round" stroke-linecap="butt" d="m691.6286 215.00525l0 -57.228348l57.228333 0l0 57.228348z" fill-rule="evenodd"/><path fill="#b7b7b7" d="m691.6286 157.7769l0 -57.228348l57.228333 0l0 57.228348z" fill-rule="evenodd"/><path stroke="#000000" stroke-width="3.0" stroke-linejoin="round" stroke-linecap="butt" d="m691.6286 157.7769l0 -57.228348l57.228333 0l0 57.228348z" fill-rule="evenodd"/><path fill="#efefef" d="m691.6286 100.54855l0 -57.228344l57.228333 0l0 57.228344z" fill-rule="evenodd"/><path stroke="#000000" stroke-width="3.0" stroke-linejoin="round" stroke-linecap="butt" d="m691.6286 100.54855l0 -57.228344l57.228333 0l0 57.228344z" fill-rule="evenodd"/><path fill="#000000" fill-opacity="0.0" d="m548.1837 133.46194l0 0c-2.3743896 0 -4.2992554 -1.92482 -4.2992554 -4.2992096l0 0c0 -1.1402283 0.4529419 -2.2337494 1.2592163 -3.0400085c0.8062744 -0.80625916 1.8997803 -1.2592087 3.040039 -1.2592087l0 0c2.3743896 0 4.2991943 1.92482 4.2991943 4.299217l0 0c0 2.3743896 -1.9248047 4.2992096 -4.2991943 4.2992096z" fill-rule="evenodd"/><path stroke="#000000" stroke-width="3.0" stroke-linejoin="round" stroke-linecap="butt" d="m548.1837 133.46194l0 0c-2.3743896 0 -4.2992554 -1.92482 -4.2992554 -4.2992096l0 0c0 -1.1402283 0.4529419 -2.2337494 1.2592163 -3.0400085c0.8062744 -0.80625916 1.8997803 -1.2592087 3.040039 -1.2592087l0 0c2.3743896 0 4.2991943 1.92482 4.2991943 4.299217l0 0c0 2.3743896 -1.9248047 4.2992096 -4.2991943 4.2992096z" fill-rule="evenodd"/><path fill="#000000" d="m33.517044 189.13255l0 0c-1.4089775 0 -2.55118 -1.1422119 -2.55118 -2.5511932l0 0c0 -0.6766052 0.26878357 -1.3255157 0.7472229 -1.8039551c0.47844124 -0.47843933 1.1273441 -0.7472229 1.803957 -0.7472229l0 0c1.4089775 0 2.5511818 1.1422119 2.5511818 2.551178l0 0c0 1.4089813 -1.1422043 2.5511932 -2.5511818 2.5511932z" fill-rule="evenodd"/><path stroke="#000000" stroke-width="3.0" stroke-linejoin="round" stroke-linecap="butt" d="m33.517044 189.13255l0 0c-1.4089775 0 -2.55118 -1.1422119 -2.55118 -2.5511932l0 0c0 -0.6766052 0.26878357 -1.3255157 0.7472229 -1.8039551c0.47844124 -0.47843933 1.1273441 -0.7472229 1.803957 -0.7472229l0 0c1.4089775 0 2.5511818 1.1422119 2.5511818 2.551178l0 0c0 1.4089813 -1.1422043 2.5511932 -2.5511818 2.5511932z" fill-rule="evenodd"/><path fill="#000000" d="m90.43568 189.19554l0 0c-1.4089737 0 -2.551178 -1.1422119 -2.551178 -2.551178l0 0c0 -0.6766205 0.26878357 -1.325531 0.7472229 -1.8039703c0.47843933 -0.47843933 1.1273422 -0.7472229 1.8039551 -0.7472229l0 0c1.4089813 0 2.5511856 1.1422119 2.5511856 2.5511932l0 0c0 1.4089661 -1.1422043 2.551178 -2.5511856 2.551178z" fill-rule="evenodd"/><path stroke="#000000" stroke-width="3.0" stroke-linejoin="round" stroke-linecap="butt" d="m90.43568 189.19554l0 0c-1.4089737 0 -2.551178 -1.1422119 -2.551178 -2.551178l0 0c0 -0.6766205 0.26878357 -1.325531 0.7472229 -1.8039703c0.47843933 -0.47843933 1.1273422 -0.7472229 1.8039551 -0.7472229l0 0c1.4089813 0 2.5511856 1.1422119 2.5511856 2.5511932l0 0c0 1.4089661 -1.1422043 2.551178 -2.5511856 2.551178z" fill-rule="evenodd"/><path fill="#000000" d="m147.35431 189.13255l0 0c-1.4089661 0 -2.551178 -1.1422119 -2.551178 -2.5511932l0 0c0 -0.6766052 0.26878357 -1.3255157 0.7472229 -1.8039551c0.47843933 -0.47843933 1.1273499 -0.7472229 1.8039551 -0.7472229l0 0c1.4089813 0 2.5511932 1.1422119 2.5511932 2.551178l0 0c0 1.4089813 -1.1422119 2.5511932 -2.5511932 2.5511932z" fill-rule="evenodd"/><path stroke="#000000" stroke-width="3.0" stroke-linejoin="round" stroke-linecap="butt" d="m147.35431 189.13255l0 0c-1.4089661 0 -2.551178 -1.1422119 -2.551178 -2.5511932l0 0c0 -0.6766052 0.26878357 -1.3255157 0.7472229 -1.8039551c0.47843933 -0.47843933 1.1273499 -0.7472229 1.8039551 -0.7472229l0 0c1.4089813 0 2.5511932 1.1422119 2.5511932 2.551178l0 0c0 1.4089813 -1.1422119 2.5511932 -2.5511932 2.5511932z" fill-rule="evenodd"/><path fill="#000000" d="m204.27295 189.19554l0 0c-1.4089813 0 -2.551178 -1.1422119 -2.551178 -2.551178l0 0c0 -0.6766205 0.26878357 -1.325531 0.7472229 -1.8039703c0.47843933 -0.47843933 1.1273346 -0.7472229 1.8039551 -0.7472229l0 0c1.4089813 0 2.551178 1.1422119 2.551178 2.5511932l0 0c0 1.4089661 -1.1421967 2.551178 -2.551178 2.551178z" fill-rule="evenodd"/><path stroke="#000000" stroke-width="3.0" stroke-linejoin="round" stroke-linecap="butt" d="m204.27295 189.19554l0 0c-1.4089813 0 -2.551178 -1.1422119 -2.551178 -2.551178l0 0c0 -0.6766205 0.26878357 -1.325531 0.7472229 -1.8039703c0.47843933 -0.47843933 1.1273346 -0.7472229 1.8039551 -0.7472229l0 0c1.4089813 0 2.551178 1.1422119 2.551178 2.5511932l0 0c0 1.4089661 -1.1421967 2.551178 -2.551178 2.551178z" fill-rule="evenodd"/><path fill="#000000" fill-opacity="0.0" d="m33.51702 133.46194l0 50.582672" fill-rule="evenodd"/><path stroke="#000000" stroke-width="1.0" stroke-linejoin="round" stroke-linecap="butt" d="m33.51702 133.46194l0 50.582672" fill-rule="evenodd"/><path fill="#000000" fill-opacity="0.0" d="m36.068226 186.58136l51.811024 0.06300354" fill-rule="evenodd"/><path stroke="#000000" stroke-width="1.0" stroke-linejoin="round" stroke-linecap="butt" d="m36.068226 186.58136l51.811024 0.06300354" fill-rule="evenodd"/><path fill="#000000" fill-opacity="0.0" d="m92.98686 186.64436l51.81102 -0.06300354" fill-rule="evenodd"/><path stroke="#000000" stroke-width="1.0" stroke-linejoin="round" stroke-linecap="butt" d="m92.98686 186.64436l51.81102 -0.06300354" fill-rule="evenodd"/><path fill="#000000" fill-opacity="0.0" d="m149.9055 186.58136l51.81102 0.06300354" fill-rule="evenodd"/><path stroke="#000000" stroke-width="1.0" stroke-linejoin="round" stroke-linecap="butt" d="m149.9055 186.58136l51.81102 0.06300354" fill-rule="evenodd"/><path fill="#000000" fill-opacity="0.0" d="m212.03412 179.29921l14.708664 0l0 12.755905l-14.708664 0z" fill-rule="evenodd"/><path fill="#000000" d="m215.54764 189.42859l0 -2.359375l-2.328125 0l0 -0.984375l2.328125 0l0 -2.328125l1.0 0l0 2.328125l2.34375 0l0 0.984375l-2.34375 0l0 2.359375l-1.0 0zm4.5078125 -0.859375l1.109375 -0.09375q0.125 0.8125 0.5625 1.21875q0.453125 0.40625 1.09375 0.40625q0.75 0 1.28125 -0.578125q0.53125 -0.578125 0.53125 -1.515625q0 -0.90625 -0.515625 -1.421875q-0.5 -0.53125 -1.328125 -0.53125q-0.5 0 -0.921875 0.234375q-0.40625 0.234375 -0.640625 0.59375l-0.984375 -0.125l0.828125 -4.40625l4.28125 0l0 1.0l-3.4375 0l-0.453125 2.3125q0.765625 -0.546875 1.609375 -0.546875q1.125 0 1.890625 0.78125q0.78125 0.78125 0.78125 2.015625q0 1.15625 -0.671875 2.015625q-0.828125 1.03125 -2.25 1.03125q-1.171875 0 -1.921875 -0.65625q-0.734375 -0.65625 -0.84375 -1.734375z" fill-rule="nonzero"/><path fill="#000000" d="m348.3412 131.7126l0 0c-1.4089661 0 -2.551178 -1.1422119 -2.551178 -2.551178l0 0c0 -0.6766205 0.26879883 -1.3255234 0.7472229 -1.8039627c0.4784546 -0.47843933 1.1273499 -0.7472229 1.8039551 -0.7472229l0 0c1.4089966 0 2.551178 1.1422043 2.551178 2.5511856l0 0c0 1.4089661 -1.1421814 2.551178 -2.551178 2.551178z" fill-rule="evenodd"/><path stroke="#000000" stroke-width="3.0" stroke-linejoin="round" stroke-linecap="butt" d="m348.3412 131.7126l0 0c-1.4089661 0 -2.551178 -1.1422119 -2.551178 -2.551178l0 0c0 -0.6766205 0.26879883 -1.3255234 0.7472229 -1.8039627c0.4784546 -0.47843933 1.1273499 -0.7472229 1.8039551 -0.7472229l0 0c1.4089966 0 2.551178 1.1422043 2.551178 2.5511856l0 0c0 1.4089661 -1.1421814 2.551178 -2.551178 2.551178z" fill-rule="evenodd"/><path fill="#000000" d="m348.3412 189.13255l0 0c-1.4089661 0 -2.551178 -1.1422119 -2.551178 -2.5511932l0 0c0 -0.6766052 0.26879883 -1.3255157 0.7472229 -1.8039551c0.4784546 -0.47843933 1.1273499 -0.7472229 1.8039551 -0.7472229l0 0c1.4089966 0 2.551178 1.1422119 2.551178 2.551178l0 0c0 1.4089813 -1.1421814 2.5511932 -2.551178 2.5511932z" fill-rule="evenodd"/><path stroke="#000000" stroke-width="3.0" stroke-linejoin="round" stroke-linecap="butt" d="m348.3412 189.13255l0 0c-1.4089661 0 -2.551178 -1.1422119 -2.551178 -2.5511932l0 0c0 -0.6766052 0.26879883 -1.3255157 0.7472229 -1.8039551c0.4784546 -0.47843933 1.1273499 -0.7472229 1.8039551 -0.7472229l0 0c1.4089966 0 2.551178 1.1422119 2.551178 2.551178l0 0c0 1.4089813 -1.1421814 2.5511932 -2.551178 2.5511932z" fill-rule="evenodd"/><path fill="#000000" d="m405.6614 189.13255l0 0c-1.4089966 0 -2.551178 -1.1422119 -2.551178 -2.5511932l0 0c0 -0.6766052 0.2687683 -1.3255157 0.7472229 -1.8039551c0.47842407 -0.47843933 1.1273193 -0.7472229 1.8039551 -0.7472229l0 0c1.4089661 0 2.551178 1.1422119 2.551178 2.551178l0 0c0 1.4089813 -1.1422119 2.5511932 -2.551178 2.5511932z" fill-rule="evenodd"/><path stroke="#000000" stroke-width="3.0" stroke-linejoin="round" stroke-linecap="butt" d="m405.6614 189.13255l0 0c-1.4089966 0 -2.551178 -1.1422119 -2.551178 -2.5511932l0 0c0 -0.6766052 0.2687683 -1.3255157 0.7472229 -1.8039551c0.47842407 -0.47843933 1.1273193 -0.7472229 1.8039551 -0.7472229l0 0c1.4089661 0 2.551178 1.1422119 2.551178 2.551178l0 0c0 1.4089813 -1.1422119 2.5511932 -2.551178 2.5511932z" fill-rule="evenodd"/><path fill="#000000" d="m405.6614 131.7126l0 0c-1.4089966 0 -2.551178 -1.1422119 -2.551178 -2.551178l0 0c0 -0.6766205 0.2687683 -1.3255234 0.7472229 -1.8039627c0.47842407 -0.47843933 1.1273193 -0.7472229 1.8039551 -0.7472229l0 0c1.4089661 0 2.551178 1.1422043 2.551178 2.5511856l0 0c0 1.4089661 -1.1422119 2.551178 -2.551178 2.551178z" fill-rule="evenodd"/><path stroke="#000000" stroke-width="3.0" stroke-linejoin="round" stroke-linecap="butt" d="m405.6614 131.7126l0 0c-1.4089966 0 -2.551178 -1.1422119 -2.551178 -2.551178l0 0c0 -0.6766205 0.2687683 -1.3255234 0.7472229 -1.8039627c0.47842407 -0.47843933 1.1273193 -0.7472229 1.8039551 -0.7472229l0 0c1.4089661 0 2.551178 1.1422043 2.551178 2.5511856l0 0c0 1.4089661 -1.1422119 2.551178 -2.551178 2.551178z" fill-rule="evenodd"/><path fill="#000000" d="m605.6745 131.7126l0 0c-1.4089355 0 -2.5511475 -1.1422119 -2.5511475 -2.551178l0 0c0 -0.6766205 0.26879883 -1.3255234 0.7471924 -1.8039627c0.4784546 -0.47843933 1.1273804 -0.7472229 1.8039551 -0.7472229l0 0c1.4089966 0 2.5512085 1.1422043 2.5512085 2.5511856l0 0c0 1.4089661 -1.1422119 2.551178 -2.5512085 2.551178z" fill-rule="evenodd"/><path stroke="#000000" stroke-width="3.0" stroke-linejoin="round" stroke-linecap="butt" d="m605.6745 131.7126l0 0c-1.4089355 0 -2.5511475 -1.1422119 -2.5511475 -2.551178l0 0c0 -0.6766205 0.26879883 -1.3255234 0.7471924 -1.8039627c0.4784546 -0.47843933 1.1273804 -0.7472229 1.8039551 -0.7472229l0 0c1.4089966 0 2.5512085 1.1422043 2.5512085 2.5511856l0 0c0 1.4089661 -1.1422119 2.551178 -2.5512085 2.551178z" fill-rule="evenodd"/><path fill="#000000" d="m605.50653 74.749344l0 0c-1.4089355 0 -2.5511475 -1.1422043 -2.5511475 -2.551178l0 0c0 -0.6766205 0.2687378 -1.3255234 0.7471924 -1.8039627c0.4784546 -0.47843933 1.1273804 -0.7472229 1.8039551 -0.7472229l0 0c1.4089966 0 2.5512085 1.1422043 2.5512085 2.5511856l0 0c0 1.4089737 -1.1422119 2.551178 -2.5512085 2.551178z" fill-rule="evenodd"/><path stroke="#000000" stroke-width="3.0" stroke-linejoin="round" stroke-linecap="butt" d="m605.50653 74.749344l0 0c-1.4089355 0 -2.5511475 -1.1422043 -2.5511475 -2.551178l0 0c0 -0.6766205 0.2687378 -1.3255234 0.7471924 -1.8039627c0.4784546 -0.47843933 1.1273804 -0.7472229 1.8039551 -0.7472229l0 0c1.4089966 0 2.5512085 1.1422043 2.5512085 2.5511856l0 0c0 1.4089737 -1.1422119 2.551178 -2.5512085 2.551178z" fill-rule="evenodd"/><path fill="#000000" d="m662.9147 74.749344l0 0c-1.4089966 0 -2.5511475 -1.1422043 -2.5511475 -2.551178l0 0c0 -0.6766205 0.2687378 -1.3255234 0.7471924 -1.8039627c0.4784546 -0.47843933 1.1273193 -0.7472229 1.8039551 -0.7472229l0 0c1.4089966 0 2.5512085 1.1422043 2.5512085 2.5511856l0 0c0 1.4089737 -1.1422119 2.551178 -2.5512085 2.551178z" fill-rule="evenodd"/><path stroke="#000000" stroke-width="3.0" stroke-linejoin="round" stroke-linecap="butt" d="m662.9147 74.749344l0 0c-1.4089966 0 -2.5511475 -1.1422043 -2.5511475 -2.551178l0 0c0 -0.6766205 0.2687378 -1.3255234 0.7471924 -1.8039627c0.4784546 -0.47843933 1.1273193 -0.7472229 1.8039551 -0.7472229l0 0c1.4089966 0 2.5512085 1.1422043 2.5512085 2.5511856l0 0c0 1.4089737 -1.1422119 2.551178 -2.5512085 2.551178z" fill-rule="evenodd"/><path fill="#000000" d="m720.3268 74.749344l0 0c-1.4089966 0 -2.5512085 -1.1422043 -2.5512085 -2.551178l0 0c0 -0.6766205 0.26879883 -1.3255234 0.7472534 -1.8039627c0.47839355 -0.47843933 1.1273193 -0.7472229 1.8039551 -0.7472229l0 0c1.4089355 0 2.5511475 1.1422043 2.5511475 2.5511856l0 0c0 1.4089737 -1.1422119 2.551178 -2.5511475 2.551178z" fill-rule="evenodd"/><path stroke="#000000" stroke-width="3.0" stroke-linejoin="round" stroke-linecap="butt" d="m720.3268 74.749344l0 0c-1.4089966 0 -2.5512085 -1.1422043 -2.5512085 -2.551178l0 0c0 -0.6766205 0.26879883 -1.3255234 0.7472534 -1.8039627c0.47839355 -0.47843933 1.1273193 -0.7472229 1.8039551 -0.7472229l0 0c1.4089355 0 2.5511475 1.1422043 2.5511475 2.5511856l0 0c0 1.4089737 -1.1422119 2.551178 -2.5511475 2.551178z" fill-rule="evenodd"/><path fill="#000000" fill-opacity="0.0" d="m295.14957 129.16273l50.64566 0" fill-rule="evenodd"/><path stroke="#000000" stroke-width="1.0" stroke-linejoin="round" stroke-linecap="butt" stroke-dasharray="1.0,3.0" d="m295.14957 129.16273l50.64566 0" fill-rule="evenodd"/><path fill="#000000" fill-opacity="0.0" d="m348.3412 131.7126l0 52.314957" fill-rule="evenodd"/><path stroke="#000000" stroke-width="1.0" stroke-linejoin="round" stroke-linecap="butt" stroke-dasharray="1.0,3.0" d="m348.3412 131.7126l0 52.314957" fill-rule="evenodd"/><path fill="#000000" fill-opacity="0.0" d="m350.89236 186.58136l52.22049 0" fill-rule="evenodd"/><path stroke="#000000" stroke-width="1.0" stroke-linejoin="round" stroke-linecap="butt" stroke-dasharray="1.0,3.0" d="m350.89236 186.58136l52.22049 0" fill-rule="evenodd"/><path fill="#000000" fill-opacity="0.0" d="m405.6614 184.03018l0 -52.314957" fill-rule="evenodd"/><path stroke="#000000" stroke-width="1.0" stroke-linejoin="round" stroke-linecap="butt" stroke-dasharray="1.0,3.0" d="m405.6614 184.03018l0 -52.314957" fill-rule="evenodd"/><path fill="#000000" fill-opacity="0.0" d="m552.4829 129.16273l50.64569 0" fill-rule="evenodd"/><path stroke="#000000" stroke-width="1.0" stroke-linejoin="round" stroke-linecap="butt" stroke-dasharray="4.0,3.0" d="m552.4829 129.16273l50.64569 0" fill-rule="evenodd"/><path fill="#000000" fill-opacity="0.0" d="m605.6745 126.61024l-0.1574707 -51.874016" fill-rule="evenodd"/><path stroke="#000000" stroke-width="1.0" stroke-linejoin="round" stroke-linecap="butt" stroke-dasharray="4.0,3.0" d="m605.6745 126.61024l-0.1574707 -51.874016" fill-rule="evenodd"/><path fill="#000000" fill-opacity="0.0" d="m608.05774 72.198166l52.31494 0" fill-rule="evenodd"/><path stroke="#000000" stroke-width="1.0" stroke-linejoin="round" stroke-linecap="butt" stroke-dasharray="4.0,3.0" d="m608.05774 72.198166l52.31494 0" fill-rule="evenodd"/><path fill="#000000" fill-opacity="0.0" d="m665.4659 72.198166l52.31494 0" fill-rule="evenodd"/><path stroke="#000000" stroke-width="1.0" stroke-linejoin="round" stroke-linecap="butt" stroke-dasharray="4.0,3.0" d="m665.4659 72.198166l52.31494 0" fill-rule="evenodd"/><path fill="#000000" fill-opacity="0.0" d="m398.1391 107.062996l14.708679 0l0 12.755905l-14.708679 0z" fill-rule="evenodd"/><path fill="#000000" d="m400.53348 116.00487l0 -1.0625l3.25 0l0 1.0625l-3.25 0zm8.089844 2.578125l-1.046875 0l0 -6.71875q-0.390625 0.359375 -1.015625 0.734375q-0.609375 0.359375 -1.09375 0.53125l0 -1.015625q0.875 -0.421875 1.53125 -1.0q0.671875 -0.59375 0.953125 -1.15625l0.671875 0l0 8.625z" fill-rule="nonzero"/><path fill="#000000" fill-opacity="0.0" d="m727.9895 64.18898l14.708679 0l0 12.755905l-14.708679 0z" fill-rule="evenodd"/><path fill="#000000" d="m731.503 74.31835l0 -2.359375l-2.328125 0l0 -0.984375l2.328125 0l0 -2.328125l1.0 0l0 2.328125l2.34375 0l0 0.984375l-2.34375 0l0 2.359375l-1.0 0zm8.4765625 1.390625l-1.046875 0l0 -6.71875q-0.390625 0.359375 -1.015625 0.734375q-0.609375 0.359375 -1.09375 0.53125l0 -1.015625q0.875 -0.421875 1.53125 -1.0q0.671875 -0.59375 0.953125 -1.15625l0.671875 0l0 8.625z" fill-rule="nonzero"/><path fill="#efefef" d="m262.54462 438.06824l0 -57.228333l57.228363 0l0 57.228333z" fill-rule="evenodd"/><path stroke="#000000" stroke-width="3.0" stroke-linejoin="round" stroke-linecap="butt" d="m262.54462 438.06824l0 -57.228333l57.228363 0l0 57.228333z" fill-rule="evenodd"/><path fill="#efefef" d="m262.54462 380.8399l0 -57.228363l57.228363 0l0 57.228363z" fill-rule="evenodd"/><path stroke="#000000" stroke-width="3.0" stroke-linejoin="round" stroke-linecap="butt" d="m262.54462 380.8399l0 -57.228363l57.228363 0l0 57.228363z" fill-rule="evenodd"/><path fill="#efefef" d="m319.77298 438.06824l0 -57.228333l57.228333 0l0 57.228333z" fill-rule="evenodd"/><path stroke="#000000" stroke-width="3.0" stroke-linejoin="round" stroke-linecap="butt" d="m319.77298 438.06824l0 -57.228333l57.228333 0l0 57.228333z" fill-rule="evenodd"/><path fill="#efefef" d="m319.77298 380.8399l0 -57.228363l57.228333 0l0 57.228363z" fill-rule="evenodd"/><path stroke="#000000" stroke-width="3.0" stroke-linejoin="round" stroke-linecap="butt" d="m319.77298 380.8399l0 -57.228363l57.228333 0l0 57.228363z" fill-rule="evenodd"/><path fill="#efefef" d="m377.0013 438.06824l0 -57.228333l57.228333 0l0 57.228333z" fill-rule="evenodd"/><path stroke="#000000" stroke-width="3.0" stroke-linejoin="round" stroke-linecap="butt" d="m377.0013 438.06824l0 -57.228333l57.228333 0l0 57.228333z" fill-rule="evenodd"/><path fill="#efefef" d="m377.0013 380.8399l0 -57.228363l57.228333 0l0 57.228363z" fill-rule="evenodd"/><path stroke="#000000" stroke-width="3.0" stroke-linejoin="round" stroke-linecap="butt" d="m377.0013 380.8399l0 -57.228363l57.228333 0l0 57.228363z" fill-rule="evenodd"/><path fill="#b7b7b7" d="m262.54462 323.61154l0 -57.228333l57.228363 0l0 57.228333z" fill-rule="evenodd"/><path stroke="#000000" stroke-width="3.0" stroke-linejoin="round" stroke-linecap="butt" d="m262.54462 323.61154l0 -57.228333l57.228363 0l0 57.228333z" fill-rule="evenodd"/><path fill="#efefef" d="m319.77298 323.61154l0 -57.228333l57.228333 0l0 57.228333z" fill-rule="evenodd"/><path stroke="#000000" stroke-width="3.0" stroke-linejoin="round" stroke-linecap="butt" d="m319.77298 323.61154l0 -57.228333l57.228333 0l0 57.228333z" fill-rule="evenodd"/><path fill="#efefef" d="m377.0013 323.61154l0 -57.228333l57.228333 0l0 57.228333z" fill-rule="evenodd"/><path stroke="#000000" stroke-width="3.0" stroke-linejoin="round" stroke-linecap="butt" d="m377.0013 323.61154l0 -57.228333l57.228333 0l0 57.228333z" fill-rule="evenodd"/><path fill="#efefef" d="m434.22964 438.06824l0 -57.228333l57.228363 0l0 57.228333z" fill-rule="evenodd"/><path stroke="#000000" stroke-width="3.0" stroke-linejoin="round" stroke-linecap="butt" d="m434.22964 438.06824l0 -57.228333l57.228363 0l0 57.228333z" fill-rule="evenodd"/><path fill="#b7b7b7" d="m434.22964 380.8399l0 -57.228363l57.228363 0l0 57.228363z" fill-rule="evenodd"/><path stroke="#000000" stroke-width="3.0" stroke-linejoin="round" stroke-linecap="butt" d="m434.22964 380.8399l0 -57.228363l57.228363 0l0 57.228363z" fill-rule="evenodd"/><path fill="#efefef" d="m434.22964 323.61154l0 -57.228333l57.228363 0l0 57.228333z" fill-rule="evenodd"/><path stroke="#000000" stroke-width="3.0" stroke-linejoin="round" stroke-linecap="butt" d="m434.22964 323.61154l0 -57.228333l57.228363 0l0 57.228333z" fill-rule="evenodd"/><path fill="#000000" fill-opacity="0.0" d="m290.78473 356.52493l0 0c-2.3743896 0 -4.2991943 -1.9248352 -4.2991943 -4.299225l0 0c0 -1.1401978 0.4529419 -2.2337341 1.2592163 -3.039978c0.8062439 -0.8062744 1.8997803 -1.2592163 3.039978 -1.2592163l0 0c2.3743896 0 4.299225 1.9248047 4.299225 4.2991943l0 0c0 2.3743896 -1.9248352 4.299225 -4.299225 4.299225z" fill-rule="evenodd"/><path stroke="#000000" stroke-width="3.0" stroke-linejoin="round" stroke-linecap="butt" d="m290.78473 356.52493l0 0c-2.3743896 0 -4.2991943 -1.9248352 -4.2991943 -4.299225l0 0c0 -1.1401978 0.4529419 -2.2337341 1.2592163 -3.039978c0.8062439 -0.8062744 1.8997803 -1.2592163 3.039978 -1.2592163l0 0c2.3743896 0 4.299225 1.9248047 4.299225 4.2991943l0 0c0 2.3743896 -1.9248352 4.299225 -4.299225 4.299225z" fill-rule="evenodd"/><path fill="#000000" d="m348.27557 354.7756l0 0c-1.4089661 0 -2.551178 -1.1422119 -2.551178 -2.5512085l0 0c0 -0.6766052 0.2687683 -1.3255005 0.7472229 -1.8039551c0.47842407 -0.47842407 1.1273499 -0.7472229 1.8039551 -0.7472229l0 0c1.4089661 0 2.551178 1.1422119 2.551178 2.551178l0 0c0 1.4089966 -1.1422119 2.5512085 -2.551178 2.5512085z" fill-rule="evenodd"/><path stroke="#000000" stroke-width="3.0" stroke-linejoin="round" stroke-linecap="butt" d="m348.27557 354.7756l0 0c-1.4089661 0 -2.551178 -1.1422119 -2.551178 -2.5512085l0 0c0 -0.6766052 0.2687683 -1.3255005 0.7472229 -1.8039551c0.47842407 -0.47842407 1.1273499 -0.7472229 1.8039551 -0.7472229l0 0c1.4089661 0 2.551178 1.1422119 2.551178 2.551178l0 0c0 1.4089966 -1.1422119 2.5512085 -2.551178 2.5512085z" fill-rule="evenodd"/><path fill="#000000" fill-opacity="0.0" d="m295.08395 352.2257l50.64566 0" fill-rule="evenodd"/><path stroke="#000000" stroke-width="1.0" stroke-linejoin="round" stroke-linecap="butt" d="m295.08395 352.2257l50.64566 0" fill-rule="evenodd"/><path fill="#000000" fill-opacity="0.0" d="m355.3937 343.76904l14.708649 0l0 12.75589l-14.708649 0z" fill-rule="evenodd"/><path fill="#000000" d="m362.17673 353.17966q0 -0.21875 0 -0.328125q0 -0.609375 0.171875 -1.0625q0.125 -0.34375 0.421875 -0.6875q0.203125 -0.25 0.75 -0.734375q0.546875 -0.484375 0.703125 -0.765625q0.171875 -0.296875 0.171875 -0.640625q0 -0.609375 -0.484375 -1.078125q-0.46875 -0.46875 -1.171875 -0.46875q-0.671875 0 -1.125 0.421875q-0.453125 0.421875 -0.59375 1.328125l-1.078125 -0.140625q0.140625 -1.1875 0.859375 -1.828125q0.734375 -0.640625 1.921875 -0.640625q1.265625 0 2.015625 0.6875q0.75 0.6875 0.75 1.65625q0 0.5625 -0.265625 1.046875q-0.265625 0.46875 -1.03125 1.140625q-0.515625 0.453125 -0.6875 0.671875q-0.15625 0.21875 -0.234375 0.5q-0.0625 0.28125 -0.078125 0.921875l-1.015625 0zm-0.0625 2.109375l0 -1.203125l1.203125 0l0 1.203125l-1.203125 0z" fill-rule="nonzero"/><path fill="#000000" fill-opacity="0.0" d="m327.4777 227.3084l99.18109 0l0 34.771652l-99.18109 0z" fill-rule="evenodd"/><path fill="#000000" d="m351.53708 254.2284l0 -13.359375l5.046875 0q1.328125 0 2.03125 0.125q0.96875 0.171875 1.640625 0.640625q0.671875 0.453125 1.078125 1.28125q0.40625 0.828125 0.40625 1.828125q0 1.703125 -1.09375 2.890625q-1.078125 1.171875 -3.921875 1.171875l-3.421875 0l0 5.421875l-1.765625 0zm1.765625 -7.0l3.453125 0q1.71875 0 2.4375 -0.640625q0.71875 -0.640625 0.71875 -1.796875q0 -0.84375 -0.421875 -1.4375q-0.421875 -0.59375 -1.125 -0.78125q-0.4375 -0.125 -1.640625 -0.125l-3.421875 0l0 4.78125zm16.787323 5.8125q-0.921875 0.765625 -1.765625 1.09375q-0.828125 0.3125 -1.796875 0.3125q-1.59375 0 -2.453125 -0.78125q-0.859375 -0.78125 -0.859375 -1.984375q0 -0.71875 0.328125 -1.296875q0.328125 -0.59375 0.84375 -0.9375q0.53125 -0.359375 1.1875 -0.546875q0.46875 -0.125 1.453125 -0.25q1.984375 -0.234375 2.921875 -0.5625q0.015625 -0.34375 0.015625 -0.421875q0 -1.0 -0.46875 -1.421875q-0.625 -0.546875 -1.875 -0.546875q-1.15625 0 -1.703125 0.40625q-0.546875 0.40625 -0.8125 1.421875l-1.609375 -0.21875q0.21875 -1.015625 0.71875 -1.640625q0.5 -0.640625 1.453125 -0.984375q0.953125 -0.34375 2.1875 -0.34375q1.25 0 2.015625 0.296875q0.78125 0.28125 1.140625 0.734375q0.375 0.4375 0.515625 1.109375q0.078125 0.421875 0.078125 1.515625l0 2.1875q0 2.28125 0.109375 2.890625q0.109375 0.59375 0.40625 1.15625l-1.703125 0q-0.265625 -0.515625 -0.328125 -1.1875zm-0.140625 -3.671875q-0.890625 0.375 -2.671875 0.625q-1.015625 0.140625 -1.4375 0.328125q-0.421875 0.1875 -0.65625 0.53125q-0.21875 0.34375 -0.21875 0.78125q0 0.65625 0.5 1.09375q0.5 0.4375 1.453125 0.4375q0.9375 0 1.671875 -0.40625q0.75 -0.421875 1.09375 -1.140625q0.265625 -0.5625 0.265625 -1.640625l0 -0.609375zm7.781952 3.390625l0.234375 1.453125q-0.6875 0.140625 -1.234375 0.140625q-0.890625 0 -1.390625 -0.28125q-0.484375 -0.28125 -0.6875 -0.734375q-0.203125 -0.46875 -0.203125 -1.9375l0 -5.578125l-1.203125 0l0 -1.265625l1.203125 0l0 -2.390625l1.625 -0.984375l0 3.375l1.65625 0l0 1.265625l-1.65625 0l0 5.671875q0 0.6875 0.078125 0.890625q0.09375 0.203125 0.28125 0.328125q0.203125 0.109375 0.578125 0.109375q0.265625 0 0.71875 -0.0625zm1.6051941 1.46875l0 -13.359375l1.640625 0l0 4.796875q1.140625 -1.328125 2.890625 -1.328125q1.078125 0 1.859375 0.421875q0.796875 0.421875 1.140625 1.171875q0.34375 0.75 0.34375 2.171875l0 6.125l-1.640625 0l0 -6.125q0 -1.234375 -0.53125 -1.796875q-0.53125 -0.5625 -1.515625 -0.5625q-0.71875 0 -1.359375 0.390625q-0.640625 0.375 -0.921875 1.015625q-0.265625 0.640625 -0.265625 1.78125l0 5.296875l-1.640625 0zm20.355896 0l0 -3.203125l-5.796875 0l0 -1.5l6.09375 -8.65625l1.34375 0l0 8.65625l1.796875 0l0 1.5l-1.796875 0l0 3.203125l-1.640625 0zm0 -4.703125l0 -6.015625l-4.1875 6.015625l4.1875 0z" fill-rule="nonzero"/></g></svg>