<svg version="1.1" viewBox="0.0 0.0 236.35433070866142 219.50918635170603" fill="none" stroke="none" stroke-linecap="square" stroke-miterlimit="10" xmlns:xlink="http://www.w3.org/1999/xlink" xmlns="http://www.w3.org/2000/svg"><clipPath id="p.0"><path d="m0 0l236.35432 0l0 219.50919l-236.35432 0l0 -219.50919z" clip-rule="nonzero"/></clipPath><g clip-path="url(#p.0)"><path fill="#000000" fill-opacity="0.0" d="m0 0l236.35432 0l0 219.50919l-236.35432 0z" fill-rule="evenodd"/><path fill="#000000" fill-opacity="0.0" d="m3.4514437 3.96063l228.91338 0l0 34.771656l-228.91338 0z" fill-rule="evenodd"/><path fill="#000000" d="m43.075047 30.880629l0 -13.359375l2.65625 0l3.15625 9.453125q0.4375 1.328125 0.640625 1.984375q0.234375 -0.734375 0.703125 -2.140625l3.203125 -9.296875l2.375 0l0 13.359375l-1.703125 0l0 -11.171875l-3.875 11.171875l-1.59375 0l-3.859375 -11.375l0 11.375l-1.703125 0zm22.009556 -3.109375l1.6875 0.203125q-0.40625 1.484375 -1.484375 2.3125q-1.078125 0.8125 -2.7656288 0.8125q-2.125 0 -3.375 -1.296875q-1.234375 -1.3125 -1.234375 -3.671875q0 -2.453125 1.25 -3.796875q1.265625 -1.34375 3.265625 -1.34375q1.9375038 0 3.1562538 1.328125q1.234375 1.3125 1.234375 3.703125q0 0.15625 0 0.4375l-7.218754 0q0.09375 1.59375 0.90625 2.453125q0.8125 0.84375 2.015625 0.84375q0.90625 0 1.5468788 -0.46875q0.640625 -0.484375 1.015625 -1.515625zm-5.390629 -2.65625l5.406254 0q-0.109375 -1.21875 -0.625 -1.828125q-0.7812538 -0.953125 -2.0312538 -0.953125q-1.125 0 -1.90625 0.765625q-0.765625 0.75 -0.84375 2.015625zm9.125721 5.765625l0 -9.671875l1.46875 0l0 1.46875q0.5625 -1.03125 1.03125 -1.359375q0.484375 -0.328125 1.0625 -0.328125q0.828125 0 1.6875 0.53125l-0.5625 1.515625q-0.609375 -0.359375 -1.203125 -0.359375q-0.546875 0 -0.96875 0.328125q-0.421875 0.328125 -0.609375 0.890625q-0.28125 0.875 -0.28125 1.921875l0 5.0625l-1.625 0zm5.915802 0.796875l1.59375 0.234375q0.109375 0.7499981 0.5625 1.0781231q0.609375 0.453125 1.671875 0.453125q1.140625 0 1.75 -0.453125q0.625 -0.453125 0.84375 -1.2656231q0.125 -0.5 0.109375 -2.109375q-1.0625 1.265625 -2.671875 1.265625q-2.0 0 -3.09375 -1.4375q-1.09375 -1.4375 -1.09375 -3.453125q0 -1.390625 0.5 -2.5625q0.515625 -1.171875 1.453125 -1.796875q0.953125 -0.640625 2.25 -0.640625q1.703125 0 2.8125 1.375l0 -1.15625l1.515625 0l0 8.359375q0 2.265625 -0.46875 3.203123q-0.453125 0.9375 -1.453125 1.484375q-0.984375 0.546875 -2.453125 0.546875q-1.71875 0 -2.796875 -0.78125q-1.0625 -0.765625 -1.03125 -2.343748zm1.359375 -5.8125q0 1.90625 0.75 2.78125q0.765625 0.875 1.90625 0.875q1.125 0 1.890625 -0.859375q0.765625 -0.875 0.765625 -2.734375q0 -1.78125 -0.796875 -2.671875q-0.78125 -0.90625 -1.890625 -0.90625q-1.09375 0 -1.859375 0.890625q-0.765625 0.875 -0.765625 2.625zm15.953842 1.90625l1.6875 0.203125q-0.40625 1.484375 -1.484375 2.3125q-1.078125 0.8125 -2.765625 0.8125q-2.125 0 -3.375 -1.296875q-1.234375 -1.3125 -1.234375 -3.671875q0 -2.453125 1.25 -3.796875q1.265625 -1.34375 3.265625 -1.34375q1.9375 0 3.15625 1.328125q1.234375 1.3125 1.234375 3.703125q0 0.15625 0 0.4375l-7.21875 0q0.09375 1.59375 0.90625 2.453125q0.8125 0.84375 2.015625 0.84375q0.90625 0 1.546875 -0.46875q0.640625 -0.484375 1.015625 -1.515625zm-5.390625 -2.65625l5.40625 0q-0.109375 -1.21875 -0.625 -1.828125q-0.78125 -0.953125 -2.03125 -0.953125q-1.125 0 -1.90625 0.765625q-0.765625 0.75 -0.84375 2.015625zm14.324646 9.468748l0 -13.374998l1.484375 0l0 1.25q0.53125 -0.734375 1.1875 -1.09375q0.671875 -0.375 1.625 -0.375q1.234375 0 2.171875 0.640625q0.953125 0.625 1.4375 1.796875q0.484375 1.15625 0.484375 2.546875q0 1.484375 -0.53125 2.671875q-0.53125 1.1875 -1.546875 1.828125q-1.015625 0.625 -2.140625 0.625q-0.8125 0 -1.46875 -0.34375q-0.65625 -0.34375 -1.0625 -0.875l0 4.703123l-1.640625 0zm1.484375 -8.484373q0 1.859375 0.75 2.765625q0.765625 0.890625 1.828125 0.890625q1.09375 0 1.875 -0.921875q0.78125 -0.9375 0.78125 -2.875q0 -1.84375 -0.765625 -2.765625q-0.75 -0.921875 -1.8125 -0.921875q-1.046875 0 -1.859375 0.984375q-0.796875 0.96875 -0.796875 2.84375zm15.203842 3.59375q-0.921875 0.765625 -1.765625 1.09375q-0.828125 0.3125 -1.796875 0.3125q-1.59375 0 -2.453125 -0.78125q-0.859375 -0.78125 -0.859375 -1.984375q0 -0.71875 0.328125 -1.296875q0.328125 -0.59375 0.84375 -0.9375q0.53125 -0.359375 1.1875 -0.546875q0.46875 -0.125 1.453125 -0.25q1.984375 -0.234375 2.921875 -0.5625q0.015625 -0.34375 0.015625 -0.421875q0 -1.0 -0.46875 -1.421875q-0.625 -0.546875 -1.875 -0.546875q-1.15625 0 -1.703125 0.40625q-0.546875 0.40625 -0.8125 1.421875l-1.609375 -0.21875q0.21875 -1.015625 0.71875 -1.640625q0.5 -0.640625 1.453125 -0.984375q0.953125 -0.34375 2.1875 -0.34375q1.25 0 2.015625 0.296875q0.78125 0.28125 1.140625 0.734375q0.375 0.4375 0.515625 1.109375q0.078125 0.421875 0.078125 1.515625l0 2.1875q0 2.28125 0.109375 2.890625q0.109375 0.59375 0.40625 1.15625l-1.703125 0q-0.265625 -0.515625 -0.328125 -1.1875zm-0.140625 -3.671875q-0.890625 0.375 -2.671875 0.625q-1.015625 0.140625 -1.4375 0.328125q-0.421875 0.1875 -0.65625 0.53125q-0.21875 0.34375 -0.21875 0.78125q0 0.65625 0.5 1.09375q0.5 0.4375 1.453125 0.4375q0.9375 0 1.671875 -0.40625q0.75 -0.421875 1.09375 -1.140625q0.265625 -0.5625 0.265625 -1.640625l0 -0.609375zm7.781967 3.390625l0.234375 1.453125q-0.6875 0.140625 -1.234375 0.140625q-0.890625 0 -1.390625 -0.28125q-0.484375 -0.28125 -0.6875 -0.734375q-0.203125 -0.46875 -0.203125 -1.9375l0 -5.578125l-1.203125 0l0 -1.265625l1.203125 0l0 -2.390625l1.625 -0.984375l0 3.375l1.65625 0l0 1.265625l-1.65625 0l0 5.671875q0 0.6875 0.078125 0.890625q0.09375 0.203125 0.28125 0.328125q0.203125 0.109375 0.578125 0.109375q0.265625 0 0.71875 -0.0625zm1.6051788 1.46875l0 -13.359375l1.6406174 0l0 4.796875q1.140625 -1.328125 2.890625 -1.328125q1.0781403 0 1.8593903 0.421875q0.796875 0.421875 1.140625 1.171875q0.34375 0.75 0.34375 2.171875l0 6.125l-1.640625 0l0 -6.125q0 -1.234375 -0.53125 -1.796875q-0.53125 -0.5625 -1.5156403 -0.5625q-0.71875 0 -1.359375 0.390625q-0.640625 0.375 -0.921875 1.015625q-0.265625 0.640625 -0.265625 1.78125l0 5.296875l-1.6406174 0zm9.71946 -2.890625l1.625 -0.25q0.125 0.96875 0.75 1.5q0.625 0.515625 1.75 0.515625q1.125 0 1.671875 -0.453125q0.546875 -0.46875 0.546875 -1.09375q0 -0.546875 -0.484375 -0.875q-0.328125 -0.21875 -1.671875 -0.546875q-1.8125 -0.46875 -2.515625 -0.796875q-0.6875 -0.328125 -1.046875 -0.90625q-0.359375 -0.59375 -0.359375 -1.3125q0 -0.640625 0.296875 -1.1875q0.296875 -0.5625 0.8125 -0.921875q0.375 -0.28125 1.03125 -0.46875q0.671875 -0.203125 1.421875 -0.203125q1.140625 0 2.0 0.328125q0.859375 0.328125 1.265625 0.890625q0.421875 0.5625 0.578125 1.5l-1.609375 0.21875q-0.109375 -0.75 -0.640625 -1.171875q-0.515625 -0.421875 -1.46875 -0.421875q-1.140625 0 -1.625 0.375q-0.46875 0.375 -0.46875 0.875q0 0.3125 0.1875 0.578125q0.203125 0.265625 0.640625 0.4375q0.234375 0.09375 1.4375 0.421875q1.75 0.453125 2.4375 0.75q0.6875 0.296875 1.078125 0.859375q0.390625 0.5625 0.390625 1.40625q0 0.828125 -0.484375 1.546875q-0.46875 0.71875 -1.375 1.125q-0.90625 0.390625 -2.046875 0.390625q-1.875 0 -2.875 -0.78125q-0.984375 -0.78125 -1.25 -2.328125zm20.886444 2.890625l-1.640625 0l0 -10.453125q-0.59375 0.5625 -1.5625 1.140625q-0.953125 0.5625 -1.71875 0.84375l0 -1.59375q1.375 -0.640625 2.40625 -1.5625q1.03125 -0.921875 1.453125 -1.78125l1.0625 0l0 13.40625zm17.465271 -1.578125q-0.8125 0.90625 -1.765625 1.359375q-0.953125 0.453125 -2.0625 0.453125q-2.046875 0 -3.25 -1.390625q-0.984375 -1.125 -0.984375 -2.53125q0 -1.234375 0.796875 -2.234375q0.796875 -1.0 2.390625 -1.75q-0.90625 -1.03125 -1.203125 -1.671875q-0.296875 -0.65625 -0.296875 -1.265625q0 -1.203125 0.9375 -2.078125q0.9375 -0.890625 2.375 -0.890625q1.359375 0 2.234375 0.84375q0.875 0.828125 0.875 2.0q0 1.90625 -2.53125 3.25l2.390625 3.0625q0.421875 -0.8125 0.640625 -1.859375l1.703125 0.359375q-0.4375 1.75 -1.1875 2.875q0.921875 1.21875 2.09375 2.046875l-1.109375 1.3125q-0.984375 -0.640625 -2.046875 -1.890625zm-3.328125 -6.953125q1.0625 -0.640625 1.375 -1.109375q0.3125 -0.46875 0.3125 -1.046875q0 -0.6875 -0.4375 -1.109375q-0.421875 -0.4375 -1.0625 -0.4375q-0.671875 0 -1.125 0.4375q-0.4375 0.421875 -0.4375 1.03125q0 0.3125 0.15625 0.65625q0.171875 0.34375 0.484375 0.734375l0.734375 0.84375zm2.296875 5.65625l-3.0 -3.71875q-1.328125 0.796875 -1.796875 1.46875q-0.46875 0.671875 -0.46875 1.34375q0 0.8125 0.640625 1.6875q0.65625 0.875 1.84375 0.875q0.734375 0 1.515625 -0.453125q0.796875 -0.46875 1.265625 -1.203125zm19.189362 1.296875l0 1.578125l-8.828125 0q-0.015625 -0.59375 0.1875 -1.140625q0.34375 -0.90625 1.078125 -1.78125q0.75 -0.875 2.15625 -2.015625q2.171875 -1.78125 2.9375 -2.828125q0.765625 -1.046875 0.765625 -1.96875q0 -0.984375 -0.703125 -1.640625q-0.6875 -0.671875 -1.8125 -0.671875q-1.1875 0 -1.90625 0.71875q-0.703125 0.703125 -0.703125 1.953125l-1.6875 -0.171875q0.171875 -1.890625 1.296875 -2.875q1.140625 -0.984375 3.03125 -0.984375q1.921875 0 3.046875 1.0625q1.125 1.0625 1.125 2.640625q0 0.796875 -0.328125 1.578125q-0.328125 0.78125 -1.09375 1.640625q-0.75 0.84375 -2.53125 2.34375q-1.46875 1.234375 -1.890625 1.6875q-0.421875 0.4375 -0.6875 0.875l6.546875 0z" fill-rule="nonzero"/><path fill="#efefef" d="m3.4343832 215.00525l0 -57.228348l57.228348 0l0 57.228348z" fill-rule="evenodd"/><path stroke="#000000" stroke-width="3.0" stroke-linejoin="round" stroke-linecap="butt" d="m3.4343832 215.00525l0 -57.228348l57.228348 0l0 57.228348z" fill-rule="evenodd"/><path fill="#efefef" d="m3.4343832 157.7769l0 -57.228348l57.228348 0l0 57.228348z" fill-rule="evenodd"/><path stroke="#000000" stroke-width="3.0" stroke-linejoin="round" stroke-linecap="butt" d="m3.4343832 157.7769l0 -57.228348l57.228348 0l0 57.228348z" fill-rule="evenodd"/><path fill="#efefef" d="m60.66273 215.00525l0 -57.228348l57.228344 0l0 57.228348z" fill-rule="evenodd"/><path stroke="#000000" stroke-width="3.0" stroke-linejoin="round" stroke-linecap="butt" d="m60.66273 215.00525l0 -57.228348l57.228344 0l0 57.228348z" fill-rule="evenodd"/><path fill="#efefef" d="m60.66273 157.7769l0 -57.228348l57.228344 0l0 57.228348z" fill-rule="evenodd"/><path stroke="#000000" stroke-width="3.0" stroke-linejoin="round" stroke-linecap="butt" d="m60.66273 157.7769l0 -57.228348l57.228344 0l0 57.228348z" fill-rule="evenodd"/><path fill="#efefef" d="m117.891075 215.00525l0 -57.228348l57.22834 0l0 57.228348z" fill-rule="evenodd"/><path stroke="#000000" stroke-width="3.0" stroke-linejoin="round" stroke-linecap="butt" d="m117.891075 215.00525l0 -57.228348l57.22834 0l0 57.228348z" fill-rule="evenodd"/><path fill="#efefef" d="m117.891075 157.7769l0 -57.228348l57.22834 0l0 57.228348z" fill-rule="evenodd"/><path stroke="#000000" stroke-width="3.0" stroke-linejoin="round" stroke-linecap="butt" d="m117.891075 157.7769l0 -57.228348l57.22834 0l0 57.228348z" fill-rule="evenodd"/><path fill="#b7b7b7" d="m3.4343832 100.54855l0 -57.228344l57.228348 0l0 57.228344z" fill-rule="evenodd"/><path stroke="#000000" stroke-width="3.0" stroke-linejoin="round" stroke-linecap="butt" d="m3.4343832 100.54855l0 -57.228344l57.228348 0l0 57.228344z" fill-rule="evenodd"/><path fill="#efefef" d="m60.66273 100.54855l0 -57.228344l57.228344 0l0 57.228344z" fill-rule="evenodd"/><path stroke="#000000" stroke-width="3.0" stroke-linejoin="round" stroke-linecap="butt" d="m60.66273 100.54855l0 -57.228344l57.228344 0l0 57.228344z" fill-rule="evenodd"/><path fill="#efefef" d="m117.891075 100.54855l0 -57.228344l57.22834 0l0 57.228344z" fill-rule="evenodd"/><path stroke="#000000" stroke-width="3.0" stroke-linejoin="round" stroke-linecap="butt" d="m117.891075 100.54855l0 -57.228344l57.22834 0l0 57.228344z" fill-rule="evenodd"/><path fill="#efefef" d="m175.11942 215.00525l0 -57.228348l57.228348 0l0 57.228348z" fill-rule="evenodd"/><path stroke="#000000" stroke-width="3.0" stroke-linejoin="round" stroke-linecap="butt" d="m175.11942 215.00525l0 -57.228348l57.228348 0l0 57.228348z" fill-rule="evenodd"/><path fill="#b7b7b7" d="m175.11942 157.7769l0 -57.228348l57.228348 0l0 57.228348z" fill-rule="evenodd"/><path stroke="#000000" stroke-width="3.0" stroke-linejoin="round" stroke-linecap="butt" d="m175.11942 157.7769l0 -57.228348l57.228348 0l0 57.228348z" fill-rule="evenodd"/><path fill="#efefef" d="m175.11942 100.54855l0 -57.228344l57.228348 0l0 57.228344z" fill-rule="evenodd"/><path stroke="#000000" stroke-width="3.0" stroke-linejoin="round" stroke-linecap="butt" d="m175.11942 100.54855l0 -57.228344l57.228348 0l0 57.228344z" fill-rule="evenodd"/><path fill="#000000" fill-opacity="0.0" d="m31.674503 133.46194l0 0c-2.3743896 0 -4.2992134 -1.92482 -4.2992134 -4.2992096l0 0c0 -1.1402283 0.45295143 -2.2337494 1.2592106 -3.0400085c0.80625916 -0.80625916 1.8997803 -1.2592087 3.0400028 -1.2592087l0 0c2.3743896 0 4.2992134 1.92482 4.2992134 4.299217l0 0c0 2.3743896 -1.9248238 4.2992096 -4.2992134 4.2992096z" fill-rule="evenodd"/><path stroke="#000000" stroke-width="3.0" stroke-linejoin="round" stroke-linecap="butt" d="m31.674503 133.46194l0 0c-2.3743896 0 -4.2992134 -1.92482 -4.2992134 -4.2992096l0 0c0 -1.1402283 0.45295143 -2.2337494 1.2592106 -3.0400085c0.80625916 -0.80625916 1.8997803 -1.2592087 3.0400028 -1.2592087l0 0c2.3743896 0 4.2992134 1.92482 4.2992134 4.299217l0 0c0 2.3743896 -1.9248238 4.2992096 -4.2992134 4.2992096z" fill-rule="evenodd"/><path fill="#000000" d="m206.35693 189.13255l0 0c-1.4089661 0 -2.551178 -1.1422119 -2.551178 -2.5511932l0 0c0 -0.6766052 0.26878357 -1.3255157 0.7472229 -1.8039551c0.47843933 -0.47843933 1.1273499 -0.7472229 1.8039551 -0.7472229l0 0c1.4089813 0 2.5511932 1.1422119 2.5511932 2.551178l0 0c0 1.4089813 -1.1422119 2.5511932 -2.5511932 2.5511932z" fill-rule="evenodd"/><path stroke="#000000" stroke-width="3.0" stroke-linejoin="round" stroke-linecap="butt" d="m206.35693 189.13255l0 0c-1.4089661 0 -2.551178 -1.1422119 -2.551178 -2.5511932l0 0c0 -0.6766052 0.26878357 -1.3255157 0.7472229 -1.8039551c0.47843933 -0.47843933 1.1273499 -0.7472229 1.8039551 -0.7472229l0 0c1.4089813 0 2.5511932 1.1422119 2.5511932 2.551178l0 0c0 1.4089813 -1.1422119 2.5511932 -2.5511932 2.5511932z" fill-rule="evenodd"/><path fill="#000000" fill-opacity="0.0" d="m213.46982 178.90814l14.708664 0l0 12.755905l-14.708664 0z" fill-rule="evenodd"/><path fill="#000000" d="m216.98332 189.0375l0 -2.359375l-2.328125 0l0 -0.984375l2.328125 0l0 -2.328125l1.0 0l0 2.328125l2.34375 0l0 0.984375l-2.34375 0l0 2.359375l-1.0 0zm4.5078125 -0.859375l1.109375 -0.09375q0.125 0.8125 0.5625 1.21875q0.453125 0.40625 1.09375 0.40625q0.75 0 1.28125 -0.578125q0.53125 -0.578125 0.53125 -1.515625q0 -0.90625 -0.515625 -1.421875q-0.5 -0.53125 -1.328125 -0.53125q-0.5 0 -0.921875 0.234375q-0.40625 0.234375 -0.640625 0.59375l-0.984375 -0.125l0.828125 -4.40625l4.28125 0l0 1.0l-3.4375 0l-0.453125 2.3125q0.765625 -0.546875 1.609375 -0.546875q1.125 0 1.890625 0.78125q0.78125 0.78125 0.78125 2.015625q0 1.15625 -0.671875 2.015625q-0.828125 1.03125 -2.25 1.03125q-1.171875 0 -1.921875 -0.65625q-0.734375 -0.65625 -0.84375 -1.734375z" fill-rule="nonzero"/><path fill="#000000" d="m89.16534 131.7126l0 0c-1.4089737 0 -2.551178 -1.1422119 -2.551178 -2.551178l0 0c0 -0.6766205 0.26878357 -1.3255234 0.7472229 -1.8039627c0.47843933 -0.47843933 1.1273422 -0.7472229 1.8039551 -0.7472229l0 0c1.4089813 0 2.5511856 1.1422043 2.5511856 2.5511856l0 0c0 1.4089661 -1.1422043 2.551178 -2.5511856 2.551178z" fill-rule="evenodd"/><path stroke="#000000" stroke-width="3.0" stroke-linejoin="round" stroke-linecap="butt" d="m89.16534 131.7126l0 0c-1.4089737 0 -2.551178 -1.1422119 -2.551178 -2.551178l0 0c0 -0.6766205 0.26878357 -1.3255234 0.7472229 -1.8039627c0.47843933 -0.47843933 1.1273422 -0.7472229 1.8039551 -0.7472229l0 0c1.4089813 0 2.5511856 1.1422043 2.5511856 2.5511856l0 0c0 1.4089661 -1.1422043 2.551178 -2.5511856 2.551178z" fill-rule="evenodd"/><path fill="#000000" d="m89.16534 189.13255l0 0c-1.4089737 0 -2.551178 -1.1422119 -2.551178 -2.5511932l0 0c0 -0.6766052 0.26878357 -1.3255157 0.7472229 -1.8039551c0.47843933 -0.47843933 1.1273422 -0.7472229 1.8039551 -0.7472229l0 0c1.4089813 0 2.5511856 1.1422119 2.5511856 2.551178l0 0c0 1.4089813 -1.1422043 2.5511932 -2.5511856 2.5511932z" fill-rule="evenodd"/><path stroke="#000000" stroke-width="3.0" stroke-linejoin="round" stroke-linecap="butt" d="m89.16534 189.13255l0 0c-1.4089737 0 -2.551178 -1.1422119 -2.551178 -2.5511932l0 0c0 -0.6766052 0.26878357 -1.3255157 0.7472229 -1.8039551c0.47843933 -0.47843933 1.1273422 -0.7472229 1.8039551 -0.7472229l0 0c1.4089813 0 2.5511856 1.1422119 2.5511856 2.551178l0 0c0 1.4089813 -1.1422043 2.5511932 -2.5511856 2.5511932z" fill-rule="evenodd"/><path fill="#000000" d="m146.48555 189.13255l0 0c-1.4089813 0 -2.551178 -1.1422119 -2.551178 -2.5511932l0 0c0 -0.6766052 0.26878357 -1.3255157 0.7472229 -1.8039551c0.47843933 -0.47843933 1.1273346 -0.7472229 1.8039551 -0.7472229l0 0c1.4089813 0 2.551178 1.1422119 2.551178 2.551178l0 0c0 1.4089813 -1.1421967 2.5511932 -2.551178 2.5511932z" fill-rule="evenodd"/><path stroke="#000000" stroke-width="3.0" stroke-linejoin="round" stroke-linecap="butt" d="m146.48555 189.13255l0 0c-1.4089813 0 -2.551178 -1.1422119 -2.551178 -2.5511932l0 0c0 -0.6766052 0.26878357 -1.3255157 0.7472229 -1.8039551c0.47843933 -0.47843933 1.1273346 -0.7472229 1.8039551 -0.7472229l0 0c1.4089813 0 2.551178 1.1422119 2.551178 2.551178l0 0c0 1.4089813 -1.1421967 2.5511932 -2.551178 2.5511932z" fill-rule="evenodd"/><path fill="#000000" fill-opacity="0.0" d="m35.973717 129.16273l50.645668 0" fill-rule="evenodd"/><path stroke="#000000" stroke-width="1.0" stroke-linejoin="round" stroke-linecap="butt" stroke-dasharray="1.0,3.0" d="m35.973717 129.16273l50.645668 0" fill-rule="evenodd"/><path fill="#000000" fill-opacity="0.0" d="m89.16534 131.7126l0 52.314957" fill-rule="evenodd"/><path stroke="#000000" stroke-width="1.0" stroke-linejoin="round" stroke-linecap="butt" stroke-dasharray="1.0,3.0" d="m89.16534 131.7126l0 52.314957" fill-rule="evenodd"/><path fill="#000000" fill-opacity="0.0" d="m91.71652 186.58136l52.220474 0" fill-rule="evenodd"/><path stroke="#000000" stroke-width="1.0" stroke-linejoin="round" stroke-linecap="butt" stroke-dasharray="1.0,3.0" d="m91.71652 186.58136l52.220474 0" fill-rule="evenodd"/><path fill="#000000" fill-opacity="0.0" d="m149.03673 186.58136l54.771652 0" fill-rule="evenodd"/><path stroke="#000000" stroke-width="1.0" stroke-linejoin="round" stroke-linecap="butt" d="m149.03673 186.58136l54.771652 0" fill-rule="evenodd"/></g></svg>