<svg version="1.1" viewBox="0.0 0.0 437.34120734908134 433.59317585301835" fill="none" stroke="none" stroke-linecap="square" stroke-miterlimit="10" xmlns:xlink="http://www.w3.org/1999/xlink" xmlns="http://www.w3.org/2000/svg"><clipPath id="p.0"><path d="m0 0l437.34122 0l0 433.59317l-437.34122 0l0 -433.59317z" clip-rule="nonzero"/></clipPath><g clip-path="url(#p.0)"><path fill="#000000" fill-opacity="0.0" d="m0 0l437.34122 0l0 433.59317l-437.34122 0z" fill-rule="evenodd"/><path fill="#efefef" d="m180.59317 348.82416l74.96063 0l0 75.433075l-74.96063 0z" fill-rule="evenodd"/><path fill="#efefef" d="m94.51181 348.82416l74.96063 0l0 75.433075l-74.96063 0z" fill-rule="evenodd"/><path fill="#efefef" d="m266.67453 348.82416l74.96063 0l0 75.433075l-74.96063 0z" fill-rule="evenodd"/><path fill="#efefef" d="m8.430447 348.82416l74.96063 0l0 75.433075l-74.96063 0z" fill-rule="evenodd"/><path fill="#efefef" d="m180.59317 263.6509l74.96063 0l0 75.433075l-74.96063 0z" fill-rule="evenodd"/><path fill="#efefef" d="m94.51181 263.6509l74.96063 0l0 75.433075l-74.96063 0z" fill-rule="evenodd"/><path fill="#efefef" d="m266.67453 263.6509l74.96063 0l0 75.433075l-74.96063 0z" fill-rule="evenodd"/><path fill="#efefef" d="m8.430447 263.6509l74.96063 0l0 75.433075l-74.96063 0z" fill-rule="evenodd"/><path fill="#efefef" d="m180.59317 178.47769l74.96063 0l0 75.433075l-74.96063 0z" fill-rule="evenodd"/><path fill="#efefef" d="m94.51181 178.47769l74.96063 0l0 75.433075l-74.96063 0z" fill-rule="evenodd"/><path fill="#efefef" d="m266.67453 178.47769l74.96063 0l0 75.433075l-74.96063 0z" fill-rule="evenodd"/><path fill="#efefef" d="m8.430447 178.47769l74.96063 0l0 75.433075l-74.96063 0z" fill-rule="evenodd"/><path fill="#efefef" d="m180.59317 93.30446l74.96063 0l0 75.433075l-74.96063 0z" fill-rule="evenodd"/><path fill="#efefef" d="m94.51181 93.30446l74.96063 0l0 75.433075l-74.96063 0z" fill-rule="evenodd"/><path fill="#efefef" d="m266.67453 93.30446l74.96063 0l0 75.433075l-74.96063 0z" fill-rule="evenodd"/><path fill="#efefef" d="m8.430447 93.30446l74.96063 0l0 75.433075l-74.96063 0z" fill-rule="evenodd"/><path fill="#efefef" d="m180.59317 8.131233l74.96063 0l0 75.433075l-74.96063 0z" fill-rule="evenodd"/><path fill="#efefef" d="m94.51181 8.131233l74.96063 0l0 75.433075l-74.96063 0z" fill-rule="evenodd"/><path fill="#efefef" d="m8.430447 8.131233l74.96063 0l0 75.433075l-74.96063 0z" fill-rule="evenodd"/><path fill="#cccccc" d="m22.254593 45.84777l0 0c0 -12.298122 9.969597 -22.267717 22.267715 -22.267717l0 0c5.9057655 0 11.569649 2.346056 15.745655 6.5220623c4.1760063 4.1760063 6.5220604 9.83989 6.5220604 15.745655l0 0c0 12.298119 -9.969593 22.267715 -22.267715 22.267715l0 0c-12.298119 0 -22.267715 -9.969597 -22.267715 -22.267715z" fill-rule="evenodd"/><path fill="#cccccc" d="m109.72441 45.84777l0 0c0 -12.298122 9.969597 -22.267717 22.267715 -22.267717l0 0c5.9057617 0 11.569641 2.346056 15.745651 6.5220623c4.17601 4.1760063 6.522064 9.83989 6.522064 15.745655l0 0c0 12.298119 -9.969589 22.267715 -22.267715 22.267715l0 0c-12.298119 0 -22.267715 -9.969597 -22.267715 -22.267715z" fill-rule="evenodd"/><path fill="#0000ff" d="m195.80577 45.84777l0 0c0 -12.298122 9.9696045 -22.267717 22.267715 -22.267717l0 0c5.905777 0 11.569656 2.346056 15.745651 6.5220623c4.17601 4.1760063 6.522064 9.83989 6.522064 15.745655l0 0c0 12.298119 -9.969589 22.267715 -22.267715 22.267715l0 0c-12.298111 0 -22.267715 -9.969597 -22.267715 -22.267715z" fill-rule="evenodd"/><path fill="#cccccc" d="m22.948818 131.021l0 0c0 -12.298119 9.969597 -22.267715 22.267715 -22.267715l0 0c5.9057655 0 11.569649 2.346054 15.745655 6.522064c4.17601 4.1760025 6.522064 9.83989 6.522064 15.745651l0 0c0 12.298126 -9.969597 22.267715 -22.26772 22.267715l0 0c-12.298119 0 -22.267715 -9.969589 -22.267715 -22.267715z" fill-rule="evenodd"/><path fill="#c9daf8" d="m110.41863 131.021l0 0c0 -12.298119 9.969597 -22.267715 22.267723 -22.267715l0 0c5.9057617 0 11.569641 2.346054 15.745651 6.522064c4.17601 4.1760025 6.522064 9.83989 6.522064 15.745651l0 0c0 12.298126 -9.9696045 22.267715 -22.267715 22.267715l0 0c-12.298126 0 -22.267723 -9.969589 -22.267723 -22.267715z" fill-rule="evenodd"/><path fill="#c9daf8" d="m196.5 131.021l0 0c0 -12.298119 9.969589 -22.267715 22.267715 -22.267715l0 0c5.9057617 0 11.569641 2.346054 15.745651 6.522064c4.17601 4.1760025 6.522064 9.83989 6.522064 15.745651l0 0c0 12.298126 -9.969589 22.267715 -22.267715 22.267715l0 0c-12.298126 0 -22.267715 -9.969589 -22.267715 -22.267715z" fill-rule="evenodd"/><path fill="#dd7e6b" d="m281.88583 131.021l0 0c0 -12.298119 9.9696045 -22.267715 22.2677 -22.267715l0 0c5.9057617 0 11.569641 2.346054 15.7456665 6.522064c4.175995 4.1760025 6.522064 9.83989 6.522064 15.745651l0 0c0 12.298126 -9.9696045 22.267715 -22.26773 22.267715l0 0c-12.298096 0 -22.2677 -9.969589 -22.2677 -22.267715z" fill-rule="evenodd"/><path fill="#c9daf8" d="m22.948818 216.19423l0 0c0 -12.298126 9.969597 -22.267715 22.267715 -22.267715l0 0c5.9057655 0 11.569649 2.346054 15.745655 6.522064c4.17601 4.175995 6.522064 9.83989 6.522064 15.745651l0 0c0 12.298111 -9.969597 22.267715 -22.26772 22.267715l0 0c-12.298119 0 -22.267715 -9.9696045 -22.267715 -22.267715z" fill-rule="evenodd"/><path fill="#c9daf8" d="m110.41863 216.19423l0 0c0 -12.298126 9.969597 -22.267715 22.267723 -22.267715l0 0c5.9057617 0 11.569641 2.346054 15.745651 6.522064c4.17601 4.175995 6.522064 9.83989 6.522064 15.745651l0 0c0 12.298111 -9.9696045 22.267715 -22.267715 22.267715l0 0c-12.298126 0 -22.267723 -9.9696045 -22.267723 -22.267715z" fill-rule="evenodd"/><path fill="#c9daf8" d="m196.5 216.19423l0 0c0 -12.298126 9.969589 -22.267715 22.267715 -22.267715l0 0c5.9057617 0 11.569641 2.346054 15.745651 6.522064c4.17601 4.175995 6.522064 9.83989 6.522064 15.745651l0 0c0 12.298111 -9.969589 22.267715 -22.267715 22.267715l0 0c-12.298126 0 -22.267715 -9.9696045 -22.267715 -22.267715z" fill-rule="evenodd"/><path fill="#cccccc" d="m281.88583 216.19423l0 0c0 -12.298126 9.9696045 -22.267715 22.2677 -22.267715l0 0c5.9057617 0 11.569641 2.346054 15.7456665 6.522064c4.175995 4.175995 6.522064 9.83989 6.522064 15.745651l0 0c0 12.298111 -9.9696045 22.267715 -22.26773 22.267715l0 0c-12.298096 0 -22.2677 -9.9696045 -22.2677 -22.267715z" fill-rule="evenodd"/><path fill="#c9daf8" d="m22.25328 301.36746l0 0c0 -12.298126 9.969597 -22.26773 22.267715 -22.26773l0 0c5.9057655 0 11.569649 2.3460693 15.745655 6.522064c4.1760063 4.1760254 6.5220604 9.839905 6.5220604 15.7456665l0 0c0 12.298126 -9.969593 22.2677 -22.267715 22.2677l0 0c-12.298119 0 -22.267715 -9.969574 -22.267715 -22.2677z" fill-rule="evenodd"/><path fill="#cc4125" d="m109.7231 301.36746l0 0c0 -12.298126 9.969597 -22.26773 22.267715 -22.26773l0 0c5.9057617 0 11.569641 2.3460693 15.745651 6.522064c4.17601 4.1760254 6.522064 9.839905 6.522064 15.7456665l0 0c0 12.298126 -9.969589 22.2677 -22.267715 22.2677l0 0c-12.298119 0 -22.267715 -9.969574 -22.267715 -22.2677z" fill-rule="evenodd"/><path fill="#cc4125" d="m195.80446 301.36746l0 0c0 -12.298126 9.9696045 -22.26773 22.267715 -22.26773l0 0c5.905777 0 11.569656 2.3460693 15.745651 6.522064c4.17601 4.1760254 6.522064 9.839905 6.522064 15.7456665l0 0c0 12.298126 -9.969589 22.2677 -22.267715 22.2677l0 0c-12.298111 0 -22.267715 -9.969574 -22.267715 -22.2677z" fill-rule="evenodd"/><path fill="#980000" d="m281.19028 301.36746l0 0c0 -12.298126 9.9696045 -22.26773 22.26773 -22.26773l0 0c5.9057617 0 11.569641 2.3460693 15.745636 6.522064c4.1760254 4.1760254 6.522064 9.839905 6.522064 15.7456665l0 0c0 12.298126 -9.969574 22.2677 -22.2677 22.2677l0 0c-12.298126 0 -22.26773 -9.969574 -22.26773 -22.2677z" fill-rule="evenodd"/><path fill="#cc4125" d="m22.25328 386.54068l0 0c0 -12.298126 9.969597 -22.2677 22.267715 -22.2677l0 0c5.9057655 0 11.569649 2.3460388 15.745655 6.522064c4.1760063 4.175995 6.5220604 9.839874 6.5220604 15.745636l0 0c0 12.298126 -9.969593 22.26773 -22.267715 22.26773l0 0c-12.298119 0 -22.267715 -9.9696045 -22.267715 -22.26773z" fill-rule="evenodd"/><path fill="#cc4125" d="m109.7231 386.54068l0 0c0 -12.298126 9.969597 -22.2677 22.267715 -22.2677l0 0c5.9057617 0 11.569641 2.3460388 15.745651 6.522064c4.17601 4.175995 6.522064 9.839874 6.522064 15.745636l0 0c0 12.298126 -9.969589 22.26773 -22.267715 22.26773l0 0c-12.298119 0 -22.267715 -9.9696045 -22.267715 -22.26773z" fill-rule="evenodd"/><path fill="#cc4125" d="m195.80446 386.54068l0 0c0 -12.298126 9.9696045 -22.2677 22.267715 -22.2677l0 0c5.905777 0 11.569656 2.3460388 15.745651 6.522064c4.17601 4.175995 6.522064 9.839874 6.522064 15.745636l0 0c0 12.298126 -9.969589 22.26773 -22.267715 22.26773l0 0c-12.298111 0 -22.267715 -9.9696045 -22.267715 -22.26773z" fill-rule="evenodd"/><path fill="#980000" d="m281.19028 386.54068l0 0c0 -12.298126 9.9696045 -22.2677 22.26773 -22.2677l0 0c5.9057617 0 11.569641 2.3460388 15.745636 6.522064c4.1760254 4.175995 6.522064 9.839874 6.522064 15.745636l0 0c0 12.298126 -9.969574 22.26773 -22.2677 22.26773l0 0c-12.298126 0 -22.26773 -9.9696045 -22.26773 -22.26773z" fill-rule="evenodd"/><path fill="#0000ff" d="m266.67453 8.131233l74.96063 0l0 75.433075l-74.96063 0z" fill-rule="evenodd"/><path fill="#000000" fill-opacity="0.0" d="m44.520996 279.09973l0.69291306 -40.629913" fill-rule="evenodd"/><path stroke="#c9daf8" stroke-width="8.0" stroke-linejoin="round" stroke-linecap="butt" d="m44.520996 279.09973l0.69291306 -40.629913" fill-rule="evenodd"/><path fill="#000000" fill-opacity="0.0" d="m67.48425 216.19423l42.92913 0" fill-rule="evenodd"/><path stroke="#c9daf8" stroke-width="8.0" stroke-linejoin="round" stroke-linecap="butt" d="m67.48425 216.19423l42.92913 0" fill-rule="evenodd"/><path fill="#000000" fill-opacity="0.0" d="m154.95407 131.021l41.543304 0" fill-rule="evenodd"/><path stroke="#c9daf8" stroke-width="8.0" stroke-linejoin="round" stroke-linecap="butt" d="m154.95407 131.021l41.543304 0" fill-rule="evenodd"/><path fill="#000000" fill-opacity="0.0" d="m218.76772 108.75328l-0.69291687 -40.62992" fill-rule="evenodd"/><path stroke="#0000ff" stroke-width="8.0" stroke-linejoin="round" stroke-linecap="butt" d="m218.76772 108.75328l-0.69291687 -40.62992" fill-rule="evenodd"/><path fill="#000000" fill-opacity="0.0" d="m240.3412 45.84777l26.330704 0" fill-rule="evenodd"/><path stroke="#0000ff" stroke-width="8.0" stroke-linejoin="round" stroke-linecap="butt" d="m240.3412 45.84777l26.330704 0" fill-rule="evenodd"/><path fill="#000000" fill-opacity="0.0" d="m132.68636 193.92651l0 -40.62993" fill-rule="evenodd"/><path stroke="#c9daf8" stroke-width="8.0" stroke-linejoin="round" stroke-linecap="butt" d="m132.68636 193.92651l0 -40.62993" fill-rule="evenodd"/><path fill="#000000" fill-opacity="0.0" d="m66.78871 386.54068l42.92914 0" fill-rule="evenodd"/><path stroke="#cc4125" stroke-width="8.0" stroke-linejoin="round" stroke-linecap="butt" d="m66.78871 386.54068l42.92914 0" fill-rule="evenodd"/><path fill="#000000" fill-opacity="0.0" d="m154.25853 386.54068l41.543304 0" fill-rule="evenodd"/><path stroke="#cc4125" stroke-width="8.0" stroke-linejoin="round" stroke-linecap="butt" d="m154.25853 386.54068l41.543304 0" fill-rule="evenodd"/><path fill="#000000" fill-opacity="0.0" d="m218.07217 364.27298l0 -40.629944" fill-rule="evenodd"/><path stroke="#cc4125" stroke-width="8.0" stroke-linejoin="round" stroke-linecap="butt" d="m218.07217 364.27298l0 -40.629944" fill-rule="evenodd"/><path fill="#000000" fill-opacity="0.0" d="m240.33989 301.36746l40.850388 0" fill-rule="evenodd"/><path stroke="#980000" stroke-width="8.0" stroke-linejoin="round" stroke-linecap="butt" d="m240.33989 301.36746l40.850388 0" fill-rule="evenodd"/><path fill="#000000" fill-opacity="0.0" d="m303.458 323.63516l0 40.629944" fill-rule="evenodd"/><path stroke="#980000" stroke-width="8.0" stroke-linejoin="round" stroke-linecap="butt" d="m303.458 323.63516l0 40.629944" fill-rule="evenodd"/><path fill="#000000" fill-opacity="0.0" d="m325.7257 386.54068l44.251984 0" fill-rule="evenodd"/><path stroke="#980000" stroke-width="8.0" stroke-linejoin="round" stroke-linecap="butt" d="m325.7257 386.54068l44.251984 0" fill-rule="evenodd"/><path fill="#000000" fill-opacity="0.0" d="m154.25853 301.36746l41.543304 0" fill-rule="evenodd"/><path stroke="#cc4125" stroke-width="8.0" stroke-linejoin="round" stroke-linecap="butt" d="m154.25853 301.36746l41.543304 0" fill-rule="evenodd"/><path fill="#000000" fill-opacity="0.0" d="m218.07217 279.09973l0.69291687 -40.629913" fill-rule="evenodd"/><path stroke="#c9daf8" stroke-width="8.0" stroke-linejoin="round" stroke-linecap="butt" d="m218.07217 279.09973l0.69291687 -40.629913" fill-rule="evenodd"/><path fill="#000000" fill-opacity="0.0" d="m218.76772 193.92651l0 -40.62993" fill-rule="evenodd"/><path stroke="#c9daf8" stroke-width="8.0" stroke-linejoin="round" stroke-linecap="butt" d="m218.76772 193.92651l0 -40.62993" fill-rule="evenodd"/><path fill="#000000" fill-opacity="0.0" d="m241.03543 131.021l40.850403 0" fill-rule="evenodd"/><path stroke="#dd7e6b" stroke-width="8.0" stroke-linejoin="round" stroke-linecap="butt" d="m241.03543 131.021l40.850403 0" fill-rule="evenodd"/><path fill="#000000" fill-opacity="0.0" d="m326.42126 131.021l39.84253 0" fill-rule="evenodd"/><path stroke="#dd7e6b" stroke-width="8.0" stroke-linejoin="round" stroke-linecap="butt" d="m326.42126 131.021l39.84253 0" fill-rule="evenodd"/><path fill="#980000" d="m352.75592 8.131233l74.9606 0l0 416.126l-74.9606 0z" fill-rule="evenodd"/><path fill="#000000" fill-opacity="0.0" d="m286.5958 32.24147l35.118103 0l0 27.212597l-35.118103 0z" fill-rule="evenodd"/><path fill="#ffffff" d="m296.48883 52.500217l0 -4.703125l-4.671875 0l0 -1.96875l4.671875 0l0 -4.6875l1.984375 0l0 4.6875l4.6875 0l0 1.96875l-4.6875 0l0 4.703125l-1.984375 0zm20.078125 0.75l0 2.03125l-11.34375 0q-0.03125 -0.765625 0.234375 -1.46875q0.4375 -1.15625 1.390625 -2.28125q0.953125 -1.125 2.765625 -2.609375q2.796875 -2.296875 3.78125 -3.625q0.984375 -1.34375 0.984375 -2.546875q0 -1.25 -0.90625 -2.109375q-0.890625 -0.859375 -2.328125 -0.859375q-1.515625 0 -2.4375 0.921875q-0.90625 0.90625 -0.921875 2.515625l-2.171875 -0.21875q0.21875 -2.421875 1.671875 -3.6875q1.453125 -1.28125 3.90625 -1.28125q2.46875 0 3.90625 1.375q1.453125 1.359375 1.453125 3.390625q0 1.03125 -0.421875 2.03125q-0.421875 1.0 -1.40625 2.109375q-0.96875 1.09375 -3.25 3.015625q-1.890625 1.59375 -2.4375 2.15625q-0.53125 0.5625 -0.890625 1.140625l8.421875 0z" fill-rule="nonzero"/><path fill="#000000" fill-opacity="0.0" d="m358.61417 117.414696l35.118103 0l0 27.212608l-35.118103 0z" fill-rule="evenodd"/><path fill="#ffffff" d="m366.26892 135.29845l0 -2.125l6.484375 0l0 2.125l-6.484375 0zm16.164062 5.15625l-2.109375 0l0 -13.4375q-0.75 0.71875 -2.0 1.453125q-1.234375 0.71875 -2.21875 1.078125l0 -2.03125q1.78125 -0.828125 3.09375 -2.015625q1.328125 -1.1875 1.875 -2.296875l1.359375 0l0 17.25z" fill-rule="nonzero"/><path fill="#000000" fill-opacity="0.0" d="m358.61417 372.9344l35.118103 0l0 27.212585l-35.118103 0z" fill-rule="evenodd"/><path fill="#ffffff" d="m366.26892 390.81815l0 -2.125l6.484375 0l0 2.125l-6.484375 0zm19.304688 3.125l0 2.03125l-11.34375 0q-0.03125 -0.765625 0.234375 -1.46875q0.4375 -1.15625 1.390625 -2.28125q0.953125 -1.125 2.765625 -2.609375q2.796875 -2.296875 3.78125 -3.625q0.984375 -1.34375 0.984375 -2.546875q0 -1.25 -0.90625 -2.109375q-0.890625 -0.859375 -2.328125 -0.859375q-1.515625 0 -2.4375 0.921875q-0.90625 0.90625 -0.921875 2.515625l-2.171875 -0.21875q0.21875 -2.421875 1.671875 -3.6875q1.453125 -1.28125 3.90625 -1.28125q2.46875 0 3.90625 1.375q1.453125 1.359375 1.453125 3.390625q0 1.03125 -0.421875 2.03125q-0.421875 1.0 -1.40625 2.109375q-0.96875 1.09375 -3.25 3.015625q-1.890625 1.59375 -2.4375 2.15625q-0.53125 0.5625 -0.890625 1.140625l8.421875 0z" fill-rule="nonzero"/></g></svg>