<svg id="Layer_1" data-name="Layer 1" xmlns="http://www.w3.org/2000/svg" viewBox="0 0 137.29441 136.35725">
  <defs>
    <style>
      .cls-1 {
        fill: #aa1e22;
      }

      .cls-2 {
        fill: #2c3592;
      }

      .cls-3 {
        fill: #e7ebe8;
      }

      .cls-4 {
        fill: #efedf6;
      }

      .cls-5 {
        fill: #231f20;
      }
    </style>
  </defs>
  <title>cliff-walking-policy</title>
  <rect class="cls-1" x="110.07628" y="2.86046" width="24.91422" height="131.21412"/>
  <rect class="cls-2" x="84.50577" y="3.76768" width="21.67016" height="21.67016"/>
  <rect class="cls-3" x="2.30391" y="1.9003" width="25.35057" height="25.35057"/>
  <polygon class="cls-4" points="14.954 23.98 20.224 21.355 9.683 21.355 14.954 23.98"/>
  <polygon class="cls-5" points="24.318 14.581 21.693 9.311 21.693 19.851 24.318 14.581"/>
  <rect class="cls-3" x="29.13855" y="1.92748" width="25.35057" height="25.35057"/>
  <polygon class="cls-4" points="32.475 14.602 35.1 19.872 35.1 9.332 32.475 14.602"/>
  <polygon class="cls-4" points="41.788 24.007 47.058 21.382 36.518 21.382 41.788 24.007"/>
  <polygon class="cls-5" points="51.153 14.608 48.528 9.338 48.528 19.878 51.153 14.608"/>
  <rect class="cls-3" x="55.866" y="1.93278" width="25.35057" height="25.35057"/>
  <polygon class="cls-4" points="59.203 14.608 61.827 19.878 61.827 9.337 59.203 14.608"/>
  <polygon class="cls-4" points="68.516 24.012 73.786 21.388 63.246 21.388 68.516 24.012"/>
  <polygon class="cls-5" points="77.88 14.613 75.255 9.343 75.255 19.884 77.88 14.613"/>
  <rect class="cls-3" x="2.30391" y="28.74011" width="25.35057" height="25.35057"/>
  <polygon class="cls-4" points="14.954 50.82 20.224 48.195 9.683 48.195 14.954 50.82"/>
  <polygon class="cls-4" points="24.318 41.421 21.693 36.151 21.693 46.691 24.318 41.421"/>
  <polygon class="cls-5" points="14.954 32.065 9.683 34.69 20.224 34.69 14.954 32.065"/>
  <rect class="cls-3" x="29.13855" y="28.76729" width="25.35057" height="25.35057"/>
  <polygon class="cls-4" points="32.475 41.442 35.1 46.712 35.1 36.172 32.475 41.442"/>
  <polygon class="cls-4" points="41.788 50.847 47.058 48.222 36.518 48.222 41.788 50.847"/>
  <polygon class="cls-4" points="51.153 41.448 48.528 36.178 48.528 46.718 51.153 41.448"/>
  <polygon class="cls-5" points="41.788 32.093 36.518 34.717 47.058 34.717 41.788 32.093"/>
  <rect class="cls-3" x="55.866" y="28.7726" width="25.35057" height="25.35057"/>
  <polygon class="cls-4" points="59.203 41.447 61.827 46.718 61.827 36.177 59.203 41.447"/>
  <polygon class="cls-4" points="68.516 50.852 73.786 48.227 63.246 48.227 68.516 50.852"/>
  <polygon class="cls-4" points="77.88 41.453 75.255 36.183 75.255 46.723 77.88 41.453"/>
  <polygon class="cls-5" points="68.516 32.098 63.246 34.723 73.786 34.723 68.516 32.098"/>
  <rect class="cls-3" x="82.66557" y="28.78321" width="25.35057" height="25.35057"/>
  <polygon class="cls-4" points="86.002 41.458 88.627 46.728 88.627 36.188 86.002 41.458"/>
  <polygon class="cls-4" points="95.315 50.863 100.586 48.238 90.045 48.238 95.315 50.863"/>
  <polygon class="cls-4" points="104.68 41.464 102.055 36.194 102.055 46.734 104.68 41.464"/>
  <polygon class="cls-5" points="95.315 32.108 90.045 34.733 100.586 34.733 95.315 32.108"/>
  <rect class="cls-3" x="2.30391" y="55.46456" width="25.35057" height="25.35057"/>
  <polygon class="cls-4" points="14.954 77.544 20.224 74.919 9.683 74.919 14.954 77.544"/>
  <polygon class="cls-4" points="24.318 68.145 21.693 62.875 21.693 73.415 24.318 68.145"/>
  <polygon class="cls-5" points="14.954 58.79 9.683 61.415 20.224 61.415 14.954 58.79"/>
  <rect class="cls-3" x="29.13855" y="55.49174" width="25.35057" height="25.35057"/>
  <polygon class="cls-4" points="32.475 68.167 35.1 73.437 35.1 62.896 32.475 68.167"/>
  <polygon class="cls-4" points="41.788 77.571 47.058 74.947 36.518 74.947 41.788 77.571"/>
  <polygon class="cls-4" points="51.153 68.172 48.528 62.902 48.528 73.443 51.153 68.172"/>
  <polygon class="cls-5" points="41.788 58.817 36.518 61.442 47.058 61.442 41.788 58.817"/>
  <rect class="cls-3" x="55.866" y="55.49704" width="25.35057" height="25.35057"/>
  <polygon class="cls-4" points="59.203 68.172 61.827 73.442 61.827 62.902 59.203 68.172"/>
  <polygon class="cls-4" points="68.516 77.577 73.786 74.952 63.246 74.952 68.516 77.577"/>
  <polygon class="cls-4" points="77.88 68.178 75.255 62.907 75.255 73.448 77.88 68.178"/>
  <polygon class="cls-5" points="68.516 58.822 63.246 61.447 73.786 61.447 68.516 58.822"/>
  <rect class="cls-3" x="82.66557" y="55.50766" width="25.35057" height="25.35057"/>
  <polygon class="cls-4" points="86.002 68.182 88.627 73.453 88.627 62.912 86.002 68.182"/>
  <polygon class="cls-4" points="95.315 77.587 100.586 74.962 90.045 74.962 95.315 77.587"/>
  <polygon class="cls-4" points="104.68 68.188 102.055 62.918 102.055 73.458 104.68 68.188"/>
  <polygon class="cls-5" points="95.315 58.833 90.045 61.458 100.586 61.458 95.315 58.833"/>
  <rect class="cls-3" x="2.30391" y="82.30437" width="25.35057" height="25.35057"/>
  <polygon class="cls-4" points="14.954 104.384 20.224 101.759 9.683 101.759 14.954 104.384"/>
  <polygon class="cls-4" points="24.318 94.985 21.693 89.715 21.693 100.255 24.318 94.985"/>
  <polygon class="cls-5" points="14.954 85.63 9.683 88.255 20.224 88.255 14.954 85.63"/>
  <rect class="cls-3" x="29.13855" y="82.33155" width="25.35057" height="25.35057"/>
  <polygon class="cls-5" points="32.475 95.006 35.1 100.277 35.1 89.736 32.475 95.006"/>
  <polygon class="cls-4" points="41.788 104.411 47.058 101.786 36.518 101.786 41.788 104.411"/>
  <polygon class="cls-4" points="51.153 95.012 48.528 89.742 48.528 100.282 51.153 95.012"/>
  <polygon class="cls-4" points="41.788 85.657 36.518 88.282 47.058 88.282 41.788 85.657"/>
  <rect class="cls-3" x="55.866" y="82.33686" width="25.35057" height="25.35057"/>
  <polygon class="cls-5" points="59.203 95.012 61.827 100.282 61.827 89.741 59.203 95.012"/>
  <polygon class="cls-4" points="68.516 104.416 73.786 101.792 63.246 101.792 68.516 104.416"/>
  <polygon class="cls-4" points="77.88 95.017 75.255 89.747 75.255 100.288 77.88 95.017"/>
  <polygon class="cls-4" points="68.516 85.662 63.246 88.287 73.786 88.287 68.516 85.662"/>
  <rect class="cls-3" x="82.66557" y="82.34747" width="25.35057" height="25.35057"/>
  <polygon class="cls-5" points="86.002 95.022 88.627 100.292 88.627 89.752 86.002 95.022"/>
  <polygon class="cls-4" points="95.315 104.427 100.586 101.802 90.045 101.802 95.315 104.427"/>
  <polygon class="cls-4" points="104.68 95.028 102.055 89.758 102.055 100.298 104.68 95.028"/>
  <polygon class="cls-4" points="95.315 85.673 90.045 88.298 100.586 88.298 95.315 85.673"/>
  <rect class="cls-3" x="2.30391" y="109.11998" width="25.35057" height="25.35057"/>
  <polygon class="cls-4" points="24.318 121.801 21.693 116.53 21.693 127.071 24.318 121.801"/>
  <polygon class="cls-5" points="14.954 112.445 9.683 115.07 20.224 115.07 14.954 112.445"/>
  <rect class="cls-3" x="29.13855" y="109.14716" width="25.35057" height="25.35057"/>
  <polygon class="cls-5" points="32.475 121.822 35.1 127.092 35.1 116.552 32.475 121.822"/>
  <polygon class="cls-4" points="51.153 121.828 48.528 116.558 48.528 127.098 51.153 121.828"/>
  <polygon class="cls-4" points="41.788 112.472 36.518 115.097 47.058 115.097 41.788 112.472"/>
  <rect class="cls-3" x="55.866" y="109.15247" width="25.35057" height="25.35057"/>
  <polygon class="cls-5" points="59.203 121.827 61.827 127.097 61.827 116.557 59.203 121.827"/>
  <polygon class="cls-4" points="77.88 121.833 75.255 116.563 75.255 127.103 77.88 121.833"/>
  <polygon class="cls-4" points="68.516 112.478 63.246 115.103 73.786 115.103 68.516 112.478"/>
  <rect class="cls-3" x="82.66557" y="109.16308" width="25.35057" height="25.35057"/>
  <polygon class="cls-5" points="86.002 121.838 88.627 127.108 88.627 116.568 86.002 121.838"/>
  <polygon class="cls-4" points="104.68 121.844 102.055 116.573 102.055 127.114 104.68 121.844"/>
  <polygon class="cls-4" points="95.315 112.488 90.045 115.113 100.586 115.113 95.315 112.488"/>
</svg>
