<svg id="Layer_1" data-name="Layer 1" xmlns="http://www.w3.org/2000/svg" viewBox="0 0 178.45445 178.6768">
  <defs>
    <style>
      .cls-1 {
        fill: #8a181a;
      }

      .cls-2 {
        fill: #e7ebe8;
      }

      .cls-3 {
        fill: #cac9cc;
      }

      .cls-4 {
        fill: #8191c8;
      }

      .cls-5 {
        fill: #c4c6e4;
      }

      .cls-6 {
        fill: #dfe1ee;
      }

      .cls-7 {
        fill: none;
        stroke: #8191c8;
        stroke-miterlimit: 10;
        stroke-width: 2px;
      }

      .cls-8 {
        font-size: 6.65044px;
        fill: #e6e7e8;
        font-family: Arial-BoldMT, Arial;
        font-weight: 700;
      }
    </style>
  </defs>
  <title>large-cliffworld-approx</title>
  <rect class="cls-1" x="166.57354" y="0.18868" width="11.8813" height="178.41872"/>
  <rect class="cls-2" x="115.17815" y="0.18868" width="12.08939" height="12.08939"/>
  <rect class="cls-2" x="127.97528" y="0.20164" width="12.08939" height="12.08939"/>
  <rect class="cls-2" x="140.72128" y="0.20417" width="12.08939" height="12.08939"/>
  <rect class="cls-2" x="115.17815" y="12.98827" width="12.08939" height="12.08939"/>
  <rect class="cls-2" x="127.97528" y="13.00123" width="12.08939" height="12.08939"/>
  <rect class="cls-2" x="140.72128" y="13.00376" width="12.08939" height="12.08939"/>
  <rect class="cls-2" x="153.50169" y="13.00883" width="12.08939" height="12.08939"/>
  <rect class="cls-2" x="115.17815" y="25.73285" width="12.08939" height="12.08939"/>
  <rect class="cls-2" x="127.97528" y="25.74581" width="12.08939" height="12.08939"/>
  <rect class="cls-2" x="140.72128" y="25.74834" width="12.08939" height="12.08939"/>
  <rect class="cls-2" x="153.50169" y="25.7534" width="12.08939" height="12.08939"/>
  <rect class="cls-2" x="115.17815" y="38.53244" width="12.08939" height="12.08939"/>
  <rect class="cls-2" x="127.97528" y="38.5454" width="12.08939" height="12.08939"/>
  <rect class="cls-2" x="140.72128" y="38.54794" width="12.08939" height="12.08939"/>
  <rect class="cls-2" x="153.50169" y="38.553" width="12.08939" height="12.08939"/>
  <rect class="cls-2" x="115.17815" y="51.32049" width="12.08939" height="12.08939"/>
  <rect class="cls-2" x="127.97528" y="51.33346" width="12.08939" height="12.08939"/>
  <rect class="cls-2" x="140.72128" y="51.33599" width="12.08939" height="12.08939"/>
  <rect class="cls-2" x="153.50169" y="51.34105" width="12.08939" height="12.08939"/>
  <circle class="cls-3" cx="159.53421" cy="57.49607" r="3.82915"/>
  <rect class="cls-2" x="89.5839" y="0.16046" width="12.08939" height="12.08939"/>
  <rect class="cls-2" x="102.38102" y="0.17342" width="12.08939" height="12.08939"/>
  <rect class="cls-2" x="89.5839" y="12.96006" width="12.08939" height="12.08939"/>
  <rect class="cls-2" x="102.38102" y="12.97302" width="12.08939" height="12.08939"/>
  <rect class="cls-2" x="89.5839" y="25.70463" width="12.08939" height="12.08939"/>
  <rect class="cls-2" x="102.38102" y="25.71759" width="12.08939" height="12.08939"/>
  <rect class="cls-2" x="89.5839" y="38.50423" width="12.08939" height="12.08939"/>
  <rect class="cls-2" x="102.38102" y="38.51719" width="12.08939" height="12.08939"/>
  <rect class="cls-2" x="89.5839" y="51.29228" width="12.08939" height="12.08939"/>
  <rect class="cls-2" x="102.38102" y="51.30524" width="12.08939" height="12.08939"/>
  <rect class="cls-2" x="63.98964" y="0.13224" width="12.08939" height="12.08939"/>
  <rect class="cls-2" x="76.78677" y="0.14521" width="12.08939" height="12.08939"/>
  <rect class="cls-2" x="63.98964" y="12.93184" width="12.08939" height="12.08939"/>
  <rect class="cls-2" x="76.78677" y="12.9448" width="12.08939" height="12.08939"/>
  <rect class="cls-2" x="63.98964" y="25.67642" width="12.08939" height="12.08939"/>
  <rect class="cls-2" x="76.78677" y="25.68938" width="12.08939" height="12.08939"/>
  <rect class="cls-2" x="63.98964" y="38.47601" width="12.08939" height="12.08939"/>
  <rect class="cls-2" x="76.78677" y="38.48897" width="12.08939" height="12.08939"/>
  <rect class="cls-2" x="63.98964" y="51.26406" width="12.08939" height="12.08939"/>
  <rect class="cls-2" x="76.78677" y="51.27702" width="12.08939" height="12.08939"/>
  <rect class="cls-2" x="38.39539" y="0.10403" width="12.08939" height="12.08939"/>
  <rect class="cls-2" x="51.19251" y="0.11699" width="12.08939" height="12.08939"/>
  <rect class="cls-2" x="38.39539" y="12.90362" width="12.08939" height="12.08939"/>
  <rect class="cls-2" x="51.19251" y="12.91658" width="12.08939" height="12.08939"/>
  <rect class="cls-2" x="38.39539" y="25.6482" width="12.08939" height="12.08939"/>
  <rect class="cls-2" x="51.19251" y="25.66116" width="12.08939" height="12.08939"/>
  <rect class="cls-2" x="38.39539" y="38.44779" width="12.08939" height="12.08939"/>
  <rect class="cls-2" x="51.19251" y="38.46075" width="12.08939" height="12.08939"/>
  <rect class="cls-2" x="38.39539" y="51.23584" width="12.08939" height="12.08939"/>
  <rect class="cls-2" x="51.19251" y="51.2488" width="12.08939" height="12.08939"/>
  <rect class="cls-2" x="12.80113" y="0.09107" width="12.08939" height="12.08939"/>
  <rect class="cls-2" x="25.59826" y="0.10403" width="12.08939" height="12.08939"/>
  <rect class="cls-2" x="12.80113" y="12.89066" width="12.08939" height="12.08939"/>
  <rect class="cls-2" x="25.59826" y="12.90362" width="12.08939" height="12.08939"/>
  <rect class="cls-2" x="12.80113" y="25.63524" width="12.08939" height="12.08939"/>
  <rect class="cls-2" x="25.59826" y="25.6482" width="12.08939" height="12.08939"/>
  <rect class="cls-2" x="12.80113" y="38.43483" width="12.08939" height="12.08939"/>
  <rect class="cls-2" x="25.59826" y="38.44779" width="12.08939" height="12.08939"/>
  <rect class="cls-2" x="12.80113" y="51.22288" width="12.08939" height="12.08939"/>
  <rect class="cls-2" x="25.59826" y="51.23584" width="12.08939" height="12.08939"/>
  <rect class="cls-2" x="0.004" y="0.09107" width="12.08939" height="12.08939"/>
  <rect class="cls-2" x="0.004" y="12.89066" width="12.08939" height="12.08939"/>
  <rect class="cls-2" x="0.004" y="25.63524" width="12.08939" height="12.08939"/>
  <rect class="cls-2" x="0.004" y="38.43483" width="12.08939" height="12.08939"/>
  <rect class="cls-2" x="0.004" y="51.22288" width="12.08939" height="12.08939"/>
  <rect class="cls-2" x="115.17779" y="64.18424" width="12.08939" height="12.08939"/>
  <rect class="cls-2" x="127.97491" y="64.1972" width="12.08939" height="12.08939"/>
  <rect class="cls-2" x="140.72092" y="64.19973" width="12.08939" height="12.08939"/>
  <rect class="cls-2" x="153.50132" y="64.20479" width="12.08939" height="12.08939"/>
  <rect class="cls-2" x="115.17779" y="76.92882" width="12.08939" height="12.08939"/>
  <rect class="cls-2" x="127.97491" y="76.94178" width="12.08939" height="12.08939"/>
  <rect class="cls-2" x="140.72092" y="76.94431" width="12.08939" height="12.08939"/>
  <rect class="cls-2" x="153.50132" y="76.94937" width="12.08939" height="12.08939"/>
  <rect class="cls-2" x="115.17779" y="89.72841" width="12.08939" height="12.08939"/>
  <rect class="cls-2" x="127.97491" y="89.74137" width="12.08939" height="12.08939"/>
  <rect class="cls-2" x="140.72092" y="89.7439" width="12.08939" height="12.08939"/>
  <rect class="cls-2" x="153.50132" y="89.74896" width="12.08939" height="12.08939"/>
  <rect class="cls-2" x="115.17779" y="102.51646" width="12.08939" height="12.08939"/>
  <rect class="cls-2" x="127.97491" y="102.52942" width="12.08939" height="12.08939"/>
  <rect class="cls-2" x="140.72092" y="102.53195" width="12.08939" height="12.08939"/>
  <rect class="cls-2" x="153.50132" y="102.53702" width="12.08939" height="12.08939"/>
  <circle class="cls-3" cx="146.8935" cy="70.2585" r="3.82915"/>
  <circle class="cls-3" cx="159.53385" cy="70.22893" r="3.82915"/>
  <circle class="cls-3" cx="121.14572" cy="83.12654" r="3.82915"/>
  <circle class="cls-3" cx="133.94285" cy="83.14456" r="3.82915"/>
  <circle class="cls-3" cx="146.8935" cy="83.14456" r="3.82915"/>
  <circle class="cls-3" cx="159.53385" cy="83.115" r="3.82915"/>
  <circle class="cls-3" cx="121.14572" cy="95.81752" r="3.82915"/>
  <circle class="cls-3" cx="133.94285" cy="95.7731" r="3.82915"/>
  <circle class="cls-3" cx="146.8935" cy="95.83555" r="3.82915"/>
  <circle class="cls-3" cx="159.53385" cy="95.80598" r="3.82915"/>
  <circle class="cls-3" cx="121.14572" cy="108.70358" r="3.82915"/>
  <circle class="cls-3" cx="133.94285" cy="108.97428" r="3.82915"/>
  <circle class="cls-3" cx="146.8935" cy="108.72161" r="3.82915"/>
  <circle class="cls-3" cx="159.53385" cy="108.69204" r="3.82915"/>
  <rect class="cls-2" x="89.58353" y="64.15602" width="12.08939" height="12.08939"/>
  <rect class="cls-2" x="102.38066" y="64.16898" width="12.08939" height="12.08939"/>
  <rect class="cls-2" x="89.58353" y="76.9006" width="12.08939" height="12.08939"/>
  <rect class="cls-2" x="102.38066" y="76.91356" width="12.08939" height="12.08939"/>
  <rect class="cls-2" x="89.58353" y="89.70019" width="12.08939" height="12.08939"/>
  <rect class="cls-2" x="102.38066" y="89.71315" width="12.08939" height="12.08939"/>
  <rect class="cls-2" x="89.58353" y="102.48824" width="12.08939" height="12.08939"/>
  <rect class="cls-2" x="102.38066" y="102.50121" width="12.08939" height="12.08939"/>
  <circle class="cls-3" cx="95.55147" cy="83.09832" r="3.82915"/>
  <circle class="cls-3" cx="108.34859" cy="83.11635" r="3.82915"/>
  <circle class="cls-3" cx="95.55147" cy="95.7893" r="3.82915"/>
  <circle class="cls-3" cx="108.34859" cy="95.74489" r="3.82915"/>
  <circle class="cls-3" cx="95.55147" cy="108.67536" r="3.82915"/>
  <circle class="cls-3" cx="108.34859" cy="108.94606" r="3.82915"/>
  <rect class="cls-2" x="63.98928" y="64.1278" width="12.08939" height="12.08939"/>
  <rect class="cls-2" x="76.78641" y="64.14077" width="12.08939" height="12.08939"/>
  <rect class="cls-2" x="63.98928" y="76.87238" width="12.08939" height="12.08939"/>
  <rect class="cls-2" x="76.78641" y="76.88534" width="12.08939" height="12.08939"/>
  <rect class="cls-2" x="63.98928" y="89.67198" width="12.08939" height="12.08939"/>
  <rect class="cls-2" x="76.78641" y="89.68494" width="12.08939" height="12.08939"/>
  <rect class="cls-2" x="63.98928" y="102.46003" width="12.08939" height="12.08939"/>
  <rect class="cls-2" x="76.78641" y="102.47299" width="12.08939" height="12.08939"/>
  <circle class="cls-3" cx="69.95721" cy="83.0701" r="3.82915"/>
  <circle class="cls-3" cx="82.75434" cy="83.08813" r="3.82915"/>
  <circle class="cls-3" cx="69.95721" cy="95.76109" r="3.82915"/>
  <circle class="cls-3" cx="82.75434" cy="95.71667" r="3.82915"/>
  <circle class="cls-3" cx="69.95721" cy="108.64715" r="3.82915"/>
  <circle class="cls-3" cx="82.75434" cy="108.91784" r="3.82915"/>
  <rect class="cls-2" x="38.39502" y="64.09959" width="12.08939" height="12.08939"/>
  <rect class="cls-2" x="51.19215" y="64.11255" width="12.08939" height="12.08939"/>
  <rect class="cls-2" x="38.39502" y="76.84416" width="12.08939" height="12.08939"/>
  <rect class="cls-2" x="51.19215" y="76.85713" width="12.08939" height="12.08939"/>
  <rect class="cls-2" x="38.39502" y="89.64376" width="12.08939" height="12.08939"/>
  <rect class="cls-2" x="51.19215" y="89.65672" width="12.08939" height="12.08939"/>
  <rect class="cls-2" x="38.39502" y="102.43181" width="12.08939" height="12.08939"/>
  <rect class="cls-2" x="51.19215" y="102.44477" width="12.08939" height="12.08939"/>
  <circle class="cls-3" cx="57.16008" cy="95.68845" r="3.82915"/>
  <circle class="cls-3" cx="57.16008" cy="108.88962" r="3.82915"/>
  <rect class="cls-2" x="12.80077" y="64.08663" width="12.08939" height="12.08939"/>
  <rect class="cls-2" x="25.5979" y="64.09959" width="12.08939" height="12.08939"/>
  <rect class="cls-2" x="12.80077" y="76.8312" width="12.08939" height="12.08939"/>
  <rect class="cls-2" x="25.5979" y="76.84416" width="12.08939" height="12.08939"/>
  <rect class="cls-2" x="12.80077" y="89.6308" width="12.08939" height="12.08939"/>
  <rect class="cls-2" x="25.5979" y="89.64376" width="12.08939" height="12.08939"/>
  <rect class="cls-2" x="12.80077" y="102.41885" width="12.08939" height="12.08939"/>
  <rect class="cls-2" x="25.5979" y="102.43181" width="12.08939" height="12.08939"/>
  <rect class="cls-2" x="0.00364" y="64.08663" width="12.08939" height="12.08939"/>
  <rect class="cls-2" x="0.00364" y="76.8312" width="12.08939" height="12.08939"/>
  <rect class="cls-2" x="0.00364" y="89.6308" width="12.08939" height="12.08939"/>
  <rect class="cls-2" x="0.00364" y="102.41885" width="12.08939" height="12.08939"/>
  <rect class="cls-2" x="115.17413" y="115.41966" width="12.08939" height="12.08939"/>
  <rect class="cls-2" x="127.97126" y="115.43262" width="12.08939" height="12.08939"/>
  <rect class="cls-2" x="140.71726" y="115.43515" width="12.08939" height="12.08939"/>
  <rect class="cls-2" x="153.49766" y="115.44022" width="12.08939" height="12.08939"/>
  <circle class="cls-3" cx="121.14206" cy="121.60678" r="3.82915"/>
  <circle class="cls-3" cx="133.93919" cy="121.87748" r="3.82915"/>
  <circle class="cls-3" cx="146.88984" cy="121.62481" r="3.82915"/>
  <circle class="cls-3" cx="159.53019" cy="121.59524" r="3.82915"/>
  <rect class="cls-2" x="89.57987" y="115.39145" width="12.08939" height="12.08939"/>
  <rect class="cls-2" x="102.377" y="115.40441" width="12.08939" height="12.08939"/>
  <circle class="cls-3" cx="95.54781" cy="121.57857" r="3.82915"/>
  <circle class="cls-3" cx="108.34493" cy="121.84926" r="3.82915"/>
  <rect class="cls-2" x="63.98562" y="115.36323" width="12.08939" height="12.08939"/>
  <rect class="cls-2" x="76.78275" y="115.37619" width="12.08939" height="12.08939"/>
  <circle class="cls-3" cx="69.95355" cy="121.55035" r="3.82915"/>
  <circle class="cls-3" cx="82.75068" cy="121.82104" r="3.82915"/>
  <rect class="cls-2" x="38.39136" y="115.33501" width="12.08939" height="12.08939"/>
  <rect class="cls-2" x="51.18849" y="115.34797" width="12.08939" height="12.08939"/>
  <circle class="cls-3" cx="57.15642" cy="121.79282" r="3.82915"/>
  <rect class="cls-2" x="12.79711" y="115.32205" width="12.08939" height="12.08939"/>
  <rect class="cls-2" x="25.59424" y="115.33501" width="12.08939" height="12.08939"/>
  <rect class="cls-2" x="-0.00002" y="115.32205" width="12.08939" height="12.08939"/>
  <rect class="cls-2" x="115.17376" y="128.28341" width="12.08939" height="12.08939"/>
  <rect class="cls-2" x="127.97089" y="128.29637" width="12.08939" height="12.08939"/>
  <rect class="cls-2" x="140.7169" y="128.2989" width="12.08939" height="12.08939"/>
  <rect class="cls-2" x="153.4973" y="128.30396" width="12.08939" height="12.08939"/>
  <rect class="cls-2" x="115.17376" y="141.02799" width="12.08939" height="12.08939"/>
  <rect class="cls-2" x="127.97089" y="141.04095" width="12.08939" height="12.08939"/>
  <rect class="cls-2" x="140.7169" y="141.04348" width="12.08939" height="12.08939"/>
  <rect class="cls-2" x="153.4973" y="141.04854" width="12.08939" height="12.08939"/>
  <rect class="cls-2" x="115.17376" y="153.82758" width="12.08939" height="12.08939"/>
  <rect class="cls-2" x="127.97089" y="153.84054" width="12.08939" height="12.08939"/>
  <rect class="cls-2" x="140.7169" y="153.84307" width="12.08939" height="12.08939"/>
  <rect class="cls-2" x="153.4973" y="153.84813" width="12.08939" height="12.08939"/>
  <rect class="cls-2" x="115.17376" y="166.61563" width="12.08939" height="12.08939"/>
  <rect class="cls-2" x="127.97089" y="166.62859" width="12.08939" height="12.08939"/>
  <rect class="cls-2" x="140.7169" y="166.63112" width="12.08939" height="12.08939"/>
  <rect class="cls-2" x="153.4973" y="166.63618" width="12.08939" height="12.08939"/>
  <circle class="cls-3" cx="121.1417" cy="134.33964" r="3.82915"/>
  <circle class="cls-3" cx="133.93883" cy="134.35767" r="3.82915"/>
  <circle class="cls-3" cx="146.88947" cy="134.35767" r="3.82915"/>
  <circle class="cls-3" cx="159.52983" cy="134.3281" r="3.82915"/>
  <circle class="cls-3" cx="121.1417" cy="147.2257" r="3.82915"/>
  <circle class="cls-3" cx="133.93883" cy="147.24373" r="3.82915"/>
  <circle class="cls-3" cx="146.88947" cy="147.24373" r="3.82915"/>
  <circle class="cls-3" cx="159.52983" cy="147.21416" r="3.82915"/>
  <circle class="cls-3" cx="121.1417" cy="159.91669" r="3.82915"/>
  <circle class="cls-3" cx="133.93883" cy="159.87227" r="3.82915"/>
  <circle class="cls-3" cx="146.88947" cy="159.93472" r="3.82915"/>
  <circle class="cls-3" cx="159.52983" cy="159.90515" r="3.82915"/>
  <circle class="cls-3" cx="121.1417" cy="172.80275" r="3.82915"/>
  <circle class="cls-3" cx="133.93883" cy="173.07344" r="3.82915"/>
  <circle class="cls-3" cx="146.88947" cy="172.82078" r="3.82915"/>
  <circle class="cls-3" cx="159.52983" cy="172.79121" r="3.82915"/>
  <rect class="cls-2" x="89.57951" y="128.25519" width="12.08939" height="12.08939"/>
  <rect class="cls-2" x="102.37664" y="128.26815" width="12.08939" height="12.08939"/>
  <rect class="cls-2" x="89.57951" y="140.99977" width="12.08939" height="12.08939"/>
  <rect class="cls-2" x="102.37664" y="141.01273" width="12.08939" height="12.08939"/>
  <rect class="cls-2" x="89.57951" y="153.79936" width="12.08939" height="12.08939"/>
  <rect class="cls-2" x="102.37664" y="153.81232" width="12.08939" height="12.08939"/>
  <rect class="cls-2" x="89.57951" y="166.58741" width="12.08939" height="12.08939"/>
  <rect class="cls-2" x="102.37664" y="166.60037" width="12.08939" height="12.08939"/>
  <circle class="cls-3" cx="95.54744" cy="134.31142" r="3.82915"/>
  <circle class="cls-3" cx="108.34457" cy="134.32945" r="3.82915"/>
  <circle class="cls-3" cx="95.54744" cy="147.19749" r="3.82915"/>
  <circle class="cls-3" cx="108.34457" cy="147.21551" r="3.82915"/>
  <circle class="cls-3" cx="95.54744" cy="159.88847" r="3.82915"/>
  <circle class="cls-3" cx="108.34457" cy="159.84406" r="3.82915"/>
  <circle class="cls-3" cx="95.54744" cy="172.77453" r="3.82915"/>
  <circle class="cls-3" cx="108.34457" cy="173.04523" r="3.82915"/>
  <rect class="cls-2" x="63.98526" y="128.22697" width="12.08939" height="12.08939"/>
  <rect class="cls-2" x="76.78238" y="128.23993" width="12.08939" height="12.08939"/>
  <rect class="cls-2" x="63.98526" y="140.97155" width="12.08939" height="12.08939"/>
  <rect class="cls-2" x="76.78238" y="140.98451" width="12.08939" height="12.08939"/>
  <rect class="cls-2" x="63.98526" y="153.77114" width="12.08939" height="12.08939"/>
  <rect class="cls-2" x="76.78238" y="153.7841" width="12.08939" height="12.08939"/>
  <rect class="cls-2" x="63.98526" y="166.55919" width="12.08939" height="12.08939"/>
  <rect class="cls-2" x="76.78238" y="166.57216" width="12.08939" height="12.08939"/>
  <circle class="cls-3" cx="69.95319" cy="134.28321" r="3.82915"/>
  <circle class="cls-3" cx="82.75032" cy="134.30124" r="3.82915"/>
  <circle class="cls-3" cx="69.95319" cy="147.16927" r="3.82915"/>
  <circle class="cls-3" cx="82.75032" cy="147.1873" r="3.82915"/>
  <circle class="cls-3" cx="69.95319" cy="159.86025" r="3.82915"/>
  <circle class="cls-3" cx="82.75032" cy="159.81584" r="3.82915"/>
  <circle class="cls-3" cx="69.95319" cy="172.74631" r="3.82915"/>
  <circle class="cls-3" cx="82.75032" cy="173.01701" r="3.82915"/>
  <rect class="cls-2" x="38.391" y="128.19876" width="12.08939" height="12.08939"/>
  <rect class="cls-2" x="51.18813" y="128.21172" width="12.08939" height="12.08939"/>
  <rect class="cls-2" x="38.391" y="140.94333" width="12.08939" height="12.08939"/>
  <rect class="cls-2" x="51.18813" y="140.95629" width="12.08939" height="12.08939"/>
  <rect class="cls-2" x="38.391" y="153.74293" width="12.08939" height="12.08939"/>
  <rect class="cls-2" x="51.18813" y="153.75589" width="12.08939" height="12.08939"/>
  <rect class="cls-2" x="38.391" y="166.53098" width="12.08939" height="12.08939"/>
  <rect class="cls-2" x="51.18813" y="166.54394" width="12.08939" height="12.08939"/>
  <circle class="cls-3" cx="57.15606" cy="134.27302" r="3.82915"/>
  <circle class="cls-3" cx="57.15606" cy="147.15908" r="3.82915"/>
  <circle class="cls-3" cx="57.15606" cy="159.78762" r="3.82915"/>
  <circle class="cls-3" cx="57.15606" cy="172.98879" r="3.82915"/>
  <rect class="cls-2" x="12.79675" y="128.18579" width="12.08939" height="12.08939"/>
  <rect class="cls-2" x="25.59387" y="128.19876" width="12.08939" height="12.08939"/>
  <rect class="cls-2" x="12.79675" y="140.93037" width="12.08939" height="12.08939"/>
  <rect class="cls-2" x="25.59387" y="140.94333" width="12.08939" height="12.08939"/>
  <rect class="cls-2" x="12.79675" y="153.72996" width="12.08939" height="12.08939"/>
  <rect class="cls-2" x="25.59387" y="153.74293" width="12.08939" height="12.08939"/>
  <rect class="cls-2" x="12.79675" y="166.51802" width="12.08939" height="12.08939"/>
  <rect class="cls-2" x="25.59387" y="166.53098" width="12.08939" height="12.08939"/>
  <g>
    <circle class="cls-4" cx="146.97062" cy="6.2514" r="3.82915"/>
    <circle class="cls-4" cx="133.94321" cy="19.06253" r="3.82915"/>
    <circle class="cls-4" cx="146.89386" cy="19.06253" r="3.82915"/>
    <circle class="cls-4" cx="121.14608" cy="31.93057" r="3.82915"/>
    <circle class="cls-4" cx="133.94321" cy="31.9486" r="3.82915"/>
    <circle class="cls-4" cx="108.34896" cy="31.92038" r="3.82915"/>
    <circle class="cls-4" cx="95.55183" cy="44.59334" r="3.82915"/>
    <circle class="cls-4" cx="108.34896" cy="44.54892" r="3.82915"/>
    <circle class="cls-4" cx="69.95758" cy="18.98807" r="3.82915"/>
    <circle class="cls-4" cx="69.95758" cy="31.87413" r="3.82915"/>
    <circle class="cls-4" cx="82.7547" cy="31.89216" r="3.82915"/>
    <circle class="cls-4" cx="82.7547" cy="44.5207" r="3.82915"/>
    <circle class="cls-4" cx="44.36332" cy="18.95985" r="3.82915"/>
    <circle class="cls-4" cx="57.16045" cy="18.97788" r="3.82915"/>
    <circle class="cls-4" cx="31.56619" cy="18.96492" r="3.82915"/>
    <circle class="cls-4" cx="18.76907" cy="31.83295" r="3.82915"/>
    <circle class="cls-4" cx="31.56619" cy="31.85098" r="3.82915"/>
    <circle class="cls-4" cx="5.97194" cy="31.83295" r="3.82915"/>
    <circle class="cls-4" cx="5.97194" cy="44.52394" r="3.82915"/>
    <circle class="cls-4" cx="5.97194" cy="57.41" r="3.82915"/>
    <circle class="cls-4" cx="18.7687" cy="70.14286" r="3.82915"/>
    <circle class="cls-4" cx="18.7687" cy="83.02892" r="3.82915"/>
    <circle class="cls-4" cx="18.7687" cy="95.71991" r="3.82915"/>
    <circle class="cls-4" cx="18.7687" cy="108.60597" r="3.82915"/>
    <circle class="cls-4" cx="5.97158" cy="70.14286" r="3.82915"/>
    <circle class="cls-4" cx="18.76504" cy="121.50917" r="3.82915"/>
    <circle class="cls-4" cx="18.76468" cy="134.24203" r="3.82915"/>
    <circle class="cls-4" cx="18.76468" cy="147.12809" r="3.82915"/>
    <circle class="cls-4" cx="18.76468" cy="159.81907" r="3.82915"/>
  </g>
  <rect class="cls-2" x="-0.00038" y="128.18579" width="12.08939" height="12.08939"/>
  <rect class="cls-2" x="-0.00038" y="140.93037" width="12.08939" height="12.08939"/>
  <rect class="cls-2" x="-0.00038" y="153.72996" width="12.08939" height="12.08939"/>
  <rect class="cls-2" x="-0.00038" y="166.51802" width="12.08939" height="12.08939"/>
  <g>
    <circle class="cls-5" cx="134.01997" cy="6.2514" r="3.82915"/>
    <circle class="cls-5" cx="121.14608" cy="19.04451" r="3.82915"/>
    <circle class="cls-5" cx="159.53421" cy="19.03297" r="3.82915"/>
    <circle class="cls-5" cx="146.89386" cy="31.9486" r="3.82915"/>
    <circle class="cls-5" cx="121.14608" cy="44.62155" r="3.82915"/>
    <circle class="cls-5" cx="133.94321" cy="44.57714" r="3.82915"/>
    <circle class="cls-5" cx="121.14608" cy="57.50761" r="3.82915"/>
    <circle class="cls-5" cx="95.55183" cy="19.01629" r="3.82915"/>
    <circle class="cls-5" cx="108.34896" cy="19.03432" r="3.82915"/>
    <circle class="cls-5" cx="95.55183" cy="31.90235" r="3.82915"/>
    <circle class="cls-5" cx="95.55183" cy="57.4794" r="3.82915"/>
    <circle class="cls-5" cx="108.34896" cy="57.75009" r="3.82915"/>
    <circle class="cls-5" cx="70.03433" cy="6.17694" r="3.82915"/>
    <circle class="cls-5" cx="82.83146" cy="6.19497" r="3.82915"/>
    <circle class="cls-5" cx="82.7547" cy="19.0061" r="3.82915"/>
    <circle class="cls-5" cx="69.95758" cy="44.56512" r="3.82915"/>
    <circle class="cls-5" cx="69.95758" cy="57.45118" r="3.82915"/>
    <circle class="cls-5" cx="82.7547" cy="57.72187" r="3.82915"/>
    <circle class="cls-5" cx="44.44008" cy="6.14872" r="3.82915"/>
    <circle class="cls-5" cx="57.23721" cy="6.16675" r="3.82915"/>
    <circle class="cls-5" cx="44.36332" cy="31.84592" r="3.82915"/>
    <circle class="cls-5" cx="57.16045" cy="31.86394" r="3.82915"/>
    <circle class="cls-5" cx="44.36332" cy="44.5369" r="3.82915"/>
    <circle class="cls-5" cx="57.16045" cy="44.49248" r="3.82915"/>
    <circle class="cls-5" cx="31.64295" cy="6.15379" r="3.82915"/>
    <circle class="cls-5" cx="18.76907" cy="18.94689" r="3.82915"/>
    <circle class="cls-5" cx="18.76907" cy="44.52394" r="3.82915"/>
    <circle class="cls-5" cx="31.56619" cy="44.47952" r="3.82915"/>
    <circle class="cls-5" cx="18.76907" cy="57.41" r="3.82915"/>
    <circle class="cls-5" cx="31.56619" cy="57.68069" r="3.82915"/>
    <circle class="cls-5" cx="5.97194" cy="18.94689" r="3.82915"/>
    <circle class="cls-5" cx="31.56583" cy="70.16089" r="3.82915"/>
    <circle class="cls-5" cx="31.56583" cy="83.04695" r="3.82915"/>
    <circle class="cls-5" cx="31.56583" cy="95.67549" r="3.82915"/>
    <circle class="cls-5" cx="31.56583" cy="108.87666" r="3.82915"/>
    <circle class="cls-5" cx="5.97158" cy="83.02892" r="3.82915"/>
    <circle class="cls-5" cx="5.97158" cy="95.71991" r="3.82915"/>
    <circle class="cls-5" cx="5.97158" cy="108.60597" r="3.82915"/>
    <circle class="cls-5" cx="31.56217" cy="121.77986" r="3.82915"/>
    <circle class="cls-5" cx="5.96792" cy="121.50917" r="3.82915"/>
    <circle class="cls-5" cx="31.56181" cy="134.26006" r="3.82915"/>
    <circle class="cls-5" cx="31.56181" cy="147.14612" r="3.82915"/>
    <circle class="cls-5" cx="31.56181" cy="159.77466" r="3.82915"/>
    <circle class="cls-5" cx="18.76468" cy="172.70514" r="3.82915"/>
    <circle class="cls-5" cx="5.96755" cy="134.24203" r="3.82915"/>
    <circle class="cls-5" cx="5.96755" cy="147.12809" r="3.82915"/>
    <circle class="cls-5" cx="5.96755" cy="159.81907" r="3.82915"/>
  </g>
  <g>
    <circle class="cls-6" cx="121.22284" cy="6.23337" r="3.82915"/>
    <circle class="cls-6" cx="159.53421" cy="31.91903" r="3.82915"/>
    <circle class="cls-6" cx="146.89386" cy="44.63958" r="3.82915"/>
    <circle class="cls-6" cx="159.53421" cy="44.61001" r="3.82915"/>
    <circle class="cls-6" cx="133.94321" cy="57.77831" r="3.82915"/>
    <circle class="cls-6" cx="146.89386" cy="57.52564" r="3.82915"/>
    <circle class="cls-6" cx="95.62859" cy="6.20516" r="3.82915"/>
    <circle class="cls-6" cx="108.42572" cy="6.22318" r="3.82915"/>
    <circle class="cls-6" cx="44.36332" cy="57.42296" r="3.82915"/>
    <circle class="cls-6" cx="57.16045" cy="57.69366" r="3.82915"/>
    <circle class="cls-6" cx="18.84583" cy="6.13576" r="3.82915"/>
    <circle class="cls-6" cx="6.0487" cy="6.13576" r="3.82915"/>
    <circle class="cls-6" cx="121.14572" cy="70.24047" r="3.82915"/>
    <circle class="cls-6" cx="133.94285" cy="70.2585" r="3.82915"/>
    <circle class="cls-6" cx="95.55147" cy="70.21226" r="3.82915"/>
    <circle class="cls-6" cx="108.34859" cy="70.23028" r="3.82915"/>
    <circle class="cls-6" cx="69.95721" cy="70.18404" r="3.82915"/>
    <circle class="cls-6" cx="82.75434" cy="70.20207" r="3.82915"/>
    <circle class="cls-6" cx="44.36296" cy="70.15582" r="3.82915"/>
    <circle class="cls-6" cx="57.16008" cy="70.17385" r="3.82915"/>
    <circle class="cls-6" cx="44.36296" cy="83.04188" r="3.82915"/>
    <circle class="cls-6" cx="57.16008" cy="83.05991" r="3.82915"/>
    <circle class="cls-6" cx="44.36296" cy="95.73287" r="3.82915"/>
    <circle class="cls-6" cx="44.36296" cy="108.61893" r="3.82915"/>
    <circle class="cls-6" cx="44.3593" cy="121.52213" r="3.82915"/>
    <circle class="cls-6" cx="44.35893" cy="134.25499" r="3.82915"/>
    <circle class="cls-6" cx="44.35893" cy="147.14105" r="3.82915"/>
    <circle class="cls-6" cx="44.35893" cy="159.83204" r="3.82915"/>
    <circle class="cls-6" cx="44.35893" cy="172.7181" r="3.82915"/>
    <circle class="cls-6" cx="31.56181" cy="172.97583" r="3.82915"/>
    <circle class="cls-6" cx="5.96755" cy="172.70514" r="3.82915"/>
  </g>
  <polyline class="cls-7" points="18.765 159.819 18.765 70.143 5.972 70.143 5.972 31.833 31.566 31.833 31.566 18.965 69.958 18.965 69.958 31.874 82.755 31.874 82.755 44.521 95.552 44.521 108.349 44.521 108.349 31.92 133.943 31.92 133.943 19.063 146.894 19.063 146.894 6.251 159.53 6.251"/>
  <rect class="cls-4" x="154.37926" y="1.07921" width="10.33424" height="10.33424"/>
  <text class="cls-8" transform="translate(155.74295 7.47832)">+1</text>
</svg>
