<svg id="Layer_1" data-name="Layer 1" xmlns="http://www.w3.org/2000/svg" viewBox="0 0 200 126.10452">
  <defs>
    <style>
      .cls-1 {
        fill: #e7ebe8;
      }

      .cls-2 {
        fill: #58595b;
      }

      .cls-3 {
        fill: #fff;
      }

      .cls-4 {
        fill: #b2b3c3;
      }

      .cls-5 {
        fill: #010101;
      }
    </style>
  </defs>
  <title>policy</title>
  <rect class="cls-1" x="0.20465" y="46.07737" width="79.83102" height="79.83102"/>
  <polygon class="cls-2" points="10.712 85.991 18.978 102.588 18.978 69.395 10.712 85.991"/>
  <polygon class="cls-3" points="40.04 115.608 56.636 107.342 23.444 107.342 40.04 115.608"/>
  <polygon class="cls-4" points="69.529 86.01 61.263 69.413 61.263 102.606 69.529 86.01"/>
  <polygon class="cls-4" points="40.04 56.549 23.444 64.815 56.636 64.815 40.04 56.549"/>
  <g>
    <path id="MJMATHI-3C0" class="cls-5" d="M3.52246,23.00412a.86781.86781,0,0,1-.9962-.9669v-.3223l.3809-.8204a56.77611,56.77611,0,0,0,3.1937-7.9989l.2344-.7032h-.9376a9.76845,9.76845,0,0,0-1.5822.0879,3.16983,3.16983,0,0,0-1.1427.5567,3.82764,3.82764,0,0,0-.6446.5274,7.54927,7.54927,0,0,0-.5567.6153,3.61022,3.61022,0,0,0-.2637.3516,1.67031,1.67031,0,0,1-.4395.0293q-.55671,0-.5567-.293a3.53737,3.53737,0,0,1,.5567-1.0255,9.96362,9.96362,0,0,1,1.6115-1.8166,3.98344,3.98344,0,0,1,2.0803-1.1134q.2051-.05859,6.5925-.0586,4.688,0,4.8052.0293a.8.8,0,0,1,.586.8204,1.22371,1.22371,0,0,1-.9376,1.2306,15.88982,15.88982,0,0,1-2.0217.0586h-1.8752l-.0879.4981a21.99218,21.99218,0,0,0-.3516,3.4867,12.76649,12.76649,0,0,0,.2637,2.7249,10.58554,10.58554,0,0,0,.5567,1.8752,3.417,3.417,0,0,1,.293.8204,1.35789,1.35789,0,0,1-.4102.9376,1.37818,1.37818,0,0,1-1.0548.4395,1.35023,1.35023,0,0,1-.5274-.0879q-.20511-.0879-.4688-.7032a8.4637,8.4637,0,0,1-.4688-1.758q-.02931-.2637-.0293-1.2892a19.445,19.445,0,0,1,.2637-3.0765q.2637-1.64079.5274-2.6956l.293-1.172H7.53656l-.0293.1172q0,.0879-.5567,2.3147t-1.2599,4.7173a21.835,21.835,0,0,1-.9083,2.8421A1.232,1.232,0,0,1,3.52246,23.00412Z"/>
    <path id="MJMAIN-28" class="cls-5" d="M19.198,15.35682a24.09879,24.09879,0,0,1,.293-3.8383,26.85168,26.85168,0,0,1,.6739-3.1351A12.269,12.269,0,0,1,21.249,5.805q.7032-1.25989,1.1134-1.9631a7.78191,7.78191,0,0,1,1.2306-1.5236q.8204-.82039.9669-.9962a5.2799,5.2799,0,0,1,.7325-.6153h.4981q.41019,0,.4102.2637a2.36768,2.36768,0,0,1-.4981.6153,13.30243,13.30243,0,0,0-1.2013,1.5529,20.271,20.271,0,0,0-1.4357,2.5198,16.66838,16.66838,0,0,0-1.2306,4.0434,29.57206,29.57206,0,0,0-.4981,5.6549,29.112,29.112,0,0,0,.4981,5.6256,19.02842,19.02842,0,0,0,1.2013,4.0727,13.26925,13.26925,0,0,0,1.4357,2.5198q.7325.9669,1.2306,1.5529a6.62108,6.62108,0,0,1,.4981.6153q0,.2637-.4395.2637h-.4688l-.8204-.7032a14.45915,14.45915,0,0,1-4.0141-6.2116A23.9555,23.9555,0,0,1,19.198,15.35682Z"/>
    <path id="MJMATHI-73" class="cls-5" d="M31.70906,14.21412a4.342,4.342,0,0,1,.4688-1.9045,4.82031,4.82031,0,0,1,1.6408-1.7873,4.68153,4.68153,0,0,1,2.8421-.7911,3.70183,3.70183,0,0,1,2.637.7911,2.51036,2.51036,0,0,1,.8497,1.758,1.74494,1.74494,0,0,1-.4981,1.3771,1.77512,1.77512,0,0,1-1.1134.4688,1.17026,1.17026,0,0,1-.7032-.2344.94792.94792,0,0,1-.3516-.7618,1.32958,1.32958,0,0,1,.2637-.8204,2.632,2.632,0,0,1,.4981-.5274.709.709,0,0,1,.3809-.1758.0259.0259,0,0,0,.0293-.0293q0-.0879-.2051-.2637a2.00146,2.00146,0,0,0-.7325-.3223,5.1851,5.1851,0,0,0-1.1427-.1758A2.47828,2.47828,0,0,0,33.848,13.13a1.05919,1.05919,0,0,0,.5567,1.0255,6.07617,6.07617,0,0,0,1.6115.4981,6.42149,6.42149,0,0,1,1.5236.4395,2.89572,2.89572,0,0,1,1.9338,2.8128,4.45875,4.45875,0,0,1-.3223,1.6408,6.55407,6.55407,0,0,1-.9669,1.6408,4.23861,4.23861,0,0,1-1.8459,1.2892,7.95582,7.95582,0,0,1-2.7542.4981,4.73933,4.73933,0,0,1-3.1937-.8497,2.71074,2.71074,0,0,1-.9669-1.9924,1.99266,1.99266,0,0,1,.6153-1.6408,2.02317,2.02317,0,0,1,1.2892-.4981,1.41374,1.41374,0,0,1,.8204.2637,1.09083,1.09083,0,0,1,.4102.9083,1.75365,1.75365,0,0,1-.5274,1.2892,1.443,1.443,0,0,1-.9083.5274.2248.2248,0,0,1-.0879.0293q-.02931,0-.0293.0586a.63313.63313,0,0,0,.2344.2344,4.09011,4.09011,0,0,0,.9083.3809,4.61309,4.61309,0,0,0,1.6115.2051,4.64634,4.64634,0,0,0,1.8166-.3223,2.51708,2.51708,0,0,0,1.1134-.8204,3.88959,3.88959,0,0,0,.4981-.9083,2.21012,2.21012,0,0,0,.1465-.7325,1.38035,1.38035,0,0,0-.6153-1.2306,3.1147,3.1147,0,0,0-1.4064-.4981,7.25136,7.25136,0,0,1-1.7287-.4395,2.71147,2.71147,0,0,1-1.3771-1.0255A2.94921,2.94921,0,0,1,31.70906,14.21412Z"/>
    <path id="MJMAIN-2C" class="cls-5" d="M43.89786,21.65632v-.7325a1.83223,1.83223,0,0,1,.4688-1.2599,1.60147,1.60147,0,0,1,1.2599-.5274,1.91532,1.91532,0,0,1,1.465.7325,4.04506,4.04506,0,0,1,.6739,2.5784,7.53812,7.53812,0,0,1-.2637,1.9924,9.10963,9.10963,0,0,1-.6153,1.6701,6.35434,6.35434,0,0,1-.7618,1.2013q-.4102.49811-.7032.7911t-.3809.2637q-.11721,0-.3809-.2637t-.2637-.3809q0-.11719.3223-.4688t.7325-.879a5.62332,5.62332,0,0,0,.7618-1.465,8.41645,8.41645,0,0,0,.4688-2.1389v-.3516l-.0293.0293a1.13557,1.13557,0,0,1-.1465.0586.74.74,0,0,0-.1758.0879.47946.47946,0,0,1-.2637.0586,2.1356,2.1356,0,0,0-.3516.0293,1.74439,1.74439,0,0,1-1.2892-.4981Z"/>
    <path id="MJMATHI-61" class="cls-5" d="M55.61786,18.08172a8.65849,8.65849,0,0,1,2.2268-5.6256,6.55674,6.55674,0,0,1,5.0103-2.6956,3.32169,3.32169,0,0,1,2.637,1.4357,1.46608,1.46608,0,0,1,1.3478-.879,1.04841,1.04841,0,0,1,.6739.2344.72155.72155,0,0,1,.293.586q0,.38091-1.0841,4.688t-1.1134,4.8638a1.56743,1.56743,0,0,0,.2051.9669.86066.86066,0,0,0,.6153.2637,1.273,1.273,0,0,0,.586-.2637,6.64382,6.64382,0,0,0,1.2013-2.8128q.1758-.586.293-.6153a.85707.85707,0,0,1,.293-.0293h.1172q.55669,0,.5567.2637a4.65436,4.65436,0,0,1-.1465.7911,9.19231,9.19231,0,0,1-.586,1.5822,4.99174,4.99174,0,0,1-.9376,1.465,2.89706,2.89706,0,0,1-.9376.6153,3.12353,3.12353,0,0,1-.7032.0586,2.99484,2.99484,0,0,1-1.6701-.4395,2.24932,2.24932,0,0,1-.879-.9083l-.1758-.4395q-.02931-.02929-.1172.0293l-.1172.1172a5.137,5.137,0,0,1-3.516,1.6408,3.99868,3.99868,0,0,1-2.8421-1.172A4.93725,4.93725,0,0,1,55.61786,18.08172Zm9.3174-5.0103a2.65283,2.65283,0,0,0-.1465-.6446,2.78581,2.78581,0,0,0-.6739-1.0255,1.873,1.873,0,0,0-1.3478-.586,2.81173,2.81173,0,0,0-1.9631.9083,6.13082,6.13082,0,0,0-1.465,2.3733,23.39146,23.39146,0,0,0-1.2013,4.8052v.3223a1.562,1.562,0,0,1-.0293.3516,2.4607,2.4607,0,0,0,.5274,1.8166,1.887,1.887,0,0,0,1.2599.5274,3.30857,3.30857,0,0,0,2.1975-.9669,4.927,4.927,0,0,0,1.2892-1.4943q.05859-.11719.7911-3.1351T64.93526,13.07142Z"/>
    <path id="MJMAIN-29" class="cls-5" d="M71.938.73612l.1172-.0293h.6446l.8204.7032a14.45945,14.45945,0,0,1,4.0141,6.2116,23.95586,23.95586,0,0,1,1.2599,7.7352,24.46054,24.46054,0,0,1-.293,3.8383,25.19336,25.19336,0,0,1-.6739,3.1351,13.19678,13.19678,0,0,1-1.0841,2.5784q-.7032,1.28921-1.1134,1.9631a8.91286,8.91286,0,0,1-1.2013,1.4943q-.7911.82041-.9376.9669t-.6739.5567l-.1172.1172h-.6739a.17217.17217,0,0,1-.1465-.0879.68964.68964,0,0,1-.0879-.2637q.0293-.02929.3223-.3809,4.54149-4.71729,4.5415-13.9175t-4.5415-13.9175q-.293-.3516-.3223-.3809A.34438.34438,0,0,1,71.938.73612Z"/>
  </g>
</svg>
