<svg id="Layer_1" data-name="Layer 1" xmlns="http://www.w3.org/2000/svg" viewBox="0 0 200.05675 125.98999">
  <defs>
    <style>
      .cls-1 {
        fill: #e7ebe8;
      }

      .cls-2 {
        fill: #fff;
      }

      .cls-3, .cls-6 {
        fill: #8191c8;
      }

      .cls-3 {
        opacity: 0.47;
      }

      .cls-4, .cls-5 {
        fill: #bd5f36;
      }

      .cls-5 {
        opacity: 0.5;
      }

      .cls-6 {
        opacity: 0.77;
      }

      .cls-7 {
        fill: #010101;
      }
    </style>
  </defs>
  <title>qvalue</title>
  <rect class="cls-1" x="0.11739" y="46.01326" width="79.83102" height="79.83102"/>
  <polygon class="cls-2" points="69.401 85.964 61.135 69.368 61.135 102.561 69.401 85.964"/>
  <polygon class="cls-2" points="10.586 85.927 18.852 102.523 18.852 69.331 10.586 85.927"/>
  <polygon class="cls-3" points="10.624 85.927 18.89 102.523 18.89 69.331 10.624 85.927"/>
  <polygon class="cls-4" points="39.953 115.544 56.549 107.278 23.356 107.278 39.953 115.544"/>
  <polygon class="cls-5" points="69.441 85.945 61.175 69.349 61.175 102.542 69.441 85.945"/>
  <polygon class="cls-6" points="39.953 56.485 23.356 64.751 56.549 64.751 39.953 56.485"/>
  <g>
    <path id="MJMATHI-51" class="cls-7" d="M10.38658,24.92651q0-.97035.0294-1.47022a2.90543,2.90543,0,0,1,.05881-.55869V22.78l-.44106.11761a10.69627,10.69627,0,0,1-2.47.32345A7.44845,7.44845,0,0,1,2.712,21.545,7.50414,7.50414,0,0,1,.15384,16.66387q-.0294-.23524-.0294-1.26439A12.16447,12.16447,0,0,1,1.53585,9.695,16.46893,16.46893,0,0,1,5.329,4.9021a11.46909,11.46909,0,0,1,7.3217-3.02865q1.11737,0,1.41141.0294a7.00049,7.00049,0,0,1,4.58709,2.52878,8.29046,8.29046,0,0,1,1.76427,5.35161,13.379,13.379,0,0,1-4.35186,9.64464,14.10211,14.10211,0,0,1-3.852,2.6758l-.49987.23524v.147q0,.0294.147.79392a2.314,2.314,0,0,0,.61749,1.235,1.83083,1.83083,0,0,0,1.35261.47047,3.42573,3.42573,0,0,0,1.97009-.6469,2.99157,2.99157,0,0,0,1.235-1.676q.17643-.41166.38226-.41166a.30242.30242,0,0,1,.32344.26464,4.39812,4.39812,0,0,1-.294,1.05856q-.294.82332-.82332,1.94069a5.10474,5.10474,0,0,1-1.58784,1.91128,4.01267,4.01267,0,0,1-2.23474.85273q-2.41116,0-2.41116-3.14627ZM17.35543,8.81289a8.20805,8.20805,0,0,0-.44107-2.82282A3.86519,3.86519,0,0,0,15.70878,4.1964a6.62955,6.62955,0,0,0-1.47022-.88214,4.01352,4.01352,0,0,0-1.55844-.294,6.41489,6.41489,0,0,0-2.88163.73511A10.58661,10.58661,0,0,0,4.97617,8.93051,16.5583,16.5583,0,0,0,3.15309,16.2228a6.07293,6.07293,0,0,0,1.58784,4.61649,2.76164,2.76164,0,0,0,.85273.6175v-.23524A3.07545,3.07545,0,0,1,6.564,19.04563a3.1965,3.1965,0,0,1,2.29354-1.02916,2.3782,2.3782,0,0,1,1.26439.32345,2.03328,2.03328,0,0,1,.79392.88213,4.84127,4.84127,0,0,1,.35285.94094q.08821.38226.17643.79392l.38226-.26464a10.88986,10.88986,0,0,0,3.20508-3.55793,16.05355,16.05355,0,0,0,1.82307-4.38126A17.21144,17.21144,0,0,0,17.35543,8.81289Zm-9.46822,13.232a5.83644,5.83644,0,0,0,2.64639-.6175l-.0294-.294q-.11762-1.61724-1.088-1.94069a3.59921,3.59921,0,0,0-.55868-.05881H8.68112a.17022.17022,0,0,1-.11761-.02941,1.79089,1.79089,0,0,0-1.20558.58809,1.9269,1.9269,0,0,0-.6469,1.35261Q6.711,22.04488,7.88721,22.04488Z"/>
    <path id="MJMAIN-28" class="cls-7" d="M24.67713,15.22305a24.18549,24.18549,0,0,1,.294-3.852,26.94888,26.94888,0,0,1,.6763-3.14627,12.313,12.313,0,0,1,1.088-2.58759q.70572-1.26438,1.11737-1.97009a7.81,7.81,0,0,1,1.235-1.529q.82332-.82334.97034-.99975a5.29974,5.29974,0,0,1,.73511-.6175h.49988q.41166,0,.41166.26464a2.37592,2.37592,0,0,1-.49987.6175,13.35046,13.35046,0,0,0-1.20559,1.55843,20.34284,20.34284,0,0,0-1.44081,2.52878,16.728,16.728,0,0,0-1.235,4.05781,29.67773,29.67773,0,0,0-.49987,5.67505,29.2162,29.2162,0,0,0,.49987,5.64565,19.09675,19.09675,0,0,0,1.20558,4.08721,13.31681,13.31681,0,0,0,1.44082,2.52878q.73511.97035,1.235,1.55844a6.64071,6.64071,0,0,1,.49987.61749q0,.26465-.44107.26464h-.47047l-.82332-.70571a14.51073,14.51073,0,0,1-4.0284-6.23373A24.04106,24.04106,0,0,1,24.67713,15.22305Z"/>
    <path id="MJMATHI-73" class="cls-7" d="M37.23281,14.07628a4.35754,4.35754,0,0,1,.47047-1.91129,4.83765,4.83765,0,0,1,1.64665-1.79367,4.69821,4.69821,0,0,1,2.85223-.79392,3.715,3.715,0,0,1,2.64639.79392,2.51923,2.51923,0,0,1,.85273,1.76427,1.75116,1.75116,0,0,1-.49987,1.382,1.78153,1.78153,0,0,1-1.11737.47047,1.17453,1.17453,0,0,1-.70571-.23524.95131.95131,0,0,1-.35285-.76451,1.33431,1.33431,0,0,1,.26464-.82333,2.64193,2.64193,0,0,1,.49987-.52928.71168.71168,0,0,1,.38226-.17642.026.026,0,0,0,.02941-.02941q0-.08822-.20583-.26464a2.00854,2.00854,0,0,0-.73511-.32345,5.20305,5.20305,0,0,0-1.14678-.17642,2.4871,2.4871,0,0,0-2.73461,2.323,1.063,1.063,0,0,0,.55869,1.02915,6.098,6.098,0,0,0,1.61724.49988,6.444,6.444,0,0,1,1.529.44106A2.906,2.906,0,0,1,45.025,17.78124a4.47456,4.47456,0,0,1-.32345,1.64664,6.57728,6.57728,0,0,1-.97034,1.64665,4.25371,4.25371,0,0,1-1.85248,1.29379,7.98423,7.98423,0,0,1-2.764.49988,4.75625,4.75625,0,0,1-3.20508-.85273,2.72042,2.72042,0,0,1-.97034-1.9995,1.99977,1.99977,0,0,1,.61749-1.64665,2.03034,2.03034,0,0,1,1.29379-.49987,1.41875,1.41875,0,0,1,.82333.26464,1.0947,1.0947,0,0,1,.41166.91154,1.75992,1.75992,0,0,1-.52928,1.29379,1.44814,1.44814,0,0,1-.91154.52928.22568.22568,0,0,1-.08821.0294q-.0294,0-.02941.05881a.63564.63564,0,0,0,.23524.23524,4.10546,4.10546,0,0,0,.91154.38225,5.78322,5.78322,0,0,0,3.44031-.11761,2.52611,2.52611,0,0,0,1.11737-.82333,3.90358,3.90358,0,0,0,.49988-.91153,2.218,2.218,0,0,0,.147-.73511,1.38525,1.38525,0,0,0-.6175-1.235,3.12561,3.12561,0,0,0-1.41141-.49987,7.27719,7.27719,0,0,1-1.73486-.44107,2.72121,2.72121,0,0,1-1.382-1.02915A2.95978,2.95978,0,0,1,37.23281,14.07628Z"/>
    <path id="MJMAIN-2C" class="cls-7" d="M49.46505,21.545v-.73511a1.83878,1.83878,0,0,1,.47047-1.26439,1.60718,1.60718,0,0,1,1.26439-.52928,1.92214,1.92214,0,0,1,1.47022.73511,4.0594,4.0594,0,0,1,.6763,2.58759,7.56489,7.56489,0,0,1-.26464,1.9995,9.14263,9.14263,0,0,1-.61749,1.67605,6.37718,6.37718,0,0,1-.76452,1.20558q-.41166.49987-.7057.79392t-.38226.26464q-.11761,0-.38226-.26464t-.26464-.38226q0-.11762.32345-.47047t.73511-.88213a5.6434,5.6434,0,0,0,.76452-1.47022,8.44678,8.44678,0,0,0,.47047-2.14652v-.35285l-.02941.0294a1.1404,1.1404,0,0,1-.147.05881.74228.74228,0,0,0-.17643.08821.48116.48116,0,0,1-.26464.05881,2.14214,2.14214,0,0,0-.35285.02941,1.75062,1.75062,0,0,1-1.29379-.49988Z"/>
    <path id="MJMATHI-61" class="cls-7" d="M61.22681,17.95766A8.68935,8.68935,0,0,1,63.46155,12.312a6.58008,6.58008,0,0,1,5.02815-2.7052,3.33354,3.33354,0,0,1,2.6464,1.44081,1.47131,1.47131,0,0,1,1.3526-.88213,1.052,1.052,0,0,1,.6763.23524.7241.7241,0,0,1,.294.58809q0,.38225-1.088,4.7047t-1.11736,4.88113a1.5731,1.5731,0,0,0,.20583.97035.86376.86376,0,0,0,.61749.26464,1.2776,1.2776,0,0,0,.58809-.26464,6.66758,6.66758,0,0,0,1.20558-2.82282q.17643-.58809.294-.6175a.86023.86023,0,0,1,.294-.0294h.11762q.55868,0,.55868.26464a4.67058,4.67058,0,0,1-.147.79392A9.22577,9.22577,0,0,1,74.4,20.72168a5.00949,5.00949,0,0,1-.94094,1.47022,2.90748,2.90748,0,0,1-.94094.61749,3.13463,3.13463,0,0,1-.70571.05881,3.00549,3.00549,0,0,1-1.67605-.44107,2.2574,2.2574,0,0,1-.88213-.91153l-.17643-.44107q-.0294-.0294-.11762.0294l-.11762.11762A5.15528,5.15528,0,0,1,65.314,22.8682,4.013,4.013,0,0,1,62.4618,21.692,4.95482,4.95482,0,0,1,61.22681,17.95766Zm9.35061-5.02815a2.66178,2.66178,0,0,0-.147-.6469,2.7955,2.7955,0,0,0-.6763-1.02915,1.87955,1.87955,0,0,0-1.3526-.58809,2.82177,2.82177,0,0,0-1.9701.91153,6.15279,6.15279,0,0,0-1.47022,2.38176A23.47553,23.47553,0,0,0,63.75559,18.781v.32344a1.56766,1.56766,0,0,1-.0294.35286,2.46944,2.46944,0,0,0,.52928,1.82307,1.8937,1.8937,0,0,0,1.26439.52928,3.32033,3.32033,0,0,0,2.20533-.97035A4.9443,4.9443,0,0,0,69.019,19.33967q.05881-.11762.79392-3.14627T70.57742,12.92951Z"/>
    <path id="MJMAIN-29" class="cls-7" d="M77.60507.55025l.11762-.02941h.6469l.82332.70571a14.51071,14.51071,0,0,1,4.0284,6.23374,24.041,24.041,0,0,1,1.26439,7.76276,24.54734,24.54734,0,0,1-.294,3.852,25.28119,25.28119,0,0,1-.6763,3.14627,13.24385,13.24385,0,0,1-1.088,2.58759Q81.72168,26.10269,81.31,26.779a8.94533,8.94533,0,0,1-1.20558,1.49962q-.79392.82332-.941.97035t-.6763.55868l-.11761.11762h-.67631a.17281.17281,0,0,1-.147-.08821.69232.69232,0,0,1-.08821-.26464q.0294-.02942.32345-.38226,4.55768-4.73412,4.55768-13.9671T77.7815,1.256q-.294-.35286-.32345-.38226A.34561.34561,0,0,1,77.60507.55025Z"/>
  </g>
</svg>
