<svg version="1.1" viewBox="0.0 0.0 411.3307086614173 412.3910761154856" fill="none" stroke="none" stroke-linecap="square" stroke-miterlimit="10" xmlns:xlink="http://www.w3.org/1999/xlink" xmlns="http://www.w3.org/2000/svg"><clipPath id="p.0"><path d="m0 0l411.33072 0l0 412.39108l-411.33072 0l0 -412.39108z" clip-rule="nonzero"/></clipPath><g clip-path="url(#p.0)"><path fill="#000000" fill-opacity="0.0" d="m0 0l411.33072 0l0 412.39108l-411.33072 0z" fill-rule="evenodd"/><path fill="#efefef" d="m266.55865 5.0341206l25.606323 0l0 25.606298l-25.606323 0z" fill-rule="evenodd"/><path fill="#efefef" d="m266.55865 34.148582l25.606323 0l0 25.6063l-25.606323 0z" fill-rule="evenodd"/><path fill="#efefef" d="m295.66068 34.148582l25.606293 0l0 25.6063l-25.606293 0z" fill-rule="evenodd"/><path fill="#efefef" d="m324.76266 5.0341206l25.606293 0l0 25.606298l-25.606293 0z" fill-rule="evenodd"/><path fill="#efefef" d="m324.76266 34.148582l25.606293 0l0 25.6063l-25.606293 0z" fill-rule="evenodd"/><path fill="#efefef" d="m295.66068 5.0341206l25.606293 0l0 25.606298l-25.606293 0z" fill-rule="evenodd"/><path fill="#efefef" d="m266.55865 63.263042l25.606323 0l0 25.606297l-25.606323 0z" fill-rule="evenodd"/><path fill="#efefef" d="m266.55865 92.3775l25.606323 0l0 25.6063l-25.606323 0z" fill-rule="evenodd"/><path fill="#efefef" d="m295.66068 92.3775l25.606293 0l0 25.6063l-25.606293 0z" fill-rule="evenodd"/><path fill="#efefef" d="m324.76266 63.263042l25.606293 0l0 25.606297l-25.606293 0z" fill-rule="evenodd"/><path fill="#efefef" d="m324.76266 92.3775l25.606293 0l0 25.6063l-25.606293 0z" fill-rule="evenodd"/><path fill="#efefef" d="m295.66068 63.263042l25.606293 0l0 25.606297l-25.606293 0z" fill-rule="evenodd"/><path fill="#efefef" d="m266.55865 121.49197l25.606323 0l0 25.6063l-25.606323 0z" fill-rule="evenodd"/><path fill="#efefef" d="m266.55865 150.60643l25.606323 0l0 25.606293l-25.606323 0z" fill-rule="evenodd"/><path fill="#efefef" d="m295.66068 150.60643l25.606293 0l0 25.606293l-25.606293 0z" fill-rule="evenodd"/><path fill="#efefef" d="m324.76266 121.49197l25.606293 0l0 25.6063l-25.606293 0z" fill-rule="evenodd"/><path fill="#efefef" d="m324.76266 150.60643l25.606293 0l0 25.606293l-25.606293 0z" fill-rule="evenodd"/><path fill="#efefef" d="m295.66068 121.49197l25.606293 0l0 25.6063l-25.606293 0z" fill-rule="evenodd"/><path fill="#efefef" d="m266.55865 179.72089l25.606323 0l0 25.606308l-25.606323 0z" fill-rule="evenodd"/><path fill="#efefef" d="m266.55865 208.83536l25.606323 0l0 25.606293l-25.606323 0z" fill-rule="evenodd"/><path fill="#efefef" d="m295.66068 208.83536l25.606293 0l0 25.606293l-25.606293 0z" fill-rule="evenodd"/><path fill="#efefef" d="m324.76266 179.72089l25.606293 0l0 25.606308l-25.606293 0z" fill-rule="evenodd"/><path fill="#efefef" d="m324.76266 208.83536l25.606293 0l0 25.606293l-25.606293 0z" fill-rule="evenodd"/><path fill="#efefef" d="m295.66068 179.72089l25.606293 0l0 25.606308l-25.606293 0z" fill-rule="evenodd"/><path fill="#efefef" d="m266.55966 237.94775l25.606293 0l0 25.606293l-25.606293 0z" fill-rule="evenodd"/><path fill="#efefef" d="m266.55966 267.06223l25.606293 0l0 25.606293l-25.606293 0z" fill-rule="evenodd"/><path fill="#efefef" d="m295.66165 267.06223l25.606293 0l0 25.606293l-25.606293 0z" fill-rule="evenodd"/><path fill="#efefef" d="m324.76364 237.94775l25.606323 0l0 25.606293l-25.606323 0z" fill-rule="evenodd"/><path fill="#efefef" d="m324.76364 267.06223l25.606323 0l0 25.606293l-25.606323 0z" fill-rule="evenodd"/><path fill="#efefef" d="m295.66165 237.94775l25.606293 0l0 25.606293l-25.606293 0z" fill-rule="evenodd"/><path fill="#efefef" d="m266.55966 296.17667l25.606293 0l0 25.606293l-25.606293 0z" fill-rule="evenodd"/><path fill="#efefef" d="m266.55966 325.29114l25.606293 0l0 25.606293l-25.606293 0z" fill-rule="evenodd"/><path fill="#efefef" d="m295.66165 325.29114l25.606293 0l0 25.606293l-25.606293 0z" fill-rule="evenodd"/><path fill="#efefef" d="m324.76364 296.17667l25.606323 0l0 25.606293l-25.606323 0z" fill-rule="evenodd"/><path fill="#efefef" d="m324.76364 325.29114l25.606323 0l0 25.606293l-25.606323 0z" fill-rule="evenodd"/><path fill="#efefef" d="m295.66165 296.17667l25.606293 0l0 25.606293l-25.606293 0z" fill-rule="evenodd"/><path fill="#efefef" d="m266.55966 354.40765l25.606293 0l0 25.606293l-25.606293 0z" fill-rule="evenodd"/><path fill="#efefef" d="m266.55966 383.5221l25.606293 0l0 25.606323l-25.606293 0z" fill-rule="evenodd"/><path fill="#efefef" d="m295.66165 383.5221l25.606293 0l0 25.606323l-25.606293 0z" fill-rule="evenodd"/><path fill="#efefef" d="m324.76364 354.40765l25.606323 0l0 25.606293l-25.606323 0z" fill-rule="evenodd"/><path fill="#efefef" d="m324.76364 383.5221l25.606323 0l0 25.606323l-25.606323 0z" fill-rule="evenodd"/><path fill="#efefef" d="m295.66165 354.40765l25.606293 0l0 25.606293l-25.606293 0z" fill-rule="evenodd"/><path fill="#cccccc" d="m271.83597 17.83727l0 0c0 -4.1573563 3.3701782 -7.5275593 7.5275574 -7.5275593l0 0c1.9964294 0 3.9111023 0.7930794 5.3227844 2.204771c1.4116821 1.4116907 2.204773 3.326355 2.204773 5.3227882l0 0c0 4.1573563 -3.3702087 7.5275593 -7.5275574 7.5275593l0 0c-4.157379 0 -7.5275574 -3.370203 -7.5275574 -7.5275593z" fill-rule="evenodd"/><path fill="#cccccc" d="m300.937 17.83727l0 0c0 -4.1573563 3.3702087 -7.5275593 7.5275574 -7.5275593l0 0c1.9964294 0 3.9111023 0.7930794 5.3227844 2.204771c1.4116821 1.4116907 2.204773 3.326355 2.204773 5.3227882l0 0c0 4.1573563 -3.3702087 7.5275593 -7.5275574 7.5275593l0 0c-4.1573486 0 -7.5275574 -3.370203 -7.5275574 -7.5275593z" fill-rule="evenodd"/><path fill="#cccccc" d="m271.83597 46.951443l0 0c0 -4.1573563 3.3701782 -7.5275574 7.5275574 -7.5275574l0 0c1.9964294 0 3.9111023 0.7930794 5.3227844 2.2047691c1.4116821 1.4116936 2.204773 3.326355 2.204773 5.3227882l0 0c0 4.1573563 -3.3702087 7.527561 -7.5275574 7.527561l0 0c-4.157379 0 -7.5275574 -3.370205 -7.5275574 -7.527561z" fill-rule="evenodd"/><path fill="#cccccc" d="m330.03543 76.06693l0 0c0 -4.1573563 3.3702087 -7.527565 7.5275574 -7.527565l0 0c1.9964294 0 3.9111023 0.7930832 5.3227844 2.204773c1.4117126 1.4116898 2.204773 3.326355 2.204773 5.322792l0 0c0 4.1573563 -3.3702087 7.5275574 -7.5275574 7.5275574l0 0c-4.1573486 0 -7.5275574 -3.370201 -7.5275574 -7.5275574z" fill-rule="evenodd"/><path fill="#cccccc" d="m272.11417 105.17979l0 0c0 -4.1573563 3.3702087 -7.5275574 7.5275574 -7.5275574l0 0c1.9964294 0 3.9111023 0.7930832 5.3227844 2.204773c1.4117126 1.4116898 2.204773 3.326355 2.204773 5.3227844l0 0c0 4.1573563 -3.3701782 7.527565 -7.5275574 7.527565l0 0c-4.1573486 0 -7.5275574 -3.3702087 -7.5275574 -7.527565z" fill-rule="evenodd"/><path fill="#cccccc" d="m301.2152 105.17979l0 0c0 -4.1573563 3.3702087 -7.5275574 7.5275574 -7.5275574l0 0c1.99646 0 3.9111023 0.7930832 5.322815 2.204773c1.4116821 1.4116898 2.204773 3.326355 2.204773 5.3227844l0 0c0 4.1573563 -3.3702087 7.527565 -7.527588 7.527565l0 0c-4.1573486 0 -7.5275574 -3.3702087 -7.5275574 -7.527565z" fill-rule="evenodd"/><path fill="#cccccc" d="m330.31628 105.17979l0 0c0 -4.1573563 3.3701782 -7.5275574 7.5275574 -7.5275574l0 0c1.9964294 0 3.9111023 0.7930832 5.3227844 2.204773c1.4116821 1.4116898 2.204773 3.326355 2.204773 5.3227844l0 0c0 4.1573563 -3.3702087 7.527565 -7.5275574 7.527565l0 0c-4.157379 0 -7.5275574 -3.3702087 -7.5275574 -7.527565z" fill-rule="evenodd"/><path fill="#cccccc" d="m272.11417 134.29396l0 0c0 -4.1573486 3.3702087 -7.5275574 7.5275574 -7.5275574l0 0c1.9964294 0 3.9111023 0.7930832 5.3227844 2.204773c1.4117126 1.4116974 2.204773 3.326355 2.204773 5.3227844l0 0c0 4.157364 -3.3701782 7.5275574 -7.5275574 7.5275574l0 0c-4.1573486 0 -7.5275574 -3.3701935 -7.5275574 -7.5275574z" fill-rule="evenodd"/><path fill="#cccccc" d="m301.2152 134.29396l0 0c0 -4.1573486 3.3702087 -7.5275574 7.5275574 -7.5275574l0 0c1.99646 0 3.9111023 0.7930832 5.322815 2.204773c1.4116821 1.4116974 2.204773 3.326355 2.204773 5.3227844l0 0c0 4.157364 -3.3702087 7.5275574 -7.527588 7.5275574l0 0c-4.1573486 0 -7.5275574 -3.3701935 -7.5275574 -7.5275574z" fill-rule="evenodd"/><path fill="#cccccc" d="m330.31628 134.29396l0 0c0 -4.1573486 3.3701782 -7.5275574 7.5275574 -7.5275574l0 0c1.9964294 0 3.9111023 0.7930832 5.3227844 2.204773c1.4116821 1.4116974 2.204773 3.326355 2.204773 5.3227844l0 0c0 4.157364 -3.3702087 7.5275574 -7.5275574 7.5275574l0 0c-4.157379 0 -7.5275574 -3.3701935 -7.5275574 -7.5275574z" fill-rule="evenodd"/><path fill="#cccccc" d="m330.31366 163.40945l0 0c0 -4.157364 3.3701782 -7.5275574 7.5275574 -7.5275574l0 0c1.9964294 0 3.9111023 0.79307556 5.3227844 2.2047577c1.4116821 1.4116974 2.204773 3.326355 2.204773 5.3227997l0 0c0 4.1573486 -3.3702087 7.5275574 -7.5275574 7.5275574l0 0c-4.157379 0 -7.5275574 -3.3702087 -7.5275574 -7.5275574z" fill-rule="evenodd"/><path fill="#cccccc" d="m272.11154 192.52231l0 0c0 -4.1573486 3.3702087 -7.5275574 7.5275574 -7.5275574l0 0c1.9964294 0 3.9111023 0.79307556 5.3227844 2.204773c1.4117126 1.4116821 2.204773 3.326355 2.204773 5.3227844l0 0c0 4.157364 -3.3701782 7.5275574 -7.5275574 7.5275574l0 0c-4.1573486 0 -7.5275574 -3.3701935 -7.5275574 -7.5275574z" fill-rule="evenodd"/><path fill="#cccccc" d="m301.2126 192.52231l0 0c0 -4.1573486 3.3702087 -7.5275574 7.5275574 -7.5275574l0 0c1.99646 0 3.9111023 0.79307556 5.322815 2.204773c1.4116821 1.4116821 2.204773 3.326355 2.204773 5.3227844l0 0c0 4.157364 -3.3702087 7.5275574 -7.527588 7.5275574l0 0c-4.1573486 0 -7.5275574 -3.3701935 -7.5275574 -7.5275574z" fill-rule="evenodd"/><path fill="#cccccc" d="m330.31366 192.52231l0 0c0 -4.1573486 3.3701782 -7.5275574 7.5275574 -7.5275574l0 0c1.9964294 0 3.9111023 0.79307556 5.3227844 2.204773c1.4116821 1.4116821 2.204773 3.326355 2.204773 5.3227844l0 0c0 4.157364 -3.3702087 7.5275574 -7.5275574 7.5275574l0 0c-4.157379 0 -7.5275574 -3.3701935 -7.5275574 -7.5275574z" fill-rule="evenodd"/><path fill="#cccccc" d="m272.11154 221.63649l0 0c0 -4.157364 3.3702087 -7.5275726 7.5275574 -7.5275726l0 0c1.9964294 0 3.9111023 0.7930908 5.3227844 2.204773c1.4117126 1.4116974 2.204773 3.326355 2.204773 5.3227997l0 0c0 4.1573486 -3.3701782 7.5275574 -7.5275574 7.5275574l0 0c-4.1573486 0 -7.5275574 -3.3702087 -7.5275574 -7.5275574z" fill-rule="evenodd"/><path fill="#cccccc" d="m301.2126 221.63649l0 0c0 -4.157364 3.3702087 -7.5275726 7.5275574 -7.5275726l0 0c1.99646 0 3.9111023 0.7930908 5.322815 2.204773c1.4116821 1.4116974 2.204773 3.326355 2.204773 5.3227997l0 0c0 4.1573486 -3.3702087 7.5275574 -7.527588 7.5275574l0 0c-4.1573486 0 -7.5275574 -3.3702087 -7.5275574 -7.5275574z" fill-rule="evenodd"/><path fill="#cccccc" d="m330.31366 221.63649l0 0c0 -4.157364 3.3701782 -7.5275726 7.5275574 -7.5275726l0 0c1.9964294 0 3.9111023 0.7930908 5.3227844 2.204773c1.4116821 1.4116974 2.204773 3.326355 2.204773 5.3227997l0 0c0 4.1573486 -3.3702087 7.5275574 -7.5275574 7.5275574l0 0c-4.157379 0 -7.5275574 -3.3702087 -7.5275574 -7.5275574z" fill-rule="evenodd"/><path fill="#cccccc" d="m272.10892 250.75197l0 0c0 -4.1573486 3.3702087 -7.5275574 7.5275574 -7.5275574l0 0c1.9964294 0 3.9111023 0.79307556 5.3227844 2.204773c1.4117126 1.4116821 2.204773 3.326355 2.204773 5.3227844l0 0c0 4.1573486 -3.3701782 7.5275726 -7.5275574 7.5275726l0 0c-4.1573486 0 -7.5275574 -3.370224 -7.5275574 -7.5275726z" fill-rule="evenodd"/><path fill="#cccccc" d="m301.20996 250.75197l0 0c0 -4.1573486 3.3702087 -7.5275574 7.5275574 -7.5275574l0 0c1.99646 0 3.9111023 0.79307556 5.322815 2.204773c1.4116821 1.4116821 2.204773 3.326355 2.204773 5.3227844l0 0c0 4.1573486 -3.3702087 7.5275726 -7.527588 7.5275726l0 0c-4.1573486 0 -7.5275574 -3.370224 -7.5275574 -7.5275726z" fill-rule="evenodd"/><path fill="#cccccc" d="m330.31104 250.75197l0 0c0 -4.1573486 3.3701782 -7.5275574 7.5275574 -7.5275574l0 0c1.9964294 0 3.9111023 0.79307556 5.3227844 2.204773c1.4116821 1.4116821 2.204773 3.326355 2.204773 5.3227844l0 0c0 4.1573486 -3.3702087 7.5275726 -7.5275574 7.5275726l0 0c-4.157379 0 -7.5275574 -3.370224 -7.5275574 -7.5275726z" fill-rule="evenodd"/><path fill="#cccccc" d="m272.3924 279.86484l0 0c0 -4.157379 3.3702087 -7.5275574 7.5275574 -7.5275574l0 0c1.9964294 0 3.9111023 0.7930603 5.3227844 2.204773c1.4116821 1.4116821 2.204773 3.326355 2.204773 5.3227844l0 0c0 4.1573486 -3.3702087 7.5275574 -7.5275574 7.5275574l0 0c-4.1573486 0 -7.5275574 -3.3702087 -7.5275574 -7.5275574z" fill-rule="evenodd"/><path fill="#cccccc" d="m301.49344 279.86484l0 0c0 -4.157379 3.3702087 -7.5275574 7.5275574 -7.5275574l0 0c1.9964294 0 3.9111023 0.7930603 5.3227844 2.204773c1.4116821 1.4116821 2.204773 3.326355 2.204773 5.3227844l0 0c0 4.1573486 -3.3702087 7.5275574 -7.5275574 7.5275574l0 0c-4.1573486 0 -7.5275574 -3.3702087 -7.5275574 -7.5275574z" fill-rule="evenodd"/><path fill="#cccccc" d="m330.59448 279.86484l0 0c0 -4.157379 3.3702087 -7.5275574 7.5275574 -7.5275574l0 0c1.9964294 0 3.9111023 0.7930603 5.3227844 2.204773c1.4117126 1.4116821 2.204773 3.326355 2.204773 5.3227844l0 0c0 4.1573486 -3.3702087 7.5275574 -7.5275574 7.5275574l0 0c-4.1573486 0 -7.5275574 -3.3702087 -7.5275574 -7.5275574z" fill-rule="evenodd"/><path fill="#cccccc" d="m272.3924 308.979l0 0c0 -4.1573486 3.3702087 -7.5275574 7.5275574 -7.5275574l0 0c1.9964294 0 3.9111023 0.7930908 5.3227844 2.204773c1.4116821 1.4116821 2.204773 3.326355 2.204773 5.3227844l0 0c0 4.1573486 -3.3702087 7.5275574 -7.5275574 7.5275574l0 0c-4.1573486 0 -7.5275574 -3.3702087 -7.5275574 -7.5275574z" fill-rule="evenodd"/><path fill="#cccccc" d="m301.49344 308.979l0 0c0 -4.1573486 3.3702087 -7.5275574 7.5275574 -7.5275574l0 0c1.9964294 0 3.9111023 0.7930908 5.3227844 2.204773c1.4116821 1.4116821 2.204773 3.326355 2.204773 5.3227844l0 0c0 4.1573486 -3.3702087 7.5275574 -7.5275574 7.5275574l0 0c-4.1573486 0 -7.5275574 -3.3702087 -7.5275574 -7.5275574z" fill-rule="evenodd"/><path fill="#cccccc" d="m330.59448 308.979l0 0c0 -4.1573486 3.3702087 -7.5275574 7.5275574 -7.5275574l0 0c1.9964294 0 3.9111023 0.7930908 5.3227844 2.204773c1.4117126 1.4116821 2.204773 3.326355 2.204773 5.3227844l0 0c0 4.1573486 -3.3702087 7.5275574 -7.5275574 7.5275574l0 0c-4.1573486 0 -7.5275574 -3.3702087 -7.5275574 -7.5275574z" fill-rule="evenodd"/><path fill="#cccccc" d="m272.38977 338.09448l0 0c0 -4.1573486 3.3702087 -7.5275574 7.5275574 -7.5275574l0 0c1.9964294 0 3.9111023 0.7930908 5.3227844 2.204773c1.4116821 1.4116821 2.204773 3.326355 2.204773 5.3227844l0 0c0 4.1573486 -3.3702087 7.5275574 -7.5275574 7.5275574l0 0c-4.1573486 0 -7.5275574 -3.3702087 -7.5275574 -7.5275574z" fill-rule="evenodd"/><path fill="#cccccc" d="m301.4908 338.09448l0 0c0 -4.1573486 3.3702087 -7.5275574 7.5275574 -7.5275574l0 0c1.9964294 0 3.9111023 0.7930908 5.3227844 2.204773c1.4116821 1.4116821 2.204773 3.326355 2.204773 5.3227844l0 0c0 4.1573486 -3.3702087 7.5275574 -7.5275574 7.5275574l0 0c-4.1573486 0 -7.5275574 -3.3702087 -7.5275574 -7.5275574z" fill-rule="evenodd"/><path fill="#cccccc" d="m330.59186 338.09448l0 0c0 -4.1573486 3.3702087 -7.5275574 7.5275574 -7.5275574l0 0c1.9964294 0 3.9111023 0.7930908 5.3227844 2.204773c1.4117126 1.4116821 2.204773 3.326355 2.204773 5.3227844l0 0c0 4.1573486 -3.3702087 7.5275574 -7.5275574 7.5275574l0 0c-4.1573486 0 -7.5275574 -3.3702087 -7.5275574 -7.5275574z" fill-rule="evenodd"/><path fill="#cccccc" d="m272.11154 367.20865l0 0c0 -4.1573486 3.3702087 -7.5275574 7.5275574 -7.5275574l0 0c1.9964294 0 3.9111023 0.7930908 5.3227844 2.204773c1.4117126 1.4117126 2.204773 3.326355 2.204773 5.3227844l0 0c0 4.157379 -3.3701782 7.5275574 -7.5275574 7.5275574l0 0c-4.1573486 0 -7.5275574 -3.3701782 -7.5275574 -7.5275574z" fill-rule="evenodd"/><path fill="#cccccc" d="m301.2126 367.20865l0 0c0 -4.1573486 3.3702087 -7.5275574 7.5275574 -7.5275574l0 0c1.99646 0 3.9111023 0.7930908 5.322815 2.204773c1.4116821 1.4117126 2.204773 3.326355 2.204773 5.3227844l0 0c0 4.157379 -3.3702087 7.5275574 -7.527588 7.5275574l0 0c-4.1573486 0 -7.5275574 -3.3701782 -7.5275574 -7.5275574z" fill-rule="evenodd"/><path fill="#cccccc" d="m330.31366 367.20865l0 0c0 -4.1573486 3.3701782 -7.5275574 7.5275574 -7.5275574l0 0c1.9964294 0 3.9111023 0.7930908 5.3227844 2.204773c1.4116821 1.4117126 2.204773 3.326355 2.204773 5.3227844l0 0c0 4.157379 -3.3702087 7.5275574 -7.5275574 7.5275574l0 0c-4.157379 0 -7.5275574 -3.3701782 -7.5275574 -7.5275574z" fill-rule="evenodd"/><path fill="#cccccc" d="m272.11154 396.32285l0 0c0 -4.157379 3.3702087 -7.5275574 7.5275574 -7.5275574l0 0c1.9964294 0 3.9111023 0.7930603 5.3227844 2.204773c1.4117126 1.4116821 2.204773 3.326355 2.204773 5.3227844l0 0c0 4.1573486 -3.3701782 7.5275574 -7.5275574 7.5275574l0 0c-4.1573486 0 -7.5275574 -3.3702087 -7.5275574 -7.5275574z" fill-rule="evenodd"/><path fill="#cccccc" d="m301.2126 396.32285l0 0c0 -4.157379 3.3702087 -7.5275574 7.5275574 -7.5275574l0 0c1.99646 0 3.9111023 0.7930603 5.322815 2.204773c1.4116821 1.4116821 2.204773 3.326355 2.204773 5.3227844l0 0c0 4.1573486 -3.3702087 7.5275574 -7.527588 7.5275574l0 0c-4.1573486 0 -7.5275574 -3.3702087 -7.5275574 -7.5275574z" fill-rule="evenodd"/><path fill="#cccccc" d="m330.31366 396.32285l0 0c0 -4.157379 3.3701782 -7.5275574 7.5275574 -7.5275574l0 0c1.9964294 0 3.9111023 0.7930603 5.3227844 2.204773c1.4116821 1.4116821 2.204773 3.326355 2.204773 5.3227844l0 0c0 4.1573486 -3.3702087 7.5275574 -7.5275574 7.5275574l0 0c-4.157379 0 -7.5275574 -3.3702087 -7.5275574 -7.5275574z" fill-rule="evenodd"/><path fill="#980000" d="m382.9685 5.037125l25.606293 0l0 404.09448l-25.606293 0z" fill-rule="evenodd"/><path fill="#cccccc" d="m272.11154 163.40945l0 0c0 -4.157364 3.3702087 -7.5275574 7.5275574 -7.5275574l0 0c1.9964294 0 3.9111023 0.79307556 5.3227844 2.2047577c1.4117126 1.4116974 2.204773 3.326355 2.204773 5.3227997l0 0c0 4.1573486 -3.3701782 7.5275574 -7.5275574 7.5275574l0 0c-4.1573486 0 -7.5275574 -3.3702087 -7.5275574 -7.5275574z" fill-rule="evenodd"/><path fill="#cccccc" d="m301.2126 163.40945l0 0c0 -4.157364 3.3702087 -7.5275574 7.5275574 -7.5275574l0 0c1.99646 0 3.9111023 0.79307556 5.322815 2.2047577c1.4116821 1.4116974 2.204773 3.326355 2.204773 5.3227997l0 0c0 4.1573486 -3.3702087 7.5275574 -7.527588 7.5275574l0 0c-4.1573486 0 -7.5275574 -3.3702087 -7.5275574 -7.5275574z" fill-rule="evenodd"/><path fill="#efefef" d="m179.80276 5.0367455l25.606293 0l0 25.6063l-25.606293 0z" fill-rule="evenodd"/><path fill="#efefef" d="m179.80276 34.151207l25.606293 0l0 25.6063l-25.606293 0z" fill-rule="evenodd"/><path fill="#efefef" d="m208.90475 34.151207l25.606293 0l0 25.6063l-25.606293 0z" fill-rule="evenodd"/><path fill="#efefef" d="m238.00674 5.0367455l25.606293 0l0 25.6063l-25.606293 0z" fill-rule="evenodd"/><path fill="#efefef" d="m238.00674 34.151207l25.606293 0l0 25.6063l-25.606293 0z" fill-rule="evenodd"/><path fill="#efefef" d="m208.90475 5.0367455l25.606293 0l0 25.6063l-25.606293 0z" fill-rule="evenodd"/><path fill="#efefef" d="m179.80276 63.265667l25.606293 0l0 25.606304l-25.606293 0z" fill-rule="evenodd"/><path fill="#efefef" d="m179.80276 92.38013l25.606293 0l0 25.6063l-25.606293 0z" fill-rule="evenodd"/><path fill="#efefef" d="m208.90475 92.38013l25.606293 0l0 25.6063l-25.606293 0z" fill-rule="evenodd"/><path fill="#efefef" d="m238.00674 63.265667l25.606293 0l0 25.606304l-25.606293 0z" fill-rule="evenodd"/><path fill="#efefef" d="m238.00674 92.38013l25.606293 0l0 25.6063l-25.606293 0z" fill-rule="evenodd"/><path fill="#efefef" d="m208.90475 63.265667l25.606293 0l0 25.606304l-25.606293 0z" fill-rule="evenodd"/><path fill="#efefef" d="m179.80276 121.49459l25.606293 0l0 25.6063l-25.606293 0z" fill-rule="evenodd"/><path fill="#efefef" d="m179.80276 150.60905l25.606293 0l0 25.606293l-25.606293 0z" fill-rule="evenodd"/><path fill="#efefef" d="m208.90475 150.60905l25.606293 0l0 25.606293l-25.606293 0z" fill-rule="evenodd"/><path fill="#efefef" d="m238.00674 121.49459l25.606293 0l0 25.6063l-25.606293 0z" fill-rule="evenodd"/><path fill="#efefef" d="m238.00674 150.60905l25.606293 0l0 25.606293l-25.606293 0z" fill-rule="evenodd"/><path fill="#efefef" d="m208.90475 121.49459l25.606293 0l0 25.6063l-25.606293 0z" fill-rule="evenodd"/><path fill="#efefef" d="m179.80276 179.72351l25.606293 0l0 25.606308l-25.606293 0z" fill-rule="evenodd"/><path fill="#efefef" d="m179.80276 208.83798l25.606293 0l0 25.606293l-25.606293 0z" fill-rule="evenodd"/><path fill="#efefef" d="m208.90475 208.83798l25.606293 0l0 25.606293l-25.606293 0z" fill-rule="evenodd"/><path fill="#efefef" d="m238.00674 179.72351l25.606293 0l0 25.606308l-25.606293 0z" fill-rule="evenodd"/><path fill="#efefef" d="m238.00674 208.83798l25.606293 0l0 25.606293l-25.606293 0z" fill-rule="evenodd"/><path fill="#efefef" d="m208.90475 179.72351l25.606293 0l0 25.606308l-25.606293 0z" fill-rule="evenodd"/><path fill="#efefef" d="m179.80376 237.95038l25.606308 0l0 25.606293l-25.606308 0z" fill-rule="evenodd"/><path fill="#efefef" d="m179.80376 267.06485l25.606308 0l0 25.606293l-25.606308 0z" fill-rule="evenodd"/><path fill="#efefef" d="m208.90575 267.06485l25.606308 0l0 25.606293l-25.606308 0z" fill-rule="evenodd"/><path fill="#efefef" d="m238.00775 237.95038l25.606293 0l0 25.606293l-25.606293 0z" fill-rule="evenodd"/><path fill="#efefef" d="m238.00775 267.06485l25.606293 0l0 25.606293l-25.606293 0z" fill-rule="evenodd"/><path fill="#efefef" d="m208.90575 237.95038l25.606308 0l0 25.606293l-25.606308 0z" fill-rule="evenodd"/><path fill="#efefef" d="m179.80376 296.1793l25.606308 0l0 25.606293l-25.606308 0z" fill-rule="evenodd"/><path fill="#efefef" d="m179.80376 325.29376l25.606308 0l0 25.606293l-25.606308 0z" fill-rule="evenodd"/><path fill="#efefef" d="m208.90575 325.29376l25.606308 0l0 25.606293l-25.606308 0z" fill-rule="evenodd"/><path fill="#efefef" d="m238.00775 296.1793l25.606293 0l0 25.606293l-25.606293 0z" fill-rule="evenodd"/><path fill="#efefef" d="m238.00775 325.29376l25.606293 0l0 25.606293l-25.606293 0z" fill-rule="evenodd"/><path fill="#efefef" d="m208.90575 296.1793l25.606308 0l0 25.606293l-25.606308 0z" fill-rule="evenodd"/><path fill="#efefef" d="m179.80376 354.41028l25.606308 0l0 25.606293l-25.606308 0z" fill-rule="evenodd"/><path fill="#efefef" d="m179.80376 383.52472l25.606308 0l0 25.606323l-25.606308 0z" fill-rule="evenodd"/><path fill="#efefef" d="m208.90575 383.52472l25.606308 0l0 25.606323l-25.606308 0z" fill-rule="evenodd"/><path fill="#efefef" d="m238.00775 354.41028l25.606293 0l0 25.606293l-25.606293 0z" fill-rule="evenodd"/><path fill="#efefef" d="m238.00775 383.52472l25.606293 0l0 25.606323l-25.606293 0z" fill-rule="evenodd"/><path fill="#efefef" d="m208.90575 354.41028l25.606308 0l0 25.606293l-25.606308 0z" fill-rule="evenodd"/><path fill="#cccccc" d="m185.08005 17.839895l0 0c0 -4.1573563 3.3702087 -7.5275593 7.5275574 -7.5275593l0 0c1.9964447 0 3.9111023 0.7930794 5.3227997 2.204771c1.4116821 1.4116907 2.204773 3.326355 2.204773 5.3227882l0 0c0 4.1573563 -3.3702087 7.5275593 -7.5275726 7.5275593l0 0c-4.1573486 0 -7.5275574 -3.370203 -7.5275574 -7.5275593z" fill-rule="evenodd"/><path fill="#cccccc" d="m214.1811 17.839895l0 0c0 -4.1573563 3.3701935 -7.5275593 7.5275574 -7.5275593l0 0c1.9964294 0 3.911087 0.7930794 5.3227844 2.204771c1.4116974 1.4116907 2.204773 3.326355 2.204773 5.3227882l0 0c0 4.1573563 -3.3702087 7.5275593 -7.5275574 7.5275593l0 0c-4.157364 0 -7.5275574 -3.370203 -7.5275574 -7.5275593z" fill-rule="evenodd"/><path fill="#cccccc" d="m243.28215 17.839895l0 0c0 -4.1573563 3.3702087 -7.5275593 7.5275574 -7.5275593l0 0c1.9964294 0 3.9111023 0.7930794 5.3227997 2.204771c1.4116821 1.4116907 2.204773 3.326355 2.204773 5.3227882l0 0c0 4.1573563 -3.3702087 7.5275593 -7.5275726 7.5275593l0 0c-4.1573486 0 -7.5275574 -3.370203 -7.5275574 -7.5275593z" fill-rule="evenodd"/><path fill="#cccccc" d="m185.08005 46.954067l0 0c0 -4.1573563 3.3702087 -7.5275574 7.5275574 -7.5275574l0 0c1.9964447 0 3.9111023 0.7930794 5.3227997 2.2047691c1.4116821 1.4116936 2.204773 3.326355 2.204773 5.3227882l0 0c0 4.1573563 -3.3702087 7.527561 -7.5275726 7.527561l0 0c-4.1573486 0 -7.5275574 -3.370205 -7.5275574 -7.527561z" fill-rule="evenodd"/><path fill="#cccccc" d="m214.1811 46.954067l0 0c0 -4.1573563 3.3701935 -7.5275574 7.5275574 -7.5275574l0 0c1.9964294 0 3.911087 0.7930794 5.3227844 2.2047691c1.4116974 1.4116936 2.204773 3.326355 2.204773 5.3227882l0 0c0 4.1573563 -3.3702087 7.527561 -7.5275574 7.527561l0 0c-4.157364 0 -7.5275574 -3.370205 -7.5275574 -7.527561z" fill-rule="evenodd"/><path fill="#cccccc" d="m243.28215 46.954067l0 0c0 -4.1573563 3.3702087 -7.5275574 7.5275574 -7.5275574l0 0c1.9964294 0 3.9111023 0.7930794 5.3227997 2.2047691c1.4116821 1.4116936 2.204773 3.326355 2.204773 5.3227882l0 0c0 4.1573563 -3.3702087 7.527561 -7.5275726 7.527561l0 0c-4.1573486 0 -7.5275574 -3.370205 -7.5275574 -7.527561z" fill-rule="evenodd"/><path fill="#cccccc" d="m214.17848 76.06956l0 0c0 -4.1573563 3.3701935 -7.527565 7.5275574 -7.527565l0 0c1.9964294 0 3.911087 0.7930832 5.3227844 2.204773c1.4116974 1.4116898 2.204773 3.326355 2.204773 5.322792l0 0c0 4.1573563 -3.3702087 7.5275574 -7.5275574 7.5275574l0 0c-4.157364 0 -7.5275574 -3.370201 -7.5275574 -7.5275574z" fill-rule="evenodd"/><path fill="#cccccc" d="m185.35826 134.29659l0 0c0 -4.1573486 3.3702087 -7.5275574 7.5275726 -7.5275574l0 0c1.9964294 0 3.911087 0.7930832 5.3227844 2.204773c1.4116821 1.4116974 2.204773 3.326355 2.204773 5.3227844l0 0c0 4.157364 -3.3702087 7.5275574 -7.5275574 7.5275574l0 0c-4.157364 0 -7.5275726 -3.3701935 -7.5275726 -7.5275574z" fill-rule="evenodd"/><path fill="#cccccc" d="m214.45932 134.29659l0 0c0 -4.1573486 3.3701935 -7.5275574 7.5275574 -7.5275574l0 0c1.9964294 0 3.9111023 0.7930832 5.3227844 2.204773c1.4116974 1.4116974 2.204773 3.326355 2.204773 5.3227844l0 0c0 4.157364 -3.3702087 7.5275574 -7.5275574 7.5275574l0 0c-4.157364 0 -7.5275574 -3.3701935 -7.5275574 -7.5275574z" fill-rule="evenodd"/><path fill="#cccccc" d="m243.56036 134.29659l0 0c0 -4.1573486 3.3702087 -7.5275574 7.5275574 -7.5275574l0 0c1.9964447 0 3.9111023 0.7930832 5.3227844 2.204773c1.4117126 1.4116974 2.204773 3.326355 2.204773 5.3227844l0 0c0 4.157364 -3.3701935 7.5275574 -7.5275574 7.5275574l0 0c-4.1573486 0 -7.5275574 -3.3701935 -7.5275574 -7.5275574z" fill-rule="evenodd"/><path fill="#cccccc" d="m243.55774 163.41208l0 0c0 -4.157364 3.3702087 -7.5275574 7.5275574 -7.5275574l0 0c1.9964447 0 3.9111023 0.79307556 5.3227844 2.2047577c1.4117126 1.4116974 2.204773 3.326355 2.204773 5.3227997l0 0c0 4.1573486 -3.3701935 7.5275574 -7.5275574 7.5275574l0 0c-4.1573486 0 -7.5275574 -3.3702087 -7.5275574 -7.5275574z" fill-rule="evenodd"/><path fill="#cccccc" d="m185.35564 192.52493l0 0c0 -4.1573486 3.3702087 -7.5275574 7.5275726 -7.5275574l0 0c1.9964294 0 3.911087 0.79307556 5.3227844 2.204773c1.4116821 1.4116821 2.204773 3.326355 2.204773 5.3227844l0 0c0 4.157364 -3.3702087 7.5275574 -7.5275574 7.5275574l0 0c-4.157364 0 -7.5275726 -3.3701935 -7.5275726 -7.5275574z" fill-rule="evenodd"/><path fill="#cccccc" d="m214.4567 192.52493l0 0c0 -4.1573486 3.3701935 -7.5275574 7.5275574 -7.5275574l0 0c1.9964294 0 3.9111023 0.79307556 5.3227844 2.204773c1.4116974 1.4116821 2.204773 3.326355 2.204773 5.3227844l0 0c0 4.157364 -3.3702087 7.5275574 -7.5275574 7.5275574l0 0c-4.157364 0 -7.5275574 -3.3701935 -7.5275574 -7.5275574z" fill-rule="evenodd"/><path fill="#cccccc" d="m243.55774 192.52493l0 0c0 -4.1573486 3.3702087 -7.5275574 7.5275574 -7.5275574l0 0c1.9964447 0 3.9111023 0.79307556 5.3227844 2.204773c1.4117126 1.4116821 2.204773 3.326355 2.204773 5.3227844l0 0c0 4.157364 -3.3701935 7.5275574 -7.5275574 7.5275574l0 0c-4.1573486 0 -7.5275574 -3.3701935 -7.5275574 -7.5275574z" fill-rule="evenodd"/><path fill="#cccccc" d="m185.35564 221.63911l0 0c0 -4.157364 3.3702087 -7.5275726 7.5275726 -7.5275726l0 0c1.9964294 0 3.911087 0.7930908 5.3227844 2.204773c1.4116821 1.4116974 2.204773 3.326355 2.204773 5.3227997l0 0c0 4.1573486 -3.3702087 7.5275574 -7.5275574 7.5275574l0 0c-4.157364 0 -7.5275726 -3.3702087 -7.5275726 -7.5275574z" fill-rule="evenodd"/><path fill="#cccccc" d="m214.4567 221.63911l0 0c0 -4.157364 3.3701935 -7.5275726 7.5275574 -7.5275726l0 0c1.9964294 0 3.9111023 0.7930908 5.3227844 2.204773c1.4116974 1.4116974 2.204773 3.326355 2.204773 5.3227997l0 0c0 4.1573486 -3.3702087 7.5275574 -7.5275574 7.5275574l0 0c-4.157364 0 -7.5275574 -3.3702087 -7.5275574 -7.5275574z" fill-rule="evenodd"/><path fill="#cccccc" d="m243.55774 221.63911l0 0c0 -4.157364 3.3702087 -7.5275726 7.5275574 -7.5275726l0 0c1.9964447 0 3.9111023 0.7930908 5.3227844 2.204773c1.4117126 1.4116974 2.204773 3.326355 2.204773 5.3227997l0 0c0 4.1573486 -3.3701935 7.5275574 -7.5275574 7.5275574l0 0c-4.1573486 0 -7.5275574 -3.3702087 -7.5275574 -7.5275574z" fill-rule="evenodd"/><path fill="#cccccc" d="m185.35301 250.7546l0 0c0 -4.1573486 3.3702087 -7.5275574 7.5275726 -7.5275574l0 0c1.9964294 0 3.911087 0.79307556 5.3227844 2.204773c1.4116821 1.4116821 2.204773 3.326355 2.204773 5.3227844l0 0c0 4.157364 -3.3702087 7.5275726 -7.5275574 7.5275726l0 0c-4.157364 0 -7.5275726 -3.3702087 -7.5275726 -7.5275726z" fill-rule="evenodd"/><path fill="#cccccc" d="m214.45407 250.7546l0 0c0 -4.1573486 3.3701935 -7.5275574 7.5275574 -7.5275574l0 0c1.9964294 0 3.9111023 0.79307556 5.3227844 2.204773c1.4116974 1.4116821 2.204773 3.326355 2.204773 5.3227844l0 0c0 4.157364 -3.3702087 7.5275726 -7.5275574 7.5275726l0 0c-4.157364 0 -7.5275574 -3.3702087 -7.5275574 -7.5275726z" fill-rule="evenodd"/><path fill="#cccccc" d="m243.55511 250.7546l0 0c0 -4.1573486 3.3702087 -7.5275574 7.5275574 -7.5275574l0 0c1.9964447 0 3.9111023 0.79307556 5.3227844 2.204773c1.4117126 1.4116821 2.204773 3.326355 2.204773 5.3227844l0 0c0 4.157364 -3.3701935 7.5275726 -7.5275574 7.5275726l0 0c-4.1573486 0 -7.5275574 -3.3702087 -7.5275574 -7.5275726z" fill-rule="evenodd"/><path fill="#cccccc" d="m185.63649 279.86746l0 0c0 -4.157379 3.3701935 -7.5275574 7.5275574 -7.5275574l0 0c1.9964294 0 3.911087 0.7930603 5.3227844 2.204773c1.4116821 1.4116821 2.204773 3.326355 2.204773 5.3227844l0 0c0 4.1573486 -3.3702087 7.5275574 -7.5275574 7.5275574l0 0c-4.157364 0 -7.5275574 -3.3702087 -7.5275574 -7.5275574z" fill-rule="evenodd"/><path fill="#cccccc" d="m214.73753 279.86746l0 0c0 -4.157379 3.3702087 -7.5275574 7.5275574 -7.5275574l0 0c1.9964294 0 3.9111023 0.7930603 5.3227844 2.204773c1.4116974 1.4116821 2.204773 3.326355 2.204773 5.3227844l0 0c0 4.1573486 -3.3701935 7.5275574 -7.5275574 7.5275574l0 0c-4.1573486 0 -7.5275574 -3.3702087 -7.5275574 -7.5275574z" fill-rule="evenodd"/><path fill="#cccccc" d="m243.83858 279.86746l0 0c0 -4.157379 3.3702087 -7.5275574 7.5275574 -7.5275574l0 0c1.9964447 0 3.9111023 0.7930603 5.3227997 2.204773c1.4116821 1.4116821 2.204773 3.326355 2.204773 5.3227844l0 0c0 4.1573486 -3.3702087 7.5275574 -7.5275726 7.5275574l0 0c-4.1573486 0 -7.5275574 -3.3702087 -7.5275574 -7.5275574z" fill-rule="evenodd"/><path fill="#cccccc" d="m185.63649 308.98163l0 0c0 -4.1573486 3.3701935 -7.5275574 7.5275574 -7.5275574l0 0c1.9964294 0 3.911087 0.7930908 5.3227844 2.204773c1.4116821 1.4116821 2.204773 3.326355 2.204773 5.3227844l0 0c0 4.1573486 -3.3702087 7.5275574 -7.5275574 7.5275574l0 0c-4.157364 0 -7.5275574 -3.3702087 -7.5275574 -7.5275574z" fill-rule="evenodd"/><path fill="#cccccc" d="m214.73753 308.98163l0 0c0 -4.1573486 3.3702087 -7.5275574 7.5275574 -7.5275574l0 0c1.9964294 0 3.9111023 0.7930908 5.3227844 2.204773c1.4116974 1.4116821 2.204773 3.326355 2.204773 5.3227844l0 0c0 4.1573486 -3.3701935 7.5275574 -7.5275574 7.5275574l0 0c-4.1573486 0 -7.5275574 -3.3702087 -7.5275574 -7.5275574z" fill-rule="evenodd"/><path fill="#cccccc" d="m243.83858 308.98163l0 0c0 -4.1573486 3.3702087 -7.5275574 7.5275574 -7.5275574l0 0c1.9964447 0 3.9111023 0.7930908 5.3227997 2.204773c1.4116821 1.4116821 2.204773 3.326355 2.204773 5.3227844l0 0c0 4.1573486 -3.3702087 7.5275574 -7.5275726 7.5275574l0 0c-4.1573486 0 -7.5275574 -3.3702087 -7.5275574 -7.5275574z" fill-rule="evenodd"/><path fill="#cccccc" d="m185.63387 338.0971l0 0c0 -4.1573486 3.3701935 -7.5275574 7.5275574 -7.5275574l0 0c1.9964294 0 3.911087 0.7930908 5.3227844 2.204773c1.4116821 1.4116821 2.204773 3.326355 2.204773 5.3227844l0 0c0 4.1573486 -3.3702087 7.5275574 -7.5275574 7.5275574l0 0c-4.157364 0 -7.5275574 -3.3702087 -7.5275574 -7.5275574z" fill-rule="evenodd"/><path fill="#cccccc" d="m214.73491 338.0971l0 0c0 -4.1573486 3.3702087 -7.5275574 7.5275574 -7.5275574l0 0c1.9964294 0 3.9111023 0.7930908 5.3227844 2.204773c1.4116974 1.4116821 2.204773 3.326355 2.204773 5.3227844l0 0c0 4.1573486 -3.3701935 7.5275574 -7.5275574 7.5275574l0 0c-4.1573486 0 -7.5275574 -3.3702087 -7.5275574 -7.5275574z" fill-rule="evenodd"/><path fill="#cccccc" d="m243.83595 338.0971l0 0c0 -4.1573486 3.3702087 -7.5275574 7.5275574 -7.5275574l0 0c1.9964447 0 3.9111023 0.7930908 5.3227997 2.204773c1.4116821 1.4116821 2.204773 3.326355 2.204773 5.3227844l0 0c0 4.1573486 -3.3702087 7.5275574 -7.5275726 7.5275574l0 0c-4.1573486 0 -7.5275574 -3.3702087 -7.5275574 -7.5275574z" fill-rule="evenodd"/><path fill="#cccccc" d="m185.35564 367.21127l0 0c0 -4.1573486 3.3702087 -7.5275574 7.5275726 -7.5275574l0 0c1.9964294 0 3.911087 0.7930908 5.3227844 2.204773c1.4116821 1.4117126 2.204773 3.326355 2.204773 5.3227844l0 0c0 4.157379 -3.3702087 7.5275574 -7.5275574 7.5275574l0 0c-4.157364 0 -7.5275726 -3.3701782 -7.5275726 -7.5275574z" fill-rule="evenodd"/><path fill="#cccccc" d="m214.4567 367.21127l0 0c0 -4.1573486 3.3701935 -7.5275574 7.5275574 -7.5275574l0 0c1.9964294 0 3.9111023 0.7930908 5.3227844 2.204773c1.4116974 1.4117126 2.204773 3.326355 2.204773 5.3227844l0 0c0 4.157379 -3.3702087 7.5275574 -7.5275574 7.5275574l0 0c-4.157364 0 -7.5275574 -3.3701782 -7.5275574 -7.5275574z" fill-rule="evenodd"/><path fill="#cccccc" d="m243.55774 367.21127l0 0c0 -4.1573486 3.3702087 -7.5275574 7.5275574 -7.5275574l0 0c1.9964447 0 3.9111023 0.7930908 5.3227844 2.204773c1.4117126 1.4117126 2.204773 3.326355 2.204773 5.3227844l0 0c0 4.157379 -3.3701935 7.5275574 -7.5275574 7.5275574l0 0c-4.1573486 0 -7.5275574 -3.3701782 -7.5275574 -7.5275574z" fill-rule="evenodd"/><path fill="#cccccc" d="m185.35564 396.32547l0 0c0 -4.157379 3.3702087 -7.5275574 7.5275726 -7.5275574l0 0c1.9964294 0 3.911087 0.7930603 5.3227844 2.204773c1.4116821 1.4116821 2.204773 3.326355 2.204773 5.3227844l0 0c0 4.1573486 -3.3702087 7.5275574 -7.5275574 7.5275574l0 0c-4.157364 0 -7.5275726 -3.3702087 -7.5275726 -7.5275574z" fill-rule="evenodd"/><path fill="#cccccc" d="m214.4567 396.32547l0 0c0 -4.157379 3.3701935 -7.5275574 7.5275574 -7.5275574l0 0c1.9964294 0 3.9111023 0.7930603 5.3227844 2.204773c1.4116974 1.4116821 2.204773 3.326355 2.204773 5.3227844l0 0c0 4.1573486 -3.3702087 7.5275574 -7.5275574 7.5275574l0 0c-4.157364 0 -7.5275574 -3.3702087 -7.5275574 -7.5275574z" fill-rule="evenodd"/><path fill="#cccccc" d="m243.55774 396.32547l0 0c0 -4.157379 3.3702087 -7.5275574 7.5275574 -7.5275574l0 0c1.9964447 0 3.9111023 0.7930603 5.3227844 2.204773c1.4117126 1.4116821 2.204773 3.326355 2.204773 5.3227844l0 0c0 4.1573486 -3.3701935 7.5275574 -7.5275574 7.5275574l0 0c-4.1573486 0 -7.5275574 -3.3702087 -7.5275574 -7.5275574z" fill-rule="evenodd"/><path fill="#cccccc" d="m185.35564 163.41208l0 0c0 -4.157364 3.3702087 -7.5275574 7.5275726 -7.5275574l0 0c1.9964294 0 3.911087 0.79307556 5.3227844 2.2047577c1.4116821 1.4116974 2.204773 3.326355 2.204773 5.3227997l0 0c0 4.1573486 -3.3702087 7.5275574 -7.5275574 7.5275574l0 0c-4.157364 0 -7.5275726 -3.3702087 -7.5275726 -7.5275574z" fill-rule="evenodd"/><path fill="#cccccc" d="m214.4567 163.41208l0 0c0 -4.157364 3.3701935 -7.5275574 7.5275574 -7.5275574l0 0c1.9964294 0 3.9111023 0.79307556 5.3227844 2.2047577c1.4116974 1.4116974 2.204773 3.326355 2.204773 5.3227997l0 0c0 4.1573486 -3.3702087 7.5275574 -7.5275574 7.5275574l0 0c-4.157364 0 -7.5275574 -3.3702087 -7.5275574 -7.5275574z" fill-rule="evenodd"/><path fill="#efefef" d="m92.495674 5.0354333l25.6063 0l0 25.6063l-25.6063 0z" fill-rule="evenodd"/><path fill="#efefef" d="m92.495674 34.149895l25.6063 0l0 25.6063l-25.6063 0z" fill-rule="evenodd"/><path fill="#efefef" d="m121.59767 34.149895l25.606293 0l0 25.6063l-25.606293 0z" fill-rule="evenodd"/><path fill="#efefef" d="m150.69966 5.0354333l25.606308 0l0 25.6063l-25.606308 0z" fill-rule="evenodd"/><path fill="#efefef" d="m150.69966 34.149895l25.606308 0l0 25.6063l-25.606308 0z" fill-rule="evenodd"/><path fill="#efefef" d="m121.59767 5.0354333l25.606293 0l0 25.6063l-25.606293 0z" fill-rule="evenodd"/><path fill="#efefef" d="m92.495674 63.264355l25.6063 0l0 25.606304l-25.6063 0z" fill-rule="evenodd"/><path fill="#efefef" d="m92.495674 92.378815l25.6063 0l0 25.6063l-25.6063 0z" fill-rule="evenodd"/><path fill="#efefef" d="m121.59767 92.378815l25.606293 0l0 25.6063l-25.606293 0z" fill-rule="evenodd"/><path fill="#efefef" d="m150.69966 63.264355l25.606308 0l0 25.606304l-25.606308 0z" fill-rule="evenodd"/><path fill="#efefef" d="m150.69966 92.378815l25.606308 0l0 25.6063l-25.606308 0z" fill-rule="evenodd"/><path fill="#efefef" d="m121.59767 63.264355l25.606293 0l0 25.606304l-25.606293 0z" fill-rule="evenodd"/><path fill="#efefef" d="m92.495674 121.49328l25.6063 0l0 25.6063l-25.6063 0z" fill-rule="evenodd"/><path fill="#efefef" d="m92.495674 150.60774l25.6063 0l0 25.606293l-25.6063 0z" fill-rule="evenodd"/><path fill="#efefef" d="m121.59767 150.60774l25.606293 0l0 25.606293l-25.606293 0z" fill-rule="evenodd"/><path fill="#efefef" d="m150.69966 121.49328l25.606308 0l0 25.6063l-25.606308 0z" fill-rule="evenodd"/><path fill="#efefef" d="m150.69966 150.60774l25.606308 0l0 25.606293l-25.606308 0z" fill-rule="evenodd"/><path fill="#efefef" d="m121.59767 121.49328l25.606293 0l0 25.6063l-25.606293 0z" fill-rule="evenodd"/><path fill="#efefef" d="m92.495674 179.7222l25.6063 0l0 25.606308l-25.6063 0z" fill-rule="evenodd"/><path fill="#efefef" d="m92.495674 208.83667l25.6063 0l0 25.606293l-25.6063 0z" fill-rule="evenodd"/><path fill="#efefef" d="m121.59767 208.83667l25.606293 0l0 25.606293l-25.606293 0z" fill-rule="evenodd"/><path fill="#efefef" d="m150.69966 179.7222l25.606308 0l0 25.606308l-25.606308 0z" fill-rule="evenodd"/><path fill="#efefef" d="m150.69966 208.83667l25.606308 0l0 25.606293l-25.606308 0z" fill-rule="evenodd"/><path fill="#efefef" d="m121.59767 179.7222l25.606293 0l0 25.606308l-25.606293 0z" fill-rule="evenodd"/><path fill="#efefef" d="m92.49667 237.94907l25.6063 0l0 25.606293l-25.6063 0z" fill-rule="evenodd"/><path fill="#efefef" d="m92.49667 267.06354l25.6063 0l0 25.606293l-25.6063 0z" fill-rule="evenodd"/><path fill="#efefef" d="m121.59867 267.06354l25.6063 0l0 25.606293l-25.6063 0z" fill-rule="evenodd"/><path fill="#efefef" d="m150.70067 237.94907l25.606293 0l0 25.606293l-25.606293 0z" fill-rule="evenodd"/><path fill="#efefef" d="m150.70067 267.06354l25.606293 0l0 25.606293l-25.606293 0z" fill-rule="evenodd"/><path fill="#efefef" d="m121.59867 237.94907l25.6063 0l0 25.606293l-25.6063 0z" fill-rule="evenodd"/><path fill="#efefef" d="m92.49667 296.17798l25.6063 0l0 25.606293l-25.6063 0z" fill-rule="evenodd"/><path fill="#efefef" d="m92.49667 325.29245l25.6063 0l0 25.606293l-25.6063 0z" fill-rule="evenodd"/><path fill="#efefef" d="m121.59867 325.29245l25.6063 0l0 25.606293l-25.6063 0z" fill-rule="evenodd"/><path fill="#efefef" d="m150.70067 296.17798l25.606293 0l0 25.606293l-25.606293 0z" fill-rule="evenodd"/><path fill="#efefef" d="m150.70067 325.29245l25.606293 0l0 25.606293l-25.606293 0z" fill-rule="evenodd"/><path fill="#efefef" d="m121.59867 296.17798l25.6063 0l0 25.606293l-25.6063 0z" fill-rule="evenodd"/><path fill="#efefef" d="m92.49667 354.40897l25.6063 0l0 25.606293l-25.6063 0z" fill-rule="evenodd"/><path fill="#efefef" d="m92.49667 383.5234l25.6063 0l0 25.606323l-25.6063 0z" fill-rule="evenodd"/><path fill="#efefef" d="m121.59867 383.5234l25.6063 0l0 25.606323l-25.6063 0z" fill-rule="evenodd"/><path fill="#efefef" d="m150.70067 354.40897l25.606293 0l0 25.606293l-25.606293 0z" fill-rule="evenodd"/><path fill="#efefef" d="m150.70067 383.5234l25.606293 0l0 25.606323l-25.606293 0z" fill-rule="evenodd"/><path fill="#efefef" d="m121.59867 354.40897l25.6063 0l0 25.606293l-25.6063 0z" fill-rule="evenodd"/><path fill="#cccccc" d="m97.772964 17.838583l0 0c0 -4.1573563 3.370201 -7.5275593 7.5275574 -7.5275593l0 0c1.9964371 0 3.9111023 0.7930794 5.322792 2.204771c1.4116898 1.4116907 2.204773 3.326355 2.204773 5.3227882l0 0c0 4.1573563 -3.3702087 7.5275593 -7.527565 7.5275593l0 0c-4.1573563 0 -7.5275574 -3.370203 -7.5275574 -7.5275593z" fill-rule="evenodd"/><path fill="#cccccc" d="m126.874016 17.838583l0 0c0 -4.1573563 3.370201 -7.5275593 7.527565 -7.5275593l0 0c1.9964294 0 3.911087 0.7930794 5.3227844 2.204771c1.4116821 1.4116907 2.204773 3.326355 2.204773 5.3227882l0 0c0 4.1573563 -3.3702087 7.5275593 -7.5275574 7.5275593l0 0c-4.157364 0 -7.527565 -3.370203 -7.527565 -7.5275593z" fill-rule="evenodd"/><path fill="#cccccc" d="m155.97507 17.838583l0 0c0 -4.1573563 3.3702087 -7.5275593 7.5275574 -7.5275593l0 0c1.9964294 0 3.9111023 0.7930794 5.3227844 2.204771c1.4116974 1.4116907 2.204773 3.326355 2.204773 5.3227882l0 0c0 4.1573563 -3.3702087 7.5275593 -7.5275574 7.5275593l0 0c-4.1573486 0 -7.5275574 -3.370203 -7.5275574 -7.5275593z" fill-rule="evenodd"/><path fill="#cccccc" d="m97.77034 76.068245l0 0c0 -4.1573563 3.370201 -7.527565 7.5275574 -7.527565l0 0c1.9964371 0 3.9111023 0.7930832 5.322792 2.204773c1.4116898 1.4116898 2.204773 3.326355 2.204773 5.322792l0 0c0 4.1573563 -3.3702087 7.5275574 -7.527565 7.5275574l0 0c-4.1573563 0 -7.5275574 -3.370201 -7.5275574 -7.5275574z" fill-rule="evenodd"/><path fill="#cccccc" d="m126.87139 76.068245l0 0c0 -4.1573563 3.370201 -7.527565 7.527565 -7.527565l0 0c1.9964294 0 3.911087 0.7930832 5.3227844 2.204773c1.4116821 1.4116898 2.204773 3.326355 2.204773 5.322792l0 0c0 4.1573563 -3.3702087 7.5275574 -7.5275574 7.5275574l0 0c-4.157364 0 -7.527565 -3.370201 -7.527565 -7.5275574z" fill-rule="evenodd"/><path fill="#cccccc" d="m98.05118 105.1811l0 0c0 -4.1573563 3.3702087 -7.5275574 7.527565 -7.5275574l0 0c1.9964294 0 3.9110947 0.7930832 5.3227844 2.204773c1.4116898 1.4116898 2.204773 3.326355 2.204773 5.3227844l0 0c0 4.1573563 -3.370201 7.527565 -7.5275574 7.527565l0 0c-4.1573563 0 -7.527565 -3.3702087 -7.527565 -7.527565z" fill-rule="evenodd"/><path fill="#cccccc" d="m127.15223 105.1811l0 0c0 -4.1573563 3.370201 -7.5275574 7.527565 -7.5275574l0 0c1.9964294 0 3.911087 0.7930832 5.3227844 2.204773c1.4116974 1.4116898 2.204773 3.326355 2.204773 5.3227844l0 0c0 4.1573563 -3.3702087 7.527565 -7.5275574 7.527565l0 0c-4.157364 0 -7.527565 -3.3702087 -7.527565 -7.527565z" fill-rule="evenodd"/><path fill="#cccccc" d="m156.25328 105.1811l0 0c0 -4.1573563 3.3702087 -7.5275574 7.5275574 -7.5275574l0 0c1.9964294 0 3.9111023 0.7930832 5.3227844 2.204773c1.4116974 1.4116898 2.204773 3.326355 2.204773 5.3227844l0 0c0 4.1573563 -3.3701935 7.527565 -7.5275574 7.527565l0 0c-4.1573486 0 -7.5275574 -3.3702087 -7.5275574 -7.527565z" fill-rule="evenodd"/><path fill="#cccccc" d="m98.05118 134.29527l0 0c0 -4.1573486 3.3702087 -7.5275574 7.527565 -7.5275574l0 0c1.9964294 0 3.9110947 0.7930832 5.3227844 2.204773c1.4116898 1.4116974 2.204773 3.326355 2.204773 5.3227844l0 0c0 4.157364 -3.370201 7.5275574 -7.5275574 7.5275574l0 0c-4.1573563 0 -7.527565 -3.3701935 -7.527565 -7.5275574z" fill-rule="evenodd"/><path fill="#cccccc" d="m127.15223 134.29527l0 0c0 -4.1573486 3.370201 -7.5275574 7.527565 -7.5275574l0 0c1.9964294 0 3.911087 0.7930832 5.3227844 2.204773c1.4116974 1.4116974 2.204773 3.326355 2.204773 5.3227844l0 0c0 4.157364 -3.3702087 7.5275574 -7.5275574 7.5275574l0 0c-4.157364 0 -7.527565 -3.3701935 -7.527565 -7.5275574z" fill-rule="evenodd"/><path fill="#cccccc" d="m156.25328 134.29527l0 0c0 -4.1573486 3.3702087 -7.5275574 7.5275574 -7.5275574l0 0c1.9964294 0 3.9111023 0.7930832 5.3227844 2.204773c1.4116974 1.4116974 2.204773 3.326355 2.204773 5.3227844l0 0c0 4.157364 -3.3701935 7.5275574 -7.5275574 7.5275574l0 0c-4.1573486 0 -7.5275574 -3.3701935 -7.5275574 -7.5275574z" fill-rule="evenodd"/><path fill="#cccccc" d="m156.25066 163.41077l0 0c0 -4.157364 3.3702087 -7.5275574 7.5275574 -7.5275574l0 0c1.9964294 0 3.9111023 0.79307556 5.3227844 2.2047577c1.4116974 1.4116974 2.204773 3.326355 2.204773 5.3227997l0 0c0 4.1573486 -3.3701935 7.5275574 -7.5275574 7.5275574l0 0c-4.1573486 0 -7.5275574 -3.3702087 -7.5275574 -7.5275574z" fill-rule="evenodd"/><path fill="#cccccc" d="m98.04855 192.52362l0 0c0 -4.1573486 3.3702087 -7.5275574 7.527565 -7.5275574l0 0c1.9964294 0 3.9110947 0.79307556 5.3227844 2.204773c1.4116898 1.4116821 2.204773 3.326355 2.204773 5.3227844l0 0c0 4.157364 -3.370201 7.5275574 -7.5275574 7.5275574l0 0c-4.1573563 0 -7.527565 -3.3701935 -7.527565 -7.5275574z" fill-rule="evenodd"/><path fill="#cccccc" d="m127.149605 192.52362l0 0c0 -4.1573486 3.370201 -7.5275574 7.527565 -7.5275574l0 0c1.9964294 0 3.911087 0.79307556 5.3227844 2.204773c1.4116974 1.4116821 2.204773 3.326355 2.204773 5.3227844l0 0c0 4.157364 -3.3702087 7.5275574 -7.5275574 7.5275574l0 0c-4.157364 0 -7.527565 -3.3701935 -7.527565 -7.5275574z" fill-rule="evenodd"/><path fill="#cccccc" d="m156.25066 192.52362l0 0c0 -4.1573486 3.3702087 -7.5275574 7.5275574 -7.5275574l0 0c1.9964294 0 3.9111023 0.79307556 5.3227844 2.204773c1.4116974 1.4116821 2.204773 3.326355 2.204773 5.3227844l0 0c0 4.157364 -3.3701935 7.5275574 -7.5275574 7.5275574l0 0c-4.1573486 0 -7.5275574 -3.3701935 -7.5275574 -7.5275574z" fill-rule="evenodd"/><path fill="#cccccc" d="m98.04855 221.6378l0 0c0 -4.157364 3.3702087 -7.5275726 7.527565 -7.5275726l0 0c1.9964294 0 3.9110947 0.7930908 5.3227844 2.204773c1.4116898 1.4116974 2.204773 3.326355 2.204773 5.3227997l0 0c0 4.1573486 -3.370201 7.5275574 -7.5275574 7.5275574l0 0c-4.1573563 0 -7.527565 -3.3702087 -7.527565 -7.5275574z" fill-rule="evenodd"/><path fill="#cccccc" d="m127.149605 221.6378l0 0c0 -4.157364 3.370201 -7.5275726 7.527565 -7.5275726l0 0c1.9964294 0 3.911087 0.7930908 5.3227844 2.204773c1.4116974 1.4116974 2.204773 3.326355 2.204773 5.3227997l0 0c0 4.1573486 -3.3702087 7.5275574 -7.5275574 7.5275574l0 0c-4.157364 0 -7.527565 -3.3702087 -7.527565 -7.5275574z" fill-rule="evenodd"/><path fill="#cccccc" d="m156.25066 221.6378l0 0c0 -4.157364 3.3702087 -7.5275726 7.5275574 -7.5275726l0 0c1.9964294 0 3.9111023 0.7930908 5.3227844 2.204773c1.4116974 1.4116974 2.204773 3.326355 2.204773 5.3227997l0 0c0 4.1573486 -3.3701935 7.5275574 -7.5275574 7.5275574l0 0c-4.1573486 0 -7.5275574 -3.3702087 -7.5275574 -7.5275574z" fill-rule="evenodd"/><path fill="#cccccc" d="m98.04593 250.75328l0 0c0 -4.1573486 3.3702087 -7.5275574 7.527565 -7.5275574l0 0c1.9964294 0 3.9110947 0.79307556 5.3227844 2.204773c1.4116898 1.4116821 2.204773 3.326355 2.204773 5.3227844l0 0c0 4.157364 -3.370201 7.5275726 -7.5275574 7.5275726l0 0c-4.1573563 0 -7.527565 -3.3702087 -7.527565 -7.5275726z" fill-rule="evenodd"/><path fill="#cccccc" d="m127.14698 250.75328l0 0c0 -4.1573486 3.370201 -7.5275574 7.527565 -7.5275574l0 0c1.9964294 0 3.911087 0.79307556 5.3227844 2.204773c1.4116974 1.4116821 2.204773 3.326355 2.204773 5.3227844l0 0c0 4.157364 -3.3702087 7.5275726 -7.5275574 7.5275726l0 0c-4.157364 0 -7.527565 -3.3702087 -7.527565 -7.5275726z" fill-rule="evenodd"/><path fill="#cccccc" d="m156.24803 250.75328l0 0c0 -4.1573486 3.3702087 -7.5275574 7.5275574 -7.5275574l0 0c1.9964294 0 3.9111023 0.79307556 5.3227844 2.204773c1.4116974 1.4116821 2.204773 3.326355 2.204773 5.3227844l0 0c0 4.157364 -3.3701935 7.5275726 -7.5275574 7.5275726l0 0c-4.1573486 0 -7.5275574 -3.3702087 -7.5275574 -7.5275726z" fill-rule="evenodd"/><path fill="#cccccc" d="m98.3294 279.86615l0 0c0 -4.157379 3.370201 -7.5275574 7.5275574 -7.5275574l0 0c1.9964294 0 3.9110947 0.7930603 5.3227844 2.204773c1.4116974 1.4116821 2.204773 3.326355 2.204773 5.3227844l0 0c0 4.1573486 -3.370201 7.5275574 -7.5275574 7.5275574l0 0c-4.1573563 0 -7.5275574 -3.3702087 -7.5275574 -7.5275574z" fill-rule="evenodd"/><path fill="#cccccc" d="m127.43044 279.86615l0 0c0 -4.157379 3.370201 -7.5275574 7.527565 -7.5275574l0 0c1.9964294 0 3.911087 0.7930603 5.3227844 2.204773c1.4116974 1.4116821 2.204773 3.326355 2.204773 5.3227844l0 0c0 4.1573486 -3.3702087 7.5275574 -7.5275574 7.5275574l0 0c-4.157364 0 -7.527565 -3.3702087 -7.527565 -7.5275574z" fill-rule="evenodd"/><path fill="#cccccc" d="m156.5315 279.86615l0 0c0 -4.157379 3.3702087 -7.5275574 7.5275574 -7.5275574l0 0c1.9964294 0 3.9111023 0.7930603 5.3227844 2.204773c1.4116974 1.4116821 2.204773 3.326355 2.204773 5.3227844l0 0c0 4.1573486 -3.3701935 7.5275574 -7.5275574 7.5275574l0 0c-4.1573486 0 -7.5275574 -3.3702087 -7.5275574 -7.5275574z" fill-rule="evenodd"/><path fill="#cccccc" d="m98.3294 308.98032l0 0c0 -4.1573486 3.370201 -7.5275574 7.5275574 -7.5275574l0 0c1.9964294 0 3.9110947 0.7930908 5.3227844 2.204773c1.4116974 1.4116821 2.204773 3.326355 2.204773 5.3227844l0 0c0 4.1573486 -3.370201 7.5275574 -7.5275574 7.5275574l0 0c-4.1573563 0 -7.5275574 -3.3702087 -7.5275574 -7.5275574z" fill-rule="evenodd"/><path fill="#cccccc" d="m127.43044 308.98032l0 0c0 -4.1573486 3.370201 -7.5275574 7.527565 -7.5275574l0 0c1.9964294 0 3.911087 0.7930908 5.3227844 2.204773c1.4116974 1.4116821 2.204773 3.326355 2.204773 5.3227844l0 0c0 4.1573486 -3.3702087 7.5275574 -7.5275574 7.5275574l0 0c-4.157364 0 -7.527565 -3.3702087 -7.527565 -7.5275574z" fill-rule="evenodd"/><path fill="#cccccc" d="m156.5315 308.98032l0 0c0 -4.1573486 3.3702087 -7.5275574 7.5275574 -7.5275574l0 0c1.9964294 0 3.9111023 0.7930908 5.3227844 2.204773c1.4116974 1.4116821 2.204773 3.326355 2.204773 5.3227844l0 0c0 4.1573486 -3.3701935 7.5275574 -7.5275574 7.5275574l0 0c-4.1573486 0 -7.5275574 -3.3702087 -7.5275574 -7.5275574z" fill-rule="evenodd"/><path fill="#cccccc" d="m98.326775 338.0958l0 0c0 -4.1573486 3.370201 -7.5275574 7.5275574 -7.5275574l0 0c1.9964294 0 3.9110947 0.7930908 5.3227844 2.204773c1.4116898 1.4116821 2.204773 3.326355 2.204773 5.3227844l0 0c0 4.1573486 -3.370201 7.5275574 -7.5275574 7.5275574l0 0c-4.1573563 0 -7.5275574 -3.3702087 -7.5275574 -7.5275574z" fill-rule="evenodd"/><path fill="#cccccc" d="m127.42782 338.0958l0 0c0 -4.1573486 3.370201 -7.5275574 7.527565 -7.5275574l0 0c1.9964294 0 3.911087 0.7930908 5.3227844 2.204773c1.4116974 1.4116821 2.204773 3.326355 2.204773 5.3227844l0 0c0 4.1573486 -3.3702087 7.5275574 -7.5275574 7.5275574l0 0c-4.157364 0 -7.527565 -3.3702087 -7.527565 -7.5275574z" fill-rule="evenodd"/><path fill="#cccccc" d="m156.52887 338.0958l0 0c0 -4.1573486 3.3702087 -7.5275574 7.5275574 -7.5275574l0 0c1.9964294 0 3.9111023 0.7930908 5.3227844 2.204773c1.4116974 1.4116821 2.204773 3.326355 2.204773 5.3227844l0 0c0 4.1573486 -3.3701935 7.5275574 -7.5275574 7.5275574l0 0c-4.1573486 0 -7.5275574 -3.3702087 -7.5275574 -7.5275574z" fill-rule="evenodd"/><path fill="#cccccc" d="m98.04855 367.20996l0 0c0 -4.1573486 3.3702087 -7.5275574 7.527565 -7.5275574l0 0c1.9964294 0 3.9110947 0.7930908 5.3227844 2.204773c1.4116898 1.4117126 2.204773 3.326355 2.204773 5.3227844l0 0c0 4.157379 -3.370201 7.5275574 -7.5275574 7.5275574l0 0c-4.1573563 0 -7.527565 -3.3701782 -7.527565 -7.5275574z" fill-rule="evenodd"/><path fill="#cccccc" d="m127.149605 367.20996l0 0c0 -4.1573486 3.370201 -7.5275574 7.527565 -7.5275574l0 0c1.9964294 0 3.911087 0.7930908 5.3227844 2.204773c1.4116974 1.4117126 2.204773 3.326355 2.204773 5.3227844l0 0c0 4.157379 -3.3702087 7.5275574 -7.5275574 7.5275574l0 0c-4.157364 0 -7.527565 -3.3701782 -7.527565 -7.5275574z" fill-rule="evenodd"/><path fill="#cccccc" d="m156.25066 367.20996l0 0c0 -4.1573486 3.3702087 -7.5275574 7.5275574 -7.5275574l0 0c1.9964294 0 3.9111023 0.7930908 5.3227844 2.204773c1.4116974 1.4117126 2.204773 3.326355 2.204773 5.3227844l0 0c0 4.157379 -3.3701935 7.5275574 -7.5275574 7.5275574l0 0c-4.1573486 0 -7.5275574 -3.3701782 -7.5275574 -7.5275574z" fill-rule="evenodd"/><path fill="#cccccc" d="m98.04855 396.32416l0 0c0 -4.157379 3.3702087 -7.5275574 7.527565 -7.5275574l0 0c1.9964294 0 3.9110947 0.7930603 5.3227844 2.204773c1.4116898 1.4116821 2.204773 3.326355 2.204773 5.3227844l0 0c0 4.1573486 -3.370201 7.5275574 -7.5275574 7.5275574l0 0c-4.1573563 0 -7.527565 -3.3702087 -7.527565 -7.5275574z" fill-rule="evenodd"/><path fill="#cccccc" d="m127.149605 396.32416l0 0c0 -4.157379 3.370201 -7.5275574 7.527565 -7.5275574l0 0c1.9964294 0 3.911087 0.7930603 5.3227844 2.204773c1.4116974 1.4116821 2.204773 3.326355 2.204773 5.3227844l0 0c0 4.1573486 -3.3702087 7.5275574 -7.5275574 7.5275574l0 0c-4.157364 0 -7.527565 -3.3702087 -7.527565 -7.5275574z" fill-rule="evenodd"/><path fill="#cccccc" d="m156.25066 396.32416l0 0c0 -4.157379 3.3702087 -7.5275574 7.5275574 -7.5275574l0 0c1.9964294 0 3.9111023 0.7930603 5.3227844 2.204773c1.4116974 1.4116821 2.204773 3.326355 2.204773 5.3227844l0 0c0 4.1573486 -3.3701935 7.5275574 -7.5275574 7.5275574l0 0c-4.1573486 0 -7.5275574 -3.3702087 -7.5275574 -7.5275574z" fill-rule="evenodd"/><path fill="#cccccc" d="m98.04855 163.41077l0 0c0 -4.157364 3.3702087 -7.5275574 7.527565 -7.5275574l0 0c1.9964294 0 3.9110947 0.79307556 5.3227844 2.2047577c1.4116898 1.4116974 2.204773 3.326355 2.204773 5.3227997l0 0c0 4.1573486 -3.370201 7.5275574 -7.5275574 7.5275574l0 0c-4.1573563 0 -7.527565 -3.3702087 -7.527565 -7.5275574z" fill-rule="evenodd"/><path fill="#cccccc" d="m127.149605 163.41077l0 0c0 -4.157364 3.370201 -7.5275574 7.527565 -7.5275574l0 0c1.9964294 0 3.911087 0.79307556 5.3227844 2.2047577c1.4116974 1.4116974 2.204773 3.326355 2.204773 5.3227997l0 0c0 4.1573486 -3.3702087 7.5275574 -7.5275574 7.5275574l0 0c-4.157364 0 -7.527565 -3.3702087 -7.527565 -7.5275574z" fill-rule="evenodd"/><path fill="#efefef" d="m5.739769 5.038058l25.606298 0l0 25.6063l-25.606298 0z" fill-rule="evenodd"/><path fill="#efefef" d="m5.739769 34.15252l25.606298 0l0 25.6063l-25.606298 0z" fill-rule="evenodd"/><path fill="#efefef" d="m34.841763 34.15252l25.6063 0l0 25.6063l-25.6063 0z" fill-rule="evenodd"/><path fill="#efefef" d="m63.943756 5.038058l25.6063 0l0 25.6063l-25.6063 0z" fill-rule="evenodd"/><path fill="#efefef" d="m63.943756 34.15252l25.6063 0l0 25.6063l-25.6063 0z" fill-rule="evenodd"/><path fill="#efefef" d="m34.841763 5.038058l25.6063 0l0 25.6063l-25.6063 0z" fill-rule="evenodd"/><path fill="#efefef" d="m5.739769 63.26698l25.606298 0l0 25.606304l-25.606298 0z" fill-rule="evenodd"/><path fill="#efefef" d="m5.739769 92.38144l25.606298 0l0 25.6063l-25.606298 0z" fill-rule="evenodd"/><path fill="#efefef" d="m34.841763 92.38144l25.6063 0l0 25.6063l-25.6063 0z" fill-rule="evenodd"/><path fill="#efefef" d="m63.943756 63.26698l25.6063 0l0 25.606304l-25.6063 0z" fill-rule="evenodd"/><path fill="#efefef" d="m63.943756 92.38144l25.6063 0l0 25.6063l-25.6063 0z" fill-rule="evenodd"/><path fill="#efefef" d="m34.841763 63.26698l25.6063 0l0 25.606304l-25.6063 0z" fill-rule="evenodd"/><path fill="#efefef" d="m5.739769 121.4959l25.606298 0l0 25.6063l-25.606298 0z" fill-rule="evenodd"/><path fill="#efefef" d="m5.739769 150.61037l25.606298 0l0 25.606293l-25.606298 0z" fill-rule="evenodd"/><path fill="#efefef" d="m34.841763 150.61037l25.6063 0l0 25.606293l-25.6063 0z" fill-rule="evenodd"/><path fill="#efefef" d="m63.943756 121.4959l25.6063 0l0 25.6063l-25.6063 0z" fill-rule="evenodd"/><path fill="#efefef" d="m63.943756 150.61037l25.6063 0l0 25.606293l-25.6063 0z" fill-rule="evenodd"/><path fill="#efefef" d="m34.841763 121.4959l25.6063 0l0 25.6063l-25.6063 0z" fill-rule="evenodd"/><path fill="#efefef" d="m5.739769 179.72482l25.606298 0l0 25.606308l-25.606298 0z" fill-rule="evenodd"/><path fill="#efefef" d="m5.739769 208.8393l25.606298 0l0 25.606293l-25.606298 0z" fill-rule="evenodd"/><path fill="#efefef" d="m34.841763 208.8393l25.6063 0l0 25.606293l-25.6063 0z" fill-rule="evenodd"/><path fill="#efefef" d="m63.943756 179.72482l25.6063 0l0 25.606308l-25.6063 0z" fill-rule="evenodd"/><path fill="#efefef" d="m63.943756 208.8393l25.6063 0l0 25.606293l-25.6063 0z" fill-rule="evenodd"/><path fill="#efefef" d="m34.841763 179.72482l25.6063 0l0 25.606308l-25.6063 0z" fill-rule="evenodd"/><path fill="#efefef" d="m5.7407675 237.95169l25.6063 0l0 25.606293l-25.6063 0z" fill-rule="evenodd"/><path fill="#efefef" d="m5.7407675 267.06616l25.6063 0l0 25.606293l-25.6063 0z" fill-rule="evenodd"/><path fill="#efefef" d="m34.842762 267.06616l25.6063 0l0 25.606293l-25.6063 0z" fill-rule="evenodd"/><path fill="#efefef" d="m63.944756 237.95169l25.6063 0l0 25.606293l-25.6063 0z" fill-rule="evenodd"/><path fill="#efefef" d="m63.944756 267.06616l25.6063 0l0 25.606293l-25.6063 0z" fill-rule="evenodd"/><path fill="#efefef" d="m34.842762 237.95169l25.6063 0l0 25.606293l-25.6063 0z" fill-rule="evenodd"/><path fill="#efefef" d="m5.7407675 296.1806l25.6063 0l0 25.606293l-25.6063 0z" fill-rule="evenodd"/><path fill="#efefef" d="m5.7407675 325.29507l25.6063 0l0 25.606293l-25.6063 0z" fill-rule="evenodd"/><path fill="#efefef" d="m34.842762 325.29507l25.6063 0l0 25.606293l-25.6063 0z" fill-rule="evenodd"/><path fill="#efefef" d="m63.944756 296.1806l25.6063 0l0 25.606293l-25.6063 0z" fill-rule="evenodd"/><path fill="#efefef" d="m63.944756 325.29507l25.6063 0l0 25.606293l-25.6063 0z" fill-rule="evenodd"/><path fill="#efefef" d="m34.842762 296.1806l25.6063 0l0 25.606293l-25.6063 0z" fill-rule="evenodd"/><path fill="#efefef" d="m5.7407675 354.4116l25.6063 0l0 25.606293l-25.6063 0z" fill-rule="evenodd"/><path fill="#efefef" d="m5.7407675 383.52603l25.6063 0l0 25.606323l-25.6063 0z" fill-rule="evenodd"/><path fill="#efefef" d="m34.842762 383.52603l25.6063 0l0 25.606323l-25.6063 0z" fill-rule="evenodd"/><path fill="#efefef" d="m63.944756 354.4116l25.6063 0l0 25.606293l-25.6063 0z" fill-rule="evenodd"/><path fill="#efefef" d="m63.944756 383.52603l25.6063 0l0 25.606323l-25.6063 0z" fill-rule="evenodd"/><path fill="#efefef" d="m34.842762 354.4116l25.6063 0l0 25.606293l-25.6063 0z" fill-rule="evenodd"/><path fill="#cccccc" d="m11.01706 17.841208l0 0c0 -4.1573563 3.370203 -7.5275593 7.5275583 -7.5275593l0 0c1.9964333 0 3.9110985 0.79308033 5.3227882 2.204771c1.4116917 1.4116917 2.204771 3.326355 2.204771 5.3227882l0 0c0 4.1573563 -3.370203 7.5275593 -7.5275593 7.5275593l0 0c-4.1573553 0 -7.5275583 -3.370203 -7.5275583 -7.5275593z" fill-rule="evenodd"/><path fill="#cccccc" d="m40.11811 17.841208l0 0c0 -4.1573563 3.370201 -7.5275593 7.5275574 -7.5275593l0 0c1.9964333 0 3.9110985 0.79308033 5.3227882 2.204771c1.4116936 1.4116917 2.204773 3.326355 2.204773 5.3227882l0 0c0 4.1573563 -3.370205 7.5275593 -7.527561 7.5275593l0 0c-4.1573563 0 -7.5275574 -3.370203 -7.5275574 -7.5275593z" fill-rule="evenodd"/><path fill="#cccccc" d="m69.21916 17.841208l0 0c0 -4.1573563 3.370201 -7.5275593 7.5275574 -7.5275593l0 0c1.9964294 0 3.9110947 0.79308033 5.3227844 2.204771c1.4116974 1.4116917 2.204773 3.326355 2.204773 5.3227882l0 0c0 4.1573563 -3.370201 7.5275593 -7.5275574 7.5275593l0 0c-4.1573563 0 -7.5275574 -3.370203 -7.5275574 -7.5275593z" fill-rule="evenodd"/><path fill="#cccccc" d="m11.01706 46.95538l0 0c0 -4.1573563 3.370203 -7.5275574 7.5275583 -7.5275574l0 0c1.9964333 0 3.9110985 0.7930794 5.3227882 2.2047691c1.4116917 1.4116936 2.204771 3.326355 2.204771 5.3227882l0 0c0 4.1573563 -3.370203 7.527561 -7.5275593 7.527561l0 0c-4.1573553 0 -7.5275583 -3.370205 -7.5275583 -7.527561z" fill-rule="evenodd"/><path fill="#cccccc" d="m40.11811 46.95538l0 0c0 -4.1573563 3.370201 -7.5275574 7.5275574 -7.5275574l0 0c1.9964333 0 3.9110985 0.7930794 5.3227882 2.2047691c1.4116936 1.4116936 2.204773 3.326355 2.204773 5.3227882l0 0c0 4.1573563 -3.370205 7.527561 -7.527561 7.527561l0 0c-4.1573563 0 -7.5275574 -3.370205 -7.5275574 -7.527561z" fill-rule="evenodd"/><path fill="#cccccc" d="m40.396324 105.18372l0 0c0 -4.1573563 3.370205 -7.5275574 7.527561 -7.5275574l0 0c1.9964333 0 3.9110947 0.7930832 5.3227882 2.204773c1.4116898 1.4116898 2.2047691 3.326355 2.2047691 5.3227844l0 0c0 4.1573563 -3.370201 7.527565 -7.5275574 7.527565l0 0c-4.1573563 0 -7.527561 -3.3702087 -7.527561 -7.527565z" fill-rule="evenodd"/><path fill="#cccccc" d="m69.497375 105.18372l0 0c0 -4.1573563 3.370201 -7.5275574 7.5275574 -7.5275574l0 0c1.9964371 0 3.9110947 0.7930832 5.322792 2.204773c1.4116898 1.4116898 2.2047653 3.326355 2.2047653 5.3227844l0 0c0 4.1573563 -3.370201 7.527565 -7.5275574 7.527565l0 0c-4.1573563 0 -7.5275574 -3.3702087 -7.5275574 -7.527565z" fill-rule="evenodd"/><path fill="#cccccc" d="m40.396324 134.2979l0 0c0 -4.1573486 3.370205 -7.5275574 7.527561 -7.5275574l0 0c1.9964333 0 3.9110947 0.7930832 5.3227882 2.204773c1.4116898 1.4116974 2.2047691 3.326355 2.2047691 5.3227844l0 0c0 4.157364 -3.370201 7.5275574 -7.5275574 7.5275574l0 0c-4.1573563 0 -7.527561 -3.3701935 -7.527561 -7.5275574z" fill-rule="evenodd"/><path fill="#cccccc" d="m69.497375 134.2979l0 0c0 -4.1573486 3.370201 -7.5275574 7.5275574 -7.5275574l0 0c1.9964371 0 3.9110947 0.7930832 5.322792 2.204773c1.4116898 1.4116974 2.2047653 3.326355 2.2047653 5.3227844l0 0c0 4.157364 -3.370201 7.5275574 -7.5275574 7.5275574l0 0c-4.1573563 0 -7.5275574 -3.3701935 -7.5275574 -7.5275574z" fill-rule="evenodd"/><path fill="#cccccc" d="m69.49475 163.41339l0 0c0 -4.157364 3.370201 -7.5275574 7.5275574 -7.5275574l0 0c1.9964371 0 3.9110947 0.79307556 5.322792 2.2047577c1.4116898 1.4116974 2.2047653 3.326355 2.2047653 5.3227997l0 0c0 4.1573486 -3.370201 7.5275574 -7.5275574 7.5275574l0 0c-4.1573563 0 -7.5275574 -3.3702087 -7.5275574 -7.5275574z" fill-rule="evenodd"/><path fill="#cccccc" d="m11.292651 192.52625l0 0c0 -4.1573486 3.370203 -7.5275574 7.5275583 -7.5275574l0 0c1.9964333 0 3.9110966 0.79307556 5.3227882 2.204773c1.4116917 1.4116821 2.204771 3.326355 2.204771 5.3227844l0 0c0 4.157364 -3.370203 7.5275574 -7.5275593 7.5275574l0 0c-4.1573553 0 -7.5275583 -3.3701935 -7.5275583 -7.5275574z" fill-rule="evenodd"/><path fill="#cccccc" d="m69.49475 192.52625l0 0c0 -4.1573486 3.370201 -7.5275574 7.5275574 -7.5275574l0 0c1.9964371 0 3.9110947 0.79307556 5.322792 2.204773c1.4116898 1.4116821 2.2047653 3.326355 2.2047653 5.3227844l0 0c0 4.157364 -3.370201 7.5275574 -7.5275574 7.5275574l0 0c-4.1573563 0 -7.5275574 -3.3701935 -7.5275574 -7.5275574z" fill-rule="evenodd"/><path fill="#cccccc" d="m11.292651 221.64043l0 0c0 -4.157364 3.370203 -7.5275726 7.5275583 -7.5275726l0 0c1.9964333 0 3.9110966 0.7930908 5.3227882 2.204773c1.4116917 1.4116974 2.204771 3.326355 2.204771 5.3227997l0 0c0 4.1573486 -3.370203 7.5275574 -7.5275593 7.5275574l0 0c-4.1573553 0 -7.5275583 -3.3702087 -7.5275583 -7.5275574z" fill-rule="evenodd"/><path fill="#cccccc" d="m69.49475 221.64043l0 0c0 -4.157364 3.370201 -7.5275726 7.5275574 -7.5275726l0 0c1.9964371 0 3.9110947 0.7930908 5.322792 2.204773c1.4116898 1.4116974 2.2047653 3.326355 2.2047653 5.3227997l0 0c0 4.1573486 -3.370201 7.5275574 -7.5275574 7.5275574l0 0c-4.1573563 0 -7.5275574 -3.3702087 -7.5275574 -7.5275574z" fill-rule="evenodd"/><path fill="#cccccc" d="m11.290027 250.7559l0 0c0 -4.1573486 3.370203 -7.5275574 7.5275583 -7.5275574l0 0c1.9964333 0 3.9110966 0.79307556 5.3227882 2.204773c1.4116917 1.4116821 2.204771 3.326355 2.204771 5.3227844l0 0c0 4.157364 -3.370203 7.5275726 -7.5275593 7.5275726l0 0c-4.1573553 0 -7.5275583 -3.3702087 -7.5275583 -7.5275726z" fill-rule="evenodd"/><path fill="#cccccc" d="m69.49213 250.7559l0 0c0 -4.1573486 3.370201 -7.5275574 7.5275574 -7.5275574l0 0c1.9964371 0 3.9110947 0.79307556 5.322792 2.204773c1.4116898 1.4116821 2.2047653 3.326355 2.2047653 5.3227844l0 0c0 4.157364 -3.370201 7.5275726 -7.5275574 7.5275726l0 0c-4.1573563 0 -7.5275574 -3.3702087 -7.5275574 -7.5275726z" fill-rule="evenodd"/><path fill="#cccccc" d="m11.573491 279.86877l0 0c0 -4.157379 3.370203 -7.5275574 7.5275583 -7.5275574l0 0c1.9964333 0 3.9110966 0.7930603 5.3227882 2.204773c1.4116917 1.4116821 2.204771 3.326355 2.204771 5.3227844l0 0c0 4.1573486 -3.370203 7.5275574 -7.5275593 7.5275574l0 0c-4.1573553 0 -7.5275583 -3.3702087 -7.5275583 -7.5275574z" fill-rule="evenodd"/><path fill="#cccccc" d="m69.77559 279.86877l0 0c0 -4.157379 3.370201 -7.5275574 7.5275574 -7.5275574l0 0c1.9964371 0 3.9111023 0.7930603 5.322792 2.204773c1.4116898 1.4116821 2.204773 3.326355 2.204773 5.3227844l0 0c0 4.1573486 -3.3702087 7.5275574 -7.527565 7.5275574l0 0c-4.1573563 0 -7.5275574 -3.3702087 -7.5275574 -7.5275574z" fill-rule="evenodd"/><path fill="#cccccc" d="m11.573491 308.98294l0 0c0 -4.1573486 3.370203 -7.5275574 7.5275583 -7.5275574l0 0c1.9964333 0 3.9110966 0.7930908 5.3227882 2.204773c1.4116917 1.4116821 2.204771 3.326355 2.204771 5.3227844l0 0c0 4.1573486 -3.370203 7.5275574 -7.5275593 7.5275574l0 0c-4.1573553 0 -7.5275583 -3.3702087 -7.5275583 -7.5275574z" fill-rule="evenodd"/><path fill="#cccccc" d="m69.77559 308.98294l0 0c0 -4.1573486 3.370201 -7.5275574 7.5275574 -7.5275574l0 0c1.9964371 0 3.9111023 0.7930908 5.322792 2.204773c1.4116898 1.4116821 2.204773 3.326355 2.204773 5.3227844l0 0c0 4.1573486 -3.3702087 7.5275574 -7.527565 7.5275574l0 0c-4.1573563 0 -7.5275574 -3.3702087 -7.5275574 -7.5275574z" fill-rule="evenodd"/><path fill="#cccccc" d="m11.570867 338.09842l0 0c0 -4.1573486 3.370203 -7.5275574 7.5275583 -7.5275574l0 0c1.9964333 0 3.9110966 0.7930908 5.3227882 2.204773c1.4116917 1.4116821 2.204771 3.326355 2.204771 5.3227844l0 0c0 4.1573486 -3.370203 7.5275574 -7.5275593 7.5275574l0 0c-4.1573553 0 -7.5275583 -3.3702087 -7.5275583 -7.5275574z" fill-rule="evenodd"/><path fill="#cccccc" d="m69.772964 338.09842l0 0c0 -4.1573486 3.370201 -7.5275574 7.5275574 -7.5275574l0 0c1.9964371 0 3.9111023 0.7930908 5.322792 2.204773c1.4116898 1.4116821 2.204773 3.326355 2.204773 5.3227844l0 0c0 4.1573486 -3.3702087 7.5275574 -7.527565 7.5275574l0 0c-4.1573563 0 -7.5275574 -3.3702087 -7.5275574 -7.5275574z" fill-rule="evenodd"/><path fill="#cccccc" d="m11.292651 367.2126l0 0c0 -4.1573486 3.370203 -7.5275574 7.5275583 -7.5275574l0 0c1.9964333 0 3.9110966 0.7930908 5.3227882 2.204773c1.4116917 1.4117126 2.204771 3.326355 2.204771 5.3227844l0 0c0 4.157379 -3.370203 7.5275574 -7.5275593 7.5275574l0 0c-4.1573553 0 -7.5275583 -3.3701782 -7.5275583 -7.5275574z" fill-rule="evenodd"/><path fill="#cccccc" d="m69.49475 367.2126l0 0c0 -4.1573486 3.370201 -7.5275574 7.5275574 -7.5275574l0 0c1.9964371 0 3.9110947 0.7930908 5.322792 2.204773c1.4116898 1.4117126 2.2047653 3.326355 2.2047653 5.3227844l0 0c0 4.157379 -3.370201 7.5275574 -7.5275574 7.5275574l0 0c-4.1573563 0 -7.5275574 -3.3701782 -7.5275574 -7.5275574z" fill-rule="evenodd"/><path fill="#cccccc" d="m11.292651 396.32678l0 0c0 -4.157379 3.370203 -7.5275574 7.5275583 -7.5275574l0 0c1.9964333 0 3.9110966 0.7930603 5.3227882 2.204773c1.4116917 1.4116821 2.204771 3.326355 2.204771 5.3227844l0 0c0 4.1573486 -3.370203 7.5275574 -7.5275593 7.5275574l0 0c-4.1573553 0 -7.5275583 -3.3702087 -7.5275583 -7.5275574z" fill-rule="evenodd"/><path fill="#cccccc" d="m40.3937 396.32678l0 0c0 -4.157379 3.370205 -7.5275574 7.527561 -7.5275574l0 0c1.9964333 0 3.9110947 0.7930603 5.3227882 2.204773c1.4116898 1.4116821 2.2047691 3.326355 2.2047691 5.3227844l0 0c0 4.1573486 -3.370201 7.5275574 -7.5275574 7.5275574l0 0c-4.1573563 0 -7.527561 -3.3702087 -7.527561 -7.5275574z" fill-rule="evenodd"/><path fill="#cccccc" d="m69.49475 396.32678l0 0c0 -4.157379 3.370201 -7.5275574 7.5275574 -7.5275574l0 0c1.9964371 0 3.9110947 0.7930603 5.322792 2.204773c1.4116898 1.4116821 2.2047653 3.326355 2.2047653 5.3227844l0 0c0 4.1573486 -3.370201 7.5275574 -7.5275574 7.5275574l0 0c-4.1573563 0 -7.5275574 -3.3702087 -7.5275574 -7.5275574z" fill-rule="evenodd"/><path fill="#6d9eeb" d="m353.86502 5.0367455l25.606293 0l0 25.6063l-25.606293 0z" fill-rule="evenodd"/><path fill="#efefef" d="m353.86502 34.151207l25.606293 0l0 25.6063l-25.606293 0z" fill-rule="evenodd"/><path fill="#efefef" d="m353.86502 63.265667l25.606293 0l0 25.606304l-25.606293 0z" fill-rule="evenodd"/><path fill="#efefef" d="m353.86502 92.38013l25.606293 0l0 25.6063l-25.606293 0z" fill-rule="evenodd"/><path fill="#efefef" d="m353.86502 121.49459l25.606293 0l0 25.6063l-25.606293 0z" fill-rule="evenodd"/><path fill="#efefef" d="m353.86502 150.60905l25.606293 0l0 25.606293l-25.606293 0z" fill-rule="evenodd"/><path fill="#efefef" d="m353.86502 179.72351l25.606293 0l0 25.606308l-25.606293 0z" fill-rule="evenodd"/><path fill="#efefef" d="m353.86502 208.83798l25.606293 0l0 25.606293l-25.606293 0z" fill-rule="evenodd"/><path fill="#efefef" d="m353.86603 237.95038l25.606293 0l0 25.606293l-25.606293 0z" fill-rule="evenodd"/><path fill="#efefef" d="m353.86603 267.06485l25.606293 0l0 25.606293l-25.606293 0z" fill-rule="evenodd"/><path fill="#efefef" d="m353.86603 296.1793l25.606293 0l0 25.606293l-25.606293 0z" fill-rule="evenodd"/><path fill="#efefef" d="m353.86603 325.29376l25.606293 0l0 25.606293l-25.606293 0z" fill-rule="evenodd"/><path fill="#efefef" d="m353.86603 354.41028l25.606293 0l0 25.606293l-25.606293 0z" fill-rule="evenodd"/><path fill="#efefef" d="m353.86603 383.52472l25.606293 0l0 25.606323l-25.606293 0z" fill-rule="evenodd"/><path fill="#cccccc" d="m359.1404 46.954067l0 0c0 -4.1573563 3.3702087 -7.5275574 7.5275574 -7.5275574l0 0c1.9964294 0 3.9111023 0.7930794 5.3227844 2.2047691c1.4117126 1.4116936 2.204773 3.326355 2.204773 5.3227882l0 0c0 4.1573563 -3.3701782 7.527561 -7.5275574 7.527561l0 0c-4.1573486 0 -7.5275574 -3.370205 -7.5275574 -7.527561z" fill-rule="evenodd"/><path fill="#cccccc" d="m359.1378 76.06956l0 0c0 -4.1573563 3.3702087 -7.527565 7.5275574 -7.527565l0 0c1.9964294 0 3.9111023 0.7930832 5.3227844 2.204773c1.4117126 1.4116898 2.204773 3.326355 2.204773 5.322792l0 0c0 4.1573563 -3.3701782 7.5275574 -7.5275574 7.5275574l0 0c-4.1573486 0 -7.5275574 -3.370201 -7.5275574 -7.5275574z" fill-rule="evenodd"/><path fill="#cccccc" d="m359.41864 105.18241l0 0c0 -4.1573563 3.3702087 -7.5275574 7.5275574 -7.5275574l0 0c1.9964294 0 3.9111023 0.7930832 5.3227844 2.204773c1.4116821 1.4116898 2.204773 3.326355 2.204773 5.3227844l0 0c0 4.1573563 -3.3702087 7.527565 -7.5275574 7.527565l0 0c-4.1573486 0 -7.5275574 -3.3702087 -7.5275574 -7.527565z" fill-rule="evenodd"/><path fill="#cccccc" d="m359.41864 134.29659l0 0c0 -4.1573486 3.3702087 -7.5275574 7.5275574 -7.5275574l0 0c1.9964294 0 3.9111023 0.7930832 5.3227844 2.204773c1.4116821 1.4116974 2.204773 3.326355 2.204773 5.3227844l0 0c0 4.157364 -3.3702087 7.5275574 -7.5275574 7.5275574l0 0c-4.1573486 0 -7.5275574 -3.3701935 -7.5275574 -7.5275574z" fill-rule="evenodd"/><path fill="#cccccc" d="m359.41602 163.41208l0 0c0 -4.157364 3.3702087 -7.5275574 7.5275574 -7.5275574l0 0c1.9964294 0 3.9111023 0.79307556 5.3227844 2.2047577c1.4116821 1.4116974 2.204773 3.326355 2.204773 5.3227997l0 0c0 4.1573486 -3.3702087 7.5275574 -7.5275574 7.5275574l0 0c-4.1573486 0 -7.5275574 -3.3702087 -7.5275574 -7.5275574z" fill-rule="evenodd"/><path fill="#cccccc" d="m359.41602 192.52493l0 0c0 -4.1573486 3.3702087 -7.5275574 7.5275574 -7.5275574l0 0c1.9964294 0 3.9111023 0.79307556 5.3227844 2.204773c1.4116821 1.4116821 2.204773 3.326355 2.204773 5.3227844l0 0c0 4.157364 -3.3702087 7.5275574 -7.5275574 7.5275574l0 0c-4.1573486 0 -7.5275574 -3.3701935 -7.5275574 -7.5275574z" fill-rule="evenodd"/><path fill="#cccccc" d="m359.41602 221.63911l0 0c0 -4.157364 3.3702087 -7.5275726 7.5275574 -7.5275726l0 0c1.9964294 0 3.9111023 0.7930908 5.3227844 2.204773c1.4116821 1.4116974 2.204773 3.326355 2.204773 5.3227997l0 0c0 4.1573486 -3.3702087 7.5275574 -7.5275574 7.5275574l0 0c-4.1573486 0 -7.5275574 -3.3702087 -7.5275574 -7.5275574z" fill-rule="evenodd"/><path fill="#cccccc" d="m359.4134 250.7546l0 0c0 -4.1573486 3.3702087 -7.5275574 7.5275574 -7.5275574l0 0c1.9964294 0 3.9111023 0.79307556 5.3227844 2.204773c1.4116821 1.4116821 2.204773 3.326355 2.204773 5.3227844l0 0c0 4.157364 -3.3702087 7.5275726 -7.5275574 7.5275726l0 0c-4.1573486 0 -7.5275574 -3.3702087 -7.5275574 -7.5275726z" fill-rule="evenodd"/><path fill="#cccccc" d="m359.69684 279.86746l0 0c0 -4.157379 3.3702087 -7.5275574 7.5275574 -7.5275574l0 0c1.99646 0 3.9111023 0.7930603 5.322815 2.204773c1.4116821 1.4116821 2.204773 3.326355 2.204773 5.3227844l0 0c0 4.1573486 -3.3702087 7.5275574 -7.527588 7.5275574l0 0c-4.1573486 0 -7.5275574 -3.3702087 -7.5275574 -7.5275574z" fill-rule="evenodd"/><path fill="#cccccc" d="m359.69684 308.98163l0 0c0 -4.1573486 3.3702087 -7.5275574 7.5275574 -7.5275574l0 0c1.99646 0 3.9111023 0.7930908 5.322815 2.204773c1.4116821 1.4116821 2.204773 3.326355 2.204773 5.3227844l0 0c0 4.1573486 -3.3702087 7.5275574 -7.527588 7.5275574l0 0c-4.1573486 0 -7.5275574 -3.3702087 -7.5275574 -7.5275574z" fill-rule="evenodd"/><path fill="#cccccc" d="m359.6942 338.0971l0 0c0 -4.1573486 3.3702087 -7.5275574 7.5275574 -7.5275574l0 0c1.99646 0 3.9111023 0.7930908 5.322815 2.204773c1.4116821 1.4116821 2.2047424 3.326355 2.2047424 5.3227844l0 0c0 4.1573486 -3.3701782 7.5275574 -7.5275574 7.5275574l0 0c-4.1573486 0 -7.5275574 -3.3702087 -7.5275574 -7.5275574z" fill-rule="evenodd"/><path fill="#cccccc" d="m359.41602 367.21127l0 0c0 -4.1573486 3.3702087 -7.5275574 7.5275574 -7.5275574l0 0c1.9964294 0 3.9111023 0.7930908 5.3227844 2.204773c1.4116821 1.4117126 2.204773 3.326355 2.204773 5.3227844l0 0c0 4.157379 -3.3702087 7.5275574 -7.5275574 7.5275574l0 0c-4.1573486 0 -7.5275574 -3.3701782 -7.5275574 -7.5275574z" fill-rule="evenodd"/><path fill="#cccccc" d="m359.41602 396.32547l0 0c0 -4.157379 3.3702087 -7.5275574 7.5275574 -7.5275574l0 0c1.9964294 0 3.9111023 0.7930603 5.3227844 2.204773c1.4116821 1.4116821 2.204773 3.326355 2.204773 5.3227844l0 0c0 4.1573486 -3.3702087 7.5275574 -7.5275574 7.5275574l0 0c-4.1573486 0 -7.5275574 -3.3702087 -7.5275574 -7.5275574z" fill-rule="evenodd"/><path fill="#6d9eeb" d="m330.03806 17.83727l0 0c0 -4.1573563 3.3702087 -7.5275593 7.5275574 -7.5275593l0 0c1.9964294 0 3.9111023 0.7930794 5.3227844 2.204771c1.4117126 1.4116907 2.204773 3.326355 2.204773 5.3227882l0 0c0 4.1573563 -3.3702087 7.5275593 -7.5275574 7.5275593l0 0c-4.1573486 0 -7.5275574 -3.370203 -7.5275574 -7.5275593z" fill-rule="evenodd"/><path fill="#6d9eeb" d="m300.937 46.951443l0 0c0 -4.1573563 3.3702087 -7.5275574 7.5275574 -7.5275574l0 0c1.9964294 0 3.9111023 0.7930794 5.3227844 2.2047691c1.4116821 1.4116936 2.204773 3.326355 2.204773 5.3227882l0 0c0 4.1573563 -3.3702087 7.527561 -7.5275574 7.527561l0 0c-4.1573486 0 -7.5275574 -3.370205 -7.5275574 -7.527561z" fill-rule="evenodd"/><path fill="#6d9eeb" d="m330.03806 46.951443l0 0c0 -4.1573563 3.3702087 -7.5275574 7.5275574 -7.5275574l0 0c1.9964294 0 3.9111023 0.7930794 5.3227844 2.2047691c1.4117126 1.4116936 2.204773 3.326355 2.204773 5.3227882l0 0c0 4.1573563 -3.3702087 7.527561 -7.5275574 7.527561l0 0c-4.1573486 0 -7.5275574 -3.370205 -7.5275574 -7.527561z" fill-rule="evenodd"/><path fill="#6d9eeb" d="m271.83334 76.06693l0 0c0 -4.1573563 3.3701782 -7.527565 7.5275574 -7.527565l0 0c1.9964294 0 3.9111023 0.7930832 5.3227844 2.204773c1.4116821 1.4116898 2.204773 3.326355 2.204773 5.322792l0 0c0 4.1573563 -3.3702087 7.5275574 -7.5275574 7.5275574l0 0c-4.157379 0 -7.5275574 -3.370201 -7.5275574 -7.5275574z" fill-rule="evenodd"/><path fill="#6d9eeb" d="m300.9344 76.06693l0 0c0 -4.1573563 3.3702087 -7.527565 7.5275574 -7.527565l0 0c1.9964294 0 3.9111023 0.7930832 5.3227844 2.204773c1.4116821 1.4116898 2.204773 3.326355 2.204773 5.322792l0 0c0 4.1573563 -3.3702087 7.5275574 -7.5275574 7.5275574l0 0c-4.1573486 0 -7.5275574 -3.370201 -7.5275574 -7.5275574z" fill-rule="evenodd"/><path fill="#6d9eeb" d="m185.07742 76.06956l0 0c0 -4.1573563 3.3702087 -7.527565 7.5275574 -7.527565l0 0c1.9964447 0 3.9111023 0.7930832 5.3227997 2.204773c1.4116821 1.4116898 2.204773 3.326355 2.204773 5.322792l0 0c0 4.1573563 -3.3702087 7.5275574 -7.5275726 7.5275574l0 0c-4.1573486 0 -7.5275574 -3.370201 -7.5275574 -7.5275574z" fill-rule="evenodd"/><path fill="#6d9eeb" d="m243.27953 76.06956l0 0c0 -4.1573563 3.3702087 -7.527565 7.5275574 -7.527565l0 0c1.9964294 0 3.9111023 0.7930832 5.3227997 2.204773c1.4116821 1.4116898 2.204773 3.326355 2.204773 5.322792l0 0c0 4.1573563 -3.3702087 7.5275574 -7.5275726 7.5275574l0 0c-4.1573486 0 -7.5275574 -3.370201 -7.5275574 -7.5275574z" fill-rule="evenodd"/><path fill="#6d9eeb" d="m185.35826 105.18241l0 0c0 -4.1573563 3.3702087 -7.5275574 7.5275726 -7.5275574l0 0c1.9964294 0 3.911087 0.7930832 5.3227844 2.204773c1.4116821 1.4116898 2.204773 3.326355 2.204773 5.3227844l0 0c0 4.1573563 -3.3702087 7.527565 -7.5275574 7.527565l0 0c-4.157364 0 -7.5275726 -3.3702087 -7.5275726 -7.527565z" fill-rule="evenodd"/><path fill="#6d9eeb" d="m214.45932 105.18241l0 0c0 -4.1573563 3.3701935 -7.5275574 7.5275574 -7.5275574l0 0c1.9964294 0 3.9111023 0.7930832 5.3227844 2.204773c1.4116974 1.4116898 2.204773 3.326355 2.204773 5.3227844l0 0c0 4.1573563 -3.3702087 7.527565 -7.5275574 7.527565l0 0c-4.157364 0 -7.5275574 -3.3702087 -7.5275574 -7.527565z" fill-rule="evenodd"/><path fill="#6d9eeb" d="m243.56036 105.18241l0 0c0 -4.1573563 3.3702087 -7.5275574 7.5275574 -7.5275574l0 0c1.9964447 0 3.9111023 0.7930832 5.3227844 2.204773c1.4117126 1.4116898 2.204773 3.326355 2.204773 5.3227844l0 0c0 4.1573563 -3.3701935 7.527565 -7.5275574 7.527565l0 0c-4.1573486 0 -7.5275574 -3.3702087 -7.5275574 -7.527565z" fill-rule="evenodd"/><path fill="#6d9eeb" d="m97.772964 46.952755l0 0c0 -4.1573563 3.370201 -7.5275574 7.5275574 -7.5275574l0 0c1.9964371 0 3.9111023 0.7930794 5.322792 2.2047691c1.4116898 1.4116936 2.204773 3.326355 2.204773 5.3227882l0 0c0 4.1573563 -3.3702087 7.527561 -7.527565 7.527561l0 0c-4.1573563 0 -7.5275574 -3.370205 -7.5275574 -7.527561z" fill-rule="evenodd"/><path fill="#6d9eeb" d="m126.874016 46.952755l0 0c0 -4.1573563 3.370201 -7.5275574 7.527565 -7.5275574l0 0c1.9964294 0 3.911087 0.7930794 5.3227844 2.2047691c1.4116821 1.4116936 2.204773 3.326355 2.204773 5.3227882l0 0c0 4.1573563 -3.3702087 7.527561 -7.5275574 7.527561l0 0c-4.157364 0 -7.527565 -3.370205 -7.527565 -7.527561z" fill-rule="evenodd"/><path fill="#6d9eeb" d="m155.97507 46.952755l0 0c0 -4.1573563 3.3702087 -7.5275574 7.5275574 -7.5275574l0 0c1.9964294 0 3.9111023 0.7930794 5.3227844 2.2047691c1.4116974 1.4116936 2.204773 3.326355 2.204773 5.3227882l0 0c0 4.1573563 -3.3702087 7.527561 -7.5275574 7.527561l0 0c-4.1573486 0 -7.5275574 -3.370205 -7.5275574 -7.527561z" fill-rule="evenodd"/><path fill="#6d9eeb" d="m155.97244 76.068245l0 0c0 -4.1573563 3.3702087 -7.527565 7.5275574 -7.527565l0 0c1.9964294 0 3.9111023 0.7930832 5.3227844 2.204773c1.4116974 1.4116898 2.204773 3.326355 2.204773 5.322792l0 0c0 4.1573563 -3.3702087 7.5275574 -7.5275574 7.5275574l0 0c-4.1573486 0 -7.5275574 -3.370201 -7.5275574 -7.5275574z" fill-rule="evenodd"/><path fill="#6d9eeb" d="m69.21916 46.95538l0 0c0 -4.1573563 3.370201 -7.5275574 7.5275574 -7.5275574l0 0c1.9964294 0 3.9110947 0.7930794 5.3227844 2.2047691c1.4116974 1.4116936 2.204773 3.326355 2.204773 5.3227882l0 0c0 4.1573563 -3.370201 7.527561 -7.5275574 7.527561l0 0c-4.1573563 0 -7.5275574 -3.370205 -7.5275574 -7.527561z" fill-rule="evenodd"/><path fill="#6d9eeb" d="m11.014436 76.07087l0 0c0 -4.1573563 3.370203 -7.527565 7.5275583 -7.527565l0 0c1.9964333 0 3.9110985 0.7930832 5.3227882 2.204773c1.4116917 1.4116898 2.204771 3.326355 2.204771 5.322792l0 0c0 4.1573563 -3.370203 7.5275574 -7.5275593 7.5275574l0 0c-4.1573553 0 -7.5275583 -3.370201 -7.5275583 -7.5275574z" fill-rule="evenodd"/><path fill="#6d9eeb" d="m40.115486 76.07087l0 0c0 -4.1573563 3.370201 -7.527565 7.5275574 -7.527565l0 0c1.9964333 0 3.9110985 0.7930832 5.3227882 2.204773c1.4116936 1.4116898 2.204773 3.326355 2.204773 5.322792l0 0c0 4.1573563 -3.370205 7.5275574 -7.527561 7.5275574l0 0c-4.1573563 0 -7.5275574 -3.370201 -7.5275574 -7.5275574z" fill-rule="evenodd"/><path fill="#6d9eeb" d="m69.21654 76.07087l0 0c0 -4.1573563 3.370201 -7.527565 7.5275574 -7.527565l0 0c1.9964294 0 3.9110947 0.7930832 5.3227844 2.204773c1.4116974 1.4116898 2.204773 3.326355 2.204773 5.322792l0 0c0 4.1573563 -3.370201 7.5275574 -7.5275574 7.5275574l0 0c-4.1573563 0 -7.5275574 -3.370201 -7.5275574 -7.5275574z" fill-rule="evenodd"/><path fill="#6d9eeb" d="m11.295276 105.18372l0 0c0 -4.1573563 3.370203 -7.5275574 7.5275583 -7.5275574l0 0c1.9964333 0 3.9110966 0.7930832 5.3227882 2.204773c1.4116917 1.4116898 2.204771 3.326355 2.204771 5.3227844l0 0c0 4.1573563 -3.370203 7.527565 -7.5275593 7.527565l0 0c-4.1573553 0 -7.5275583 -3.3702087 -7.5275583 -7.527565z" fill-rule="evenodd"/><path fill="#6d9eeb" d="m11.295276 134.2979l0 0c0 -4.1573486 3.370203 -7.5275574 7.5275583 -7.5275574l0 0c1.9964333 0 3.9110966 0.7930832 5.3227882 2.204773c1.4116917 1.4116974 2.204771 3.326355 2.204771 5.3227844l0 0c0 4.157364 -3.370203 7.5275574 -7.5275593 7.5275574l0 0c-4.1573553 0 -7.5275583 -3.3701935 -7.5275583 -7.5275574z" fill-rule="evenodd"/><path fill="#6d9eeb" d="m40.3937 192.52625l0 0c0 -4.1573486 3.370205 -7.5275574 7.527561 -7.5275574l0 0c1.9964333 0 3.9110947 0.79307556 5.3227882 2.204773c1.4116898 1.4116821 2.2047691 3.326355 2.2047691 5.3227844l0 0c0 4.157364 -3.370201 7.5275574 -7.5275574 7.5275574l0 0c-4.1573563 0 -7.527561 -3.3701935 -7.527561 -7.5275574z" fill-rule="evenodd"/><path fill="#6d9eeb" d="m40.3937 221.64043l0 0c0 -4.157364 3.370205 -7.5275726 7.527561 -7.5275726l0 0c1.9964333 0 3.9110947 0.7930908 5.3227882 2.204773c1.4116898 1.4116974 2.2047691 3.326355 2.2047691 5.3227997l0 0c0 4.1573486 -3.370201 7.5275574 -7.5275574 7.5275574l0 0c-4.1573563 0 -7.527561 -3.3702087 -7.527561 -7.5275574z" fill-rule="evenodd"/><path fill="#6d9eeb" d="m40.391075 250.7559l0 0c0 -4.1573486 3.370205 -7.5275574 7.527561 -7.5275574l0 0c1.9964333 0 3.9110947 0.79307556 5.3227882 2.204773c1.4116898 1.4116821 2.2047691 3.326355 2.2047691 5.3227844l0 0c0 4.157364 -3.370201 7.5275726 -7.5275574 7.5275726l0 0c-4.1573563 0 -7.527561 -3.3702087 -7.527561 -7.5275726z" fill-rule="evenodd"/><path fill="#6d9eeb" d="m40.67454 279.86877l0 0c0 -4.157379 3.370201 -7.5275574 7.5275574 -7.5275574l0 0c1.9964333 0 3.9110985 0.7930603 5.3227882 2.204773c1.4116936 1.4116821 2.204773 3.326355 2.204773 5.3227844l0 0c0 4.1573486 -3.370205 7.5275574 -7.527561 7.5275574l0 0c-4.1573563 0 -7.5275574 -3.3702087 -7.5275574 -7.5275574z" fill-rule="evenodd"/><path fill="#6d9eeb" d="m40.67454 308.98294l0 0c0 -4.1573486 3.370201 -7.5275574 7.5275574 -7.5275574l0 0c1.9964333 0 3.9110985 0.7930908 5.3227882 2.204773c1.4116936 1.4116821 2.204773 3.326355 2.204773 5.3227844l0 0c0 4.1573486 -3.370205 7.5275574 -7.527561 7.5275574l0 0c-4.1573563 0 -7.5275574 -3.3702087 -7.5275574 -7.5275574z" fill-rule="evenodd"/><path fill="#6d9eeb" d="m40.671917 338.09842l0 0c0 -4.1573486 3.370201 -7.5275574 7.5275574 -7.5275574l0 0c1.9964333 0 3.9110985 0.7930908 5.3227882 2.204773c1.4116936 1.4116821 2.204773 3.326355 2.204773 5.3227844l0 0c0 4.1573486 -3.370205 7.5275574 -7.527561 7.5275574l0 0c-4.1573563 0 -7.5275574 -3.3702087 -7.5275574 -7.5275574z" fill-rule="evenodd"/><path fill="#6d9eeb" d="m40.3937 367.2126l0 0c0 -4.1573486 3.370205 -7.5275574 7.527561 -7.5275574l0 0c1.9964333 0 3.9110947 0.7930908 5.3227882 2.204773c1.4116898 1.4117126 2.2047691 3.326355 2.2047691 5.3227844l0 0c0 4.157379 -3.370201 7.5275574 -7.5275574 7.5275574l0 0c-4.1573563 0 -7.527561 -3.3701782 -7.527561 -7.5275574z" fill-rule="evenodd"/><path fill="#6d9eeb" d="m11.292651 163.41339l0 0c0 -4.157364 3.370203 -7.5275574 7.5275583 -7.5275574l0 0c1.9964333 0 3.9110966 0.79307556 5.3227882 2.2047577c1.4116917 1.4116974 2.204771 3.326355 2.204771 5.3227997l0 0c0 4.1573486 -3.370203 7.5275574 -7.5275593 7.5275574l0 0c-4.1573553 0 -7.5275583 -3.3702087 -7.5275583 -7.5275574z" fill-rule="evenodd"/><path fill="#6d9eeb" d="m40.3937 163.41339l0 0c0 -4.157364 3.370205 -7.5275574 7.527561 -7.5275574l0 0c1.9964333 0 3.9110947 0.79307556 5.3227882 2.2047577c1.4116898 1.4116974 2.2047691 3.326355 2.2047691 5.3227997l0 0c0 4.1573486 -3.370201 7.5275574 -7.5275574 7.5275574l0 0c-4.1573563 0 -7.527561 -3.3702087 -7.527561 -7.5275574z" fill-rule="evenodd"/><path fill="#000000" fill-opacity="0.0" d="m48.39895 367.5223l0.50393677 -204.17848l-29.745405 0l0 -87.21784l57.97638 0l0 -29.24147l87.21784 0l0 29.24147l29.24147 0l0 28.737534l58.480316 0l0 -28.737534l57.472443 0l0 -29.24147l28.734924 0l0 -29.238844l28.737518 0" fill-rule="evenodd"/><path stroke="#6d9eeb" stroke-width="4.0" stroke-linejoin="round" stroke-linecap="butt" d="m48.39895 367.5223l0.50393677 -204.17848l-29.745405 0l0 -87.21784l57.97638 0l0 -29.24147l87.21784 0l0 29.24147l29.24147 0l0 28.737534l58.480316 0l0 -28.737534l57.472443 0l0 -29.24147l28.734924 0l0 -29.238844l28.737518 0" fill-rule="evenodd"/><path fill="#000000" fill-opacity="0.0" d="m355.70865 7.3018374l21.921265 0l0 21.070866l-21.921265 0z" fill-rule="evenodd"/><path fill="#ffffff" d="m360.38052 23.065586l0 -3.671875l-3.640625 0l0 -1.515625l3.640625 0l0 -3.640626l1.546875 0l0 3.640626l3.640625 0l0 1.515625l-3.640625 0l0 3.671875l-1.546875 0zm13.1762085 2.15625l-1.640625 0l0 -10.453126q-0.59375 0.5625 -1.5625 1.140625q-0.953125 0.56250095 -1.71875 0.84375095l0 -1.593751q1.375 -0.640625 2.40625 -1.5625q1.03125 -0.921875 1.453125 -1.78125l1.0625 0l0 13.406251z" fill-rule="nonzero"/></g></svg>